<svg xmlns="http://www.w3.org/2000/svg" width="800" height="600" fill="none" viewBox="0 0 800 600">
    <style>
        :where(.theme-dark, [data-theme="dark"]) .tblr-illustrations-3d-scan-a { fill: black; opacity: 0.07; } :where(.theme-dark, [data-theme="dark"]) .tblr-illustrations-3d-scan-b { fill: #24304d; } :where(.theme-dark, [data-theme="dark"]) .tblr-illustrations-3d-scan-c { fill: #0b1b3b; } :where(.theme-dark, [data-theme="dark"]) .tblr-illustrations-3d-scan-d { fill: black; opacity: 0.3; }
        @media (prefers-color-scheme: dark) { .tblr-illustrations-3d-scan-a { fill: black; opacity: 0.07; } .tblr-illustrations-3d-scan-b { fill: #24304d; } .tblr-illustrations-3d-scan-c { fill: #0b1b3b; } .tblr-illustrations-3d-scan-d { fill: black; opacity: 0.3; } }
    </style>
    <path d="M151.945 299.64C151.945 343.131 197.869 374.775 218.217 409.955C239.135 446.276 244.25 501.6 280.39 522.664C315.513 543.044 365.524 520.27 408.945 520.27C452.367 520.27 502.377 543.044 537.501 522.664C573.653 501.712 578.768 446.276 599.673 409.955C620.022 374.775 665.945 343.243 665.945 299.64C665.945 256.038 619.91 224.505 599.673 189.325C578.755 153.005 573.64 97.5682 537.501 76.6167C502.377 56.2358 452.367 79.0108 408.945 79.0108C365.524 79.0108 315.513 56.2358 280.39 76.6167C244.126 97.5682 239.123 153.005 218.217 189.325C197.869 224.617 151.945 256.149 151.945 299.64Z" fill="#1a3263" style="fill: #1a3263; fill: var(--tblr-illustrations-primary, var(--tblr-primary, #1a3263));" opacity="0.02" class="tblr-illustrations tblr-illustrations-vocate tblr-illustrations-3d-scan-a"/>
    <path d="M633.945 283.496V464.785C633.945 467.736 631.501 470.14 628.499 470.14H618.392C615.39 470.14 612.945 467.749 612.945 464.785V283.496C612.945 280.544 615.377 278.14 618.392 278.14H628.499C631.501 278.14 633.945 280.531 633.945 283.496Z" fill="#A6A9B3"/>
    <path d="M682.651 273.14H562.24C559.316 273.14 556.945 275.379 556.945 278.14C556.945 280.902 559.316 283.14 562.24 283.14H682.651C685.575 283.14 687.945 280.902 687.945 278.14C687.945 275.379 685.575 273.14 682.651 273.14Z" fill="#DADCE0"/>
    <path d="M693.85 162.14H553.04C547.465 162.14 542.958 166.623 542.945 172.14V252.013C542.933 257.542 547.453 262.037 553.04 262.05H604.46V265.448C603.926 269.155 601.417 270.214 599.654 270.461H580.035C579.278 270.461 578.682 271.064 578.682 271.815V273.786C578.682 274.537 579.278 275.14 580.035 275.14H666.843C667.601 275.14 668.209 274.537 668.209 273.786V271.827C668.209 271.064 667.601 270.461 666.843 270.461H647.187C645.436 270.19 642.915 269.143 642.381 265.424V262.05H693.85C699.426 262.05 703.933 257.567 703.945 252.038V172.14C703.945 166.623 699.426 162.14 693.85 162.14ZM700.096 252.013C700.096 255.424 697.29 258.207 693.85 258.207H553.04C549.588 258.207 546.782 255.424 546.782 252.013V172.14C546.782 168.729 549.588 165.945 553.04 165.945H693.85C697.29 165.945 700.096 168.729 700.096 172.14V252.013Z" fill="#0b1b3b" class="tblr-illustrations tblr-illustrations-vocate tblr-illustrations-3d-scan-b"/>
    <path d="M663.033 191.14C662.334 191.14 661.646 190.787 661.253 190.154C660.652 189.181 660.958 187.915 661.941 187.319L684.777 173.445C685.759 172.849 687.036 173.153 687.637 174.127C688.239 175.1 687.932 176.366 686.95 176.962L664.114 190.836C663.77 191.043 663.402 191.14 663.033 191.14Z" fill="#1a3263" style="fill: #1a3263; fill: var(--tblr-illustrations-primary, var(--tblr-primary, #1a3263));"/>
    <path d="M665.326 197.14C664.675 197.14 664.101 196.714 663.974 196.111C663.82 195.413 664.305 194.739 665.058 194.597L683.284 191.166C684.037 191.024 684.764 191.474 684.917 192.172C685.07 192.87 684.585 193.544 683.833 193.686L665.606 197.116C665.517 197.128 665.415 197.14 665.326 197.14Z" fill="#1a3263" style="fill: #1a3263; fill: var(--tblr-illustrations-primary, var(--tblr-primary, #1a3263));"/>
    <path d="M563.033 249.14C562.334 249.14 561.646 248.787 561.253 248.154C560.652 247.181 560.958 245.915 561.941 245.319L584.777 231.445C585.759 230.849 587.036 231.153 587.637 232.127C588.239 233.1 587.932 234.366 586.95 234.962L564.114 248.836C563.77 249.043 563.402 249.14 563.033 249.14Z" fill="#1a3263" style="fill: #1a3263; fill: var(--tblr-illustrations-primary, var(--tblr-primary, #1a3263));"/>
    <path d="M565.326 231.14C564.675 231.14 564.101 230.714 563.974 230.111C563.82 229.413 564.305 228.739 565.058 228.597L583.284 225.166C584.037 225.024 584.764 225.474 584.917 226.172C585.07 226.87 584.585 227.544 583.833 227.686L565.606 231.116C565.517 231.128 565.415 231.14 565.326 231.14Z" fill="#1a3263" style="fill: #1a3263; fill: var(--tblr-illustrations-primary, var(--tblr-primary, #1a3263));"/>
    <path d="M629.096 213.223C625.848 212.64 622.625 212.033 619.463 211.438C617.467 209.355 615.918 207.471 614.777 205.884C615.323 206.182 615.967 206.405 616.736 206.442H616.823H617.071C618.806 206.442 620.492 205.524 621.67 203.938C622.178 203.256 622.575 202.475 622.848 201.669C622.922 202.562 623.096 203.38 623.331 204.086C623.951 205.946 625.042 207.26 626.48 207.892C627.063 208.153 627.683 208.277 628.327 208.277C630.708 208.277 632.716 206.541 634.365 204.83C634.105 205.252 633.795 205.71 633.547 206.082L633.162 206.665C631.786 208.711 630.423 210.917 629.084 213.223H629.096ZM623.207 197.838C623.158 197.528 623.083 197.218 622.997 196.908C622.823 196.338 622.563 195.842 622.253 195.396C622.711 195.78 623.257 196.053 623.84 196.214C623.567 196.747 623.356 197.28 623.195 197.826L623.207 197.838ZM621.348 194.342C620.889 193.908 620.368 193.536 619.86 193.214C620.182 193.189 620.505 193.127 620.815 193.041C620.902 193.487 621.075 193.921 621.348 194.342Z" fill="white"/>
    <path d="M626.693 175.858C625.317 175.858 623.619 176.54 622.59 177.743C619.788 181.028 621.747 188.318 620.321 189.26C620.036 189.458 619.689 189.57 619.329 189.57C619.317 189.57 619.292 189.57 619.28 189.57C618.932 189.52 618.598 189.347 618.362 189.086C618.139 188.875 615.226 185.937 613.503 185.937C613.341 185.937 613.18 185.962 613.044 186.024C611.941 186.483 611.717 188.206 611.68 188.578C611.581 189.359 611.68 190.413 612.436 191.838C614.271 195.384 618.809 195.942 619.466 198C620.061 199.946 618.66 202.773 617.061 202.773C617.023 202.773 616.986 202.773 616.961 202.773C616.565 202.76 616.304 202.562 615.486 201.731C612.598 198.83 612.002 197.863 611.073 197.851H611.048C609.87 197.851 608.978 199.401 608.928 199.487C606.647 203.529 615.833 213.025 617.631 214.847C622.081 215.69 626.507 216.521 631.02 217.315C633.065 213.595 634.9 210.707 636.239 208.698C637.689 206.504 639.152 204.583 638.408 202.884C637.838 201.57 636.524 200.69 635.049 200.69C633.983 200.69 632.817 201.149 631.776 202.215C630.239 203.814 629.098 204.595 628.33 204.595C628.193 204.595 628.069 204.57 627.958 204.521C626.619 203.938 625.825 200.182 627.313 197.591C627.623 197.008 627.809 196.946 630.09 194.876C632.371 192.805 633.512 191.764 633.933 191.157C635.421 189.074 636.636 185.739 635.346 184.276C634.937 183.805 634.342 183.545 633.722 183.545C630.598 183.644 630.102 191.652 625.825 192.582C625.59 192.632 625.329 192.694 625.094 192.694C624.883 192.694 624.697 192.644 624.573 192.508C623.606 191.466 627.809 186.086 629.024 180.011C629.52 177.47 628.776 176.677 628.342 176.329C627.933 176.007 627.35 175.858 626.706 175.858H626.693Z" fill="#0b1b3b" class="tblr-illustrations tblr-illustrations-vocate tblr-illustrations-3d-scan-b"/>
    <path d="M633.066 240.19C632.444 241.398 631.747 242.557 630.926 243.654C627.467 248.302 620.413 248.302 616.955 243.654C611.829 236.763 610.921 227.258 610.946 221.156C610.946 217.556 611.294 215.14 611.294 215.14H636.587C636.587 215.14 638.602 229.354 633.078 240.19H633.066Z" fill="#DADCE0"/>
    <path d="M632.933 240.186C632.315 241.395 631.622 242.554 630.806 243.652C627.368 248.303 620.357 248.303 616.919 243.652C611.824 236.757 610.921 227.246 610.946 221.14C613.679 226.087 619.973 234.536 632.945 240.186H632.933Z" fill="black" opacity="0.1"/>
    <path d="M633.945 360.14V464.766C633.945 467.728 631.501 470.14 628.499 470.14H618.392C615.39 470.14 612.945 467.74 612.945 464.766V381.863C621.583 375.026 628.461 367.589 633.945 360.153V360.14Z" fill="black" opacity="0.1"/>
    <path d="M345.56 239.14H345.331C341.804 239.14 338.945 242.081 338.945 245.708V453.572C338.945 457.2 341.804 460.14 345.331 460.14H345.56C349.086 460.14 351.945 457.2 351.945 453.572V245.708C351.945 242.081 349.086 239.14 345.56 239.14Z" fill="#A6A9B3"/>
    <path d="M345.445 354.14C334.694 354.14 325.945 345.391 325.945 334.64C325.945 323.889 334.694 315.14 345.445 315.14C356.197 315.14 364.945 323.889 364.945 334.64C364.945 345.391 356.197 354.14 345.445 354.14Z" fill="white" class="tblr-illustrations tblr-illustrations-vocate tblr-illustrations-3d-scan-c"/>
    <path d="M344.945 319.517C353.563 319.517 360.568 326.523 360.568 335.14C360.568 343.757 353.563 350.763 344.945 350.763C336.328 350.763 329.323 343.757 329.323 335.14C329.323 326.523 336.328 319.517 344.945 319.517ZM344.945 312.14C332.236 312.14 321.945 322.444 321.945 335.14C321.945 347.837 332.249 358.14 344.945 358.14C357.642 358.14 367.945 347.837 367.945 335.14C367.945 322.444 357.642 312.14 344.945 312.14Z" fill="#1a3263" style="fill: #1a3263; fill: var(--tblr-illustrations-primary, var(--tblr-primary, #1a3263));"/>
    <path d="M351.945 247.14H338.551C338.551 196.073 296.956 154.52 245.835 154.52C194.715 154.52 156.53 192.753 153.318 240.933C153.082 244.427 150.155 247.14 146.645 247.14C142.751 247.14 139.7 243.845 139.961 239.967C143.669 184.848 189.742 141.14 245.835 141.14C301.929 141.14 351.945 188.689 351.945 247.14Z" fill="#A6A9B3"/>
    <path d="M245.445 168.14C234.138 168.14 224.945 158.948 224.945 147.64C224.945 136.332 234.138 127.14 245.445 127.14C256.753 127.14 265.945 136.332 265.945 147.64C265.945 158.948 256.753 168.14 245.445 168.14Z" fill="white" class="tblr-illustrations tblr-illustrations-vocate tblr-illustrations-3d-scan-c"/>
    <path d="M244.945 130.6C254.157 130.6 261.65 138.249 261.65 147.653C261.65 157.056 254.157 164.705 244.945 164.705C235.733 164.705 228.241 157.056 228.241 147.653C228.241 138.249 235.733 130.6 244.945 130.6ZM244.945 123.14C231.693 123.14 220.945 134.111 220.945 147.64C220.945 161.169 231.693 172.14 244.945 172.14C258.198 172.14 268.945 161.169 268.945 147.64C268.945 134.111 258.198 123.14 244.945 123.14Z" fill="#0b1b3b" class="tblr-illustrations tblr-illustrations-vocate tblr-illustrations-3d-scan-b"/>
    <path d="M243.984 191.14C237.046 191.14 229.523 188.784 222.549 181.705C221.744 180.886 221.744 179.572 222.549 178.754C223.354 177.936 224.646 177.936 225.451 178.754C243.521 197.129 265.663 179.374 266.602 178.605C267.48 177.886 268.773 178.022 269.492 178.915C270.199 179.808 270.065 181.122 269.187 181.854C269.016 181.99 257.653 191.14 243.984 191.14Z" fill="#DADCE0"/>
    <path d="M243.32 211.14C234.069 211.14 224.035 208.057 214.746 198.807C213.678 197.742 213.678 196.02 214.746 194.943C215.814 193.878 217.54 193.878 218.621 194.943C242.712 218.954 272.23 195.748 273.484 194.745C274.664 193.804 276.377 193.977 277.334 195.153C278.29 196.33 278.104 198.039 276.924 198.992C276.7 199.178 261.55 211.14 243.333 211.14H243.32Z" fill="#1a3263" style="fill: #1a3263; fill: var(--tblr-illustrations-primary, var(--tblr-primary, #1a3263));"/>
    <path d="M243.971 340.14H241.92C239.725 340.14 237.945 341.881 237.945 344.029V431.251C237.945 433.399 239.725 435.14 241.92 435.14H243.971C246.166 435.14 247.945 433.399 247.945 431.251V344.029C247.945 341.881 246.166 340.14 243.971 340.14Z" fill="#0b1b3b" class="tblr-illustrations tblr-illustrations-vocate tblr-illustrations-3d-scan-b"/>
    <path d="M279.933 337.146C279.933 341.013 263.375 344.14 242.939 344.14C222.504 344.14 205.945 341.013 205.945 337.146C205.945 335.866 207.748 334.671 210.897 333.637C217.293 331.544 229.258 330.14 242.951 330.14C262.646 330.14 278.748 333.058 279.884 336.728C279.921 336.863 279.945 336.999 279.945 337.146H279.933Z" fill="#A6A9B3"/>
    <path d="M279.945 337.326C273.548 339.609 261.581 341.14 247.884 341.14C228.186 341.14 212.082 337.957 210.945 333.955C217.343 331.671 229.31 330.14 243.006 330.14C262.705 330.14 278.809 333.323 279.945 337.326Z" fill="black" opacity="0.1"/>
    <path d="M95.9453 467.081C95.9453 469.835 231.869 472.14 399.445 472.14C567.021 472.14 702.945 469.847 702.945 467.081C702.945 464.315 567.021 462.14 399.445 462.14C231.869 462.14 95.9453 464.433 95.9453 467.081Z" fill="#d9e2f3" opacity="0.5" class="tblr-illustrations tblr-illustrations-vocate tblr-illustrations-3d-scan-d"/>
    <path d="M367.933 440.657V455.624C367.933 456.681 367.809 457.701 367.575 458.645C366.636 462.421 363.993 465.14 360.881 465.14H153.01C149.107 465.14 145.945 460.885 145.945 455.624V440.657C145.945 437.233 147.292 434.224 149.305 432.55C150.379 431.656 151.651 431.14 153.01 431.14H360.881C364.771 431.14 367.945 435.407 367.945 440.657H367.933Z" fill="#0b1b3b" class="tblr-illustrations tblr-illustrations-vocate tblr-illustrations-3d-scan-b"/>
    <path d="M367.945 458.762C367.005 462.47 364.358 465.14 361.24 465.14H153.022C149.112 465.14 145.945 460.962 145.945 455.796V441.1C145.945 437.738 147.294 434.784 149.31 433.14C182.366 437.899 294.015 453.546 367.945 458.762Z" fill="black" opacity="0.1"/>
    <path d="M391.022 276.721L358.692 252.181C357.76 251.473 356.43 251.655 355.722 252.588L353.204 255.906C352.496 256.838 352.678 258.168 353.611 258.876L385.94 283.416C386.873 284.124 388.203 283.942 388.911 283.009L391.429 279.691C392.137 278.758 391.955 277.429 391.022 276.721Z" fill="#0b1b3b" class="tblr-illustrations tblr-illustrations-vocate tblr-illustrations-3d-scan-b"/>
    <path d="M391.022 276.721L358.692 252.181C357.76 251.473 356.43 251.655 355.722 252.588L353.204 255.906C352.496 256.838 352.678 258.168 353.611 258.876L385.94 283.416C386.873 284.124 388.203 283.942 388.911 283.009L391.429 279.691C392.137 278.758 391.955 277.429 391.022 276.721Z" fill="black" opacity="0.3"/>
    <path d="M357.279 236.14H353.612C351.587 236.14 349.945 237.728 349.945 239.688V274.593C349.945 276.552 351.587 278.14 353.612 278.14H357.279C359.304 278.14 360.945 276.552 360.945 274.593V239.688C360.945 237.728 359.304 236.14 357.279 236.14Z" fill="#0b1b3b" class="tblr-illustrations tblr-illustrations-vocate tblr-illustrations-3d-scan-b"/>
    <path d="M372.792 260.146C372.434 261.256 372.151 262.403 371.99 263.525C371.929 264.148 371.941 264.834 371.966 265.507C372.237 271.58 376.272 276.38 380.936 276.131C385.132 275.919 388.389 271.779 388.858 266.63C388.92 266.006 388.981 265.37 388.92 264.772C388.858 264.173 388.784 263.575 388.722 262.976C387.772 257.814 384.144 253.936 379.949 254.148C376.778 254.123 374.1 256.642 372.792 260.133V260.146Z" fill="#FFCB9D" style="fill: #FFCB9D; fill: var(--tblr-illustrations-skin, #FFCB9D);"/>
    <path d="M372.749 259.91C372.391 260.977 372.106 262.079 371.945 263.157C377.624 263.756 383.315 264.667 388.858 266.14C388.92 265.541 388.982 264.93 388.92 264.355C388.858 263.78 388.784 263.205 388.722 262.63C387.769 257.67 384.132 253.944 379.925 254.148C376.746 254.124 374.061 256.544 372.749 259.899V259.91Z" fill="black" opacity="0.1"/>
    <path d="M524.945 324.966L510.653 329.193L470.294 341.14C469.562 339.3 468.843 337.448 468.111 335.608C464.736 326.968 461.424 318.377 457.999 309.724C457.627 308.779 457.28 307.897 456.945 307.051C456.511 305.933 456.101 304.901 455.717 303.931C455.555 303.521 455.394 303.098 455.22 302.688C455.208 302.65 455.183 302.601 455.171 302.563C451.002 291.934 450.63 290.765 449.253 287.446C448.086 284.612 447.069 282.162 446.201 280.061C444.526 276.033 443.347 273.286 442.454 271.483C442.131 270.837 441.846 270.302 441.598 269.892C440.878 268.699 440.258 267.866 439.836 267.256C438.037 264.695 436.102 262.346 433.943 260.071C428.869 254.7 422.566 249.702 413.894 243.064C401.971 233.938 400.979 233.516 399.899 233.976C396.934 235.269 395.197 242.691 401.19 270.277C401.289 270.775 401.4 271.272 401.512 271.782C400.668 271.297 399.812 270.824 398.969 270.34C388.113 264.211 377.27 258.057 366.426 251.915C365.955 248.857 363.883 233.242 374.366 219.505C376.749 216.397 381.637 209.994 388.771 206.899C389.043 206.774 389.316 206.663 389.602 206.563C391.289 205.904 393.1 205.432 395.023 205.245C399.85 204.748 404.651 206.053 409.415 208.341C409.787 208.527 410.159 208.701 410.532 208.888C424.34 215.974 437.826 230.942 450.506 234.784C457.044 236.773 463.595 237.059 463.595 237.059C466.82 237.208 469.798 236.972 473.173 236.599C485.53 235.219 490.306 233.416 497.477 235.43C499.648 236.04 502.787 237.233 505.653 239.732C507.75 241.572 508.817 243.325 509.115 243.834C510.033 245.413 510.529 246.905 510.913 248.521C512.34 254.501 512.452 262.942 512.477 264.646C514.511 273.684 516.546 282.722 518.581 291.76C519.511 296.385 520.392 300.997 521.285 305.609C521.397 306.181 521.496 306.753 521.608 307.325C521.608 307.325 521.608 307.375 521.633 307.449C521.658 307.574 521.682 307.748 521.72 307.922C521.757 308.071 521.769 308.208 521.794 308.332C521.794 308.369 521.819 308.431 521.831 308.518C521.831 308.593 521.856 308.655 521.868 308.73C521.868 308.767 521.881 308.804 521.893 308.854C522.911 314.212 523.916 319.558 524.92 324.941L524.945 324.966Z" fill="#DADCE0"/>
    <path d="M524.945 324.977L510.651 329.201C497.189 333.177 483.738 337.165 470.288 341.14C461.925 319.735 458.674 311.424 458.004 309.759C457.855 309.399 457.483 308.454 456.95 307.088C456.515 305.97 456.106 304.939 455.721 303.97C455.56 303.56 455.399 303.137 455.225 302.727C455.213 302.69 455.188 302.64 455.175 302.603C451.006 291.981 450.634 290.813 449.257 287.496C448.09 284.664 447.073 282.216 446.204 280.117C444.529 276.092 443.351 273.346 442.457 271.545C442.135 270.899 441.849 270.365 441.601 269.955C440.881 268.762 440.261 267.93 439.839 267.321C438.04 264.762 436.104 262.414 433.945 260.14C434.64 260.786 468.08 291.869 521.645 307.51C521.67 307.634 521.694 307.808 521.732 307.982C521.769 308.131 521.781 308.268 521.806 308.392C521.806 308.43 521.831 308.492 521.843 308.579C521.843 308.653 521.868 308.715 521.881 308.79C521.881 308.827 521.893 308.864 521.905 308.914C522.923 314.269 523.928 319.611 524.933 324.99L524.945 324.977Z" fill="black" opacity="0.1"/>
    <path d="M434.945 189.029C435.754 191.974 437.076 196.267 438.767 201.65C439.134 202.751 439.501 203.852 439.661 204.211C441.755 209.928 444.572 215.323 447.977 220.396C448.699 221.336 449.422 222.264 450.144 223.205C452.863 226.459 467.756 227.659 479.452 223.378C491.149 219.097 492.569 206.302 486.176 202.553C483.874 200.895 481.926 198.952 480.298 196.601C478.105 193.545 476.035 190.477 474.309 187.123C473.231 185.218 472.606 184.018 472.606 184.018L461.228 178.14L438.656 183.696C439.808 187.495 439.477 190.439 438.289 190.947C437.101 191.454 435.264 189.499 434.958 189.029" fill="#FFCB9D" style="fill: #FFCB9D; fill: var(--tblr-illustrations-skin, #FFCB9D);"/>
    <path d="M433.945 188.936C434.77 191.865 436.119 196.137 437.842 201.491C438.217 202.587 438.592 203.682 438.754 204.039C440.89 209.726 443.762 215.093 447.235 220.14C448.558 219.377 449.845 218.232 450.732 217.014C451.731 215.647 452.58 214.059 452.905 212.262C453.354 210.453 453.404 208.557 453.217 206.821C453.217 205.566 453.092 204.446 452.83 203.215C462.36 203.99 471.927 201.614 479.945 196.506C477.71 193.465 475.599 190.413 473.838 187.077C472.739 185.181 472.102 183.987 472.102 183.987L460.499 178.14L437.48 183.667C438.654 187.446 438.317 190.376 437.105 190.88C435.881 191.385 434.27 189.416 433.958 188.936" fill="black" opacity="0.1"/>
    <path d="M432.431 194.347C433.693 199.039 436.681 203.16 440.918 205.767C441.731 206.189 442.543 206.611 443.368 207.157C445.443 208.721 447.081 210.831 448.093 213.14C448.818 211.539 449.156 209.863 448.843 208.113C448.056 205.531 447.143 202.961 445.993 200.541C445.993 200.541 445.981 200.417 445.831 200.181C445.681 199.945 445.656 199.697 445.456 199.076C445.068 197.847 444.806 196.606 444.568 195.489V195.365H444.556C451.294 197.45 470.056 202.092 479.219 190.983C480.694 189.183 481.769 187.296 482.707 185.285C482.819 185.149 482.919 184.888 482.907 184.751C483.107 184.218 483.307 183.696 483.382 183.175L483.494 183.038C483.857 181.611 483.957 180.196 483.944 178.805L483.894 178.309C483.432 175.181 481.507 172.599 478.794 171.109C474.707 168.738 469.506 167.894 466.794 167.547C456.031 166.008 440.843 168.602 434.581 179.401C432.968 182.232 432.143 185.36 432.093 188.537C431.781 190.474 431.993 192.485 432.456 194.334" fill="#0b1b3b" class="tblr-illustrations tblr-illustrations-vocate tblr-illustrations-3d-scan-b"/>
    <path d="M445.153 195.428C451.788 197.479 470.267 202.045 479.291 191.118C480.743 189.347 481.802 187.491 482.726 185.514C482.836 185.379 482.935 185.123 482.923 184.988C483.119 184.463 483.316 183.951 483.39 183.438L483.501 183.304C483.858 181.899 483.957 180.508 483.944 179.14C481.999 182.217 479.537 185.086 476.644 187.382C462.376 198.724 443.195 193.486 440.204 192.546L439.945 192.448C441.57 193.523 443.318 194.597 445.165 195.403" fill="black" opacity="0.5"/>
    <path d="M553.945 439.748L544.622 442.476C528.223 414.518 511.824 386.548 495.425 358.59C491.403 370.477 487.381 382.351 483.358 394.238C481.956 413.802 480.553 433.391 479.138 452.955C476.642 453.017 474.135 453.078 471.639 453.14C467.741 433.267 463.843 413.382 459.945 393.51C463.409 376.069 466.872 358.64 470.336 341.211C474.346 340.038 478.356 338.866 482.365 337.669C496.58 333.497 510.794 329.325 525.02 325.14L553.945 439.748Z" fill="#1a3263" style="fill: #1a3263; fill: var(--tblr-illustrations-primary, var(--tblr-primary, #1a3263));"/>
    <path d="M543.183 470.127L556.945 452.859C556.945 452.859 553.533 448.291 549.657 449.281C545.78 450.27 541.941 463.745 543.183 470.14" fill="#0b1b3b" class="tblr-illustrations tblr-illustrations-vocate tblr-illustrations-3d-scan-b"/>
    <path d="M460.945 469.14L482.872 466.823C482.872 466.823 483.642 461.455 480.185 459.498C476.728 457.541 464.415 464.013 460.945 469.14Z" fill="#0b1b3b" class="tblr-illustrations tblr-illustrations-vocate tblr-illustrations-3d-scan-b"/>
    <path d="M474.945 236.181C470.67 239.487 465.247 241.625 459.509 242.094L458.853 242.14L450.945 235.14L474.933 236.181H474.945Z" fill="#FFCB9D" style="fill: #FFCB9D; fill: var(--tblr-illustrations-skin, #FFCB9D);"/>
    <path d="M461.945 240.507L448.635 229.14L444.945 232.148L453.159 247.14L461.945 240.507Z" fill="#1a3263" style="fill: #1a3263; fill: var(--tblr-illustrations-primary, var(--tblr-primary, #1a3263));"/>
    <path d="M461.945 240.89L484.623 230.14L488.945 235.097L472.373 252.14L461.945 240.89Z" fill="#1a3263" style="fill: #1a3263; fill: var(--tblr-illustrations-primary, var(--tblr-primary, #1a3263));"/>
    <path d="M461.945 240.507L448.635 229.14L444.945 232.148L453.159 247.14L461.945 240.507Z" fill="black" opacity="0.1"/>
    <path d="M403.012 274.621C402.003 273.852 400.908 273.132 399.788 272.567C399.16 272.279 398.446 272.039 397.733 271.811C391.309 269.877 384.787 272.267 383.274 277.142C381.895 281.525 384.984 286.388 390.165 288.754C390.792 289.042 391.42 289.342 392.072 289.486C392.724 289.642 393.364 289.787 394.016 289.943C399.751 290.855 405.165 288.55 406.531 284.167C407.762 280.913 406.15 277.25 403.012 274.633V274.621Z" fill="#FFCB9D" style="fill: #FFCB9D; fill: var(--tblr-illustrations-skin, #FFCB9D);"/>
    <path d="M402.96 274.243C401.938 273.456 400.829 272.718 399.694 272.14C396.864 277.872 393.685 283.468 389.945 288.72C390.581 289.015 391.217 289.323 391.878 289.47C392.538 289.63 393.187 289.778 393.847 289.938C399.657 290.873 405.142 288.511 406.526 284.022C407.773 280.688 406.139 276.937 402.96 274.256V274.243Z" fill="black" opacity="0.1"/>
    <path d="M399.185 269.343C397.121 285.359 395.021 301.374 392.945 317.39C401.507 318.971 418.273 320.996 436.794 315.81C442.477 314.217 448.346 311.957 454.177 308.783C454.177 308.783 458.304 306.573 462.27 303.844C469.102 299.152 505.34 272.084 499.261 256.105C498.273 253.5 495.307 248.993 484.138 246.14C480.197 251.932 473.921 259.946 464.679 267.811C457.736 273.702 451.336 279.147 443.045 281.58C423.203 287.408 403.632 272.813 399.197 269.343H399.185Z" fill="#DADCE0"/>
    <path d="M436.945 316.14C441.165 315.445 447.117 313.907 453.446 310.271C456.926 308.274 459.739 306.102 461.945 304.117C460.309 303.583 454.598 301.97 448.184 304.613C440.437 307.814 437.479 314.812 436.945 316.128V316.14Z" fill="#0b1b3b" class="tblr-illustrations tblr-illustrations-vocate tblr-illustrations-3d-scan-b"/>
    <path d="M494.945 358.158C490.978 370.099 487.01 382.027 483.042 393.968C481.658 413.622 480.274 433.3 478.878 452.954C476.417 453.016 473.943 453.078 471.481 453.14C467.636 433.176 463.791 413.2 459.945 393.237C463.362 375.716 466.779 358.207 470.195 340.699C474.151 339.521 478.107 338.343 482.062 337.14L494.933 358.145L494.945 358.158Z" fill="black" opacity="0.1"/>
    <path d="M234.915 290.62C232.351 288.033 219.208 274.501 222.459 268.754C222.534 268.63 223.835 266.391 225.535 266.428C226.861 266.453 227.724 267.821 231.851 271.951C233.014 273.132 233.402 273.418 233.964 273.431C236.315 273.605 238.416 269.463 237.553 266.64C236.628 263.704 230.138 262.908 227.499 257.859C226.436 255.831 226.273 254.326 226.411 253.219C226.473 252.697 226.786 250.247 228.374 249.587C230.663 248.63 235.628 253.605 235.978 253.941C236.315 254.326 236.791 254.575 237.291 254.637C237.829 254.65 238.341 254.5 238.779 254.202C240.805 252.871 238.004 242.485 242.018 237.821C244.181 235.296 248.433 234.388 250.234 235.819C250.847 236.304 251.922 237.436 251.21 241.055C249.484 249.712 243.469 257.361 244.844 258.841C245.232 259.264 246.02 259.078 246.645 258.953C252.76 257.622 253.473 246.229 257.938 246.08C258.826 246.08 259.688 246.441 260.264 247.112C262.102 249.189 260.376 253.941 258.25 256.901C257.638 257.759 256.012 259.252 252.748 262.187C249.484 265.135 249.221 265.222 248.771 266.055C246.645 269.737 247.783 275.085 249.696 275.919C250.772 276.379 252.56 275.334 255.161 272.647C258.713 269.003 263.265 270.384 264.653 273.593C265.729 276.018 263.64 278.742 261.552 281.876C259.626 284.737 257.012 288.842 254.073 294.14C247.62 293.008 241.28 291.827 234.915 290.633V290.62Z" fill="#1a3263" style="fill: #1a3263; fill: var(--tblr-illustrations-primary, var(--tblr-primary, #1a3263));"/>
    <path d="M256.444 325.36C255.558 327.059 254.559 328.685 253.398 330.237C248.467 336.775 238.429 336.775 233.498 330.237C226.207 320.533 224.909 307.176 224.946 298.597C224.959 293.525 225.445 290.14 225.445 290.14H261.438C261.438 290.14 264.297 310.121 256.444 325.36Z" fill="#DADCE0"/>
    <path d="M255.945 325.238C255.073 326.958 254.09 328.604 252.947 330.175C248.094 336.795 238.216 336.795 233.362 330.175C226.187 320.351 224.909 306.826 224.946 298.14C228.792 305.181 237.663 317.195 255.945 325.238Z" fill="black" opacity="0.1"/>
    <path d="M485.846 137.647C486.345 136.528 486.981 135.627 487.754 134.922C488.527 134.216 489.363 133.644 490.261 133.182C491.159 132.732 492.082 132.355 493.017 132.051C493.953 131.747 494.826 131.442 495.661 131.163C496.484 130.871 497.233 130.518 497.881 130.092C498.53 129.666 499.016 129.082 499.353 128.328C499.864 127.184 499.789 126.041 499.116 124.897C498.442 123.754 497.308 122.841 495.699 122.16C494.052 121.467 492.481 121.175 490.972 121.284C489.463 121.406 488.053 121.868 486.731 122.671L482.191 116.6C484.474 115.153 487.055 114.338 489.949 114.167C492.842 113.997 495.986 114.63 499.365 116.065C501.922 117.148 503.993 118.45 505.589 119.97C507.185 121.479 508.221 123.145 508.695 124.946C509.169 126.746 508.969 128.608 508.108 130.542C507.51 131.88 506.799 132.951 505.963 133.742C505.128 134.532 504.23 135.165 503.269 135.603C502.309 136.041 501.324 136.43 500.326 136.747C499.328 137.063 498.38 137.379 497.482 137.696C496.584 138.012 495.786 138.413 495.088 138.9C494.389 139.387 493.853 140.056 493.466 140.907L485.821 137.659L485.846 137.647ZM484.149 151.637C482.777 151.053 481.83 150.129 481.318 148.864C480.807 147.586 480.819 146.357 481.368 145.141C481.917 143.924 482.84 143.048 484.124 142.598C485.397 142.148 486.731 142.209 488.103 142.793C489.55 143.401 490.523 144.326 491.047 145.53C491.558 146.747 491.545 147.975 490.997 149.216C490.448 150.457 489.537 151.285 488.253 151.795C486.968 152.306 485.609 152.246 484.162 151.637H484.149Z" fill="#1a3263" style="fill: #1a3263; fill: var(--tblr-illustrations-primary, var(--tblr-primary, #1a3263));"/>
    <path d="M307.38 334.14C306.559 334.14 305.812 333.577 305.638 332.746C300.324 308.282 327.328 299.315 327.602 299.23C328.535 298.924 329.543 299.426 329.854 300.355C330.165 301.273 329.655 302.263 328.709 302.569C327.714 302.887 304.493 310.655 309.122 332.024C309.334 332.966 308.711 333.908 307.753 334.103C307.629 334.128 307.504 334.14 307.38 334.14Z" fill="#1a3263" style="fill: #1a3263; fill: var(--tblr-illustrations-primary, var(--tblr-primary, #1a3263));"/>
    <path d="M292.154 332.14C291.062 332.14 290.083 331.403 289.857 330.31C282.852 298.158 318.503 286.381 318.854 286.258C320.097 285.853 321.428 286.528 321.83 287.732C322.231 288.948 321.553 290.237 320.323 290.642C318.98 291.072 288.351 301.29 294.464 329.34C294.74 330.58 293.924 331.809 292.656 332.079C292.493 332.116 292.33 332.128 292.167 332.128L292.154 332.14Z" fill="#DADCE0"/>
    <path d="M408.933 209.14C402.199 208.861 393.851 207.933 388.945 207.323C389.358 207.031 389.947 206.637 390.71 206.269C394.027 204.668 397.218 205.126 399.609 205.507C403.714 206.155 406.893 207.806 408.945 209.14H408.933Z" fill="#0b1b3b" class="tblr-illustrations tblr-illustrations-vocate tblr-illustrations-3d-scan-b"/>
    <path d="M667.945 271.85V273.795C667.945 274.541 667.34 275.14 666.588 275.14H580.291C579.538 275.14 578.945 274.541 578.945 273.795V271.85C578.945 271.092 579.538 270.493 580.291 270.493H599.794C601.547 270.248 604.041 269.197 604.571 265.515V262.14H642.27V265.491C642.801 269.184 645.306 270.224 647.047 270.493H666.588C667.34 270.493 667.945 271.092 667.945 271.85Z" fill="black" opacity="0.3"/>
</svg>
