<svg xmlns="http://www.w3.org/2000/svg" width="800" height="600" fill="none" viewBox="0 0 800 600">
    <style>
        :where(.theme-dark, [data-theme="dark"]) .tblr-illustrations-504-a { fill: black; opacity: 0.07; } :where(.theme-dark, [data-theme="dark"]) .tblr-illustrations-504-b { fill: black; opacity: 0.3; } :where(.theme-dark, [data-theme="dark"]) .tblr-illustrations-504-c { fill: #24304d; }
        @media (prefers-color-scheme: dark) { .tblr-illustrations-504-a { fill: black; opacity: 0.07; } .tblr-illustrations-504-b { fill: black; opacity: 0.3; } .tblr-illustrations-504-c { fill: #24304d; } }
    </style>
    <path d="M147 297.52C147 340.259 192.213 371.362 212.239 405.93C232.835 441.624 237.869 496 273.443 516.693C308.017 536.715 357.253 514.34 400 514.34C442.746 514.34 491.983 536.715 526.557 516.693C562.143 496.101 567.178 441.624 587.761 405.93C607.787 371.362 653 340.373 653 297.52C653 254.667 607.685 223.678 587.761 189.11C567.165 153.416 562.13 98.9391 526.557 78.3474C491.983 58.3249 442.746 80.7 400 80.7C357.253 80.7 308.017 58.3249 273.443 78.3474C237.743 98.9391 232.822 153.416 212.239 189.11C192.213 223.792 147 254.781 147 297.52Z" fill="#1a3263" style="fill: #1a3263; fill: var(--tblr-illustrations-primary, var(--tblr-primary, #1a3263));" opacity="0.02" class="tblr-illustrations tblr-illustrations-vocate tblr-illustrations-504-a"/>
    <path d="M718.975 455.972C718.975 457.644 635.444 459.111 517.062 459.717C515.532 459.717 513.99 459.741 512.435 459.741C508.946 459.765 505.407 459.778 501.855 459.79C490.706 459.838 479.278 459.875 467.611 459.911C444.592 459.984 420.599 460.02 396 460.02C217.662 460.02 73 458.178 73 455.972C73 454.202 173.596 452.626 310.421 452.165C316.969 452.129 323.631 452.117 330.356 452.105C341.973 452.069 353.843 452.056 365.915 452.044C375.8 452.044 385.875 452.02 396.013 452.02C401.625 452.02 407.212 452.02 412.749 452.02H423.456C442.923 452.044 461.859 452.081 480.188 452.153C484.461 452.153 488.696 452.178 492.905 452.202C495.383 452.202 497.848 452.226 500.3 452.226C510.337 452.275 520.159 452.323 529.728 452.359C641.372 452.99 719 454.359 719 455.984L718.975 455.972Z" fill="#d9e2f3" opacity="0.5" class="tblr-illustrations tblr-illustrations-vocate tblr-illustrations-504-b"/>
    <path d="M307.226 261.913C307.931 262.594 308.761 263.112 309.73 263.478C310.698 263.843 311.742 264.02 312.887 264.02C313.918 264.02 314.95 263.869 315.981 263.553C317.013 263.238 317.931 262.784 318.723 262.178V256.299H315.667V260.538C315.44 260.652 315.226 260.778 315 260.853C314.371 261.068 313.73 261.182 313.075 261.182C312.421 261.182 311.755 261.068 311.189 260.828C310.623 260.589 310.119 260.273 309.704 259.857C309.289 259.441 308.962 258.949 308.736 258.381C308.509 257.813 308.396 257.195 308.396 256.526C308.396 255.858 308.509 255.214 308.736 254.647C308.962 254.079 309.289 253.587 309.704 253.171C310.119 252.754 310.623 252.439 311.201 252.212C311.78 251.985 312.409 251.871 313.101 251.871C313.843 251.871 314.522 252.01 315.138 252.275C315.755 252.54 316.333 252.956 316.874 253.524L319 251.531C318.296 250.711 317.428 250.092 316.409 249.663C315.377 249.234 314.233 249.02 312.95 249.02C311.792 249.02 310.736 249.209 309.767 249.563C308.799 249.928 307.969 250.446 307.252 251.127C306.535 251.808 305.981 252.603 305.591 253.511C305.201 254.42 305 255.429 305 256.514C305 257.599 305.201 258.608 305.591 259.516C305.981 260.425 306.535 261.219 307.226 261.901V261.913Z" fill="#DADCE0"/>
    <path d="M332.534 264.02H336L329.602 250.02H326.335L320 264.02H323.379L324.646 261.023H331.255L332.522 264.02H332.534ZM325.689 258.561L327.95 253.225L330.211 258.561H325.689Z" fill="#DADCE0"/>
    <path d="M348 250.02H335V252.652H339.779V264.02H343.234V252.652H348V250.02Z" fill="#DADCE0"/>
    <path d="M361 261.413H353.263V258.171H359.863V255.637H353.263V252.615H360.728V250.02H350V264.02H361V261.413Z" fill="#DADCE0"/>
    <path d="M371.636 264.02L375.046 254.528L378.377 264.02H382.062L387 250.02H383.668L380.167 259.926L376.744 250.02H373.53L369.99 259.853L366.606 250.02H363L367.925 264.02H371.636Z" fill="#DADCE0"/>
    <path d="M392.34 250.02L386 264.02H389.382L390.65 261.023H397.263L398.531 264.02H402L395.597 250.02H392.328H392.34ZM391.694 258.561L393.957 253.225L396.219 258.561H391.694Z" fill="#DADCE0"/>
    <path d="M412.642 250.02L408.649 256.222L404.682 250.02H401L406.795 259.024V264.02H410.257V259.024L416 250.02H412.642Z" fill="#DADCE0"/>
    <path d="M304 276.853H308.779V289.02H312.234V276.853H317V274.02H304V276.853Z" fill="#DADCE0"/>
    <path d="M322 274.02H318V289.02H322V274.02Z" fill="#DADCE0"/>
    <path d="M333.553 283.328L327.89 274.02H325V289.02H328.258V280.182L332.699 287.414H334.249L338.703 280.077L338.742 289.02H342V274.02H339.083L333.553 283.328Z" fill="#DADCE0"/>
    <path d="M348.267 282.767H354.862V280.038H348.267V276.814H355.74V274.02H345V289.02H356V286.239H348.267V282.767Z" fill="#DADCE0"/>
    <path d="M371.709 276.129C370.983 275.447 370.143 274.929 369.176 274.563C368.208 274.197 367.152 274.02 365.994 274.02C364.835 274.02 363.779 274.209 362.811 274.576C361.844 274.942 361.004 275.472 360.278 276.154C359.553 276.836 358.993 277.619 358.598 278.528C358.204 279.437 358 280.434 358 281.52C358 282.606 358.204 283.591 358.598 284.5C358.993 285.409 359.553 286.204 360.278 286.886C361.004 287.568 361.857 288.086 362.824 288.464C363.804 288.831 364.861 289.02 366.019 289.02C367.177 289.02 368.221 288.843 369.189 288.477C370.156 288.111 370.996 287.593 371.722 286.911C372.447 286.23 373.007 285.434 373.402 284.512C373.796 283.591 374 282.593 374 281.52C374 280.447 373.796 279.424 373.402 278.515C373.007 277.606 372.447 276.81 371.722 276.129H371.709ZM370.22 283.389C369.99 283.944 369.672 284.437 369.252 284.866C368.832 285.283 368.348 285.611 367.801 285.838C367.254 286.065 366.643 286.179 365.994 286.179C365.344 286.179 364.733 286.065 364.173 285.838C363.613 285.611 363.13 285.283 362.722 284.866C362.315 284.449 361.997 283.957 361.768 283.389C361.539 282.833 361.424 282.202 361.424 281.507C361.424 280.813 361.539 280.194 361.768 279.626C361.997 279.058 362.315 278.578 362.722 278.149C363.13 277.732 363.613 277.404 364.173 277.177C364.733 276.949 365.332 276.836 365.994 276.836C366.656 276.836 367.254 276.949 367.801 277.177C368.348 277.404 368.832 277.732 369.252 278.149C369.672 278.565 369.99 279.058 370.22 279.626C370.449 280.194 370.563 280.813 370.563 281.507C370.563 282.202 370.449 282.82 370.22 283.389Z" fill="#DADCE0"/>
    <path d="M386.483 282.168C386.483 283.554 386.187 284.567 385.58 285.183C384.974 285.812 384.125 286.12 383.034 286.12C381.942 286.12 381.12 285.812 380.514 285.183C379.908 284.555 379.611 283.554 379.611 282.168V274.02H376V282.258C376 284.439 376.62 286.107 377.859 287.275C379.099 288.443 380.81 289.02 383.007 289.02C385.203 289.02 386.901 288.443 388.141 287.275C389.38 286.107 390 284.439 390 282.258V274.02H386.483V282.168Z" fill="#DADCE0"/>
    <path d="M391 276.853H395.779V289.02H399.234V276.853H404V274.02H391V276.853Z" fill="#DADCE0"/>
    <path d="M326.235 211.426C323.901 210.372 320.813 209.852 316.96 209.852H313.722L314.413 202.322H330.678V195.02H306.895L304.949 217.166H314.839C317.211 217.166 319.056 217.382 320.362 217.814C321.679 218.245 322.608 218.83 323.135 219.579C323.675 220.328 323.938 221.23 323.938 222.271C323.938 223.884 323.286 225.153 321.968 226.068C320.65 226.982 318.868 227.439 316.609 227.439C314.576 227.439 312.58 227.109 310.635 226.461C308.689 225.801 306.995 224.937 305.552 223.845L302 230.753C303.883 232.137 306.154 233.204 308.802 233.928C311.451 234.664 314.124 235.02 316.835 235.02C320.537 235.02 323.587 234.423 325.972 233.217C328.356 232.023 330.126 230.423 331.281 228.442C332.423 226.461 333 224.315 333 222.03C333 219.744 332.448 217.623 331.356 215.757C330.264 213.903 328.545 212.455 326.223 211.401L326.235 211.426Z" fill="#A6A9B3"/>
    <path d="M361.952 197.367C359.484 195.807 356.656 195.02 353.469 195.02C350.282 195.02 347.516 195.807 345.048 197.367C342.581 198.928 340.621 201.2 339.17 204.159C337.719 207.13 337 210.75 337 215.02C337 219.29 337.719 222.91 339.17 225.881C340.621 228.853 342.568 231.112 345.048 232.673C347.516 234.246 350.331 235.02 353.469 235.02C356.607 235.02 359.484 234.233 361.952 232.673C364.419 231.112 366.379 228.84 367.83 225.881C369.281 222.91 370 219.302 370 215.02C370 210.738 369.281 207.13 367.83 204.159C366.379 201.187 364.432 198.928 361.952 197.367ZM360.029 222.149C359.384 223.996 358.516 225.345 357.4 226.206C356.284 227.067 354.97 227.504 353.469 227.504C351.968 227.504 350.766 227.067 349.625 226.206C348.484 225.345 347.591 223.984 346.933 222.149C346.276 220.301 345.941 217.929 345.941 215.02C345.941 212.111 346.276 209.739 346.933 207.891C347.591 206.044 348.484 204.695 349.625 203.834C350.753 202.973 352.043 202.536 353.469 202.536C354.97 202.536 356.272 202.973 357.4 203.834C358.516 204.695 359.397 206.056 360.029 207.891C360.674 209.739 360.984 212.111 360.984 215.02C360.984 217.929 360.662 220.313 360.029 222.149Z" fill="#A6A9B3"/>
    <path d="M403.685 218.478V211.179H395.189V218.478H384.801L401.742 195.02H392.307L374 219.749V225.827H394.913V234.02H403.685V225.827H410V218.478H403.685Z" fill="#A6A9B3"/>
    <path d="M266.363 366.636C278.561 396.39 282.863 423.114 284.407 442.02H122C123.708 426.536 127.517 405.231 136.551 381.248C137.627 378.368 138.778 375.451 140.018 372.496C141.246 369.566 142.562 366.61 143.954 363.617C144.599 362.241 145.257 360.877 145.915 359.525C161.39 327.902 180.535 305.712 194.175 292.135C180.168 277.106 162.175 254.588 147.003 223.988C132.654 195.041 125.644 168.608 122 149.02H289C287.254 166.979 282.408 194.549 267.805 224.947C252.267 257.203 232.275 279.064 218.761 291.731C222.886 296.227 227.517 301.607 232.351 307.871C233.477 309.286 234.578 310.776 235.716 312.292C237.02 314.072 238.361 315.916 239.702 317.836C248.737 330.756 258.012 346.593 265.844 365.411C266.021 365.815 266.199 366.232 266.363 366.636Z" fill="#DADCE0"/>
    <path d="M302 150.266V151.774C302 155.667 300.175 159.147 297.319 161.382C295.23 163.04 292.601 164.02 289.732 164.02H124.268C117.486 164.02 112 158.531 112 151.774V150.266C112 148.433 112.403 146.687 113.132 145.129C115.07 140.934 119.323 138.02 124.268 138.02H289.732C296.501 138.02 302 143.496 302 150.266Z" fill="#1a3263" style="fill: #1a3263; fill: var(--tblr-illustrations-primary, var(--tblr-primary, #1a3263));"/>
    <path d="M302 439.69V441.35C302 448.901 296.473 455.02 289.655 455.02H123.345C116.54 455.02 111 448.901 111 441.35V439.69C111 432.139 116.527 426.02 123.345 426.02H289.655C296.46 426.02 302 432.139 302 439.69Z" fill="#1a3263" style="fill: #1a3263; fill: var(--tblr-illustrations-primary, var(--tblr-primary, #1a3263));"/>
    <path d="M127.224 426.02C158.186 434.825 227.906 452.79 287 455.02H123.39C116.56 455.02 111 448.901 111 441.35V439.69C111 432.139 116.548 426.02 123.39 426.02H127.224Z" fill="black" opacity="0.1"/>
    <path d="M493.987 369.889C487.409 392.595 480.831 415.314 474.265 438.02H466.614C466.955 419.346 467.308 400.66 467.649 381.986C459.96 375.74 452.258 369.507 444.568 363.261C435.313 373.336 426.045 383.411 416.79 393.485C394.189 383.767 371.601 374.061 349 364.343C350.035 361.569 351.071 358.796 352.119 356.023C370.629 359.483 389.152 362.943 407.662 366.416C413.571 351.444 419.48 336.459 425.402 321.487C428.205 318.994 431.008 316.513 433.811 314.02L456.942 337.846L458.785 339.728L464.366 345.402C466.841 347.92 469.316 350.439 471.79 352.958C479.189 358.606 486.601 364.254 494 369.889H493.987Z" fill="#1a3263" style="fill: #1a3263; fill: var(--tblr-illustrations-primary, var(--tblr-primary, #1a3263));"/>
    <path d="M493.987 370.106C487.467 392.74 480.946 415.386 474.438 438.02H466.853C467.191 419.406 467.541 400.779 467.879 382.165C460.257 375.939 452.622 369.726 445 363.5C450.344 356.336 455.689 349.184 461.033 342.02C462.234 343.25 463.436 344.467 464.625 345.697C467.078 348.208 469.531 350.718 471.984 353.229C479.319 358.859 486.666 364.489 494 370.106H493.987Z" fill="black" opacity="0.1"/>
    <path d="M333 368.02L341.183 353.02C341.183 353.02 345.574 354.054 345.986 357.169C346.397 360.283 337.852 367.011 333 368.02Z" fill="#0b1b3b" class="tblr-illustrations tblr-illustrations-vocate tblr-illustrations-504-c"/>
    <path d="M485 449.329L467.762 452.02C467.762 452.02 465.838 448.014 468.106 445.835C470.373 443.655 481.152 446.2 485 449.341" fill="#0b1b3b" class="tblr-illustrations tblr-illustrations-vocate tblr-illustrations-504-c"/>
    <path d="M172 240.064C177.012 248.733 182.793 257.916 189.459 267.396C195.265 275.653 201.06 283.19 206.702 290.02C219.806 272.45 232.897 254.881 246 237.311C232.24 241.826 221.901 241.273 215.072 239.974C205.819 238.225 200.302 234.597 190.128 235.06C182.238 235.421 175.939 238.032 172 240.064Z" fill="#A6A9B3"/>
    <path d="M256 410.617C220.333 410.743 184.667 410.881 149 411.02C154.005 395.361 161.045 377.22 171.118 357.807C171.977 356.157 172.837 354.519 173.721 352.894C184.553 332.801 196.143 316.222 206.582 303.02C214.09 315.126 221.799 328.757 229.244 343.925C232.189 349.909 235.083 356.132 237.927 362.594C245.371 379.576 251.273 395.714 256 410.617Z" fill="#A6A9B3"/>
    <path d="M211 334.168L194.428 331.253L193.075 331.02L192.304 332.406L187.538 340.968L174 334.854L187.399 345.01L188.727 346.02L189.864 344.401L195.755 336.124L211 334.168Z" fill="#DADCE0"/>
    <path d="M468.247 207.411C466.227 208.206 464.284 208.218 462.445 207.474C460.593 206.73 459.324 205.482 458.599 203.755C457.874 202.027 457.913 200.224 458.741 198.509C459.57 196.794 460.995 195.546 463.028 194.752C465.048 193.957 466.939 193.919 468.713 194.613C470.487 195.306 471.73 196.555 472.468 198.333C473.207 200.111 473.168 201.825 472.404 203.578C471.653 205.343 470.267 206.617 468.247 207.411ZM456.385 191.461L441 160.24L454.364 155.02L465.346 187.968L456.397 191.473L456.385 191.461Z" fill="#1a3263" style="fill: #1a3263; fill: var(--tblr-illustrations-primary, var(--tblr-primary, #1a3263));"/>
    <path d="M491.108 190.012C489.561 189.937 488.308 189.405 487.349 188.401C486.377 187.398 485.942 186.234 486.006 184.921C486.07 183.607 486.633 182.468 487.681 181.601C488.73 180.746 490.034 180.35 491.568 180.412C493.103 180.473 494.343 180.994 495.264 181.948C496.197 182.901 496.619 184.053 496.555 185.404C496.491 186.717 495.941 187.831 494.931 188.748C493.908 189.665 492.63 190.086 491.095 190.012H491.108ZM488.295 176.41L487.822 152.02L498 152.491L495.11 176.72L488.282 176.41H488.295Z" fill="#1a3263" style="fill: #1a3263; fill: var(--tblr-illustrations-primary, var(--tblr-primary, #1a3263));"/>
    <path d="M539 230.13C538.322 232.597 537.293 236.195 535.9 240.602C535.574 241.566 535.297 242.427 535.21 242.709C533.515 247.476 531.243 252.012 528.457 256.201C527.88 257.023 527.328 257.794 526.725 258.539C524.491 261.25 512.279 262.291 502.69 258.796C493.101 255.301 491.808 244.637 497.042 241.476C498.925 240.139 500.556 238.456 501.862 236.529C503.682 234.01 505.338 231.364 506.794 228.601C507.673 227.046 508.162 225.993 508.162 225.993L517.5 221.02L536.088 225.517C535.134 228.665 535.448 231.081 536.389 231.518C537.331 231.955 538.724 230.464 539 230.143V230.13Z" fill="#FFCB9D" style="fill: #FFCB9D; fill: var(--tblr-illustrations-skin, #FFCB9D);"/>
    <path d="M539 230.074C538.324 232.529 537.298 236.11 535.909 240.496C535.584 241.455 535.309 242.312 535.221 242.593C533.532 247.337 531.28 251.851 528.489 256.02C527.376 255.342 526.4 254.447 525.611 253.399C524.761 252.235 524.147 250.905 523.797 249.498C523.459 247.989 523.359 246.442 523.497 244.907C523.534 243.91 523.622 242.913 523.772 241.928C516.127 242.631 508.457 240.713 502 236.455C503.814 233.948 505.453 231.314 506.905 228.565C507.781 227.017 508.269 225.969 508.269 225.969L517.578 221.02L536.122 225.496C535.171 228.629 535.471 231.033 536.41 231.468C537.348 231.902 538.712 230.393 538.975 230.074H539Z" fill="black" opacity="0.1"/>
    <path d="M497.333 221.303C497.611 222.74 498.042 224.138 498.612 225.485C499.296 227.229 500.234 228.858 501.387 230.32C506.556 236.964 516.387 239.618 526.333 236.861C528.018 236.399 529.665 235.784 531.261 235.053H531.312C531.312 235.053 531.325 235.117 531.312 235.142C531.122 236.194 530.856 237.22 530.514 238.22C530.337 238.682 530.311 238.823 530.21 239.131L530.083 239.426C529.893 239.978 528.005 243.646 527.6 245.813C527.372 247.25 527.575 248.712 528.208 250.02C529.108 248.058 530.476 246.339 532.186 245.044C532.845 244.608 533.517 244.21 534.226 243.877C537.685 241.683 540.231 238.272 541.384 234.321C541.84 232.693 542.043 231 541.992 229.307C542.018 228.204 541.866 224.164 540.003 221.534C536.152 216.083 523.989 215.545 517.781 216.148C516.692 216.263 514.791 216.507 513.41 215.737C513.144 215.596 512.903 215.404 512.713 215.16C511.434 213.659 511.941 210.992 512.764 209.414C514.36 206.375 518.44 204.823 523.153 205.374C513.816 200.667 503.49 203.399 499.157 210.197C497.143 213.506 496.509 217.494 497.383 221.291L497.333 221.303Z" fill="#0b1b3b" class="tblr-illustrations tblr-illustrations-vocate tblr-illustrations-504-c"/>
    <path d="M497 221.033C497.282 222.5 497.718 223.927 498.295 225.302C498.987 227.084 499.936 228.747 501.103 230.24C506.333 237.024 516.282 239.734 526.346 236.919C528.846 235.989 530.974 235.19 531.333 235.072H531.385L535 233.082C529.603 234.326 524.026 234.575 518.538 233.776C513.692 233.069 506.962 232.112 501.359 226.73C499.628 225.054 498.167 223.129 497 221.02V221.033Z" fill="black" opacity="0.5"/>
    <path d="M525 283.171L516.097 298.431C512.285 301.365 509.499 304.048 507.676 305.929C503.395 310.342 501.964 312.9 494.543 321.376C493.024 323.106 493.631 322.429 490.934 325.426C486.375 330.466 482.702 334.341 478.384 340.673C477.447 342.065 476.56 343.431 475.763 344.735C474.078 347.406 472.711 349.888 471.634 352.02C469.025 350.515 465.226 348.309 460.642 345.638C452.081 340.66 447.788 338.165 445.116 336.573C439.835 333.438 438.581 332.51 433.262 329.2C428.501 326.241 421.637 322.103 413 317.263C419.142 314.003 424.157 310.856 427.943 308.336C440.721 299.835 449.839 291.334 455.158 285.942C455.69 285.416 456.159 284.927 456.615 284.463C457.033 284.024 457.374 283.66 457.615 283.41C457.463 282.958 458.109 279.56 459.375 275.41C460.933 270.232 463.441 263.862 466.353 260.59C467.404 259.449 468.493 258.671 469.621 258.483C470.266 258.395 473.293 257.906 477.434 258.044C478.853 258.107 482.588 258.295 488.54 260.276C492.77 261.655 498.102 263.925 504.535 267.636C509.233 270.357 512.805 272.464 515.958 274.733C517.085 275.548 518.149 276.376 519.175 277.266C519.757 277.742 521.315 279.109 523.176 281.09C523.924 281.893 524.557 282.607 525 283.146V283.171Z" fill="#DADCE0"/>
    <path d="M532.586 309.233C533.617 309.547 550.814 314.449 571.152 306.531C590.461 299.015 609.846 281.03 606.653 270.347C606.538 269.983 605.572 266.879 602.799 265.597C597.889 263.322 589.761 267.897 581.9 277.222C581.9 277.222 575.223 283.745 567.222 288.018C562.134 290.733 553.434 295.383 545.141 293.071C540.714 291.839 533.07 287.691 531.404 286.699C531.124 286.535 530.857 286.372 530.564 286.196C529.19 285.379 527.778 284.499 526.303 283.519C525.832 284.373 525.362 285.241 524.878 286.095C523.123 289.288 521.342 292.48 519.574 295.685C518.391 297.834 517.196 299.983 516 302.145C518.429 303.515 520.922 304.759 523.479 305.878C524.242 306.204 525.018 306.531 525.794 306.845C525.794 306.845 529.305 308.24 532.574 309.246L532.586 309.233Z" fill="#FFCB9D" style="fill: #FFCB9D; fill: var(--tblr-illustrations-skin, #FFCB9D);"/>
    <path d="M532.668 310.007C534.88 304.742 541.277 297.344 545 293.288C541.164 292.001 536.704 289.907 531.507 286.696C531.232 286.527 530.969 286.358 530.682 286.176L525.097 286.072L522.423 286.02L519.887 295.992L519 299.476C519 299.476 521.174 302.934 523.723 306.536C524.472 306.874 525.234 307.212 525.997 307.537C528.008 308.395 530.245 309.253 532.656 310.02L532.668 310.007Z" fill="black" opacity="0.1"/>
    <path d="M516.184 274.02C519.895 275.295 524.662 277.398 529.571 280.955C532.135 282.816 534.261 284.715 536 286.487C531.001 295.002 526.015 303.505 521.028 312.02C515.14 307.418 510.412 306.411 507.152 306.36C505.284 306.335 504.214 306.641 503.3 305.94C500.104 303.53 503.364 293.931 507.01 285.48C510.077 281.656 513.13 277.844 516.197 274.02H516.184Z" fill="#DADCE0"/>
    <path d="M472 352.007C469.375 350.505 465.552 348.301 460.939 345.634C452.325 340.663 448.005 338.171 445.316 336.581C440.002 333.451 438.741 332.524 433.389 329.219C428.597 326.264 421.691 322.132 413 317.298C419.18 314.043 424.227 310.9 428.037 308.383C440.894 299.894 450.069 291.404 455.421 286.02C453.994 300.382 453.077 333.551 472 352.02V352.007Z" fill="black" opacity="0.1"/>
    <path d="M678.987 370.02L602 336.951L639.296 314.424L656.472 304.059C660.715 301.489 666.232 303.919 667.188 308.792L675.165 350.138L679 370.02H678.987Z" fill="#0b1b3b" class="tblr-illustrations tblr-illustrations-vocate tblr-illustrations-504-c"/>
    <path d="M679 370.02L602 337.305L639.302 315.02C645.661 323.721 658.558 339.584 675.164 350.351L679 370.02Z" fill="black" opacity="0.1"/>
    <path d="M641.987 354.02L586 329.762L609.903 315.201L623.279 307.056C627.489 304.493 632.961 306.917 633.906 311.779L639.68 341.872L642 354.007L641.987 354.02Z" fill="#A6A9B3"/>
    <path d="M642 354.02L586 329.648L609.908 315.02C614.7 321.77 625.721 335.598 639.68 341.828L642 354.02Z" fill="black" opacity="0.1"/>
    <path d="M707 381.27C689.004 387.855 671.009 394.452 653.013 401.011C644.795 404.022 636.59 407.008 628.372 410.02C608.55 397.247 588.728 384.473 568.907 371.7C565.267 353.477 561.64 335.242 558 317.02C566.256 320.58 574.487 324.128 582.742 327.688C624.162 345.553 665.593 363.418 707 381.257V381.27Z" fill="#DADCE0"/>
    <path d="M653 401.011C644.783 404.022 636.579 407.008 628.362 410.02C608.543 397.247 588.724 384.473 568.905 371.7C565.266 353.477 561.639 335.242 558 317.02C566.255 320.58 574.484 324.128 582.739 327.688C595.026 347.62 620.716 384.052 653 401.011Z" fill="black" opacity="0.1"/>
    <path d="M708.276 379.387L559.38 314.985C557.399 314.128 555.098 315.039 554.242 317.02L553.99 317.601C553.134 319.582 554.045 321.882 556.026 322.739L704.922 387.142C706.903 387.998 709.204 387.087 710.061 385.106L710.312 384.526C711.169 382.545 710.257 380.244 708.276 379.387Z" fill="#1a3263" style="fill: #1a3263; fill: var(--tblr-illustrations-primary, var(--tblr-primary, #1a3263));"/>
    <path d="M661.963 456.02C657.695 456.02 653.378 454.757 649.597 452.115C639.577 445.121 636.981 431.083 643.819 420.835C650.657 410.587 664.383 407.932 674.403 414.926C684.423 421.92 687.019 435.958 680.181 446.206C675.926 452.587 669 456.02 661.975 456.02H661.963ZM662.012 417.491C656.996 417.491 652.067 419.942 649.035 424.485C644.169 431.785 646.003 441.778 653.153 446.768C660.29 451.757 670.061 449.856 674.94 442.556C679.807 435.256 677.972 425.263 670.822 420.273C668.127 418.397 665.057 417.491 662.012 417.491Z" fill="#1a3263" style="fill: #1a3263; fill: var(--tblr-illustrations-primary, var(--tblr-primary, #1a3263));"/>
    <path d="M665.759 431.803L603.586 388.812L566.758 363.344L513.545 326.537C512.238 325.632 510.435 325.946 509.522 327.241C508.608 328.548 508.925 330.333 510.232 331.238L564.41 368.711L552.925 395.009C551.44 398.403 552.798 402.3 556.072 404.072L566.39 409.629C567.468 410.207 568.649 410.496 569.829 410.496C571.25 410.496 572.672 410.069 573.903 409.226L598.523 392.294L662.459 436.505C662.954 436.844 663.538 437.02 664.109 437.02C665.023 437.02 665.911 436.593 666.482 435.788C667.396 434.493 667.066 432.708 665.759 431.803ZM570.616 404.525C570.171 404.814 569.613 404.852 569.156 404.6L558.838 399.044C558.204 398.692 557.937 397.938 558.229 397.284L569.245 372.042L593.472 388.799L570.616 404.525Z" fill="#0b1b3b" class="tblr-illustrations tblr-illustrations-vocate tblr-illustrations-504-c"/>
    <path d="M524.4 330.716L506.159 317.738C504.503 316.56 502.205 316.947 501.027 318.604L499.091 321.324C497.913 322.98 498.3 325.278 499.956 326.457L518.197 339.434C519.853 340.612 522.151 340.225 523.329 338.569L525.265 335.848C526.443 334.192 526.056 331.894 524.4 330.716Z" fill="#A6A9B3"/>
    <path d="M493 260.522C482.612 254.018 470.19 253.134 460.844 258.653C453.432 263.032 450.138 270.125 449.439 271.725C445.879 279.843 447.112 287.141 447.646 289.599C451.588 289.919 455.873 290.086 460.45 289.996C469.045 289.817 476.7 288.767 483.171 287.422C481.48 284.746 480.921 282.352 480.743 280.675C479.916 273.236 484.837 265.503 493 260.522Z" fill="#DADCE0"/>
    <path d="M527.712 334.05C524.716 343.246 494.889 347.938 475.089 335.353C461.902 326.954 456.571 313.103 454.452 302.756C453.005 295.888 452.979 290.575 453.005 289.5C461.128 288.994 469.264 288.513 477.387 288.02C477.26 289.766 477.184 291.385 477.171 292.953C476.727 310.94 481.156 318.416 486.233 321.502C497.504 328.358 515.134 315.557 524.386 324.651C526.684 326.916 528.765 330.824 527.724 334.062L527.712 334.05Z" fill="#FFCB9D" style="fill: #FFCB9D; fill: var(--tblr-illustrations-skin, #FFCB9D);"/>
    <path d="M477 288.02C476.875 289.795 476.8 291.442 476.788 293.037C470.892 294.465 459.85 297.746 454.429 303.02C453.005 296.035 452.98 290.632 453.005 289.538C460.999 289.023 469.006 288.535 477 288.033V288.02Z" fill="black" opacity="0.1"/>
    <path d="M504.612 267.474C508.497 269.887 512.28 272.301 516 274.715C514.083 275.034 506.718 275.992 499.265 271.42C495.709 269.236 493.263 266.503 491.61 264.013C490.677 262.634 490.009 261.331 489.517 260.259C489.315 259.799 489.139 259.378 489 259.02L504.625 267.474H504.612Z" fill="#FFCB9D" style="fill: #FFCB9D; fill: var(--tblr-illustrations-skin, #FFCB9D);"/>
    <path d="M504.612 267.474C508.497 269.887 512.28 272.301 516 274.715C514.083 275.034 506.718 275.992 499.265 271.42C495.709 269.236 493.263 266.503 491.61 264.013C490.677 262.634 490.009 261.331 489.517 260.259C489.315 259.799 489.139 259.378 489 259.02L504.625 267.474H504.612Z" fill="black" opacity="0.1"/>
    <path d="M141 176.072C141 176.072 146.907 203.938 156.033 212.741C165.146 221.558 159.63 202.508 157.51 194.4C155.389 186.305 200.476 180.107 184.61 174.225C168.743 168.356 141.013 176.059 141.013 176.059L141 176.072Z" fill="white"/>
    <path d="M428 460.02C427.693 460.093 424.695 460.556 417.893 461.529C416.305 461.756 414.665 461.92 413 462.02C421.506 460.865 427.731 460.02 427.987 460.02H428Z" fill="black" opacity="0.1"/>
    <path d="M224.829 344.683C223.132 344.529 221.435 344.375 219.725 344.221C218.661 344.195 217.61 344.156 216.546 344.131C215.027 342.382 213.52 340.634 212 338.886L220.422 339.722C221.055 336.817 221.688 333.925 222.334 331.02C224.005 333.642 225.69 336.264 227.361 338.886L240 338.218L230.591 346.02C228.666 345.583 226.754 345.146 224.829 344.696V344.683Z" fill="#0b1b3b" class="tblr-illustrations tblr-illustrations-vocate tblr-illustrations-504-c"/>
    <path d="M334 455.114C324.649 456.05 314.602 456.721 303.895 456.936C303.515 456.936 303.148 456.962 302.768 456.962C289.122 457.202 276.439 456.683 264.909 455.721C266.29 445.798 274.919 377.941 236.616 351.424C234.247 349.778 231.624 348.234 228.685 346.879C227.405 346.272 226.037 345.702 224.63 345.171C219.74 344.449 214 343.551 214 343.209C214.076 342.551 237.554 343.664 248.628 345.753C286.411 352.866 319.86 397.535 333.987 455.126L334 455.114Z" fill="#A6A9B3"/>
    <path d="M302.987 456.961C289.347 457.203 276.668 456.681 265.143 455.715C266.523 445.744 275.149 377.562 236.861 350.918C235.201 349.748 233.39 348.641 231.44 347.611C233.682 352.368 235.936 357.239 238.115 362.275C245.575 379.419 251.489 395.711 256.226 410.756C220.484 410.884 184.742 411.024 149 411.163C154.016 395.355 161.07 377.041 171.165 357.442C172.026 355.776 172.887 354.123 173.774 352.482C206.463 360.342 229.021 343.02 229.021 343.02C229.021 343.02 288.815 355.674 301.771 446.304C302.316 450.106 302.709 453.655 303 456.961H302.987Z" fill="black" opacity="0.1"/>
    <path d="M205 384.02L183.735 372.765L160.9 380.155L148.956 384.02L140 372.993C141.218 370.062 142.525 367.106 143.906 364.113C144.547 362.736 145.2 361.372 145.853 360.02C147.272 364.706 148.704 369.393 150.124 374.079C155.022 373.157 159.933 372.222 164.832 371.287C171.25 370.087 177.656 368.862 184.062 367.65C191.045 373.106 198.016 378.563 205 384.02Z" fill="#A6A9B3"/>
    <path d="M205 383.481C197.782 380.716 190.564 377.95 183.359 375.184C174.318 380.188 165.277 385.192 156.235 390.196L147.536 395.02C143.686 390.402 139.837 385.784 136 381.166C137.076 378.233 138.229 375.262 139.47 372.252L148.498 383.481L160.541 379.545L183.562 372.02L205 383.481Z" fill="#DADCE0"/>
    <path d="M217.927 358.893L224 349.02L214.625 357.344L213.862 358.022L214.256 359.149L216.732 366.013L207 371.02L218.888 368.024L220.058 367.716L219.713 366.282L217.927 358.893Z" fill="#DADCE0"/>
    <path d="M205 384.02L183.735 372.765L160.9 380.155L148.956 384.02L140 372.993C141.218 370.062 142.525 367.106 143.906 364.113C144.547 362.736 145.2 361.372 145.853 360.02C147.272 364.706 148.704 369.393 150.124 374.079C155.022 373.157 159.933 372.222 164.832 371.287C171.25 370.087 177.656 368.862 184.062 367.65C191.045 373.106 198.016 378.563 205 384.02Z" fill="black" opacity="0.1"/>
    <path d="M378 457.007H304L323.572 423.772L334.86 404.592C337.57 400.008 344.646 399.782 347.255 404.228L377.262 455.739L378 457.02V457.007Z" fill="#0b1b3b" class="tblr-illustrations tblr-illustrations-vocate tblr-illustrations-504-c"/>
    <path d="M377.262 455.748L378 457.02H304L323.572 424.02C333.715 431.703 354.89 446.656 377.262 455.748Z" fill="black" opacity="0.1"/>
    <path d="M298 161.367C295.904 163.035 293.264 164.02 290.385 164.02H124.313C117.506 164.02 112 158.499 112 151.703V150.187C112 148.343 112.404 146.587 113.137 145.02C149.407 149.227 234.312 157.438 298 161.367Z" fill="black" opacity="0.1"/>
</svg>
