<svg xmlns="http://www.w3.org/2000/svg" width="800" height="600" fill="none" viewBox="0 0 800 600">
    <style>
        :where(.theme-dark, [data-theme="dark"]) .tblr-illustrations-bees-a { fill: black; opacity: 0.07; } :where(.theme-dark, [data-theme="dark"]) .tblr-illustrations-bees-b { fill: black; opacity: 0.3; } :where(.theme-dark, [data-theme="dark"]) .tblr-illustrations-bees-c { fill: #24304d; }
        @media (prefers-color-scheme: dark) { .tblr-illustrations-bees-a { fill: black; opacity: 0.07; } .tblr-illustrations-bees-b { fill: black; opacity: 0.3; } .tblr-illustrations-bees-c { fill: #24304d; } }
    </style>
    <path d="M702.941 299.656C702.941 348.638 651.119 384.149 628.349 423.82C604.578 464.742 599.037 527.085 558.161 550.622C518.67 573.54 462.307 547.848 413.38 547.848C364.452 547.848 308.103 573.417 268.599 550.622C227.846 526.948 222.181 464.618 198.533 423.82C175.64 384.286 123.941 348.638 123.941 299.656C123.941 250.674 175.64 215.163 198.533 175.491C222.181 134.693 227.846 72.2264 268.599 48.6898C308.227 25.7711 364.452 51.4636 413.38 51.4636C462.307 51.4636 518.656 25.7711 558.161 48.5662C598.913 72.2401 604.578 134.57 628.226 175.367C651.119 215.163 702.818 250.674 702.941 299.656Z" fill="#1a3263" style="fill: #1a3263; fill: var(--tblr-illustrations-primary, var(--tblr-primary, #1a3263));" opacity="0.02" class="tblr-illustrations tblr-illustrations-vocate tblr-illustrations-bees-a"/>
    <path d="M407.441 510.135C586.658 510.135 731.941 506.554 731.941 502.135C731.941 497.717 586.658 494.135 407.441 494.135C228.225 494.135 82.9414 497.717 82.9414 502.135C82.9414 506.554 228.225 510.135 407.441 510.135Z" fill="#d9e2f3" opacity="0.5" class="tblr-illustrations tblr-illustrations-vocate tblr-illustrations-bees-b"/>
    <path d="M158.941 185.868L156.694 199.913L155.877 205.135C155.673 205.094 155.455 205.053 155.251 204.999H155.237C154.474 204.822 153.644 204.603 152.649 204.358C152.091 204.208 151.533 204.058 150.974 203.894C150.784 203.84 150.607 203.785 150.416 203.731C130.614 198.113 112.664 187.395 98.3362 172.573C80.2091 154.11 69.4091 129.688 67.9655 103.848C67.7612 100.425 68.8643 97.0571 71.0298 94.439C74.8704 89.7618 80.8628 87.4438 86.828 88.3165C95.1084 89.6528 102.109 98.2161 102.34 109.193C102.681 119.788 104.628 130.26 108.06 140.283C111.302 149.651 114.339 158.46 122.51 167.227C130.954 176.2 141.904 182.404 153.943 185.036C153.97 185.036 154.011 185.05 154.052 185.063C154.243 185.09 154.42 185.118 154.611 185.172C156.408 185.527 157.865 185.731 158.887 185.868C158.901 185.881 158.928 185.881 158.941 185.881V185.868Z" fill="#FFCB9D" style="fill: #FFCB9D; fill: var(--tblr-illustrations-skin, #FFCB9D);"/>
    <path d="M158.941 184.954L156.742 200.28L155.494 205.135C154.774 204.949 153.99 204.719 153.051 204.46C152.523 204.302 151.996 204.144 151.469 203.972C151.289 203.914 151.121 203.857 150.941 203.799C151.867 198.054 153.218 190.441 154.375 184.135C154.556 184.164 154.723 184.193 154.903 184.25C156.601 184.624 157.977 184.839 158.941 184.983V184.954Z" fill="black" opacity="0.15"/>
    <path d="M330.782 163.474C321.22 178.562 308.357 191.225 293.256 200.516C292.997 200.681 292.724 200.845 292.465 200.982C290.092 202.407 287.637 203.778 285.127 205.066C284.936 205.148 284.731 205.258 284.54 205.367C284.308 205.491 284.09 205.587 283.844 205.71C282.658 206.313 281.648 206.765 280.816 207.135L273.941 188.785C274.869 188.456 276.206 187.977 277.788 187.305C278.088 187.196 278.388 187.072 278.702 186.935C281.676 185.62 284.527 184.057 287.241 182.262C287.5 182.111 287.773 181.933 288.032 181.755C295.234 176.89 301.359 170.531 305.97 163.049C312.217 152.784 313.445 143.493 314.754 133.612C315.954 124.376 315.954 115.029 314.74 105.82C314.577 104.491 314.372 103.189 314.154 101.86C312.613 93.4042 315.382 85.5791 320.388 81.1389C321.806 79.837 323.429 78.8229 325.175 78.1651C330.864 76.0958 337.234 77.1921 341.912 81.0293C344.586 83.1808 346.332 86.2643 346.823 89.6629C350.561 115.386 344.859 141.629 330.782 163.46V163.474Z" fill="#FFCB9D" style="fill: #FFCB9D; fill: var(--tblr-illustrations-skin, #FFCB9D);"/>
    <path d="M291.941 200.964C289.45 202.521 286.878 203.981 284.24 205.358C284.015 205.482 283.803 205.579 283.564 205.703C282.411 206.309 281.43 206.763 280.622 207.135L273.941 188.692C274.843 188.361 276.142 187.879 277.679 187.204C277.971 187.094 278.262 186.97 278.567 186.832C281.457 185.51 284.227 183.94 286.865 182.135C288.561 188.306 290.285 194.725 291.941 200.951V200.964Z" fill="black" opacity="0.15"/>
    <path d="M235.999 119.149C248.762 130.568 265.466 137.076 282.941 137.438L232.941 159.135L236.027 119.135H235.999V119.149Z" fill="#0b1b3b" class="tblr-illustrations tblr-illustrations-vocate tblr-illustrations-bees-c"/>
    <path d="M214.941 400.884L188.962 417.7L151.197 442.135L148.941 439.278L179.872 403.469L193.129 388.135L214.941 400.884Z" fill="#FFCB9D" style="fill: #FFCB9D; fill: var(--tblr-illustrations-skin, #FFCB9D);"/>
    <path d="M266.941 394.135L263.343 423.28L257.581 470.135L253.928 469.983L246.498 424.358L242.941 402.514L266.941 394.135Z" fill="#FFCB9D" style="fill: #FFCB9D; fill: var(--tblr-illustrations-skin, #FFCB9D);"/>
    <path d="M193.192 388.135L214.941 400.192L189.017 416.135C185.695 411.591 182.674 407.06 179.941 402.645L193.192 388.135Z" fill="black" opacity="0.15"/>
    <path d="M266.941 394.135L263.343 423.947C257.981 424.513 252.412 424.881 246.498 425.135L242.941 402.79L266.941 394.149V394.135Z" fill="black" opacity="0.15"/>
    <path d="M245.246 159.451C231.429 165.967 213.925 167.36 205.769 165.174C204.398 164.887 203.11 164.286 202.027 163.398C200.821 162.224 199.669 160.953 198.518 159.601C196.9 157.757 195.379 155.776 193.912 153.782C190.115 148.591 186.798 143.058 184.002 137.266C183.824 136.775 183.125 135.354 182.371 133.715C179.081 126.283 176.6 120.177 174.941 115.997C175.517 116.503 178.313 118.784 179.849 117.964C181.384 117.145 181.589 112.705 179.287 107.391L211.869 96.1353L229.592 103.143C229.592 103.143 230.648 104.864 232.498 107.446C235.61 111.995 239.023 116.311 242.737 120.396C245.424 123.538 248.659 126.174 252.278 128.169C262.27 132.731 261.873 151.705 245.259 159.451H245.246Z" fill="#FFCB9D" style="fill: #FFCB9D; fill: var(--tblr-illustrations-skin, #FFCB9D);"/>
    <path d="M242.914 120.49C232.011 129.217 218.497 134.055 204.528 134.248C201.476 135.801 198.905 138.165 197.118 141.092C194.519 145.476 195.605 148.322 194.107 153.627L193.969 154.135C190.161 148.899 186.834 143.332 184.029 137.519C183.85 137.024 183.149 135.595 182.393 133.945C179.093 126.468 176.605 120.325 174.941 116.119C175.519 116.628 178.324 118.923 179.863 118.098C181.389 117.26 181.609 112.807 179.3 107.46L211.98 96.1353L229.757 103.186C229.757 103.186 230.815 104.918 232.671 107.515C235.792 112.092 239.216 116.435 242.941 120.545V120.517L242.914 120.49Z" fill="black" opacity="0.1"/>
    <path d="M243.937 97.3745V97.4296C243.923 97.7463 243.674 103.488 238.789 109.492C238.719 109.602 238.622 109.712 238.525 109.822C232.725 116.459 215.128 121.223 192.189 120.025C192.134 124.734 189.234 129.278 189.622 132.018C189.761 132.831 189.872 133.643 190.038 134.387C190.316 135.695 190.677 136.962 191.121 138.201C191.912 140.307 192.897 142.332 194.063 144.273C199.6 152.204 205.72 159.736 212.353 166.745C208.537 169.774 202.112 174.139 193.23 177.058C192.453 177.306 191.662 177.567 190.829 177.788C182.572 180.128 175.398 180.321 170.527 180.032C170.402 179.839 170.291 179.633 170.139 179.426C170.055 179.247 169.93 179.082 169.847 178.903C169.486 178.311 169.07 177.581 168.626 176.769C167.266 174.318 163.394 167.199 161.854 157.616C161.715 156.789 161.507 155.564 161.313 153.939C160.966 150.786 160.869 147.619 160.993 144.466C161.007 143.901 161.049 143.309 161.105 142.731C161.382 138.628 162.09 134.607 163.172 130.655C163.186 130.614 163.2 130.545 163.214 130.504C166.114 120.122 171.374 110.566 178.562 102.538C178.715 102.387 178.881 102.221 179.075 102.001C182.919 98.0355 198.337 83.2747 219.958 83.137C222.886 83.1232 238.969 83.0131 242.827 91.2334C243.993 93.6706 243.951 96.631 243.937 97.347V97.3745Z" fill="#0b1b3b" class="tblr-illustrations tblr-illustrations-vocate tblr-illustrations-bees-c"/>
    <path d="M138.574 478.135C143.216 469.515 144.791 448.161 140.149 445.101C135.506 442.041 128.719 447.232 128.719 447.232L120.941 451.522L125.299 461.017L132.493 459.036L138.588 478.135H138.574Z" fill="#0b1b3b" class="tblr-illustrations tblr-illustrations-vocate tblr-illustrations-bees-c"/>
    <path d="M274.941 504.135C271.352 494.858 255.964 479.633 250.574 481.255C245.183 482.864 244.743 491.558 244.743 491.558L242.941 500.433L253.09 503.262L256.28 496.356L274.941 504.121V504.135Z" fill="#0b1b3b" class="tblr-illustrations tblr-illustrations-vocate tblr-illustrations-bees-c"/>
    <path d="M243.941 98.1485V98.2015C243.927 98.5065 243.677 104.035 238.781 109.815C238.712 109.921 238.615 110.027 238.517 110.133C232.704 116.524 215.068 121.111 192.078 119.957C189.227 118.751 186.487 117.266 183.941 115.489C205.722 119.546 228.197 113.05 243.941 98.1353V98.1485Z" fill="black" opacity="0.5"/>
    <path d="M170.941 401.137L271.484 405.135C273.622 400.401 275.952 394.555 278.007 387.668C280.323 379.935 282.31 370.91 283.283 360.788C285.147 341.558 282.708 325.632 280.268 315.135C262.413 315.357 244.543 315.566 226.687 315.788C212.655 315.968 198.623 316.135 184.59 316.315C185.755 326.882 186.276 341.072 183.85 357.483C181.151 375.978 175.683 390.806 170.955 401.137H170.941Z" fill="#DADCE0"/>
    <path d="M170.941 401.151L271.423 405.135C273.559 400.418 275.887 394.595 277.941 387.734C242.663 381.592 232.35 371.038 230.323 361.659C229.625 358.533 229.515 353.857 226.79 352.156C219.217 347.522 203.015 372.144 200.838 370.235C199.29 368.838 205.576 354.438 226.639 316.135C212.616 316.315 198.592 316.481 184.568 316.661C185.732 327.188 186.253 341.325 183.829 357.675C181.131 376.1 175.666 390.874 170.941 401.165V401.151Z" fill="black" opacity="0.1"/>
    <path d="M192.941 177.031C192.171 177.281 191.387 177.545 190.562 177.767C182.379 180.128 175.269 180.323 170.441 180.031C170.318 179.837 170.208 179.628 170.056 179.42C169.974 179.239 169.85 179.073 169.767 178.892C169.41 178.295 168.997 177.559 168.557 176.739C167.209 174.267 163.372 167.085 161.846 157.417C161.708 156.583 161.502 155.347 161.309 153.708C160.966 150.527 160.869 147.332 160.993 144.151C161.007 143.582 161.048 142.984 161.103 142.401C161.378 138.261 162.08 134.205 163.152 130.219C163.194 130.191 163.207 130.163 163.235 130.135C164.074 136.9 167.086 153.152 180.179 166.877C184.511 171.405 189.008 174.669 192.941 177.031Z" fill="black" opacity="0.5"/>
    <path d="M276.539 262.536C278.397 280.785 279.965 298.69 281.286 316.238C268.256 318.749 252.5 320.793 234.585 321.095C215.554 321.424 198.863 319.696 185.2 317.404C182.764 284.887 180.315 252.37 177.879 219.852C169.238 216.656 160.583 213.431 151.941 210.221C154.707 200.987 157.473 191.753 160.239 182.519C164.752 184.509 170.999 186.306 178.044 185.25C178.058 185.25 178.072 185.25 178.086 185.236C178.842 185.126 179.544 184.989 180.26 184.824H180.645C185.323 184.152 189.823 183.535 194.061 183.192C204.367 182.245 214.742 182.053 225.09 182.602C234.997 183.151 244.863 184.536 254.55 186.718C256.986 187.294 259.532 187.925 261.953 188.707L263.825 189.325L264.004 189.38L264.774 189.627C265.215 189.434 265.682 189.229 266.123 189.023C271.296 186.732 276.47 184.44 281.644 182.135C283.419 187.706 285.167 193.427 286.845 199.258C287.919 202.949 288.951 206.599 289.941 210.221L272.136 222.926C273.704 235.905 275.191 249.118 276.539 262.536Z" fill="#1a3263" style="fill: #1a3263; fill: var(--tblr-illustrations-primary, var(--tblr-primary, #1a3263));"/>
    <path d="M265.941 188.357C262.42 203.458 244.275 215.052 222.402 215.135C198.535 215.245 178.918 201.615 177.941 184.548C178.698 184.438 179.4 184.3 180.115 184.135H180.17C180.844 199.855 199.58 212.453 222.416 212.37C242.872 212.288 259.889 202.083 263.644 188.646L263.823 188.701L264.593 188.949C265.033 188.756 265.501 188.55 265.941 188.344V188.357Z" fill="#DADCE0"/>
    <path d="M229.931 224.646C229.607 226.275 227.777 227.377 225.863 227.09C223.949 226.814 222.668 225.257 222.991 223.627C223.287 222.202 224.723 221.147 226.426 221.135C228.523 221.291 230.086 222.848 229.931 224.646Z" fill="#DADCE0"/>
    <path d="M347.173 500.135L345.529 500.039C345.529 496.611 345.723 493.375 346.082 490.303C346.399 475.795 345.005 447.341 331.941 421.876L333.405 421.135C344.314 442.39 347.173 465.688 347.67 481.445C355.071 451.372 379.044 441.595 379.334 441.485L379.941 443.007C379.638 443.131 351.992 454.444 347.725 490.454C347.601 496.405 347.187 500.012 347.173 500.135Z" fill="#0b1b3b" class="tblr-illustrations tblr-illustrations-vocate tblr-illustrations-bees-c"/>
    <path d="M329.441 411.135C334.688 411.135 338.941 406.882 338.941 401.635C338.941 396.389 334.688 392.135 329.441 392.135C324.195 392.135 319.941 396.389 319.941 401.635C319.941 406.882 324.195 411.135 329.441 411.135Z" fill="#DADCE0"/>
    <path d="M315.941 420.135C320.912 420.135 324.941 415.658 324.941 410.135C324.941 404.612 320.912 400.135 315.941 400.135C310.971 400.135 306.941 404.612 306.941 410.135C306.941 415.658 310.971 420.135 315.941 420.135Z" fill="#A6A9B3"/>
    <path d="M312.941 435.135C318.464 435.135 322.941 430.882 322.941 425.635C322.941 420.389 318.464 416.135 312.941 416.135C307.419 416.135 302.941 420.389 302.941 425.635C302.941 430.882 307.419 435.135 312.941 435.135Z" fill="#DADCE0"/>
    <path d="M321.941 448.135C326.912 448.135 330.941 443.882 330.941 438.635C330.941 433.389 326.912 429.135 321.941 429.135C316.971 429.135 312.941 433.389 312.941 438.635C312.941 443.882 316.971 448.135 321.941 448.135Z" fill="#A6A9B3"/>
    <path d="M337.941 451.135C342.912 451.135 346.941 446.882 346.941 441.635C346.941 436.389 342.912 432.135 337.941 432.135C332.971 432.135 328.941 436.389 328.941 441.635C328.941 446.882 332.971 451.135 337.941 451.135Z" fill="#DADCE0"/>
    <path d="M350.441 442.135C355.688 442.135 359.941 437.882 359.941 432.635C359.941 427.389 355.688 423.135 350.441 423.135C345.195 423.135 340.941 427.389 340.941 432.635C340.941 437.882 345.195 442.135 350.441 442.135Z" fill="#A6A9B3"/>
    <path d="M353.941 427.135C358.912 427.135 362.941 422.882 362.941 417.635C362.941 412.389 358.912 408.135 353.941 408.135C348.971 408.135 344.941 412.389 344.941 417.635C344.941 422.882 348.971 427.135 353.941 427.135Z" fill="#DADCE0"/>
    <path d="M344.941 414.135C349.912 414.135 353.941 409.658 353.941 404.135C353.941 398.612 349.912 394.135 344.941 394.135C339.971 394.135 335.941 398.612 335.941 404.135C335.941 409.658 339.971 414.135 344.941 414.135Z" fill="#A6A9B3"/>
    <path d="M332.941 436.135C341.226 436.135 347.941 429.643 347.941 421.635C347.941 413.627 341.226 407.135 332.941 407.135C324.657 407.135 317.941 413.627 317.941 421.635C317.941 429.643 324.657 436.135 332.941 436.135Z" fill="#1a3263" style="fill: #1a3263; fill: var(--tblr-illustrations-primary, var(--tblr-primary, #1a3263));"/>
    <path d="M377.441 435.135C381.031 435.135 383.941 432.225 383.941 428.635C383.941 425.045 381.031 422.135 377.441 422.135C373.852 422.135 370.941 425.045 370.941 428.635C370.941 432.225 373.852 435.135 377.441 435.135Z" fill="#A6A9B3"/>
    <path d="M368.441 440.135C372.031 440.135 374.941 437.449 374.941 434.135C374.941 430.822 372.031 428.135 368.441 428.135C364.852 428.135 361.941 430.822 361.941 434.135C361.941 437.449 364.852 440.135 368.441 440.135Z" fill="#DADCE0"/>
    <path d="M365.941 452.135C369.255 452.135 371.941 449.001 371.941 445.135C371.941 441.269 369.255 438.135 365.941 438.135C362.628 438.135 359.941 441.269 359.941 445.135C359.941 449.001 362.628 452.135 365.941 452.135Z" fill="#A6A9B3"/>
    <path d="M371.941 460.135C375.807 460.135 378.941 457.225 378.941 453.635C378.941 450.045 375.807 447.135 371.941 447.135C368.075 447.135 364.941 450.045 364.941 453.635C364.941 457.225 368.075 460.135 371.941 460.135Z" fill="#DADCE0"/>
    <path d="M383.441 462.135C387.031 462.135 389.941 459.449 389.941 456.135C389.941 452.822 387.031 450.135 383.441 450.135C379.852 450.135 376.941 452.822 376.941 456.135C376.941 459.449 379.852 462.135 383.441 462.135Z" fill="#A6A9B3"/>
    <path d="M391.941 456.135C395.807 456.135 398.941 453.449 398.941 450.135C398.941 446.822 395.807 444.135 391.941 444.135C388.075 444.135 384.941 446.822 384.941 450.135C384.941 453.449 388.075 456.135 391.941 456.135Z" fill="#DADCE0"/>
    <path d="M393.941 446.135C397.807 446.135 400.941 443.001 400.941 439.135C400.941 435.269 397.807 432.135 393.941 432.135C390.075 432.135 386.941 435.269 386.941 439.135C386.941 443.001 390.075 446.135 393.941 446.135Z" fill="#A6A9B3"/>
    <path d="M387.941 437.135C391.255 437.135 393.941 434.001 393.941 430.135C393.941 426.269 391.255 423.135 387.941 423.135C384.628 423.135 381.941 426.269 381.941 430.135C381.941 434.001 384.628 437.135 387.941 437.135Z" fill="#DADCE0"/>
    <path d="M380.441 452.135C386.24 452.135 390.941 447.658 390.941 442.135C390.941 436.612 386.24 432.135 380.441 432.135C374.642 432.135 369.941 436.612 369.941 442.135C369.941 447.658 374.642 452.135 380.441 452.135Z" fill="#1a3263" style="fill: #1a3263; fill: var(--tblr-illustrations-primary, var(--tblr-primary, #1a3263));"/>
    <path d="M379.928 478.135C379.928 478.135 373.897 498.626 349.532 500.956C348.784 501.025 348.024 501.094 347.236 501.135C346.449 501.094 345.689 501.025 344.941 500.956C345.048 500.17 345.529 497.412 347.236 494.075C350.692 487.319 359.219 478.135 379.941 478.135H379.928Z" fill="#1a3263" style="fill: #1a3263; fill: var(--tblr-illustrations-primary, var(--tblr-primary, #1a3263));"/>
    <path d="M348.941 500.956C348.194 501.025 347.432 501.094 346.645 501.135C345.857 501.094 345.096 501.025 344.348 500.956C319.951 498.626 313.941 478.135 313.941 478.135C334.68 478.135 343.186 487.319 346.645 494.075C348.354 497.412 348.848 500.17 348.941 500.956Z" fill="#DADCE0"/>
    <path d="M678.82 499.135L678.138 497.339L678.428 497.243C678.37 496.9 678.297 496.543 678.239 496.187C674.563 475.244 678.704 453.026 690.561 430.135L691.941 430.766C680.244 453.382 676.147 475.312 679.765 495.953C679.925 496.9 680.114 497.819 680.303 498.751L678.835 499.135H678.82Z" fill="#0b1b3b" class="tblr-illustrations tblr-illustrations-vocate tblr-illustrations-bees-c"/>
    <path d="M679.941 501.135C679.941 501.135 678.016 481.135 648.941 481.135C648.941 481.135 654.933 501.135 679.941 501.135Z" fill="#A6A9B3"/>
    <path d="M676.941 501.135C676.941 501.135 678.867 481.135 707.941 481.135C707.941 481.135 701.95 501.135 676.941 501.135Z" fill="#DADCE0"/>
    <path d="M698.976 467.135C698.976 467.135 673.168 462.731 687.035 439.135C687.255 439.177 687.476 439.247 687.696 439.289C713.243 445.449 698.963 467.135 698.963 467.135H698.976Z" fill="#DADCE0"/>
    <path d="M686.837 439.135C685.531 438.866 684.321 438.53 683.222 438.181C662.176 431.484 674.465 412.794 674.905 412.135H674.919C674.919 412.135 700.707 416.384 686.851 439.135H686.837Z" fill="#DADCE0"/>
    <path d="M686.928 439.135C685.693 438.971 684.431 438.793 683.196 438.629C662.194 431.818 674.458 412.805 674.897 412.135H674.911C675.542 415.842 676.722 420.574 678.971 425.786C681.468 431.53 684.458 435.976 686.941 439.122L686.928 439.135Z" fill="black" opacity="0.1"/>
    <path d="M698.766 467.135C698.766 467.135 694.045 447.263 686.941 439.135C713.752 445.329 698.766 467.135 698.766 467.135Z" fill="black" opacity="0.1"/>
    <path d="M714.927 427.317C714.927 427.317 711.067 451.091 691.178 442.107C689.84 441.515 688.433 440.749 686.941 439.84C687.15 438.843 687.387 437.904 687.652 437.009C694.44 413.134 714.941 427.317 714.941 427.317H714.927Z" fill="#1a3263" style="fill: #1a3263; fill: var(--tblr-illustrations-primary, var(--tblr-primary, #1a3263));"/>
    <path d="M686.941 440.018C681.23 465.153 659.941 451.358 659.941 451.358C659.941 451.358 664.202 426.862 686.941 440.018Z" fill="#1a3263" style="fill: #1a3263; fill: var(--tblr-illustrations-primary, var(--tblr-primary, #1a3263));"/>
    <path d="M659.941 451.137C659.941 451.137 678.891 446.961 686.941 439.135C681.23 465.738 659.941 451.137 659.941 451.137Z" fill="black" opacity="0.1"/>
    <path d="M714.941 427.117C711.561 427.254 706.255 427.857 700.335 430.296C694.915 432.53 690.978 435.463 688.396 437.792C687.854 438.258 687.384 438.724 686.97 439.135C686.956 438.957 686.956 438.724 686.941 438.436C686.941 437.888 686.941 437.176 686.998 436.298C693.945 413.646 714.927 427.103 714.927 427.103L714.941 427.117Z" fill="black" opacity="0.1"/>
    <path d="M686.941 447.135C691.36 447.135 694.941 443.554 694.941 439.135C694.941 434.717 691.36 431.135 686.941 431.135C682.523 431.135 678.941 434.717 678.941 439.135C678.941 443.554 682.523 447.135 686.941 447.135Z" fill="white"/>
    <path d="M384.899 242.135C383.846 241.532 382.537 240.942 380.97 240.626C378.972 240.229 377.177 240.379 375.773 240.681C374.288 237.389 373.626 232.328 374.085 226.608C374.166 225.455 374.301 224.262 374.49 223.055C376.205 211.889 381.376 203.44 386.033 204.18C390.124 204.825 392.473 212.328 391.839 221.683C391.744 223 391.596 224.344 391.393 225.73C390.3 232.876 387.788 238.898 384.899 242.122V242.135Z" fill="#A6A9B3"/>
    <path d="M384.954 242.135C383.896 241.523 382.579 240.925 381.006 240.605C378.997 240.201 377.193 240.354 375.782 240.66C374.289 237.321 373.624 232.186 374.086 226.383C376.121 224.505 378.007 223.211 380.341 222.348C384.316 220.887 388.726 220.998 391.941 221.388C391.846 222.724 391.697 224.087 391.494 225.493C390.395 232.743 387.871 238.851 384.967 242.121L384.954 242.135Z" fill="black" opacity="0.1"/>
    <path d="M406.146 272.569C402.788 278.968 395.38 282.244 386.585 282.133C382.86 282.077 378.891 281.425 374.867 280.134C372.081 279.231 369.281 278.038 366.521 276.539C366.331 276.428 366.127 276.331 365.937 276.219C363.15 274.651 360.608 272.874 358.338 270.931C356.054 268.988 354.043 266.892 352.343 264.713C346.172 256.773 344.079 247.709 347.762 240.699C351.501 233.565 360.282 230.303 370.395 231.316C373.073 231.58 375.846 232.149 378.646 233.009C381.46 233.884 384.301 235.078 387.101 236.577L387.373 236.729C390.282 238.312 392.933 240.144 395.298 242.129C398.669 244.974 401.456 248.139 403.549 251.429C408.13 258.619 409.367 266.392 406.118 272.583L406.146 272.569Z" fill="#DADCE0"/>
    <path d="M406.738 269.135L412.941 277.135L402.941 274.796L404.122 270.95L406.738 269.135Z" fill="#1a3263" style="fill: #1a3263; fill: var(--tblr-illustrations-primary, var(--tblr-primary, #1a3263));"/>
    <path d="M358.095 270.135C355.751 268.222 353.686 266.159 351.941 264.013C365.908 252.835 369.913 240.537 370.471 231.135C373.219 231.395 376.066 231.955 378.94 232.802C379.024 242.915 375.396 257.413 358.095 270.135Z" fill="#1a3263" style="fill: #1a3263; fill: var(--tblr-illustrations-primary, var(--tblr-primary, #1a3263));"/>
    <path d="M374.066 280.122C371.219 279.231 368.358 278.053 365.539 276.574C365.344 276.464 365.136 276.368 364.941 276.259C383.552 262.916 386.913 247.478 386.566 237.135L386.843 237.286C389.816 238.848 392.524 240.656 394.94 242.615C395.01 252.779 391.371 267.368 374.052 280.135L374.066 280.122Z" fill="#1a3263" style="fill: #1a3263; fill: var(--tblr-illustrations-primary, var(--tblr-primary, #1a3263));"/>
    <path d="M406.163 272.482C402.864 278.939 395.584 282.245 386.941 282.132C398.736 271.641 402.73 260.268 403.625 251.135C408.127 258.391 409.342 266.235 406.15 272.482H406.163Z" fill="#1a3263" style="fill: #1a3263; fill: var(--tblr-illustrations-primary, var(--tblr-primary, #1a3263));"/>
    <path d="M388.301 244.755C389.721 246.206 390.571 247.793 391.089 249.135C395.258 248.457 400.822 245.365 405.974 240.537C414.033 232.983 418.003 224.019 414.87 220.533C411.723 217.034 402.654 220.33 394.594 227.884C389.443 232.712 385.964 238.123 384.941 242.3C386.004 242.843 387.185 243.616 388.301 244.755Z" fill="#A6A9B3"/>
    <path d="M483.291 161.958C484.208 161.769 485.313 161.661 486.54 161.823C488.104 162.013 489.384 162.567 490.342 163.135C492.215 161.106 493.9 157.589 494.925 153.342C495.141 152.476 495.316 151.583 495.464 150.664C496.866 142.155 495.073 134.77 491.474 134.174C488.306 133.647 484.801 138.516 483.048 145.469C482.806 146.443 482.59 147.458 482.415 148.513C481.525 153.964 481.93 158.942 483.291 161.985V161.958Z" fill="#DADCE0"/>
    <path d="M483.293 161.937C484.211 161.744 485.317 161.634 486.546 161.799C488.112 161.992 489.394 162.557 490.352 163.135C492.228 161.069 493.916 157.489 494.941 153.164C493.902 151.291 492.822 149.887 491.311 148.688C488.746 146.65 485.493 145.645 483.05 145.135C482.807 146.127 482.591 147.16 482.415 148.234C481.525 153.784 481.93 158.852 483.293 161.951V161.937Z" fill="black" opacity="0.1"/>
    <path d="M460.119 179.065C461.073 184.508 465.763 188.682 472.279 190.728C475.033 191.601 478.128 192.092 481.399 192.133C483.662 192.16 486.021 191.982 488.407 191.56C488.57 191.532 488.748 191.505 488.911 191.464C491.338 191.014 493.642 190.332 495.768 189.486C497.922 188.641 499.899 187.604 501.671 186.444C508.12 182.202 511.814 176.16 510.764 170.199C509.701 164.129 503.989 159.641 496.3 157.922C494.255 157.459 492.074 157.199 489.811 157.145C487.521 157.09 485.148 157.268 482.722 157.663L482.476 157.704C479.954 158.141 477.555 158.823 475.346 159.682C472.184 160.91 469.375 162.533 467.044 164.402C461.959 168.48 459.192 173.813 460.119 179.065Z" fill="#A6A9B3"/>
    <path d="M460.52 177.135L453.941 181.677L461.78 182.135L461.941 179.036L460.52 177.135Z" fill="#DADCE0"/>
    <path d="M495.84 190.135C498.066 189.273 500.11 188.215 501.941 187.033C494.36 175.291 494.459 165.107 496.39 157.928C494.276 157.455 492.021 157.191 489.682 157.135C487.089 164.69 486.174 176.432 495.84 190.135Z" fill="#DADCE0"/>
    <path d="M481.565 192.133C484.088 192.159 486.718 191.985 489.379 191.568C489.561 191.541 489.759 191.514 489.941 191.473C478.539 177.468 479.983 165.521 483.039 158.135L482.766 158.176C479.953 158.606 477.277 159.279 474.814 160.126C472.017 167.459 471.029 178.84 481.549 192.133H481.565Z" fill="#DADCE0"/>
    <path d="M460.101 179.617C461.03 184.992 465.596 189.115 471.941 191.135C465.716 180.83 465.424 171.804 466.857 165.135C461.906 169.163 459.211 174.431 460.114 179.617H460.101Z" fill="#DADCE0"/>
    <path d="M480.659 163.536C479.19 164.273 478.117 165.246 477.368 166.135C474.275 164.565 470.701 160.826 467.89 155.878C463.497 148.136 462.635 140.38 465.983 138.532C469.331 136.683 475.603 141.478 479.996 149.22C482.807 154.168 484.177 159.13 483.908 162.535C482.948 162.674 481.818 162.952 480.659 163.536Z" fill="#DADCE0"/>
    <path d="M414.632 92.1353C415.305 91.8058 416.154 91.4908 417.149 91.3475C418.421 91.1757 419.533 91.3189 420.411 91.548C421.45 89.6002 422.02 86.5638 421.933 83.0977C421.918 82.3959 421.874 81.6654 421.786 80.935C421.084 74.1317 418.114 68.8467 415.159 69.1475C412.57 69.4053 410.843 73.8596 410.946 79.5457C410.96 80.3478 411.004 81.1641 411.092 82.0092C411.546 86.3633 412.921 90.0871 414.632 92.1353Z" fill="#A6A9B3"/>
    <path d="M414.629 92.1353C415.303 91.8225 416.152 91.5233 417.147 91.3873C418.42 91.2241 419.532 91.3601 420.41 91.5777C421.45 89.7281 422.02 86.8449 421.933 83.5538C420.718 82.425 419.591 81.6362 418.157 81.0787C415.727 80.1267 412.961 80.0587 410.941 80.1811C410.956 80.9426 411 81.7178 411.088 82.5202C411.541 86.6546 412.917 90.1905 414.629 92.1353Z" fill="black" opacity="0.1"/>
    <path d="M401.811 107.96C403.592 111.784 407.845 113.911 413.023 114.12C415.218 114.203 417.565 113.953 419.968 113.327C421.639 112.896 423.323 112.284 424.98 111.506C425.09 111.45 425.215 111.395 425.325 111.339C427.01 110.519 428.556 109.559 429.951 108.517C431.359 107.46 432.602 106.306 433.665 105.096C437.545 100.689 439.036 95.4888 437.089 91.3038C435.142 87.1188 430.033 84.8803 424.069 85.1584C422.481 85.2279 420.838 85.4643 419.167 85.8814C417.483 86.2985 415.784 86.8964 414.086 87.6889L413.92 87.7723C412.167 88.6065 410.538 89.5798 409.088 90.6504C407.017 92.1937 405.277 93.9455 403.951 95.7808C401.038 99.7989 400.072 104.276 401.798 107.974L401.811 107.96Z" fill="#DADCE0"/>
    <path d="M401.237 107.135L397.941 112.135L402.941 110.93L402.471 108.4L401.237 107.135Z" fill="#0b1b3b" class="tblr-illustrations tblr-illustrations-vocate tblr-illustrations-bees-c"/>
    <path d="M429.366 109.135C430.722 108.095 431.918 106.958 432.941 105.767C425.564 98.8674 423.73 91.6114 423.703 86.1353C422.175 86.2037 420.593 86.4365 418.985 86.8472C418.639 92.7067 420.208 101.236 429.366 109.135Z" fill="#0b1b3b" class="tblr-illustrations tblr-illustrations-vocate tblr-illustrations-bees-c"/>
    <path d="M419.677 114.135C421.319 113.715 422.974 113.119 424.602 112.36C424.711 112.306 424.833 112.252 424.941 112.198C414.82 104 413.381 95.0567 413.897 89.1353L413.734 89.2166C412.011 90.0296 410.41 90.9781 408.985 92.0214C408.633 97.848 410.247 106.303 419.663 114.135H419.677Z" fill="#0b1b3b" class="tblr-illustrations tblr-illustrations-vocate tblr-illustrations-bees-c"/>
    <path d="M401.793 108.43C403.564 111.972 407.793 113.942 412.941 114.135C406.227 108.198 404.195 102.029 403.935 97.1353C401.038 100.857 400.076 105.004 401.793 108.43Z" fill="#0b1b3b" class="tblr-illustrations tblr-illustrations-vocate tblr-illustrations-bees-c"/>
    <path d="M413.867 93.5468C412.975 94.3906 412.412 95.3201 412.055 96.1353C409.582 95.5775 406.341 93.5182 403.402 90.3864C398.815 85.5098 396.699 79.9039 398.691 77.8732C400.682 75.8425 406.011 78.1449 410.612 83.0358C413.552 86.1533 415.461 89.5712 415.941 92.1596C415.282 92.46 414.554 92.889 413.854 93.5468H413.867Z" fill="#A6A9B3"/>
    <path d="M557.116 458.434C572.729 471.228 588.329 484.036 603.941 496.831C548.956 498.603 493.97 500.362 438.985 502.135C438.304 500.61 437.623 499.084 436.941 497.573C467.581 491.622 498.221 485.672 528.874 479.735C488.071 448.553 481.382 438.109 483.371 434.522C487.186 427.678 529.188 435.525 557.116 458.434Z" fill="#DADCE0"/>
    <path d="M557.116 458.434C572.729 471.228 588.329 484.036 603.941 496.831C548.956 498.603 493.97 500.362 438.985 502.135C438.304 500.61 437.623 499.084 436.941 497.573C467.581 491.622 498.221 485.672 528.874 479.735C488.071 448.553 481.382 438.109 483.371 434.522C487.186 427.678 529.188 435.525 557.116 458.434Z" fill="black" opacity="0.1"/>
    <path d="M466.783 437.149C482.335 439.804 497.9 442.473 513.451 445.129C524.943 465.126 536.449 485.138 547.941 505.135C506.91 504.444 465.878 503.752 424.847 503.061C424.545 500.613 424.243 498.151 423.941 495.703C443.484 489.37 463.026 483.036 482.568 476.715C481.032 476.162 469.8 471.889 465.398 459.525C461.421 448.337 465.974 438.781 466.797 437.135L466.783 437.149Z" fill="#DADCE0"/>
    <path d="M390.941 505.518L413.222 490.135C413.222 490.135 419.084 494.826 417.742 499.476C416.4 504.125 398.98 507.599 390.941 505.518Z" fill="#0b1b3b" class="tblr-illustrations tblr-illustrations-vocate tblr-illustrations-bees-c"/>
    <path d="M600.941 255.17C599.186 258.818 596.67 264.399 593.615 270.817L591.859 274.013C587.961 281.185 583.289 287.672 577.828 293.761C576.764 294.885 575.672 295.982 574.594 297.093C570.474 300.851 550.319 299.589 535.556 291.923C520.806 284.257 521.29 267.197 530.386 263.385C533.703 261.684 536.731 259.462 539.205 256.761L539.288 256.678C541.251 254.759 543.103 252.743 544.859 250.631C546.297 248.916 547.665 247.147 548.965 245.365C550.72 243.02 551.757 241.607 551.757 241.607L567.944 236.135L596.946 247.559C596.905 247.641 596.877 247.737 596.836 247.806C594.983 251.865 594.804 255.266 595.675 256.555H595.688C595.813 256.761 595.951 256.898 596.117 256.98C597.126 257.515 599.02 256.459 600.112 255.746H600.126C600.347 255.581 600.541 255.444 600.693 255.348C600.803 255.28 600.886 255.197 600.928 255.17H600.941Z" fill="#FFCB9D" style="fill: #FFCB9D; fill: var(--tblr-illustrations-skin, #FFCB9D);"/>
    <path d="M600.941 254.611C600.914 254.679 600.887 254.761 600.832 254.83C599.228 258.511 596.774 263.985 593.663 270.226L591.922 273.414C588.056 280.572 583.368 287.168 578.008 293.135C576.391 291.904 575.006 290.316 574.019 288.4C572.895 286.47 572.306 284.253 572.018 281.995C571.936 279.505 572.1 277.11 572.731 274.715C572.923 273.182 573.389 271.745 573.882 270.171C569.605 269.979 563.067 269.213 555.788 266.189C548.399 263.137 543.218 259.072 539.941 256.171C541.888 254.255 543.725 252.243 545.466 250.136C547.549 248.014 548.769 246.509 549.619 245.482C549.838 245.263 552.402 241.746 552.402 241.746L568.481 236.135L596.898 247.289L597.007 247.316L597.295 247.398C595.486 251.299 595.17 254.515 595.856 256.034H595.869C595.911 256.362 596.253 256.595 596.473 256.814C597.569 257.471 599.283 256.089 600.256 255.227H600.27C600.599 254.912 600.832 254.679 600.928 254.611H600.941Z" fill="black" opacity="0.1"/>
    <path d="M533.956 223.24C534.052 227.046 535.584 230.427 538.361 233.052C538.101 238.481 539.305 243.786 542.027 248.417C549.304 260.593 567.224 265.994 586.416 261.377L586.512 261.555L586.471 261.693C586.033 265.417 584.788 267.836 583.694 269.361C581.683 272.193 579.795 272.632 578.893 275.628C578.25 277.786 578.441 280.191 578.496 280.851C578.605 282.211 578.865 283.338 579.098 284.135C580.876 281.222 583.243 278.789 586.211 277.126C587.251 276.59 588.372 276.219 589.494 275.848C595.376 273.223 600.041 268.482 602.517 262.449C602.9 261.707 603.187 260.772 603.31 259.947L603.488 259.851C609.493 259.59 614.062 254.67 613.939 248.678C613.652 244.088 610.683 240.254 606.388 238.742C610.423 232.338 608.508 223.762 602.147 219.708C599.863 218.251 597.072 217.509 594.323 217.509C591.71 217.55 589.289 218.375 587.264 219.763C586.156 212.3 579.111 207.174 571.697 208.287C566.526 209.112 562.19 212.809 560.754 217.852C558.62 212.245 553.257 208.658 547.43 208.837C542.232 208.988 537.827 212.163 535.638 216.176C534.079 219.02 533.929 221.769 533.942 223.24H533.956Z" fill="#0b1b3b" class="tblr-illustrations tblr-illustrations-vocate tblr-illustrations-bees-c"/>
    <path d="M537.976 232.135C537.713 237.571 538.933 242.882 541.694 247.519C549.072 259.711 567.242 265.118 586.701 260.495L586.798 260.674L586.757 260.811C589.212 259.986 591.708 259.036 593.941 257.991L593.761 258.087C589.406 258.458 563.081 262.091 546.187 244.451C542.817 240.777 540.071 236.58 537.976 232.149V232.135Z" fill="black" opacity="0.5"/>
    <path d="M589.33 342.097C582.99 361.884 576.609 381.617 570.256 401.391L563.862 419.925C562.473 427.565 561.125 435.314 559.819 443.185C559.805 443.253 559.791 443.335 559.791 443.403C558.953 448.442 558.155 453.44 557.399 458.397C557.33 458.41 557.247 458.424 557.165 458.424C552.173 459.187 545.311 459.949 537.129 460.086C529.112 460.208 516.956 460.399 503.328 456.64C503.3 456.627 503.259 456.626 503.218 456.613C495.283 454.42 481.449 449.422 467.024 437.084C466.996 437.057 466.969 437.043 466.941 437.016L467.973 432.549C469.1 427.688 470.214 422.812 471.342 417.951C473.35 409.208 475.357 400.451 477.379 391.708L479.978 380.446C482.178 370.845 484.42 361.217 486.634 351.616C487.431 348.075 488.242 344.535 489.068 341.021C491.749 329.337 494.431 317.68 497.112 306.022C499.326 305.409 501.458 305.055 503.397 304.987C504.4 305.042 505.404 305.083 506.408 305.137C512.046 306.431 517.698 307.725 523.336 309.032C524.12 309.223 527.393 309.958 530.817 308.174C533.911 306.567 535.19 303.939 535.548 303.135C539.563 304.756 544.005 306.363 548.873 307.82C553.424 309.182 557.729 310.244 561.73 311.088C561.785 311.81 561.772 312.614 561.62 313.485C561.593 313.621 561.565 313.757 561.538 313.894C561.51 314.22 561.29 315.61 561.703 317.189C562.679 321.03 566.076 322.65 566.571 322.882C571.59 324.162 576.582 325.415 581.587 326.708C582.715 326.831 584.365 327.076 586.373 327.498C586.373 327.498 594.266 335.193 589.302 342.138L589.33 342.097Z" fill="#1a3263" style="fill: #1a3263; fill: var(--tblr-illustrations-primary, var(--tblr-primary, #1a3263));"/>
    <path d="M562.941 419.518C561.607 427.345 560.272 435.172 558.937 443.013C558.923 443.082 558.91 443.165 558.91 443.234C558.051 448.296 557.18 453.344 556.308 458.407C551.364 459.177 544.567 459.947 536.462 460.085C528.521 460.209 516.481 460.401 502.982 456.605C502.955 456.591 502.914 456.591 502.873 456.577C493.38 452.629 480.807 446.439 467.023 436.851C466.996 436.837 466.969 436.809 466.941 436.796L467.963 432.27L477.28 391.015L479.854 379.638L486.419 350.557C486.419 350.557 486.433 350.53 486.446 350.516C489.103 346.059 491.908 341.932 494.81 338.135C500.381 342.785 508.022 350.378 513.484 361.631C519.736 374.534 518.265 382.155 522.406 391.427C526.546 400.671 536.531 412.034 562.941 419.545V419.518Z" fill="black" opacity="0.1"/>
    <path d="M644.939 385.868C646.143 384.591 647.402 383.453 648.871 382.536C649.725 381.967 650.607 381.523 651.502 381.093C659.703 377.247 668.953 379.232 671.947 385.604C674.718 391.31 671.485 398.529 664.88 402.749C664.027 403.318 663.271 403.707 662.375 404.151C661.48 404.581 660.682 404.845 659.745 405.151C652.258 407.594 644.575 405.387 641.791 399.681C639.901 395.308 641.259 390.005 644.925 385.882L644.939 385.868Z" fill="#FFCB9D" style="fill: #FFCB9D; fill: var(--tblr-illustrations-skin, #FFCB9D);"/>
    <path d="M644.949 386.384C646.156 385.139 647.419 384.029 648.892 383.135C653.76 390.04 659.133 396.66 664.941 402.833C664.086 403.388 663.328 403.767 662.43 404.2C661.532 404.633 660.733 404.877 659.793 405.175C652.287 407.558 644.585 405.405 641.793 399.841C639.899 395.577 641.26 390.405 644.935 386.384H644.949Z" fill="black" opacity="0.1"/>
    <path d="M565.77 383.228C569.973 402.282 569.378 409.111 574.839 426.649C577.397 434.885 578.683 438.996 580.397 440.758C595.495 456.329 651.268 426.075 667.941 416.664C659.577 404.276 651.199 391.887 642.834 379.485C636.695 384.758 630.363 390.071 623.838 395.411C618.058 400.137 612.335 404.727 606.666 409.166C604.094 345.352 594.873 328.907 586.107 327.268C577.01 325.547 562.604 340.804 560.157 357.508C559.203 363.983 561.484 363.792 565.77 383.228Z" fill="#1a3263" style="fill: #1a3263; fill: var(--tblr-illustrations-primary, var(--tblr-primary, #1a3263));"/>
    <path d="M536.289 385.389C537.989 384.816 539.661 384.38 541.432 384.23C542.475 384.107 543.49 384.134 544.504 384.148C553.762 384.461 561.219 390.325 560.933 397.211C560.762 403.429 554.419 408.297 546.433 409.02C545.39 409.143 544.518 409.143 543.504 409.129C542.489 409.116 541.632 408.979 540.646 408.829C532.703 407.616 526.76 402.257 526.946 396.039C527.289 391.375 531.017 387.366 536.303 385.389H536.289Z" fill="#FFCB9D" style="fill: #FFCB9D; fill: var(--tblr-illustrations-skin, #FFCB9D);"/>
    <path d="M536.533 385.299C538.278 384.724 539.993 384.286 541.811 384.135C542.91 392.526 544.611 400.862 546.941 409.02C545.871 409.143 544.977 409.143 543.936 409.129C542.895 409.116 542.016 408.979 541.004 408.828C532.854 407.61 526.755 402.231 526.946 395.989C527.298 391.308 531.124 387.283 536.548 385.299H536.533Z" fill="black" opacity="0.1"/>
    <path d="M454.181 404.485C455.981 410.597 462.702 414.753 471.782 417.569C493.473 424.282 528.58 423.298 541.941 422.724C540.264 407.917 538.601 393.097 536.938 378.277C529.139 380.177 521.164 382.036 513.011 383.827C505.785 385.413 498.668 386.89 491.674 388.284C518.614 330.357 518.055 311.544 511.129 306.103C510.87 305.898 510.57 305.706 510.27 305.529C508.511 304.503 506.221 304.052 503.59 304.148C500.345 304.271 497.904 305.009 497.359 305.187C487.052 308.523 481.885 310.191 478.258 314.552C475.79 317.519 474.7 320.581 473.105 325.079C472.355 327.185 471.959 328.743 470.528 334.718C468.96 341.267 468.265 344.562 467.706 346.667C462.661 365.534 459.021 371.331 455.79 389.405C454.263 397.882 453.513 402.134 454.195 404.472L454.181 404.485Z" fill="#1a3263" style="fill: #1a3263; fill: var(--tblr-illustrations-primary, var(--tblr-primary, #1a3263));"/>
    <path d="M363.565 129.135C363.319 128.779 338.481 93.0569 299.941 77.7122L300.555 76.1353C339.585 91.6719 364.696 127.805 364.941 128.175L363.551 129.135H363.565Z" fill="#0b1b3b" class="tblr-illustrations tblr-illustrations-vocate tblr-illustrations-bees-c"/>
    <path d="M306.466 80.3691C306.466 80.3691 306.559 80.2841 306.611 80.2558C309.173 78.3296 309.582 73.5849 308.037 68.0047C307.456 65.8377 306.559 63.5008 305.37 61.1922C304.935 60.3 304.42 59.3935 303.891 58.5012C298.359 49.2527 290.543 44.069 286.423 46.9158C284.588 48.1905 283.782 50.8107 283.967 54.1673C284.02 55.2296 284.192 56.3768 284.429 57.5665C284.482 57.8356 284.548 58.1047 284.601 58.3738C284.707 58.7278 284.799 59.0961 284.905 59.4643C285.42 61.3197 286.146 63.26 287.083 65.2146C287.638 66.3901 288.258 67.5798 288.971 68.7837C289.5 69.6759 290.054 70.4974 290.595 71.2764C295.956 78.9244 302.716 82.9326 306.44 80.3549L306.466 80.3691Z" fill="#DADCE0"/>
    <path d="M297.631 88.5968C303.211 86.8704 306.922 83.8859 306.935 80.6203C306.935 80.5668 306.949 80.4999 306.935 80.4464C306.759 75.9629 299.662 72.4832 290.52 72.1353C289.545 72.1353 288.583 72.1353 287.608 72.1353C283.085 72.2959 278.954 73.2059 275.73 74.571C275.094 74.8387 274.525 75.1198 273.97 75.4142C270.76 77.1407 268.85 79.4024 268.945 81.7981C269.134 86.7767 277.789 90.4839 288.272 90.1092C289.491 90.069 290.669 89.9619 291.807 89.8281C293.893 89.5738 295.856 89.1456 297.631 88.5968Z" fill="#A6A9B3"/>
    <path d="M297.355 88.1353H297.369C302.891 86.3362 306.563 83.2263 306.576 79.8235C309.176 77.9269 309.592 73.255 308.024 67.7604C305.142 63.8555 300.612 59.2534 293.991 56.4921C290.051 54.8465 286.406 54.2747 283.591 54.1353C283.645 55.1812 283.819 56.3108 284.06 57.4823C284.114 57.7472 284.181 58.0122 284.234 58.2772C284.342 58.6258 284.436 58.9884 284.543 59.351C285.119 61.1779 285.829 63.0885 286.754 65.013C287.317 66.1705 287.947 67.342 288.671 68.5274C289.207 69.406 289.77 70.2148 290.319 70.9818C289.354 70.9818 288.403 70.9818 287.438 70.9818C282.961 71.1492 278.874 72.0975 275.684 73.52C275.054 73.7989 274.491 74.0918 273.941 74.3986C275.697 77.132 278.498 80.5627 282.693 83.3518C287.907 86.7965 293.214 87.9121 297.342 88.1213L297.355 88.1353Z" fill="black" opacity="0.1"/>
    <path d="M307.761 80.2754C310.119 75.7661 304.392 68.1176 294.971 63.1923C285.55 58.2669 276.001 57.9296 273.644 62.439C271.286 66.9484 277.013 74.5968 286.434 79.5222C295.855 84.4476 305.404 84.7848 307.761 80.2754Z" fill="#1a3263" style="fill: #1a3263; fill: var(--tblr-illustrations-primary, var(--tblr-primary, #1a3263));"/>
    <path d="M344.941 96.1352C344.941 104.971 337.36 112.135 328.005 112.135C322.783 112.135 318.092 109.902 314.978 106.354C314.81 105.026 314.601 103.724 314.378 102.396C312.8 93.9435 315.634 86.1215 320.758 81.6832C322.964 80.6969 325.408 80.1353 328.005 80.1353C337.36 80.1353 344.941 87.2996 344.941 96.1352Z" fill="black" opacity="0.1"/>
    <path d="M332.441 107.135C341.554 107.135 348.941 99.9718 348.941 91.1353C348.941 82.2987 341.554 75.1353 332.441 75.1353C323.329 75.1353 315.941 82.2987 315.941 91.1353C315.941 99.9718 323.329 107.135 332.441 107.135Z" fill="#FFCB9D" style="fill: #FFCB9D; fill: var(--tblr-illustrations-skin, #FFCB9D);"/>
    <path d="M223.211 181.477C218.506 181.164 213.291 181.028 207.649 181.232C201.896 181.436 196.625 181.954 191.88 182.622C191.673 183.139 191.41 183.888 191.217 184.815C191.217 184.815 190.941 186.218 190.941 187.662C190.997 199.049 204.917 208.203 222.065 208.135C239.214 208.067 252.996 198.79 252.941 187.403C252.941 186.803 252.872 186.204 252.748 185.605C248.237 184.597 243.325 183.684 238.069 182.949C232.799 182.213 227.832 181.736 223.211 181.464V181.477Z" fill="#FFCB9D" style="fill: #FFCB9D; fill: var(--tblr-illustrations-skin, #FFCB9D);"/>
</svg>
