<svg xmlns="http://www.w3.org/2000/svg" width="800" height="600" fill="none" viewBox="0 0 800 600">
    <style>
        :where(.theme-dark, [data-theme="dark"]) .tblr-illustrations-butterflies-a { fill: black; opacity: 0.07; } :where(.theme-dark, [data-theme="dark"]) .tblr-illustrations-butterflies-b { fill: black; opacity: 0.3; } :where(.theme-dark, [data-theme="dark"]) .tblr-illustrations-butterflies-c { fill: #24304d; }
        @media (prefers-color-scheme: dark) { .tblr-illustrations-butterflies-a { fill: black; opacity: 0.07; } .tblr-illustrations-butterflies-b { fill: black; opacity: 0.3; } .tblr-illustrations-butterflies-c { fill: #24304d; } }
    </style>
    <path d="M142.036 332.063C142.036 374 186.609 404.402 206.187 438.352C226.637 473.383 231.396 526.754 266.552 546.905C300.521 566.527 348.994 544.527 391.08 544.527C433.166 544.527 481.627 566.414 515.609 546.905C550.663 526.641 555.523 473.27 575.872 438.352C595.564 404.503 640.023 373.987 640.023 332.063C640.023 290.139 595.564 259.724 575.872 225.775C555.536 190.844 550.663 137.373 515.609 117.222C481.526 97.5993 433.166 119.599 391.08 119.599C348.994 119.599 300.534 97.6119 266.552 117.121C231.497 137.385 226.637 190.756 206.288 225.674C186.596 259.737 142.137 290.139 142.023 332.076" fill="#1a3263" style="fill: #1a3263; fill: var(--tblr-illustrations-primary, var(--tblr-primary, #1a3263));" opacity="0.02" class="tblr-illustrations tblr-illustrations-vocate tblr-illustrations-butterflies-a"/>
    <path d="M153.023 531.049C153.023 534.342 264.481 537.049 401.523 537.049C538.566 537.049 650.023 534.342 650.023 531.049C650.023 527.756 538.881 525.049 401.523 525.049C264.166 525.049 153.023 527.756 153.023 531.049Z" fill="#d9e2f3" opacity="0.5" class="tblr-illustrations tblr-illustrations-vocate tblr-illustrations-butterflies-b"/>
    <path d="M404.328 46.0493C386.654 47.7896 369.056 50.4757 351.661 54.0697C331.997 58.1303 311.029 64.3726 299.12 80.4638C289.542 93.4023 287.54 110.528 278.937 124.122C269.739 138.649 253.991 147.641 238.484 155.169C222.976 162.698 206.658 169.621 194.444 181.752C182.231 193.884 175.034 212.964 182.218 228.588C188.566 242.397 205.315 254.037 200.678 268.501C197.092 279.674 183.219 282.89 171.981 286.433C160.743 289.99 148.238 300.444 153.103 311.125C156.271 318.073 164.975 320.179 172.539 321.453C188.198 324.076 204.276 326.712 219.872 323.723C235.468 320.734 250.748 310.885 255.575 295.816C261.707 276.647 249.911 254.276 258.907 236.256C269.955 214.124 302.756 214.969 321.38 198.625C334.253 187.326 339.333 168.549 353.624 159.078C362.582 153.139 373.858 151.853 384.614 152.017C400.818 152.269 416.959 155.459 432.023 161.386" fill="#DADCE0"/>
    <path d="M448.244 200.107C447.168 198.93 446.274 197.6 445.574 196.169C443.033 191.105 443.591 185.736 447.427 182.875C452.326 179.292 460.544 181.14 465.806 187.041C466.376 187.661 466.908 188.319 467.4 189.016C471.107 194.536 470.926 200.993 466.597 204.159C461.788 207.83 453.597 205.982 448.244 200.107Z" fill="#FFCB9D" style="fill: #FFCB9D; fill: var(--tblr-illustrations-skin, #FFCB9D);"/>
    <path d="M449.531 200.42C448.521 199.31 447.681 198.057 447.023 196.708C447.535 196.386 447.985 196.124 448.484 195.861C454.985 192.329 459.051 193.236 466.598 190.467C466.927 190.348 467.256 190.204 467.56 190.049C471.041 195.252 470.871 201.339 466.805 204.322C462.252 207.711 454.547 205.957 449.531 200.42Z" fill="black" opacity="0.1"/>
    <path d="M411.026 284.575C418.2 282.143 444.119 272.529 454.057 250.416C455.113 248.072 457.173 243.372 457.751 236.833C459.171 220.679 450.137 208.356 446.858 204.286C458.04 198.541 469.222 192.795 480.404 187.049C496.197 221.259 496.285 257.094 478.243 279.422C475.906 282.32 461.206 300.502 439.848 301.043C438.817 301.069 416.717 301.409 411.956 289.804C411.403 288.443 410.988 286.73 411.026 284.588V284.575Z" fill="#DADCE0"/>
    <path d="M379.027 282.063C379.462 284.698 379.797 287.36 380.023 290.049C379.552 289.07 379.253 287.953 379.127 286.753C379.018 285.167 379.018 283.663 379.027 282.049V282.063Z" fill="black" opacity="0.1"/>
    <path d="M438.023 286.597L433.825 311.9C430.538 326.966 427.187 342.095 423.899 357.199C421.838 366.461 419.814 375.85 417.791 385.049L417.627 384.999L388.796 374.254L377.592 370.072C374.064 368.767 370.562 367.449 367.034 366.144L356.487 362.204L348.116 359.087L344.993 357.921L341.946 356.793C341.288 356.54 340.643 356.312 340.023 356.084C340.883 353.803 341.743 351.522 342.603 349.254C346.118 339.878 349.634 330.489 353.174 321.125C353.073 319.972 353.023 318.793 353.01 317.577C353.01 314.701 353.25 311.951 353.718 309.278C355.577 298.533 360.875 289.612 365.82 283.176L365.984 282.821C367.135 280.388 368.172 277.905 369.221 275.434L366.186 275.472L378.477 258.049C378.616 258.138 378.743 258.163 378.895 258.214C381.12 259.025 382.853 259.316 383.46 259.418C385.445 259.773 386.659 260.723 388.53 261.813C390.794 263.13 397.913 265.779 412.088 271.037C413.58 271.594 414.099 271.785 414.908 272.152C416.35 272.824 417.108 273.343 418.778 273.964C418.778 273.964 419.435 274.243 420.168 274.433C425.656 275.801 430.828 274.205 434.407 272.583C435.608 277.246 436.797 281.909 437.998 286.571L438.023 286.597Z" fill="#DADCE0"/>
    <path d="M419.527 278.595C417.506 283.739 409.437 285.073 405.157 285.049C392.201 285.025 379.232 272.624 381.228 264.589C381.606 263.067 382.478 261.887 383.299 261.049C384.725 261.533 386.897 262.265 389.524 263.15C404.513 268.247 408.112 269.698 409.917 270.453C412.316 271.444 415.802 272.967 419.956 275.031C420.108 276.117 420.019 277.321 419.527 278.595Z" fill="#FFCB9D" style="fill: #FFCB9D; fill: var(--tblr-illustrations-skin, #FFCB9D);"/>
    <path d="M419.527 278.595C417.506 283.739 409.437 285.073 405.157 285.049C392.201 285.025 379.232 272.624 381.228 264.589C381.606 263.067 382.478 261.887 383.299 261.049C384.725 261.533 386.897 262.265 389.524 263.15C404.513 268.247 408.112 269.698 409.917 270.453C412.316 271.444 415.802 272.967 419.956 275.031C420.108 276.117 420.019 277.321 419.527 278.595Z" fill="black" opacity="0.1"/>
    <path d="M448.998 511.049C445.6 510.898 442.214 510.747 438.816 510.596C419.085 476.542 399.342 442.475 379.611 408.421C379.598 408.409 379.598 408.396 379.598 408.396C370.646 425.291 361.694 442.198 352.754 459.093C327.609 458.476 302.464 457.871 277.331 457.253C276.558 454.028 275.784 450.816 275.023 447.603C292.903 442.538 310.807 437.486 328.699 432.422C332.288 406.973 335.851 381.524 339.44 356.049C356.482 362.349 373.512 368.648 390.554 374.935C393.433 376.005 396.324 377.064 399.202 378.122L417.234 384.761C427.822 426.853 438.423 468.932 449.023 511.037L448.998 511.049Z" fill="#1a3263" style="fill: #1a3263; fill: var(--tblr-illustrations-primary, var(--tblr-primary, #1a3263));"/>
    <path d="M423.946 357.341C423.946 357.341 423.604 358.904 423.223 360.592C422.78 362.545 422.069 365.758 420.865 371.214C419.838 375.838 418.824 380.463 417.809 385.024C417.809 385.024 417.809 385.033 417.809 385.049L388.914 374.339L376.374 369.702L367.106 366.287L356.532 362.369L348.138 359.269L344.994 358.11L341.938 356.976L340.023 356.257C340.886 354.002 341.735 351.734 342.597 349.478C346.122 340.154 349.659 330.83 353.197 321.506C353.108 320.359 353.057 319.175 353.045 317.978C353.045 315.117 353.286 312.37 353.755 309.724C353.932 309.611 354.11 309.497 354.287 309.384C366.269 301.685 378.035 292.953 389.459 283.049C417.277 334.975 424.821 353.473 423.959 357.328L423.946 357.341Z" fill="black" opacity="0.1"/>
    <path d="M256.993 447.049L264.379 448.471C264.379 448.471 271.65 448.738 272.93 453.168C274.223 457.599 261.781 470.129 254.023 473.049L260.398 457.891L254.663 455.365L256.98 447.049H256.993Z" fill="#0b1b3b" class="tblr-illustrations tblr-illustrations-vocate tblr-illustrations-butterflies-c"/>
    <path d="M440.87 534.049L439.689 526.913C439.689 526.913 437.465 520.269 441.147 517.624C444.828 514.978 460.684 521.992 466.023 528.008L449.778 527.331L449.376 533.348L440.87 534.049Z" fill="#0b1b3b" class="tblr-illustrations tblr-illustrations-vocate tblr-illustrations-butterflies-c"/>
    <path d="M386.245 284.579C390.016 279.1 393.547 276.596 396.761 277.117C400.457 277.712 402.57 282.075 403.507 284.678C405.823 282.149 410.897 277.488 415.896 278.654C419.933 279.67 422.781 284.455 424.363 292.885C425.109 296.814 425.755 302.269 423.16 304.351C422.351 304.946 421.313 305.132 420.326 304.884C415.985 303.992 409.67 297.36 405.468 292.401C405.81 294.285 406.708 296.046 408.05 297.447C409.113 298.128 409.746 299.281 409.758 300.521C409.834 303.26 407.417 306.149 405.354 308.343L404 306.174C407.075 302.851 407.379 301.401 407.468 300.979C407.417 300.608 407.189 300.285 406.848 300.112C404.329 298.513 403 293.219 402.418 290.108C401.102 291.905 399.976 293.827 399.039 295.847C399.039 296.368 399.052 296.876 399.115 297.385C399.28 299.368 399.571 302.665 397.141 304.314C395.787 305.256 394.028 309.248 392.484 315.049L390.269 314.392C392.142 307.413 394.129 303.174 396.204 301.723C396.926 301.24 396.951 300.186 396.761 298.017C396.66 297.248 396.647 296.467 396.711 295.699C397.242 293.914 398.065 292.24 399.141 290.715C394.534 292.934 388.586 295.352 385.397 294.695C384.524 294.595 383.752 294.1 383.321 293.343C382.208 290.914 384.448 287.195 386.232 284.592L386.245 284.579ZM422.11 301.872C422.135 301.736 423.363 300.645 422.097 293.864C420.743 286.501 418.415 282.348 415.276 281.567L415.048 281.517C411.087 280.711 406.62 285.038 404.734 287.108C411.593 295.686 419.997 303.533 422.11 301.86V301.872ZM385.485 291.471C386.257 292.922 393.724 290.517 401.482 286.451C400.76 284.406 399.115 280.625 396.369 280.054L396.204 280.017C393.914 279.67 391.104 281.79 387.903 286.364C385.131 290.405 385.473 291.459 385.473 291.459L385.485 291.471Z" fill="#1a3263" style="fill: #1a3263; fill: var(--tblr-illustrations-primary, var(--tblr-primary, #1a3263));"/>
    <path d="M441.14 156.171C442.729 155.684 444.413 156.577 444.901 158.166L513.901 383.166C514.388 384.756 513.495 386.44 511.906 386.927C510.316 387.414 508.632 386.521 508.145 384.932L439.145 159.932C438.657 158.343 439.551 156.659 441.14 156.171Z" fill="#0b1b3b" class="tblr-illustrations tblr-illustrations-vocate tblr-illustrations-butterflies-c"/>
    <path d="M470.317 297.74C470.597 296.042 471.117 294.383 471.867 292.841C474.433 287.269 479.286 284.081 484.178 285.312C490.377 286.945 494.189 295.044 492.702 303.442C492.562 304.349 492.359 305.23 492.092 306.111C489.894 312.966 484.393 317.217 478.918 315.765C472.706 314.275 468.907 306.189 470.317 297.74Z" fill="#FFCB9D" style="fill: #FFCB9D; fill: var(--tblr-illustrations-skin, #FFCB9D);"/>
    <path d="M470.304 298.675C470.583 297.072 471.103 295.505 471.852 294.049C472.486 294.257 473.032 294.465 473.628 294.698C481.265 297.72 483.282 301.746 490.983 306.151C491.326 306.347 491.668 306.518 492.023 306.665C489.829 313.138 484.335 317.152 478.867 315.781C472.702 314.288 468.909 306.653 470.317 298.662L470.304 298.675Z" fill="black" opacity="0.1"/>
    <path d="M510.023 325.204C501.797 332.129 488.849 341.383 471.078 348.207C462.776 351.413 454.954 353.479 447.967 354.832C442.968 355.796 438.424 356.384 434.424 356.76H434.412C425.565 357.599 416.819 356.622 408.681 353.705C386.531 345.791 375.925 326.018 372.837 319.632C367.521 307.147 367.673 295.264 373.862 289.679C374.963 288.702 376.444 287.738 378.469 287.049C379.772 288.99 401.909 321.047 427.4 318.204C433.906 317.478 440.791 314.46 441.879 313.984C455.093 308.137 462.877 298.682 466.585 293.411C470.167 297.042 474.154 300.749 478.597 304.455C483.659 308.688 488.722 312.407 493.62 315.625C499.341 319.419 504.859 322.575 510.011 325.217L510.023 325.204Z" fill="#DADCE0"/>
    <path d="M416.761 246.077C405.548 251.155 391.492 252.024 384.982 250.121C383.885 249.869 382.874 249.353 382.026 248.609C381.066 247.639 380.143 246.518 379.245 245.472C377.985 243.96 376.775 242.322 375.665 240.671C372.697 236.387 370.115 231.838 367.958 227.075C367.796 226.697 367.284 225.513 366.686 224.164C364.166 218.078 362.283 213.114 361.023 209.623C361.46 210.052 363.605 211.98 364.915 211.299C366.237 210.632 366.399 207.066 364.615 202.693L390.931 194.049L405 200.022C405 200.022 405.835 201.446 407.282 203.563C409.714 207.28 412.395 210.833 415.326 214.172C417.422 216.781 419.966 218.973 422.847 220.649C430.804 224.593 430.193 240.016 416.761 246.064V246.077Z" fill="#FFCB9D" style="fill: #FFCB9D; fill: var(--tblr-illustrations-skin, #FFCB9D);"/>
    <path d="M415.023 214.475C406.212 221.398 395.414 225.133 384.306 225.082C381.861 226.301 379.789 228.169 378.299 230.506C376.165 234.037 376.984 236.4 375.706 240.643L375.594 241.049C372.64 236.73 370.071 232.145 367.924 227.343C367.763 226.962 367.254 225.768 366.658 224.409C364.151 218.273 362.277 213.269 361.023 209.75C361.458 210.182 363.592 212.125 364.896 211.439C366.211 210.766 366.373 207.171 364.598 202.763L390.785 194.049L404.784 200.07C404.784 200.07 405.616 201.506 407.056 203.64C409.451 207.438 412.107 211.046 414.999 214.463L415.023 214.475Z" fill="black" opacity="0.1"/>
    <path d="M274.023 346.562C281.655 348.607 289.501 349.756 297.398 349.996C309.987 350.413 322.539 348.38 334.346 344.012C334.346 344.012 369.149 334.316 386.86 306.679C388.928 303.573 390.631 300.253 391.956 296.768C397.33 282.502 397.62 260.661 387.011 248.843C382.596 243.92 378.61 238.617 375.09 232.999C373.614 230.512 372.58 227.797 372.025 224.957C371.949 224.338 371.874 223.669 371.785 223.012C371.508 220.727 373.917 217.179 374.069 213.442C380.06 214.667 401.909 218.126 411.609 205.64C413.817 202.825 415.305 199.492 415.911 195.969C416.176 194.277 415.974 192.535 415.305 190.957C412.316 184.518 401.581 184.19 397.09 184.064C379.695 183.571 366.954 195.868 363.624 199.113C362.186 200.476 340.211 222.368 346.203 244.058C349.395 255.636 358.528 258.085 357.632 263.463C356.56 269.586 343.302 276.278 285.238 277.25C290.107 292.918 288.379 303.207 285.717 310.012C283.648 315.189 280.469 319.595 277.909 327.22C277.354 328.773 276.836 330.44 276.382 332.232C275.121 336.916 274.326 341.714 274.023 346.549V346.562Z" fill="#0b1b3b" class="tblr-illustrations tblr-illustrations-vocate tblr-illustrations-butterflies-c"/>
    <path d="M545.855 104.962C545.855 104.962 545.478 105.309 544.723 105.939C543.969 106.569 542.837 107.508 541.354 108.665C537.67 111.546 531.798 115.88 523.889 120.844C509.618 129.807 503.557 118.722 509.002 103.058C509.316 102.158 509.681 101.335 510.096 100.589C516.835 88.2178 535.834 94.7635 536.098 94.905L542.196 95.4966L549.023 96.1524L547.313 100.924L546.961 101.927L545.868 104.949L545.855 104.962Z" fill="#1a3263" style="fill: #1a3263; fill: var(--tblr-illustrations-primary, var(--tblr-primary, #1a3263));"/>
    <path d="M547.023 102.408C546.582 102.177 526.774 92.245 518.118 100.013C509.462 107.781 504.38 123.061 543.423 106.954L547.023 102.408Z" fill="#DADCE0"/>
    <path d="M543.329 110.036C542.855 109.644 542.368 109.278 541.881 108.925C531.39 101.277 517.427 100.401 510.023 100.715C516.889 88.1374 536.245 94.792 536.514 94.9359L542.727 95.5373C545.289 97.9298 547.466 100.126 547.927 101.068C548.03 101.264 548.056 101.407 547.979 101.486C547.876 101.604 547.735 101.813 547.556 102.087C546.98 102.989 546.109 104.611 545.301 106.166C544.251 108.18 543.316 110.049 543.316 110.049L543.329 110.036Z" fill="black" opacity="0.1"/>
    <path d="M547.28 101.049C546.52 100.999 545.886 100.687 545.062 100.386C544.897 100.324 544.733 100.261 544.568 100.199C544.365 100.124 544.175 100.036 543.959 99.9609C538.978 98.0092 531.615 94.8691 526.507 92.1293C520.347 88.6638 510.892 84.0349 512.135 75.9656C512.971 71.2115 516.849 68.6469 519.701 64.2681C521.666 61.3282 523.072 57.8377 523.098 54.2972C523.161 51.4823 522.325 48.8426 521.653 46.1153C520.664 42.4997 520.461 37.6956 525.037 37.0701C529.283 36.7198 532.439 40.8733 534.885 44.026C537.432 47.4914 539.663 51.3197 541.678 55.1229C542.502 56.6742 543.3 58.2255 544.073 59.7518C546.976 65.6318 549.13 72.2374 550.385 78.6053C551.323 83.2092 551.767 87.075 551.969 89.1142C552.071 90.1276 552.046 90.9533 551.754 91.9666V91.9917C551.31 93.4179 550.715 95.1568 550.094 96.7457C549.675 97.8466 549.245 98.8725 548.852 99.6857C548.522 100.311 548.091 101.049 547.293 101.049H547.28Z" fill="#1a3263" style="fill: #1a3263; fill: var(--tblr-illustrations-primary, var(--tblr-primary, #1a3263));"/>
    <path d="M552.023 93.5577C551.851 92.224 541.475 57.862 536.947 53.4457C532.419 49.0293 531.604 55.786 528.347 63.9644C525.09 72.1428 520.599 70.9601 520.031 79.3398C519.476 87.7195 548.47 98.4647 548.816 98.0369C549.161 97.6091 552.023 93.5577 552.023 93.5577Z" fill="#DADCE0"/>
    <path d="M550.134 96.6022L544.806 100.049L544.597 99.9619C544.512 99.7371 544.426 99.5247 544.352 99.2999C540.237 88.0468 538.265 73.5464 542.025 55.0493C542.821 56.598 543.593 58.1467 544.34 59.6705C547.145 65.5406 549.227 72.1351 550.44 78.4923C551.347 83.0885 551.775 86.9477 551.971 88.9835C552.069 89.9952 552.045 90.8195 551.763 91.8312V91.8561C551.334 93.28 550.759 95.016 550.158 96.6022H550.134Z" fill="black" opacity="0.1"/>
    <path d="M547.709 105.55C547.709 105.55 547.645 106.055 547.557 107.028C547.468 108 547.354 109.452 547.266 111.334C547.026 115.981 546.848 123.254 547.316 132.561C548.164 149.356 560.597 148.232 570.21 135.024C570.767 134.253 571.222 133.496 571.601 132.751C577.812 120.3 561.685 108.189 561.419 108.063L557.473 103.34L553.059 98.0493L550.162 102.115L549.555 102.962L547.721 105.55H547.709Z" fill="#1a3263" style="fill: #1a3263; fill: var(--tblr-illustrations-primary, var(--tblr-primary, #1a3263));"/>
    <path d="M548.945 103.049C549.387 103.269 568.789 113.544 566.893 125.291C564.997 137.037 554.67 150.372 547.023 108.729L548.945 103.049Z" fill="#DADCE0"/>
    <path d="M546.023 110.526C546.583 110.699 547.143 110.884 547.69 111.082C559.459 115.347 567.806 125.992 571.625 132.049C577.733 119.86 561.872 108.004 561.611 107.88L557.729 103.257C554.458 102.49 551.522 101.934 550.539 102.07C550.328 102.095 550.203 102.156 550.178 102.243C550.141 102.391 550.054 102.614 549.93 102.898C549.532 103.838 548.735 105.395 547.977 106.867C546.981 108.77 546.023 110.526 546.023 110.526Z" fill="black" opacity="0.1"/>
    <path d="M550.228 102.715C550.699 103.317 551.321 103.662 552.046 104.187C552.198 104.289 552.338 104.379 552.491 104.494C552.669 104.622 552.847 104.737 553.037 104.865C557.499 107.886 564.299 112.2 569.497 114.875C575.903 118.011 585.144 123.196 591.181 117.499C594.689 114.056 594.651 109.333 596.697 104.43C598.045 101.089 600.18 97.902 603.129 95.8283C605.455 94.1514 608.137 93.3066 610.806 92.2954C614.39 91.0281 618.534 88.4168 616.475 84.2439C614.365 80.5062 609.09 80.2886 605.061 80.0709C600.714 79.9557 596.24 80.3142 591.906 80.8262C590.139 81.031 588.385 81.2742 586.682 81.5046C580.098 82.4902 573.361 84.5127 567.298 87.1496C562.9 89.0313 559.418 90.9001 557.6 91.9114C556.698 92.4106 556.011 92.9098 555.338 93.7418L555.312 93.7674C554.359 94.9578 553.241 96.4683 552.262 97.9019C551.576 98.8876 550.965 99.8348 550.495 100.641C550.152 101.281 549.783 102.062 550.228 102.728V102.715Z" fill="#1a3263" style="fill: #1a3263; fill: var(--tblr-illustrations-primary, var(--tblr-primary, #1a3263));"/>
    <path d="M553.829 94.1824C555.011 93.5639 588.959 82.848 595.156 84.1607C601.341 85.4733 596.301 89.9919 591.485 97.3757C586.669 104.76 590.191 107.89 583.682 113.115C577.162 118.341 551.862 99.9632 552.024 99.4331C552.186 98.903 553.841 94.1824 553.841 94.1824H553.829Z" fill="#DADCE0"/>
    <path d="M551.704 97.2426L551.225 102.053C551.162 102.381 551.086 102.709 551.023 103.049C552.234 103.049 553.419 102.989 554.553 102.891C571.673 101.385 584.115 89.4071 591.023 81.0493C589.271 81.2437 587.531 81.4745 585.842 81.6932C579.312 82.6286 572.631 84.5479 566.618 87.0504C562.256 88.8362 558.802 90.6098 556.999 91.5695C556.104 92.0432 555.423 92.517 554.755 93.3066L554.73 93.3309C553.784 94.4607 552.675 95.8942 551.704 97.2547V97.2426Z" fill="black" opacity="0.1"/>
    <path d="M551.531 103.648C557.249 93.8034 560.38 84.949 558.525 83.8711C556.669 82.7933 550.529 89.9002 544.811 99.7449C539.093 109.59 535.961 118.444 537.817 119.522C539.673 120.6 545.813 113.493 551.531 103.648Z" fill="#0b1b3b" class="tblr-illustrations tblr-illustrations-vocate tblr-illustrations-butterflies-c"/>
    <path d="M196.023 403.29C196.023 403.29 195.949 403.644 195.787 404.314C195.613 404.983 195.352 405.981 194.992 407.257C194.072 410.416 192.518 415.305 190.058 421.407C185.633 432.411 177.741 428.747 174.484 417.693C174.298 417.049 174.173 416.442 174.099 415.848C172.906 406.095 186.267 401.787 186.466 401.762L190.145 399.538L194.259 397.049L195.216 400.448L195.414 401.155L196.023 403.303V403.29Z" fill="#1a3263" style="fill: #1a3263; fill: var(--tblr-illustrations-primary, var(--tblr-primary, #1a3263));"/>
    <path d="M196.023 403.049C195.677 403.086 180.696 405.14 179.297 412.91C177.898 420.668 181.637 431.314 195.999 407.025L196.023 403.049Z" fill="#DADCE0"/>
    <path d="M197.023 408.108C196.599 408.095 196.161 408.082 195.736 408.095C186.586 408.2 178.22 413.691 174.102 417.049C172.866 406.884 186.702 402.393 186.907 402.367L190.717 400.049C193.162 400.326 195.325 400.642 195.968 400.984C196.11 401.05 196.174 401.129 196.174 401.195C196.174 401.313 196.174 401.485 196.174 401.722C196.213 402.485 196.38 403.789 196.56 405.027C196.779 406.633 197.023 408.108 197.023 408.108Z" fill="black" opacity="0.1"/>
    <path d="M195.679 401.827C195.237 402.128 194.731 402.207 194.137 402.39C194.024 402.417 193.897 402.456 193.771 402.495C193.619 402.534 193.48 402.574 193.329 402.613C189.677 403.596 184.155 404.892 180.099 405.469C175.133 406.058 167.804 407.368 165.112 402.01C163.583 398.801 164.708 395.605 164.481 391.766C164.354 389.159 163.684 386.474 162.206 384.339C161.056 382.636 159.464 381.404 157.935 380.068C155.85 378.339 153.702 375.549 156.04 373.204C158.302 371.16 161.852 372.287 164.569 373.112C167.475 374.095 170.356 375.405 173.111 376.806C174.236 377.37 175.335 377.959 176.422 378.535C180.554 380.802 184.559 383.815 187.958 387.077C190.435 389.421 192.318 391.544 193.291 392.67C193.771 393.234 194.112 393.744 194.365 394.465V394.491C194.731 395.539 195.123 396.836 195.439 398.041C195.666 398.88 195.856 399.679 195.969 400.334C196.045 400.858 196.108 401.473 195.666 401.814L195.679 401.827Z" fill="#1a3263" style="fill: #1a3263; fill: var(--tblr-illustrations-primary, var(--tblr-primary, #1a3263));"/>
    <path d="M195.012 395.26C194.361 394.539 174.073 378.723 169.614 378.107C165.156 377.491 167.485 381.871 169 388.179C170.516 394.487 167.423 395.785 170.579 401.017C173.734 406.25 194.987 399.772 195.012 399.365C195.037 398.959 195.012 395.273 195.012 395.273V395.26Z" fill="#DADCE0"/>
    <path d="M196.023 397.681C195.685 398.853 195.19 400.101 194.501 401.387C194.383 401.616 194.253 401.833 194.123 402.049C193.98 401.986 193.837 401.909 193.694 401.846C186.756 398.483 178.803 391.657 173.023 377.049C174.182 377.597 175.314 378.17 176.434 378.73C180.69 380.934 184.816 383.863 188.318 387.034C190.869 389.314 192.808 391.377 193.811 392.472C194.305 393.02 194.657 393.516 194.917 394.217V394.242C195.295 395.261 195.698 396.522 196.023 397.694V397.681Z" fill="black" opacity="0.1"/>
    <path d="M198.111 403.651C198.111 403.651 198.286 403.971 198.637 404.572C199 405.174 199.526 406.057 200.253 407.182C202.044 409.972 204.95 414.245 209.07 419.427C216.498 428.779 223.061 422.881 223.023 411.187C223.023 410.509 222.961 409.882 222.86 409.281C221.22 399.467 207.092 399.276 206.891 399.301L202.708 398.239L198.023 397.049L198.074 400.632V401.387L198.111 403.651Z" fill="#1a3263" style="fill: #1a3263; fill: var(--tblr-illustrations-primary, var(--tblr-primary, #1a3263));"/>
    <path d="M198.023 402.473C198.347 402.408 212.817 399.97 216.339 407.557C219.86 415.143 219.453 427.266 199.185 406.566L198.023 402.473Z" fill="#DADCE0"/>
    <path d="M198.199 407.341C198.617 407.201 199.022 407.074 199.44 406.959C208.364 404.435 218.072 407.125 223.023 409.049C221.312 399.273 206.574 399.082 206.365 399.107L202.001 398.049C199.702 399.005 197.703 399.923 197.167 400.42C197.049 400.522 196.997 400.611 197.036 400.675C197.076 400.777 197.128 400.943 197.18 401.159C197.363 401.886 197.572 403.135 197.755 404.333C198.003 405.888 198.199 407.316 198.199 407.316V407.341Z" fill="black" opacity="0.1"/>
    <path d="M197.865 401.953C198.375 402.107 198.86 402.03 199.469 402.03C199.593 402.03 199.717 402.03 199.841 402.03C199.991 402.03 200.14 402.017 200.301 402.017C204.017 401.863 209.56 401.464 213.537 400.796C218.371 399.883 225.629 398.958 226.698 393.148C227.257 389.69 225.319 387.003 224.473 383.34C223.877 380.859 223.765 378.134 224.573 375.691C225.194 373.75 226.35 372.131 227.419 370.434C228.91 368.197 230.165 364.945 227.319 363.428C224.623 362.182 221.59 364.277 219.266 365.858C216.793 367.632 214.444 369.714 212.232 371.848C211.325 372.709 210.455 373.583 209.597 374.445C206.329 377.787 203.383 381.797 201.072 385.859C199.382 388.79 198.188 391.335 197.592 392.685C197.294 393.353 197.107 393.932 197.07 394.69V394.716C197.02 395.796 197.008 397.133 197.045 398.367C197.07 399.215 197.107 400.025 197.169 400.68C197.244 401.195 197.356 401.799 197.865 401.979V401.953Z" fill="#1a3263" style="fill: #1a3263; fill: var(--tblr-illustrations-primary, var(--tblr-primary, #1a3263));"/>
    <path d="M196.023 394.242C196.459 393.399 211.863 373.289 216.054 371.455C220.245 369.621 219.194 374.255 219.501 380.389C219.809 386.522 223.205 386.807 221.59 392.445C219.975 398.083 197.331 398.306 197.19 397.935C197.049 397.563 196.036 394.242 196.036 394.242H196.023Z" fill="#DADCE0"/>
    <path d="M197.045 398.263C197.609 399.358 198.173 400.453 198.736 401.535C198.932 401.706 199.116 401.878 199.312 402.049C199.545 401.838 199.778 401.627 200.011 401.403C204.779 396.878 210.761 388.238 212.023 371.049C211.129 371.933 210.271 372.83 209.425 373.714C206.201 377.144 203.296 381.26 201.016 385.428C199.349 388.436 198.173 391.048 197.584 392.433C197.29 393.119 197.106 393.712 197.069 394.491V394.517C197.02 395.625 197.008 396.997 197.045 398.263Z" fill="black" opacity="0.1"/>
    <path d="M197.783 415.835C199.293 415.675 199.83 409.058 198.982 401.055C198.134 393.052 196.222 386.695 194.711 386.855C193.201 387.015 192.664 393.632 193.512 401.635C194.36 409.637 196.273 415.995 197.783 415.835Z" fill="#0b1b3b" class="tblr-illustrations tblr-illustrations-vocate tblr-illustrations-butterflies-c"/>
    <path d="M578.932 228.538C578.932 228.538 578.957 228.897 578.983 229.589C579.008 230.281 579.033 231.307 579.02 232.63C579.02 235.918 578.845 241.036 578.143 247.576C576.876 259.369 568.051 258.096 561.72 248.416C561.356 247.86 561.055 247.304 560.817 246.76C556.881 237.748 568.853 229.848 569.054 229.774L572.05 226.597L575.41 223.049L577.315 226.029L577.716 226.647L578.92 228.538H578.932Z" fill="#DADCE0"/>
    <path d="M577.859 226.049C577.53 226.191 563.154 232.781 564.065 241.292C564.976 249.816 571.886 259.81 579.023 230.202L577.859 226.049Z" fill="#1a3263" style="fill: #1a3263; fill: var(--tblr-illustrations-primary, var(--tblr-primary, #1a3263));"/>
    <path d="M580.023 231.726C579.614 231.831 579.205 231.949 578.809 232.079C570.205 234.83 563.784 242.596 560.808 247.049C556.916 237.502 568.755 229.133 568.953 229.054L571.916 225.688C574.296 225.243 576.416 224.942 577.123 225.086C577.271 225.112 577.358 225.164 577.371 225.243C577.395 225.361 577.445 225.531 577.519 225.754C577.767 226.487 578.276 227.705 578.759 228.871C579.404 230.364 580.011 231.739 580.011 231.739L580.023 231.726Z" fill="black" opacity="0.1"/>
    <path d="M577.857 226.185C577.505 226.586 577.041 226.811 576.501 227.15C576.388 227.212 576.287 227.275 576.174 227.35C576.049 227.425 575.91 227.501 575.772 227.588C572.482 229.543 567.484 232.313 563.678 233.98C559.007 235.935 552.238 239.231 548.169 234.97C545.808 232.401 546.021 229.08 544.766 225.545C543.937 223.139 542.543 220.821 540.533 219.229C538.951 217.963 537.067 217.261 535.221 216.434C532.722 215.406 529.871 213.401 531.504 210.544C533.149 207.987 536.904 208.049 539.78 208.049C542.882 208.15 546.034 208.563 549.098 209.102C550.341 209.315 551.585 209.553 552.79 209.792C557.424 210.744 562.146 212.436 566.341 214.529C569.393 216.033 571.791 217.474 573.047 218.264C573.675 218.652 574.14 219.028 574.579 219.642H574.592C575.22 220.545 575.961 221.635 576.601 222.688C577.053 223.415 577.455 224.104 577.744 224.681C577.957 225.144 578.196 225.708 577.844 226.16L577.857 226.185Z" fill="#DADCE0"/>
    <path d="M574.914 219.914C574.07 219.425 549.771 210.397 545.208 211.087C540.646 211.777 544.15 215.212 547.364 220.679C550.577 226.146 547.88 228.24 552.417 232.24C556.955 236.24 576.124 224.128 576.023 223.739C575.922 223.35 574.901 219.914 574.901 219.914H574.914Z" fill="#1a3263" style="fill: #1a3263; fill: var(--tblr-illustrations-primary, var(--tblr-primary, #1a3263));"/>
    <path d="M576.023 222.401L575.604 226.963C575.604 226.963 575.506 227.025 575.469 227.049C575.234 227 575 226.938 574.766 226.889C567.381 225.114 558.159 220.54 549.023 209.049C550.244 209.259 551.465 209.493 552.648 209.727C557.197 210.664 561.833 212.329 565.951 214.388C568.947 215.867 571.302 217.285 572.534 218.062C573.151 218.444 573.607 218.814 574.039 219.418H574.051C574.667 220.305 575.395 221.378 576.023 222.414V222.401Z" fill="black" opacity="0.1"/>
    <path d="M580.002 227.544C580.002 227.544 580.27 227.793 580.78 228.265C581.304 228.737 582.095 229.421 583.129 230.291C585.707 232.442 589.816 235.686 595.394 239.452C605.451 246.251 610.326 238.781 606.97 227.681C606.778 227.047 606.536 226.45 606.268 225.916C601.839 217.041 587.71 220.844 587.506 220.944L583.026 221.105L578.023 221.292L579.083 224.685L579.3 225.394L579.976 227.544H580.002Z" fill="#DADCE0"/>
    <path d="M580.023 226.291C580.337 226.128 594.505 219.537 600.203 225.627C605.887 231.717 608.786 243.247 582.345 229.8L580.036 226.291H580.023Z" fill="#1a3263" style="fill: #1a3263; fill: var(--tblr-illustrations-primary, var(--tblr-primary, #1a3263));"/>
    <path d="M582.02 230.049C582.374 229.822 582.728 229.607 583.095 229.414C590.83 225.009 600.778 224.953 606.023 225.407C601.637 217.302 587.645 220.775 587.443 220.866L583.006 221.014C581.097 222.41 579.467 223.704 579.1 224.283C579.024 224.408 578.999 224.487 579.05 224.544C579.113 224.623 579.214 224.76 579.328 224.93C579.707 225.52 580.263 226.564 580.769 227.552C581.439 228.846 582.033 230.049 582.033 230.049H582.02Z" fill="black" opacity="0.1"/>
    <path d="M578.969 225.037C579.508 225.037 579.973 224.82 580.575 224.642C580.688 224.604 580.813 224.565 580.939 224.527C581.089 224.476 581.227 224.425 581.378 224.387C585.004 223.151 590.374 221.152 594.113 219.356C598.642 217.063 605.556 214.057 604.991 208.096C604.589 204.58 601.929 202.542 600.073 199.23C598.793 197.001 597.94 194.39 598.053 191.792C598.128 189.728 598.818 187.83 599.408 185.856C600.261 183.257 600.6 179.742 597.362 179.092C594.351 178.659 591.942 181.589 590.073 183.792C588.128 186.238 586.384 188.938 584.791 191.652C584.138 192.747 583.511 193.855 582.909 194.938C580.613 199.128 578.806 203.88 577.652 208.491C576.798 211.828 576.322 214.643 576.108 216.12C575.995 216.859 575.983 217.47 576.146 218.209V218.235C576.409 219.305 576.761 220.591 577.137 221.789C577.388 222.616 577.652 223.381 577.903 223.992C578.116 224.463 578.392 225.024 578.956 225.049L578.969 225.037Z" fill="#DADCE0"/>
    <path d="M576.023 219.639C576.199 218.668 585.179 194.01 588.67 190.969C592.161 187.928 592.488 192.898 594.548 199.005C596.607 205.112 599.948 204.435 600.023 210.58C600.099 216.726 578.447 223.37 578.209 223.037C577.97 222.705 576.036 219.639 576.036 219.639H576.023Z" fill="#1a3263" style="fill: #1a3263; fill: var(--tblr-illustrations-primary, var(--tblr-primary, #1a3263));"/>
    <path d="M577.158 221.269C578.078 222.184 578.986 223.086 579.906 224C580.098 224.012 580.303 224.037 580.494 224.049C580.737 223.852 580.967 223.654 581.197 223.444C589.263 216.018 587.333 201.612 584.955 192.049C584.291 193.112 583.652 194.187 583.038 195.237C580.699 199.302 578.858 203.91 577.682 208.383C576.813 211.62 576.327 214.35 576.11 215.784C575.995 216.5 575.982 217.093 576.148 217.81V217.835C576.417 218.872 576.775 220.12 577.158 221.282V221.269Z" fill="black" opacity="0.1"/>
    <path d="M583.599 239.152C585.031 238.566 583.674 231.938 580.569 224.348C577.463 216.758 573.786 211.08 572.354 211.666C570.922 212.251 572.279 218.879 575.384 226.469C578.489 234.059 582.167 239.738 583.599 239.152Z" fill="#0b1b3b" class="tblr-illustrations tblr-illustrations-vocate tblr-illustrations-butterflies-c"/>
    <path d="M449.011 511.049C445.633 510.899 442.267 510.749 438.889 510.599C419.276 476.821 399.649 443.031 380.036 409.253C380.023 409.24 380.023 409.228 380.023 409.228L390.902 376.049C393.763 377.112 396.637 378.161 399.498 379.211L417.423 385.797C427.948 427.547 438.486 469.286 449.023 511.049H449.011Z" fill="black" opacity="0.1"/>
    <path d="M583.796 502.992C582.201 506.606 580.302 511.152 578.238 516.554C576.808 520.293 575.289 524.474 573.745 529.032C560.984 529.095 548.439 528.969 535.856 528.881C530.046 524.801 500.183 503.42 504.437 491.294C504.538 491.042 506.259 486.295 509.525 485.779C512.057 485.363 514.197 487.693 523.514 494.178C526.159 496.029 526.995 496.444 528.084 496.28C532.641 495.827 535.223 487.164 532.59 482.051C532.02 480.969 531.033 480.137 529.767 479.432C524.843 476.637 515.69 475.692 510.298 468.704C507.551 465.203 506.715 462.357 506.614 460.192C506.551 459.172 506.297 454.362 509.108 452.573C509.374 452.385 509.677 452.259 510.019 452.17C514.614 450.962 524.45 457.799 525.172 458.278C525.944 458.907 526.932 459.222 527.919 459.159C528.944 459.008 529.881 458.542 530.615 457.824C531.046 457.409 531.286 456.754 531.375 455.885V455.847C531.413 455.482 531.438 455.067 531.4 454.613C531.261 447.94 526.185 433.761 531.134 425.349C533.134 421.95 536.856 419.406 540.337 418.474C542.54 417.857 544.642 417.895 546.161 418.701C547.502 419.431 549.946 421.232 549.844 428.397C549.528 445.56 540.667 462.269 543.831 464.649C544.717 465.317 546.161 464.687 547.313 464.234C558.554 459.587 555.959 437.526 564.465 435.725C566.174 435.41 567.934 435.826 569.289 436.909C573.529 440.258 571.884 449.954 568.82 456.351C567.934 458.202 565.339 461.602 560.111 468.364C554.87 475.126 554.414 475.39 553.845 477.141C551.034 484.922 555.085 494.769 559.022 495.701C561.237 496.217 564.301 493.598 568.339 487.554C573.896 479.344 583.062 480.427 586.859 486.119C589.745 490.387 586.707 496.318 583.796 503.03V502.992Z" fill="#A6A9B3"/>
    <path d="M578.023 516.343C576.597 520.146 575.082 524.397 573.543 529.032C560.819 529.096 548.311 528.968 535.764 528.878C529.97 524.73 500.194 502.988 504.435 490.658C504.536 490.402 506.253 485.574 509.509 485.049C509.509 485.049 509.358 485.318 509.143 485.83C507.578 489.684 503.009 506.535 540.333 514.217C557.626 517.764 569.743 517.687 578.023 516.343Z" fill="black" opacity="0.1"/>
    <path d="M522.523 529.049C528.322 529.049 533.023 526.587 533.023 523.549C533.023 520.512 528.322 518.049 522.523 518.049C516.724 518.049 512.023 520.512 512.023 523.549C512.023 526.587 516.724 529.049 522.523 529.049Z" fill="#0b1b3b" class="tblr-illustrations tblr-illustrations-vocate tblr-illustrations-butterflies-c"/>
    <path d="M532.523 531.049C538.322 531.049 543.023 528.587 543.023 525.549C543.023 522.512 538.322 520.049 532.523 520.049C526.724 520.049 522.023 522.512 522.023 525.549C522.023 528.587 526.724 531.049 532.523 531.049Z" fill="#A6A9B3"/>
    <path d="M529.023 479.049H528.998C524.119 476.178 515.051 475.208 509.708 468.03C506.986 464.435 506.158 461.512 506.058 459.288C505.995 458.24 505.744 453.3 508.529 451.463C508.792 451.269 509.093 451.14 509.432 451.049C509.432 451.049 514.587 470.772 529.023 479.049Z" fill="black" opacity="0.1"/>
    <path d="M539.023 418.049C539.023 418.049 530.999 430.626 530.374 454.049C530.239 447.404 525.326 433.284 530.116 424.908C532.052 421.523 535.654 418.99 539.023 418.062V418.049Z" fill="black" opacity="0.1"/>
    <path d="M510.023 325.588C501.804 332.474 488.868 341.676 471.114 348.462C462.818 351.65 455.004 353.704 448.023 355.049C458.785 349.857 470.962 342.037 482.14 330.295C486.68 325.5 490.474 320.694 493.635 316.049C499.351 319.822 504.864 322.96 510.011 325.588H510.023Z" fill="black" opacity="0.1"/>
    <path d="M392.384 297.241C391.928 298.43 391.46 299.493 390.979 300.494C389.928 302.709 388.751 304.636 387.269 307.064C369.494 334.455 334.565 344.065 334.565 344.065C322.702 348.395 310.105 350.409 297.483 349.997C289.545 349.746 281.683 348.608 274.023 346.593C274.277 341.738 275.024 336.908 276.264 332.215C276.733 330.426 277.252 328.774 277.796 327.235C277.847 327.26 277.91 327.298 277.961 327.335C284.038 330.826 290.748 333.116 297.711 334.067C307.244 335.193 316.929 333.967 325.892 330.539C345.756 323.406 362.265 309.291 372.28 290.897C380.61 273.028 381.749 252.694 375.445 234.049C378.977 239.593 382.978 244.861 387.409 249.741C398.043 261.453 397.752 283.114 392.359 297.241H392.384Z" fill="black" opacity="0.5"/>
    <path d="M416.011 196.062C415.998 196.378 415.973 196.682 415.948 196.986C415.961 197.011 415.948 197.024 415.948 197.037C415.259 200.252 413.855 203.252 411.849 205.847C406.17 213.227 396.279 215.049 387.905 215.049C382.377 215.049 377.513 214.239 374.943 213.746C374.78 213.695 374.605 213.632 374.442 213.581C372.173 212.53 370.029 211.227 368.023 209.708C372.674 210.708 382.264 212.138 393.697 208.885C405.142 205.632 412.589 199.366 416.023 196.049L416.011 196.062Z" fill="black" opacity="0.5"/>
    <path d="M447.638 90.6976L426.197 83.6474L430.805 59.4338L431.069 58.0035L429.697 57.5605L408.243 50.4977L406.87 50.042L394.746 46.0549C394.746 46.0549 394.733 46.0423 394.72 46.0549C394.166 46.1056 393.625 46.1815 393.071 46.2448C393.071 46.2448 393.063 46.2448 393.046 46.2448C392.492 46.3081 391.951 46.3714 391.397 46.4473L393.235 47.0549L406.593 51.4596L401.998 75.6732L380.556 68.6104L384.61 47.3333C384.358 47.3586 384.094 47.3966 383.842 47.4346C383.59 47.4726 383.351 47.5105 383.099 47.5485L379.184 68.1548L357.742 61.1046L359.58 51.447C359.328 51.485 359.077 51.5356 358.825 51.5862C358.573 51.6495 358.309 51.6875 358.057 51.7508L356.37 60.6489L340.795 55.51H340.782C340.354 55.6239 339.914 55.7378 339.486 55.8518C339.07 55.9657 338.655 56.0669 338.239 56.1935L356.118 62.0792L351.51 86.2802L330.068 79.2173L334.223 57.358C333.958 57.4339 333.707 57.5225 333.442 57.5985C333.178 57.6744 332.926 57.763 332.662 57.8516L328.683 78.7617L307.254 71.6988L307.455 70.5976C307.153 70.8255 306.876 71.066 306.587 71.3064C306.536 71.3444 306.486 71.395 306.435 71.433C306.221 71.6102 306.007 71.8001 305.806 71.9899C305.781 72.0153 305.743 72.0406 305.718 72.0659C305.542 72.2304 305.365 72.3823 305.189 72.5469L305.604 72.6735L301.009 96.8871L291.251 93.6721C291.151 93.8999 291.062 94.1151 290.974 94.3429C290.886 94.5707 290.798 94.7859 290.71 95.0138L300.732 98.3047L296.136 122.518L281.808 117.797C281.708 118.012 281.607 118.24 281.494 118.455C281.38 118.67 281.28 118.886 281.166 119.101L295.859 123.936L291.264 148.15L269.822 141.087L271.409 132.745L270.502 133.657C270.212 133.948 269.91 134.239 269.608 134.518L268.437 140.631L264.207 139.226H264.194C263.968 139.416 263.754 139.593 263.527 139.77H263.514C263.288 139.948 263.061 140.125 262.822 140.289L268.173 142.049L263.577 166.262L242.136 159.199L243.483 152.111C243.218 152.251 242.941 152.39 242.677 152.529C242.4 152.668 242.136 152.807 241.859 152.947L240.763 158.744L234.355 156.643C234.052 156.782 233.738 156.934 233.436 157.086H233.423C233.108 157.238 232.806 157.389 232.491 157.541L240.486 160.174L235.891 184.375L214.449 177.312L216.69 165.528C216.413 165.667 216.149 165.819 215.872 165.971C215.595 166.123 215.33 166.275 215.053 166.427L213.077 176.869L203.583 173.743C203.344 173.907 203.105 174.085 202.878 174.262C202.639 174.439 202.412 174.616 202.186 174.793L212.8 178.287L208.204 202.488L186.762 195.425L187.556 191.235L187.833 189.792C187.467 190.337 187.127 190.881 186.787 191.438C186.41 192.058 186.057 192.666 185.705 193.298L185.39 194.982L184.899 194.817C184.773 195.033 184.672 195.248 184.559 195.463L184.332 196.146L185.113 196.4L180.517 220.613C180.404 220.575 180.291 220.537 180.19 220.499C180.278 221.031 180.379 221.575 180.492 222.107H180.505C180.58 222.474 180.668 222.828 180.757 223.183C180.883 223.702 181.034 224.208 181.197 224.714L181.625 222.486L203.067 229.549L198.66 252.776C198.849 253.105 199.026 253.446 199.189 253.788C199.227 253.864 199.277 253.953 199.315 254.029C199.466 254.32 199.592 254.611 199.718 254.902C199.718 254.915 199.731 254.915 199.731 254.927C199.856 255.218 199.995 255.522 200.108 255.813L221.021 262.699L216.413 286.9L194.984 279.837L195.676 276.204C195.387 276.458 195.097 276.698 194.795 276.939C194.518 277.166 194.228 277.382 193.939 277.597L193.599 279.394L192.013 278.862C191.748 279.04 191.459 279.192 191.182 279.356C190.905 279.521 190.615 279.673 190.325 279.824L193.335 280.812L188.739 305.013L167.285 297.95L169.261 287.571C168.997 287.672 168.733 287.799 168.468 287.913C168.191 288.039 167.927 288.166 167.65 288.305L165.912 297.494L158.131 294.937C157.93 295.102 157.741 295.304 157.552 295.507C157.376 295.697 157.2 295.887 157.023 296.089L165.635 298.924L161.909 318.594C162.135 318.695 162.349 318.797 162.576 318.885C162.803 318.974 163.029 319.062 163.256 319.138H163.268L167.02 299.38L188.462 306.443L185.226 323.505C185.465 323.543 185.692 323.568 185.931 323.606C186.171 323.644 186.41 323.67 186.649 323.708L189.847 306.886L211.276 313.949L209.173 325.049C209.425 325.049 209.665 325.037 209.916 325.024C210.156 325.011 210.407 324.999 210.647 324.973L212.661 314.404L231.031 320.455C231.371 320.315 231.698 320.176 232.025 320.024C232.353 319.885 232.68 319.733 232.995 319.581L212.925 312.974L217.521 288.786L238.963 295.836L234.606 318.797C234.883 318.657 235.148 318.518 235.412 318.379C235.689 318.227 235.966 318.075 236.231 317.923L240.335 296.292L253.492 300.621C253.606 300.405 253.719 300.19 253.82 299.975C253.92 299.76 254.021 299.532 254.109 299.317L240.612 294.861L245.208 270.661L256.942 274.521C256.929 274.268 256.904 274.002 256.879 273.749C256.854 273.483 256.829 273.23 256.804 272.964L245.472 269.23L250.08 245.029L255.645 246.865C255.67 246.624 255.696 246.384 255.733 246.143C255.746 246.08 255.746 246.029 255.759 245.966C255.784 245.776 255.809 245.599 255.847 245.409L250.345 243.599L254.94 219.398L269.105 224.056C269.344 223.866 269.57 223.702 269.81 223.537C270.049 223.36 270.301 223.195 270.552 223.018L255.217 217.968L259.813 193.767L281.254 200.83L277.83 218.892C278.094 218.765 278.371 218.639 278.636 218.512C278.9 218.385 279.164 218.259 279.429 218.158L282.639 201.285L304.018 208.323L304.081 208.348V208.297C304.345 208.196 304.622 208.07 304.887 207.956C304.937 207.93 304.975 207.918 305.025 207.892C305.239 207.791 305.466 207.703 305.68 207.589C305.781 207.551 305.882 207.513 305.982 207.449L305.718 207.373L310.326 183.173L328.796 189.261H328.809C328.947 189.058 329.098 188.843 329.25 188.641C329.401 188.438 329.539 188.236 329.678 188.02L310.59 181.742L315.186 157.541L336.64 164.604L333.19 182.73C333.543 182.173 333.895 181.628 334.248 181.071V181.046C334.601 180.489 334.953 179.932 335.293 179.388L338.013 165.047L343.88 166.984C344.043 166.781 344.207 166.579 344.371 166.389C344.534 166.186 344.711 165.996 344.874 165.794L338.29 163.63L342.885 139.429L364.327 146.479L362.904 153.921C363.156 153.845 363.42 153.769 363.672 153.693C363.924 153.618 364.188 153.542 364.453 153.478L365.699 146.934L379.574 151.504C380.304 151.478 381.035 151.466 381.765 151.466C382.407 151.466 383.049 151.466 383.691 151.478C383.83 151.478 383.981 151.478 384.119 151.491L365.964 145.504L370.572 121.303L392.001 128.366L387.594 151.592C387.846 151.592 388.085 151.618 388.324 151.63C388.564 151.643 388.803 151.656 389.042 151.681L393.386 128.822L414.828 135.872L411.227 154.82C411.466 154.858 411.692 154.921 411.932 154.972C412.171 155.022 412.398 155.086 412.637 155.136L416.212 136.328L437.642 143.39L439.027 143.846L439.291 142.416L443.887 118.215L444.164 116.784L448.759 92.5835L449.023 91.1533L447.651 90.6976H447.638ZM407.978 51.9153L429.42 58.9781L424.824 83.1917L403.37 76.1289L407.978 51.9153ZM398.51 101.76L403.106 77.5592L424.56 84.6094L419.952 108.81L398.51 101.76ZM401.733 77.1035L397.125 101.304L375.696 94.2417L380.292 70.0407L401.733 77.1035ZM357.478 62.5349L378.919 69.585L374.311 93.786L352.882 86.7358L357.478 62.5349ZM374.047 95.2163L369.451 119.417L348.009 112.367L352.605 88.1534L374.047 95.2163ZM351.233 87.7104L346.637 111.911L325.183 104.849L329.778 80.6476L351.233 87.7104ZM346.36 113.342L341.765 137.543L320.31 130.48L324.918 106.279L346.36 113.342ZM306.964 73.1291L328.406 80.1919L323.81 104.393L302.369 97.3301L306.964 73.1291ZM302.104 98.7604L323.533 105.823L318.938 130.024L297.496 122.974L302.104 98.7604ZM297.232 124.392L318.673 131.454L314.065 155.655L292.636 148.593L297.232 124.392ZM269.533 142.504L290.987 149.567L286.391 173.781L264.937 166.718L269.533 142.504ZM241.859 160.63L263.288 167.693L258.692 191.894L237.263 184.831L241.859 160.63ZM214.172 178.742L235.614 185.805L231.018 210.006L209.576 202.943L214.172 178.742ZM230.741 211.437L226.146 235.637L204.704 228.575L209.299 204.374L230.741 211.437ZM181.877 221.056L186.473 196.855L207.927 203.918L203.331 228.119L181.877 221.056ZM199.831 254.206L204.427 230.005L225.869 237.068L221.273 261.269L199.831 254.206ZM211.541 312.518L190.099 305.468L194.694 281.267L216.136 288.33L211.541 312.518ZM239.215 294.418L217.785 287.356L222.381 263.155L243.823 270.205L239.215 294.418ZM244.087 268.787L222.645 261.724L227.254 237.523L248.683 244.574L244.087 268.787ZM248.96 243.156L227.518 236.093L232.113 211.88L253.555 218.942L248.96 243.156ZM253.82 217.512L232.39 210.462L236.986 186.261L258.428 193.311L253.82 217.512ZM260.065 192.336L264.673 168.136L286.114 175.198L281.519 199.399L260.065 192.336ZM304.333 206.918L282.891 199.855L287.499 175.654L308.928 182.717L304.333 206.918ZM309.205 181.287L287.764 174.224L292.359 150.023L313.801 157.086L309.205 181.287ZM336.892 163.174L315.45 156.111L320.046 131.91L341.5 138.973L336.892 163.174ZM364.579 145.048L343.137 137.998L347.745 113.785L369.174 120.848L364.579 145.048ZM370.824 119.873L375.419 95.6719L396.861 102.722L392.265 126.936L370.824 119.873ZM393.638 127.391L398.233 103.178L419.687 110.241L415.092 134.454L393.638 127.391ZM437.906 141.96L416.464 134.897L421.06 110.696L442.502 117.759L437.906 141.96ZM442.766 116.329L421.337 109.266L425.932 85.065L447.374 92.1279L442.766 116.329Z" fill="#A6A9B3"/>
    <path d="M456.276 138.167C453.849 148.111 448.933 155.168 441.878 157.348C426.054 162.264 405.464 140.801 395.882 109.433C387.676 82.6267 390.19 57.2321 400.973 47.3516C402.799 45.688 404.876 44.4655 407.178 43.7472C423.002 38.8447 443.592 60.2946 453.173 91.6629C458.477 109.042 459.303 125.829 456.276 138.167Z" fill="#A6A9B3"/>
    <path d="M456.011 138.113C453.594 148.084 448.698 155.16 441.671 157.347C425.912 162.275 405.405 140.754 395.862 109.3C387.689 82.4208 390.194 56.9569 400.933 47.0493C399.525 66.1694 401.406 114.456 456.023 138.113H456.011Z" fill="black" opacity="0.1"/>
    <path d="M455.719 91.7504C460.942 109.419 463.808 129.67 457.114 147.427C451.092 162.844 436.474 167.411 422.579 158.608C406.148 148 396.792 129.695 390.986 111.747C385.724 93.6203 383.201 73.217 390.833 55.1669C397.388 40.0806 412.018 35.5522 425.66 44.9271C441.102 55.7775 450.154 74.2473 455.707 91.7504H455.719ZM451.016 93.2005C445.716 76.8295 437.095 59.6699 422.351 50.1805C411.854 43.6677 402.421 46.7206 397.933 58.2325C392.051 74.3618 394.827 92.8698 399.594 109.075C402.992 120.168 407.961 130.954 414.845 140.24C424.455 153.571 442.027 165.146 451.421 144.934C458.293 128.766 455.808 109.724 451.003 93.1878L451.016 93.2005Z" fill="#0b1b3b" class="tblr-illustrations tblr-illustrations-vocate tblr-illustrations-butterflies-c"/>
</svg>
