<svg xmlns="http://www.w3.org/2000/svg" width="800" height="600" fill="none" viewBox="0 0 800 600">
    <style>
        :where(.theme-dark, [data-theme="dark"]) .tblr-illustrations-camping-a { fill: black; opacity: 0.07; } :where(.theme-dark, [data-theme="dark"]) .tblr-illustrations-camping-b { fill: black; opacity: 0.3; } :where(.theme-dark, [data-theme="dark"]) .tblr-illustrations-camping-c { fill: #24304d; }
        @media (prefers-color-scheme: dark) { .tblr-illustrations-camping-a { fill: black; opacity: 0.07; } .tblr-illustrations-camping-b { fill: black; opacity: 0.3; } .tblr-illustrations-camping-c { fill: #24304d; } }
    </style>
    <path d="M179.5 306C179.5 342.4 217.9 368.9 234.9 398.4C252.4 428.8 256.6 475.2 286.9 492.8C316.3 509.9 358.2 490.9 394.7 490.9C431.2 490.9 473 510.1 502.4 493C532.8 475.5 537.1 429.1 554.7 398.8C571.8 369.4 610.3 343 610.4 306.6C610.5 270.2 571.9 243.7 555 214.2C537.5 183.8 533.3 137.4 503 119.8C473.6 102.7 431.7 121.7 395.2 121.7C358.7 121.7 316.9 102.6 287.5 119.5C257.1 137 252.8 183.4 235.2 213.8C218.1 243.2 179.6 269.6 179.5 306Z" fill="#1a3263" style="fill: #1a3263; fill: var(--tblr-illustrations-primary, var(--tblr-primary, #1a3263));" opacity="0.02" class="tblr-illustrations tblr-illustrations-vocate tblr-illustrations-camping-a"/>
    <path d="M310.598 418.1C417.852 418.1 504.798 416.085 504.798 413.6C504.798 411.115 417.852 409.1 310.598 409.1C203.345 409.1 116.398 411.115 116.398 413.6C116.398 416.085 203.345 418.1 310.598 418.1Z" fill="#d9e2f3" opacity="0.5" class="tblr-illustrations tblr-illustrations-vocate tblr-illustrations-camping-b"/>
    <path d="M389.501 416.5C389.501 416.5 431.801 251.6 432.801 187.7C432.801 187.7 341.901 378.6 320.801 409.3C320.801 409.3 351.601 414.1 389.601 416.5H389.501Z" fill="#1a3263" style="fill: #1a3263; fill: var(--tblr-illustrations-primary, var(--tblr-primary, #1a3263));"/>
    <path d="M389.501 416.5C397.101 387.9 404.301 357.8 410.801 326.1C420.801 277.3 427.901 231 432.801 187.7C417.601 220.3 401.601 253.4 384.701 287C363.501 329.3 342.201 370.1 320.801 409.4C320.801 409.4 351.601 414.2 389.601 416.6L389.501 416.5Z" fill="black" opacity="0.1"/>
    <path d="M382.1 416.9C374.1 407.6 366.1 398.3 358 389C373.3 366.7 390.8 336.8 405.2 299.6C422.1 256.3 429.3 217.3 432.6 187.7C432.5 191.4 432.3 196.8 432 203.3C430.4 239.2 427.7 265.7 426.5 278C417.6 367.6 419.6 403.1 398.2 414C395 415.6 389.8 417.5 382.1 417V416.9Z" fill="#A6A9B3"/>
    <path d="M347.901 346C347.501 347.5 346.901 348.9 346.101 350.2C345.701 350.8 345.301 351.4 344.901 352C344.501 352.6 344.001 353.1 343.501 353.6C343.001 354.1 342.501 354.5 342.001 354.9C341.701 355.1 341.401 355.4 341.101 355.6C340.601 355.9 340.101 356.2 339.601 356.5C339.301 356.7 339.001 356.8 338.701 356.9C338.501 356.9 338.401 357.1 338.201 357.1C337.801 357.3 337.401 357.4 337.001 357.5C334.401 358.3 331.801 358.3 329.601 357.1C325.401 355 323.901 349.7 325.601 344.3C325.701 343.8 325.901 343.4 326.101 342.9C326.401 342.2 326.801 341.4 327.201 340.8C331.101 334.3 338.401 331.1 343.601 333.6C344.301 334 344.901 334.4 345.501 334.9C348.101 337.4 348.901 341.5 347.701 345.9H347.901V346Z" fill="#FFCB9D" style="fill: #FFCB9D; fill: var(--tblr-illustrations-skin, #FFCB9D);"/>
    <path d="M347.901 346C347.501 347.5 346.901 348.9 346.101 350.2C345.701 350.8 345.301 351.4 344.901 352C344.501 352.6 344.001 353.1 343.501 353.6C343.001 354.1 342.501 354.5 342.001 354.9C341.701 355.1 341.401 355.4 341.101 355.6C340.601 355.9 340.101 356.2 339.601 356.5C339.301 356.7 339.001 356.8 338.701 356.9C338.501 356.9 338.401 357.1 338.201 357.1C337.801 357.3 337.401 357.4 337.001 357.5C334.401 358.4 331.801 358.3 329.601 357.2C325.401 355.1 323.901 349.7 325.601 344.3C325.701 343.8 325.901 343.4 326.101 342.9C327.401 342.7 329.301 342.4 331.501 341.5C336.601 339.5 337.401 336.9 341.301 335.6C342.601 335.2 344.001 334.9 345.501 334.8C348.101 337.3 348.901 341.4 347.701 345.8L347.901 346Z" fill="black" opacity="0.1"/>
    <path d="M445.801 413.3C450.001 412.9 453.501 412.5 456.001 412.2C455.901 412.4 453.701 415.3 450.001 415.1C448.101 415 446.701 414.2 445.801 413.3Z" fill="#DADCE0"/>
    <path d="M445.798 413.3C442.598 413.6 438.298 414 433.198 414.2C431.098 414.2 428.798 414.4 426.398 414.4C408.698 414.6 402.898 412.4 399.898 410.8C399.698 410.7 399.498 410.6 399.398 410.5C398.498 410 397.798 409.5 397.198 409H397.098C396.498 408.5 395.798 408 394.998 407.4C384.998 399.5 379.498 390.2 376.798 384.8C376.598 386.1 375.798 390.7 373.798 396C370.898 403.7 365.698 412.7 356.598 415.4C355.998 415.6 354.098 416.1 351.598 416.1C347.798 416.1 344.198 415.1 340.998 413.4C329.598 407.6 321.698 394 319.898 390.7C309.098 372.1 311.098 352.8 312.398 344.9C314.898 345.4 317.298 345.9 319.798 346.4C329.398 348.4 338.998 350.4 348.698 352.4L355.298 353.8C352.398 359.9 348.298 370.2 348.098 380.9C348.098 382.7 348.098 384.4 348.298 386.2C348.298 386.4 348.298 386.8 348.398 387.2C348.498 387.8 348.598 388.4 348.798 388.8V389.4C348.798 389.4 348.798 389.6 348.898 389.6C348.898 389.8 349.098 389.9 349.198 390H349.398C350.498 390 351.098 383.7 353.798 374.5C354.198 373.2 354.598 371.8 354.998 370.4C356.098 367.2 357.398 363.7 359.098 360.1C359.798 358.6 360.598 357.1 360.598 357.1C360.998 356.5 361.298 355.8 361.798 355C362.298 354.1 362.898 353.2 363.398 352.3C363.898 351.5 364.498 350.7 364.998 349.9C368.098 345.3 372.098 340.5 375.198 337C377.898 334 379.798 331.9 379.798 331.9C380.298 331.9 380.798 331.9 381.198 332C389.898 332.6 396.898 334 401.698 335.1C401.698 335.1 402.398 335.3 403.598 335.6C412.098 338 446.998 349 472.798 377.6C472.798 377.6 473.998 378.9 475.598 380.7C476.398 381.6 477.198 382.5 477.798 383.2C466.498 392.7 455.298 402.2 443.998 411.7C443.998 411.8 444.498 412.7 445.498 413.5L445.798 413.3Z" fill="#DADCE0"/>
    <path d="M433.2 414.2C431.1 414.2 428.8 414.4 426.4 414.4C408.7 414.6 402.9 412.4 399.9 410.8C399.7 410.7 399.5 410.6 399.4 410.5C398.6 410 397.9 409.5 397.2 409H397.1C396.4 408.5 395.7 407.9 395 407.4C391.7 406.2 383.6 402.9 377.7 394.5C374.7 390.3 369.2 382.5 371.8 376.2C373 373.2 375.9 370.7 410 361.2C412 360.6 413.7 360.2 414.8 359.9C414.8 361.9 414.9 365 415.1 368.8C416.3 392 417.4 407.4 426.6 412.6C427.9 413.4 430.1 414.3 433.4 414.4L433.2 414.2Z" fill="black" opacity="0.1"/>
    <path d="M403.999 335.4C402.399 340.8 398.399 346.4 392.499 350.7C381.999 358.2 369.399 358.8 363.699 352.2C364.199 351.4 364.799 350.6 365.299 349.8C368.399 345.2 372.399 340.3 375.499 336.8C376.699 335.8 377.899 334.7 379.099 333.8C379.899 333.1 380.699 332.5 381.499 331.9C387.099 327.5 392.999 323.5 399.099 319.9C400.399 320.7 401.599 321.7 402.499 323C404.999 326.4 405.299 330.9 403.999 335.5V335.4Z" fill="#FFCB9D" style="fill: #FFCB9D; fill: var(--tblr-illustrations-skin, #FFCB9D);"/>
    <path d="M403.999 335.4C402.399 340.8 398.399 346.4 392.499 350.7C381.999 358.2 369.399 358.8 363.699 352.2C364.199 351.4 364.799 350.6 365.299 349.8C368.399 345.2 372.399 340.3 375.499 336.8C376.699 335.8 377.899 334.7 379.099 333.8C379.899 333.1 380.699 332.5 381.499 331.9C387.099 327.5 392.999 323.5 399.099 319.9C400.399 320.7 401.599 321.7 402.499 323C404.999 326.4 405.299 330.9 403.999 335.5V335.4Z" fill="black" opacity="0.1"/>
    <path d="M392.201 352.5C388.701 348.3 385.601 346.5 383.001 347.1C380.001 347.9 378.701 351.7 378.101 353.9C376.001 352 371.501 348.5 367.501 349.9C364.301 351.1 362.401 355.3 361.801 362.4C361.501 365.7 361.401 370.3 363.701 371.8C364.401 372.2 365.301 372.3 366.101 372C369.601 370.9 374.101 364.9 377.201 360.4C377.101 362 376.501 363.5 375.501 364.8C374.701 365.4 374.301 366.5 374.401 367.5C374.601 369.8 376.801 372 378.601 373.6L379.501 371.7C376.701 369.2 376.401 368 376.201 367.7C376.201 367.4 376.401 367.1 376.601 366.9C378.501 365.4 379.101 360.9 379.401 358.2C380.601 359.6 381.701 361.1 382.601 362.7V364C382.601 365.7 382.601 368.4 384.801 369.6C386.001 370.3 387.801 373.5 389.501 378.1L391.301 377.4C389.201 371.8 387.201 368.4 385.401 367.4C384.801 367.1 384.701 366.2 384.601 364.4C384.601 363.8 384.601 363.1 384.401 362.5C383.801 361.1 383.001 359.7 382.001 358.5C385.901 360 391.001 361.5 393.501 360.7C394.201 360.6 394.801 360.1 395.101 359.4C395.801 357.3 393.701 354.4 392.001 352.4H392.201V352.5ZM364.401 369.8C364.401 369.7 363.301 368.9 363.701 363.1C364.201 356.9 365.701 353.2 368.201 352.3H368.401C371.601 351.2 375.601 354.5 377.301 356.1C372.401 363.8 366.201 371 364.401 369.8ZM393.401 358.2C392.901 359.5 386.601 358.1 379.901 355.3C380.301 353.5 381.301 350.3 383.501 349.6H383.601C385.401 349.1 387.901 350.6 390.901 354.2C393.501 357.3 393.301 358.2 393.301 358.2H393.401Z" fill="#1a3263" style="fill: #1a3263; fill: var(--tblr-illustrations-primary, var(--tblr-primary, #1a3263));"/>
    <path d="M382.702 290.6C382.602 294.2 382.302 299.4 381.802 305.8C381.702 307.2 381.502 308.5 381.502 308.9C380.902 314 379.902 319 378.402 323.9C378.002 325.2 377.602 326.5 377.202 327.8C377.002 328.4 376.802 328.9 376.602 329.5C376.102 330.7 375.602 332.1 375.002 333.3C374.402 334.3 373.602 335.1 372.702 335.6C372.202 336 371.602 336.3 371.002 336.6C366.002 339.2 357.502 341.6 348.702 341.8H343.502C342.902 341.8 342.402 341.8 341.902 341.7C340.902 341.6 339.902 341.4 339.002 341.2C334.902 340.2 331.702 338.1 329.502 335.6C329.302 335.4 329.202 335.2 329.002 335C325.102 330.1 324.802 323.7 328.402 320C329.102 319.2 329.702 318.5 330.302 317.6C331.602 315.8 332.702 313.8 333.402 311.7C335.102 307.7 336.502 303.6 337.702 299.4C338.402 297 338.702 295.4 338.702 295.4L350.002 285.5H377.202C376.902 290 378.102 293.2 379.602 293.4C381.102 293.6 382.502 291.2 382.702 290.6Z" fill="#FFCB9D" style="fill: #FFCB9D; fill: var(--tblr-illustrations-skin, #FFCB9D);"/>
    <path d="M333.301 311.7C343.701 315.3 354.901 315.4 365.401 311.9C368.101 312.3 370.601 313.3 372.701 315C375.801 317.6 375.701 320 378.201 323.5L378.401 323.8C379.901 318.9 380.901 313.9 381.401 308.8C381.401 308.4 381.501 307.2 381.701 305.7C382.201 299.3 382.401 294.1 382.601 290.5C382.301 291 380.901 293.5 379.501 293.3C378.101 293.1 376.801 289.8 377.101 285.2H349.901C349.901 285.3 338.601 295.2 338.601 295.2C338.601 295.2 338.201 296.8 337.601 299.2C336.501 303.4 335.101 307.6 333.401 311.6L333.301 311.7Z" fill="black" opacity="0.1"/>
    <path d="M470.299 340.7C469.699 341.3 468.999 341.9 468.199 342.5C461.899 348 451.299 355.7 437.199 360C432.899 361.3 428.299 362.3 423.299 362.8C419.299 363.2 413.999 363.7 407.899 363C403.299 362.5 398.299 361.2 393.099 358.7C381.799 353.2 368.499 340.9 370.499 331.1C370.899 329 372.099 326.6 373.299 323.7C374.099 321.7 374.899 319.5 375.499 316.9C375.899 315.3 376.599 312.2 375.899 308.5C375.799 307.9 375.699 307.3 375.499 306.6C375.099 304.4 371.699 301.9 370.499 298.5C365.299 301.5 346.199 311.3 333.399 302.7C330.499 300.8 328.099 298.2 326.499 295.1C325.699 293.6 325.399 292 325.499 290.3C326.299 283.4 336.099 279.9 340.199 278.4C355.399 272.9 370.399 279.8 375.699 282.1C381.399 284.6 401.299 293.4 404.199 309.5C405.299 315.6 403.199 318.1 405.199 320.9C407.799 324.5 415.499 325.7 434.399 319.7C439.399 318.1 445.299 316 452.099 313.3C457.299 321.1 462.499 329 467.699 336.8C468.599 338.1 469.399 339.4 470.299 340.7Z" fill="#0b1b3b" class="tblr-illustrations tblr-illustrations-vocate tblr-illustrations-camping-c"/>
    <path d="M363.499 338.4C356.099 340.1 351.299 341.3 348.999 341.8H344.699C344.699 334.5 350.399 329.5 355.399 330.1C358.999 330.5 362.399 333.9 363.499 338.4Z" fill="black" opacity="0.1"/>
    <path d="M355.098 370.4L352.198 397.3L349.398 390C350.698 390 351.198 381.8 354.998 370.4H355.098Z" fill="black" opacity="0.1"/>
    <path d="M373.699 395.8C370.799 403.5 365.599 412.6 356.499 415.2C355.899 415.4 353.999 415.9 351.499 415.9C347.699 415.9 344.099 414.9 340.899 413.2C341.799 409.6 342.599 404.3 341.499 398.3C339.799 389.3 334.599 384.1 330.899 378.8C326.299 372.3 321.199 362.1 319.699 346.2C329.299 348.2 338.999 350.2 348.599 352.2C347.799 361.8 346.899 376.2 348.199 385.9C348.199 386.3 348.199 386.6 348.299 386.9C348.399 387.5 348.499 388.1 348.699 388.5V389.1C348.699 389.1 348.699 389.3 348.799 389.3C348.799 389.5 348.999 389.7 349.099 389.7H349.299C350.399 389.7 350.999 383.4 353.699 374.2C358.599 378.9 373.599 395 373.599 395.6V395.8H373.699Z" fill="black" opacity="0.1"/>
    <path d="M468.3 342.5C462 348 451.4 355.7 437.3 360C433 361.3 428.4 362.3 423.4 362.8C419.4 363.2 414.1 363.7 408 363C433.4 351.4 435.3 330.4 434.5 319.8C439.5 318.2 445.4 316.1 452.2 313.4C457.4 321.2 462.6 329.1 467.8 336.9C468 338.8 468.2 340.7 468.3 342.6V342.5Z" fill="black" opacity="0.5"/>
    <path d="M695.601 396.9C682.601 400.9 669.301 404.7 655.601 408.3C619.201 418 584.201 425.5 551.001 431.3C532.801 404.5 514.201 374.2 496.401 340.2C459.801 270.5 434.301 191.5 432.801 187.6C457.301 191.7 481.801 195.8 506.301 199.8C528.501 203.5 550.701 207.2 572.901 210.8C579.901 229 588.901 249.5 600.701 271.3C601.601 273 609.501 287.6 619.001 302.6C644.701 343.2 676.001 377 695.601 396.8V396.9Z" fill="#DADCE0"/>
    <path d="M695.601 396.9C682.601 400.9 669.301 404.7 655.601 408.3C619.201 418 584.201 425.5 551.001 431.3C532.801 404.5 514.201 374.2 496.401 340.2C467.401 285 447.201 233 432.801 187.6C434.301 190.2 529.101 359.5 695.601 396.8V396.9Z" fill="black" opacity="0.1"/>
    <path d="M550.999 431.4C550.999 431.4 536.499 430.1 517.899 428.3C487.799 425.4 446.999 421.4 440.399 419.9L433.399 207.6L432.699 187.7C432.699 187.7 513.499 372.3 550.999 431.4Z" fill="#1a3263" style="fill: #1a3263; fill: var(--tblr-illustrations-primary, var(--tblr-primary, #1a3263));"/>
    <path d="M166.199 396.7C166.099 399.9 164.099 402.9 161.399 403.9C158.799 404.9 156.499 404.5 154.599 402.5C151.199 398.9 153.499 390.8 158.199 389.5C158.699 389.4 159.499 389.1 159.799 389.7C160.099 390.4 159.399 390.7 158.899 390.9C155.899 392.7 154.699 395.4 154.899 398.8C154.999 400.7 156.199 401.8 157.999 402.2C159.899 402.6 161.599 402.2 162.899 400.4C163.799 399 164.199 397.5 164.299 395.9C164.299 395.3 163.999 394.5 164.899 394.4C165.799 394.4 165.899 395.2 166.099 395.9V396.8L166.199 396.7Z" fill="#A6A9B3"/>
    <path d="M251.8 392.5C251.8 392.3 251.7 392.1 251.6 391.9C249.5 384.4 243.9 379.6 237.1 379.6C214.3 379.6 191.5 379.7 168.7 379.8H159.9C157.5 379.9 155.2 380.5 153 381.5C146.1 384.8 142.1 393.4 143.8 401.1C145.6 408.8 151.2 414.1 157.7 414.2H197.2C197.2 414.3 234.1 414.3 234.1 414.3C236 414.3 237.9 414.3 239.8 413.7C248.7 411.2 254.2 401.5 251.9 392.4H251.8V392.5ZM218.8 386.5H240C240.7 386.5 241.2 386.7 241.2 387.5C241.2 388.3 240.7 388.4 240 388.4H218.6C217.9 388.4 217.5 388.2 217.5 387.4C217.5 386.6 218 386.5 218.7 386.5H218.8ZM177.2 386.5H200.1C200.8 386.5 201.3 386.8 201.3 387.5C201.3 388.2 200.8 388.4 200.2 388.4H177.2C176.5 388.4 176 388.1 176 387.5C176 386.9 176.5 386.5 177.2 386.5ZM158.9 409.4C153.2 409.4 148.3 404.5 148.3 398.6C148.3 392.7 153.2 384.8 160.8 384.7C166.4 384.7 171.2 389.8 171.2 396C171.2 402.2 165.7 409.3 158.9 409.4ZM189.8 406.8H179C178.6 406.8 178.3 406.5 178.3 406C178.3 405.5 178.5 405.1 179.1 405H189.9C190.5 405 191 405.3 191 405.9C191 406.5 190.5 406.8 189.9 406.8H189.8ZM186.6 397.6C185.9 397.6 185.3 397.6 185.3 396.6C185.3 395.6 185.9 395.7 186.6 395.7H223.3C224 395.7 224.6 395.7 224.6 396.6C224.6 397.5 224 397.5 223.3 397.5H186.6V397.6ZM241 406.8H210.6C209.9 406.8 209.3 406.8 209.3 405.9C209.3 405 209.9 405 210.6 405H241.1C241.8 405 242.3 405.2 242.3 405.9C242.3 406.6 241.8 406.9 241.1 406.9H241V406.8Z" fill="#A6A9B3"/>
    <path d="M185.799 405.9C185.799 406.6 185.299 406.8 184.699 406.8H174.199C173.599 406.8 173.199 406.6 173.199 405.9C173.199 405.2 173.499 404.9 174.199 404.9H184.699C185.299 404.9 185.799 405.2 185.799 405.8V405.9Z" fill="#DADCE0"/>
    <path d="M242.099 405.8C242.099 406.5 241.599 406.8 240.899 406.8H210.499C209.799 406.8 209.199 406.8 209.199 405.9C209.199 405 209.799 405 210.499 405H240.999C241.699 405 242.199 405.2 242.199 405.9H242.099V405.8Z" fill="#DADCE0"/>
    <path d="M224.598 396.7C224.598 397.7 223.998 397.6 223.298 397.6H186.698C185.998 397.6 185.398 397.6 185.398 396.7C185.398 395.8 185.998 395.8 186.698 395.8H223.398C224.098 395.8 224.698 395.8 224.698 396.7H224.598Z" fill="#DADCE0"/>
    <path d="M241.202 387.5C241.202 388.2 240.702 388.4 240.002 388.4H218.702C218.002 388.4 217.602 388.2 217.602 387.5C217.602 386.8 218.102 386.6 218.802 386.6H240.002C240.702 386.6 241.202 386.8 241.202 387.6V387.5Z" fill="#DADCE0"/>
    <path d="M201.3 387.5C201.3 388.1 200.8 388.4 200.2 388.4H177.2C176.5 388.4 176 388.1 176 387.5C176 386.9 176.5 386.6 177.2 386.6H200.1C200.8 386.6 201.3 386.9 201.3 387.6V387.5Z" fill="#DADCE0"/>
    <path d="M160.798 384.6C153.198 384.7 148.198 390.2 148.298 398.5C148.298 404.5 153.198 409.4 158.898 409.3C165.798 409.3 171.298 403.2 171.298 395.9C171.298 388.6 166.398 384.5 160.798 384.6ZM161.398 403.9C158.798 404.9 156.498 404.5 154.598 402.5C151.198 398.9 153.498 390.8 158.198 389.5C158.698 389.4 159.498 389.1 159.798 389.7C160.098 390.4 159.398 390.7 158.898 390.9C155.898 392.7 154.698 395.4 154.898 398.8C154.998 400.7 156.198 401.8 157.998 402.2C159.898 402.6 161.598 402.2 162.898 400.4C163.798 399 164.198 397.5 164.298 395.9C164.298 395.3 163.998 394.5 164.898 394.4C165.798 394.4 165.898 395.2 166.098 395.9V396.8C165.998 400 163.998 403 161.298 404L161.398 403.9Z" fill="#DADCE0"/>
    <path d="M239.801 413.8C237.901 414.3 236.001 414.4 234.101 414.4H197.201C194.601 414.3 190.301 414.3 187.801 414.4H171.101C171.501 413.9 181.201 402.6 176.801 390.2C174.801 384.7 170.901 381.4 168.801 379.9C191.601 379.8 214.401 379.7 237.301 379.7C243.701 382.7 249.901 385.9 251.801 392C251.801 392.2 251.901 392.4 252.001 392.6C254.301 401.7 248.801 411.4 239.901 413.9H239.801V413.8Z" fill="black" opacity="0.1"/>
    <path d="M185.898 363.1C185.798 366.3 183.798 369.3 181.098 370.3C178.498 371.3 176.198 370.9 174.298 368.9C170.898 365.3 173.198 357.2 177.898 355.9C178.398 355.8 179.198 355.5 179.498 356.1C179.798 356.8 179.098 357.1 178.598 357.3C175.598 359.1 174.398 361.8 174.598 365.2C174.698 367.1 175.898 368.2 177.698 368.6C179.598 369 181.298 368.6 182.598 366.8C183.498 365.4 183.898 363.9 183.998 362.3C183.998 361.7 183.698 360.9 184.598 360.8C185.498 360.8 185.598 361.6 185.798 362.3V363.2L185.898 363.1Z" fill="#DADCE0"/>
    <path d="M271.502 358.9C269.502 351 263.802 346 256.802 346C238.402 346 220.002 346 201.602 346.2H180.702C177.902 346.2 175.202 346.7 172.602 347.9C165.702 351.2 161.702 359.8 163.402 367.5C165.202 375.2 170.702 380.6 177.302 380.6H216.702C216.702 380.7 253.602 380.7 253.602 380.7C255.502 380.7 257.402 380.7 259.302 380.1C259.502 380.1 259.702 380 259.902 379.9C268.402 377.1 273.602 367.7 271.402 358.8L271.502 358.9ZM238.402 352.9H259.702C260.402 352.9 260.902 353.1 260.902 353.9C260.902 354.7 260.402 354.8 259.702 354.8H238.402C237.702 354.8 237.302 354.6 237.302 353.9C237.302 353.2 237.802 353 238.502 353H238.402V352.9ZM196.902 352.9H219.902C221.502 352.9 221.102 353.2 221.102 353.9C221.102 354.6 220.602 354.8 220.002 354.8H197.002C196.302 354.8 195.802 354.6 195.802 353.9C195.802 353.2 196.002 353.3 196.302 353.1C196.502 353 196.702 352.9 197.002 352.9H196.902ZM178.602 375.8C172.902 375.8 168.002 370.9 168.002 365C168.002 359.1 172.902 351.2 180.502 351.1C186.102 351.1 190.902 356.2 191.002 362.4C191.002 369.6 185.502 375.7 178.602 375.8ZM209.502 373.2H199.002C198.402 373.2 198.002 373 198.002 372.3C198.002 371.6 198.302 371.3 199.002 371.3H209.502C210.102 371.3 210.602 371.6 210.602 372.2C210.602 372.8 210.102 373.1 209.502 373.1V373.2ZM206.302 364.1C205.602 364.1 205.002 364.1 205.002 363.2C205.002 362.3 205.602 362.3 206.302 362.3H243.002C243.702 362.3 244.302 362.3 244.302 363.2C244.302 364.1 243.702 364.1 243.002 364.1H206.302ZM260.702 373.2H230.202C229.502 373.2 228.902 373.2 228.902 372.3C228.902 371.4 229.502 371.4 230.202 371.4H260.702C261.402 371.4 261.902 371.6 261.902 372.3C261.902 373 261.402 373.2 260.702 373.2Z" fill="#DADCE0"/>
    <path d="M210.6 372.3C210.6 373 210.1 373.2 209.5 373.2H199C198.4 373.2 198 373 198 372.3C198 371.6 198.3 371.3 199 371.3H209.5C210.1 371.3 210.6 371.6 210.6 372.2V372.3Z" fill="#A6A9B3"/>
    <path d="M261.798 372.3C261.798 373 261.298 373.3 260.598 373.3H230.198C229.498 373.3 228.898 373.3 228.898 372.4C228.898 371.5 229.498 371.5 230.198 371.5H260.698C261.398 371.5 261.898 371.7 261.898 372.4L261.798 372.3Z" fill="#A6A9B3"/>
    <path d="M244.2 363.1C244.2 364.1 243.6 364 242.9 364H206.3C205.6 364 205 364 205 363.1C205 362.2 205.6 362.2 206.3 362.2H243C243.7 362.2 244.3 362.2 244.3 363.1H244.2Z" fill="#A6A9B3"/>
    <path d="M260.901 353.9C260.901 354.6 260.401 354.8 259.701 354.8H238.401C237.701 354.8 237.301 354.6 237.301 353.9C237.301 353.2 237.801 353 238.501 353H259.701C260.401 353 260.901 353.2 260.901 354V353.9Z" fill="#A6A9B3"/>
    <path d="M220.999 353.9C220.999 354.5 220.499 354.8 219.899 354.8H196.899C196.199 354.8 195.699 354.5 195.699 353.9C195.699 353.3 196.199 353 196.899 353H219.799C220.499 353 220.999 353.3 220.999 354V353.9Z" fill="#A6A9B3"/>
    <path d="M180.501 351.1C172.901 351.2 167.901 356.7 168.001 365C168.001 371 172.901 375.9 178.601 375.8C185.501 375.8 191.001 369.7 191.001 362.4C191.001 355.1 186.101 351 180.501 351.1ZM181.101 370.3C178.501 371.3 176.201 370.9 174.301 368.9C170.901 365.3 173.201 357.2 177.901 355.9C178.401 355.8 179.201 355.5 179.501 356.1C179.801 356.8 179.101 357.1 178.601 357.3C175.601 359.1 174.401 361.8 174.601 365.2C174.701 367.1 175.901 368.2 177.701 368.6C179.601 369 181.301 368.6 182.601 366.8C183.501 365.4 183.901 363.9 184.001 362.3C184.001 361.7 183.701 360.9 184.601 360.8C185.501 360.8 185.601 361.6 185.801 362.3V363.2C185.701 366.4 183.701 369.4 181.001 370.4L181.101 370.3Z" fill="#0b1b3b" class="tblr-illustrations tblr-illustrations-vocate tblr-illustrations-camping-c"/>
    <path d="M260.1 380C259.9 380 259.7 380.1 259.5 380.2C257.6 380.7 255.7 380.8 253.8 380.8H216.9C207.5 380.7 198.1 380.8 188.8 380.7C188.8 380.7 199.1 374.8 199.1 362.7C199.1 350.6 198.4 357 197.3 354.8C197 354.2 196.7 353.6 196.3 353.1C193.7 349 189.9 346.9 188.5 346.2H201.7C205.4 347.8 210.1 350.2 215.2 353C216.3 353.6 217.4 354.2 218.5 354.8C222.7 357.1 227.1 359.7 231.4 362.3C232.4 362.9 233.5 363.5 234.5 364.1C238.7 366.6 242.7 369.1 246.4 371.4C247.4 372 248.4 372.6 249.4 373.2C253.8 376 257.6 378.3 260.2 380H260.1Z" fill="black" opacity="0.1"/>
    <path d="M204.398 396.7C204.298 399.9 202.298 402.9 199.598 403.9C196.998 404.9 194.698 404.5 192.798 402.5C189.398 398.9 191.698 390.8 196.398 389.5C196.898 389.4 197.698 389.1 197.998 389.7C198.298 390.4 197.598 390.7 197.098 390.9C194.098 392.7 192.898 395.4 193.098 398.8C193.198 400.7 194.398 401.8 196.198 402.2C198.098 402.6 199.798 402.2 201.098 400.4C201.998 399 202.398 397.5 202.498 395.9C202.498 395.3 202.198 394.5 203.098 394.4C203.998 394.4 204.098 395.2 204.298 395.9V396.8L204.398 396.7Z" fill="#1a3263" style="fill: #1a3263; fill: var(--tblr-illustrations-primary, var(--tblr-primary, #1a3263));"/>
    <path d="M290.099 392.4C288.099 384.5 282.399 379.5 275.399 379.5C249.999 379.5 224.699 379.6 199.299 379.7C196.499 379.7 193.799 380.2 191.199 381.4C184.299 384.7 180.299 393.3 181.999 401C183.799 408.7 189.299 414 195.899 414.1H235.399C235.399 414.2 272.299 414.2 272.299 414.2C274.199 414.2 276.099 414.2 277.999 413.6C286.899 411.1 292.399 401.4 290.099 392.3V392.4ZM256.999 386.5H278.199C278.899 386.5 279.399 386.7 279.399 387.5C279.399 388.3 278.899 388.4 278.199 388.4H256.899C256.199 388.4 255.799 388.2 255.799 387.5C255.799 386.8 256.299 386.6 256.999 386.6V386.5ZM197.099 409.3C191.399 409.3 186.499 404.4 186.499 398.5C186.499 392.6 191.399 384.7 198.999 384.6C204.599 384.6 209.399 389.7 209.499 395.9C209.499 403.2 203.999 409.2 197.099 409.3ZM215.499 388.4C214.799 388.4 214.299 388.1 214.299 387.5C214.299 386.9 214.799 386.6 215.499 386.6H238.399C239.099 386.6 239.599 386.9 239.599 387.6C239.599 388.3 239.099 388.5 238.499 388.5H215.499V388.4ZM228.099 406.8H217.599C216.999 406.8 216.599 406.6 216.599 405.9C216.599 405.2 216.899 404.9 217.599 404.9H228.099C228.699 404.9 229.199 405.2 229.199 405.8C229.199 406.4 228.699 406.7 228.099 406.7V406.8ZM224.899 397.6C224.199 397.6 223.599 397.6 223.599 396.7C223.599 395.8 224.199 395.8 224.899 395.8H261.599C262.299 395.8 262.899 395.8 262.899 396.7C262.899 397.6 262.299 397.6 261.599 397.6H224.899ZM279.199 406.8H248.799C248.099 406.8 247.499 406.8 247.499 405.9C247.499 405 248.099 405 248.799 405H279.299C279.999 405 280.499 405.2 280.499 405.9C280.499 406.6 279.999 406.9 279.299 406.9L279.199 406.8Z" fill="#1a3263" style="fill: #1a3263; fill: var(--tblr-illustrations-primary, var(--tblr-primary, #1a3263));"/>
    <path d="M229.202 405.9C229.202 406.6 228.702 406.8 228.102 406.8H217.602C217.002 406.8 216.602 406.6 216.602 405.9C216.602 405.2 216.902 404.9 217.602 404.9H228.102C228.702 404.9 229.202 405.2 229.202 405.8V405.9Z" fill="#DADCE0"/>
    <path d="M280.4 405.8C280.4 406.5 279.9 406.8 279.2 406.8H248.8C248.1 406.8 247.5 406.8 247.5 405.9C247.5 405 248.1 405 248.8 405H279.3C280 405 280.5 405.2 280.5 405.9L280.4 405.8Z" fill="#DADCE0"/>
    <path d="M262.802 396.7C262.802 397.7 262.202 397.6 261.502 397.6H224.902C224.202 397.6 223.602 397.6 223.602 396.7C223.602 395.8 224.202 395.8 224.902 395.8H261.602C262.302 395.8 262.902 395.8 262.902 396.7H262.802Z" fill="#DADCE0"/>
    <path d="M279.401 387.5C279.401 388.2 278.901 388.4 278.201 388.4H256.901C256.201 388.4 255.801 388.2 255.801 387.5C255.801 386.8 256.301 386.6 257.001 386.6H278.201C278.901 386.6 279.401 386.8 279.401 387.6V387.5Z" fill="#DADCE0"/>
    <path d="M239.601 387.5C239.601 388.1 239.101 388.4 238.501 388.4H215.501C214.801 388.4 214.301 388.1 214.301 387.5C214.301 386.9 214.801 386.6 215.501 386.6H238.501C239.201 386.6 239.701 386.9 239.701 387.6H239.601V387.5Z" fill="#DADCE0"/>
    <path d="M199.001 384.6C191.401 384.7 186.401 390.2 186.501 398.5C186.501 404.5 191.401 409.4 197.101 409.3C204.001 409.3 209.501 403.2 209.501 395.9C209.501 388.6 204.601 384.5 199.001 384.6ZM199.701 403.9C197.101 404.9 194.801 404.5 192.901 402.5C189.501 398.9 191.801 390.8 196.501 389.5C197.001 389.4 197.801 389.1 198.101 389.7C198.401 390.4 197.701 390.7 197.201 390.9C194.201 392.7 193.001 395.4 193.201 398.8C193.301 400.7 194.501 401.8 196.301 402.2C198.201 402.6 199.901 402.2 201.201 400.4C202.101 399 202.501 397.5 202.601 395.9C202.601 395.3 202.301 394.5 203.201 394.4C204.101 394.4 204.201 395.2 204.401 395.9V396.8C204.301 400 202.301 403 199.601 404L199.701 403.9Z" fill="#DADCE0"/>
    <path d="M368.402 346.6C368.602 344.9 368.602 343.2 368.402 341.5C367.602 335.5 363.902 331 358.902 330.6C352.502 330.2 346.402 336.7 345.302 345C345.202 345.9 345.102 346.8 345.102 347.7C345.102 354.8 349.102 360.5 354.802 360.8C361.202 361.3 367.302 354.9 368.502 346.5H368.402V346.6Z" fill="#FFCB9D" style="fill: #FFCB9D; fill: var(--tblr-illustrations-skin, #FFCB9D);"/>
    <path d="M368.4 346.6C368.6 344.9 368.6 343.2 368.4 341.5C367.7 341.5 367.1 341.5 366.5 341.6C358.2 342.2 355 345.6 346.2 347.6C345.8 347.6 345.4 347.7 345 347.8C345 354.9 349 360.6 354.7 360.9C361.1 361.3 367.2 354.9 368.4 346.5V346.6Z" fill="black" opacity="0.1"/>
    <path d="M412.1 363.8C410 394.4 394.1 416.8 379.9 417.8C364 418.9 340.9 394.1 340.5 354.4C346.3 353.8 352.6 352.8 359.2 351.5C364 350.5 368.6 349.5 372.9 348.3C373.3 362.3 375.6 372.6 377.6 379.5C378.4 382.1 380.2 387.8 381.9 387.7C383.1 387.7 384.1 384.8 385.8 376.2C386 375.4 386.1 374.6 386.3 373.7C387.2 369.1 388.2 363.2 389.1 356.5C391.8 358.1 395.3 359.9 399.7 361.4C404.5 362.9 408.7 363.6 412 363.8H412.1Z" fill="#DADCE0"/>
    <path d="M416.869 103.4L422.569 114.9C423.169 116.1 424.369 117 425.769 117.2L438.469 119C441.969 119.5 443.369 123.8 440.869 126.2L431.669 135.2C430.669 136.2 430.169 137.6 430.469 139L432.669 151.7C433.269 155.2 429.669 157.8 426.469 156.2L415.069 150.2C413.869 149.6 412.369 149.6 411.069 150.2L399.669 156.2C396.569 157.8 392.869 155.2 393.469 151.7L395.669 139C395.869 137.6 395.469 136.2 394.469 135.2L385.269 126.2C382.769 123.7 384.169 119.5 387.669 119L400.369 117.2C401.769 117 402.969 116.1 403.569 114.9L409.269 103.4C410.869 100.2 415.369 100.2 416.869 103.4Z" fill="#0b1b3b" class="tblr-illustrations tblr-illustrations-vocate tblr-illustrations-camping-c"/>
    <path d="M319.299 197.8L322.599 204.5C322.899 205.2 323.599 205.7 324.399 205.8L331.799 206.9C333.699 207.2 334.499 209.5 333.099 210.9L327.699 216.1C327.199 216.6 326.899 217.4 326.999 218.2L328.299 225.6C328.599 227.5 326.599 229 324.899 228.1L318.299 224.6C317.599 224.2 316.799 224.2 316.099 224.6L309.499 228.1C307.799 229 305.799 227.5 306.099 225.6L307.399 218.2C307.499 217.4 307.299 216.7 306.699 216.1L301.299 210.9C299.899 209.5 300.699 207.2 302.599 206.9L309.999 205.8C310.799 205.7 311.399 205.2 311.799 204.5L315.099 197.8C315.999 196 318.499 196 319.299 197.8Z" fill="#A6A9B3"/>
    <path d="M242.401 146.9L244.501 151.3C244.801 151.9 245.301 152.3 246.001 152.4L250.801 153.1C252.401 153.3 253.101 155.3 251.901 156.5L248.401 159.9C247.901 160.3 247.701 161 247.801 161.7L248.601 166.5C248.901 168.1 247.201 169.3 245.701 168.6L241.401 166.3C240.801 166 240.101 166 239.601 166.3L235.301 168.6C233.901 169.4 232.201 168.1 232.401 166.5L233.201 161.7C233.301 161.1 233.101 160.4 232.601 159.9L229.101 156.5C227.901 155.4 228.601 153.4 230.201 153.1L235.001 152.4C235.601 152.4 236.201 151.9 236.501 151.3L238.601 146.9C239.301 145.4 241.401 145.4 242.101 146.9H242.401Z" fill="#1a3263" style="fill: #1a3263; fill: var(--tblr-illustrations-primary, var(--tblr-primary, #1a3263));"/>
    <path d="M517.898 428.3C487.798 425.4 446.998 421.4 440.398 419.9L433.398 207.6C436.098 254 449.598 370 517.898 428.3Z" fill="black" opacity="0.1"/>
    <path d="M250.398 316C250.598 329.3 241.098 342 228.598 346.1C227.198 346.6 225.698 346.9 224.198 347.1C223.698 347.1 223.098 347 222.598 346.9C222.698 346.6 222.798 346.3 222.998 346C222.998 345.8 223.198 345.7 223.298 345.5C230.198 337 229.698 328.4 223.598 319.6C219.998 314.5 216.898 309.1 217.798 302.4C218.098 300.4 218.498 298.4 218.798 296.3V295.5C218.498 295.5 218.198 295.6 217.998 295.8C208.498 302.5 200.998 316.9 206.098 329.9C206.198 330.2 206.098 330.7 206.198 331.1C205.798 331 205.298 330.9 204.998 330.7C201.798 328.4 199.698 325.2 197.798 321.9C197.698 321.6 197.498 321.4 197.298 321.2C197.198 321.5 196.998 321.8 196.998 322.1C194.798 330.8 197.998 338 203.498 344.6C203.798 345 204.398 345.8 204.198 346C204.198 346 204.098 346.1 203.998 346.2C203.798 346.4 203.498 346.3 203.198 346.2C202.998 346.1 202.798 346 202.598 345.9C182.498 339.1 176.298 315.5 190.498 298.8C194.998 293.5 200.598 289 204.898 283.5C210.398 276.4 213.398 268.4 209.498 259.4C209.398 259.2 209.498 258.8 209.498 258.6C209.898 258.6 210.298 258.6 210.698 258.8C218.198 262.1 223.698 267.8 228.298 274.3C235.798 284.8 236.798 296.4 234.098 308.6V309.5C234.398 309.4 234.698 309.3 234.898 309.1C239.298 305.6 241.698 301 242.398 295.5C242.398 295 242.798 294.6 242.998 294.1C243.398 294.4 243.798 294.7 244.098 295.1C248.398 301.5 250.698 308.5 250.698 316.2L250.398 316Z" fill="#1a3263" style="fill: #1a3263; fill: var(--tblr-illustrations-primary, var(--tblr-primary, #1a3263));"/>
    <path d="M223.202 345.6C223.102 345.7 223.002 345.9 222.902 346.1H204.002C204.002 346.1 204.102 346.1 204.202 345.9C204.302 345.7 203.802 344.9 203.502 344.5C198.002 338 194.802 330.8 197.002 322C197.002 321.7 197.202 321.4 197.302 321.1C197.502 321.3 197.702 321.6 197.802 321.8C199.702 325.2 201.802 328.3 205.002 330.6C205.302 330.8 205.802 330.9 206.202 331C206.202 330.6 206.202 330.2 206.102 329.8C201.002 316.7 208.402 302.4 218.002 295.7C218.202 295.6 218.502 295.5 218.802 295.4V296.2C218.502 298.2 218.002 300.2 217.802 302.3C216.902 309 220.002 314.4 223.602 319.5C229.702 328.3 230.202 336.8 223.302 345.4V345.6H223.202Z" fill="#DADCE0"/>
    <path d="M375 293C373.6 295 372 296.9 370.2 298.5C367.1 300.3 359 304.5 350.3 305.8C349.7 305.8 349.2 305.9 348.6 306C343.3 306.5 338 305.8 333.4 302.7C330.5 300.8 328.2 298.2 326.5 295.2C342 302.5 360.1 301.6 375 292.9V293Z" fill="black" opacity="0.5"/>
</svg>
