<svg xmlns="http://www.w3.org/2000/svg" width="800" height="600" fill="none" viewBox="0 0 800 600">
    <style>
        :where(.theme-dark, [data-theme="dark"]) .tblr-illustrations-carolers-a { fill: black; opacity: 0.07; } :where(.theme-dark, [data-theme="dark"]) .tblr-illustrations-carolers-b { fill: black; opacity: 0.3; } :where(.theme-dark, [data-theme="dark"]) .tblr-illustrations-carolers-c { fill: #24304d; }
        @media (prefers-color-scheme: dark) { .tblr-illustrations-carolers-a { fill: black; opacity: 0.07; } .tblr-illustrations-carolers-b { fill: black; opacity: 0.3; } .tblr-illustrations-carolers-c { fill: #24304d; } }
    </style>
    <path d="M138.184 317.519C138.184 360.676 183.917 391.962 204.017 426.905C225.003 462.962 229.879 517.877 265.962 538.62C300.817 558.807 350.553 536.178 393.741 536.178C436.929 536.178 486.665 558.693 521.519 538.62C557.488 517.763 562.478 462.849 583.35 426.905C603.551 392.076 649.184 360.676 649.184 317.519C649.184 274.362 603.551 243.076 583.35 208.132C562.478 172.189 557.488 117.161 521.519 96.4173C486.551 76.2308 436.929 98.8599 393.741 98.8599C350.553 98.8599 300.817 76.2308 265.962 96.3034C229.993 117.161 225.003 172.075 204.131 208.019C183.93 243.076 138.298 274.362 138.184 317.506" fill="#1a3263" style="fill: #1a3263; fill: var(--tblr-illustrations-primary, var(--tblr-primary, #1a3263));" opacity="0.02" class="tblr-illustrations tblr-illustrations-vocate tblr-illustrations-carolers-a"/>
    <path d="M158.184 526.5C158.184 530.067 263.807 533 393.684 533C523.561 533 629.184 530.067 629.184 526.5C629.184 522.933 523.852 520 393.684 520C263.516 520 158.184 522.933 158.184 526.5Z" fill="#d9e2f3" opacity="0.5" class="tblr-illustrations tblr-illustrations-vocate tblr-illustrations-carolers-b"/>
    <path d="M353.184 346L336.722 507H327.588L311.417 374.559L293.718 507H281.691C281.691 507 269.184 359.977 269.184 351.475L306.642 349.04L353.184 346.013V346Z" fill="#1a3263" style="fill: #1a3263; fill: var(--tblr-illustrations-primary, var(--tblr-primary, #1a3263));"/>
    <path d="M311.184 374.526L293.582 507H281.622C281.622 507 269.184 359.94 269.184 351.435L306.435 349L311.184 374.526Z" fill="black" opacity="0.1"/>
    <path d="M249.548 226C248.633 227.137 247.344 228.856 246.003 231.068C243.889 234.594 240.769 240.875 239.081 256.092C238.385 262.399 237.856 270.854 238.423 280.927L244.185 294.589C244.185 294.589 265.455 303.208 264.488 301.856C263.521 300.504 272.184 261.287 272.184 261.287C264.643 249.52 257.089 237.766 249.548 226Z" fill="#DADCE0"/>
    <path d="M337.184 145.365C337.145 145.515 337.094 145.665 337.056 145.828C335.973 149.953 334.483 156.034 332.636 163.017L331.439 166.69C328.789 174.89 325.171 182.525 320.7 189.922C320.624 190.022 320.56 190.135 320.484 190.235C319.643 191.489 318.802 192.742 317.961 193.996C314.407 198.71 293.058 201.318 276.103 196.215C259.135 191.113 256.244 173.322 264.995 167.605C268.09 165.211 270.816 162.352 272.842 159.105C272.855 159.068 272.893 159.043 272.905 159.005C275.95 154.692 278.6 150.053 280.803 145.352C280.982 145.001 281.3 144.362 281.631 143.672C281.708 143.509 281.784 143.371 281.861 143.208C282.383 142.18 282.727 141.453 282.905 141.089C282.982 140.926 283.02 140.839 283.02 140.839L298.866 132H298.93L331.49 138.218C330.076 143.634 330.929 147.684 332.509 148.173C332.712 148.236 332.929 148.236 333.171 148.198C334.763 147.947 336.891 145.703 337.184 145.352V145.365Z" fill="#FFCB9D" style="fill: #FFCB9D; fill: var(--tblr-illustrations-skin, #FFCB9D);"/>
    <path d="M336.184 146.049C335.122 150.224 333.66 156.379 331.848 163.448L330.673 167.166C328.074 175.466 324.526 183.195 320.14 190.683C320.065 190.784 320.003 190.898 319.928 191C318.103 190.023 316.466 188.665 315.129 186.939C313.568 185.086 312.493 182.84 311.731 180.467C311.156 177.827 310.869 175.225 311.031 172.522C310.944 170.847 311.131 169.21 311.343 167.42C306.795 168.068 299.736 168.575 291.464 166.798C283.367 165.073 277.219 161.925 273.184 159.488C273.196 159.45 273.234 159.425 273.246 159.387C276.232 155.021 278.831 150.326 280.993 145.567C281.168 145.211 281.48 144.564 281.805 143.866C281.88 143.701 281.955 143.561 282.03 143.396C282.542 142.305 283.017 141.264 283.017 141.264H283.055L298.773 132.051L298.861 132L331.036 138.219L331.473 138.269C330.336 142.813 330.661 146.341 331.673 147.826C331.76 148.105 332.098 148.282 332.373 148.447C332.423 148.485 332.46 148.498 332.498 148.536C333.785 149.031 335.346 147.166 336.184 146.036V146.049Z" fill="black" opacity="0.1"/>
    <path d="M332.489 145.77C329.297 139.882 325.437 138.09 320.492 133.046C319.748 132.291 319.559 131.984 319.572 131.881C319.382 131.817 319.08 131.689 318.562 131.446C320.48 132.355 316.418 130.895 316.191 130.831C313.201 130.14 310.161 129.692 307.121 129.372C306.276 129.282 305.443 129.206 304.598 129.142C305.405 129.167 305.305 129.154 304.295 129.116C302.655 129.026 301.028 129.014 299.388 129.001C296.071 128.988 292.753 129.116 289.436 129.334C285.79 129.577 282.17 129.987 278.537 130.294C278.045 130.319 277.553 130.358 277.061 130.396C276.089 131.113 274.828 132.009 274.74 132.086C272.52 133.801 269.87 134.582 267.184 134.608C267.272 135.158 267.348 135.709 267.461 136.246C267.612 136.976 267.776 137.693 267.978 138.397C268.104 138.832 268.231 139.254 268.369 139.69C268.382 139.754 268.395 139.818 268.432 139.869C268.533 140.176 268.647 140.496 268.76 140.803C268.811 140.957 268.874 141.098 268.937 141.251C269.076 141.635 269.24 142.019 269.404 142.404C269.568 142.775 269.744 143.146 269.934 143.517C270.06 143.786 270.198 144.055 270.337 144.324C270.476 144.58 270.615 144.849 270.766 145.105C271.271 146.013 271.838 146.884 272.456 147.742C272.608 147.959 272.772 148.177 272.936 148.382C273.264 148.817 273.592 149.226 273.945 149.636C274.197 149.93 274.462 150.212 274.727 150.481C275.333 151.121 275.976 151.723 276.657 152.299C276.745 152.375 276.846 152.465 276.935 152.542C276.935 152.542 276.947 152.555 276.96 152.567C277.212 152.785 277.477 152.99 277.742 153.182C277.767 153.22 277.792 153.233 277.83 153.246C277.931 153.323 278.019 153.4 278.12 153.464C278.511 153.758 278.915 154.04 279.344 154.321C279.584 154.488 279.836 154.641 280.088 154.795C280.088 154.795 280.101 154.808 280.113 154.808C280.378 154.974 280.643 155.128 280.921 155.281C281.06 155.358 281.186 155.435 281.312 155.512C281.564 155.653 281.829 155.793 282.094 155.921C283.053 156.433 284.062 156.881 285.096 157.278C285.248 157.342 285.399 157.393 285.563 157.457C285.575 157.457 285.601 157.483 285.626 157.483C285.853 157.573 286.08 157.649 286.32 157.726C286.547 157.816 286.786 157.893 287.014 157.969C287.379 158.098 287.758 158.2 288.136 158.315C288.149 158.315 288.174 158.315 288.187 158.328C288.578 158.443 288.956 158.546 289.347 158.635C289.372 158.635 289.385 158.648 289.41 158.648C289.536 158.674 289.663 158.712 289.789 158.738C290.129 158.827 290.47 158.891 290.81 158.968C291 159.019 291.189 159.058 291.391 159.083C291.794 159.16 292.185 159.237 292.589 159.301C293.081 159.39 293.586 159.454 294.103 159.518H294.204C294.507 159.57 294.809 159.595 295.112 159.621C295.781 159.685 296.437 159.736 297.118 159.774C297.294 159.787 297.458 159.787 297.622 159.8C297.786 159.813 297.963 159.8 298.127 159.813C298.354 159.826 298.594 159.826 298.821 159.826C299.527 159.826 300.234 159.826 300.94 159.813C301.154 159.813 301.381 159.8 301.608 159.787C301.836 159.787 302.05 159.774 302.277 159.749C302.592 159.736 302.92 159.71 303.236 159.685C303.652 159.646 304.081 159.621 304.497 159.582C307.499 159.275 310.552 158.699 313.655 157.854C314.046 157.752 314.425 157.637 314.816 157.521C315.585 157.291 316.367 157.048 317.15 156.779C317.541 156.638 317.932 156.51 318.31 156.369C319.559 155.921 320.795 155.422 322.044 154.872C322.359 154.744 322.662 154.603 322.977 154.462L323.104 154.628V154.782C322.738 156.536 322.523 158.302 322.031 159.89C321.956 160.491 321.766 160.901 321.691 161.503L321.615 162.091C320.152 165.663 319.117 169.426 318.247 173.075C318.108 175.456 318.55 177.901 319.786 180C321.085 176.569 323.066 173.51 325.854 171.155C326.825 170.374 327.935 169.759 329.045 169.158C329.499 168.838 329.941 168.505 330.37 168.159C330.445 168.095 330.508 168.044 330.559 167.993C333.902 165.292 336.538 161.835 338.266 157.918C339.036 156.152 339.629 154.308 340.02 152.375C340.083 152.145 340.146 151.915 340.184 151.671C336.967 150.801 334.091 148.868 332.451 145.834L332.489 145.77Z" fill="#0b1b3b" class="tblr-illustrations tblr-illustrations-vocate tblr-illustrations-carolers-c"/>
    <path d="M267.196 134C267.98 139.851 270.305 145.288 274.071 149.703C284.106 161.25 303.973 163.399 323.195 154.557L323.321 154.725V154.881C325.684 153.508 328.086 151.981 330.184 150.427L330.019 150.557C325.583 151.826 299.056 160.978 278.103 145.508C273.894 142.259 270.217 138.324 267.184 134.013L267.196 134Z" fill="black" opacity="0.5"/>
    <path d="M357.171 351.249C356.842 351.249 356.513 351.249 356.184 351.262C325.97 351.845 295.743 352.429 265.491 353C260.595 325.53 255.711 298.072 250.802 270.615C250.802 270.551 250.777 270.475 250.764 270.412C250.157 267.062 249.575 263.725 248.98 260.388C247.791 253.79 246.614 247.205 245.437 240.619C243.856 231.763 249.84 223.338 258.697 221.917L270.046 220.102C271.071 219.95 274.386 219.341 277.068 216.715C279.333 214.507 279.902 212.083 280.092 211.119C289.873 210.408 299.653 209.711 309.433 209C309.433 209.787 309.547 211.855 311.167 213.834C313.659 216.867 317.657 217.121 318.252 217.146C321.643 215.649 326.679 213.898 333.005 213.225C339.824 212.502 345.493 213.327 349.251 214.177C349.415 227.474 349.908 241.343 350.819 255.744C351.465 265.882 352.287 275.741 353.249 285.282L353.527 289.964L354.362 303.909L357.184 351.262L357.171 351.249Z" fill="#DADCE0"/>
    <path d="M356.171 351.255C325.739 351.841 295.295 352.427 264.825 353C261.359 336.859 259.027 322.833 257.434 311.634C255.242 296.245 254.21 284.728 253.955 281.76C252.885 269.53 252.4 258.79 252.184 250C266.775 263.338 285.317 278.155 308.166 292.155C324.58 302.22 340.229 310.042 354.336 316.157L356.184 351.255H356.171Z" fill="black" opacity="0.1"/>
    <path d="M282.555 184.55C283.661 180.028 281.861 175.702 278.534 174.888C275.208 174.074 271.614 177.08 270.507 181.602C269.401 186.123 271.201 190.449 274.528 191.263C277.854 192.077 281.448 189.071 282.555 184.55Z" fill="black" opacity="0.1"/>
    <path d="M271.246 129.639L292.303 135.377L293.106 135.59L331.43 146.024L331.631 146.074L335.972 147.255L336.186 147.318L337.089 147.569L337.177 147.594L342.347 149L343.1 146.25C343.351 145.309 343.564 144.354 343.715 143.413C344.706 137.788 344.092 132.2 342.184 127.14C341.883 126.349 341.557 125.571 341.193 124.805C337.441 116.92 330.413 110.654 321.328 108.181L319.634 107.716L313.862 106.147L309.984 105.092C303.07 103.209 296.055 103.836 289.919 106.398C287.76 107.302 285.702 108.444 283.795 109.813C278.926 113.291 275.036 118.2 272.827 124.127C272.489 125.018 272.187 125.935 271.936 126.877L271.184 129.626L271.246 129.639Z" fill="#1a3263" style="fill: #1a3263; fill: var(--tblr-illustrations-primary, var(--tblr-primary, #1a3263));"/>
    <path d="M346.998 148.887L345.43 154.587C344.677 157.331 341.617 158.752 338.991 157.595C338.914 157.57 338.838 157.532 338.774 157.507C337.55 156.978 336.313 156.437 335.051 155.909C334.821 155.808 334.592 155.707 334.375 155.619C334.362 155.619 334.35 155.607 334.324 155.607C333.916 155.443 333.495 155.267 333.087 155.103C331.009 154.248 328.854 153.392 326.623 152.574C325.947 152.31 325.272 152.045 324.57 151.806C324.558 151.806 324.545 151.806 324.519 151.794C323.895 151.567 323.27 151.341 322.632 151.127C319.751 150.095 316.754 149.088 313.643 148.145C313.019 147.943 312.381 147.754 311.756 147.566C309.742 146.962 307.676 146.358 305.572 145.791C304.999 145.628 304.412 145.489 303.851 145.338C303.214 145.175 302.589 144.999 301.964 144.848C299.121 144.13 296.341 143.463 293.613 142.872C292.975 142.734 292.338 142.595 291.7 142.469C288.831 141.878 286.026 141.337 283.298 140.871C283.094 140.833 282.902 140.808 282.711 140.783C282.66 140.783 282.609 140.771 282.558 140.758C281.921 140.657 281.296 140.544 280.658 140.456C277.955 140.016 275.316 139.638 272.766 139.336C272.129 139.248 271.504 139.172 270.879 139.097H270.854C270.356 139.034 269.846 138.971 269.362 138.933C268.763 138.87 268.201 138.694 267.704 138.417C265.817 137.461 264.759 135.309 265.345 133.145C265.345 133.145 265.345 133.132 265.345 133.12L266.914 127.419C267.5 125.293 269.515 123.871 271.746 124.009C272.294 124.047 272.868 124.085 273.429 124.123C273.965 124.16 274.487 124.198 275.023 124.248C275.699 124.299 276.374 124.362 277.063 124.412C279.575 124.638 282.176 124.928 284.892 125.28C285.542 125.368 286.205 125.456 286.881 125.544C289.711 125.947 292.631 126.425 295.653 127.004C296.29 127.13 296.928 127.256 297.578 127.382C300.409 127.961 303.316 128.615 306.299 129.357C306.924 129.521 307.549 129.672 308.186 129.848C309.079 130.075 309.997 130.326 310.902 130.578C312.738 131.094 314.523 131.61 316.283 132.163C316.895 132.352 317.507 132.541 318.119 132.742C321.064 133.699 323.907 134.693 326.623 135.712C327.222 135.939 327.809 136.165 328.395 136.392C331.353 137.524 334.171 138.707 336.823 139.89C337.397 140.154 337.984 140.418 338.545 140.67C340.1 141.375 341.592 142.079 343.033 142.784C343.568 143.048 344.078 143.312 344.601 143.564C345.659 144.093 346.45 144.986 346.858 146.005C347.215 146.899 347.291 147.918 347.023 148.912L346.998 148.887Z" fill="#DADCE0"/>
    <path d="M320.184 114C326.259 114 331.184 109.075 331.184 103C331.184 96.9249 326.259 92 320.184 92C314.108 92 309.184 96.9249 309.184 103C309.184 109.075 314.108 114 320.184 114Z" fill="#DADCE0"/>
    <path d="M288.554 299.678C288.554 299.678 309.38 295.438 304.42 308.169C299.46 320.9 284.184 317.621 284.184 317.621L288.541 299.678H288.554Z" fill="#DADCE0"/>
    <path d="M224.196 276.34L224.298 276.71C225.355 277.209 242.334 291.441 248.189 296.351C249.411 297.373 250.15 298 250.15 298C262.152 292.745 274.155 287.502 286.158 282.247C286.158 282.221 286.158 282.221 286.184 282.183C285.458 281.02 284.771 279.856 284.083 278.68C283.663 277.989 283.243 277.273 282.836 276.57C282.263 275.585 281.105 275.112 280.01 275.368C269.038 278.027 258.092 280.687 247.133 283.334C242.398 279.127 237.676 274.92 232.966 270.714C231.808 269.729 230.115 269.767 229.008 270.803C228.995 270.829 228.957 270.841 228.944 270.854C228.766 271.02 228.588 271.187 228.397 271.379C228.206 271.558 228.015 271.749 227.824 271.941C227.633 272.133 227.455 272.312 227.264 272.517C226.78 272.99 226.322 273.476 225.889 273.949C225.215 274.69 224.667 275.381 224.375 275.892C224.285 276.058 224.222 276.212 224.184 276.327L224.196 276.34Z" fill="#0b1b3b" class="tblr-illustrations tblr-illustrations-vocate tblr-illustrations-carolers-c"/>
    <path d="M224.184 275.982L245.962 294L246.386 290.417V290.326L247.184 283.537C242.398 279.266 237.626 274.995 232.866 270.724C231.696 269.725 229.985 269.764 228.866 270.815C228.853 270.841 228.814 270.854 228.802 270.867C228.622 271.036 228.441 271.218 228.248 271.4C228.056 271.581 227.863 271.776 227.67 271.971C227.477 272.178 227.297 272.36 227.104 272.555C226.615 273.035 226.152 273.528 225.714 274.009C225.033 274.762 224.479 275.463 224.184 275.982Z" fill="black" opacity="0.1"/>
    <path d="M308.171 337.89C308.057 338.891 307.485 339.752 306.659 340.233L305.108 340.677L293.151 344.046C283.734 346.706 274.331 349.34 264.915 352C262.487 344.894 260.073 337.789 257.646 330.683C253.834 317.08 250.034 303.489 246.222 289.886C246.196 289.797 246.184 289.759 246.184 289.759C259.12 285.896 272.056 282.033 284.992 278.17C287.153 277.537 289.415 278.727 290.088 280.855C290.469 282.071 290.863 283.274 291.244 284.478C296.658 301.501 302.046 318.524 307.447 335.547C307.688 336.332 307.942 337.117 308.184 337.89H308.171Z" fill="#1a3263" style="fill: #1a3263; fill: var(--tblr-illustrations-primary, var(--tblr-primary, #1a3263));"/>
    <path d="M226.227 274.273C225.253 273.517 223.887 274.449 224.241 275.62L224.544 276.615L224.646 276.98L241.752 333.705L265.184 352L248.394 296.321L246.547 290.189L246.521 290.113L226.215 274.273H226.227Z" fill="#1a3263" style="fill: #1a3263; fill: var(--tblr-illustrations-primary, var(--tblr-primary, #1a3263));"/>
    <path d="M226.227 274.273C225.253 273.517 223.887 274.449 224.241 275.62L224.544 276.615L224.646 276.98L241.752 333.705L265.184 352L248.394 296.321L246.547 290.189L246.521 290.113L226.215 274.273H226.227Z" fill="black" opacity="0.1"/>
    <path d="M385.499 336.767L387.184 334.495L382.333 330.941C382.869 330.509 383.163 330.255 383.163 330.255C365.74 322.043 339.191 263.146 326.236 232.238C321.513 220.953 318.603 213.388 318.603 213.388C318.603 213.388 309.464 208.285 302.138 209.085C299.01 209.428 296.215 210.849 294.62 214.188C293.356 216.815 292.82 220.636 293.445 226.056C293.943 230.448 295.564 236.452 297.989 243.484C311.149 281.995 347.539 350.983 347.539 350.983C347.539 350.983 347.539 350.983 347.552 350.983L349.339 357L352.057 356.2L350.309 350.298C352.274 349.701 354.355 348.864 356.461 347.886L358.273 354.017L360.992 353.217L359.039 346.617C360.252 345.995 361.464 345.322 362.664 344.624L367.604 350.019L369.71 348.115L365.166 343.139C366.455 342.352 367.719 341.54 368.944 340.74L372.786 346.325L375.134 344.726L371.293 339.166C372.697 338.201 374.037 337.262 375.262 336.373L378.964 341.743L381.312 340.143L377.547 334.685C378.479 333.987 379.321 333.34 380.049 332.781L385.524 336.792L385.499 336.767Z" fill="#1a3263" style="fill: #1a3263; fill: var(--tblr-illustrations-primary, var(--tblr-primary, #1a3263));"/>
    <path d="M297.964 244C311.844 240.38 320.92 235.845 326.184 232.585C321.468 221.132 318.562 213.454 318.562 213.454C318.562 213.454 309.435 208.275 302.119 209.086L294.612 214.265C293.35 216.932 292.828 220.81 293.439 226.311C293.937 230.769 295.555 236.863 297.977 244H297.964Z" fill="black" opacity="0.1"/>
    <path d="M327.128 202.427L328.416 211.602L328.593 212.874L329.136 216.8C329.413 218.82 328.467 220.814 326.699 221.887C320.627 225.552 310.868 230.289 298.016 232.183C284.394 234.178 273.057 232.134 266 230.164C263.993 229.603 262.528 227.945 262.238 225.913L261.392 219.817L261.178 218.309L260.231 211.54C259.789 208.274 262.516 205.431 265.836 205.718C273.158 206.366 282.059 206.491 292.032 205.244C303.205 203.848 312.686 201.131 320.134 198.338C323.253 197.166 326.674 199.161 327.128 202.44V202.427Z" fill="#1a3263" style="fill: #1a3263; fill: var(--tblr-illustrations-primary, var(--tblr-primary, #1a3263));"/>
    <path d="M310.845 323.24C309.548 324.161 308.238 324.957 306.76 325.53C305.904 325.89 305.035 326.127 304.153 326.376C296.137 328.429 288.148 325.256 286.513 319.247C284.957 313.847 289.056 308.074 295.696 305.449C296.552 305.088 297.305 304.864 298.174 304.628C299.043 304.392 299.808 304.292 300.703 304.168C307.836 303.222 314.386 306.345 315.942 311.745C316.928 315.85 314.827 320.242 310.845 323.253V323.24Z" fill="#FFCB9D" style="fill: #FFCB9D; fill: var(--tblr-illustrations-skin, #FFCB9D);"/>
    <path d="M310.972 322.767C309.706 323.665 308.427 324.442 306.984 325C303.856 318.241 300.248 311.675 296.184 305.414C297.019 305.062 297.754 304.843 298.602 304.613C299.45 304.382 300.197 304.285 301.071 304.164C308.035 303.241 314.429 306.287 315.948 311.554C316.91 315.559 314.859 319.843 310.972 322.779V322.767Z" fill="black" opacity="0.1"/>
    <path d="M232.52 323.604C233.713 323.864 234.881 324.033 236.088 323.994C236.802 323.994 237.476 323.89 238.164 323.799C244.38 322.798 248.895 318.011 248.091 313.147C247.429 308.75 242.719 305.85 237.269 306.006C236.555 306.006 235.971 306.084 235.284 306.175C234.596 306.279 234.038 306.435 233.376 306.63C228.121 308.165 224.591 312.457 225.266 316.854C225.915 320.131 228.783 322.655 232.52 323.604Z" fill="#FFCB9D" style="fill: #FFCB9D; fill: var(--tblr-illustrations-skin, #FFCB9D);"/>
    <path d="M232.468 323.604C233.653 323.864 234.813 324.033 236.011 323.994C235.998 317.979 236.372 311.95 237.184 306C236.475 306 235.895 306.078 235.212 306.169C234.529 306.26 233.975 306.43 233.318 306.625C228.1 308.161 224.596 312.458 225.266 316.859C225.91 320.14 228.757 322.666 232.468 323.617V323.604Z" fill="black" opacity="0.1"/>
    <path d="M353.406 300.088C353.177 300.405 353.012 300.632 352.466 301.353C338.645 319.989 328.149 333.53 320.648 343C318.452 334.82 314.721 324.49 308.121 313.642C304.86 308.281 301.445 303.692 298.184 299.81C306.662 295.638 319.201 287.824 329.126 273.879C331.893 269.997 336.576 263.284 339.445 253.321C344.344 236.29 340.473 221.611 338.277 215.037C338.658 214.961 339.064 214.898 339.483 214.822C339.483 214.822 344.064 214.063 348.494 214.051C348.608 214.038 348.71 214.025 348.824 214V214.051C348.925 214.025 349.027 214 349.116 214C349.332 214.114 349.547 214.228 349.776 214.341C359.891 219.778 364.562 226.39 366.377 229.298C382.99 255.963 359.269 291.934 353.406 300.076V300.088Z" fill="#DADCE0"/>
    <path d="M277.184 124.173C275.887 126.882 272.949 133.688 273.011 140C272.393 139.907 271.789 139.827 271.184 139.746C271.184 133.541 273.727 127.176 275.208 124C275.863 124.053 276.517 124.12 277.184 124.173Z" fill="#1a3263" style="fill: #1a3263; fill: var(--tblr-illustrations-primary, var(--tblr-primary, #1a3263));"/>
    <path d="M287.184 126.256C285.681 128.707 282.159 135.11 282.317 141C281.601 140.902 280.9 140.793 280.184 140.707C280.141 134.866 283.247 128.854 284.951 126C285.681 126.085 286.425 126.171 287.184 126.256Z" fill="#1a3263" style="fill: #1a3263; fill: var(--tblr-illustrations-primary, var(--tblr-primary, #1a3263));"/>
    <path d="M293.151 143C292.503 142.861 291.855 142.721 291.207 142.594C290.908 136.61 293.579 130.284 295.226 127C295.874 127.127 296.522 127.254 297.184 127.38C295.628 130.423 292.672 137.067 293.138 142.987L293.151 143Z" fill="#1a3263" style="fill: #1a3263; fill: var(--tblr-illustrations-primary, var(--tblr-primary, #1a3263));"/>
    <path d="M304.001 146C303.387 145.836 302.786 145.66 302.185 145.509C302.111 139.298 304.921 132.885 306.368 130C306.969 130.164 307.57 130.315 308.184 130.491C306.871 133.074 303.792 139.839 304.013 146H304.001Z" fill="#1a3263" style="fill: #1a3263; fill: var(--tblr-illustrations-primary, var(--tblr-primary, #1a3263));"/>
    <path d="M318.17 132.616C316.781 135.106 313.105 142.334 313.26 149C312.572 148.786 311.871 148.585 311.184 148.384C311.24 141.665 314.606 134.798 316.164 132C316.837 132.201 317.51 132.402 318.184 132.616H318.17Z" fill="#1a3263" style="fill: #1a3263; fill: var(--tblr-illustrations-primary, var(--tblr-primary, #1a3263));"/>
    <path d="M324.219 152C324.219 152 324.192 152 324.166 151.987C323.516 151.762 322.866 151.537 322.203 151.325C321.925 145.425 324.656 139.225 326.34 136C326.964 136.225 327.574 136.45 328.184 136.675C326.539 139.825 323.649 146.288 324.206 152H324.219Z" fill="#1a3263" style="fill: #1a3263; fill: var(--tblr-illustrations-primary, var(--tblr-primary, #1a3263));"/>
    <path d="M335.002 156C334.793 155.9 334.584 155.799 334.386 155.711C334.375 155.711 334.363 155.699 334.34 155.699C333.968 155.535 333.585 155.359 333.214 155.196C332.9 149.482 335.106 143.403 336.616 140C337.139 140.264 337.673 140.527 338.184 140.779C336.686 144.195 334.398 150.487 335.002 156Z" fill="#1a3263" style="fill: #1a3263; fill: var(--tblr-illustrations-primary, var(--tblr-primary, #1a3263));"/>
    <path d="M315.184 526L339.85 525.45C339.85 525.45 341.433 519.16 337.703 516.583C333.96 514.007 319.68 520.473 315.184 526Z" fill="#0b1b3b" class="tblr-illustrations tblr-illustrations-vocate tblr-illustrations-carolers-c"/>
    <path d="M267.184 526L291.85 525.45C291.85 525.45 293.433 519.16 289.703 516.583C285.96 514.007 271.68 520.473 267.184 526Z" fill="#0b1b3b" class="tblr-illustrations tblr-illustrations-vocate tblr-illustrations-carolers-c"/>
    <path d="M578.184 105.67L576.21 105L568.51 127.143C567.562 125.79 565.974 124.59 563.975 123.92C560.144 122.618 556.288 123.705 555.378 126.334C554.468 128.963 556.839 132.148 560.669 133.449C564.5 134.751 568.357 133.664 569.266 131.035L569.356 131.073L578.184 105.67Z" fill="#1a3263" style="fill: #1a3263; fill: var(--tblr-illustrations-primary, var(--tblr-primary, #1a3263));"/>
    <path d="M210.158 179.669L204.043 146L180.504 157.712L184.711 180.848C183.271 180.133 181.35 179.858 179.341 180.221C175.487 180.911 172.758 183.619 173.238 186.278C173.719 188.936 177.244 190.529 181.097 189.839C184.951 189.15 187.68 186.441 187.2 183.782H187.301L182.765 158.828L202.552 148.984L207.593 176.748C206.153 176.033 204.232 175.757 202.223 176.121C198.37 176.81 195.641 179.519 196.121 182.177C196.601 184.836 200.126 186.428 203.98 185.739C207.833 185.049 210.563 182.34 210.082 179.682H210.184L210.158 179.669Z" fill="#1a3263" style="fill: #1a3263; fill: var(--tblr-illustrations-primary, var(--tblr-primary, #1a3263));"/>
    <path d="M416.184 52L389.738 52.0903L383.101 75.3175C382.124 74.0013 380.525 72.8915 378.545 72.3109C374.764 71.2011 371.084 72.4528 370.322 75.1239C369.561 77.7951 372.01 80.8662 375.779 81.976C379.561 83.0857 383.241 81.834 384.002 79.1629L384.091 79.1887L391.248 54.1421L413.468 54.0646L405.511 81.9372C404.534 80.621 402.935 79.5113 400.956 78.9306C397.174 77.8209 393.494 79.0726 392.733 81.7437C391.971 84.4148 394.42 87.486 398.189 88.5957C401.958 89.7054 405.651 88.4537 406.412 85.7826L406.501 85.8084L416.158 52H416.184Z" fill="#1a3263" style="fill: #1a3263; fill: var(--tblr-illustrations-primary, var(--tblr-primary, #1a3263));"/>
    <path d="M572.01 245.587C572.01 245.587 573.754 247.231 575.51 249.575C579.875 255.411 584.24 265.515 561.536 264.967C561.637 265.171 562.841 267.439 563.531 270.369C564.835 275.861 564.384 283.646 551.853 284.64C550.586 284.742 549.206 284.767 547.676 284.729C547.676 284.729 548.203 287.137 547.739 289.724V289.775C547.362 291.89 546.346 294.132 543.888 295.253C540.99 296.579 536.123 296.375 527.97 292.705C522.513 290.246 517.283 287.634 512.491 285.06C496.473 276.485 485.184 268.382 485.184 268.382C485.773 267.375 496.084 246.67 510.321 226.437C512.315 223.608 514.373 220.78 516.505 218.04C527.945 203.222 541.166 190.251 553.659 187.716C555.942 187.244 557.999 187.028 559.83 187.002C583.199 186.696 571.609 219.353 571.609 219.353C571.609 219.353 574.356 219.722 577.605 220.691C586.31 223.264 598.678 230.106 571.973 245.587H572.01Z" fill="#DADCE0"/>
    <path d="M550.184 200C550.184 200 573.707 202.5 551.955 220C551.955 220 563.306 206.323 550.184 200Z" fill="black" opacity="0.1"/>
    <path d="M553.742 228C553.742 228 566.778 237.761 548.184 239C548.184 239 559.392 235.998 553.742 228Z" fill="black" opacity="0.1"/>
    <path d="M562.297 244C562.297 244 571.24 262.431 550.184 253.609C550.184 253.609 564.11 256.325 562.297 244Z" fill="black" opacity="0.1"/>
    <path d="M535.184 216C535.184 216 554.426 217.75 536.638 230C536.638 230 545.922 220.419 535.184 216Z" fill="black" opacity="0.1"/>
    <path d="M572.245 219C572.245 219 584.101 186.7 560.184 187.002C560.646 187.241 576.407 195.417 572.245 219Z" fill="black" opacity="0.1"/>
    <path d="M572.184 246C598.537 230.455 586.339 223.584 577.744 221C577.744 221 591.218 229.15 572.184 246Z" fill="black" opacity="0.1"/>
    <path d="M562.184 264.978C584.257 265.547 580.023 255.071 575.777 249C575.777 249.238 575.716 263.748 562.184 264.978Z" fill="black" opacity="0.1"/>
    <path d="M548.184 283.979C564.436 284.476 565.099 275.872 563.699 270C563.601 270.41 560.753 281.211 548.184 283.979Z" fill="black" opacity="0.1"/>
    <path d="M512.184 285C517.076 287.59 522.403 290.218 527.987 292.692C543.432 299.538 547.364 294.358 548.184 289.73V289.679C548.145 289.205 548.12 288.923 548.12 288.923C548.12 288.923 537.784 295.602 512.196 285H512.184Z" fill="black" opacity="0.1"/>
    <path d="M446.184 262.654C446.184 262.654 434.777 270.682 418.61 279.178C413.774 281.728 408.508 284.315 402.988 286.752C402.279 287.055 401.608 287.345 400.95 287.598C398.241 288.683 395.911 289.352 393.949 289.706C386.062 291.094 383.657 287.307 383.036 283.823V283.773C382.581 281.21 383.1 278.824 383.1 278.824C366.351 279.317 365.654 270.569 367.098 264.61C367.807 261.694 369.009 259.447 369.111 259.258C346.209 259.788 350.615 249.778 355.007 244.009C356.767 241.686 358.54 240.045 358.54 240.045C331.599 224.707 344.069 217.929 352.855 215.379C356.147 214.419 358.907 214.053 358.907 214.053C358.907 214.053 347.209 181.687 370.794 182.002C372.643 182.028 374.706 182.255 377.023 182.709C391.253 185.537 406.394 201.518 418.864 218.471C420.421 220.592 421.94 222.726 423.409 224.846C436.398 243.617 445.576 261.694 446.146 262.628L446.184 262.654Z" fill="#DADCE0"/>
    <path d="M381.184 198C381.184 198 357.66 200.375 379.413 217C379.413 217 368.061 204.007 381.184 198Z" fill="black" opacity="0.1"/>
    <path d="M386.958 227C386.958 227 370.01 239.414 394.184 241C394.184 241 379.627 237.173 386.958 227Z" fill="black" opacity="0.1"/>
    <path d="M402.184 211C402.184 211 382.941 212.75 400.729 225C400.729 225 391.445 215.419 402.184 211Z" fill="black" opacity="0.1"/>
    <path d="M384.182 251C384.182 251 372.447 260.749 389.184 262C389.184 262 379.095 258.988 384.182 251Z" fill="black" opacity="0.1"/>
    <path d="M359.122 214C359.122 214 347.266 181.7 371.184 182.002C370.721 182.241 354.96 190.417 359.122 214Z" fill="black" opacity="0.1"/>
    <path d="M359.184 240C332.83 224.455 345.028 217.584 353.623 215C353.623 215 340.149 223.15 359.184 240Z" fill="black" opacity="0.1"/>
    <path d="M369.184 258.979C347.11 259.512 351.344 249.692 355.59 244C355.59 244.223 355.651 257.826 369.184 258.979Z" fill="black" opacity="0.1"/>
    <path d="M383.184 278.978C366.931 279.51 366.268 270.292 367.668 264C367.766 264.439 370.614 276.012 383.184 278.978Z" fill="black" opacity="0.1"/>
    <path d="M419.184 279C414.291 281.59 408.964 284.218 403.38 286.692C387.935 293.538 384.003 288.358 383.184 283.73V283.679C383.222 283.205 383.248 282.923 383.248 282.923C383.248 282.923 393.583 289.602 419.171 279H419.184Z" fill="black" opacity="0.1"/>
    <path d="M446.184 261.952C446.184 261.952 434.836 270.014 418.753 278.545C413.942 281.106 408.702 283.704 403.211 286.151C402.506 286.455 401.839 286.746 401.184 287C403.854 258.225 415.415 236.27 423.564 224C436.486 242.849 445.617 261.001 446.184 261.939V261.952Z" fill="black" opacity="0.1"/>
    <path d="M529.167 294C528.879 293.617 528.429 293.018 527.817 292.342C522.78 286.755 515.881 286.564 512.393 284.688C496.432 276.104 485.184 267.991 485.184 267.991C485.771 266.984 496.045 246.256 510.231 226C514.043 228.896 526.592 239.189 531.379 257.991C535.766 275.224 531.004 289.28 529.179 294H529.167Z" fill="black" opacity="0.1"/>
    <path d="M517.041 251.494C524.612 260.906 536.105 278.556 533.91 299.693C533.689 301.765 533.364 303.761 532.923 305.694C532.923 305.694 518.936 310.23 518.781 308.676C518.469 305.783 517.339 303.142 516.118 298.038C513.833 288.474 515.3 301.879 513.145 276.206C512.456 267.969 511.716 257.432 511.184 245C513.132 247.16 515.093 249.333 517.041 251.494Z" fill="#1a3263" style="fill: #1a3263; fill: var(--tblr-illustrations-primary, var(--tblr-primary, #1a3263));"/>
    <path d="M497.739 172C507.618 186.241 522.374 196.314 539.184 200.293L486.184 212L497.777 172" fill="#0b1b3b" class="tblr-illustrations tblr-illustrations-vocate tblr-illustrations-carolers-c"/>
    <path d="M497.038 214.221C481.884 217.805 464.127 215.487 456.468 211.575C455.16 211.005 454.004 210.132 453.102 209.017C452.15 207.587 451.273 206.08 450.409 204.497C449.19 202.319 448.085 200.015 447.056 197.723C444.376 191.734 442.242 185.517 440.693 179.149C440.629 178.617 440.223 177.059 439.816 175.262C438.114 167.158 436.933 160.536 436.184 156.016C436.654 156.636 438.953 159.51 440.655 159.004C442.357 158.498 443.512 154.117 442.344 148.33L477.223 144L493.392 154.737C493.392 154.737 494.078 156.687 495.374 159.65C497.507 164.841 499.997 169.88 502.817 174.73C504.824 178.44 507.478 181.744 510.679 184.505C519.672 191.165 515.239 210.005 497.025 214.209" fill="#FFCB9D" style="fill: #FFCB9D; fill: var(--tblr-illustrations-skin, #FFCB9D);"/>
    <path d="M503.184 174.863C490.615 181.251 476.298 183.211 462.509 180.437C459.175 181.341 456.156 183.148 453.778 185.68C450.306 189.498 450.771 192.566 448.192 197.529L447.953 198C445.311 191.98 443.197 185.731 441.65 179.33C441.587 178.795 441.184 177.23 440.782 175.423C439.096 167.277 437.926 160.621 437.184 156.078C437.649 156.701 439.926 159.59 441.612 159.081C443.298 158.572 444.443 154.169 443.285 148.353L477.833 144L493.848 154.792C493.848 154.792 494.528 156.752 495.811 159.73C497.925 164.948 500.391 170.014 503.184 174.888" fill="black" opacity="0.1"/>
    <path d="M421.468 222.975L440.248 219.332H440.285L463.496 214.819C458.487 206.487 454.119 197.827 450.366 188.865C449.637 186.709 449.11 184.516 448.784 182.285C448.596 180.961 448.52 179.613 448.52 178.289C448.52 177.533 448.558 176.701 448.608 175.869C448.696 174.482 449.688 172.806 450.78 170.927C451.884 169.024 453.102 166.906 453.617 164.574C460.622 167.499 486.406 176.802 501.168 163.919C504.545 160.994 507.118 157.276 508.688 153.091L508.524 153.053C509.24 151.049 509.378 148.868 508.914 146.776C506.767 138.179 493.787 135.217 488.352 134.057C466.383 129.217 447.039 142.452 444.026 144.557C435.339 150.961 428.222 159.293 423.226 168.898C423.2 168.936 423.188 168.999 423.15 169.037C421.267 172.717 419.748 176.562 418.606 180.533C418.443 181.087 418.292 181.655 418.154 182.209C417.363 185.285 416.798 188.449 416.459 191.613C416.334 193.226 416.271 194.487 416.221 195.319C415.895 204.823 417.715 214.277 421.493 223L421.468 222.975Z" fill="#0b1b3b" class="tblr-illustrations tblr-illustrations-vocate tblr-illustrations-carolers-c"/>
    <path d="M509.184 153.073C507.59 157.118 504.963 160.712 501.546 163.526C486.59 176.087 460.362 166.999 453.247 164.172C450.672 162.405 448.313 160.383 446.184 158.129C466.776 166.511 490.377 164.598 509.184 153" fill="black" opacity="0.5"/>
    <path d="M421.443 223L440.043 219.359H440.081C440.976 216.285 435.841 212.643 432.148 208.423C426.491 201.896 421.256 190.482 423.183 169L423.084 169.063C421.219 172.742 419.714 176.585 418.583 180.553C418.421 181.108 418.272 181.675 418.135 182.229C417.352 185.303 416.792 188.466 416.457 191.628C416.332 193.241 416.27 194.501 416.221 195.332C415.897 204.832 417.7 214.281 421.443 223Z" fill="black" opacity="0.5"/>
    <path d="M497.876 209.006C501.651 208.685 504.357 204.264 503.921 199.131C503.485 193.998 500.071 190.097 496.296 190.418C492.521 190.739 489.815 195.161 490.251 200.293C490.688 205.426 494.102 209.327 497.876 209.006Z" fill="black" opacity="0.1"/>
    <path d="M453.184 437L447.547 462.27L439.356 499L436.26 498.61L433.396 459.05L432.184 442.107L453.184 437Z" fill="#FFCB9D" style="fill: #FFCB9D; fill: var(--tblr-illustrations-skin, #FFCB9D);"/>
    <path d="M432.184 442.055L452.184 437L446.817 462C442.116 461.079 437.599 459.996 433.316 458.813L432.184 442.055Z" fill="black" opacity="0.15"/>
    <path d="M453.184 529C450.844 520.995 438.902 507.114 434.184 508.045C429.467 508.975 428.407 516.19 428.407 516.19L426.184 523.455L434.611 526.591L437.855 521.084L453.158 529H453.184Z" fill="#0b1b3b" class="tblr-illustrations tblr-illustrations-vocate tblr-illustrations-carolers-c"/>
    <path d="M486.184 438L481.134 461.774L473.026 500L470.078 499.597L467.449 461.396L466.184 443.094L486.184 438Z" fill="#FFCB9D" style="fill: #FFCB9D; fill: var(--tblr-illustrations-skin, #FFCB9D);"/>
    <path d="M486.184 438L481.138 461.989C476.767 462.04 472.236 461.913 467.448 461.672L466.184 443.204L486.184 438Z" fill="black" opacity="0.15"/>
    <path d="M489.184 530C486.931 521.995 475.431 508.114 470.888 509.045C466.345 509.975 465.324 517.19 465.324 517.19L463.184 524.455L471.298 527.591L474.422 522.084L489.159 530H489.184Z" fill="#0b1b3b" class="tblr-illustrations tblr-illustrations-vocate tblr-illustrations-carolers-c"/>
    <path d="M517.184 337.988C486.854 335.123 456.525 332.282 426.184 329.48C426.424 327.421 426.741 325.337 427.032 323.291V323.192C475.508 331.055 506.23 316.705 515.411 311C515.981 320.041 516.614 329.008 517.184 338" fill="black" opacity="0.1"/>
    <path d="M523.844 285.124C521.117 313.136 518.401 358.13 515.686 397.641C514.297 417.87 512.907 436.659 511.518 451C487.987 450.33 464.431 449.648 440.899 448.978C429.657 448.662 418.426 448.334 407.184 448.018C408.662 430.91 410.128 408.229 411.607 384.197C413.468 353.784 415.342 321.197 417.216 295.004C417.776 287.221 418.325 279.994 418.885 273.562C420.848 256.1 431.25 241.607 445.629 233.635C454.908 228.492 465.845 226.066 477.216 227.33C488.038 228.517 497.751 232.889 505.489 239.396C508.102 241.595 510.486 244.021 512.614 246.662C521.053 257.124 525.463 270.782 523.857 285.149L523.844 285.124Z" fill="#1a3263" style="fill: #1a3263; fill: var(--tblr-illustrations-primary, var(--tblr-primary, #1a3263));"/>
    <path d="M505.184 239.144C500.849 247.268 489.001 252.664 475.332 251.934C460.331 251.117 448.244 243.169 446.184 233.422C449.249 231.51 453.91 229.071 459.991 227.524C468.082 225.461 474.666 225.99 477.317 226.291C479.114 226.493 485.245 227.31 492.469 230.68C498.248 233.384 502.457 236.667 505.184 239.144Z" fill="#FFCB9D" style="fill: #FFCB9D; fill: var(--tblr-illustrations-skin, #FFCB9D);"/>
    <path d="M415.944 289C415.333 289 414.735 288.671 414.411 288.102C413.938 287.242 414.224 286.154 415.072 285.673C420.069 282.802 429.302 276.161 435.01 263.979C439.969 253.392 440.094 243.462 439.334 236.986C439.222 236.012 439.907 235.126 440.866 235.012C441.814 234.898 442.698 235.594 442.81 236.568C443.633 243.5 443.496 254.151 438.175 265.51C432.056 278.577 422.162 285.699 416.804 288.772C416.53 288.924 416.231 289 415.944 289Z" fill="#DADCE0"/>
    <path d="M505.043 103.919C506.746 111.386 492.516 117.844 487.167 120.657C473.278 127.179 458.405 130.938 443.178 132.578C437.111 132.969 421.607 134.571 419.285 127.28C417.835 119.711 432.292 114.3 437.741 111.853C447.455 107.602 500.981 90.8 505.043 103.919ZM500.451 105.167C500.186 104.537 498.685 104.045 497.764 103.792C492.605 102.607 487.066 102.897 481.718 103.288C467.046 104.612 452.488 108.863 439.104 114.956C434.272 117.277 429.34 119.825 425.505 123.483C424.811 124.151 423.802 125.388 423.89 126.031C425.946 127.393 429.1 127.393 431.724 127.431C442.56 127.166 453.371 124.669 463.855 121.793C472.786 119.081 495.897 112.774 500.451 105.167Z" fill="#1a3263" style="fill: #1a3263; fill: var(--tblr-illustrations-primary, var(--tblr-primary, #1a3263));"/>
    <path d="M515.184 397.49C513.809 417.776 512.434 436.618 511.059 451C487.772 450.328 464.459 449.644 441.172 448.973C454.834 440.762 468.711 428.471 458.165 416.18C440.163 395.196 429.251 415.47 412.184 383.995C414.025 353.495 415.88 320.816 417.734 294.549C421.329 283.791 424.344 276.708 424.344 276.708L437.161 265L437.123 267.331C437.123 267.331 448.628 347.236 515.184 397.477V397.49Z" fill="black" opacity="0.1"/>
    <path d="M479.092 245.092C478.685 239.668 477.451 236.006 475.722 233.662C473.521 230.671 470.533 229.797 467.404 230.038C460.091 230.608 452.091 237.299 452.091 237.299C452.091 237.299 450.641 245.257 448.123 257.206C441.205 289.925 426.21 352.599 410.668 363.877C410.668 363.877 410.859 363.979 411.203 364.169L407.184 368.464L409.918 370.999L414.624 365.968C415.221 366.272 415.883 366.614 416.595 366.956L413.924 373.026L417.345 374.521L419.965 368.591C421.097 369.123 422.293 369.668 423.552 370.226L420.83 376.397L424.251 377.892L426.986 371.696C428.067 372.139 429.161 372.583 430.28 373.014L426.795 378.652L429.974 380.604L433.841 374.344L433.726 374.268C434.782 374.636 435.85 374.978 436.906 375.307L436.206 382.239L439.92 382.606L440.543 376.334C441.866 376.663 443.15 376.929 444.41 377.145L443.761 383.633L447.475 384L448.123 377.588C448.568 377.613 449.001 377.626 449.421 377.626C449.421 377.626 472.173 303.243 477.884 263.022C478.939 255.686 479.41 249.502 479.079 245.092H479.092Z" fill="#DADCE0"/>
    <path d="M477.887 262.987C463.651 262.062 453.944 259.349 448.184 257.181C450.696 245.226 452.142 237.264 452.142 237.264C452.142 237.264 460.123 230.57 467.419 230L475.717 233.626C477.443 235.971 478.673 239.622 479.08 245.061C479.409 249.46 478.94 255.66 477.887 263V262.987Z" fill="black" opacity="0.1"/>
    <path d="M509.184 229.133L508.606 238.5L508.518 239.789L508.267 243.797C508.128 245.857 506.809 247.652 504.875 248.36C498.216 250.8 487.751 253.568 474.849 252.898C461.156 252.178 450.515 247.892 444.02 244.53C442.173 243.582 441.068 241.635 441.193 239.562L441.583 233.342L441.671 231.8L442.098 224.885C442.311 221.548 445.54 219.26 448.718 220.221C455.729 222.319 464.384 224.203 474.372 224.949C485.553 225.783 495.339 224.949 503.166 223.659C506.445 223.116 509.372 225.783 509.171 229.12L509.184 229.133Z" fill="#DADCE0"/>
    <path d="M544.184 299.688L543.969 299.999H543.956C542.806 300.148 522.625 308.253 515.662 311.054C514.209 311.639 513.324 312 513.324 312C503.619 303.622 493.889 295.256 484.184 286.878C484.184 286.853 484.184 286.853 484.184 286.815C485.207 285.956 486.206 285.085 487.191 284.214C487.785 283.691 488.392 283.168 488.986 282.633C489.82 281.898 491.045 281.798 491.993 282.359C501.509 288.048 511.012 293.725 520.515 299.389C526.214 296.899 531.9 294.422 537.587 291.944C538.965 291.384 540.557 291.907 541.29 293.202C541.29 293.227 541.328 293.252 541.328 293.277C541.441 293.476 541.555 293.687 541.682 293.924C541.808 294.148 541.934 294.372 542.048 294.609C542.174 294.833 542.288 295.069 542.402 295.306C542.705 295.891 543.008 296.476 543.274 297.024C543.678 297.908 544.007 298.704 544.12 299.252C544.158 299.439 544.171 299.588 544.158 299.713L544.184 299.688Z" fill="#0b1b3b" class="tblr-illustrations tblr-illustrations-vocate tblr-illustrations-carolers-c"/>
    <path d="M544.184 298.726L518.184 309L518.853 305.533L518.865 305.443L520.139 298.88C525.941 296.321 531.73 293.775 537.52 291.229C538.922 290.653 540.543 291.191 541.289 292.521C541.289 292.547 541.328 292.573 541.328 292.598C541.443 292.803 541.559 293.033 541.688 293.263C541.816 293.494 541.945 293.724 542.061 293.967C542.177 294.21 542.292 294.44 542.421 294.684C542.73 295.285 543.039 295.886 543.309 296.449C543.72 297.357 544.055 298.176 544.171 298.739L544.184 298.726Z" fill="black" opacity="0.1"/>
    <path d="M446.247 332.523C446.045 333.515 446.336 334.508 446.969 335.208L448.298 336.1L458.562 342.91C466.636 348.282 474.711 353.628 482.785 359L496.896 339.027C504.3 327.876 511.704 316.725 519.108 305.561C519.158 305.485 519.184 305.447 519.184 305.447C508.16 297.873 497.124 290.286 486.088 282.712C484.253 281.452 481.747 281.91 480.469 283.73C479.735 284.761 479.014 285.792 478.292 286.836C468.066 301.399 457.853 315.961 447.639 330.511C447.171 331.186 446.703 331.848 446.235 332.523H446.247Z" fill="#DADCE0"/>
    <path d="M542.491 297.084C543.64 296.656 544.65 297.953 543.956 298.961L543.375 299.806L543.16 300.121L509.85 348.706L482.184 359L514.863 311.309L518.462 306.055L518.512 305.992L542.478 297.084H542.491Z" fill="#A6A9B3"/>
    <path d="M462.1 307.113C463.649 307.343 465.123 307.689 466.546 308.303C467.39 308.635 468.171 309.07 468.94 309.505C475.919 313.599 479.131 321.479 475.957 326.992C473.16 332.007 466.206 333.337 459.782 330.612C458.938 330.28 458.257 329.922 457.489 329.487C456.721 329.052 456.116 328.591 455.423 328.054C449.843 323.769 447.588 316.925 450.384 311.923C452.652 308.251 457.225 306.524 462.125 307.113H462.1Z" fill="#FFCB9D" style="fill: #FFCB9D; fill: var(--tblr-illustrations-skin, #FFCB9D);"/>
    <path d="M461.833 307.098C463.349 307.322 464.791 307.658 466.184 308.256C463.484 315.334 461.254 322.611 459.553 330C458.727 329.676 458.061 329.327 457.31 328.904C456.558 328.48 455.966 328.031 455.288 327.508C449.828 323.334 447.622 316.667 450.358 311.795C452.577 308.219 457.051 306.537 461.845 307.11L461.833 307.098Z" fill="black" opacity="0.1"/>
    <path d="M530.425 330.748C529.773 329.829 529.082 328.987 528.224 328.273C527.738 327.839 527.213 327.482 526.676 327.112C521.8 323.935 515.747 324.382 513.277 328.183C510.999 331.59 512.42 336.488 516.246 339.754C516.732 340.188 517.18 340.507 517.705 340.864C518.23 341.221 518.716 341.463 519.292 341.731C523.835 343.951 528.915 343.224 531.193 339.818C532.793 337.19 532.396 333.682 530.425 330.722V330.748Z" fill="#FFCB9D" style="fill: #FFCB9D; fill: var(--tblr-illustrations-skin, #FFCB9D);"/>
    <path d="M530.419 330.519C529.763 329.584 529.069 328.727 528.209 328C524.47 332.167 520.449 336.101 516.184 339.697C516.672 340.138 517.121 340.463 517.648 340.826C518.175 341.19 518.663 341.436 519.241 341.709C523.802 343.968 528.902 343.228 531.189 339.762C532.795 337.087 532.397 333.517 530.419 330.506V330.519Z" fill="black" opacity="0.1"/>
    <path d="M437.184 240.013C405.838 255.959 394.358 289.085 405.128 310.665C415.264 330.988 441.929 334.66 444.656 335C451.836 323.644 459.016 312.288 466.184 300.931C443.489 296.643 435.776 289.022 433.239 282.382L430.474 260.813C432.706 253.871 434.952 246.942 437.184 240V240.013Z" fill="#1a3263" style="fill: #1a3263; fill: var(--tblr-illustrations-primary, var(--tblr-primary, #1a3263));"/>
    <path d="M509.158 237.942L509.069 239.247C507.068 240.18 504.851 239.669 502.723 237.29C501.257 236.011 498.823 231.574 496.771 232.648C495.484 233.544 495.051 235.295 494.49 236.804C493.738 238.863 493.382 241.28 491.801 242.968C486.003 247.737 484.117 227.546 479.516 236.382C478.038 238.582 476.738 244.259 473.374 243.991C472.367 243.876 471.692 243.134 471.22 242.418C469.87 240.129 469.487 237.802 468.48 235.526C464.734 226.574 460.159 243.121 454.615 240.193C450.907 238.16 453.316 229.682 449.059 228.953C446.179 228.978 443.579 230.948 441.184 232.712L441.273 231.152C444.663 228.032 449.951 224.567 452.908 229.388C454.437 232.06 454.093 235.308 455.456 237.84C456.157 238.812 457.559 237.226 458.196 236.625C459.942 234.848 461.28 232.802 463.498 231.331C466.696 229.183 469.411 231.561 470.558 234.63C471.501 236.766 472.01 239.298 473.094 241.216C473.349 241.638 473.629 241.843 473.68 241.817C473.909 241.817 474.088 241.625 474.304 241.408C476.088 239.234 476.917 235.96 478.79 233.659C479.669 232.393 481.657 231.408 483.187 232.29C486.067 234.055 486.844 237.533 488.539 240.142C489.189 241.114 490.094 242.738 491.011 241.101C492.489 238.479 492.808 235.385 494.477 232.751C496.593 229.439 499.575 230.999 501.461 233.569C502.939 235.283 504.239 237.508 506.342 238.326C507.412 238.62 508.355 238.416 509.184 237.917L509.158 237.942Z" fill="#1a3263" style="fill: #1a3263; fill: var(--tblr-illustrations-primary, var(--tblr-primary, #1a3263));"/>
    <path d="M508.17 264.516C503.486 254.42 506.749 245.192 506.789 245.089L503.567 244C503.364 244.531 499.059 256.558 506.749 269L508.184 264.529L508.17 264.516Z" fill="#DADCE0"/>
    <path d="M220.184 88C232.146 88 232.184 76 232.184 76C232.184 76 232.221 88 244.184 88C232.221 88 232.184 100 232.184 100C232.184 100 232.146 88 220.184 88Z" fill="#1a3263" style="fill: #1a3263; fill: var(--tblr-illustrations-primary, var(--tblr-primary, #1a3263));"/>
    <path d="M598.184 179C610.146 179 610.184 167 610.184 167C610.184 167 610.221 179 622.184 179C610.221 179 610.184 191 610.184 191C610.184 191 610.146 179 598.184 179Z" fill="#1a3263" style="fill: #1a3263; fill: var(--tblr-illustrations-primary, var(--tblr-primary, #1a3263));"/>
</svg>
