<svg xmlns="http://www.w3.org/2000/svg" width="800" height="600" fill="none" viewBox="0 0 800 600">
    <style>
        :where(.theme-dark, [data-theme="dark"]) .tblr-illustrations-christmas-tree-2-a { fill: black; opacity: 0.07; } :where(.theme-dark, [data-theme="dark"]) .tblr-illustrations-christmas-tree-2-b { fill: black; opacity: 0.3; } :where(.theme-dark, [data-theme="dark"]) .tblr-illustrations-christmas-tree-2-c { fill: #24304d; }
        @media (prefers-color-scheme: dark) { .tblr-illustrations-christmas-tree-2-a { fill: black; opacity: 0.07; } .tblr-illustrations-christmas-tree-2-b { fill: black; opacity: 0.3; } .tblr-illustrations-christmas-tree-2-c { fill: #24304d; } }
    </style>
    <path d="M110.238 307.028C110.238 353.1 159.032 386.495 180.466 423.794C202.848 462.277 208.059 520.9 246.541 543.049C283.731 564.607 336.772 540.451 382.844 540.451C428.915 540.451 481.957 564.483 519.147 543.049C557.519 520.79 562.839 462.167 585.112 423.794C606.67 386.605 655.339 353.1 655.339 307.028C655.339 260.957 606.67 227.562 585.112 190.262C562.853 151.89 557.519 93.1565 519.147 71.0076C481.847 49.45 428.915 73.6061 382.844 73.6061C336.772 73.6061 283.731 49.45 246.541 70.8839C208.169 93.1427 202.848 151.766 180.576 190.139C159.018 227.562 110.348 260.957 110.238 307.015" fill="#1a3263" style="fill: #1a3263; fill: var(--tblr-illustrations-primary, var(--tblr-primary, #1a3263));" opacity="0.02" class="tblr-illustrations tblr-illustrations-vocate tblr-illustrations-christmas-tree-2-a"/>
    <path d="M32.9453 507.55C32.9453 511.579 194.793 514.892 393.83 514.892C592.867 514.892 754.715 511.579 754.715 507.55C754.715 503.522 593.321 500.208 393.83 500.208C194.339 500.208 32.9453 503.522 32.9453 507.55Z" fill="#d9e2f3" opacity="0.5" class="tblr-illustrations tblr-illustrations-vocate tblr-illustrations-christmas-tree-2-b"/>
    <path d="M575.736 504.91H200.058C192.372 504.91 187.574 496.592 191.423 489.952L250.212 388.13L334.82 241.599L379.256 164.607C383.092 157.966 392.688 157.966 396.524 164.607L443.09 245.256L480.678 310.355L556.199 441.131L584.37 489.938C588.219 496.578 583.421 504.896 575.736 504.896V504.91Z" fill="#DADCE0"/>
    <path d="M480.665 310.356C449.223 311.4 399.123 316.982 343.263 341.18C294.401 362.339 259.438 389.808 237.605 409.936C270.011 353.815 302.402 297.707 334.807 241.585C370.842 242.465 420.199 244.335 443.091 245.256L480.665 310.356Z" fill="black" opacity="0.1"/>
    <path d="M500.35 313.999H275.439C267.767 313.999 262.955 305.695 266.804 299.04L313.618 217.952L379.267 104.265C383.103 97.6108 392.7 97.6108 396.535 104.265L425.05 153.622L484.595 256.764L508.998 299.04C512.848 305.695 508.05 313.999 500.364 313.999H500.35Z" fill="#DADCE0"/>
    <path d="M425.027 153.622C366.83 163.177 329.805 198.745 313.609 217.952L379.259 104.265C383.094 97.6108 392.691 97.6108 396.527 104.265L425.027 153.622Z" fill="black" opacity="0.1"/>
    <path d="M546.385 424.069C546.261 424.069 546.137 424.069 546.014 424.055C465.062 417.621 398.932 390.041 357.728 368.044C313.018 344.176 287.803 322.11 286.758 321.189C284.847 319.498 284.654 316.569 286.345 314.658C288.037 312.733 290.965 312.555 292.876 314.246C293.123 314.466 318.517 336.642 362.361 360.028C402.754 381.558 467.523 408.547 546.756 414.844C549.299 415.05 551.211 417.277 551.004 419.821C550.812 422.24 548.791 424.083 546.399 424.083L546.385 424.069Z" fill="#A6A9B3"/>
    <path d="M345.991 353.906L336.405 353.232C335.625 353.177 334.948 353.765 334.893 354.545L334.51 359.99C334.455 360.77 335.043 361.447 335.824 361.502L345.41 362.176C346.19 362.231 346.867 361.643 346.922 360.862L347.305 355.418C347.36 354.638 346.772 353.961 345.991 353.906Z" fill="#0b1b3b" class="tblr-illustrations tblr-illustrations-vocate tblr-illustrations-christmas-tree-2-c"/>
    <path d="M338.784 415.875C354.563 415.875 367.354 403.084 367.354 387.306C367.354 371.527 354.563 358.736 338.784 358.736C323.006 358.736 310.215 371.527 310.215 387.306C310.215 403.084 323.006 415.875 338.784 415.875Z" fill="#1a3263" style="fill: #1a3263; fill: var(--tblr-illustrations-primary, var(--tblr-primary, #1a3263));"/>
    <path d="M330.645 388.185C336.271 388.185 340.832 383.624 340.832 377.998C340.832 372.371 336.271 367.81 330.645 367.81C325.018 367.81 320.457 372.371 320.457 377.998C320.457 383.624 325.018 388.185 330.645 388.185Z" fill="white" opacity="0.2"/>
    <path d="M434.897 87.2992L412.487 103.577C410.975 104.691 410.328 106.63 410.906 108.417L419.457 134.745C420.214 137.069 418.976 139.159 417.148 140.011C416.062 140.533 414.769 140.588 413.546 140.011C413.298 139.901 413.064 139.75 412.817 139.571L390.407 123.293C388.894 122.193 386.846 122.193 385.334 123.293L362.924 139.571C362.69 139.75 362.442 139.887 362.195 140.011C360.985 140.588 359.679 140.52 358.593 140.011C356.764 139.159 355.527 137.069 356.283 134.745L364.835 108.417C365.412 106.63 364.78 104.691 363.267 103.577L340.857 87.2992C338.809 85.8144 338.644 83.2709 339.744 81.4836C340.458 80.3287 341.737 79.4901 343.387 79.4901H371.076C372.946 79.4901 374.61 78.2802 375.187 76.4929L383.739 50.1645C384.344 48.3085 385.897 47.3186 387.506 47.1948H387.85C389.582 47.1948 391.314 48.1847 391.947 50.1645L400.498 76.4929C401.076 78.2802 402.739 79.4901 404.609 79.4901H432.298C436.478 79.4901 438.224 84.852 434.842 87.2992H434.897Z" fill="#1a3263" style="fill: #1a3263; fill: var(--tblr-illustrations-primary, var(--tblr-primary, #1a3263));"/>
    <path d="M111.159 331.295C108.588 360.318 106.017 389.327 103.446 418.35C94.0287 437.447 84.611 456.557 75.207 475.668C76.2382 476.589 78.8366 478.899 79.8678 479.806C80.1702 480.081 81.9576 481.662 82.26 481.923C99.0332 464.325 115.806 446.727 132.58 429.129C139.234 410.087 145.888 391.032 152.542 371.99C158.551 385.422 164.545 398.855 170.553 412.273C175.172 437.887 179.792 463.487 184.398 489.086C187.464 488.701 190.53 488.316 193.595 487.931C197.789 461.259 201.982 434.601 206.162 407.929C197.17 383.773 188.179 359.617 179.187 335.46C156.502 334.058 133.831 332.669 111.146 331.267L111.159 331.295Z" fill="#1a3263" style="fill: #1a3263; fill: var(--tblr-illustrations-primary, var(--tblr-primary, #1a3263));"/>
    <path d="M85.6396 504.951L63.3945 491.739C63.3945 491.739 65.3193 485.263 69.8563 484.81C74.3933 484.356 84.3198 497.513 85.6259 504.951H85.6396Z" fill="#0b1b3b" class="tblr-illustrations tblr-illustrations-vocate tblr-illustrations-christmas-tree-2-c"/>
    <path d="M208.636 508.98L183.119 504.732C183.119 504.732 182.569 497.995 186.638 495.933C190.708 493.87 204.718 502.532 208.636 508.98Z" fill="#0b1b3b" class="tblr-illustrations tblr-illustrations-vocate tblr-illustrations-christmas-tree-2-c"/>
    <path d="M152.543 371.99L163.803 334.539L179.201 335.488L206.176 407.956C201.983 434.628 197.789 461.287 193.61 487.959C190.544 488.344 187.478 488.729 184.412 489.114L170.567 412.301L152.557 372.018L152.543 371.99Z" fill="black" opacity="0.1"/>
    <path d="M131.645 144.892C131.892 148.645 132.304 154.145 133.006 160.895C133.184 162.394 133.336 163.714 133.377 164.126C134.408 171.509 136.36 178.727 139.192 185.615C139.784 186.976 140.375 188.269 141.035 189.52C143.496 194.125 161.135 199.405 176.3 197.384C191.464 195.363 196.606 180.446 189.883 174.273C187.518 171.757 185.635 168.842 184.301 165.666C182.39 161.473 180.768 157.156 179.476 152.742C178.664 150.24 178.252 148.563 178.252 148.563L166.043 138.499L137.336 139.159C137.79 143.971 136.58 147.353 135.068 147.697C133.542 148.04 131.947 145.442 131.658 144.906L131.645 144.892Z" fill="#FFCB9D" style="fill: #FFCB9D; fill: var(--tblr-illustrations-skin, #FFCB9D);"/>
    <path d="M131.645 144.892C131.892 148.645 132.305 154.145 133.006 160.895C133.185 162.394 133.336 163.714 133.377 164.126C134.408 171.509 136.36 178.727 139.193 185.615C141.035 184.983 142.753 184.007 144.225 182.728C145.833 181.312 147.139 179.593 148.088 177.668C149.037 175.606 149.669 173.406 149.93 171.152C150.191 169.694 150.356 168.237 150.425 166.766C161.493 170.189 173.385 169.804 184.205 165.68C182.294 161.486 180.686 157.169 179.38 152.756C178.568 150.254 178.156 148.577 178.156 148.577L165.947 138.513L137.227 139.159C137.68 143.971 136.484 147.353 134.972 147.697C133.446 148.04 131.92 145.428 131.617 144.892H131.645Z" fill="black" opacity="0.1"/>
    <path d="M195.355 145.002C194.516 146.982 193.458 148.865 192.206 150.611C190.667 152.907 188.811 154.956 186.68 156.716C177.111 164.676 161.987 165.446 148.349 158.42C146.039 157.224 143.825 155.849 141.722 154.296H141.653C141.653 154.296 141.612 154.365 141.626 154.42C141.584 155.987 141.653 157.54 141.846 159.094C141.956 159.823 141.956 160.029 142.011 160.496L142.107 160.964C142.217 161.816 143.839 167.673 143.784 170.918C143.688 173.049 142.932 175.097 141.612 176.788C140.911 173.681 139.44 170.794 137.336 168.402C136.525 167.577 135.645 166.793 134.724 166.078C130.366 161.844 127.698 156.166 127.217 150.103C127.052 147.614 127.272 145.126 127.863 142.706C128.166 141.111 129.623 135.35 133.143 132.133C140.416 125.479 158.303 128.476 167.17 131.253C168.724 131.762 171.419 132.683 173.673 132.023C174.1 131.899 174.512 131.693 174.87 131.418C177.193 129.645 177.276 125.658 176.547 123.142C175.158 118.261 169.686 114.783 162.661 114.109C177.702 110.218 191.918 117.34 196.139 128.476C198.063 133.865 197.775 139.805 195.341 144.974L195.355 145.002Z" fill="#0b1b3b" class="tblr-illustrations tblr-illustrations-vocate tblr-illustrations-christmas-tree-2-c"/>
    <path d="M195.354 145.002C194.516 146.982 193.457 148.865 192.206 150.612C190.666 152.908 188.81 154.956 186.679 156.716C177.11 164.676 161.987 165.446 148.348 158.421C145.035 156.345 142.216 154.571 141.721 154.296H141.653L137.047 150.364C144.444 153.774 152.404 155.808 160.529 156.372C167.706 156.853 177.701 157.568 187.353 151.698C190.336 149.869 193.031 147.614 195.341 144.975L195.354 145.002Z" fill="black" opacity="0.5"/>
    <path d="M198.81 212.631V238.478C196.198 244.967 194.658 250.398 193.75 254.11C191.619 262.813 191.674 267.102 188.554 283.271C188.512 283.491 188.485 283.669 188.444 283.848C187.949 286.405 188.114 285.635 186.986 291.039C184.979 300.731 183.192 308.32 182.422 319.484C182.257 321.945 182.16 324.31 182.092 326.551C181.968 331.17 182.05 335.295 182.243 338.828C177.871 338.787 171.492 338.76 163.765 338.677C163.311 338.677 162.871 338.677 162.431 338.677C161.991 338.677 161.565 338.677 161.153 338.677C160.3 338.677 159.475 338.65 158.692 338.65C153.935 338.622 150.099 338.581 146.978 338.553C145.562 338.526 144.407 338.526 143.417 338.526C142.771 338.526 142.207 338.526 141.712 338.498C139.485 338.471 138.564 338.471 137.615 338.443C135.567 338.402 133.285 338.361 130.796 338.278C130.164 338.251 129.531 338.237 128.885 338.21C124.98 338.086 120.622 337.88 115.81 337.605C114.875 337.55 113.913 337.495 112.937 337.44C112.387 337.412 111.823 337.371 111.259 337.316C111.026 337.316 110.792 337.288 110.544 337.275C109.953 337.247 109.376 337.206 108.771 337.151C108.29 337.124 107.809 337.082 107.341 337.041C105.897 336.931 104.426 336.821 102.914 336.697C112.607 307.001 113.885 293.28 113.102 286.295C112.868 284.206 111.631 275.31 113.817 264.078C113.844 263.954 113.872 263.83 113.899 263.706C114.037 263.102 114.174 262.483 114.325 261.892C114.325 261.892 114.298 261.864 114.284 261.864C114.078 261.685 113.803 261.452 113.5 261.218C114.188 260.173 114.848 259.101 115.439 258.001C115.645 257.63 115.838 257.258 116.016 256.887C116.264 256.379 116.498 255.884 116.718 255.375C117.048 254.632 117.364 253.876 117.639 253.12C118.079 251.979 118.436 250.824 118.739 249.656C119.756 245.833 120.1 241.888 119.632 238.052C118.794 231.136 116.443 225.114 112.964 220.137C114.614 218.914 117.24 217.14 120.636 215.325C122.478 214.349 127.304 211.902 136.227 210.087C136.639 210.005 137.038 209.922 137.464 209.84C140.97 209.166 145.053 208.589 149.783 208.231L161.716 207.833C168.343 207.998 174.86 208.259 181.294 208.561C185.873 209.056 190.203 209.909 195.015 211.38C196.308 211.778 197.559 212.218 198.782 212.658L198.81 212.631Z" fill="#DADCE0"/>
    <path d="M182.223 338.815C177.851 338.774 171.472 338.746 163.745 338.664C163.292 338.664 162.852 338.664 162.412 338.664C161.972 338.664 161.546 338.664 161.133 338.664C160.281 338.664 159.456 338.636 158.672 338.636C153.53 338.595 149.763 338.568 146.959 338.54C145.542 338.513 144.388 338.513 143.398 338.513C142.751 338.513 142.188 338.513 141.693 338.485C139.466 338.458 138.544 338.458 137.596 338.43C135.547 338.389 133.265 338.348 130.777 338.265C130.144 338.238 129.512 338.224 128.865 338.196C124.961 338.073 120.603 337.866 115.791 337.591C114.32 337.509 112.807 337.413 111.24 337.303C111.006 337.303 110.772 337.275 110.525 337.261C109.48 337.193 108.408 337.11 107.322 337.041C105.878 336.931 104.407 336.821 102.895 336.698C112.587 307.001 113.866 293.28 113.082 286.296C112.848 284.206 111.611 275.311 113.797 264.078C113.797 264.037 113.797 263.996 113.825 263.954C113.976 263.212 114.127 262.497 114.278 261.865C114.595 260.504 114.883 259.404 115.089 258.647C115.213 258.427 115.323 258.221 115.433 258.001C115.639 257.644 115.832 257.259 116.011 256.888C116.272 256.379 116.506 255.898 116.712 255.375C117.042 254.633 117.358 253.877 117.633 253.121C118.045 251.993 118.417 250.838 118.705 249.683L118.733 249.656C123.421 245.229 127.092 239.62 129.168 233.598C130.68 235.77 131.478 237.612 131.56 237.832C132.811 246.782 135.176 257.3 139.576 268.588C151.042 298.037 170.235 316.79 182.086 326.551C181.962 331.171 182.045 335.295 182.237 338.829L182.223 338.815Z" fill="black" opacity="0.1"/>
    <path d="M207.444 290.543C213.562 286.391 225.895 282.94 232.893 281.208C229.442 277.07 225.84 271.598 222.169 264.38C221.976 263.995 221.798 263.624 221.605 263.225L215.363 259.114L212.38 257.134L202.646 266.153L199.25 269.302C199.25 269.302 199.319 274.622 199.731 280.355C200.35 281.263 200.982 282.17 201.615 283.078C203.306 285.456 205.244 287.972 207.444 290.543Z" fill="black" opacity="0.1"/>
    <path d="M198.807 212.63C195.947 214.926 181.566 226.97 179.242 248.088C176.658 271.612 191.08 287.656 193.266 290.007C197.611 288.44 202.862 286.061 208.362 282.432C217.546 276.369 223.568 269.357 227.211 264.297C226.647 263.761 225.795 262.922 224.846 261.85C215.662 251.511 216.13 241.186 211.524 230.311C209.503 225.54 205.873 219.175 198.82 212.617L198.807 212.63Z" fill="#DADCE0"/>
    <path d="M238.662 307.606L231.939 362.008C231.623 364.552 229.313 366.353 226.77 366.037L195.478 362.173L130.654 354.158C128.111 353.842 126.31 351.532 126.626 349.002L132.153 304.306L133.349 294.6C133.665 292.056 135.975 290.255 138.518 290.571L234.634 302.45C237.178 302.766 238.979 305.076 238.662 307.606Z" fill="#DADCE0"/>
    <path d="M195.494 362.159L130.67 354.144C128.126 353.828 126.325 351.518 126.641 348.988L132.168 304.292C137.503 304.663 161.15 306.904 178.968 326.771C191.301 340.519 194.518 355.656 195.508 362.159H195.494Z" fill="black" opacity="0.1"/>
    <path d="M234.391 324.995L132.45 312.406C129.91 312.092 127.597 313.897 127.284 316.436L126.288 324.5C125.974 327.04 127.779 329.353 130.318 329.666L232.259 342.255C234.799 342.569 237.112 340.765 237.425 338.225L238.421 330.161C238.735 327.621 236.93 325.308 234.391 324.995Z" fill="#1a3263" style="fill: #1a3263; fill: var(--tblr-illustrations-primary, var(--tblr-primary, #1a3263));"/>
    <path d="M185.735 360.549L192.967 301.986C193.281 299.446 191.476 297.133 188.937 296.819L180.873 295.823C178.333 295.51 176.02 297.314 175.707 299.854L168.474 358.418C168.161 360.957 169.965 363.27 172.505 363.584L180.569 364.58C183.108 364.893 185.421 363.089 185.735 360.549Z" fill="#1a3263" style="fill: #1a3263; fill: var(--tblr-illustrations-primary, var(--tblr-primary, #1a3263));"/>
    <path d="M245.676 289.03L132.86 275.098C130.32 274.785 128.007 276.589 127.694 279.129L126.479 288.967C126.165 291.506 127.97 293.819 130.509 294.133L243.325 308.065C245.865 308.378 248.178 306.574 248.491 304.034L249.706 294.196C250.02 291.657 248.215 289.344 245.676 289.03Z" fill="#A6A9B3"/>
    <path d="M177.804 239.331C177.804 239.331 191.621 254.619 188.83 268.89C186.039 283.147 181.09 272.313 181.09 272.313C181.09 272.313 170.366 256.379 170.614 255.54C170.861 254.701 177.804 239.344 177.804 239.344V239.331Z" fill="#0b1b3b" class="tblr-illustrations tblr-illustrations-vocate tblr-illustrations-christmas-tree-2-c"/>
    <path d="M185.402 280.576C185.402 280.576 147.401 265.37 151.264 253.574C155.127 241.777 177.785 239.316 177.785 239.316C176.946 243.358 177.716 249.325 178.981 255.058C180.933 263.844 184.082 272.079 184.467 272.134L185.017 277.194L185.388 280.562L185.402 280.576Z" fill="#1a3263" style="fill: #1a3263; fill: var(--tblr-illustrations-primary, var(--tblr-primary, #1a3263));"/>
    <path d="M185.03 277.207L173.605 274.925C173.605 274.925 172.767 276.699 172.244 266.14C171.873 258.551 176.41 255.925 178.981 255.059C180.933 263.844 184.082 272.079 184.467 272.134L185.016 277.194L185.03 277.207Z" fill="black" opacity="0.1"/>
    <path d="M152.488 261.617C152.488 261.617 175.187 265.15 182.79 279.449C190.393 293.747 178.5 287.849 178.5 287.849C178.5 287.849 158.029 281.593 157.644 280.686C157.259 279.779 152.488 261.617 152.488 261.617Z" fill="#0b1b3b" class="tblr-illustrations tblr-illustrations-vocate tblr-illustrations-christmas-tree-2-c"/>
    <path d="M188.042 291.987C188.042 291.987 181.512 294.022 173.222 295.741C160.092 298.49 142.562 300.498 139.538 292.578C134.602 279.655 152.475 261.617 152.475 261.617C155.087 266.704 161.907 272.588 168.245 277.221C174.871 282.047 180.989 285.525 181.306 285.333L188.029 291.987H188.042Z" fill="#1a3263" style="fill: #1a3263; fill: var(--tblr-illustrations-primary, var(--tblr-primary, #1a3263));"/>
    <path d="M188.041 291.988C188.041 291.988 181.511 294.022 173.221 295.741C173.152 295.658 173.056 295.576 172.973 295.493C167.116 289.705 167.529 281.497 168.257 277.222C174.884 282.047 181.002 285.526 181.318 285.333L188.041 291.988Z" fill="black" opacity="0.1"/>
    <path d="M208.228 243.084C208.228 243.084 191.111 254.55 190.341 269.069C189.571 283.587 197.009 274.279 197.009 274.279C197.009 274.279 211.294 261.438 211.253 260.558C211.211 259.678 208.228 243.098 208.228 243.098V243.084Z" fill="#0b1b3b" class="tblr-illustrations tblr-illustrations-vocate tblr-illustrations-christmas-tree-2-c"/>
    <path d="M230.467 263.363C230.564 264.683 230.192 265.907 229.436 267.061C223.208 276.85 190.789 281.25 190.789 281.25L193.745 273.289C194.144 273.289 198.694 266.8 202.599 259.28C205.5 253.698 208.03 247.539 208.208 243.084C208.208 243.084 229.574 250.989 230.467 263.363Z" fill="#1a3263" style="fill: #1a3263; fill: var(--tblr-illustrations-primary, var(--tblr-primary, #1a3263));"/>
    <path d="M227.348 267.817C228.091 267.556 228.792 267.308 229.452 267.061C223.224 276.85 190.805 281.249 190.805 281.249L193.761 273.289C194.159 273.289 198.71 266.8 202.615 259.279C205.406 262.455 215.167 272.12 227.348 267.817Z" fill="black" opacity="0.1"/>
    <path d="M227.35 270.87C227.35 270.87 204.472 268.766 193.611 280.796C182.75 292.812 195.728 289.994 195.728 289.994C195.728 289.994 217.107 288.908 217.698 288.124C218.289 287.34 227.35 270.883 227.35 270.883V270.87Z" fill="#0b1b3b" class="tblr-illustrations tblr-illustrations-vocate tblr-illustrations-christmas-tree-2-c"/>
    <path d="M232.369 304.058C229.509 308.155 222.594 307.674 214.936 305.392C201.38 301.363 185.473 291.671 185.473 291.671L193.626 286.859C193.845 287.079 198.74 285.772 204.858 283.49C212.873 280.493 222.979 275.86 227.364 270.883C227.364 270.883 240.315 292.729 232.383 304.058H232.369Z" fill="#1a3263" style="fill: #1a3263; fill: var(--tblr-illustrations-primary, var(--tblr-primary, #1a3263));"/>
    <path d="M214.92 305.392C201.364 301.364 185.457 291.671 185.457 291.671L193.61 286.859C193.83 287.079 198.724 285.773 204.842 283.491C206.547 288.55 210.947 300.828 214.92 305.392Z" fill="black" opacity="0.1"/>
    <path d="M187.946 294.97C195.152 294.97 200.993 289.129 200.993 281.923C200.993 274.717 195.152 268.875 187.946 268.875C180.74 268.875 174.898 274.717 174.898 281.923C174.898 289.129 180.74 294.97 187.946 294.97Z" fill="#1a3263" style="fill: #1a3263; fill: var(--tblr-illustrations-primary, var(--tblr-primary, #1a3263));"/>
    <path d="M180.974 344.892C183.421 350.886 180.823 359.053 175.942 362.242C162.853 370.753 126.654 347.476 111.132 319.677C101.893 303.137 99.5965 284.274 99.4865 283.353C99.4315 282.913 99.3903 282.473 99.349 282.033C98.8266 276.864 98.8128 272.492 98.9091 269.33C97.2318 268.642 96.3244 267.666 95.8569 267.006C93.6846 263.982 94.3033 259.005 97.5342 254.66C101.178 255.265 104.821 255.884 108.451 256.502C113.881 257.424 119.284 258.331 124.688 259.225C126.145 259.472 127.602 259.72 129.032 259.967C128.372 262.524 127.808 264.944 127.313 267.281C127.19 267.763 127.094 268.23 126.997 268.697C126.887 269.247 126.777 269.811 126.667 270.361C126.117 273.399 125.224 279.105 124.798 284.302C124.77 284.549 124.756 284.783 124.743 285.044C124.578 287.285 124.509 289.403 124.619 291.135C125.375 303.921 136.209 313.875 142.547 319.691C152.528 328.833 165.053 335.006 165.053 335.006C173.948 339.378 179.008 340.08 180.96 344.878L180.974 344.892Z" fill="#FFCB9D" style="fill: #FFCB9D; fill: var(--tblr-illustrations-skin, #FFCB9D);"/>
    <path d="M123.451 255.389L124.702 259.238L127.328 267.281C127.204 267.762 127.108 268.23 127.011 268.697C126.901 269.247 126.792 269.811 126.682 270.361C125.678 275.544 125.073 280.164 124.825 284.302C124.798 284.549 124.784 284.783 124.77 285.044C124.633 287.217 124.605 289.238 124.647 291.135C118.267 288.22 107.544 283.656 99.3632 282.02C98.8408 276.85 98.827 272.478 98.9233 269.316C97.2459 268.629 96.3385 267.652 95.8711 266.992C99.5557 261.631 103.24 256.874 103.24 256.874L108.465 256.489L123.451 255.375V255.389Z" fill="black" opacity="0.1"/>
    <path d="M135.919 208.658C132.785 209.661 128.344 211.256 123.285 213.758C115.984 217.374 103.665 223.286 96.7499 234.106C85.7648 251.306 91.6904 271.406 92.8041 274.994C96.4062 275.613 100.558 276.053 105.164 276.039C115.929 276.012 124.769 273.551 130.874 271.214C130.722 270.526 130.461 269.357 130.241 267.873C125.91 239.963 147.152 218.557 140.085 210.72C139.467 210.046 138.284 209.056 135.919 208.644V208.658Z" fill="#DADCE0"/>
    <path d="M247 333.741C245.103 337.454 241.033 339.117 236.744 338.402C236.194 338.32 235.658 338.182 235.108 338.017C233.87 337.646 232.661 337.082 231.478 336.299C225.594 332.477 223.009 325.121 225.704 319.869C228.385 314.617 235.342 313.476 241.212 317.312C243.274 318.646 244.938 320.419 246.107 322.399C246.464 323.004 246.78 323.636 247.041 324.282C248.361 327.458 248.458 330.909 247 333.741Z" fill="#FFCB9D" style="fill: #FFCB9D; fill: var(--tblr-illustrations-skin, #FFCB9D);"/>
    <path d="M181.302 208.534C179.102 210.335 170.509 216.879 157.806 216.618C151.743 216.494 146.683 214.872 142.806 212.961C140.647 211.93 138.846 210.802 137.458 209.812C136.867 209.4 136.358 209.001 135.918 208.657C142.352 207.874 149.543 207.324 157.379 207.241C166.192 207.159 174.208 207.695 181.288 208.52L181.302 208.534Z" fill="#FFCB9D" style="fill: #FFCB9D; fill: var(--tblr-illustrations-skin, #FFCB9D);"/>
    <path d="M181.302 208.534C179.102 210.335 170.509 216.879 157.806 216.618C151.743 216.494 146.683 214.872 142.806 212.961C140.647 211.93 138.846 210.802 137.458 209.812C136.867 209.4 136.358 209.001 135.918 208.657C142.352 207.874 149.543 207.324 157.379 207.241C166.192 207.159 174.208 207.695 181.288 208.52L181.302 208.534Z" fill="black" opacity="0.1"/>
    <path d="M246.995 333.742C245.097 337.454 241.028 339.117 236.738 338.402C238.801 332.614 243.613 327.404 247.036 324.283C248.356 327.459 248.452 330.91 246.995 333.742Z" fill="black" opacity="0.1"/>
    <path d="M500.354 313.999H336.691C355.912 311.222 378.941 306.286 404.087 297.404C438.004 285.416 464.91 270.072 484.584 256.764L508.988 299.04C512.837 305.695 508.039 313.999 500.354 313.999Z" fill="black" opacity="0.1"/>
    <path d="M490.523 262.757C490.399 262.757 490.275 262.757 490.152 262.744C390.186 254.811 325.5 198.703 322.805 196.311C320.894 194.62 320.701 191.705 322.392 189.78C324.083 187.855 326.998 187.677 328.923 189.368C329.569 189.931 394.105 245.833 490.88 253.518C493.424 253.725 495.335 255.952 495.129 258.495C494.936 260.915 492.915 262.757 490.523 262.757Z" fill="#A6A9B3"/>
    <path d="M360.665 215.438L354.729 214.831C353.755 214.731 352.884 215.44 352.784 216.415L352.429 219.889C352.329 220.863 353.039 221.734 354.013 221.834L359.949 222.441C360.923 222.54 361.794 221.831 361.894 220.857L362.249 217.383C362.349 216.408 361.64 215.538 360.665 215.438Z" fill="#0b1b3b" class="tblr-illustrations tblr-illustrations-vocate tblr-illustrations-christmas-tree-2-c"/>
    <path d="M357.311 219.037C356.514 218.913 346.807 217.539 340.552 224.564C339.864 225.348 335.863 229.816 336.317 235.687C336.688 240.485 339.754 242.465 344.662 249.559C346.711 252.529 349.433 256.901 352.032 262.689C356.335 257.574 360.281 253.848 363.113 251.374C369.795 245.558 373.273 244.115 374.497 239.591C375.94 234.229 372.916 229.266 372.146 228.001C367.471 220.316 358.59 219.175 357.311 219.037Z" fill="#A6A9B3"/>
    <path d="M575.74 504.911H259.125C278.978 504.911 472.543 503.302 556.189 441.145L584.36 489.952C588.209 496.593 583.411 504.911 575.726 504.911H575.74Z" fill="black" opacity="0.1"/>
    <path d="M452.796 247.538L449.909 247.153C451.531 242.011 454.748 230.408 452.191 226.874C451.628 226.104 450.871 225.719 449.868 225.747C448.85 225.761 447.998 226.201 447.365 227.026C444.478 230.765 446.527 242.204 447.503 246.823L445.661 246.576C445.028 246.493 444.451 246.933 444.368 247.566L443.846 251.553C443.763 252.185 444.203 252.763 444.836 252.859L451.971 253.794C452.604 253.876 453.181 253.436 453.264 252.804L453.786 248.803C453.869 248.171 453.429 247.593 452.796 247.497V247.538ZM448.149 227.644C448.603 227.053 449.167 226.764 449.881 226.751H449.923C450.541 226.751 451.023 226.984 451.366 227.466C453.497 230.408 450.761 241.077 448.892 247.03L448.534 246.988C447.627 242.74 445.454 231.123 448.135 227.658L448.149 227.644Z" fill="#0b1b3b" class="tblr-illustrations tblr-illustrations-vocate tblr-illustrations-christmas-tree-2-c"/>
    <path d="M445.844 294.558C457.918 294.558 467.705 284.771 467.705 272.698C467.705 260.625 457.918 250.838 445.844 250.838C433.771 250.838 423.984 260.625 423.984 272.698C423.984 284.771 433.771 294.558 445.844 294.558Z" fill="#1a3263" style="fill: #1a3263; fill: var(--tblr-illustrations-primary, var(--tblr-primary, #1a3263));"/>
    <path d="M440.053 273.015C444.359 273.015 447.849 269.525 447.849 265.219C447.849 260.914 444.359 257.424 440.053 257.424C435.748 257.424 432.258 260.914 432.258 265.219C432.258 269.525 435.748 273.015 440.053 273.015Z" fill="white" opacity="0.2"/>
    <path d="M608.294 244.871C607.373 247.4 606.589 249.971 605.957 252.584C606.754 251.704 607.332 250.631 607.648 249.49C607.964 247.937 608.129 246.465 608.294 244.871Z" fill="black" opacity="0.1"/>
    <path d="M706.746 347.009C707.172 348.164 707.447 349.373 707.557 350.611C708.011 355.643 706.004 361.211 701.756 363.287C695.335 366.38 687.553 359.685 685.477 357.884C684.57 357.059 683.704 356.179 682.893 355.272C678.988 351.01 673.805 341.936 676.582 337.357C679.648 332.284 693.135 334.511 701.137 340.327C703.625 341.949 705.578 344.273 706.733 347.009H706.746Z" fill="#FFCB9D" style="fill: #FFCB9D; fill: var(--tblr-illustrations-skin, #FFCB9D);"/>
    <path d="M706.748 347.009C707.174 348.164 707.449 349.373 707.559 350.611C700.383 353.223 693.288 351.766 683.926 354.887L682.908 355.272C679.004 351.01 673.82 341.936 676.598 337.357C679.664 332.284 693.151 334.511 701.152 340.327C703.641 341.949 705.593 344.273 706.748 347.009Z" fill="black" opacity="0.1"/>
    <path d="M622.329 248.047L622.192 247.635C621.215 244.913 620.391 242.108 619.566 239.344L622.797 239.729C624.144 239.949 625.835 240.252 627.773 240.705L622.123 218.117C618.081 217.924 614.369 218.763 611.591 219.656C611.426 219.725 611.303 219.753 611.124 219.794C607.302 220.358 603.452 220.949 599.919 221.691C591.024 223.492 582.293 225.912 573.756 228.95C565.575 231.92 557.684 235.577 550.108 239.894C548.211 241.008 546.231 242.218 544.389 243.469C543.578 244.019 542.876 244.541 542.244 244.968C540.883 245.861 539.852 246.741 539.219 247.318C538.848 247.648 538.601 247.896 538.546 247.937C538.504 247.978 538.477 248.116 538.477 248.308C538.408 251.402 549.723 304.21 551.524 320.763C552.693 330.923 553.807 341.235 554.934 351.34L599.809 339.86C615.716 335.776 631.609 331.707 647.489 327.582C646.884 325.589 646.1 322.867 645.124 319.622C637.37 294.696 632.764 281.676 622.315 248.033L622.329 248.047Z" fill="#DADCE0"/>
    <path d="M603.784 225.417C606.698 235.275 597.404 246.659 583.037 250.893C568.67 255.128 554.729 250.604 551.814 240.747C551.649 240.211 551.553 239.661 551.512 239.097C559.073 234.78 566.993 231.123 575.2 228.181C583.724 225.101 592.469 222.681 601.364 220.908C602.491 222.214 603.316 223.754 603.784 225.417Z" fill="#FFCB9D" style="fill: #FFCB9D; fill: var(--tblr-illustrations-skin, #FFCB9D);"/>
    <path d="M712.477 411.379L711.72 417.635C688.554 419.147 665.388 420.673 642.222 422.199C630.536 404.505 618.849 386.797 607.163 369.116V369.089L578.387 478.073C575.679 478.018 572.984 477.977 570.276 477.922C565.23 435.7 560.184 393.478 555.125 351.257L575.184 346.142L618.932 334.965L647.68 327.623C654.018 351.092 660.342 374.56 666.694 398.015C681.955 402.47 697.216 406.924 712.477 411.379Z" fill="#1a3263" style="fill: #1a3263; fill: var(--tblr-illustrations-primary, var(--tblr-primary, #1a3263));"/>
    <path d="M712.478 411.379L711.721 417.635C688.555 419.147 665.389 420.673 642.223 422.199C630.537 404.505 618.85 386.797 607.164 369.116V369.089L618.947 334.965L647.695 327.623C654.033 351.092 660.357 374.56 666.709 398.015C681.97 402.47 697.231 406.924 712.491 411.379H712.478Z" fill="black" opacity="0.1"/>
    <path d="M647.681 327.596L601.28 339.488L555.127 351.325C553.999 341.248 552.858 330.95 551.703 320.749C551.827 321.629 588.563 339.873 645.221 319.649C645.537 320.721 645.853 321.807 646.183 322.907C646.719 324.461 647.214 326.042 647.668 327.596H647.681Z" fill="black" opacity="0.1"/>
    <path d="M738.025 410.101L730.009 410.527C730.009 410.527 722.283 409.729 720.262 414.266C718.241 418.803 729.515 433.982 737.282 438.258L732.8 421.168L739.235 419.326L738.025 410.114V410.101Z" fill="#0b1b3b" class="tblr-illustrations tblr-illustrations-vocate tblr-illustrations-christmas-tree-2-c"/>
    <path d="M583.144 505.172L581.715 497.266C581.715 497.266 581.536 489.512 576.779 488.068C572.022 486.625 558.383 499.727 555.125 507.963L571.527 501.363L574.167 507.523L583.144 505.172Z" fill="#0b1b3b" class="tblr-illustrations tblr-illustrations-vocate tblr-illustrations-christmas-tree-2-c"/>
    <path d="M560.436 221.058C573.855 219.959 587.782 213.345 593.048 208.107C593.969 207.296 594.67 206.251 595.096 205.11C595.509 203.68 595.811 202.127 596.127 200.656C596.54 198.552 596.842 196.352 597.049 194.208C597.653 188.571 597.75 182.879 597.337 177.228C597.296 176.788 597.158 175.386 597.035 173.805C596.265 166.683 595.481 160.977 594.862 157.004C594.67 157.65 593.625 160.592 592.003 160.661C590.38 160.73 588.359 157.417 587.782 152.33L558.003 158.021L547.623 171.138C547.623 171.138 547.568 172.939 547.293 175.716C546.908 180.542 546.179 185.326 545.12 190.042C544.488 193.63 543.182 197.054 541.285 200.161C535.716 208.107 544.364 222.433 560.422 221.072L560.436 221.058Z" fill="#FFCB9D" style="fill: #FFCB9D; fill: var(--tblr-illustrations-skin, #FFCB9D);"/>
    <path d="M545.162 190.083C557.247 191.925 569.607 189.712 580.276 183.772C583.259 183.621 586.243 184.281 588.882 185.684C592.787 187.883 593.2 190.537 596.637 193.864L596.953 194.194C597.558 188.557 597.654 182.865 597.242 177.214C597.2 176.775 597.063 175.372 596.939 173.791C596.169 166.669 595.385 160.964 594.767 156.99C594.574 157.637 593.529 160.579 591.907 160.648C590.285 160.703 588.264 157.403 587.686 152.316L557.907 158.008L547.527 171.124C547.527 171.124 547.472 172.925 547.197 175.702C546.853 180.555 546.166 185.367 545.148 190.111L545.162 190.083Z" fill="black" opacity="0.1"/>
    <path d="M603.784 225.417C606.698 235.275 597.404 246.659 583.037 250.893C568.67 255.128 554.729 250.604 551.814 240.747C551.649 240.211 551.553 239.661 551.512 239.097C559.073 234.78 566.993 231.123 575.2 228.181C583.724 225.101 592.469 222.681 601.364 220.908C602.491 222.214 603.316 223.754 603.784 225.417Z" fill="black" opacity="0.1"/>
    <path d="M595.932 245.393C591.395 239.702 587.367 237.254 583.944 238.107C580.012 239.083 578.128 244.06 577.358 247.002C574.65 244.417 568.765 239.757 563.5 241.461C559.251 242.919 556.612 248.432 555.649 257.822C555.196 262.194 554.976 268.243 557.959 270.306C558.88 270.883 560.021 271.007 561.052 270.649C565.644 269.288 571.845 261.452 575.928 255.65C575.722 257.753 574.911 259.761 573.591 261.41C572.505 262.249 571.927 263.583 572.024 264.944C572.189 267.968 575.035 270.924 577.468 273.152L578.733 270.649C575.131 267.267 574.677 265.7 574.54 265.246C574.567 264.834 574.787 264.463 575.131 264.243C577.702 262.263 578.651 256.337 579.008 252.873C580.575 254.742 581.964 256.75 583.146 258.881C583.201 259.444 583.215 260.008 583.201 260.585C583.201 262.771 583.174 266.415 585.937 268.023C587.491 268.945 589.718 273.179 591.89 279.407L594.214 278.486C591.588 270.993 589.072 266.497 586.693 265.095C585.882 264.628 585.745 263.473 585.772 261.08C585.813 260.228 585.772 259.362 585.621 258.523C584.892 256.612 583.861 254.839 582.555 253.258C587.711 255.306 594.324 257.437 597.706 256.447C598.641 256.268 599.424 255.65 599.823 254.784C600.799 252.02 598.063 248.116 595.919 245.421L595.932 245.393ZM558.88 267.515C558.839 267.377 557.423 266.277 558.179 258.716C558.99 250.522 561.121 245.751 564.434 244.623L564.668 244.555C568.862 243.317 574.045 247.689 576.258 249.807C569.631 259.829 561.286 269.178 558.88 267.529V267.515ZM597.376 252.914C596.675 254.577 588.439 252.584 579.709 248.776C580.3 246.466 581.744 242.162 584.631 241.31L584.796 241.255C587.23 240.664 590.447 242.767 594.296 247.511C597.637 251.704 597.362 252.9 597.362 252.9L597.376 252.914Z" fill="#1a3263" style="fill: #1a3263; fill: var(--tblr-illustrations-primary, var(--tblr-primary, #1a3263));"/>
    <path d="M719.971 334.099C702.895 342.059 685.833 350.006 668.771 357.966C658.501 332.105 648.245 306.231 637.988 280.37C637.37 278.802 636.751 277.249 636.132 275.681C635.115 273.097 634.098 270.526 633.067 267.955V267.927C631.238 263.308 629.396 258.688 627.567 254.069C626.701 251.91 625.862 249.765 624.996 247.607C625.56 247.291 626.11 246.961 626.66 246.645C627.416 246.218 628.158 245.778 628.914 245.352C632.379 243.359 635.857 241.365 639.322 239.372C641.618 242.053 643.887 244.747 646.183 247.428C648.314 249.944 650.458 252.446 652.603 254.976C661.072 264.916 669.528 274.87 677.997 284.81C679.44 286.515 680.898 288.22 682.341 289.911C694.866 304.636 707.405 319.36 719.943 334.085L719.971 334.099Z" fill="#DADCE0"/>
    <path d="M678.012 284.81C663.824 282.652 645.621 278.129 636.134 275.681C635.117 273.097 634.1 270.526 633.069 267.955V267.927C631.24 263.308 629.398 258.688 627.569 254.069C627.212 250.934 626.882 248.226 626.662 246.644C626.552 245.751 626.456 245.228 626.428 245.187C626.373 245.118 627.322 245.187 628.93 245.352C632.601 245.723 639.709 246.576 646.198 247.428C648.329 249.944 650.474 252.446 652.619 254.976C661.088 264.916 669.543 274.87 678.012 284.81Z" fill="black" opacity="0.1"/>
    <path d="M747.456 242.011C741.035 247.662 734.23 252.831 727.081 257.492C715.353 264.463 702.388 269.096 688.901 271.117C688.901 271.117 650.818 280.108 619.595 263.17C616.02 261.314 612.666 259.046 609.6 256.434C597.047 245.723 585.375 225.169 589.266 208.424C590.874 201.439 591.892 194.345 592.304 187.182C592.4 184.061 591.96 180.94 591.012 177.971C590.764 177.338 590.489 176.665 590.214 176.005C589.293 173.681 585.155 171.578 583.065 168.127C578.019 172.416 559.101 187.114 543.373 180.336C539.812 178.823 536.664 176.445 534.244 173.42C533.103 171.949 532.402 170.189 532.195 168.347C531.673 160.675 541.682 154.763 545.889 152.289C562.126 142.733 580.631 147.738 585.485 149.071C587.547 149.608 619.829 158.874 625.465 182.563C628.435 195.033 620.337 200.986 624.764 206.925C632.518 217.36 666.945 213.552 678.727 193.493C682.632 186.839 683.127 179.978 683.03 175.73C688.695 184.254 696.49 193.342 705.688 203.131C711.16 208.96 714.789 211.943 717.292 213.483C717.292 213.483 725.72 218.708 733.584 225.637C733.611 225.664 733.652 225.692 733.68 225.719C735.014 226.902 736.375 228.208 737.749 229.679C741.393 233.46 744.637 237.584 747.456 242.011Z" fill="#0b1b3b" class="tblr-illustrations tblr-illustrations-vocate tblr-illustrations-christmas-tree-2-c"/>
    <path d="M747.455 242.011C741.035 247.662 734.229 252.831 727.08 257.492C715.353 264.462 702.388 269.096 688.901 271.117C688.901 271.117 650.817 280.108 619.594 263.17C616.02 261.314 612.665 259.046 609.599 256.433C597.047 245.723 585.374 225.169 589.265 208.424C590.874 201.439 591.891 194.345 592.303 187.182C596.181 208.314 607.963 227.163 625.245 239.908C644.397 252.281 667.439 257.176 689.973 253.656C700.243 252.281 710.032 248.404 718.46 242.369C724.537 237.832 729.679 232.14 733.583 225.637C733.611 225.664 733.652 225.692 733.679 225.719C735.013 226.902 736.374 228.208 737.749 229.679C741.392 233.46 744.637 237.584 747.455 242.011Z" fill="black" opacity="0.5"/>
    <path d="M471.796 297.597C467.644 301.611 459.505 299.92 453.593 293.829C452.947 293.156 452.342 292.455 451.806 291.74C447.448 285.965 446.733 279.077 450.431 275.516C454.46 271.612 462.269 273.097 468.126 278.789C468.304 278.94 468.469 279.105 468.634 279.284C474.532 285.388 475.949 293.582 471.81 297.597H471.796Z" fill="#FFCB9D" style="fill: #FFCB9D; fill: var(--tblr-illustrations-skin, #FFCB9D);"/>
    <path d="M471.799 297.596C467.647 301.611 459.508 299.92 453.596 293.829C452.95 293.155 452.345 292.454 451.809 291.739C456.387 288.632 463.852 283.078 468.128 278.788C468.307 278.939 468.472 279.104 468.637 279.283C474.535 285.387 475.951 293.581 471.813 297.596H471.799Z" fill="black" opacity="0.1"/>
    <path d="M538.478 248.308C538.478 248.308 527.424 270.773 519.106 286.886C510.788 302.986 473.791 278.555 473.791 278.555L440.148 304.869C440.148 304.869 500.504 335.281 522.969 320.969C545.435 306.671 550.645 286.185 550.645 286.185L538.478 248.308Z" fill="#DADCE0"/>
    <path d="M626.729 146.047L626.083 146.171C625.093 146.363 624.089 145.91 623.553 145.057C622.206 142.954 621.834 141.978 620.212 141.098C618.631 140.245 616.527 140.768 615.111 141.661C615.001 141.73 614.878 141.799 614.781 141.881C613.791 142.596 613.324 143.435 612.788 144.425C612.32 145.277 610.437 148.769 611.317 152.165C611.317 152.193 611.317 152.206 611.344 152.234C611.344 152.261 611.344 152.261 611.344 152.261C611.399 152.509 611.482 152.77 611.578 153.018C612.485 155.259 614.121 155.767 613.915 156.4C613.613 157.293 609.942 157.348 596.963 154.53C596.963 154.53 596.936 154.53 596.908 154.53C596.785 154.53 596.661 154.53 596.523 154.53C596.248 154.502 595.987 154.489 595.698 154.461C595.561 154.461 595.423 154.434 595.272 154.434C594.777 154.392 594.282 154.351 593.774 154.296H593.719C587.766 153.774 581.414 153.018 574.746 151.931C570.841 151.299 567.074 150.612 563.458 149.855C563.266 149.814 563.059 149.773 562.881 149.732C559.636 149.058 556.515 148.343 553.518 147.601C552.267 147.284 551.483 146.061 551.717 144.782C551.868 143.999 552.061 143.105 552.294 142.143C553.188 138.568 554.769 134.003 557.656 129.563C559.43 126.813 561.698 124.104 564.586 121.698C580.52 108.417 606.986 111.043 620.212 125.713C623.787 129.673 625.945 134.017 627.265 137.88C627.911 139.792 628.351 141.579 628.667 143.16C628.929 144.494 628.062 145.8 626.729 146.047Z" fill="#1a3263" style="fill: #1a3263; fill: var(--tblr-illustrations-primary, var(--tblr-primary, #1a3263));"/>
    <path d="M626.731 154.227C631.249 154.227 634.911 150.564 634.911 146.047C634.911 141.529 631.249 137.866 626.731 137.866C622.213 137.866 618.551 141.529 618.551 146.047C618.551 150.564 622.213 154.227 626.731 154.227Z" fill="#DADCE0"/>
    <path d="M617.518 162.242C617.243 163.672 615.965 164.676 614.507 164.607C604.196 164.126 592.359 162.93 579.421 160.427C566.814 157.994 555.636 154.804 546.067 151.505C544.693 151.023 543.868 149.621 544.143 148.191L545.174 142.816C545.517 141.042 547.373 139.997 549.065 140.63C558.139 144.039 569.069 147.394 581.662 149.827C594.421 152.288 605.97 153.223 615.759 153.402C617.573 153.429 618.907 155.093 618.563 156.867L617.532 162.242H617.518Z" fill="#DADCE0"/>
    <path d="M620.214 141.097C618.633 140.244 616.529 140.767 615.113 141.661C615.003 141.729 614.879 141.798 614.783 141.88C613.793 142.595 613.326 143.434 612.79 144.424C612.322 145.276 610.439 148.769 611.319 152.164C611.195 151.766 610.714 150.212 610.714 150.212C609.806 144.41 608.858 136.697 608.473 133.535C609.848 134.181 611.869 135.199 614.247 136.587C615.787 137.481 620.571 140.231 620.214 141.097Z" fill="black" opacity="0.1"/>
    <path d="M387.893 47.1807V93.8019C387.893 93.8019 349.425 84.2879 339.773 81.4969C340.488 80.3421 341.767 79.5034 343.417 79.5034H371.106C372.976 79.5034 374.64 78.2936 375.217 76.5062L383.769 50.1778C384.374 48.3218 385.927 47.3319 387.536 47.2082H387.879L387.893 47.1807Z" fill="black" opacity="0.1"/>
    <path d="M417.172 140.011H413.57C413.323 139.901 413.089 139.75 412.841 139.571L390.431 123.293C388.919 122.193 386.87 122.193 385.358 123.293L362.948 139.571C362.714 139.75 362.467 139.887 362.219 140.011H358.617L387.901 93.8022L417.172 140.011Z" fill="black" opacity="0.1"/>
    <path d="M583.061 168.127C578.937 171.633 565.546 182.095 552.196 182.095C549.212 182.095 546.243 181.573 543.369 180.336C540.317 179.043 537.554 177.105 535.312 174.657C556.966 176.61 583.061 168.127 583.061 168.127Z" fill="black" opacity="0.5"/>
    <path d="M428.572 407.227L417.518 468.381C416.885 471.873 419.209 475.214 422.701 475.846C426.193 476.478 429.534 474.155 430.166 470.663L441.22 409.509C441.784 406.361 443.461 403.694 445.757 401.81C447.861 400.092 450.487 399.047 453.278 398.909C454.254 398.854 455.244 398.909 456.247 399.088C458.708 399.528 460.881 400.655 462.613 402.209C464.345 403.763 465.624 405.784 466.298 408.025C466.903 409.936 467.054 412.012 466.669 414.115C466.036 417.607 468.36 420.948 471.852 421.581C475.344 422.213 478.685 419.89 479.317 416.397C480.17 411.668 479.675 407.007 478.094 402.8C476.623 398.868 474.189 395.335 471.055 392.53C467.631 389.478 463.355 387.306 458.516 386.426C456.564 386.068 454.625 385.944 452.714 386.041C448.012 386.261 443.558 387.759 439.749 390.275C434.057 394.015 429.85 399.982 428.544 407.213L428.572 407.227Z" fill="#1a3263" style="fill: #1a3263; fill: var(--tblr-illustrations-primary, var(--tblr-primary, #1a3263));"/>
    <path d="M462.627 402.223C463.259 402.883 463.961 403.735 464.634 404.78C465.404 405.976 465.94 407.104 466.312 408.039L478.108 402.814C477.709 401.384 476.953 399.281 475.427 397.067C473.915 394.881 472.251 393.424 471.069 392.544L462.613 402.223H462.627Z" fill="#DADCE0"/>
    <path d="M439.791 390.303L445.772 401.824C446.707 401.219 447.916 400.545 449.401 399.982C450.872 399.418 452.206 399.102 453.292 398.923L452.756 386.068C451.326 386.027 449.47 386.11 447.38 386.632C443.833 387.498 441.262 389.162 439.777 390.317L439.791 390.303Z" fill="#DADCE0"/>
    <path d="M428.49 407.75C428.173 408.987 427.885 410.307 427.623 411.695C427.293 413.469 427.046 415.16 426.867 416.741C430.95 418.267 435.034 419.779 439.117 421.306C439.433 420.027 439.736 418.666 439.997 417.222C440.272 415.696 440.478 414.253 440.629 412.891C436.587 411.173 432.532 409.468 428.49 407.75Z" fill="#DADCE0"/>
    <path d="M424.562 429.472C424.204 430.998 423.874 432.607 423.586 434.298C423.338 435.7 423.132 437.061 422.953 438.367C427.036 439.88 431.12 441.406 435.203 442.918C435.533 441.502 435.835 440.004 436.11 438.436C436.344 437.116 436.537 435.838 436.702 434.614C432.66 432.896 428.604 431.191 424.562 429.472Z" fill="#DADCE0"/>
    <path d="M420.64 451.181C420.365 452.57 420.103 453.986 419.842 455.416C419.567 456.956 419.306 458.482 419.059 459.994C423.142 461.506 427.225 463.032 431.309 464.545C431.625 463.17 431.913 461.713 432.188 460.2C432.422 458.867 432.628 457.561 432.793 456.309C428.751 454.591 424.695 452.886 420.653 451.167L420.64 451.181Z" fill="#DADCE0"/>
</svg>
