<svg xmlns="http://www.w3.org/2000/svg" width="800" height="600" fill="none" viewBox="0 0 800 600">
    <style>
        :where(.theme-dark, [data-theme="dark"]) .tblr-illustrations-cleaning-a { fill: black; opacity: 0.07; } :where(.theme-dark, [data-theme="dark"]) .tblr-illustrations-cleaning-b { fill: black; opacity: 0.3; } :where(.theme-dark, [data-theme="dark"]) .tblr-illustrations-cleaning-c { fill: #24304d; }
        @media (prefers-color-scheme: dark) { .tblr-illustrations-cleaning-a { fill: black; opacity: 0.07; } .tblr-illustrations-cleaning-b { fill: black; opacity: 0.3; } .tblr-illustrations-cleaning-c { fill: #24304d; } }
    </style>
    <path d="M179.203 298.509C179.203 337.117 220.12 365.208 238.249 396.436C256.879 428.677 261.444 477.789 293.649 496.485C324.947 514.573 369.509 494.363 408.203 494.363C446.898 494.363 491.46 514.573 522.757 496.485C554.962 477.897 559.527 428.677 578.158 396.436C596.286 365.208 637.203 337.224 637.203 298.509C637.203 259.793 596.19 231.809 578.158 200.581C559.527 168.341 554.962 119.133 522.757 100.532C491.46 82.4441 446.898 102.654 408.203 102.654C369.509 102.654 324.947 82.4441 293.649 100.532C261.336 119.121 256.879 168.341 238.249 200.581C220.12 231.904 179.203 259.901 179.203 298.509Z" fill="#1a3263" style="fill: #1a3263; fill: var(--tblr-illustrations-primary, var(--tblr-primary, #1a3263));" opacity="0.02" class="tblr-illustrations tblr-illustrations-vocate tblr-illustrations-cleaning-a"/>
    <path d="M702.191 453.937C702.191 456.447 623.574 458.646 512.158 459.554C510.712 459.566 509.267 459.59 507.81 459.59C504.525 459.626 501.205 459.638 497.848 459.674C487.349 459.758 476.599 459.805 465.611 459.853C443.944 459.961 421.369 460.009 398.209 460.009C230.356 460.009 94.2031 457.248 94.2031 453.949C94.2031 451.295 188.885 448.941 317.657 448.236C323.82 448.188 330.079 448.176 336.421 448.14C347.362 448.092 358.53 448.056 369.889 448.044C379.194 448.033 388.678 448.009 398.209 448.009C403.488 448.009 408.756 448.009 413.964 448.021H424.045C442.367 448.056 460.188 448.116 477.436 448.212C481.461 448.224 485.438 448.248 489.404 448.272C491.733 448.284 494.062 448.307 496.367 448.307C505.815 448.367 515.06 448.451 524.066 448.511C629.152 449.455 702.203 451.511 702.203 453.937H702.191Z" fill="#d9e2f3" opacity="0.5" class="tblr-illustrations tblr-illustrations-vocate tblr-illustrations-cleaning-b"/>
    <path d="M596.297 151.009H221.085C206.234 151.032 194.215 163.051 194.203 177.847V391.985C194.167 406.817 206.199 418.883 221.085 418.895H358.123V428.016C356.702 437.948 349.999 440.786 345.327 441.466H293.045C291.026 441.466 289.425 443.087 289.425 445.078V450.384C289.425 452.399 291.038 454.009 293.045 454.009H524.361C526.356 454.009 527.993 452.387 527.993 450.384V445.114C527.993 443.087 526.356 441.477 524.361 441.477H471.983C467.324 440.738 460.573 437.924 459.175 427.957V418.907H596.309C611.16 418.907 623.191 406.901 623.203 392.08V177.859C623.203 163.039 611.16 151.032 596.309 151.02L596.297 151.009ZM612.952 391.985C612.952 401.154 605.485 408.582 596.309 408.594H221.097C211.897 408.594 204.454 401.154 204.43 391.985V177.847C204.454 168.678 211.897 161.238 221.097 161.238H596.309C605.485 161.238 612.952 168.678 612.952 177.847V391.985Z" fill="#0b1b3b" class="tblr-illustrations tblr-illustrations-vocate tblr-illustrations-cleaning-c"/>
    <path d="M445.6 279.625L301.397 185.907C298.254 183.865 294.052 184.757 292.009 187.899L282.466 202.584C280.423 205.726 281.315 209.929 284.458 211.971L428.66 305.689C431.803 307.731 436.006 306.839 438.048 303.697L447.591 289.012C449.634 285.87 448.742 281.667 445.6 279.625Z" fill="#DADCE0"/>
    <path d="M449.675 242.291L362.578 185.687C359.569 183.731 355.543 184.585 353.587 187.595L349.076 194.536C347.12 197.546 347.974 201.571 350.984 203.527L438.08 260.132C441.09 262.087 445.115 261.233 447.071 258.224L451.583 251.282C453.538 248.273 452.684 244.247 449.675 242.291Z" fill="#DADCE0"/>
    <path d="M329.229 336.102L242.133 279.498C239.123 277.542 235.098 278.396 233.142 281.405L228.631 288.347C226.675 291.357 227.529 295.382 230.538 297.338L317.635 353.942C320.645 355.898 324.67 355.044 326.626 352.034L331.137 345.093C333.093 342.083 332.239 338.058 329.229 336.102Z" fill="#DADCE0"/>
    <path d="M277.064 122.349C276.914 122.011 276.636 121.722 276.243 121.565C274.369 120.817 272.298 119.682 270.481 117.993C268.873 116.11 267.797 113.962 267.08 112.007C266.929 111.609 266.663 111.319 266.339 111.162C265.946 110.957 265.46 110.957 265.055 111.162C264.731 111.319 264.465 111.597 264.303 112.007C263.586 113.95 262.51 116.11 260.913 117.993C259.109 119.682 257.026 120.817 255.152 121.565C254.758 121.722 254.492 122.011 254.342 122.349C254.157 122.76 254.157 123.267 254.342 123.677C254.492 124.015 254.758 124.292 255.152 124.461C257.038 125.209 259.109 126.344 260.913 128.033C262.51 129.916 263.586 132.064 264.303 134.019C264.454 134.429 264.731 134.707 265.055 134.864C265.46 135.057 265.934 135.057 266.339 134.864C266.663 134.707 266.929 134.429 267.08 134.019C267.797 132.076 268.873 129.916 270.481 128.033C272.298 126.344 274.369 125.209 276.243 124.461C276.636 124.304 276.902 124.015 277.064 123.677C277.249 123.267 277.249 122.772 277.064 122.361V122.349Z" fill="#DADCE0"/>
    <path d="M439.07 190.413C438.927 190.104 438.666 189.843 438.287 189.689C436.495 189 434.514 187.966 432.77 186.41C431.228 184.688 430.208 182.705 429.52 180.923C429.378 180.555 429.117 180.294 428.808 180.151C428.428 179.961 427.966 179.961 427.586 180.151C427.278 180.294 427.017 180.555 426.874 180.923C426.186 182.705 425.154 184.688 423.624 186.41C421.892 187.966 419.911 189 418.108 189.689C417.728 189.831 417.479 190.093 417.337 190.401C417.159 190.781 417.159 191.245 417.337 191.625C417.479 191.934 417.74 192.195 418.108 192.337C419.911 193.026 421.892 194.06 423.624 195.616C425.154 197.338 426.186 199.321 426.874 201.103C427.017 201.483 427.278 201.732 427.586 201.875C427.978 202.053 428.428 202.053 428.808 201.875C429.117 201.732 429.378 201.471 429.52 201.103C430.208 199.321 431.228 197.338 432.77 195.616C434.502 194.06 436.495 193.026 438.287 192.337C438.666 192.195 438.927 191.922 439.07 191.613C439.248 191.233 439.248 190.781 439.07 190.401V190.413Z" fill="#DADCE0"/>
    <path d="M532.967 106.958C532.713 106.426 532.252 105.966 531.586 105.718C528.413 104.526 524.888 102.743 521.811 100.051C519.086 97.0755 517.269 93.6634 516.045 90.5818C515.791 89.9442 515.331 89.4956 514.786 89.2476C514.107 88.9288 513.296 88.9288 512.617 89.2476C512.072 89.4956 511.612 89.9442 511.358 90.5936C510.134 93.6752 508.317 97.0873 505.604 100.063C502.54 102.743 499.015 104.537 495.829 105.73C495.163 105.978 494.715 106.426 494.448 106.958C494.121 107.619 494.121 108.41 494.448 109.059C494.703 109.591 495.163 110.039 495.829 110.287C499.015 111.48 502.528 113.263 505.604 115.954C508.317 118.93 510.134 122.342 511.358 125.423C511.612 126.073 512.072 126.51 512.617 126.769C513.296 127.088 514.119 127.088 514.786 126.769C515.331 126.522 515.791 126.073 516.045 125.435C517.269 122.354 519.086 118.942 521.811 115.966C524.888 113.286 528.4 111.492 531.586 110.299C532.252 110.051 532.713 109.591 532.967 109.059C533.282 108.398 533.282 107.631 532.967 106.97V106.958Z" fill="#1a3263" style="fill: #1a3263; fill: var(--tblr-illustrations-primary, var(--tblr-primary, #1a3263));"/>
    <path d="M341.549 196.866L350.203 179.009L320.203 190.711L338.616 198.009L341.549 196.866Z" fill="#A6A9B3"/>
    <path d="M341.599 196.967L338.648 198.115L365.35 266.742L368.3 265.594L341.599 196.967Z" fill="#A6A9B3"/>
    <path d="M350.611 177.522L318.88 189.868C318.444 190.038 318.228 190.53 318.397 190.966L318.74 191.846C318.909 192.282 319.401 192.498 319.838 192.329L351.568 179.983C352.004 179.813 352.221 179.322 352.051 178.885L351.709 178.005C351.539 177.569 351.047 177.353 350.611 177.522Z" fill="#0b1b3b" class="tblr-illustrations tblr-illustrations-vocate tblr-illustrations-cleaning-c"/>
    <path d="M359.357 242.593L356.406 243.74L365.356 266.742L368.306 265.594L359.357 242.593Z" fill="#0b1b3b" class="tblr-illustrations tblr-illustrations-vocate tblr-illustrations-cleaning-c"/>
    <path d="M345.623 240.455C346.14 239.2 346.898 238.067 347.848 237.105C350.902 233.303 355.292 231.939 358.743 233.9C363.193 236.41 364.576 243.318 361.69 249.556C361.413 250.227 361.04 250.86 360.595 251.445C357.541 256.245 352.454 258.353 348.569 256.111C344.264 253.589 342.869 246.559 345.623 240.455Z" fill="#FFCB9D" style="fill: #FFCB9D; fill: var(--tblr-illustrations-skin, #FFCB9D);"/>
    <path d="M345.569 240.398C346.07 239.129 346.805 237.982 347.726 237.009C349.254 238.648 350.431 239.979 351.271 240.879C353.603 243.406 354.513 244.342 355.854 245.994C356.938 247.325 357.743 248.447 358.279 249.199L359.503 250.801L360.203 251.38C357.241 256.236 352.309 258.369 348.566 256.101C344.251 253.697 342.91 246.573 345.569 240.41V240.398Z" fill="black" opacity="0.1"/>
    <path d="M187.775 197.996C186.582 197.9 185.4 197.803 184.207 197.706L182.921 193.456L180.014 194.716L176.91 196.072C175.67 193.335 174.443 190.599 173.203 187.851C173.748 187.803 177.535 187.415 179.331 186.253C179.852 185.926 180.199 185.527 180.269 185.055C180.327 184.631 180.176 184.013 179.771 183.699C178.751 182.912 177.095 184.716 175.647 184.098C175.172 183.892 174.547 183.335 174.153 181.689C174.315 181.846 175.346 182.863 176.771 182.682C178.068 182.512 178.809 181.471 179.006 181.18C180.165 179.522 179.887 176.81 178.381 174.304C178.937 174.038 179.481 173.771 180.026 173.505C180.373 173.335 180.72 173.178 181.056 173.009C183.443 177.379 185.817 181.762 188.203 186.144L187.775 198.009V197.996Z" fill="#A6A9B3"/>
    <path d="M179.705 184.464C178.707 183.657 177.084 185.507 175.666 184.874C175.201 184.663 174.589 184.092 174.203 182.403C174.362 182.564 175.372 183.607 176.767 183.421C178.037 183.247 178.763 182.179 178.956 181.881C180.091 180.18 179.818 177.399 178.344 174.828C178.888 174.555 179.421 174.282 179.954 174.009C180.011 174.244 182.893 181.397 179.705 184.476V184.464Z" fill="black" opacity="0.1"/>
    <path d="M180.203 194.766L177.013 196.009C175.739 193.501 174.477 190.993 173.203 188.473C173.763 188.429 177.655 188.074 179.501 187.009C179.429 188.44 179.394 191.547 180.203 194.766Z" fill="black" opacity="0.1"/>
    <path d="M136.25 220.683L127.393 200.723C126.829 199.441 127.573 197.967 128.939 197.656L138.491 195.487L153.22 192.144L166.739 189.065C167.77 188.826 168.837 189.365 169.268 190.335L172.013 196.529C172.444 197.5 172.121 198.638 171.258 199.249L159.908 207.253L147.552 215.963L139.546 221.606C138.407 222.409 136.801 221.965 136.226 220.683H136.25Z" fill="#DADCE0"/>
    <path d="M178.043 196.526L173.758 186.861C173.389 186.029 172.415 185.653 171.583 186.022L166.177 188.419C165.344 188.788 164.969 189.762 165.338 190.594L169.623 200.259C169.992 201.092 170.966 201.467 171.798 201.098L177.204 198.702C178.037 198.333 178.412 197.359 178.043 196.526Z" fill="#0b1b3b" class="tblr-illustrations tblr-illustrations-vocate tblr-illustrations-cleaning-c"/>
    <path d="M160.203 207.59L148.106 216.009L145.675 210.597L139.203 196.235L153.638 193.009L156.456 199.288H156.468L160.203 207.59Z" fill="#1a3263" style="fill: #1a3263; fill: var(--tblr-illustrations-primary, var(--tblr-primary, #1a3263));"/>
    <path d="M160.203 207.45L147.713 216.009L145.203 210.506C148.32 202.912 153.704 200.008 156.335 199.009L160.191 207.45H160.203Z" fill="black" opacity="0.1"/>
    <path d="M174.128 202.702C174.27 201.653 174.211 200.582 173.949 199.557C173.378 195.771 170.879 193.093 167.69 193.011C163.573 192.895 159.813 196.971 159.266 202.317C159.182 202.888 159.182 203.459 159.266 204.018C159.432 208.479 162.109 211.938 165.703 212.008C169.725 212.055 173.544 207.897 174.128 202.702Z" fill="#FFCB9D" style="fill: #FFCB9D; fill: var(--tblr-illustrations-skin, #FFCB9D);"/>
    <path d="M174.127 202.327C174.27 201.221 174.211 200.09 173.949 199.009C172.196 199.488 170.814 199.906 169.848 200.164C167.154 200.902 166.129 201.16 164.496 201.725C163.185 202.18 162.147 202.61 161.468 202.905L159.942 203.483L159.203 203.581C159.37 208.289 162.052 211.94 165.652 212.001C169.717 212.21 173.543 207.822 174.127 202.34V202.327Z" fill="black" opacity="0.1"/>
    <path d="M370.203 261.797C367.766 263.075 364.229 264.856 359.892 266.804C351.409 270.615 334.884 278.024 315.636 280.498C305.707 281.776 287.199 282.732 264.103 275.204C264.103 275.204 264.103 275.216 264.103 275.24L256.659 289.018C254.294 293.391 251.952 297.693 249.586 302.055C249.216 302.76 248.809 303.477 248.439 304.194C243.612 313.048 238.844 322.058 233.97 331.009L186.308 311.053V310.993C189.331 301.398 192.497 291.754 195.544 282.063C198.495 273.077 201.387 264.079 204.254 255.081C203.836 255.416 203.394 255.738 202.964 256.073C189.224 266.361 175.567 276.877 165.387 276.172C163.702 276.076 162.053 275.622 160.584 274.822C154.024 271.297 151.933 263.482 149.759 253.922L149.34 252.082C148.922 250.122 148.552 248.15 148.265 246.167C146.282 233.07 147.082 219.674 150.619 206.864L182.055 204.009C171.779 237.551 172.102 245.952 174.515 247.051C177.478 248.425 182.807 240.909 196.87 231.516C204.529 226.39 207.289 225.757 208.759 225.518C210.503 225.231 212.188 225.207 213.813 225.362H213.825C214.805 225.458 215.761 225.613 216.692 225.828C221.555 226.94 225.606 229.509 228.127 231.349L276.78 251.711C281.655 252.978 288.824 254.292 297.486 253.934C305.229 253.599 310.94 252.046 315.863 250.707C325.182 248.162 334.131 244.41 342.471 239.547C345.972 242.892 349.808 246.334 354.025 249.799C359.617 254.388 365.053 258.367 370.191 261.809L370.203 261.797Z" fill="#1a3263" style="fill: #1a3263; fill: var(--tblr-illustrations-primary, var(--tblr-primary, #1a3263));"/>
    <path d="M86.2154 385.996L92.8117 367.009C92.8117 367.009 98.0568 367.462 99.1132 370.855C100.17 374.248 91.6816 383.84 86.2031 386.009" fill="#0b1b3b" class="tblr-illustrations tblr-illustrations-vocate tblr-illustrations-cleaning-c"/>
    <path d="M217.203 454.945L197.498 455.009C197.498 455.009 196.213 449.739 199.011 447.542C201.797 445.345 213.433 450.348 217.203 454.945Z" fill="#0b1b3b" class="tblr-illustrations tblr-illustrations-vocate tblr-illustrations-cleaning-c"/>
    <path d="M234.191 331.008C225.57 368.012 216.949 405.016 208.316 442.009C205.226 441.734 202.149 441.46 199.06 441.173C199.096 409.802 199.144 378.442 199.168 347.058C188.798 356.569 178.417 366.079 168.036 375.59C147.608 375.065 127.157 374.552 106.706 374.015L104.203 368.681C121.805 364.289 139.418 359.922 157.044 355.53C166.85 340.686 176.669 325.841 186.475 311.009C191.528 313.121 196.569 315.233 201.622 317.357C206.843 319.553 212.075 321.724 217.296 323.92C222.936 326.271 228.563 328.646 234.203 330.996L234.191 331.008Z" fill="#DADCE0"/>
    <path d="M257.97 248.997C257.97 248.997 253.961 247.737 248.727 245.902C240.912 242.951 230.276 238.5 227.203 234.17L230.66 227.009L230.72 227.176C231.561 228.256 239.352 237.181 259.111 240.732C259.603 240.84 257.97 249.009 257.97 249.009V248.997Z" fill="#DADCE0"/>
    <path d="M246.203 244.009C238.692 241.163 229.97 237.35 227.203 233.62L230.539 227.009C230.539 227.009 230.551 227.044 230.551 227.056C230.773 228.307 230.996 229.547 231.502 230.786C232.416 232.64 233.615 234.481 235.159 235.91C238.235 238.979 243.078 242.143 246.203 244.009Z" fill="black" opacity="0.1"/>
    <path d="M227.203 191.571C227.384 194.233 227.72 198.332 228.202 203.168C228.346 204.249 228.49 205.223 228.502 205.461C229.236 210.891 230.704 216.06 232.785 221.098C233.17 222.06 233.687 223.011 234.072 223.973C235.865 227.324 248.821 231.15 260.057 229.688C271.293 228.227 274.974 217.379 270.09 212.887C268.334 211.117 266.938 208.966 266.024 206.685C264.605 203.691 263.438 200.566 262.499 197.322C261.97 195.516 261.573 194.316 261.573 194.316L252.587 187.009L231.522 187.484C231.847 190.989 230.92 193.425 229.826 193.698C228.731 193.971 227.456 192.058 227.203 191.583" fill="#FFCB9D" style="fill: #FFCB9D; fill: var(--tblr-illustrations-skin, #FFCB9D);"/>
    <path d="M227.203 191.809C227.38 194.531 227.709 198.724 228.18 203.67C228.322 204.776 228.463 205.772 228.475 206.015C229.193 211.569 230.63 216.856 232.667 222.009C233.974 221.486 235.281 220.83 236.341 219.821C237.519 218.8 238.449 217.415 239.132 216.042C239.815 214.535 240.262 212.918 240.463 211.18C240.674 210.062 240.78 209.066 240.875 207.948C248.847 210.488 257.478 210.16 265.203 207.134C263.814 204.071 262.671 200.875 261.753 197.557C261.235 195.71 260.846 194.482 260.846 194.482L252.05 187.009L231.431 187.495C231.749 191.08 230.842 193.571 229.77 193.851C228.699 194.13 227.462 192.295 227.203 191.809Z" fill="black" opacity="0.1"/>
    <path d="M224.586 196.474C224.538 199.652 224.852 202.698 225.54 205.732C226.083 208.034 226.59 208.634 226.891 211.08C227.169 212.663 227.338 214.246 227.241 215.841C226.879 221.346 222.619 223.276 223.271 225.219C224.586 229.093 244.886 229.98 250.099 220.95C252.694 216.369 250.606 210.924 252.803 209.893C254.625 209.113 257.775 212.219 260.43 215.337C257.087 208.814 257.389 206.127 258.475 204.88C259.911 203.261 262.53 204.664 265.788 202.278C267.357 201.019 268.794 199.52 269.868 197.913C269.988 197.793 270.109 197.661 270.097 197.421C270.338 197.049 270.568 196.558 270.809 196.186C270.809 196.186 270.809 196.066 270.93 196.066C271.521 194.951 271.859 193.727 272.076 192.492L272.185 192C272.366 189.182 271.195 186.532 269.071 184.745C266.054 181.879 261.589 180.272 259.235 179.349C250.184 175.883 236.534 175.463 228.846 183.702C226.928 185.824 225.636 188.415 224.84 191.245C224.755 192.96 224.55 194.795 224.586 196.498" fill="#0b1b3b" class="tblr-illustrations tblr-illustrations-vocate tblr-illustrations-cleaning-c"/>
    <path d="M252.203 210.436C251.126 212.255 252.421 216.916 250.158 220.914C244.943 229.984 224.59 229.104 223.271 225.202C222.702 223.504 225.872 221.818 226.925 217.735C227.082 217.132 227.191 216.482 227.24 215.784C227.325 214.194 227.167 212.604 226.889 211.014C226.586 208.569 226.078 207.967 225.534 205.654C224.844 202.607 224.541 199.548 224.578 196.356C224.541 194.634 224.747 192.791 224.832 191.081C225.618 188.239 226.925 185.649 228.837 183.517C228.849 183.505 228.873 183.481 228.885 183.469C231.693 182.277 235.529 181.169 238.142 182.915C241.434 185.119 240.224 190.202 242.22 196.525C243.394 200.259 245.971 205.293 252.203 210.46V210.436Z" fill="black" opacity="0.3"/>
    <path d="M204.191 254.911C203.773 255.246 203.331 255.568 202.901 255.902C189.161 266.177 175.504 276.679 165.325 275.975C163.64 275.88 161.991 275.426 160.521 274.626C153.962 271.106 151.871 263.301 149.697 253.754L149.278 251.916C148.86 249.959 148.49 247.99 148.203 246.009C158.55 255.627 178.133 267.538 204.203 254.911H204.191Z" fill="black" opacity="0.1"/>
    <path d="M249.203 302.027C248.834 302.733 248.43 303.45 248.061 304.168C243.255 313.031 238.509 322.05 233.655 331.009L186.203 311.034V310.974C189.213 301.369 192.365 291.717 195.399 282.016C198.337 273.022 201.216 264.015 204.071 255.009C204.071 255.009 216.978 289.037 249.191 302.027H249.203Z" fill="black" opacity="0.1"/>
    <path d="M217.191 323.932C214.762 355.184 208.218 440.41 208.23 442.009C205.143 441.734 202.069 441.46 198.982 441.173C199.018 409.802 199.066 378.442 199.09 347.058C188.729 356.569 178.356 366.079 167.983 375.59C147.573 375.065 127.138 374.552 106.704 374.015L104.203 368.681C121.79 364.289 139.389 359.922 157 355.53C166.799 340.686 176.609 325.841 186.408 311.009C191.457 313.121 196.493 315.233 201.542 317.357C206.759 319.553 211.987 321.724 217.203 323.92L217.191 323.932Z" fill="black" opacity="0.1"/>
    <path d="M528.203 445.134V450.385C528.203 452.393 526.551 454.009 524.553 454.009H292.83C290.819 454.009 289.203 452.393 289.203 450.385V445.098C289.203 443.114 290.819 441.498 292.83 441.498H345.216C349.896 440.833 356.61 438.006 358.034 428.097V419.009H459.252V428.026C460.653 437.97 467.415 440.774 472.083 441.498H524.553C526.563 441.498 528.203 443.114 528.203 445.134Z" fill="black" opacity="0.4"/>
    <path d="M665.203 435.327C662.81 435.531 660.417 435.735 658.025 435.951C637.62 412.446 617.227 388.941 596.822 365.436C585.358 371.054 573.917 376.685 562.453 382.291C560.691 401.054 558.929 419.805 557.167 438.568C553.584 439.048 550.013 439.528 546.429 440.009C543.691 418.208 540.941 396.408 538.203 374.584C549.406 363.816 560.62 353.024 571.834 342.256C574.608 341.151 577.37 340.059 580.144 338.966C592.727 333.972 605.334 328.99 617.929 324.009C633.679 361.115 649.441 398.209 665.191 435.315L665.203 435.327Z" fill="#1a3263" style="fill: #1a3263; fill: var(--tblr-illustrations-primary, var(--tblr-primary, #1a3263));"/>
    <path d="M597.203 365.468C585.664 371.083 574.15 376.711 562.611 382.315C560.837 401.07 559.064 419.813 557.291 438.569C553.684 439.049 550.089 439.529 546.483 440.009C543.727 418.217 540.959 396.426 538.203 374.611C549.478 363.848 560.765 353.06 572.053 342.296C574.844 341.193 577.624 340.101 580.416 339.009L597.191 365.456L597.203 365.468Z" fill="black" opacity="0.1"/>
    <path d="M627.203 322.508C617.612 329.39 603.377 337.484 584.845 341.207C580.128 342.156 575.651 342.72 571.464 343.009C570.874 340.066 570.284 337.112 569.695 334.169C566.686 319.169 563.69 304.181 560.682 289.193C552.559 291.559 544.424 293.913 536.314 296.279C535.917 286.923 536.663 282.096 537.397 279.453C537.433 279.297 537.469 279.201 537.469 279.201C537.77 278.168 538.78 275.346 542.415 270.65C544.689 267.696 548.251 263.673 553.498 259.638C555.447 258.136 557.132 256.863 558.431 255.879C561.211 253.789 564.665 251.243 567.264 249.489C567.3 249.465 567.312 249.453 567.312 249.453C567.637 249.225 568.395 248.721 569.502 248.024C570.585 247.328 572.017 246.439 573.714 245.442C574.292 245.106 575.038 244.686 575.868 244.229C578.359 242.86 583.822 240.014 586.108 239.005C596.193 234.549 610.549 236.351 611.355 236.459C614.58 236.903 619.093 237.78 624.279 239.822C621.259 248.3 618.238 256.803 615.206 265.294C613.365 265.006 611.511 264.73 609.67 264.453C611.319 268.609 612.907 272.872 614.448 277.256C614.664 277.844 614.869 278.457 615.061 279.045C620.32 294.225 624.255 308.805 627.203 322.52V322.508Z" fill="#DADCE0"/>
    <path d="M554.346 260.074C555.737 262.232 561.931 260.528 568.161 256.248C574.391 251.968 578.314 246.756 576.923 244.585C576.768 244.352 576.554 244.156 576.293 244.009C575.472 244.475 574.735 244.904 574.165 245.259C572.5 246.265 571.085 247.185 570.004 247.896C568.922 248.607 568.173 249.122 567.852 249.355C567.757 249.429 561.087 254.077 554.203 259.755C554.239 259.878 554.298 259.988 554.358 260.086L554.346 260.074Z" fill="#FFCB9D" style="fill: #FFCB9D; fill: var(--tblr-illustrations-skin, #FFCB9D);"/>
    <path d="M627.203 322.5C617.697 329.384 603.587 337.482 585.219 341.206C580.544 342.156 576.107 342.72 571.956 343.009C571.372 340.065 570.788 337.11 570.203 334.166C576.918 330.418 586.281 324.134 595.214 314.09C606.987 300.863 612.521 287.262 615.169 279.009C620.381 294.195 624.281 308.78 627.203 322.5Z" fill="black" opacity="0.1"/>
    <path d="M539.203 455.009L556.126 453.098C556.126 453.098 556.813 448.772 554.08 447.271C551.348 445.77 541.947 451.023 539.215 455.009" fill="#0b1b3b" class="tblr-illustrations tblr-illustrations-vocate tblr-illustrations-cleaning-c"/>
    <path d="M654.203 455.009L672.203 445.614C672.203 445.614 670.99 440.523 667.262 440.026C663.535 439.541 655.429 449.396 654.203 455.009Z" fill="#0b1b3b" class="tblr-illustrations tblr-illustrations-vocate tblr-illustrations-cleaning-c"/>
    <path d="M557.395 202.159C558.805 204.531 560.841 208.041 563.214 212.429C563.72 213.413 564.178 214.267 564.335 214.54C566.768 219.438 568.564 224.62 569.696 229.969C569.901 231.036 570.069 232.056 570.19 233.087C570.588 236.882 561.913 247.33 551.721 252.311C541.528 257.292 532.155 250.354 533.733 243.844C534.143 241.353 534.095 238.804 533.589 236.337C533.022 233.016 532.227 229.731 531.191 226.518C530.649 224.668 530.203 223.482 530.203 223.482L533.54 212.37L551.516 201.009C553.239 204.116 555.383 205.669 556.467 205.254C557.552 204.839 557.455 202.61 557.407 202.159H557.395Z" fill="#FFCB9D" style="fill: #FFCB9D; fill: var(--tblr-illustrations-skin, #FFCB9D);"/>
    <path d="M557.041 202.183C558.435 204.533 560.448 208.011 562.794 212.358C563.295 213.333 563.747 214.179 563.902 214.449C566.308 219.302 568.095 224.436 569.203 229.735C567.821 230.099 566.368 230.205 564.951 230.04C563.39 229.84 561.877 229.335 560.519 228.56C559.09 227.702 557.803 226.633 556.707 225.388C555.957 224.624 555.254 223.801 554.599 222.956C549.262 229.5 541.853 234.093 533.562 236.009C533.002 232.719 532.204 229.464 531.18 226.28C530.644 224.448 530.203 223.273 530.203 223.273L533.503 212.264L551.287 201.009C552.991 204.087 555.111 205.638 556.171 205.226C557.243 204.815 557.101 202.618 557.065 202.183H557.041Z" fill="black" opacity="0.1"/>
    <path d="M518.777 228.345C520.082 229.199 521.482 229.91 522.952 230.467C524.81 231.226 526.762 231.712 528.749 231.914C537.733 232.826 547.153 227.101 552.515 217.262C553.421 215.59 554.197 213.848 554.832 212.046L554.867 212.01C554.867 212.01 554.926 212.046 554.938 212.081C555.596 213.006 556.196 213.99 556.701 215.009C556.925 215.495 557.007 215.614 557.172 215.934L557.301 216.266C557.572 216.823 558.983 221.055 560.335 222.987C561.264 224.244 562.546 225.18 564.028 225.655C563.193 223.485 562.899 221.126 563.193 218.815C563.346 217.973 563.557 217.155 563.816 216.337C564.721 211.987 564.028 207.446 561.852 203.57C560.947 201.993 559.794 200.571 558.454 199.35C557.619 198.508 554.408 195.604 550.986 195.094C543.907 194.027 534.358 203.167 530.149 208.478C529.419 209.414 528.173 211.086 526.55 211.607C526.244 211.714 525.915 211.75 525.586 211.726C523.469 211.607 521.799 209.213 521.223 207.387C520.082 203.866 521.964 199.504 525.915 196.22C515.285 200.014 509.616 210.161 511.592 218.637C512.627 222.691 515.202 226.176 518.777 228.322V228.345Z" fill="#0b1b3b" class="tblr-illustrations tblr-illustrations-vocate tblr-illustrations-cleaning-c"/>
    <path d="M518.203 228.386C519.534 229.23 520.96 229.933 522.459 230.484C524.353 231.235 526.343 231.715 528.368 231.915C537.527 232.817 547.129 227.155 552.595 217.423C553.77 214.832 554.765 212.628 554.956 212.264L554.992 212.229L556.203 208.009C553.074 213.05 549.035 217.494 544.288 221.128C540.08 224.329 534.254 228.796 525.899 229.183C523.31 229.3 520.72 229.03 518.215 228.386H518.203Z" fill="black" opacity="0.5"/>
    <path d="M570.753 382.992C570.538 383.255 570.264 383.566 569.918 383.901C565.468 388.115 557.224 389.467 553.68 386.152C550.972 383.614 552.44 379.664 555.506 356.765C555.888 353.976 556.627 347.692 556.21 339.313C556.198 339.121 556.186 338.953 556.186 338.798C555.554 329.844 552.619 322.914 551.354 319.849C549.111 314.403 546.606 307.496 543.635 298.71C543.158 297.345 542.692 295.921 542.203 294.461C548.789 292.306 555.375 290.163 561.96 288.009C562.807 290.044 563.595 292.054 564.334 294.018C569.274 307.101 572.03 318.473 573.664 327.043C574.738 332.633 576.17 341.826 576.17 360.284C576.17 360.284 576.969 375.367 570.765 382.992H570.753Z" fill="#FFCB9D" style="fill: #FFCB9D; fill: var(--tblr-illustrations-skin, #FFCB9D);"/>
    <path d="M498.512 442.386L503.117 446.556L622.641 314.554L618.036 310.385L498.512 442.386Z" fill="#0b1b3b" class="tblr-illustrations tblr-illustrations-vocate tblr-illustrations-cleaning-c"/>
    <path d="M514.203 451.009H455.203C455.203 451.009 463.831 444.366 474.529 439.146C489.594 431.792 508.765 427.295 513.656 448.236C513.87 449.116 514.048 450.044 514.203 451.009Z" fill="#DADCE0"/>
    <path d="M514.203 451.009H455.203C455.203 451.009 463.831 444.289 474.529 439.009C483.477 442.045 500.137 447.167 513.656 448.204C513.87 449.094 514.048 450.033 514.203 451.009Z" fill="black" opacity="0.1"/>
    <path d="M453.947 455.009H515.46C516.975 455.009 518.203 453.943 518.203 452.629V451.388C518.203 450.074 516.975 449.009 515.46 449.009H453.947C452.431 449.009 451.203 450.074 451.203 451.388V452.629C451.203 453.943 452.431 455.009 453.947 455.009Z" fill="#1a3263" style="fill: #1a3263; fill: var(--tblr-illustrations-primary, var(--tblr-primary, #1a3263));"/>
    <path d="M576.203 367.516L553.602 392.431L525.865 423.009C518.268 413.543 516.165 405.27 517.647 398.082C521.636 378.686 551.715 367.254 570.099 362.009L576.203 367.516Z" fill="#DADCE0"/>
    <path d="M647.12 310.012L646.965 310.852C646.465 313.548 643.868 315.334 641.165 314.837L630.219 312.85C629.886 312.791 629.552 312.768 629.242 312.779C627.861 312.803 626.551 313.383 625.622 314.412L623.573 316.659L611.973 329.385C610.126 331.408 606.97 331.561 604.922 329.728L603.838 328.77C601.801 326.937 601.646 323.803 603.492 321.78L609.305 315.405L615.867 308.202L620.953 302.631C622.108 301.366 623.847 300.775 625.538 301.094L628.123 301.567L634.018 302.631L643.106 304.275C645.821 304.772 647.62 307.351 647.12 310.035V310.012Z" fill="#A6A9B3"/>
    <path d="M535.777 384.056C537.862 382.211 538.936 380.019 538.176 379.159C537.415 378.299 535.108 379.097 533.022 380.942C530.937 382.786 529.863 384.979 530.623 385.839C531.384 386.699 533.691 385.901 535.777 384.056Z" fill="#1a3263" style="fill: #1a3263; fill: var(--tblr-illustrations-primary, var(--tblr-primary, #1a3263));"/>
    <path d="M553.203 392.009L525.77 423.009C518.256 413.413 516.177 405.025 517.642 397.737C522.781 400.227 535.73 404.082 553.203 392.009Z" fill="black" opacity="0.1"/>
    <path d="M623.203 317.214L611.803 329.448C609.989 331.392 606.888 331.54 604.875 329.778L603.81 328.857C601.808 327.094 601.656 324.081 603.47 322.137L609.182 316.009C615.174 318.374 619.75 318.43 623.203 317.225V317.214Z" fill="black" opacity="0.1"/>
    <path d="M647.119 310.22L646.964 311.039C646.463 313.67 643.861 315.412 641.151 314.928L630.182 312.989C629.848 312.932 629.513 312.908 629.203 312.92C632.032 309.782 633.381 305.709 633.99 303.009L643.097 304.612C645.818 305.097 647.621 307.612 647.119 310.232V310.22Z" fill="black" opacity="0.1"/>
    <path d="M642.41 319.977C639.524 319.682 636.961 317.186 635.828 314.868C633.61 310.302 636.233 304.861 639.488 298.368C645.283 286.8 650.553 283.489 649.539 277.255C649.039 274.263 647.358 272.264 646.082 270.762C639.62 263.121 627.721 261.394 621.056 261.063C618.111 260.909 616.203 261.028 616.203 261.028L622.689 242.009C625.312 242.316 629.092 242.919 633.479 244.244C639.274 246.006 646.106 249.022 652.639 254.298C656.836 257.692 662.225 262.057 665.111 269.153C673.779 290.491 653.414 321.125 642.41 319.977Z" fill="#FFCB9D" style="fill: #FFCB9D; fill: var(--tblr-illustrations-skin, #FFCB9D);"/>
    <path d="M634.203 244.238C630.141 248.295 624.24 255.041 621.259 261.009C618.191 260.855 616.203 260.973 616.203 260.973L622.961 242.009C625.694 242.315 629.632 242.917 634.203 244.238Z" fill="black" opacity="0.1"/>
    <path d="M564.203 294.173C558.997 294.899 549.117 296.511 543.626 299.009C543.152 297.606 542.689 296.142 542.203 294.641C548.75 292.426 555.296 290.223 561.843 288.009C562.685 290.1 563.468 292.167 564.203 294.185V294.173Z" fill="black" opacity="0.1"/>
</svg>
