<svg xmlns="http://www.w3.org/2000/svg" width="800" height="600" fill="none" viewBox="0 0 800 600">
    <style>
        :where(.theme-dark, [data-theme="dark"]) .tblr-illustrations-contract-a { fill: black; opacity: 0.07; } :where(.theme-dark, [data-theme="dark"]) .tblr-illustrations-contract-b { fill: black; opacity: 0.3; } :where(.theme-dark, [data-theme="dark"]) .tblr-illustrations-contract-c { fill: #24304d; } :where(.theme-dark, [data-theme="dark"]) .tblr-illustrations-contract-d { fill: #0b1b3b; } :where(.theme-dark, [data-theme="dark"]) .tblr-illustrations-contract-e { fill: #283247; }
        @media (prefers-color-scheme: dark) { .tblr-illustrations-contract-a { fill: black; opacity: 0.07; } .tblr-illustrations-contract-b { fill: black; opacity: 0.3; } .tblr-illustrations-contract-c { fill: #24304d; } .tblr-illustrations-contract-d { fill: #0b1b3b; } .tblr-illustrations-contract-e { fill: #283247; } }
    </style>
    <path d="M120.199 303.91C120.199 349.37 168.351 382.449 189.689 419.229C211.621 457.196 216.982 515.023 254.891 537.049C291.716 558.354 344.169 534.548 389.699 534.548C435.229 534.548 487.67 558.354 524.507 537.049C562.404 515.152 567.777 457.196 589.709 419.229C611.047 382.462 659.199 349.499 659.199 303.91C659.199 258.322 610.931 225.372 589.709 188.592C567.777 150.625 562.417 92.6693 524.507 70.7714C487.683 49.4667 435.229 73.2732 389.699 73.2732C344.169 73.2732 291.729 49.4667 254.891 70.7714C216.865 92.6693 211.621 150.625 189.689 188.592C168.351 225.488 120.199 258.451 120.199 303.91Z" fill="#1a3263" style="fill: #1a3263; fill: var(--tblr-illustrations-primary, var(--tblr-primary, #1a3263));" opacity="0.02" class="tblr-illustrations tblr-illustrations-vocate tblr-illustrations-contract-a"/>
    <path d="M199.199 509.865C199.199 512.077 285.411 513.91 391.699 513.91C497.987 513.91 584.199 512.064 584.199 509.865C584.199 507.665 497.987 505.91 391.699 505.91C285.411 505.91 199.199 507.757 199.199 509.865Z" fill="#d9e2f3" opacity="0.5" class="tblr-illustrations tblr-illustrations-vocate tblr-illustrations-contract-b"/>
    <path d="M233.93 494.225L237.557 493.918C238.639 493.825 239.637 494.612 239.777 495.679L241.183 506.488C241.323 507.555 240.55 508.503 239.468 508.596L235.842 508.903C234.76 508.996 233.762 508.209 233.621 507.142L232.216 496.333C232.075 495.266 232.848 494.318 233.93 494.225Z" fill="#0b1b3b" class="tblr-illustrations tblr-illustrations-vocate tblr-illustrations-contract-c"/>
    <path d="M190.096 129.094L211.427 127.917C213.79 127.787 215.884 129.677 216.115 132.149L217.181 144.029C217.399 146.488 215.665 148.597 213.302 148.726L191.971 149.904C189.608 150.034 187.515 148.144 187.284 145.672L186.218 133.792C185.999 131.333 187.733 129.224 190.096 129.094Z" fill="#1a3263" style="fill: #1a3263; fill: var(--tblr-illustrations-primary, var(--tblr-primary, #1a3263));"/>
    <path d="M239.413 499.253C238.396 502.576 234.019 502.849 232.385 499.696C231.097 497.194 229.797 494.678 228.51 492.176C221.971 479.509 211.738 449.067 205.199 436.413L250.199 433.91C246.235 446.903 245.977 477.685 242.026 490.704C241.163 493.558 240.288 496.412 239.425 499.266L239.413 499.253Z" fill="#A6A9B3"/>
    <path d="M250.199 434.444L205.334 436.91L197.568 350.465L179.968 154.132L178.261 154.274C177.067 154.377 176.002 154.932 175.244 155.849C174.397 156.87 173.999 158.213 174.14 159.634L187.003 289.696C187.144 291.233 186.04 292.602 184.513 292.744L181.162 293.093C179.635 293.235 178.274 292.124 178.133 290.587L165.27 160.512C164.898 156.689 166.002 152.995 168.402 150.115C170.7 147.325 173.948 145.633 177.529 145.336C180.058 145.155 182.587 144.987 185.116 144.806C187.516 144.638 189.93 144.471 192.33 144.303H192.356L217.375 142.921C221.072 142.714 224.307 145.646 224.654 149.456L245.039 376.904L250.199 434.444Z" fill="#0b1b3b" class="tblr-illustrations tblr-illustrations-vocate tblr-illustrations-contract-c"/>
    <path d="M250.199 434.428L205.02 436.91L197.199 349.91C209.725 358.762 225.431 367.719 244.99 376.519L250.199 434.428Z" fill="black" opacity="0.15"/>
    <path d="M552.445 505.91H280.98C267.579 505.91 258.727 491.682 264.141 479.028C290.168 418.208 288.074 372.132 279.442 339.278C261.983 272.846 212.296 239.644 216.444 172.439C218.434 140.061 232.106 113.27 245.468 93.8821C248.931 88.8643 254.527 85.9104 260.497 85.9104H530.205C544.058 85.9104 552.91 101.028 546.578 113.76C539.522 127.923 533.59 144.744 531.432 163.809C523.252 235.864 576.222 273.633 591.949 346.463C599.431 381.149 599.922 430.553 569.063 495.152C565.936 501.705 559.513 505.897 552.445 505.897V505.91Z" fill="white" class="tblr-illustrations tblr-illustrations-vocate tblr-illustrations-contract-d"/>
    <path d="M552.252 509.897H281.173C273.87 509.897 267.34 506.347 263.25 500.136C258.991 493.693 258.281 485.559 261.34 478.406C282.399 429.071 287.497 382.718 276.463 340.652C269.392 313.693 256.926 292.246 244.874 271.523C227.428 241.517 210.949 213.176 213.452 172.62C215.13 145.416 225.066 118.404 243.016 92.323C247.068 86.4353 253.7 82.9104 260.733 82.9104H530.057C537.515 82.9104 544.342 86.771 548.342 93.2139C552.549 100.005 552.923 108.346 549.348 115.538C541.4 131.536 536.418 148.024 534.547 164.551C529.863 205.855 545.968 236.12 563.027 268.166C575.479 291.562 588.345 315.746 594.926 346.32C605.004 393.164 597.236 443.945 571.828 497.27C568.111 505.068 560.614 509.91 552.265 509.91L552.252 509.897ZM260.733 89.4953C255.855 89.4953 251.262 91.9485 248.436 96.0544C231.183 121.129 221.621 147.017 220.021 173.021C217.646 211.575 233.634 239.089 250.565 268.205C262.837 289.315 275.534 311.149 282.825 338.986C294.233 382.499 289.032 430.284 267.392 481.001C265.211 486.127 265.714 491.924 268.747 496.521C271.599 500.846 276.128 503.325 281.186 503.325H552.265C558.059 503.325 563.285 499.917 565.892 494.442C590.668 442.473 598.268 393.099 588.5 347.715C582.112 318.031 569.466 294.261 557.22 271.265C539.67 238.289 523.101 207.146 528.018 163.815C529.979 146.526 535.18 129.302 543.464 112.62C546.019 107.494 545.748 101.542 542.754 96.7C539.928 92.1293 535.296 89.5082 530.057 89.5082H260.733V89.4953Z" fill="#EFF2F5" class="tblr-illustrations tblr-illustrations-vocate tblr-illustrations-contract-e"/>
    <path d="M463.501 135.91H263.898C259.646 135.91 256.199 139.396 256.199 143.695V144.126C256.199 148.425 259.646 151.91 263.898 151.91H463.501C467.753 151.91 471.199 148.425 471.199 144.126V143.695C471.199 139.396 467.753 135.91 463.501 135.91Z" fill="#DADCE0"/>
    <path d="M411.781 167.91H245.617C242.073 167.91 239.199 170.747 239.199 174.245V174.576C239.199 178.074 242.073 180.91 245.617 180.91H411.781C415.326 180.91 418.199 178.074 418.199 174.576V174.245C418.199 170.747 415.326 167.91 411.781 167.91Z" fill="#DADCE0"/>
    <path d="M565.235 390.071L556.576 369.841C555.561 367.47 556.668 364.709 559.037 363.693L581.017 354.288C583.387 353.272 586.134 354.379 587.163 356.75L595.822 376.98C596.838 379.35 595.731 382.112 593.361 383.128L571.381 392.533C569.012 393.549 566.264 392.442 565.235 390.071ZM562.11 372.043L567.449 384.535C568.465 386.906 571.212 388.013 573.595 386.997L587.84 380.901C590.21 379.884 591.317 377.136 590.301 374.752L584.962 362.26C583.947 359.889 581.199 358.782 578.816 359.798L564.571 365.894C562.202 366.91 561.095 369.659 562.11 372.043Z" fill="#DADCE0"/>
    <path d="M565.235 390.071L556.576 369.841C555.561 367.47 556.668 364.709 559.037 363.693L581.017 354.288C583.387 353.272 586.134 354.379 587.163 356.75L595.822 376.98C596.838 379.35 595.731 382.112 593.361 383.128L571.381 392.533C569.012 393.549 566.264 392.442 565.235 390.071ZM562.11 372.043L567.449 384.535C568.465 386.906 571.212 388.013 573.595 386.997L587.84 380.901C590.21 379.884 591.317 377.136 590.301 374.752L584.962 362.26C583.947 359.889 581.199 358.782 578.816 359.798L564.571 365.894C562.202 366.91 561.095 369.659 562.11 372.043Z" fill="black" opacity="0.1"/>
    <path d="M633.848 410.829C637.49 409.277 639.176 405.089 637.62 401.456L622.971 367.248C621.416 363.628 617.215 361.935 613.586 363.486L607.233 366.188C607.233 366.188 607.285 366.214 607.298 366.253L610.085 372.73L617.877 391.023C618.628 392.73 617.812 394.746 616.101 395.457L610.967 397.668C609.204 398.392 607.234 397.603 606.482 395.91L598.691 377.617L595.903 371.14L595.877 371.062L590.964 373.118L564.337 384.481L559.865 386.382C559.865 386.382 559.917 386.408 559.929 386.446L562.717 392.923L570.495 411.178C571.26 412.923 570.43 414.901 568.732 415.651L563.585 417.81C561.835 418.573 559.852 417.745 559.1 416.052L551.309 397.759L548.522 391.282L548.496 391.204L539.551 395.005C535.908 396.556 534.223 400.745 535.778 404.378L550.427 438.573C551.983 442.192 556.183 443.886 559.826 442.335L560.565 442.024L633.874 410.829H633.848Z" fill="#DADCE0"/>
    <path d="M633.848 410.829C637.49 409.277 639.176 405.089 637.62 401.456L622.971 367.248C621.416 363.628 617.215 361.935 613.586 363.486L607.233 366.188C607.233 366.188 607.285 366.214 607.298 366.253L610.085 372.73L617.877 391.023C618.628 392.73 617.812 394.746 616.101 395.457L610.967 397.668C609.204 398.392 607.234 397.603 606.482 395.91L598.691 377.617L595.903 371.14L595.877 371.062L590.964 373.118L564.337 384.481L559.865 386.382C559.865 386.382 559.917 386.408 559.929 386.446L562.717 392.923L570.495 411.178C571.26 412.923 570.43 414.901 568.732 415.651L563.585 417.81C561.835 418.573 559.852 417.745 559.1 416.052L551.309 397.759L548.522 391.282L548.496 391.204L539.551 395.005C535.908 396.556 534.223 400.745 535.778 404.378L550.427 438.573C551.983 442.192 556.183 443.886 559.826 442.335L560.565 442.024L633.874 410.829H633.848Z" fill="black" opacity="0.1"/>
    <path d="M637.633 402.07L622.884 367.91L610.023 373.339L617.799 391.456C618.55 393.146 617.734 395.143 616.027 395.847L610.903 398.037C609.144 398.754 607.177 397.973 606.427 396.295L598.651 378.179L594.019 380.112L567.445 391.366L562.748 393.351L570.511 411.429C571.274 413.157 570.446 415.116 568.752 415.859L563.615 417.997C561.869 418.753 559.889 417.933 559.139 416.256L551.363 398.139L543.199 401.583C544.377 405.988 548.504 419.111 561.39 428.022C567.328 432.119 573.176 434.001 577.304 434.91L634.049 410.955C637.516 409.496 639.134 405.527 637.646 402.095L637.633 402.07Z" fill="#DADCE0"/>
    <path d="M570.905 411.139L562.967 393.276L560.123 386.938C560.123 386.938 560.123 386.9 560.056 386.875C559.289 385.205 557.278 384.483 555.571 385.167L550.293 387.33C548.586 388.013 547.739 389.949 548.454 391.593L548.48 391.669L551.325 398.007L559.276 415.909C560.043 417.579 562.067 418.376 563.854 417.629L569.106 415.517C570.852 414.783 571.686 412.847 570.905 411.139Z" fill="#1a3263" style="fill: #1a3263; fill: var(--tblr-illustrations-primary, var(--tblr-primary, #1a3263));"/>
    <path d="M617.911 391.156L609.96 373.255L607.116 366.917C607.116 366.917 607.116 366.879 607.05 366.853C606.296 365.221 604.272 364.462 602.578 365.183L597.287 367.309C595.58 368.03 594.733 369.927 595.461 371.61L595.487 371.686L598.332 378.024L606.283 395.925C607.05 397.595 609.074 398.354 610.86 397.645L616.099 395.482C617.858 394.786 618.678 392.813 617.911 391.143V391.156Z" fill="#1a3263" style="fill: #1a3263; fill: var(--tblr-illustrations-primary, var(--tblr-primary, #1a3263));"/>
    <path d="M389.975 347.649C391.111 348.527 392.064 349.632 392.795 350.883C395.836 355.115 396.045 360.093 393.121 363.181C389.375 367.173 381.987 366.774 376.414 362.063C375.801 361.584 375.266 361.025 374.796 360.399C370.736 355.887 369.953 349.991 373.269 346.518C376.988 342.672 384.507 343.111 389.975 347.636V347.649Z" fill="#FFCB9D" style="fill: #FFCB9D; fill: var(--tblr-illustrations-skin, #FFCB9D);"/>
    <path d="M390.441 347.682C391.552 348.581 392.484 349.71 393.199 350.989C391.182 352.228 389.547 353.167 388.436 353.861C385.32 355.753 384.158 356.515 382.179 357.549C380.583 358.379 379.255 358.978 378.374 359.359L376.471 360.284L375.718 360.91C371.746 356.297 370.98 350.268 374.224 346.73C377.748 342.62 385.116 343.055 390.454 347.696L390.441 347.682Z" fill="black" opacity="0.1"/>
    <path d="M390.199 344.498C386.958 346.053 383.742 347.608 380.501 349.15C375.12 351.732 369.739 354.315 364.358 356.91C360.364 349.638 355.385 338.6 352.727 324.428C350.251 311.155 350.691 299.809 351.599 291.868C351.379 291.868 343.599 311.527 339.839 321.73C335.638 332.716 331.566 343.766 327.391 354.636C327.378 354.662 327.365 354.7 327.365 354.726L269.199 338.716C271.196 327.075 273.335 315.459 275.306 303.959C276.46 297.342 277.562 290.853 278.729 284.249L281.88 266.401V266.363C281.647 256.379 281.426 246.382 281.18 236.399C282.477 236.18 283.903 236 285.446 235.936C286.068 235.91 286.652 235.91 287.235 235.91L346.607 252.254C350.964 252.396 358.03 253.192 364.072 257.06H364.085C364.63 257.613 365.473 258.461 366.432 259.566C379.061 273.957 377.363 291.341 380.332 310.589C381.564 318.569 384.118 330.364 390.16 344.511L390.199 344.498Z" fill="#DADCE0"/>
    <path d="M286.199 511.91L264.199 506.605C264.199 506.605 264.123 500.656 267.811 499.098C271.498 497.54 283.164 506.013 286.199 511.91Z" fill="#0b1b3b" class="tblr-illustrations tblr-illustrations-vocate tblr-illustrations-contract-c"/>
    <path d="M325.199 511.91L302.404 510.797C302.404 510.797 301.216 504.734 304.561 502.4C307.906 500.08 321.092 506.464 325.199 511.91Z" fill="#0b1b3b" class="tblr-illustrations tblr-illustrations-vocate tblr-illustrations-contract-c"/>
    <path d="M327.186 354.902C327.122 377.722 327.097 400.541 327.045 423.348C321.873 448.374 316.688 470.91 311.516 495.91L301.671 493.587C302.082 468.019 302.506 444.915 302.916 419.346C302.172 406.052 301.389 392.732 300.632 379.438C300.632 379.438 300.632 379.503 300.606 379.645C298.014 395.314 295.126 411.37 291.866 427.8C287.477 449.897 282.741 471.142 277.748 491.483C274.578 490.464 271.369 489.457 268.199 488.437C268.661 438.591 269.123 388.757 269.611 338.91C282.112 342.395 294.574 345.841 307.075 349.3C307.678 349.481 308.32 349.649 308.923 349.83C315.019 351.546 321.103 353.224 327.199 354.915L327.186 354.902Z" fill="#1a3263" style="fill: #1a3263; fill: var(--tblr-illustrations-primary, var(--tblr-primary, #1a3263));"/>
    <path d="M318.212 190.507C318.212 193.699 318.276 198.474 318.442 204.181C318.518 205.509 318.595 206.569 318.582 206.978C319.067 213.311 320.317 219.567 322.308 225.593C322.78 226.819 323.137 227.892 323.622 229.092C324.949 232.08 333.549 235.884 343.17 237.366C346.501 237.902 349.882 238.042 353.238 237.787C363.74 237.148 369.137 228.888 368.065 222.733C367.836 221.252 367.147 219.886 366.113 218.801C364.25 216.528 362.795 213.949 361.787 211.178C360.32 207.527 359.197 203.747 358.419 199.891C358.087 198.704 357.832 197.491 357.64 196.265L347.815 186.957L323.316 185.91C323.405 190.034 322.18 192.895 320.879 193.112C319.577 193.329 318.454 191.018 318.199 190.481L318.212 190.507Z" fill="#FFCB9D" style="fill: #FFCB9D; fill: var(--tblr-illustrations-skin, #FFCB9D);"/>
    <path d="M318.199 190.566C318.199 193.782 318.263 198.592 318.43 204.341C318.507 205.679 318.584 206.746 318.571 207.158C319.058 213.537 320.315 219.84 322.315 225.91C323.93 225.447 325.443 224.689 326.802 223.698C328.251 222.553 329.494 221.164 330.443 219.582C331.392 217.859 332.071 216.007 332.481 214.078C332.789 212.881 332.981 211.544 333.174 210.361C342.468 213.936 352.686 214.271 362.199 211.312C360.725 207.634 359.597 203.827 358.815 199.943C358.481 198.746 358.225 197.537 358.033 196.303L348.135 186.952L323.52 185.91C323.622 190.065 322.379 192.933 321.071 193.164C319.763 193.396 318.494 191.184 318.238 190.656" fill="black" opacity="0.1"/>
    <path d="M314.203 195.225C314.1 200.438 315.951 205.494 319.409 209.381C320.185 210.083 320.833 210.798 321.467 211.487C323.073 213.671 324.135 216.219 324.523 218.91C325.766 217.61 326.543 215.933 326.75 214.139C326.996 211.435 325.986 206.274 326.025 205.585V205.182C326.051 204.779 326.025 204.376 325.96 203.973C325.883 202.621 325.947 201.256 326.129 199.918L326.168 199.801C332.331 203.973 349.941 214.048 362.319 205.403C364.236 204.025 365.984 202.414 367.512 200.62C367.68 200.477 367.835 200.295 367.939 200.1C368.314 199.658 368.651 199.164 368.936 198.657L369.065 198.527C369.92 197.227 370.528 195.784 370.865 194.263L371.059 193.743C371.215 193.08 371.241 192.391 371.137 191.728C370.917 189.115 369.79 186.671 367.926 184.838C364.572 181.172 359.548 178.936 356.764 177.74C346.328 172.982 330.376 171.357 320.807 180.613C318.45 183.044 316.676 185.969 315.602 189.193C314.877 191.169 314.423 193.249 314.255 195.355" fill="#0b1b3b" class="tblr-illustrations tblr-illustrations-vocate tblr-illustrations-contract-c"/>
    <path d="M326.698 200.242C332.835 204.26 350.367 213.96 362.691 205.637C364.599 204.31 366.339 202.758 367.86 201.031C368.028 200.893 368.183 200.718 368.286 200.53C368.66 200.105 368.995 199.629 369.278 199.141C369.278 199.078 369.33 199.016 369.394 199.016C369.394 199.016 369.394 199.016 369.407 199.016C370.258 197.764 370.864 196.375 371.199 194.91C368.247 197.439 364.895 199.504 361.273 201.018C343.393 208.353 325.358 197.589 322.483 195.924L322.199 195.824C323.604 197.314 325.151 198.816 326.698 200.28" fill="black" opacity="0.5"/>
    <path d="M380.199 349.107C374.833 351.704 369.466 354.301 364.1 356.91C360.117 349.598 355.152 338.501 352.501 324.252C350.031 310.907 350.471 299.499 351.376 291.515C351.156 291.515 343.398 311.281 339.648 321.539C335.458 332.584 331.398 343.694 327.234 354.624C327.221 354.65 327.208 354.688 327.208 354.714L269.199 338.617C271.191 326.913 273.324 315.234 275.29 303.672C276.441 297.019 277.54 290.495 278.704 283.855L281.846 265.91C299.716 278.3 313.165 279.734 322.385 278.545C331.359 277.369 338.846 273.352 345.829 277.395C352.656 281.323 354.247 290.185 355.048 294.099C357.609 306.411 363.906 324.226 380.173 349.107H380.199Z" fill="black" opacity="0.1"/>
    <path d="M346.199 250.541L335.8 255.91L335.151 255.662C335.035 255.625 334.918 255.576 334.801 255.526L333.531 253.802L332.377 254.472C327.838 252.24 323.974 248.904 321.199 244.91L324.065 245.555L342.05 249.61L346.199 250.541Z" fill="#FFCB9D" style="fill: #FFCB9D; fill: var(--tblr-illustrations-skin, #FFCB9D);"/>
    <path d="M333.199 254.243L350.357 245.91L353.199 250.209L340.137 263.91L333.199 254.243Z" fill="#1a3263" style="fill: #1a3263; fill: var(--tblr-illustrations-primary, var(--tblr-primary, #1a3263));"/>
    <path d="M353.199 250.222L340.137 263.91L334.627 256.24L333.319 254.401L333.199 254.243L333.346 254.163L342.085 249.931L350.357 245.91L353.199 250.222Z" fill="black" opacity="0.1"/>
    <path d="M334.199 254.14L334.032 254.246L332.884 254.96L320.18 262.91L308.199 239.853L314.106 235.91L324.617 245.448L334.057 254.007L334.199 254.14Z" fill="#1a3263" style="fill: #1a3263; fill: var(--tblr-illustrations-primary, var(--tblr-primary, #1a3263));"/>
    <path d="M327.199 354.577C327.134 377.449 327.108 400.321 327.056 423.18C321.797 448.264 316.525 470.852 311.265 495.91L301.256 493.582C301.674 467.954 302.104 444.797 302.522 419.17C301.765 405.845 300.969 392.494 300.199 379.169L306.241 348.91L306.737 348.975C307.351 349.156 308.003 349.324 308.616 349.506C314.815 351.226 321.001 352.908 327.199 354.603V354.577Z" fill="black" opacity="0.1"/>
    <path d="M372.199 369.187V502.595C372.199 506.633 368.97 509.91 364.943 509.91H361.456C357.429 509.91 354.199 506.646 354.199 502.595V369.187C354.199 365.175 357.429 361.91 361.456 361.91H364.943C368.97 361.91 372.199 365.175 372.199 369.187Z" fill="#DADCE0"/>
    <path d="M450.199 369.187V502.595C450.199 506.633 446.951 509.91 442.92 509.91H439.44C435.447 509.91 432.199 506.646 432.199 502.595V369.187C432.199 365.175 435.447 361.91 439.44 361.91H442.92C446.938 361.91 450.199 365.175 450.199 369.187Z" fill="#DADCE0"/>
    <path d="M372.199 369.105V417.21C366.487 419.736 360.491 422.619 354.199 425.91V369.105C354.199 365.138 357.429 361.91 361.456 361.91H364.943C368.97 361.91 372.199 365.138 372.199 369.105Z" fill="black" opacity="0.1"/>
    <path d="M450.199 369.063V399.809C445.051 399.364 439.094 399.301 432.199 399.91V369.076C432.199 365.125 435.447 361.91 439.44 361.91H442.92C446.938 361.91 450.199 365.125 450.199 369.076V369.063Z" fill="black" opacity="0.1"/>
    <path d="M378.381 324.998C376.949 325.099 375.544 325.465 374.255 326.084C369.4 327.852 366.537 331.728 367.331 335.769C368.32 340.972 374.763 344.596 382.012 343.801C382.78 343.738 383.548 343.586 384.277 343.334C390.134 341.894 393.987 337.575 393.063 333.029C392.008 327.965 385.435 324.29 378.381 324.998Z" fill="#FFCB9D" style="fill: #FFCB9D; fill: var(--tblr-illustrations-skin, #FFCB9D);"/>
    <path d="M378.51 325C377.072 325.104 375.66 325.48 374.366 326.115C374.915 327.179 375.412 328.139 375.856 328.969C376.863 330.875 376.928 330.849 376.967 331.096C377.412 333.729 371.803 335.765 372.222 337.529C372.509 338.696 375.111 338.424 378.51 339.877C381.217 341.031 383.086 342.704 384.237 343.91C390.12 342.432 393.99 337.996 393.062 333.34C392.199 328.048 385.596 324.274 378.51 325Z" fill="black" opacity="0.1"/>
    <path d="M575.922 354.408C576.84 355.443 577.538 356.645 578.003 357.939C580.11 362.44 579.412 367.096 576.077 369.437C571.798 372.463 564.883 370.704 560.462 365.298C559.971 364.742 559.557 364.121 559.234 363.461C556.209 358.521 556.545 352.895 560.32 350.282C564.534 347.398 571.579 349.196 575.935 354.421L575.922 354.408Z" fill="#FFCB9D" style="fill: #FFCB9D; fill: var(--tblr-illustrations-skin, #FFCB9D);"/>
    <path d="M576.091 354.106C577.021 355.094 577.728 356.242 578.199 357.477C575.986 358.193 574.218 358.712 573.013 359.107C569.621 360.194 568.338 360.638 566.203 361.169C564.487 361.602 563.086 361.873 562.143 362.046L560.113 362.503L559.262 362.91C556.197 358.193 556.538 352.822 560.349 350.34C564.553 347.414 571.69 349.13 576.091 354.119V354.106Z" fill="black" opacity="0.1"/>
    <path d="M455.237 288.23C455.392 287.933 455.534 287.649 455.534 287.649C455.611 287.494 455.663 287.39 455.663 287.39C455.818 287.081 455.96 286.796 456.089 286.525C457.65 297.528 459.186 308.518 460.644 319.534C462.361 331.337 463.948 343.179 465.652 354.854C465.652 354.892 465.652 354.905 465.652 354.944L526.229 351.716C526.81 339.744 527.261 327.786 527.855 315.956C528.165 309.151 528.5 302.487 528.81 295.694L529.649 277.317V277.279C536.076 287.623 545.355 305.832 547.768 330.084C548.968 342.095 548.181 352.607 546.865 360.91C558.647 357.475 570.417 354.04 582.199 350.605C577.579 324.557 571.139 303.572 565.564 288.243C557.912 267.219 550.646 253.452 536.889 247.731C534.527 246.75 532.475 246.22 531.056 245.91L469.201 249.203C464.903 248.403 457.792 247.654 451.017 250.172H451.004C450.333 250.585 449.327 251.244 448.152 252.135C440.177 258.14 436.524 265.682 435.415 267.89C431.556 275.497 425.955 281.992 414.753 294.984C408.197 302.577 397.434 312.186 379.199 319.831C383.445 330.33 387.691 340.829 391.937 351.341C401.783 346.175 416.405 337.161 430.498 322.556C430.498 322.556 445.597 306.878 455.224 288.23H455.237Z" fill="#1a3263" style="fill: #1a3263; fill: var(--tblr-illustrations-primary, var(--tblr-primary, #1a3263));"/>
    <path d="M505.199 508.91L527.919 508.517C527.919 508.517 529.282 502.762 525.996 500.442C522.723 498.123 509.44 503.84 505.199 508.91Z" fill="#0b1b3b" class="tblr-illustrations tblr-illustrations-vocate tblr-illustrations-contract-c"/>
    <path d="M452.199 508.91L474.951 508.195C474.951 508.195 476.239 501.937 472.947 499.461C469.642 496.985 456.397 503.34 452.199 508.897" fill="#0b1b3b" class="tblr-illustrations tblr-illustrations-vocate tblr-illustrations-contract-c"/>
    <path d="M526.199 351.923L525.696 488.773C522.532 489.006 519.343 489.251 516.18 489.483C508.692 455.261 501.216 421.039 493.74 386.83C486.91 421.465 480.093 456.113 473.263 490.736C470.229 491.136 467.22 491.523 464.199 491.91C464.651 446.289 465.116 400.668 465.581 355.047C471.985 354.725 478.389 354.389 484.806 354.053C498.595 353.343 512.384 352.62 526.186 351.91L526.199 351.923Z" fill="#DADCE0"/>
    <path d="M493.199 386.721C486.494 421.392 479.802 456.076 473.097 490.734C470.118 491.135 467.165 491.523 464.199 491.91C464.643 446.242 465.099 400.574 465.555 354.905C471.842 354.582 478.129 354.246 484.428 353.91L493.199 386.721Z" fill="black" opacity="0.1"/>
    <path d="M515.199 185.711C515.109 188.945 514.902 193.797 514.58 199.585C514.464 200.933 514.347 202.011 514.36 202.409C513.689 208.826 512.231 215.128 510.011 221.186C509.495 222.406 509.095 223.484 508.566 224.703C507.12 227.694 498.229 231.313 488.369 232.532C484.962 232.982 481.503 233.033 478.083 232.673C467.385 231.737 462.119 223.188 463.384 216.976C463.668 215.488 464.403 214.114 465.488 213.049C467.449 210.79 469.024 208.223 470.121 205.451C471.721 201.78 472.973 197.981 473.889 194.092C474.263 192.898 474.56 191.679 474.779 190.434L485.078 181.27L510.114 180.91C509.908 185.082 511.069 188.034 512.386 188.29C513.702 188.547 514.928 186.237 515.199 185.698V185.711Z" fill="#FFCB9D" style="fill: #FFCB9D; fill: var(--tblr-illustrations-skin, #FFCB9D);"/>
    <path d="M515.199 185.734C515.107 188.941 514.898 193.752 514.57 199.491C514.452 200.828 514.334 201.897 514.347 202.291C513.665 208.655 512.184 214.903 509.929 220.91C508.278 220.401 506.731 219.6 505.367 218.569C503.899 217.385 502.667 215.96 501.723 214.343C500.792 212.6 500.137 210.716 499.783 208.782C499.494 207.573 499.337 206.237 499.18 205.053C489.492 208.362 478.926 208.413 469.199 205.18C470.825 201.54 472.109 197.773 473.027 193.917C473.407 192.734 473.709 191.524 473.945 190.315L484.432 181.254L509.877 180.91C509.654 185.059 510.847 187.961 512.184 188.228C513.521 188.496 514.898 186.319 515.173 185.797" fill="black" opacity="0.1"/>
    <path d="M518.199 190.751C518.161 195.916 516.157 200.864 512.586 204.613C511.79 205.289 511.122 205.978 510.467 206.641C508.798 208.758 507.667 211.258 507.205 213.91C505.998 212.584 505.265 210.901 505.111 209.128C504.944 206.45 506.087 201.361 506.075 200.685V200.277C506.075 199.869 506.1 199.474 506.19 199.078C506.306 197.739 506.28 196.4 506.126 195.061L506.087 194.946C499.807 198.913 481.89 208.388 469.739 199.474C467.864 198.058 466.156 196.413 464.679 194.589C464.512 194.436 464.371 194.258 464.268 194.066C463.895 193.607 463.574 193.123 463.305 192.613L463.176 192.485C462.367 191.171 461.789 189.73 461.494 188.213L461.314 187.69C461.172 187.027 461.16 186.351 461.288 185.688C461.571 183.111 462.778 180.727 464.692 178.954C468.147 175.421 473.246 173.343 476.058 172.233C486.629 167.808 502.658 166.647 511.97 176.084C514.256 178.559 515.952 181.505 516.941 184.718C517.608 186.695 518.007 188.761 518.109 190.853" fill="#0b1b3b" class="tblr-illustrations tblr-illustrations-vocate tblr-illustrations-contract-c"/>
    <path d="M505.584 194.66C499.333 198.636 481.5 208.134 469.406 199.198C467.54 197.779 465.84 196.13 464.37 194.302C464.203 194.149 464.063 193.97 463.96 193.778C463.59 193.318 463.27 192.832 463.002 192.321C463.002 192.257 462.951 192.193 462.887 192.193C462.887 192.193 462.887 192.193 462.874 192.193C462.069 190.876 461.493 189.432 461.199 187.91C464.088 190.595 467.374 192.819 470.953 194.494C488.633 202.548 506.991 191.976 509.918 190.327L510.199 190.224C508.742 191.72 507.157 193.228 505.559 194.699" fill="black" opacity="0.5"/>
    <path d="M499.199 245.91C496.008 249.795 491.762 252.525 487.027 253.734L486.358 253.91L474.199 248.885L499.186 245.91H499.199Z" fill="#FFCB9D" style="fill: #FFCB9D; fill: var(--tblr-illustrations-skin, #FFCB9D);"/>
    <path d="M499.199 245.91C496.008 249.795 491.762 252.525 487.027 253.734L486.358 253.91L474.199 248.885L499.186 245.91H499.199Z" fill="black" opacity="0.1"/>
    <path d="M486.199 253.569L470.49 243.91L467.199 247.569L478.305 261.91L486.199 253.569Z" fill="#DADCE0"/>
    <path d="M487.199 254.158L508.926 238.91L514.199 243.374L500.072 263.91L487.199 254.158Z" fill="#DADCE0"/>
    <path d="M486.199 253.569L470.49 243.91L467.199 247.569L478.305 261.91L486.199 253.569Z" fill="black" opacity="0.11"/>
    <path d="M495.199 266.66C492.225 286.406 489.264 306.164 486.436 325.91C484.112 306.294 481.656 286.691 479.199 267.217C481.603 262.734 483.873 258.406 486.33 253.91L487.033 254.014C489.583 258.303 492.318 262.488 495.199 266.66Z" fill="#DADCE0"/>
    <path d="M486.045 253.923L486.199 325.91C483.952 306.281 481.575 286.678 479.199 267.204C481.524 262.734 483.72 258.251 486.045 253.91V253.923Z" fill="black" opacity="0.11"/>
    <path d="M529.199 277.91L528.36 296.139C528.063 302.877 527.728 309.487 527.405 316.237C526.825 327.971 526.373 339.833 525.779 351.708L465.199 354.91C465.199 354.91 465.199 354.859 465.199 354.821C517.119 335.824 528.993 278.833 529.186 277.91H529.199Z" fill="black" opacity="0.1"/>
    <path d="M508.199 360.458V370.35C508.199 373.976 506.09 376.91 503.527 376.91H308.871C306.309 376.91 304.199 373.989 304.199 370.35V360.458C304.199 359.625 304.329 358.792 304.523 358.049C305.209 355.602 306.891 353.91 308.871 353.91H503.527C506.09 353.91 508.199 356.832 508.199 360.471V360.458Z" fill="#A6A9B3"/>
    <path d="M449.199 353.91C443.496 357.055 439.09 361.182 426.976 365.248C405.306 372.544 334.282 363.086 305.199 357.89C305.88 355.544 307.55 353.923 309.515 353.923H449.199V353.91Z" fill="black" opacity="0.1"/>
    <path d="M445.08 66.9104H334.319C328.73 66.9104 324.199 71.4117 324.199 76.9643V94.8565C324.199 100.409 328.73 104.91 334.319 104.91H445.08C450.669 104.91 455.199 100.409 455.199 94.8565V76.9643C455.199 71.4117 450.669 66.9104 445.08 66.9104Z" fill="#1a3263" style="fill: #1a3263; fill: var(--tblr-illustrations-primary, var(--tblr-primary, #1a3263));"/>
    <path d="M390.199 90.9104C400.693 90.9104 409.199 82.4038 409.199 71.9104C409.199 61.417 400.693 52.9104 390.199 52.9104C379.706 52.9104 371.199 61.417 371.199 71.9104C371.199 82.4038 379.706 90.9104 390.199 90.9104Z" fill="white"/>
    <path d="M390.199 96.9104C376.418 96.9104 365.199 85.692 365.199 71.9104C365.199 58.1288 376.418 46.9104 390.199 46.9104C403.981 46.9104 415.199 58.1288 415.199 71.9104C415.199 85.692 403.981 96.9104 390.199 96.9104ZM390.199 58.6956C382.909 58.6956 376.972 64.6332 376.972 71.9233C376.972 79.2133 382.909 85.151 390.199 85.151C397.489 85.151 403.427 79.2133 403.427 71.9233C403.427 64.6332 397.489 58.6956 390.199 58.6956Z" fill="#1a3263" style="fill: #1a3263; fill: var(--tblr-illustrations-primary, var(--tblr-primary, #1a3263));"/>
    <path d="M363.952 339.989C365.181 340.713 366.528 341.209 367.942 341.438C372.937 342.759 377.602 341.26 379.412 337.562C381.751 332.822 378.725 326.278 372.369 322.835C371.708 322.441 370.995 322.136 370.255 321.932C364.639 319.785 358.917 321.081 356.909 325.262C354.702 329.925 357.807 336.584 363.952 339.989Z" fill="#FFCB9D" style="fill: #FFCB9D; fill: var(--tblr-illustrations-skin, #FFCB9D);"/>
    <path d="M363.782 340.425C364.998 341.168 366.331 341.676 367.729 341.91C368.095 339.565 368.343 337.701 368.552 336.424C369.114 332.827 369.363 331.472 369.559 329.231C369.716 327.432 369.768 325.973 369.794 325.008L369.925 322.884L370.199 321.959C364.645 319.757 358.986 321.086 357.012 325.36C354.621 330.104 357.692 336.932 363.769 340.425H363.782Z" fill="black" opacity="0.1"/>
    <path d="M371.199 318.154C364.867 326.736 358.547 335.329 352.215 343.91C349.519 342.88 308.235 326.98 294.899 314.07C291.752 311.029 288.244 307.306 288.244 307.306C283.498 302.152 278.43 296.663 274.186 290.775C267.506 281.55 262.824 271.41 264.565 260.252C266.1 250.395 272.858 238.245 281.757 236.364C289.508 234.715 295.454 238.091 295.454 238.091C296.589 238.735 297.44 239.405 298.02 239.895C297.943 242.897 297.943 247.419 298.33 252.895C299.259 265.766 301.774 275.262 302.057 276.28C305.901 290.066 333.127 307.538 371.173 318.154H371.199Z" fill="#DADCE0"/>
    <path d="M294.99 313.91C292.452 311.512 290.226 309.266 288.31 307.212C283.546 302.108 278.458 296.672 274.199 290.841C279.856 288.353 287.507 290.968 292.31 297.335C296.362 302.72 297.242 309.253 294.977 313.91H294.99Z" fill="#0b1b3b" class="tblr-illustrations tblr-illustrations-vocate tblr-illustrations-contract-c"/>
</svg>
