<svg xmlns="http://www.w3.org/2000/svg" width="800" height="600" fill="none" viewBox="0 0 800 600">
    <style>
        :where(.theme-dark, [data-theme="dark"]) .tblr-illustrations-delivery-a { fill: black; opacity: 0.07; } :where(.theme-dark, [data-theme="dark"]) .tblr-illustrations-delivery-b { fill: black; opacity: 0.3; } :where(.theme-dark, [data-theme="dark"]) .tblr-illustrations-delivery-c { fill: #24304d; }
        @media (prefers-color-scheme: dark) { .tblr-illustrations-delivery-a { fill: black; opacity: 0.07; } .tblr-illustrations-delivery-b { fill: black; opacity: 0.3; } .tblr-illustrations-delivery-c { fill: #24304d; } }
    </style>
    <path d="M162.949 316.211C162.949 355.477 204.495 384.05 222.898 415.807C241.815 448.591 246.451 498.549 279.148 517.56C310.92 535.954 356.164 515.403 395.449 515.403C434.734 515.403 479.978 535.954 511.751 517.56C544.447 498.652 549.084 448.591 568.001 415.807C586.404 384.05 627.949 355.58 627.949 316.211C627.949 276.842 586.301 248.372 568.001 216.615C549.084 183.831 544.447 133.77 511.751 114.862C479.978 96.468 434.734 117.019 395.449 117.019C356.164 117.019 310.92 96.468 279.148 114.862C246.348 133.77 241.815 183.831 222.898 216.615C204.495 248.474 162.949 276.945 162.949 316.211Z" fill="#1a3263" style="fill: #1a3263; fill: var(--tblr-illustrations-primary, var(--tblr-primary, #1a3263));" opacity="0.02" class="tblr-illustrations tblr-illustrations-vocate tblr-illustrations-delivery-a"/>
    <path d="M180.949 483.157C180.949 485.921 276.345 488.211 393.949 488.211C511.554 488.211 606.949 485.907 606.949 483.157C606.949 480.406 511.554 478.211 393.949 478.211C276.345 478.211 180.949 480.514 180.949 483.157Z" fill="#d9e2f3" opacity="0.5" class="tblr-illustrations tblr-illustrations-vocate tblr-illustrations-delivery-b"/>
    <path d="M547.947 188.211H622.951C624.055 188.211 624.949 187.327 624.949 186.236V185.186C624.949 184.095 624.055 183.211 622.951 183.211H547.947C546.844 183.211 545.949 184.095 545.949 185.186V186.236C545.949 187.327 546.844 188.211 547.947 188.211Z" fill="#1a3263" style="fill: #1a3263; fill: var(--tblr-illustrations-primary, var(--tblr-primary, #1a3263));"/>
    <path d="M510.947 209.211H585.951C587.055 209.211 587.949 208.327 587.949 207.236V206.186C587.949 205.095 587.055 204.211 585.951 204.211H510.947C509.844 204.211 508.949 205.095 508.949 206.186V207.236C508.949 208.327 509.844 209.211 510.947 209.211Z" fill="#1a3263" style="fill: #1a3263; fill: var(--tblr-illustrations-primary, var(--tblr-primary, #1a3263));"/>
    <path d="M175.947 340.211H250.951C252.055 340.211 252.949 339.327 252.949 338.236V337.186C252.949 336.095 252.055 335.211 250.951 335.211H175.947C174.844 335.211 173.949 336.095 173.949 337.186V338.236C173.949 339.327 174.844 340.211 175.947 340.211Z" fill="#1a3263" style="fill: #1a3263; fill: var(--tblr-illustrations-primary, var(--tblr-primary, #1a3263));"/>
    <path d="M137.947 360.211H212.951C214.055 360.211 214.949 359.327 214.949 358.236V357.186C214.949 356.095 214.055 355.211 212.951 355.211H137.947C136.844 355.211 135.949 356.095 135.949 357.186V358.236C135.949 359.327 136.844 360.211 137.947 360.211Z" fill="#1a3263" style="fill: #1a3263; fill: var(--tblr-illustrations-primary, var(--tblr-primary, #1a3263));"/>
    <path d="M418.825 83.1329C418.825 70.4094 408.515 60.0996 395.791 60.0996C383.068 60.0996 372.758 70.4094 372.758 83.1329C372.514 88.6537 372.835 97.3586 376.392 107.193C380.128 117.529 385.944 124.975 390.694 129.803C393.493 132.653 398.077 132.653 400.863 129.803C404.843 125.72 409.504 119.84 413.124 111.931C418.696 99.7338 419.03 88.7693 418.825 83.1457V83.1329ZM395.791 95.3814C389.025 95.3814 383.556 89.8991 383.556 83.1457C383.556 76.3924 389.038 70.9101 395.791 70.9101C402.545 70.9101 408.027 76.3924 408.027 83.1457C408.027 89.8991 402.545 95.3814 395.791 95.3814Z" fill="#1a3263" style="fill: #1a3263; fill: var(--tblr-illustrations-primary, var(--tblr-primary, #1a3263));"/>
    <path d="M402.585 153.109C404.14 149.355 402.357 145.052 398.603 143.497C394.849 141.942 390.546 143.725 388.991 147.478C387.436 151.232 389.219 155.536 392.973 157.09C396.726 158.645 401.03 156.863 402.585 153.109Z" fill="#1a3263" style="fill: #1a3263; fill: var(--tblr-illustrations-primary, var(--tblr-primary, #1a3263));"/>
    <path d="M321.928 453.711C317.545 470.55 300.334 484.211 283.496 484.211C270.078 484.211 260.939 475.515 260.026 463.449C259.795 460.387 260.078 457.12 260.977 453.711C265.013 438.236 279.846 425.462 295.283 423.494H295.322C296.671 423.301 298.034 423.211 299.396 423.211C301.594 423.211 303.676 423.442 305.617 423.893C316.825 426.414 323.65 435.856 322.892 447.768C322.789 449.697 322.468 451.678 321.928 453.711Z" fill="#0b1b3b" class="tblr-illustrations tblr-illustrations-vocate tblr-illustrations-delivery-c"/>
    <path d="M322.892 447.499C314.524 448.362 304.872 449.869 294.178 452.406C281.221 455.484 269.705 459.373 260.026 463.211C259.795 460.146 260.078 456.875 260.977 453.462C265.013 437.969 279.846 425.181 295.283 423.211H295.322C298.432 423.327 301.954 423.469 305.617 423.61C316.825 426.134 323.65 435.587 322.892 447.512V447.499Z" fill="black" opacity="0.3"/>
    <path d="M460.369 444.254H517.949L514.276 420.898L513.287 414.562L512.362 408.675L497.476 313.969C497.116 311.686 495.395 310.211 493.07 310.211H477.888C474.626 310.211 471.235 313.071 470.323 316.573L438.482 438.508L433.178 458.849C432.266 462.364 434.167 465.211 437.416 465.211H446.844C446.009 459.952 446.317 454.271 447.846 448.448C448.745 445.036 450.029 441.688 451.648 438.508H463.567C462.347 440.342 461.268 442.266 460.343 444.241L460.369 444.254Z" fill="#A6A9B3"/>
    <path d="M490.987 314.595L490.949 417.211C497.616 412.319 504.283 407.44 510.949 402.548C506.434 373.107 501.919 343.652 497.416 314.211L490.999 314.595H490.987Z" fill="black" opacity="0.1"/>
    <path d="M448.166 448.848C446.634 454.666 446.326 460.342 447.162 465.596C447.162 465.634 447.175 465.673 447.188 465.711C411.4 465.891 375.625 466.044 339.837 466.211C338.074 461.06 332.437 447.387 316.364 439.84C305.117 434.573 293.754 434.65 287.564 435.137C278.954 435.227 270.345 435.317 261.723 435.406C254.478 435.496 247.22 435.573 239.949 435.637C239.962 435.599 239.988 435.535 240.014 435.496C240.811 433.638 248.829 415.16 260.552 401.014C260.99 400.476 261.453 399.938 261.929 399.399C265.97 394.735 292.106 365.43 328.782 358.087C330.005 357.831 331.24 357.613 332.489 357.421C344.173 355.602 361.276 355.371 372.189 360.022C377.426 362.239 381.235 365.596 382.329 370.414C384.337 379.397 375.959 389.033 369.164 398.836C364.326 405.832 360.285 412.918 361.366 419.953C363.129 431.114 376.899 435.816 389.677 437.944H389.716C392.187 438.354 394.593 438.661 396.884 438.917H451.949C450.328 442.095 449.041 445.427 448.14 448.848H448.166Z" fill="#A6A9B3"/>
    <path d="M389.949 438.211C375.192 436.492 352.809 431.798 347.512 418.945C339.444 399.371 365.237 365.188 365.237 365.188L372.238 360.211C377.547 362.43 381.399 365.791 382.506 370.613C384.536 379.605 376.064 389.251 369.206 399.063C364.3 406.067 360.213 413.16 361.32 420.202C363.102 431.374 377.027 436.082 389.949 438.211Z" fill="black" opacity="0.1"/>
    <path d="M536.84 267.514L501.227 288.909C500.339 289.436 499.363 289.256 499.033 288.498L498.057 286.235C497.727 285.476 498.183 284.435 499.059 283.908L534.671 262.513C535.559 261.986 536.536 262.166 536.865 262.924L537.842 265.187C538.172 265.946 537.715 266.987 536.84 267.514Z" fill="#0b1b3b" class="tblr-illustrations tblr-illustrations-vocate tblr-illustrations-delivery-c"/>
    <path d="M520.704 283.981L514.464 307.441C514.168 308.58 513.587 309.643 512.852 310.592C511.125 312.756 508.417 314.211 505.787 314.211H471.286C467.483 314.211 465.188 311.174 466.181 307.441L471.441 287.638L472.421 283.981C473.413 280.248 477.307 277.211 481.123 277.211H515.612C519.428 277.211 521.71 280.248 520.717 283.981H520.704Z" fill="#DADCE0"/>
    <path d="M512.949 310.67C511.218 312.787 508.505 314.211 505.869 314.211H471.297C467.486 314.211 465.186 311.24 466.181 307.587L471.452 288.211C476.891 295.59 491.154 311.425 512.949 310.67Z" fill="black" opacity="0.1"/>
    <path d="M522.845 449.028C522.069 452.065 520.937 455.011 519.474 457.814C518.125 460.435 516.535 462.901 514.716 465.224C506.333 475.918 493.408 483.211 480.712 483.211C472.584 483.211 465.778 480.122 461.529 474.529C459.646 472.063 458.349 469.182 457.611 466.055C457.611 466.029 457.611 465.99 457.598 465.977C456.606 461.629 456.746 456.737 458.056 451.65C459.201 447.172 461.135 442.89 463.692 438.958H457.687C466.389 423.449 483.435 412.211 500.188 412.211C504.908 412.211 509.182 413.106 512.922 414.729L513.902 421.126C516.014 422.45 517.858 424.137 519.372 426.136C523.863 432.079 525.109 440.19 522.845 449.015V449.028Z" fill="#1a3263" style="fill: #1a3263; fill: var(--tblr-illustrations-primary, var(--tblr-primary, #1a3263));"/>
    <path d="M512.957 414.974L512.042 409.015C508.391 407.821 504.436 407.211 500.239 407.211C480.857 407.211 461.068 420.855 451.949 439.211H463.751C471.891 426.619 486.211 417.7 500.239 417.7C505.466 417.7 510.147 418.985 513.949 421.374L512.97 414.974H512.957Z" fill="white"/>
    <path d="M486.862 266.641C486.647 268.196 486.012 269.644 484.894 270.824C481.732 274.189 476.056 273.975 472.221 270.315C470.951 269.108 470.037 267.687 469.516 266.199C468.437 263.155 468.881 259.857 471.002 257.604C474.164 254.226 479.84 254.454 483.675 258.101C486.177 260.487 487.282 263.732 486.862 266.641Z" fill="#A6A9B3"/>
    <path d="M494.922 283.19L480.949 269.515L483.962 266.211L497.935 279.886C497.947 279.98 498.083 281.1 497.191 282.152C496.571 282.866 495.703 283.271 494.922 283.204V283.19Z" fill="#A6A9B3"/>
    <path d="M492.506 294.291L446.225 322.807C445.074 323.516 443.797 323.267 443.368 322.255L442.091 319.245C441.661 318.234 442.242 316.841 443.393 316.131L489.674 287.615C490.824 286.906 492.101 287.155 492.531 288.167L493.808 291.176C494.237 292.188 493.656 293.581 492.506 294.291Z" fill="#0b1b3b" class="tblr-illustrations tblr-illustrations-vocate tblr-illustrations-delivery-c"/>
    <path d="M502.831 403.211C477.035 403.211 450.664 423.805 443.949 449.211H537.376C544.103 423.805 528.64 403.211 502.844 403.211H502.831Z" fill="#0b1b3b" class="tblr-illustrations tblr-illustrations-vocate tblr-illustrations-delivery-c"/>
    <path d="M505.445 450.211C503.287 458.491 494.824 465.211 486.543 465.211C478.262 465.211 473.296 458.504 475.454 450.211C477.612 441.931 486.075 435.211 494.356 435.211C502.637 435.211 507.603 441.918 505.445 450.211Z" fill="white"/>
    <path d="M329.949 360.132C329.949 360.132 274.968 391.596 261.629 434.982C254.403 435.071 247.176 435.147 239.949 435.211C239.949 435.173 239.988 435.109 240 435.071C244.049 424.651 250.392 412.742 260.463 400.833C260.899 400.299 261.36 399.764 261.821 399.23C265.858 394.599 291.868 365.501 328.386 358.211C329.36 359.369 329.936 360.132 329.936 360.132H329.949Z" fill="black" opacity="0.1"/>
    <path d="M379.58 367.211H298.767C292.467 367.211 288.685 362.096 290.337 355.792L291.938 349.63C293.577 343.326 300.019 338.211 306.319 338.211H387.132C393.431 338.211 397.214 343.326 395.561 349.63L393.961 355.792C392.321 362.096 385.879 367.211 379.58 367.211Z" fill="#0b1b3b" class="tblr-illustrations tblr-illustrations-vocate tblr-illustrations-delivery-c"/>
    <path d="M293.831 397.211C268.035 397.211 241.664 418.253 234.949 444.211H328.376C335.103 418.253 319.64 397.211 293.844 397.211H293.831Z" fill="#A6A9B3"/>
    <path d="M521.279 296.211C522.435 291.787 522.045 287.88 520.499 285.532L521.11 283.211H516.368C511.769 283.211 506.508 289.027 504.624 296.211C502.74 303.394 504.936 309.211 509.535 309.211H514.276L514.887 306.889C517.667 304.542 520.109 300.635 521.279 296.211Z" fill="#0b1b3b" class="tblr-illustrations tblr-illustrations-vocate tblr-illustrations-delivery-c"/>
    <path d="M525.312 296.211C523.534 303.394 518.565 309.211 514.223 309.211C509.881 309.211 507.808 303.394 509.586 296.211C511.365 289.027 516.333 283.211 520.675 283.211C525.018 283.211 527.091 289.027 525.312 296.211Z" fill="#1a3263" style="fill: #1a3263; fill: var(--tblr-illustrations-primary, var(--tblr-primary, #1a3263));"/>
    <path d="M395.566 349.63L393.967 355.792C392.316 362.096 385.894 367.211 379.601 367.211H356.787C335.843 360.7 309.213 349.992 294.949 344.063C297.799 340.575 302.145 338.211 306.414 338.211H387.145C393.438 338.211 397.204 343.326 395.566 349.63Z" fill="black" opacity="0.3"/>
    <path d="M522.496 268.101C523.377 269.157 524.4 270.1 525.527 270.902C529.554 273.754 534.307 274.059 537.337 271.284C541.145 267.719 540.756 260.614 536.392 255.33C535.913 254.745 535.382 254.197 534.825 253.688C530.577 249.792 524.957 249.015 521.564 252.147C517.756 255.661 518.145 262.817 522.483 268.101H522.496Z" fill="#FFCB9D" style="fill: #FFCB9D; fill: var(--tblr-illustrations-skin, #FFCB9D);"/>
    <path d="M522.537 268.366C523.425 269.439 524.456 270.396 525.591 271.211C525.97 270.797 526.283 270.409 526.609 270.021C530.877 264.72 530.681 260.918 534.44 254.557C534.597 254.272 534.766 254.001 534.949 253.742C530.668 249.785 525.004 248.997 521.584 252.178C517.747 255.746 518.139 263.013 522.511 268.379L522.537 268.366Z" fill="black" opacity="0.1"/>
    <path d="M295.969 174.678L254.091 271.313C250.386 279.862 254.313 289.796 262.862 293.501L326.948 321.273C335.497 324.978 345.431 321.051 349.136 312.502L391.013 215.867C394.718 207.318 390.791 197.384 382.242 193.679L318.157 165.907C309.607 162.202 299.674 166.129 295.969 174.678Z" fill="#DADCE0"/>
    <path d="M390.848 230.325L288.773 189.973C287.151 189.331 285.316 190.127 284.675 191.749L283.061 195.832C282.419 197.454 283.214 199.289 284.837 199.931L386.911 240.283C388.533 240.924 390.368 240.129 391.01 238.507L392.624 234.423C393.265 232.801 392.47 230.966 390.848 230.325Z" fill="#1a3263" style="fill: #1a3263; fill: var(--tblr-illustrations-primary, var(--tblr-primary, #1a3263));"/>
    <path d="M390.558 216.139L348.891 312.111C345.199 320.605 335.312 324.508 326.805 320.822L263.065 293.236C254.558 289.55 250.649 279.678 254.34 271.184L255.26 269.067C315.028 258.737 354.511 215.412 372.879 190.211L381.834 194.088C390.341 197.774 394.25 207.645 390.558 216.139Z" fill="black" opacity="0.15"/>
    <path d="M388.259 315.211C405.485 336.181 422.711 357.152 439.949 378.122C431.037 394.481 422.138 410.852 413.226 427.211C410.934 426.084 408.655 424.944 406.364 423.816C407.599 408.61 408.821 393.405 410.056 378.199C396.013 370.141 381.97 362.084 367.927 354.039C365.381 349.568 362.809 344.585 360.365 339.089C356.583 330.558 353.884 322.551 351.949 315.416C364.057 315.352 376.165 315.288 388.259 315.224V315.211Z" fill="#1a3263" style="fill: #1a3263; fill: var(--tblr-illustrations-primary, var(--tblr-primary, #1a3263));"/>
    <path d="M388.259 315.211C405.485 336.181 422.711 357.152 439.949 378.122C431.037 394.481 422.138 410.852 413.226 427.211C410.934 426.084 408.655 424.944 406.364 423.816C407.599 408.61 408.821 393.405 410.056 378.199C396.013 370.141 381.97 362.084 367.927 354.039C365.381 349.568 362.809 344.585 360.365 339.089C356.583 330.558 353.884 322.551 351.949 315.416C364.057 315.352 376.165 315.288 388.259 315.224V315.211Z" fill="black" opacity="0.1"/>
    <path d="M377.795 311.556C387.184 333.783 396.56 356.011 405.949 378.239C397.592 393.229 389.235 408.22 380.878 423.211L373.961 420.949C375.566 404.783 377.158 388.616 378.764 372.449C357.374 365.406 344.329 354.305 337.565 347.495C330.074 339.948 323.972 333.279 323.042 323.135C322.087 312.732 328.686 303.504 334.622 297.211C349.005 301.992 363.4 306.787 377.783 311.568L377.795 311.556Z" fill="#1a3263" style="fill: #1a3263; fill: var(--tblr-illustrations-primary, var(--tblr-primary, #1a3263));"/>
    <path d="M386.928 232.211C386.605 234.568 386.089 236.896 385.358 239.211C384.906 238.179 384.82 237.091 385.143 236.032C385.638 234.763 386.283 233.508 386.949 232.211H386.928Z" fill="black" opacity="0.1"/>
    <path d="M333.949 297.524C340.798 301.642 348.084 305.824 355.846 309.967C359.444 311.879 363.158 313.79 366.948 315.714C371.575 318.036 376.213 320.294 380.865 322.398C387.843 325.618 394.615 328.543 401.13 331.211C403.34 328.594 406.733 324.668 411.025 320.063C422.783 307.453 428.437 303.566 435.311 295.894C440.079 290.558 446.337 282.399 451.927 270.597C451.952 267.749 452.454 262.348 456.077 257.589C462.837 248.724 476.175 247.737 485.504 251.252C497.558 255.806 501.863 267.492 502.531 269.404C516.666 262.592 530.801 255.767 544.949 248.955C536.237 240.604 520.482 228.109 497.751 223.376C491.197 222.016 486.083 221.708 481.405 221.451C468.118 220.72 447.506 221.259 421.716 228.815C419.197 227.044 416.409 225.659 413.479 224.697L413.286 224.658C412.078 224.274 397.622 226.839 397.121 226.839C396.363 226.955 393.767 229.482 390.053 233.497C384.258 239.732 375.725 249.597 367.026 259.718C359.727 268.198 352.312 276.844 346.285 283.695C342.906 287.582 339.989 290.904 337.779 293.277C336.506 294.689 335.234 296.1 333.962 297.524H333.949Z" fill="#DADCE0"/>
    <path d="M333.962 297.429L356.005 309.809C371.2 316.939 386.396 324.081 401.591 331.211C409.331 321.43 417.498 308.059 413.162 297.48C409.266 287.983 398.006 287.326 396.31 280.107C394.835 273.865 400.672 263.286 433.949 244.355L433.056 239.903C431.865 238.5 430.61 237.033 429.277 235.617C427.245 233.133 425.005 230.83 422.585 228.719C420.035 226.956 417.239 225.566 414.288 224.588L414.094 224.562C411.635 223.803 409.098 223.34 406.522 223.211L406.484 223.481L406.548 225.656L406.794 230.263L397.824 226.647C361.648 266.092 349.365 279.746 346.181 283.491C345.676 284.096 342.362 287.995 337.767 293.169C336.098 295.061 334.739 296.554 333.949 297.429H333.962Z" fill="black" opacity="0.1"/>
    <path d="M405.314 243.343C407.483 251.377 418.727 255.278 430.408 252.111C442.088 248.944 449.751 239.853 447.582 231.819C447.467 231.381 447.312 230.956 447.094 230.557C445.143 228.832 439.791 224.596 432.064 224.235C427.083 224.003 423.335 225.484 420.73 226.553C412.694 229.836 407.688 235.54 405.057 239.184C404.852 240.574 404.941 241.991 405.314 243.343Z" fill="#FFCB9D" style="fill: #FFCB9D; fill: var(--tblr-illustrations-skin, #FFCB9D);"/>
    <path d="M405.314 243.343C407.483 251.377 418.727 255.278 430.408 252.111C442.088 248.944 449.751 239.853 447.582 231.819C447.467 231.381 447.312 230.956 447.094 230.557C445.143 228.832 439.791 224.596 432.064 224.235C427.083 224.003 423.335 225.484 420.73 226.553C412.694 229.836 407.688 235.54 405.057 239.184C404.852 240.574 404.941 241.991 405.314 243.343Z" fill="black" opacity="0.1"/>
    <path d="M449.706 257.66C449.027 257.284 448.987 256.355 449.014 254.509C449.066 253.819 449.053 253.116 448.961 252.425C448.412 250.893 447.615 249.462 446.595 248.182C450.791 249.964 456.164 251.848 458.975 251.144C459.694 250.994 460.321 250.542 460.661 249.914C461.733 247.73 459.589 244.603 457.89 242.431C454.373 237.723 451.092 235.74 448.242 236.305C445.392 236.87 443.288 240.837 442.569 243.134C440.399 241.025 435.706 237.133 431.313 238.351C427.797 239.406 425.417 243.674 424.319 251.132C423.823 254.572 423.443 259.355 425.836 261.063C426.594 261.603 427.574 261.766 428.463 261.49C432.294 260.548 437.64 254.534 441.078 250.027C440.83 251.647 440.124 253.178 439.026 254.434C438.098 255.062 437.575 256.091 437.614 257.183C438.163 259.807 439.667 262.155 441.85 263.812L443 261.891C440.098 259.129 439.758 257.886 439.823 257.535C439.823 257.208 440.007 256.907 440.294 256.744C442.477 255.175 443.418 250.592 443.811 247.868C445.053 249.387 446.138 251.019 447.04 252.752C447.066 253.191 447.066 253.63 447.04 254.07C446.961 255.802 446.844 258.703 449.079 260.046C450.36 260.749 452.02 264.214 453.628 269.211L455.537 268.571C453.563 262.444 451.746 258.878 449.733 257.66H449.706ZM448.739 238.803C450.844 238.376 453.393 240.146 456.373 244.001C459.001 247.416 458.74 248.357 458.766 248.37C458.021 249.625 451.419 247.868 444.347 244.578C445.039 242.745 446.36 239.368 448.752 238.803H448.739ZM426.751 258.74C426.62 258.665 425.574 257.711 426.437 251.772C427.404 245.319 429.274 241.603 432.071 240.787L432.281 240.736C435.693 239.845 439.915 243.473 441.654 245.206C435.876 253.003 428.686 260.096 426.764 258.74H426.751Z" fill="#1a3263" style="fill: #1a3263; fill: var(--tblr-illustrations-primary, var(--tblr-primary, #1a3263));"/>
    <path d="M416.102 261.711C416.102 251.411 407.751 243.061 397.451 243.061C387.151 243.061 378.801 251.411 378.801 261.711C378.801 272.011 387.151 280.361 397.451 280.361C407.751 280.361 416.102 272.011 416.102 261.711ZM421.801 261.711C421.801 275.159 410.899 286.061 397.451 286.061C384.003 286.061 373.102 275.159 373.102 261.711C373.102 248.263 384.003 237.361 397.451 237.361C410.899 237.361 421.801 248.263 421.801 261.711Z" fill="#1a3263" style="fill: #1a3263; fill: var(--tblr-illustrations-primary, var(--tblr-primary, #1a3263));"/>
    <path d="M448.533 234.21C437.287 234.158 425.271 229.532 420.572 225.462C419.751 224.853 419.096 224.037 418.672 223.091C418.223 221.911 417.889 220.693 417.53 219.423C417.055 217.674 416.657 215.859 416.336 214.032C415.45 209.353 414.988 204.597 414.949 199.828C414.949 199.452 414.988 198.273 414.975 196.925C415.167 190.886 415.476 186.065 415.771 182.591C415.976 183.123 417.132 185.546 418.39 185.494C419.648 185.443 421.227 182.501 421.368 178.211L446.53 181.036L455.94 191.456C455.94 191.456 456.081 192.946 456.505 195.279C457.172 199.297 458.122 203.249 459.342 207.137C460.099 210.105 461.409 212.904 463.193 215.393C468.277 221.704 461.999 234.314 448.545 234.21H448.533Z" fill="#FFCB9D" style="fill: #FFCB9D; fill: var(--tblr-illustrations-skin, #FFCB9D);"/>
    <path d="M458.936 207.366C449.063 209.731 438.692 208.659 429.48 204.297C426.999 204.375 424.581 205.146 422.507 206.53C419.415 208.646 419.25 210.906 416.616 213.963L416.362 214.211C415.471 209.535 415 204.78 414.949 199.999C414.949 199.62 414.987 198.432 414.975 197.073C415.166 190.986 415.471 186.127 415.764 182.626C415.967 183.162 417.112 185.604 418.359 185.552C419.606 185.5 421.171 182.535 421.311 178.211L446.251 181.059L455.577 191.561C455.577 191.561 455.717 193.063 456.137 195.414C456.799 199.463 457.74 203.448 458.949 207.366H458.936Z" fill="black" opacity="0.1"/>
    <path d="M278.949 260.385C286.406 266.291 310.392 283.765 344.486 284.203C372.085 284.55 393.533 273.574 401.528 268.594C402.464 268.015 402.976 267.668 403.245 267.462C416.506 258.172 423.681 239.706 421.285 224.999C421.196 224.432 421.106 223.879 421.029 223.364C420.03 216.982 419.761 213.804 419.274 207.885C419.184 206.726 419.043 203.78 419.812 200.125C419.927 199.572 420.119 198.98 420.286 198.414C420.888 196.458 424.207 194.373 425.731 191.298C430.293 194.631 446.872 205.594 459.48 198.903C462.35 197.397 464.81 195.21 466.63 192.533C467.488 191.234 467.949 189.702 467.949 188.145C467.911 181.712 459.198 177.427 455.508 175.664C441.401 168.741 426.334 174.133 422.4 175.535C409.139 180.258 396.659 191.941 391.329 206.109C388.113 214.653 389.266 217.6 385.166 221.627C379.772 226.942 363.334 227.945 349.368 223.3C329.854 216.815 319.181 200.923 315.196 194.155C316.888 208.361 313.467 216.223 310.007 220.778C304.844 227.559 298.527 228.434 297.809 234.714C297.13 240.659 302.166 245.484 299.18 252.124C299.091 252.304 298.719 253.385 297.835 254.388C295.49 257.026 290.224 259.433 278.949 260.372V260.385Z" fill="#0b1b3b" class="tblr-illustrations tblr-illustrations-vocate tblr-illustrations-delivery-c"/>
    <path d="M466.949 192.359C465.121 195.162 462.649 197.442 459.765 198.998C447.082 205.972 430.434 194.545 425.838 191.072C424.357 189.261 423.044 187.303 421.949 185.211C434.889 195.216 451.743 197.871 466.936 192.319V192.359H466.949Z" fill="black" opacity="0.5"/>
    <path d="M278.949 260.325C286.417 266.246 310.437 283.764 344.581 284.203C372.22 284.551 393.699 273.547 401.706 268.555C402.643 267.974 403.156 267.626 403.425 267.42C416.706 258.106 423.891 239.594 421.492 224.849C421.402 224.282 421.312 223.727 421.235 223.211C408.455 248.495 391.697 257.525 385.346 260.454C353.73 275.057 314.979 260.995 297.862 254.326C295.514 256.971 290.241 259.383 278.949 260.325Z" fill="black" opacity="0.5"/>
    <path d="M472.949 185.54C472.949 186.464 472.91 187.389 472.82 188.326C472.625 190.586 472.184 192.871 471.471 195.131C471.082 196.389 469.902 197.211 468.631 197.211C468.346 197.211 468.047 197.16 467.749 197.07L437.196 187.697L411.052 179.685C409.47 179.198 408.601 177.541 409.081 175.988C409.211 175.577 409.353 175.153 409.496 174.755C414.203 161.582 426.744 153.211 440.257 153.211C443.473 153.211 446.728 153.686 449.944 154.675C463.962 158.963 472.949 171.738 472.949 185.54Z" fill="#1a3263" style="fill: #1a3263; fill: var(--tblr-illustrations-primary, var(--tblr-primary, #1a3263));"/>
    <path d="M485.723 197.695C485.058 199.843 483.076 201.211 480.937 201.211C480.442 201.211 479.933 201.146 479.438 200.99L437.488 188.018C437.279 187.953 437.07 187.875 436.875 187.77C434.619 186.742 433.419 184.176 434.176 181.74C434.723 179.956 436.197 178.706 437.905 178.328C438.244 178.25 438.609 178.211 438.974 178.211C439.47 178.211 439.965 178.276 440.461 178.432L447.111 180.49L472.592 188.369L472.696 188.409L482.411 191.417C485.058 192.238 486.544 195.038 485.723 197.695Z" fill="#1a3263" style="fill: #1a3263; fill: var(--tblr-illustrations-primary, var(--tblr-primary, #1a3263));"/>
    <path d="M485.724 197.77C485.063 199.873 483.094 201.211 480.968 201.211C480.476 201.211 479.97 201.147 479.478 200.994L437.787 188.3C437.579 188.236 437.372 188.16 437.177 188.058L411.051 180.105C409.47 179.621 408.601 177.977 409.081 176.434C409.211 176.027 409.353 175.606 409.496 175.211C419.008 175.415 429.026 176.906 438.201 178.818C441.376 179.493 444.435 180.207 447.351 180.933C461.166 184.4 471.534 188.224 472.674 188.644C472.739 188.67 472.778 188.682 472.778 188.682L482.433 191.627C485.063 192.43 486.541 195.17 485.724 197.77Z" fill="black" opacity="0.15"/>
    <path d="M458.07 306.564C459.427 306.837 460.745 307.317 461.959 307.993C466.378 310.241 468.808 314.333 467.671 318.348C466.198 323.493 459.582 326.352 452.811 324.78C452.075 324.624 451.338 324.416 450.64 324.143C445.188 322.168 441.932 317.478 443.237 313.008C444.684 308.097 451.338 305.134 458.07 306.577V306.564Z" fill="#FFCB9D" style="fill: #FFCB9D; fill: var(--tblr-illustrations-skin, #FFCB9D);"/>
    <path d="M458.059 306.568C459.416 306.84 460.734 307.319 461.949 307.993L461.368 309.417C458.576 315.622 455.087 317.151 451.107 323.369C450.965 323.654 450.784 323.9 450.642 324.211C445.188 322.242 441.931 317.566 443.237 313.109C444.671 308.083 451.326 305.13 458.059 306.581V306.568Z" fill="black" opacity="0.1"/>
    <path d="M360.962 437.918L365.098 431.54C365.098 431.54 368.091 424.853 372.792 425.226C377.492 425.599 384.988 441.878 384.949 450.211L372.621 438.715L367.999 443.126L360.949 437.905L360.962 437.918Z" fill="#0b1b3b" class="tblr-illustrations tblr-illustrations-vocate tblr-illustrations-delivery-c"/>
    <path d="M393.949 444.017L397.094 437.292C397.094 437.292 399.12 430.403 403.582 430.213C408.043 430.023 417.005 445.055 417.949 453.211L405.011 443.434L401.195 448.297L393.962 444.029L393.949 444.017Z" fill="#0b1b3b" class="tblr-illustrations tblr-illustrations-vocate tblr-illustrations-delivery-c"/>
    <path d="M387.204 275.482C384.226 290.038 387.089 298.764 390.183 304.012C401.172 322.666 443.973 346.362 444.512 348.172C444.512 348.172 444.512 348.198 444.538 348.211C445.231 348.353 454.949 300.431 454.949 300.431C451.637 300.961 446.977 301.44 441.418 301.117C431.251 300.522 420.968 299.927 416.693 293.567C412.238 286.948 418.349 280.097 413.932 262.878C413.419 260.861 412.893 259.232 412.546 258.211C410.993 260.241 409.08 262.412 406.743 264.532C399.747 270.918 392.288 273.956 387.191 275.482H387.204Z" fill="#DADCE0"/>
    <path d="M526.901 260.908C526.603 263.07 524.937 265.766 522.34 267.994C518.515 271.25 514.122 272.185 512.532 270.103C511.46 268.688 511.912 266.273 513.514 263.844C514.29 262.67 515.323 261.482 516.564 260.428C520.388 257.171 524.782 256.237 526.371 258.319C526.875 258.986 527.043 259.88 526.901 260.908Z" fill="#A6A9B3"/>
    <path d="M505.626 277.211L514.949 269.14L513.507 267.211L501.949 277.211H505.626Z" fill="#A6A9B3"/>
    <path d="M486.949 266.653C486.725 268.205 486.066 269.651 484.907 270.828C481.626 274.188 475.735 273.974 471.756 270.32C470.438 269.115 469.489 267.697 468.949 266.211C473.047 267.924 479.28 269.222 486.949 266.653Z" fill="black" opacity="0.1"/>
    <path d="M525.937 261.211C525.659 263.309 524.1 265.926 521.67 268.089C518.092 271.249 513.982 272.156 512.495 270.135C511.492 268.762 511.915 266.418 513.414 264.061C516.291 264.268 521.9 264.268 525.949 261.211H525.937Z" fill="black" opacity="0.1"/>
    <path d="M533.949 418.225C472.937 415.819 443.949 449.211 443.949 449.211C450.72 423.805 477.249 403.211 503.211 403.211C516.984 403.211 527.822 409.005 533.949 418.225Z" fill="black" opacity="0.3"/>
</svg>
