<svg xmlns="http://www.w3.org/2000/svg" width="800" height="600" fill="none" viewBox="0 0 800 600">
    <style>
        :where(.theme-dark, [data-theme="dark"]) .tblr-illustrations-detective-a { fill: black; opacity: 0.07; } :where(.theme-dark, [data-theme="dark"]) .tblr-illustrations-detective-b { fill: black; opacity: 0.3; } :where(.theme-dark, [data-theme="dark"]) .tblr-illustrations-detective-c { fill: #24304d; }
        @media (prefers-color-scheme: dark) { .tblr-illustrations-detective-a { fill: black; opacity: 0.07; } .tblr-illustrations-detective-b { fill: black; opacity: 0.3; } .tblr-illustrations-detective-c { fill: #24304d; } }
    </style>
    <path d="M144 321C144 364.206 189.738 395.646 210.014 430.606C230.849 466.692 235.941 521.663 271.948 542.581C306.931 562.825 356.75 540.2 400 540.2C443.25 540.2 493.069 562.825 528.052 542.581C564.059 521.768 569.151 466.68 589.986 430.606C610.25 395.658 656 364.322 656 321C656 277.678 610.146 246.354 589.986 211.394C569.151 175.308 564.059 120.232 528.052 99.419C493.069 79.175 443.25 101.8 400 101.8C356.75 101.8 306.931 79.175 271.948 99.419C235.825 120.232 230.849 175.32 210.014 211.394C189.75 246.458 144 277.794 144 321Z" fill="#1a3263" style="fill: #1a3263; fill: var(--tblr-illustrations-primary, var(--tblr-primary, #1a3263));" opacity="0.02" class="tblr-illustrations tblr-illustrations-vocate tblr-illustrations-detective-a"/>
    <path d="M651.03 224.271L638.662 219.336L612.179 208.769L602.451 204.881L593.457 201.297L532.172 176.822L471.364 152.533C471.05 152.405 470.736 152.346 470.41 152.265C475.448 135.203 474.634 117.117 468.013 100.451C467.746 99.753 467.455 99.0547 467.152 98.3681C458.751 78.7809 443.218 63.6395 423.425 55.7255C403.621 47.8231 381.933 48.1141 362.35 56.5169C342.767 64.9314 327.629 80.4568 319.728 100.265C311.828 120.062 312.107 141.756 320.52 161.343C326 174.122 334.529 185.027 345.292 193.243C351.005 197.608 357.381 201.239 364.246 203.985C384.05 211.899 405.739 211.608 425.322 203.206C442.566 195.804 456.366 182.862 464.813 166.359C465.081 166.522 465.372 166.685 465.674 166.813L525.156 190.566L583.113 213.703L599.205 220.128L603.65 221.897L638.976 236.014L645.329 238.551C648.564 239.843 652.252 238.248 653.544 235.036L654.556 232.499C655.836 229.275 654.253 225.586 651.042 224.306L651.03 224.271ZM457.797 155.372C450.979 172.457 437.912 185.853 421.017 193.104C404.122 200.354 385.4 200.61 368.331 193.79C365.491 192.661 362.769 191.346 360.127 189.88C346.967 182.524 336.647 171.096 330.585 157.002C323.324 140.115 323.091 121.4 329.898 104.304C336.716 87.2186 349.783 73.823 366.678 66.5723C383.573 59.3101 402.295 59.0657 419.365 65.8857C436.446 72.7057 449.85 85.7638 457.111 102.663C458.681 106.305 459.915 110.041 460.822 113.824C464.138 127.557 463.126 141.965 457.797 155.384V155.372Z" fill="#DADCE0"/>
    <path d="M603.49 222C606.404 217.403 609.748 212.141 612 208.626L602.295 204.658L593.332 201L583 213.638L603.49 222Z" fill="black" opacity="0.1"/>
    <path d="M532 176.904C529.637 181.579 527.145 186.488 524.968 190.718L465.452 166.805C465.149 166.676 464.87 166.512 464.591 166.348C456.138 182.961 442.33 195.99 425.076 203.441C405.482 211.9 383.781 212.193 363.965 204.226C357.085 201.461 350.716 197.817 345 193.412C350.134 192.463 355.071 191.338 359.832 190.05C362.464 191.538 365.2 192.85 368.04 193.986C385.131 200.852 403.852 200.606 420.757 193.295C437.662 185.984 450.736 172.499 457.559 155.312C462.891 141.815 463.904 127.31 460.586 113.473C463.519 108.553 465.895 103.995 467.792 100C474.428 116.777 475.232 134.984 470.191 152.16C470.517 152.242 470.831 152.312 471.145 152.429L531.988 176.881L532 176.904Z" fill="black" opacity="0.1"/>
    <path d="M141 519.939C141 522.694 256.995 525 400 525C543.005 525 659 522.706 659 519.939C659 517.172 543.005 515 400 515C256.995 515 141 517.294 141 519.939Z" fill="#d9e2f3" opacity="0.5" class="tblr-illustrations tblr-illustrations-vocate tblr-illustrations-detective-b"/>
    <path d="M578.08 206.394C578.297 204.735 578.618 203.158 579.236 201.626C579.568 200.716 580.003 199.887 580.449 199.046C584.591 191.525 592.751 187.943 598.576 191.214C603.863 194.105 605.396 201.499 602.684 208.409C602.352 209.319 601.986 210.045 601.551 210.874C601.116 211.703 600.647 212.348 600.098 213.109C595.726 219.144 588.631 221.701 583.344 218.81C579.465 216.46 577.576 211.611 578.08 206.371V206.394Z" fill="#FFCB9D" style="fill: #FFCB9D; fill: var(--tblr-illustrations-skin, #FFCB9D);"/>
    <path d="M578.093 205.928C578.313 204.214 578.637 202.583 579.263 201C587.005 203.892 594.956 206.261 603 208.022C602.664 208.963 602.293 209.712 601.853 210.569C601.412 211.426 600.937 212.093 600.381 212.878C595.953 219.115 588.767 221.757 583.412 218.77C579.483 216.342 577.571 211.331 578.081 205.916L578.093 205.928Z" fill="black" opacity="0.1"/>
    <path d="M601.977 218.797C599.826 224.951 597.362 230.86 594.607 236.454C578.716 268.771 553.375 291.088 527.104 293.699C516.061 294.783 498.02 293.093 480.084 286.147C478.619 285.588 477.189 284.981 475.829 284.387H475.817C466.169 280.192 458.695 275.344 453.475 271.474C451.976 258.806 450.488 246.126 449 233.47C460.671 238.225 472.353 243.003 484.024 247.758C486.64 250.287 495.881 258.643 509.098 258.585C525.36 258.527 535.567 245.812 539.635 240.672C555.526 220.627 551.12 195.303 550.086 190C567.383 199.591 584.68 209.183 602 218.786L601.977 218.797Z" fill="#1a3263" style="fill: #1a3263; fill: var(--tblr-illustrations-primary, var(--tblr-primary, #1a3263));"/>
    <path d="M444 394.049C433.808 429.037 423.617 464.012 413.437 499H401.583C400.758 471.101 399.922 443.19 399.096 415.291C384.396 404.396 369.719 393.502 355.018 382.608H355.006C341.677 392.78 328.359 402.918 315.019 413.079C286.64 413.009 258.273 412.916 229.895 412.823C229.593 409.261 229.302 405.677 229 402.115C252.997 394.573 276.983 387.007 300.98 379.465C317.564 355.639 334.158 331.814 350.753 308L386.592 344.71L389.451 347.608L398.097 356.338C401.92 360.214 405.767 364.09 409.59 367.965C421.06 376.672 432.53 385.366 444 394.049Z" fill="#DADCE0"/>
    <path d="M443.988 394.328C433.796 429.223 423.604 464.106 413.423 499H401.569C400.744 471.175 399.907 443.338 399.082 415.514C384.38 404.648 369.702 393.783 355 382.918L389.447 348L398.094 356.706C401.917 360.572 405.764 364.437 409.588 368.303C421.058 376.986 432.529 385.657 444 394.317L443.988 394.328Z" fill="black" opacity="0.1"/>
    <path d="M196 422L208.589 398C208.589 398 215.351 399.646 215.978 404.642C216.606 409.639 203.458 420.39 196 422Z" fill="#0b1b3b" class="tblr-illustrations tblr-illustrations-vocate tblr-illustrations-detective-c"/>
    <path d="M429 511.842L404.395 521C404.395 521 400.242 515.637 402.873 511.721C405.504 507.806 422.285 508.354 429 511.842Z" fill="#0b1b3b" class="tblr-illustrations tblr-illustrations-vocate tblr-illustrations-detective-c"/>
    <path d="M514 174.615C512.326 178.213 509.936 183.699 507.003 190.029L505.329 193.194C501.612 200.262 497.109 206.651 491.89 212.676C490.851 213.766 489.812 214.856 488.773 215.958C484.824 219.674 465.439 218.49 451.226 210.988C437.014 203.486 437.429 186.688 446.158 182.925C449.345 181.237 452.266 179.034 454.621 176.373C458.073 172.915 461.213 169.082 463.973 165.131C465.67 162.822 466.651 161.439 466.651 161.439L482.192 156L510.121 167.159C507.962 171.883 508.031 175.74 509.359 176.443C510.686 177.147 513.607 174.954 513.977 174.638L514 174.615Z" fill="#FFCB9D" style="fill: #FFCB9D; fill: var(--tblr-illustrations-skin, #FFCB9D);"/>
    <path d="M454 176.354C457.218 179.154 462.354 183.1 469.644 186.037C476.804 188.94 483.251 189.663 487.452 189.835C486.96 191.361 486.516 192.749 486.328 194.229C485.732 196.546 485.556 198.864 485.65 201.262C485.942 203.441 486.539 205.575 487.651 207.445C488.622 209.281 489.979 210.807 491.594 212C496.847 206.241 501.434 199.85 505.213 192.932L506.91 189.835C510.01 183.685 512.432 178.305 514 174.748C513.626 175.047 511.051 177.743 509.624 176.882C509.402 176.676 509.062 176.435 509.016 176.136C508.349 174.679 508.629 171.559 510.408 167.796L510.022 167.681L482.058 157L466.262 162.45C466.262 162.45 463.758 165.857 463.548 166.063C462.623 167.176 461.243 168.84 458.762 171.272L458.727 171.398L454.023 176.354H454Z" fill="black" opacity="0.1"/>
    <path d="M475 137L467 133.324C467 133.324 467.937 132.443 469.479 131C471.826 132.305 473.777 134.378 475 137Z" fill="#0b1b3b" class="tblr-illustrations tblr-illustrations-vocate tblr-illustrations-detective-c"/>
    <path d="M496.429 146.894L476 137.85C477.597 133.269 481.718 129.931 486.543 129.157C493.881 128.033 500.843 133.058 501.97 140.369C503.966 138.998 506.361 138.201 508.944 138.155C511.645 138.143 514.415 138.857 516.67 140.275C522.681 144.047 524.7 151.838 521.472 158L496.429 146.894Z" fill="#0b1b3b" class="tblr-illustrations tblr-illustrations-vocate tblr-illustrations-detective-c"/>
    <path d="M527.999 168.539C528.045 171.542 526.876 174.279 524.92 176.203C523.115 178.047 520.649 179.207 517.86 179.334L517.687 179.427C517.571 180.239 517.305 181.131 516.923 181.862C514.527 187.717 510.002 192.344 504.285 194.918C503.185 195.266 502.097 195.637 501.079 196.159C498.185 197.782 495.905 200.171 494.169 203C493.405 200.936 493.405 198.675 493.915 196.588C495.315 193.504 496.854 190.338 498.752 187.416L498.914 186.906C499.076 186.396 499.331 186.048 499.482 185.538C500.176 184.204 500.65 182.674 501.264 181.166L501.31 181.039L501.252 180.923L501.218 180.876C501.009 180.923 500.789 180.969 500.581 181.015C496.264 182.013 492.005 182.5 487.943 182.5H487.549C474.436 182.384 463.268 177.247 457.944 168.411C455.514 164.33 454.299 159.669 454.299 154.88C454.299 154.416 454.31 153.952 454.333 153.5C451.614 150.961 450.109 147.679 450.005 143.969C449.993 143.598 450.005 143.25 450.016 142.902C450.109 141.024 450.583 139.249 451.347 137.649C457.319 137.313 463.43 137 463.43 137C463.43 137 524.48 164.144 525.036 164.388C525.209 164.469 526.436 166.197 527.999 168.539Z" fill="#0b1b3b" class="tblr-illustrations tblr-illustrations-vocate tblr-illustrations-detective-c"/>
    <path d="M497 256.588L439.535 330.337L409.398 369C387.936 351.05 366.462 333.076 345 315.102C360.226 290.717 375.451 266.333 390.677 241.948C399.189 228.287 407.714 214.638 416.238 201L438.165 214.113C438.978 214.614 441.672 216.13 445.296 215.71C448.35 215.349 450.383 213.81 451.172 213.157C458.384 218.496 465.608 223.858 472.844 229.208C472.309 229.826 470.985 231.504 470.765 234.022C470.428 237.892 473.029 240.503 473.401 240.887C481.263 246.121 489.126 251.366 496.988 256.611L497 256.588Z" fill="#1a3263" style="fill: #1a3263; fill: var(--tblr-illustrations-primary, var(--tblr-primary, #1a3263));"/>
    <path d="M454.988 311.057C439.911 330.367 424.834 349.69 409.757 369C388.176 350.977 366.582 332.93 345 314.884C360.311 290.401 375.621 265.918 390.932 241.434C395.393 240.627 399.866 239.808 404.327 239C408.496 242.289 414.37 247.801 418.656 256.11C423.678 265.871 423.059 272.787 425.196 280.149C427.672 288.68 434.551 300.173 455 311.057H454.988Z" fill="black" opacity="0.1"/>
    <path d="M385.034 294C382.556 294 380.147 293.21 378.118 291.687C375.605 289.815 373.969 287.072 373.508 283.957L370.13 261.196C369.669 258.081 370.442 254.977 372.286 252.443C374.142 249.909 376.862 248.258 379.951 247.793L404.214 244.131C410.588 243.167 416.536 247.619 417.492 254.035L420.87 276.796C421.826 283.224 417.412 289.222 411.049 290.187L386.786 293.849C386.198 293.942 385.61 293.977 385.034 293.977V294ZM405.954 252.338C405.782 252.338 405.62 252.35 405.447 252.373L381.184 256.035C380.274 256.174 379.478 256.651 378.937 257.395C378.395 258.139 378.164 259.046 378.303 259.964L381.68 282.724C381.818 283.643 382.291 284.445 383.028 284.991C383.766 285.537 384.677 285.77 385.576 285.63L409.839 281.969C411.706 281.69 413.009 279.923 412.72 278.04L409.343 255.279C409.09 253.57 407.626 252.327 405.954 252.327V252.338Z" fill="#0b1b3b" class="tblr-illustrations tblr-illustrations-vocate tblr-illustrations-detective-c"/>
    <path d="M464.926 342.067C470.753 341.195 474.769 335.739 473.876 329.899L465.553 275.06C464.671 269.255 459.274 265.265 453.482 266.114L443.244 267.615L444.846 278.096L449.303 307.412C449.791 310.134 447.806 312.798 445.078 313.287L436.756 314.543C434.04 315.032 431.382 313.042 430.894 310.309L426.437 280.993L424.835 270.511L417.093 271.628L374.495 277.98L367.345 278.969L368.947 289.45L373.404 318.766C373.891 321.488 371.906 324.152 369.179 324.641L361.065 325.723C358.349 326.211 355.691 324.222 355.204 321.488L351.129 292.219L349.528 281.737L335.077 283.913C329.262 284.785 325.257 290.218 326.116 296.046L334.276 350.897C335.146 356.772 340.648 360.797 346.498 359.866L347.496 359.703L464.938 342.079L464.926 342.067Z" fill="#DADCE0"/>
    <path d="M464.926 342.067C470.753 341.195 474.769 335.739 473.876 329.899L465.553 275.06C464.671 269.255 459.274 265.265 453.482 266.114L443.244 267.615L444.846 278.096L449.303 307.412C449.791 310.134 447.806 312.798 445.078 313.287L436.756 314.543C434.04 315.032 431.382 313.042 430.894 310.309L426.437 280.993L424.835 270.511L417.093 271.628L374.495 277.98L367.345 278.969L368.947 289.45L373.404 318.766C373.891 321.488 371.906 324.152 369.179 324.641L361.065 325.723C358.349 326.211 355.691 324.222 355.204 321.488L351.129 292.219L349.528 281.737L335.077 283.913C329.262 284.785 325.257 290.218 326.116 296.046L334.276 350.897C335.146 356.772 340.648 360.797 346.498 359.866L347.496 359.703L464.938 342.079L464.926 342.067Z" fill="black" opacity="0.1"/>
    <path d="M473.866 330.429L465.393 275L444.685 278.016L449.142 307.141C449.63 309.845 447.645 312.492 444.917 312.977L436.595 314.226C433.878 314.711 431.22 312.735 430.733 310.019L426.275 280.894L418.916 282.05L376.491 288.557L369.131 289.712L373.589 318.837C374.076 321.541 372.091 324.188 369.364 324.673L361.041 325.922C358.325 326.407 355.667 324.431 355.179 321.715L350.977 292.047L338 293.954C338.023 310.47 343.827 326.442 354.158 339.074C359.787 345.535 366.671 350.978 374.459 355L465.741 341.432C471.046 340.646 474.691 335.722 473.89 330.441L473.866 330.429Z" fill="#DADCE0"/>
    <path d="M373.917 318.793L369.313 289.55L367.658 279.095C367.155 276.38 364.589 274.593 361.784 275.08L353.355 276.531C350.55 277.018 348.704 279.501 349.039 282.008L350.694 292.463L355.298 321.705C355.801 324.421 358.547 326.405 361.352 325.929L369.948 324.676C372.586 323.98 374.42 321.497 373.917 318.781V318.793Z" fill="#0b1b3b" class="tblr-illustrations tblr-illustrations-vocate tblr-illustrations-detective-c"/>
    <path d="M449.955 307.672L445.408 277.842L443.774 267.177C443.276 264.407 440.742 262.585 437.972 263.082L429.481 264.36C426.711 264.857 424.887 267.39 425.005 270.125L426.64 280.79L431.187 310.619C431.684 313.389 434.396 315.413 437.166 314.928L445.657 313.65C448.262 312.939 450.286 310.229 449.967 307.672H449.955Z" fill="#0b1b3b" class="tblr-illustrations tblr-illustrations-vocate tblr-illustrations-detective-c"/>
    <path d="M445.738 313.664L437.388 314.926C434.663 315.416 431.996 313.419 431.507 310.686L427.047 281.257L427 281C431.67 283.99 438.238 286.641 446.762 286.629L449.965 307.79C450.291 310.313 448.3 312.987 445.738 313.676V313.664Z" fill="black" opacity="0.15"/>
    <path d="M369.99 324.663L361.501 325.925C358.731 326.42 356.02 324.403 355.534 321.643L351 292C355.653 295.02 362.2 297.721 370.748 297.827L373.921 318.682C374.406 321.442 372.607 323.979 369.99 324.686V324.663Z" fill="black" opacity="0.15"/>
    <path d="M439.815 318.329C441.501 318.06 443.139 317.909 444.825 318.06C445.815 318.119 446.758 318.305 447.713 318.492C456.317 320.323 462.257 327.253 460.772 333.891C459.511 339.899 452.722 343.55 445.143 342.932C444.153 342.874 443.328 342.734 442.385 342.547C441.442 342.36 440.664 342.092 439.768 341.777C432.555 339.281 427.946 333.098 429.207 327.101C430.351 322.633 434.547 319.367 439.827 318.329H439.815Z" fill="#FFCB9D" style="fill: #FFCB9D; fill: var(--tblr-illustrations-skin, #FFCB9D);"/>
    <path d="M439.72 318.33C441.39 318.06 443.014 317.908 444.685 318.06C444.217 326.37 444.311 334.726 445 343C444.019 342.941 443.201 342.801 442.266 342.614C441.332 342.427 440.561 342.157 439.673 341.841C432.523 339.337 427.956 333.134 429.206 327.119C430.339 322.636 434.498 319.359 439.731 318.318L439.72 318.33Z" fill="black" opacity="0.1"/>
    <path d="M421.349 203.609C420.403 202.853 418.756 201.677 416.501 200.723C395.962 192.134 357.269 216.831 349.465 248.697C347.116 258.264 347.852 267.284 349.838 275.733C361.708 326.14 418.534 356.121 434.516 364C434.913 354.398 436.327 342.725 439.948 329.876C441.747 323.486 443.839 317.714 446 312.569C438.979 312.313 417.4 310.579 401.278 293.994C395.775 288.326 384.595 276.851 386.791 261.651C388.532 249.582 397.586 242.145 400.519 239.933C407.47 227.829 414.421 215.725 421.373 203.621L421.349 203.609Z" fill="#1a3263" style="fill: #1a3263; fill: var(--tblr-illustrations-primary, var(--tblr-primary, #1a3263));"/>
    <path d="M458.986 188.517C459.066 189.964 458.815 191.516 457.787 192.605C457.251 193.172 456.6 193.543 455.869 193.74C455.584 193.832 455.298 193.89 455.002 193.925C453.289 194.168 451.428 193.763 450.321 193.531C440.148 191.319 431.174 180.074 433.32 174.156C433.469 173.763 433.743 173.137 434.199 172.489C434.805 171.62 435.706 170.729 437.008 170.277C438.823 169.652 440.525 170.242 441.221 170.52C438.447 172.014 438.218 173.682 438.184 173.994C437.921 176.739 441.94 179.437 445.388 180.063C447.854 180.491 448.208 179.565 450.72 179.97C451.165 180.051 456.44 181.001 458.278 185.506C458.609 186.293 458.906 187.382 458.986 188.505V188.517Z" fill="#0b1b3b" class="tblr-illustrations tblr-illustrations-vocate tblr-illustrations-detective-c"/>
    <path d="M483 204.135C482.919 206.529 481.135 208.213 480.37 208.798C480.243 208.878 480.138 208.969 479.999 209.038C474.716 212.303 461.81 206.919 456.839 197.984C456.272 196.976 455.345 195.315 455.078 193.596C454.951 192.852 454.974 192.096 455.183 191.385C455.264 191.099 455.391 190.824 455.53 190.549C456.283 189.255 457.674 188.567 459.11 188.235C460.199 187.994 461.323 187.949 462.18 188.052C467.035 188.544 469.503 193.344 469.688 193.745C470.812 196.025 470.012 196.632 471.171 198.877C472.77 202.016 476.535 205.109 479.072 204.067C479.374 203.94 480.891 203.265 481.517 200.172C481.992 200.767 483.07 202.222 482.988 204.147L483 204.135Z" fill="#0b1b3b" class="tblr-illustrations tblr-illustrations-vocate tblr-illustrations-detective-c"/>
    <path d="M525.996 160L521.427 157.976L496.498 146.886L476.163 137.855L475.485 137.562L467 133.795C467 133.795 467.993 132.895 469.63 131.421C476.934 124.776 497.036 106.62 497.363 107.006C497.737 107.451 506.549 124.226 506.549 124.226C506.549 124.226 524.898 119.523 525.482 119.488C526.078 119.477 525.996 160 525.996 160Z" fill="#A6A9B3"/>
    <path d="M537 180.988C536.686 180.862 532.216 178.906 525.348 175.881C506.105 167.461 468.075 150.781 450.008 142.844C443.944 140.175 440.125 138.507 440.009 138.461C439.741 138.346 445.469 137.989 451.347 137.644C457.354 137.311 463.5 137 463.5 137C463.5 137 524.905 163.929 525.464 164.171C525.639 164.251 526.872 165.965 528.444 168.289C531.785 173.12 536.709 180.563 537 181V180.988Z" fill="#A6A9B3"/>
    <path d="M466.888 134L463 137.037L525.344 164L526 159.571L466.888 134Z" fill="#1a3263" style="fill: #1a3263; fill: var(--tblr-illustrations-primary, var(--tblr-primary, #1a3263));"/>
    <path d="M595 236C579.08 268.572 553.691 291.065 527.371 293.696C516.307 294.789 498.232 293.086 480.262 286.085C478.795 285.521 477.363 284.91 476 284.311C477.246 284.464 540.054 291.312 595 236Z" fill="black" opacity="0.1"/>
    <path d="M506.19 123.783L491 144.538L526 160L525.476 119L506.19 123.783Z" fill="black" opacity="0.1"/>
    <path d="M440 138.012C441.257 138.57 525.451 163.988 525.451 163.988L537 181L440 138V138.012Z" fill="black" opacity="0.1"/>
    <path d="M506.988 178.099C505.575 178.768 503.525 179.641 500.988 180.469L500.964 180.412C500.744 180.469 500.536 180.503 500.327 180.56C496.006 181.535 491.743 182 487.677 182H487.283C474.169 181.898 462.978 176.874 457.649 168.234C455.216 164.231 454 159.672 454 155C455.923 158.697 458.356 162.201 461.264 165.297C477.494 181.909 502.679 178.496 507 178.11L506.988 178.099Z" fill="black" opacity="0.5"/>
    <path d="M480 209.028C474.745 212.327 461.906 206.887 456.961 197.858C456.397 196.84 455.475 195.161 455.209 193.425C453.481 193.668 451.602 193.263 450.484 193.032C440.215 190.821 431.157 179.582 433.323 173.667C433.473 173.273 433.75 172.648 434.211 172C435.052 176.792 438.832 189.2 455.313 191.18C455.313 191.18 455.521 191.967 456.085 193.228C457.976 197.476 463.98 207.026 480 209.017V209.028Z" fill="black" opacity="0.5"/>
</svg>
