<svg xmlns="http://www.w3.org/2000/svg" width="800" height="600" fill="none" viewBox="0 0 800 600">
    <style>
        :where(.theme-dark, [data-theme="dark"]) .tblr-illustrations-device-security-a { fill: black; opacity: 0.07; } :where(.theme-dark, [data-theme="dark"]) .tblr-illustrations-device-security-b { fill: #0b1b3b; } :where(.theme-dark, [data-theme="dark"]) .tblr-illustrations-device-security-c { fill: #24304d; }
        @media (prefers-color-scheme: dark) { .tblr-illustrations-device-security-a { fill: black; opacity: 0.07; } .tblr-illustrations-device-security-b { fill: #0b1b3b; } .tblr-illustrations-device-security-c { fill: #24304d; } }
    </style>
    <path d="M106.652 307C106.652 354.186 156.563 388.464 178.651 426.615C201.311 466.056 206.905 526.007 246.203 548.811C284.353 570.898 338.711 546.229 385.897 546.229C433.083 546.229 487.44 570.898 525.59 548.811C564.888 526.15 570.338 465.913 593.143 426.615C615.23 388.464 665.141 354.33 665.141 307C665.141 259.671 615.086 225.536 593.143 187.385C570.482 147.944 564.888 87.85 525.59 65.1892C487.44 43.102 433.083 67.7708 385.897 67.7708C338.711 67.7708 284.353 43.102 246.203 65.1892C206.761 87.85 201.455 148.088 178.651 187.385C156.563 225.679 106.652 259.814 106.652 307Z" fill="#1a3263" style="fill: #1a3263; fill: var(--tblr-illustrations-primary, var(--tblr-primary, #1a3263));" opacity="0.02" class="tblr-illustrations tblr-illustrations-vocate tblr-illustrations-device-security-a"/>
    <path d="M209.348 185.377C209.348 262.539 209.348 339.557 209.348 416.718C209.348 423.603 214.941 429.34 221.969 429.34H591.713C598.597 429.34 604.334 423.746 604.334 416.718V197.425C604.334 190.541 598.741 184.804 591.713 184.804H300.134C270.016 184.947 239.753 185.234 209.635 185.377H209.348Z" fill="white" class="tblr-illustrations tblr-illustrations-vocate tblr-illustrations-device-security-b"/>
    <path d="M604.762 425.324L600.316 430.2L600.029 430.487L572.062 461.18C570.914 462.471 569.337 463.188 568.046 463.188H174.207C171.625 463.188 171.195 460.606 173.346 458.311L206.047 422.312C206.19 422.169 206.477 421.882 206.62 421.738C207.624 420.878 208.915 420.304 210.062 420.304H603.902C606.483 420.304 606.913 422.886 604.905 425.181L604.762 425.324Z" fill="#0b1b3b" class="tblr-illustrations tblr-illustrations-vocate tblr-illustrations-device-security-c"/>
    <path d="M381.309 327.653H246.635C244.021 327.653 241.902 329.772 241.902 332.386V340.417C241.902 343.031 244.021 345.15 246.635 345.15H381.309C383.923 345.15 386.042 343.031 386.042 340.417V332.386C386.042 329.772 383.923 327.653 381.309 327.653Z" fill="#A6A9B3"/>
    <path d="M429.788 224.532V298.538C429.788 302.124 426.776 305.136 423.191 305.136H248.215C244.629 305.136 241.617 302.124 241.617 298.538V261.392C241.617 257.519 244.773 254.507 248.502 254.507H259.975C272.023 254.507 281.919 244.755 281.919 232.564V224.819C281.919 220.946 285.074 217.935 288.803 217.935H423.191C426.776 217.935 429.788 220.946 429.788 224.532Z" fill="#DADCE0"/>
    <path d="M221.39 425.611H513.112V432.782H221.39C212.498 432.782 205.184 425.611 205.184 416.575V254.507H212.355V416.575C212.355 421.452 216.371 425.467 221.247 425.467L221.39 425.611Z" fill="#0b1b3b" class="tblr-illustrations tblr-illustrations-vocate tblr-illustrations-device-security-c"/>
    <path d="M600.029 356.911V197.282C600.029 195.991 599.742 194.7 599.168 193.553C597.734 190.541 594.579 188.389 590.993 188.389H281.773V181.218H590.993C598.164 181.218 604.188 185.808 606.339 192.262C606.913 193.839 607.2 195.561 607.2 197.425C607.2 237.87 607.487 278.316 607.487 318.761C607.487 332.386 607.487 346.011 607.487 359.78C604.905 358.919 602.324 357.915 599.742 357.055L600.029 356.911Z" fill="#0b1b3b" class="tblr-illustrations tblr-illustrations-vocate tblr-illustrations-device-security-c"/>
    <path d="M415.587 277.455C412.289 278.459 409.133 279.32 406.121 280.324C377.007 290.22 367.971 302.124 365.389 311.733C363.812 317.614 361.517 334.394 364.385 353.326C365.676 361.931 367.827 368.672 363.812 373.835C359.796 378.999 350.617 381.293 344.593 378.712C329.39 372.258 326.522 332.673 336.848 304.419C347.175 276.595 370.122 260.388 386.616 251.926C393.787 248.197 399.667 246.046 402.966 244.755C407.125 255.655 411.285 266.555 415.444 277.455H415.587Z" fill="#FFCB9D" style="fill: #FFCB9D; fill: var(--tblr-illustrations-skin, #FFCB9D);"/>
    <path d="M415.586 277.455C412.287 278.459 409.132 279.32 406.12 280.324C403.682 266.555 394.789 257.376 386.758 251.782C393.929 248.053 399.809 245.902 403.108 244.611C407.267 255.511 411.427 266.412 415.586 277.312V277.455Z" fill="black" opacity="0.1"/>
    <path d="M539.935 420.448H467.506L449.291 408.113C448.144 412.273 446.853 416.288 445.706 420.448H394.504C396.799 404.097 398.95 387.747 401.245 371.254C401.532 368.529 401.962 365.947 402.392 363.222C403.109 363.939 462.056 351.461 478.406 347.159C480.414 346.585 481.705 346.298 482.279 346.011C484.43 348.736 486.581 351.461 488.733 354.186C493.035 359.78 497.338 365.23 501.784 370.823L540.365 420.304L539.935 420.448Z" fill="#DADCE0"/>
    <path d="M611.216 278.316C601.176 275.304 591.137 272.149 581.097 268.993C581.384 262.109 577.225 255.942 571.201 253.79C564.317 251.352 556.428 254.221 552.556 260.962C546.532 278.889 537.783 299.973 524.445 322.49C519.282 331.239 518.421 331.095 516.557 335.111C511.394 346.155 511.537 357.485 513.115 366.521C513.402 368.098 513.688 369.533 513.975 370.823C494.039 370.967 473.96 371.11 453.738 371.254C433.228 371.254 412.862 371.254 392.496 371.254C401.388 354.617 410.281 335.828 418.599 314.889C424.479 300.259 429.212 286.204 433.372 273.009C426.057 279.32 418.599 285.487 411.284 291.797C411.858 285.487 412.002 275.734 408.99 264.26C405.834 252.356 400.528 243.607 396.799 238.301C402.536 235.576 424.91 225.249 435.38 223.672C435.953 223.672 439.826 223.098 444.845 222.381C448.718 221.951 451.73 221.52 455.172 221.233C455.172 221.233 461.482 220.66 468.654 220.516C488.159 219.943 495.617 224.532 513.258 222.237C524.875 220.66 543.377 215.783 543.664 215.64C543.664 215.64 543.951 215.64 544.381 215.496C544.381 215.496 544.668 215.496 544.811 215.496C569.05 210.764 593.575 246.332 611.073 278.459L611.216 278.316Z" fill="#1a3263" style="fill: #1a3263; fill: var(--tblr-illustrations-primary, var(--tblr-primary, #1a3263));"/>
    <path d="M542.373 216.07C533.767 221.951 515.122 232.42 491.458 230.986C476.829 230.126 470.948 225.536 468.797 220.373C495.187 217.504 513.401 222.954 542.229 215.927L542.373 216.07Z" fill="#FFCB9D" style="fill: #FFCB9D; fill: var(--tblr-illustrations-skin, #FFCB9D);"/>
    <path d="M514.116 370.823C494.18 370.967 474.101 371.11 453.878 371.253C433.369 371.253 413.003 371.253 392.637 371.253C401.529 354.616 410.421 335.828 418.74 314.888C424.62 300.259 429.353 286.204 433.512 273.009C433.512 273.009 439.249 338.696 513.255 366.521C513.542 368.098 513.829 369.532 514.116 370.823Z" fill="black" opacity="0.1"/>
    <path d="M542.373 216.07C533.767 221.951 515.122 232.42 491.458 230.986C476.829 230.126 470.948 225.536 468.797 220.373C495.187 217.504 513.401 222.954 542.229 215.927L542.373 216.07Z" fill="black" opacity="0.1"/>
    <path d="M539.928 420.448H467.5L449.285 408.113L458.321 371.254L484.137 371.11H488.87L501.348 370.967L539.928 420.448Z" fill="black" opacity="0.1"/>
    <path d="M485.432 138.909C485.002 143.355 484.428 150.096 483.855 158.127C483.855 159.849 483.855 161.57 483.855 162C483.568 171.035 484.428 179.928 486.436 188.677C487.01 190.398 487.297 192.119 487.727 193.553C489.735 199.577 509.671 209.329 528.029 210.047C546.53 210.764 555.566 193.983 548.682 185.378C546.387 181.936 544.666 178.063 543.805 174.047C542.371 168.597 541.367 163.147 540.65 157.697C540.22 154.398 540.076 152.391 540.076 152.391L527.599 138.048L493.464 133.172C493.177 138.909 491.026 142.781 489.018 142.925C487.01 143.068 485.719 139.769 485.432 138.765V138.909Z" fill="#FFCB9D" style="fill: #FFCB9D; fill: var(--tblr-illustrations-skin, #FFCB9D);"/>
    <path d="M485.432 138.909C485.002 143.355 484.428 150.096 483.855 158.127C483.855 159.848 483.855 161.569 483.855 162C483.568 171.035 484.428 179.928 486.436 188.676C488.731 188.246 490.882 187.386 493.034 186.238C495.185 184.947 497.193 183.226 498.627 181.075C500.205 178.78 501.352 176.342 502.069 173.76C502.643 172.039 503.217 170.318 503.647 168.597C516.125 174.908 530.324 176.772 544.092 173.904C542.658 168.454 541.654 163.004 540.937 157.554C540.507 154.255 540.363 152.247 540.363 152.247L527.885 137.905L493.751 133.028C493.32 138.765 491.313 142.638 489.305 142.781C487.297 142.925 486.149 139.913 485.862 138.909H485.432Z" fill="black" opacity="0.1"/>
    <path d="M479.122 144.072C477.974 149.952 474.389 150.669 475.106 154.398C475.966 158.414 481.99 161.569 484.858 164.581C485.576 165.298 486.149 166.015 486.723 166.733C487.01 167.019 487.153 167.45 487.44 167.88C489.448 171.179 490.595 174.908 490.882 178.637C492.747 176.916 494.038 174.621 494.611 172.039C494.898 168.023 495.041 164.007 494.611 159.848C494.611 159.705 494.611 159.561 494.611 159.418V157.84C494.755 155.976 495.041 154.111 495.472 152.247C495.472 152.103 496.763 152.82 496.763 152.82C499.201 154.111 503.647 156.406 508.954 158.844C522.005 164.725 540.507 171.179 548.538 163.864C549.829 162.717 550.833 161.426 551.693 159.992C552.697 158.414 553.271 156.406 553.271 154.542C552.841 147.37 542.658 144.645 543.232 138.191C543.518 133.889 548.251 133.172 547.821 129.156C547.391 125.283 542.371 121.267 537.638 120.694C534.053 120.407 533.622 122.271 530.324 121.985C524.587 121.411 524.156 115.387 518.419 114.527C514.834 114.383 511.105 115.244 508.093 117.108C505.511 118.686 504.938 119.833 502.069 120.837C499.918 121.411 497.766 121.698 495.472 121.554C490.739 121.267 490.022 119.69 487.44 119.69C482.994 120.263 478.978 124.853 477.687 129.443C476.253 135.466 480.269 137.474 479.122 143.928V144.072Z" fill="#0b1b3b" class="tblr-illustrations tblr-illustrations-vocate tblr-illustrations-device-security-c"/>
    <path d="M491.887 145.363C492.317 147.801 493.464 150.239 495.329 151.96L496.763 152.964C499.201 154.255 503.647 156.55 508.954 158.988C522.006 164.868 540.507 171.322 548.539 164.008C549.83 162.86 550.834 161.569 551.694 160.135C547.105 160.709 542.515 160.996 537.926 160.852C516.842 160.135 500.779 151.243 491.887 145.219V145.363Z" fill="black" opacity="0.5"/>
    <path d="M247.067 125.14H172.487C160.368 125.14 150.543 134.965 150.543 147.084V219.656C150.543 231.775 160.368 241.599 172.487 241.599H247.067C259.186 241.599 269.01 231.775 269.01 219.656V147.084C269.01 134.965 259.186 125.14 247.067 125.14Z" fill="#1a3263" style="fill: #1a3263; fill: var(--tblr-illustrations-primary, var(--tblr-primary, #1a3263));"/>
    <path d="M180.086 118.112H170.047V92.8698C170.047 84.121 178.079 77.0933 187.831 77.0933H231.575C241.471 77.0933 249.36 84.121 249.36 92.8698V117.969H239.32V92.8698C239.32 89.7145 235.735 87.1329 231.432 87.1329H187.688C183.385 87.1329 179.8 89.7145 179.8 92.8698V118.112H180.086Z" fill="#1a3263" style="fill: #1a3263; fill: var(--tblr-illustrations-primary, var(--tblr-primary, #1a3263));"/>
    <path d="M216.804 186.238C224.262 183.37 229.569 176.199 229.569 167.737C229.569 159.275 220.677 147.944 209.777 147.944C198.877 147.944 189.984 156.837 189.984 167.737C189.984 178.637 195.291 183.37 202.749 186.238L193.857 206.604C192.423 209.903 194.574 213.775 197.729 213.775H221.968C225.123 213.775 227.274 209.903 225.84 206.604L216.948 186.238H216.804Z" fill="white"/>
    <path d="M600.171 430.2L599.884 430.487L571.916 461.18C570.769 462.471 569.191 463.188 567.9 463.188H445.561C409.418 447.555 391.204 430.487 383.172 420.448H592.426C595.007 423.746 597.732 427.045 600.314 430.2H600.171Z" fill="black" opacity="0.3"/>
    <path d="M598.309 234.572L480.702 274.013C472.24 276.881 467.65 286.06 470.519 294.666L512.398 419.587C514.12 424.607 518.279 428.623 523.442 430.057L595.727 450.566C602.181 452.431 609.065 450.136 613.225 444.686L658.403 384.592C661.558 380.289 662.562 374.696 660.841 369.532L618.962 244.611C616.093 236.149 606.914 231.56 598.309 234.428V234.572ZM640.332 374.409L602.755 424.177C600.173 427.619 595.727 429.053 591.711 427.906L531.617 410.838C528.318 409.978 525.737 407.396 524.589 404.241L489.738 300.69C488.877 298.108 489.021 295.239 490.311 292.801C491.459 290.65 493.18 288.929 495.475 287.925C495.761 287.925 496.048 287.638 496.335 287.638L593.863 254.938C596.444 254.077 599.313 254.221 601.751 255.511C604.189 256.802 606.054 258.81 606.914 261.535L641.766 365.23C642.913 368.529 642.196 371.971 640.188 374.696L640.332 374.409Z" fill="#A6A9B3"/>
    <path d="M607.054 261.248L641.905 364.943C643.053 368.241 642.336 371.684 640.328 374.409L602.751 424.176C600.169 427.619 595.723 429.053 591.707 427.905L531.613 410.838C528.315 409.977 525.733 407.396 524.586 404.241L489.734 300.689C488.873 298.108 489.017 295.239 490.308 292.801C491.455 290.65 493.176 288.929 495.471 287.925C495.758 287.925 496.044 287.638 496.331 287.638L593.859 254.937C596.44 254.077 599.309 254.22 601.747 255.511C604.185 256.802 606.05 258.81 606.91 261.535L607.054 261.248Z" fill="#DADCE0"/>
    <path d="M587.265 299.686L568.19 351.174C567.76 352.322 566.469 352.896 565.322 352.465L542.948 344.147C540.079 343.143 536.924 344.577 535.777 347.445L532.765 355.477C531.761 358.346 533.195 361.501 536.063 362.648L573.784 376.704C576.652 377.708 579.807 376.273 580.955 373.405L605.767 306.713C606.771 303.845 605.337 300.69 602.468 299.542L594.437 296.53C591.568 295.526 588.413 296.961 587.265 299.829V299.686Z" fill="#1a3263" style="fill: #1a3263; fill: var(--tblr-illustrations-primary, var(--tblr-primary, #1a3263));"/>
    <path d="M648.361 362.792L613.509 259.241C612.075 254.938 609.063 251.353 604.904 249.345C602.466 248.197 600.028 247.624 597.303 247.624C594.578 247.624 593.574 247.91 591.853 248.484L494.325 281.184C490.022 282.619 486.437 285.631 484.429 289.79C482.421 293.806 482.134 298.539 483.568 302.841L518.42 406.393C520.141 411.699 524.587 415.859 529.894 417.436L589.988 434.503C591.422 434.934 593 435.077 594.578 435.077C596.872 435.077 599.311 434.647 601.462 433.643C604.187 432.496 606.482 430.631 608.203 428.336L645.779 378.569C649.222 374.122 650.082 368.242 648.361 362.792ZM490.883 292.945C491.887 290.794 493.608 289.216 495.759 288.212C496.046 288.212 496.333 287.925 496.62 287.925L594.147 255.225C595.151 254.938 596.299 254.651 597.303 254.651C598.88 254.651 600.314 254.938 601.749 255.655C604.187 256.803 605.908 258.811 606.769 261.392L641.477 364.943C642.481 368.099 641.907 371.397 640.043 374.122L602.466 423.89C600.601 426.328 597.589 427.906 594.434 427.906C591.279 427.906 592.57 427.906 591.709 427.476L531.758 410.408C528.603 409.548 526.165 407.11 525.017 403.954L490.166 300.403C489.305 297.822 489.449 295.24 490.739 292.802L490.883 292.945Z" fill="white"/>
</svg>
