<svg xmlns="http://www.w3.org/2000/svg" width="800" height="600" fill="none" viewBox="0 0 800 600">
    <style>
        :where(.theme-dark, [data-theme="dark"]) .tblr-illustrations-download-a { fill: black; opacity: 0.07; } :where(.theme-dark, [data-theme="dark"]) .tblr-illustrations-download-b { fill: black; opacity: 0.3; } :where(.theme-dark, [data-theme="dark"]) .tblr-illustrations-download-c { fill: #24304d; }
        @media (prefers-color-scheme: dark) { .tblr-illustrations-download-a { fill: black; opacity: 0.07; } .tblr-illustrations-download-b { fill: black; opacity: 0.3; } .tblr-illustrations-download-c { fill: #24304d; } }
    </style>
    <path d="M159.32 309.98C159.32 345.85 197.31 371.97 214.1 400.99C231.42 430.93 235.59 476.67 265.52 493.99C294.53 510.78 335.84 492 371.77 492C407.7 492 449.01 510.84 477.98 493.99C507.92 476.67 512.08 430.9 529.4 400.99C546.19 371.97 584.19 345.91 584.19 309.98C584.19 274.05 546.19 247.98 529.4 218.97C512.08 189.03 507.91 143.28 477.98 125.96C448.97 109.17 407.67 127.95 371.73 127.95C335.79 127.95 294.53 109.17 265.52 125.96C235.58 143.28 231.42 189.05 214.1 218.97C197.31 247.98 159.32 274.04 159.32 309.98Z" fill="#1a3263" style="fill: #1a3263; fill: var(--tblr-illustrations-primary, var(--tblr-primary, #1a3263));" opacity="0.02" class="tblr-illustrations tblr-illustrations-vocate tblr-illustrations-download-a"/>
    <path d="M253.63 354.48H338.14V367.73H253.63C249.97 367.73 247 364.76 247 361.1C247 357.44 249.97 354.47 253.63 354.47V354.48Z" fill="#1a3263" style="fill: #1a3263; fill: var(--tblr-illustrations-primary, var(--tblr-primary, #1a3263));"/>
    <path d="M358.478 354.48H338.148V367.73H358.478C362.138 367.73 365.108 364.76 365.108 361.1C365.108 357.44 362.138 354.47 358.478 354.47V354.48Z" fill="#DADCE0"/>
    <path d="M278.411 303.77L303.961 338.77C305.001 340.19 307.111 340.19 308.151 338.77L333.701 303.77C334.951 302.06 333.731 299.65 331.611 299.65H320.881C319.451 299.65 318.291 298.49 318.291 297.06V267.24C318.291 265.81 317.131 264.65 315.701 264.65H296.441C295.011 264.65 293.851 265.81 293.851 267.24V297.06C293.851 298.49 292.691 299.65 291.261 299.65H280.531C278.411 299.65 277.191 302.06 278.441 303.77H278.411Z" fill="#1a3263" style="fill: #1a3263; fill: var(--tblr-illustrations-primary, var(--tblr-primary, #1a3263));"/>
    <path d="M373.331 440.81C485.737 440.81 576.861 439.413 576.861 437.69C576.861 435.967 485.737 434.57 373.331 434.57C260.924 434.57 169.801 435.967 169.801 437.69C169.801 439.413 260.924 440.81 373.331 440.81Z" fill="#d9e2f3" opacity="0.5" class="tblr-illustrations tblr-illustrations-vocate tblr-illustrations-download-b"/>
    <path d="M502.319 222.28H236.109C225.579 222.31 217.059 230.84 217.039 241.37V393.6C217.019 404.15 225.559 412.71 236.109 412.73H333.339V419.21C332.329 426.27 327.569 428.3 324.249 428.77H287.149C285.729 428.77 284.569 429.92 284.569 431.35C284.569 431.35 284.569 431.36 284.569 431.37V435.13C284.569 436.55 285.719 437.71 287.149 437.71H451.259C452.679 437.71 453.839 436.56 453.849 435.13V431.37C453.849 429.94 452.689 428.78 451.259 428.78H414.099C410.799 428.26 406.009 426.27 405.009 419.18V412.74H502.299C512.829 412.74 521.369 404.2 521.389 393.67V364.92H514.119V393.61C514.119 400.13 508.829 405.42 502.299 405.43H236.089C229.569 405.43 224.279 400.14 224.269 393.61V241.38C224.269 234.86 229.559 229.57 236.089 229.56H502.299C508.819 229.56 514.109 234.85 514.119 241.38V370.64H521.389V241.38C521.369 230.85 512.839 222.31 502.299 222.29L502.319 222.28Z" fill="#0b1b3b" class="tblr-illustrations tblr-illustrations-vocate tblr-illustrations-download-c"/>
    <path d="M297.689 132.43L291.499 164.9C291.189 166.51 292.249 168.07 293.859 168.38L333.039 175.85C334.649 176.16 336.209 175.1 336.519 173.49L346.419 121.57C346.729 119.96 345.669 118.4 344.059 118.09L324.329 114.33L297.699 132.43H297.689Z" fill="#DADCE0"/>
    <path d="M297.691 132.43L316.221 135.96C318.411 136.38 320.531 134.93 320.931 132.74L324.321 114.33L297.691 132.43Z" fill="#A6A9B3"/>
    <path d="M307.587 147.5L331.8 152.119C332.972 152.342 334.103 151.574 334.327 150.402C334.55 149.23 333.781 148.099 332.61 147.875L308.396 143.257C307.224 143.033 306.093 143.802 305.87 144.974C305.646 146.145 306.415 147.276 307.587 147.5Z" fill="#0b1b3b" class="tblr-illustrations tblr-illustrations-vocate tblr-illustrations-download-c"/>
    <path d="M306.005 155.793L330.218 160.412C331.39 160.636 332.521 159.867 332.745 158.695C332.968 157.523 332.199 156.392 331.028 156.169L306.814 151.55C305.642 151.326 304.511 152.095 304.288 153.267C304.064 154.439 304.833 155.57 306.005 155.793Z" fill="#A6A9B3"/>
    <path d="M546.352 190.68L561.992 234.85C562.772 237.04 565.172 238.19 567.372 237.41L620.662 218.54C622.852 217.76 624.002 215.36 623.222 213.16L598.222 142.54C597.442 140.35 595.042 139.2 592.842 139.98L566.002 149.48L546.352 190.67V190.68Z" fill="#A6A9B3"/>
    <path d="M546.352 190.68L571.562 181.76C574.542 180.7 576.092 177.42 575.022 174.45L566.012 149.49L546.362 190.68H546.352Z" fill="#DADCE0"/>
    <path d="M569.238 202.112L602.174 190.449C603.767 189.885 604.601 188.136 604.037 186.543L604.034 186.534C603.47 184.941 601.721 184.107 600.128 184.671L567.192 196.334C565.599 196.898 564.765 198.647 565.329 200.24L565.332 200.249C565.896 201.842 567.645 202.677 569.238 202.112Z" fill="#DADCE0"/>
    <path d="M573.238 213.405L606.174 201.742C607.767 201.178 608.601 199.429 608.037 197.836L608.034 197.827C607.47 196.233 605.721 195.399 604.128 195.964L571.192 207.627C569.599 208.191 568.765 209.94 569.329 211.533L569.332 211.542C569.896 213.135 571.645 213.969 573.238 213.405Z" fill="white"/>
    <path d="M556.941 219.1C557.081 217.63 557.491 216.21 558.171 214.9C560.121 209.96 564.271 207.1 568.531 207.98C574.011 209.1 577.721 215.77 576.741 223.18C576.671 223.97 576.491 224.75 576.211 225.49C574.581 231.47 569.951 235.33 565.151 234.3C559.811 233.12 556.061 226.32 556.941 219.1Z" fill="#FFCB9D" style="fill: #FFCB9D; fill: var(--tblr-illustrations-skin, #FFCB9D);"/>
    <path d="M556.938 219.1C557.078 217.63 557.488 216.21 558.168 214.9C560.348 216.05 562.048 217.01 563.248 217.64C566.588 219.42 567.868 220.06 569.858 221.29C571.448 222.28 572.688 223.15 573.508 223.74L575.348 224.96L576.298 225.31C574.668 231.29 570.038 235.15 565.258 234.12C559.828 233.14 556.068 226.33 556.948 219.11L556.938 219.1Z" fill="black" opacity="0.1"/>
    <path d="M326.429 172.08C326.459 170.61 326.199 169.14 325.669 167.77C324.269 162.65 320.449 159.35 316.129 159.76C310.559 160.27 306.139 166.5 306.309 173.97C306.299 174.76 306.389 175.55 306.589 176.32C307.559 182.44 311.739 186.79 316.619 186.29C322.049 185.7 326.529 179.35 326.439 172.08H326.429Z" fill="#FFCB9D" style="fill: #FFCB9D; fill: var(--tblr-illustrations-skin, #FFCB9D);"/>
    <path d="M326.432 172.08C326.462 170.61 326.202 169.14 325.672 167.77C323.382 168.68 321.582 169.45 320.322 169.94C316.812 171.34 315.462 171.84 313.352 172.85C311.662 173.66 310.332 174.39 309.452 174.88L307.492 175.89L306.512 176.13C307.482 182.25 311.662 186.6 316.522 186.09C322.032 185.7 326.512 179.35 326.422 172.08H326.432Z" fill="black" opacity="0.1"/>
    <path d="M588.141 236.52C580.331 273.76 563.191 300.01 547.351 310.73C541.111 314.96 535.081 316.79 529.891 315.92C524.851 315.08 519.361 311.5 514.051 306.23C504.541 296.79 495.671 281.94 491.251 267.78C490.971 266.9 490.761 266.17 490.621 265.66C486.601 277.83 482.601 289.97 478.681 302.16C474.311 315.19 470.081 328.29 465.751 341.19C465.751 341.22 465.731 341.24 465.721 341.28L397.631 325.19C399.411 311.5 401.351 297.83 403.121 284.3C404.161 276.51 405.151 268.88 406.201 261.11L409.021 240.09V240.05C405.351 242.14 389.561 250.76 368.591 250.88C361.671 250.92 354.171 250.03 346.351 247.68C339.311 245.56 333.131 242.59 327.701 239.08C300.511 221.6 292.201 191.01 291.691 189.02C305.251 183.68 318.811 178.33 332.381 173C333.571 177.26 341.011 202.59 361.521 209.36C365.581 210.7 375.811 214.07 386.431 210.5C393.761 208.03 401.391 202.21 412.321 203.91C412.971 204.01 413.501 204.12 413.851 204.19C437.031 209.67 460.201 215.14 483.381 220.62C488.431 220.59 496.661 221.21 503.821 225.44H503.841C505.741 226.58 507.571 227.95 509.251 229.65C509.431 229.84 509.651 230.07 509.881 230.33C515.281 236.47 517.501 245.69 517.501 245.69C519.431 255.86 524.151 277.54 531.091 277.73C536.311 277.85 540.621 265.74 542.651 260.04C545.691 251.52 549.531 236.08 545.841 214.55C559.941 221.86 574.041 229.18 588.141 236.49V236.52Z" fill="#DADCE0"/>
    <path d="M538.341 438.3L511.831 436.75C511.831 436.75 510.521 429.94 514.451 427.38C518.381 424.82 533.631 432.15 538.341 438.31V438.3Z" fill="#0b1b3b" class="tblr-illustrations tblr-illustrations-vocate tblr-illustrations-download-c"/>
    <path d="M499.819 154.32C498.939 157.97 497.529 163.42 495.759 169.91C495.309 171.41 494.919 172.6 494.819 173.06C492.509 180.17 489.339 186.98 485.379 193.32C484.499 194.58 483.789 195.71 482.909 196.96C480.559 200.01 469.659 201.97 458.229 200.99C454.269 200.68 450.359 199.91 446.589 198.68C434.739 195.04 430.869 184.09 433.799 177.35C434.479 175.73 435.639 174.35 437.119 173.4C439.879 171.31 442.269 168.77 444.179 165.89C446.869 162.12 449.209 158.11 451.169 153.91C451.879 152.64 452.509 151.33 453.059 149.98L466.889 142.06L495.229 147.67C493.989 152.36 494.589 155.98 496.019 156.58C497.449 157.18 499.379 154.87 499.809 154.32H499.819Z" fill="#FFCB9D" style="fill: #FFCB9D; fill: var(--tblr-illustrations-skin, #FFCB9D);"/>
    <path d="M499.82 154.32C498.94 157.97 497.53 163.42 495.76 169.91C495.31 171.41 494.92 172.6 494.82 173.06C492.51 180.17 489.34 186.98 485.38 193.32C483.67 192.34 482.15 191.07 480.88 189.56C479.54 187.86 478.52 185.93 477.86 183.87C477.25 181.65 476.99 179.35 477.06 177.05C477.04 175.6 477.19 174.04 477.3 172.64C465.73 174.14 453.99 171.69 443.98 165.7C446.67 161.93 449.01 157.92 450.97 153.72C451.68 152.46 452.31 151.15 452.86 149.81L466.71 141.92L495.05 147.55C493.79 152.24 494.41 155.84 495.84 156.46C497.27 157.08 499.32 154.93 499.75 154.39L499.81 154.32H499.82Z" fill="black" opacity="0.1"/>
    <path d="M502.129 161.14C500.829 167.02 497.349 172.19 492.399 175.62C491.339 176.2 490.409 176.82 489.499 177.43C487.089 179.44 485.209 182.02 484.029 184.93C482.989 183.13 482.559 181.03 482.819 178.97C483.279 175.87 485.819 170.34 485.969 169.56L486.059 169.1C486.159 168.64 486.299 168.19 486.479 167.76C486.929 166.26 487.239 164.72 487.389 163.16L487.369 163.02C479.279 166.03 456.659 172.53 445.059 159.42C443.269 157.35 441.739 155.06 440.509 152.62C440.349 152.41 440.239 152.17 440.169 151.92C439.869 151.31 439.619 150.68 439.429 150.02L439.309 149.84C438.709 148.15 438.409 146.36 438.429 144.56L438.359 143.92C438.359 143.13 438.519 142.35 438.819 141.63C439.769 138.76 441.719 136.32 444.319 134.77C449.099 131.57 455.379 130.43 458.839 129.85C471.899 127.35 490.339 129.9 498.619 142.92C500.609 146.29 501.819 150.07 502.149 153.98C502.429 156.4 502.379 158.86 501.989 161.27L502.119 161.16L502.129 161.14Z" fill="#0b1b3b" class="tblr-illustrations tblr-illustrations-vocate tblr-illustrations-download-c"/>
    <path d="M487.429 163.01C479.339 166.02 456.719 172.52 445.119 159.41C443.329 157.34 441.799 155.05 440.569 152.61C440.409 152.4 440.299 152.16 440.229 151.91C439.929 151.3 439.679 150.67 439.489 150.01C439.509 149.93 439.459 149.85 439.389 149.83C439.389 149.83 439.379 149.83 439.369 149.83C438.769 148.14 438.469 146.35 438.489 144.55C441.129 148.31 444.339 151.64 448.009 154.41C466.199 167.88 489.669 160.28 493.399 159.12L493.749 159.08C491.729 160.43 489.549 161.76 487.379 163.05L487.419 163.01H487.429Z" fill="black" opacity="0.5"/>
    <path d="M409.011 240.11L406.191 261.13C405.141 268.9 404.151 276.53 403.111 284.31C401.351 297.84 399.411 311.51 397.621 325.2L465.721 341.29C465.721 341.29 465.741 341.23 465.751 341.19H465.741C410.731 308.81 409.041 241.2 409.011 240.1V240.11Z" fill="black" opacity="0.1"/>
    <path d="M450.512 211.62C454.092 217.27 459.422 221.85 465.752 224.46L466.472 224.75L478.172 218.76L450.512 211.62Z" fill="#FFCB9D" style="fill: #FFCB9D; fill: var(--tblr-illustrations-skin, #FFCB9D);"/>
    <path d="M463.879 222.08L482.609 213.39L485.579 218.15L471.149 232.78L463.879 222.08Z" fill="#1a3263" style="fill: #1a3263; fill: var(--tblr-illustrations-primary, var(--tblr-primary, #1a3263));"/>
    <path d="M463.011 221.76L440.971 201.42L434.281 205.57L447.131 230.99L463.011 221.76Z" fill="#1a3263" style="fill: #1a3263; fill: var(--tblr-illustrations-primary, var(--tblr-primary, #1a3263));"/>
    <path d="M463.879 222.08L482.609 213.39L485.579 218.15L471.149 232.78L463.879 222.08Z" fill="black" opacity="0.1"/>
    <path d="M527.36 336.65C525.94 363.48 524.52 390.31 523.11 417.14C520.18 417.59 517.25 418.03 514.33 418.48C506.97 401.18 499.61 383.89 492.25 366.61C477.98 362.44 463.7 358.27 449.43 354.09C439.88 370.71 430.35 387.82 420.86 405.41H383.43L397.63 325.21C409.56 327.99 425.47 330.33 444.1 329.3C445.76 329.21 447.4 329.09 449 328.95C451.33 328.75 453.59 328.5 455.78 328.22H455.8C461.28 327.51 466.34 326.58 470.95 325.54C477.03 326.72 483.11 327.9 489.19 329.09C501.96 331.59 514.67 334.11 527.36 336.65Z" fill="#1a3263" style="fill: #1a3263; fill: var(--tblr-illustrations-primary, var(--tblr-primary, #1a3263));"/>
    <path d="M527.362 336.65C525.942 363.48 524.532 390.32 523.112 417.14C520.182 417.59 517.262 418.03 514.332 418.48C506.972 401.19 499.622 383.89 492.252 366.61C477.972 362.44 463.702 358.27 449.422 354.1C451.092 349.48 452.692 344.22 453.972 338.38C454.752 334.82 455.342 331.42 455.772 328.23C460.832 327.34 465.882 326.44 470.942 325.55C477.022 326.72 483.092 327.91 489.182 329.1C501.952 331.6 514.662 334.12 527.352 336.66L527.362 336.65Z" fill="black" opacity="0.1"/>
    <path d="M453.858 431.36V435.11C453.848 436.53 452.688 437.69 451.268 437.69H287.148C285.728 437.69 284.578 436.53 284.578 435.11V431.34C284.578 429.92 285.718 428.76 287.148 428.76H324.248C327.578 428.3 332.318 426.27 333.338 419.21V412.72H405.018V419.16C406.028 426.25 410.808 428.25 414.108 428.76H451.268C452.698 428.76 453.858 429.93 453.858 431.36Z" fill="black" opacity="0.15"/>
    <path d="M368.589 250.9C364.369 251.67 355.929 252.63 346.019 249.6C336.919 246.82 330.809 241.96 327.699 239.1C331.609 238.19 338.509 237.14 346.749 238.91C358.289 241.39 365.639 247.94 368.589 250.89V250.9Z" fill="#0b1b3b" class="tblr-illustrations tblr-illustrations-vocate tblr-illustrations-download-c"/>
    <path d="M547.341 310.74C546.651 311.49 540.081 318.34 530.061 317.25C519.381 316.09 514.431 306.96 514.051 306.24C519.771 305.52 527.041 305.79 534.771 307.27C539.331 308.14 543.581 309.33 547.341 310.74Z" fill="#0b1b3b" class="tblr-illustrations tblr-illustrations-vocate tblr-illustrations-download-c"/>
</svg>
