<svg xmlns="http://www.w3.org/2000/svg" width="800" height="600" fill="none" viewBox="0 0 800 600">
    <style>
        :where(.theme-dark, [data-theme="dark"]) .tblr-illustrations-easter-eggs-a { fill: black; opacity: 0.07; } :where(.theme-dark, [data-theme="dark"]) .tblr-illustrations-easter-eggs-b { fill: black; opacity: 0.3; } :where(.theme-dark, [data-theme="dark"]) .tblr-illustrations-easter-eggs-c { fill: #24304d; }
        @media (prefers-color-scheme: dark) { .tblr-illustrations-easter-eggs-a { fill: black; opacity: 0.07; } .tblr-illustrations-easter-eggs-b { fill: black; opacity: 0.3; } .tblr-illustrations-easter-eggs-c { fill: #24304d; } }
    </style>
    <path d="M147.949 320.661C147.949 363.434 193.334 394.447 213.266 429.091C234.088 464.829 238.934 519.26 274.728 539.833C309.313 559.848 358.653 537.408 401.506 537.408C444.36 537.408 493.7 559.734 528.285 539.833C563.977 519.158 568.925 464.727 589.633 429.091C609.679 394.561 654.949 363.446 654.949 320.661C654.949 277.876 609.679 246.875 589.633 212.231C568.925 176.595 563.964 122.062 528.285 101.489C493.585 81.474 444.36 103.902 401.506 103.902C358.653 103.902 309.313 81.474 274.728 101.374C239.036 122.05 234.088 176.481 213.38 212.116C193.334 246.863 148.064 277.876 147.962 320.661" fill="#1a3263" style="fill: #1a3263; fill: var(--tblr-illustrations-primary, var(--tblr-primary, #1a3263));" opacity="0.02" class="tblr-illustrations tblr-illustrations-vocate tblr-illustrations-easter-eggs-a"/>
    <path d="M140.949 512.141C140.949 515.986 257.106 519.141 399.949 519.141C542.793 519.141 658.949 515.974 658.949 512.141C658.949 508.308 543.111 505.141 399.949 505.141C256.788 505.141 140.949 508.308 140.949 512.141Z" fill="#d9e2f3" opacity="0.5" class="tblr-illustrations tblr-illustrations-vocate tblr-illustrations-easter-eggs-b"/>
    <path d="M187.949 445.51C187.949 445.51 242.776 435.596 294.949 445.635C294.949 445.635 286.047 455.487 285.461 455.487C284.874 455.487 222.472 459.141 222.472 459.141L194.517 451.471L187.949 445.51Z" fill="#0b1b3b" class="tblr-illustrations tblr-illustrations-vocate tblr-illustrations-easter-eggs-c"/>
    <path d="M240.449 484.141C208.739 484.141 182.949 458.338 182.949 426.641C182.949 394.943 208.752 369.141 240.449 369.141C272.147 369.141 297.949 394.943 297.949 426.641C297.949 458.338 272.147 484.141 240.449 484.141ZM240.449 377.106C213.135 377.106 190.915 399.326 190.915 426.641C190.915 453.955 213.135 476.175 240.449 476.175C267.764 476.175 289.984 453.955 289.984 426.641C289.984 399.326 267.764 377.106 240.449 377.106Z" fill="#A6A9B3"/>
    <path d="M294.878 458.207L294.354 461.801L294.29 462.239V462.291L292.016 477.863C291.927 478.468 291.825 479.074 291.71 479.679C288.261 497.286 272.905 510.141 254.918 510.141H225.893C218.19 510.141 210.959 507.784 204.955 503.688C203.563 502.76 202.26 501.73 201.02 500.609C200.203 499.901 199.424 499.115 198.683 498.33C197.124 496.681 195.732 494.891 194.492 492.971C193.573 491.555 192.755 490.086 192.04 488.528C190.685 485.668 189.689 482.59 189.089 479.37C188.974 478.816 188.871 478.275 188.808 477.721L186.585 462.213L186.01 458.182C185.984 458.027 185.959 457.873 185.959 457.705C185.78 454.73 188.143 452.141 191.184 452.141H289.717C292.911 452.141 295.363 455 294.891 458.195L294.878 458.207Z" fill="#DADCE0"/>
    <path d="M290.949 480.141C287.53 497.481 272.308 510.141 254.477 510.141H225.705C218.069 510.141 210.901 507.82 204.949 503.786C226.136 500.234 268.344 492.039 290.949 480.141Z" fill="black" opacity="0.1"/>
    <path d="M297.949 449.522V457.715C297.949 459.817 296.448 461.629 294.373 462.019C281.915 464.41 267.077 466.386 250.305 466.965C247.175 467.078 243.993 467.141 240.736 467.141C219.764 467.153 201.427 464.863 186.525 462.019C184.451 461.616 182.949 459.804 182.949 457.715V449.522C182.949 446.867 185.303 444.828 187.963 445.181C203.475 447.219 221.202 448.616 240.736 448.604C260.053 448.591 277.576 447.194 292.935 445.181C295.595 444.828 297.949 446.854 297.949 449.522Z" fill="#1a3263" style="fill: #1a3263; fill: var(--tblr-illustrations-primary, var(--tblr-primary, #1a3263));"/>
    <path d="M177.949 403.138C177.949 403.138 191.682 403.678 208.949 388.258C208.949 388.258 187.927 381.075 177.949 403.138Z" fill="#0b1b3b" class="tblr-illustrations tblr-illustrations-vocate tblr-illustrations-easter-eggs-c"/>
    <path d="M208.936 388.304C205.476 388.242 197.958 388.555 190.058 392.987C184.143 396.305 180.504 400.524 178.583 403.141C175.798 395.028 173.012 386.927 170.226 378.814C169.157 375.721 171.307 372.454 174.614 372.141L204.039 374.031L208.949 388.304H208.936Z" fill="#1a3263" style="fill: #1a3263; fill: var(--tblr-illustrations-primary, var(--tblr-primary, #1a3263));"/>
    <path d="M204.339 378.273C204.169 378.345 188.949 379.581 188.949 379.581C188.949 379.581 204.924 381.25 204.693 381.142C204.461 381.034 190.861 385.141 190.861 385.141C190.861 385.141 205.764 384.264 205.934 384.204C206.105 384.144 204.741 378.141 204.741 378.141L204.352 378.273H204.339Z" fill="black" opacity="0.1"/>
    <path d="M255.949 377.204C255.949 377.204 245.366 385.983 221.949 383.788C221.949 383.788 234.145 365.138 255.949 377.204Z" fill="#0b1b3b" class="tblr-illustrations tblr-illustrations-vocate tblr-illustrations-easter-eggs-c"/>
    <path d="M221.966 383.141C224.734 381.033 231.036 376.804 240.237 375.606C247.125 374.708 252.739 375.881 255.949 376.816C253.103 368.733 250.257 360.662 247.411 352.579C246.319 349.498 242.525 348.188 239.64 349.897L216.949 368.908L221.966 383.128V383.141Z" fill="#1a3263" style="fill: #1a3263; fill: var(--tblr-illustrations-primary, var(--tblr-primary, #1a3263));"/>
    <path d="M219.356 373.008C219.534 372.956 232.954 364.141 232.954 364.141C232.954 364.141 220.779 375.95 220.906 375.703C221.033 375.455 234.949 370.169 234.949 370.169C234.949 370.169 222.025 379.088 221.847 379.14C221.669 379.192 218.949 373.138 218.949 373.138L219.356 372.995V373.008Z" fill="black" opacity="0.1"/>
    <path d="M212.647 387.129L212.949 412.656C212.962 413.973 211.399 414.638 210.48 413.704L206.435 409.586C205.919 409.049 205.074 409.011 204.507 409.484L200.312 412.937C199.19 413.858 197.565 412.72 198.031 411.326L206.46 386.132C206.687 385.454 207.355 385.045 208.048 385.16L211.412 385.697C212.105 385.812 212.622 386.413 212.634 387.129H212.647Z" fill="#1a3263" style="fill: #1a3263; fill: var(--tblr-illustrations-primary, var(--tblr-primary, #1a3263));"/>
    <path d="M218.248 386.007L233.259 406.548C234.027 407.6 235.677 407.177 235.84 405.868L236.596 400.082C236.697 399.338 237.326 398.786 238.069 398.811L243.459 398.965C244.907 399.004 245.512 397.092 244.303 396.271L222.554 381.389C221.975 380.991 221.194 381.081 220.703 381.594L218.348 384.108C217.857 384.622 217.819 385.43 218.235 386.007H218.248Z" fill="#1a3263" style="fill: #1a3263; fill: var(--tblr-illustrations-primary, var(--tblr-primary, #1a3263));"/>
    <path d="M214.387 367.643L203.714 371.254C201.665 371.947 200.566 374.17 201.259 376.219L204.869 386.892C205.563 388.941 207.786 390.04 209.835 389.347L220.508 385.736C222.557 385.043 223.656 382.82 222.963 380.771L219.352 370.098C218.659 368.049 216.436 366.95 214.387 367.643Z" fill="#DADCE0"/>
    <path d="M278.787 490.791L270.003 481.725L278.06 473.419C278.353 473.127 278.34 472.645 278.034 472.366C277.741 472.074 277.257 472.087 276.976 472.379L268.957 480.647L260.938 472.379C260.645 472.087 260.173 472.074 259.88 472.366C259.587 472.658 259.574 473.127 259.867 473.419L267.925 481.725L253.187 496.916L239.52 482.828L248.648 473.406C248.942 473.114 248.929 472.632 248.623 472.353C248.33 472.062 247.845 472.074 247.565 472.366L238.475 481.737L229.385 472.366C229.092 472.074 228.62 472.062 228.327 472.353C228.033 472.645 228.021 473.114 228.301 473.406L237.429 482.828L223.763 496.916L209.025 481.725L217.082 473.419C217.375 473.127 217.363 472.645 217.069 472.366C216.763 472.074 216.292 472.087 216.011 472.379L207.992 480.647L199.973 472.379C199.68 472.087 199.208 472.074 198.915 472.366C198.622 472.658 198.609 473.127 198.89 473.419L206.947 481.725L198.163 490.791C197.87 491.083 197.882 491.565 198.176 491.844C198.316 491.983 198.507 492.06 198.698 492.06C198.89 492.06 199.094 491.983 199.234 491.831L207.979 482.802L222.717 497.994L219.925 500.873C219.632 501.164 219.645 501.646 219.938 501.925C220.078 502.065 220.269 502.141 220.461 502.141C220.652 502.141 220.856 502.065 220.996 501.913L223.75 499.072L226.504 501.913C226.657 502.065 226.848 502.141 227.039 502.141C227.23 502.141 227.421 502.077 227.562 501.925C227.855 501.634 227.868 501.164 227.574 500.873L224.782 497.994L238.449 483.906L252.116 497.994L249.324 500.873C249.031 501.164 249.044 501.646 249.337 501.925C249.477 502.065 249.668 502.141 249.859 502.141C250.051 502.141 250.255 502.065 250.395 501.913L253.149 499.072L255.902 501.913C256.055 502.065 256.247 502.141 256.438 502.141C256.629 502.141 256.82 502.077 256.961 501.925C257.254 501.634 257.267 501.164 256.973 500.873L254.181 497.994L268.919 482.802L277.665 491.831C277.818 491.983 278.009 492.06 278.2 492.06C278.391 492.06 278.583 491.996 278.723 491.844C279.016 491.552 279.029 491.083 278.736 490.791H278.787Z" fill="#A6A9B3"/>
    <path d="M316.911 374.338C317.41 376.211 313.212 380.12 291.757 389.141C268.152 357.183 259.307 327.338 259.985 314.939C260.817 299.745 266.194 282.754 266.194 282.754C267.346 279.097 269.125 274.151 270.623 269.773C274.169 259.45 277.561 251.011 280.032 245.141C283.513 247.696 286.995 250.265 290.464 252.807C298.209 258.501 305.928 264.181 313.647 269.849C311.996 271.506 309.819 273.809 307.502 276.782C307.029 277.402 306.542 278.035 306.056 278.705C302.484 283.614 299.758 288.738 297.697 293.862C290.989 310.562 291.245 327.426 291.501 338.509C291.616 343.342 291.783 349.668 293.05 357.411C294.164 364.242 294.215 365.153 294.804 366.014C300.424 374.199 316.002 370.973 316.898 374.338H316.911Z" fill="#FFCB9D" style="fill: #FFCB9D; fill: var(--tblr-illustrations-skin, #FFCB9D);"/>
    <path d="M306.949 276.963C306.479 277.587 305.997 278.223 305.514 278.897C301.97 283.834 299.265 288.987 297.22 294.141C289.675 280.755 275.272 280.933 265.949 282.956C267.359 278.694 268.845 274.355 270.344 269.914C273.862 259.531 277.228 251.045 279.679 245.141C283.134 247.711 286.589 250.294 290.031 252.851L306.949 276.963Z" fill="black" opacity="0.1"/>
    <path d="M441.188 255.546C437.42 257.979 433.639 260.424 429.871 262.843C435.039 287.777 438.769 307.936 441.328 324.198C448.445 369.609 446.42 384.305 441.379 385.999C438.528 386.979 359 398.326 333.144 399.141C329.808 366.719 324.576 332.921 316.861 297.99C315.767 292.935 314.621 287.93 313.437 282.964C305.811 280.404 296.2 276.011 286.575 268.421C279.09 262.499 273.705 256.259 269.949 251.14C272.788 245.83 290.636 213.115 309.949 206.837C313.462 205.703 323.978 203.156 331.387 201.577C333.182 201.221 334.773 200.89 336.046 200.661C337.409 200.406 338.72 200.177 339.955 199.973C342.03 199.629 343.863 199.362 345.416 199.132C347.86 198.789 349.604 198.559 350.356 198.47C350.368 198.47 350.406 198.47 350.47 198.457C362.45 197.069 383.2 195.961 383.2 195.961C386.536 195.478 391.042 195.045 396.351 195.159C401.927 195.261 408.382 196 415.371 197.872C428.432 201.361 437.305 207.41 439.75 209.129C455.828 220.501 463.085 235.935 465.949 243.257C463.925 243.792 461.875 244.34 459.851 244.887C453.626 248.44 447.426 252.006 441.201 255.546H441.188Z" fill="#1a3263" style="fill: #1a3263; fill: var(--tblr-illustrations-primary, var(--tblr-primary, #1a3263));"/>
    <path d="M395.949 195.269C395.028 200.293 383.61 205.601 369.163 207.487C353.695 209.475 340.636 206.776 339.98 201.455C339.917 201.029 339.955 200.59 340.056 200.138C348.951 198.279 359.07 196.69 370.261 195.825C379.547 195.114 388.152 195.011 395.949 195.269Z" fill="#FFCB9D" style="fill: #FFCB9D; fill: var(--tblr-illustrations-skin, #FFCB9D);"/>
    <path d="M340.498 107.327C339.437 112.234 337.864 119.468 336.049 128.341C335.857 130.299 335.486 132.13 335.384 132.613C333.786 142.491 333.531 152.521 334.579 162.45C334.924 164.496 335.077 166.39 335.371 168.069C336.765 174.984 357.539 188.421 377.93 191.727C398.32 195.032 410.631 177.768 404.265 167.331C402.156 163.238 400.839 158.763 400.43 154.186C399.599 148.071 399.177 141.893 399.164 135.689C399.062 132.041 399.177 129.753 399.177 129.753L387.377 112.209L350.15 102.141C348.987 108.472 346.148 112.438 343.847 112.323C341.533 112.196 340.677 108.306 340.523 107.302" fill="#FFCB9D" style="fill: #FFCB9D; fill: var(--tblr-illustrations-skin, #FFCB9D);"/>
    <path d="M340.461 106.726C339.406 111.659 337.842 118.931 336.037 127.851C335.846 129.819 335.478 131.66 335.376 132.145C333.787 142.076 333.533 152.159 334.575 162.141C337.181 161.987 339.723 161.361 342.126 160.287C344.757 159.163 347.109 157.45 348.939 155.239C350.922 152.952 352.536 150.344 353.718 147.571C354.621 145.769 355.422 143.942 356.095 142.063C369.01 150.728 384.48 154.703 399.949 153.463C399.123 147.316 398.703 141.104 398.691 134.868C398.589 131.2 398.704 128.899 398.704 128.899L386.971 111.263L349.956 101.141C348.748 107.505 345.952 111.467 343.651 111.352C341.35 111.224 340.575 107.659 340.41 106.636" fill="black" opacity="0.1"/>
    <path d="M333.183 95.4441C330.714 101.817 334.994 104.63 332.766 111.611C330.714 117.87 326.661 118.224 326.965 122.329C327.396 126.815 333.5 131.135 336.261 134.847C336.907 135.709 337.439 136.596 337.933 137.533C338.148 137.926 338.388 138.344 338.49 138.813C340.263 142.652 341.023 146.884 340.795 151.141C341.656 150.456 342.732 149.494 343.796 148.176C345.214 146.427 345.987 144.844 346.265 144.223C347.798 140.878 347.874 137.825 347.899 136.266C347.937 133.492 347.443 132.465 347.671 129.057C347.722 128.272 347.823 127.093 348.279 125.662C348.672 124.407 349.178 123.432 349.571 122.748L349.723 122.545L350.166 122.887L351.015 123.546C353.484 125.256 358.018 128.462 363.59 131.857C377.128 140.118 396.58 149.696 406.407 142.728C407.18 142.208 407.889 141.588 408.586 140.992C409.244 140.371 409.877 139.738 410.409 139.041L410.473 138.952C411.84 137.293 412.701 135.253 412.929 133.086C413.474 125.193 402.633 120.784 404.026 113.727C404.976 109.09 410.181 108.874 410.283 104.478C410.371 100.107 405.344 95.0387 400.291 93.8477C396.491 93.0242 395.63 94.988 392.021 94.2151C385.828 92.8595 386.056 86.1698 379.914 84.4467C375.912 83.7499 371.809 84.244 368.149 85.9164C365.084 87.3481 364.287 88.5137 361.108 89.2359C358.651 89.6414 356.169 89.5907 353.775 89.1092C348.545 88.083 348.051 86.2965 345.24 86.0051C343.91 86.1698 340.985 86.6893 338.11 88.8685C334.969 91.2377 333.652 94.2025 333.183 95.4568V95.4441Z" fill="#0b1b3b" class="tblr-illustrations tblr-illustrations-vocate tblr-illustrations-easter-eggs-c"/>
    <path d="M346.949 115.141C347.076 117.907 348.093 120.548 349.835 122.691L350.471 123.264L351.323 123.912C353.802 125.594 358.353 128.746 363.947 132.085C377.538 140.209 397.066 149.628 406.932 142.775C407.707 142.265 408.419 141.654 409.118 141.069C409.78 140.458 410.415 139.835 410.949 139.15C405.826 139.237 400.689 138.913 395.629 138.128C372.414 134.565 355.861 122.791 347 115.153H346.949V115.141Z" fill="black" opacity="0.5"/>
    <path d="M441.403 386.063C438.563 387.039 359.338 398.33 333.581 399.141C330.258 366.878 325.046 333.246 317.361 298.486C316.27 293.456 315.129 288.475 313.949 283.533L327.202 260.141C327.202 260.141 374.759 325.744 441.34 324.553H441.353C448.442 369.741 446.425 384.365 441.403 386.05V386.063Z" fill="black" opacity="0.1"/>
    <path d="M573.844 456.45C566.16 468.044 556.542 472.868 548.705 489.044C544.558 497.584 542.79 505.411 541.95 510.807C520.005 511.163 497.64 511.239 474.83 511.01C465.504 510.921 456.256 510.769 447.058 510.578C417.174 509.967 388.041 508.847 359.671 507.281C342.599 505.703 309.827 500.282 276.28 478.137C252.235 462.279 236.867 443.812 227.949 431.149C252.553 424.9 280.49 420.09 311.328 418.511C318.236 418.155 325.004 417.977 331.594 417.964C324.152 412.619 293.441 389.303 286.393 347.597C282.768 326.165 286.826 308.348 290.07 298.141C300.731 300.431 314.114 304.428 328.554 311.593C350.219 322.347 365.409 335.863 374.899 345.841C374.899 345.841 374.899 345.854 374.912 345.866C385.497 358.161 393.893 370.353 400.534 381.629C400.928 382.329 401.348 383.029 401.742 383.716C412.569 368.978 432.428 346.019 464.169 327.972C511.138 301.259 556.3 301.106 575.727 302.201C574.976 347.877 561.516 373.815 548.578 389.303C539.189 400.541 518.147 420.497 511.914 426.377C510.909 427.331 510.285 427.929 510.171 428.044C510.209 428.031 510.273 428.006 510.349 427.929C511.405 427.242 512.499 426.542 513.631 425.855C515.349 424.786 517.155 423.704 519.013 422.635C519.013 422.622 519.038 422.622 519.038 422.622C523.732 418.728 532.472 412.632 544.812 410.29C546.555 409.959 547.828 409.806 548.654 409.704C555.308 408.903 567.063 408.584 583.818 413.624C584.874 434.853 579.39 448.114 573.856 456.45H573.844Z" fill="#DADCE0"/>
    <path d="M511.995 426.572C469.639 439.631 431.949 433.879 431.949 433.879C524.796 401.168 575.949 302.141 575.949 302.141C575.197 347.911 561.707 373.902 548.74 389.422C539.331 400.683 518.242 420.68 511.995 426.572Z" fill="black" opacity="0.1"/>
    <path d="M313.544 329.614C324.76 342.064 335.9 354.17 348.07 365.552C360.151 376.984 372.88 387.361 385.546 398.272L384.618 399.734C354.466 385.898 327.532 359.766 313.531 329.614H313.544Z" fill="black"/>
    <path d="M516.55 332.132C498.034 359.727 467.362 381.345 435.417 390.323L434.73 388.734C448.948 379.934 463.127 371.655 476.848 362.258C490.646 352.911 503.528 342.699 516.55 332.145V332.132Z" fill="black"/>
    <path d="M268.638 439.333C289.646 443.912 310.259 448.54 331.407 451.631C352.492 454.886 373.474 456.565 394.8 458.625L394.902 460.825C352.962 468.493 305.77 460.1 268.625 439.333H268.638Z" fill="black"/>
    <path d="M391.949 434.115C391.949 434.115 369.033 435.503 331.402 418.031C323.987 412.683 293.391 389.354 286.369 347.625C282.757 326.181 286.8 308.353 290.032 298.141C291.147 311.346 294.1 327.149 300.932 343.919C324.165 400.802 375.028 426.461 391.949 434.115Z" fill="black" opacity="0.1"/>
    <path d="M446.949 511.141C417.079 510.513 387.958 509.385 359.601 507.809C342.536 506.219 309.779 500.747 276.258 478.472C252.225 462.49 236.863 443.893 227.949 431.141C227.949 431.141 310.859 499.747 430.151 509.411C437.03 509.962 442.575 510.539 446.949 511.141Z" fill="black" opacity="0.1"/>
    <path d="M548.949 357.192C542.618 362.967 536.286 368.805 529.929 374.682C526.528 377.831 523.139 380.992 519.763 384.141C506.246 373.943 485.43 356.606 467.951 333.698C460.69 324.176 454.893 314.883 453.989 313.43C446.6 301.498 440.842 290.012 436.344 279.521C433.848 273.708 431.745 268.201 429.949 263.089C434.051 259.125 439.886 254.37 447.772 250.252C452.027 248.009 456.104 246.352 459.747 245.141C460.129 246.517 460.741 248.621 461.569 251.132C461.569 251.132 468.295 271.681 483.277 293.199C505.1 324.546 547.076 355.841 548.936 357.205L548.949 357.192Z" fill="#FFCB9D" style="fill: #FFCB9D; fill: var(--tblr-illustrations-skin, #FFCB9D);"/>
    <path d="M316.745 403.864C324.341 399.886 325.439 386.997 319.196 375.077C312.954 363.156 301.735 356.717 294.138 360.695C286.541 364.673 285.443 377.562 291.686 389.483C297.929 401.404 309.148 407.843 316.745 403.864Z" fill="#FFCB9D" style="fill: #FFCB9D; fill: var(--tblr-illustrations-skin, #FFCB9D);"/>
    <path d="M510.949 429.141C513.766 427.466 516.766 425.804 519.949 424.141C515.141 426.813 511.84 428.642 510.949 429.141Z" fill="black" opacity="0.1"/>
    <path d="M599.949 406.532C599.949 407.641 599.924 408.749 599.886 409.883C599.886 409.96 599.873 410.049 599.873 410.125C599.835 411.756 599.721 413.4 599.557 415.056C599.544 415.209 599.532 415.349 599.506 415.502C599.481 415.77 599.443 416.037 599.405 416.305C598.633 423.759 596.811 431.378 594.014 438.972C592.09 444.158 589.749 449.318 586.939 454.376C586.914 454.427 586.889 454.465 586.863 454.504C585.421 457.116 583.839 459.664 582.13 462.199C582.13 462.225 582.105 462.238 582.092 462.263C581.902 462.569 581.7 462.887 581.485 463.18C580.637 464.442 579.738 465.69 578.814 466.926C578.789 466.952 578.776 466.99 578.751 467.016C578.586 467.27 578.384 467.525 578.194 467.78C577.068 469.283 575.878 470.787 574.663 472.265C573.942 473.131 573.208 474.011 572.448 474.851C572.41 474.89 572.372 474.941 572.334 474.979C570.816 476.724 569.247 478.406 567.627 480.037C567.196 480.458 566.779 480.891 566.348 481.273C561.792 485.771 556.958 489.784 551.984 493.237C523.243 513.343 489.199 516.274 467.356 497.913C461.015 492.6 456.256 485.962 453.029 478.419C452.991 478.33 452.953 478.228 452.915 478.139C452.536 477.221 452.181 476.304 451.84 475.374C449.498 468.901 448.207 461.868 447.992 454.504V454.351C447.891 451.369 447.967 448.349 448.233 445.279C448.245 445.126 448.258 444.986 448.271 444.82C448.271 444.795 448.283 444.756 448.283 444.731C448.423 443.062 448.625 441.38 448.878 439.673C448.916 439.52 448.929 439.354 448.967 439.201C448.967 439.176 448.979 439.163 448.979 439.137C449.486 435.799 450.194 432.448 451.093 429.072C451.625 427.071 452.232 425.084 452.915 423.083C453.004 422.816 453.093 422.561 453.181 422.293C454.371 418.802 455.801 415.298 457.408 411.833C461.218 403.716 466.153 395.74 472.215 388.236C472.544 387.828 472.886 387.433 473.228 387.025C473.772 386.35 474.329 385.7 474.898 385.05C474.962 384.974 475.025 384.91 475.088 384.834C476.822 382.833 478.619 380.909 480.454 379.062C480.809 378.68 481.188 378.323 481.543 377.966C481.593 377.915 481.644 377.864 481.694 377.813H481.707C483.163 376.374 484.643 374.997 486.175 373.672C486.504 373.392 486.807 373.124 487.136 372.857C487.238 372.768 487.352 372.679 487.453 372.577H487.465C490.769 369.723 494.198 367.136 497.717 364.804C497.894 364.69 498.058 364.575 498.235 364.46H498.248C526.458 345.807 559.299 343.488 580.561 361.377C587.762 367.404 592.925 375.15 596.089 384.006C597.507 387.968 598.544 392.135 599.152 396.467C599.165 396.543 599.177 396.632 599.19 396.709C599.38 397.932 599.519 399.181 599.633 400.442C599.709 401.13 599.747 401.793 599.785 402.468C599.797 402.57 599.797 402.684 599.81 402.786C599.899 404.022 599.924 405.271 599.949 406.532Z" fill="#DADCE0"/>
    <path d="M572.949 475.383C571.423 477.109 569.846 478.771 568.217 480.383C567.785 480.799 567.365 481.227 566.933 481.605C562.353 486.051 557.494 490.019 552.495 493.432C523.608 513.307 489.391 516.203 467.436 498.054C461.064 492.802 456.281 486.24 453.037 478.784C450.697 474.3 449.565 470.345 448.967 467.587C448.789 466.794 447.949 462.851 447.949 458.947C447.949 458.947 447.949 458.519 447.975 455.143C466.177 455.08 487.788 456.289 511.817 460.206C535.4 464.073 555.93 469.653 572.949 475.383Z" fill="#1a3263" style="fill: #1a3263; fill: var(--tblr-illustrations-primary, var(--tblr-primary, #1a3263));"/>
    <path d="M596.949 384.141C583.123 379.439 567.005 374.863 548.825 371.289C530.083 367.603 512.928 365.735 497.949 364.895C502.993 360.845 511.417 355.128 523.067 351.692C528.867 349.987 556.443 341.85 578.424 358.049C589.588 366.274 594.645 377.345 596.949 384.141Z" fill="#0b1b3b" class="tblr-illustrations tblr-illustrations-vocate tblr-illustrations-easter-eggs-c"/>
    <path d="M600.873 415.417C600.86 415.545 600.847 415.673 600.835 415.801C600.809 416.095 600.784 416.39 600.745 416.684H600.733C600.057 422.88 598.566 430.817 595.266 439.574C592.959 445.693 590.271 450.852 587.735 455.013C587.709 455.064 587.684 455.102 587.658 455.141C558.91 447.498 537.182 442.172 528.364 440.38C525.726 439.843 523.139 439.343 523.139 439.343C516.666 438.101 510.231 436.949 503.872 435.925C503.872 435.925 496.519 434.747 488.886 433.698C472.867 431.496 453.702 429.819 450.949 429.588C451.382 427.822 451.969 425.62 452.759 423.098C452.797 422.983 452.835 422.855 452.873 422.727C453.702 420.115 455.002 416.39 456.9 412.152C456.9 412.152 461.055 401.706 471.886 388.303C472.383 387.688 472.855 387.151 472.906 387.087C473.696 386.242 474.473 385.601 475.098 385.141H475.11C476.869 385.333 479.252 385.614 482.068 385.96C485.063 386.318 493.218 387.33 503.668 388.917C503.668 388.917 518.475 391.17 532.557 393.859C561.968 399.466 591.991 407.825 600.771 410.309C600.949 411.845 601.013 413.561 600.873 415.417Z" fill="#1a3263" style="fill: #1a3263; fill: var(--tblr-illustrations-primary, var(--tblr-primary, #1a3263));"/>
    <path d="M582.949 462.381C582.734 462.712 582.518 463.044 582.289 463.363C581.439 464.64 580.538 465.89 579.6 467.141C579.473 467.103 579.333 467.052 579.206 467.013C559.235 460.39 536.714 454.519 511.871 450.448C489.325 446.76 468.06 445.101 448.393 444.782C448.241 444.769 448.101 444.769 447.949 444.769C448.101 443.097 448.304 441.4 448.558 439.677C448.596 439.498 448.609 439.32 448.66 439.141C448.799 439.141 448.952 439.141 449.091 439.154C468.783 439.447 490.111 441.119 512.696 444.807C538.579 449.031 561.951 455.247 582.556 462.253C582.695 462.291 582.822 462.342 582.949 462.381Z" fill="#0b1b3b" class="tblr-illustrations tblr-illustrations-vocate tblr-illustrations-easter-eggs-c"/>
    <path d="M599.892 403.128C575.209 395.008 547.088 387.693 515.833 382.706C504.142 380.839 492.831 379.432 481.949 378.396C482.758 377.399 483.769 376.286 485.033 375.187C485.956 374.368 486.866 373.703 487.7 373.141C497.065 374.164 506.721 375.455 516.617 377.066C547.088 382.028 574.728 389.138 599.285 397.13C599.475 397.783 599.651 398.524 599.778 399.355C599.993 400.813 599.98 402.105 599.879 403.141L599.892 403.128Z" fill="#0b1b3b" class="tblr-illustrations tblr-illustrations-vocate tblr-illustrations-easter-eggs-c"/>
    <path d="M599.949 416.141C599.924 416.431 599.899 416.722 599.861 417.013H599.848C599.178 423.128 597.698 430.962 594.423 439.604C592.134 445.644 589.466 450.735 586.95 454.842C586.924 454.892 586.899 454.93 586.874 454.968C585.432 457.558 583.851 460.085 582.144 462.6C582.144 462.625 582.119 462.638 582.106 462.663C582.245 462.701 582.372 462.751 582.498 462.789C582.283 463.118 582.068 463.446 581.841 463.762C580.993 465.026 580.096 466.264 579.16 467.502C579.033 467.464 578.894 467.414 578.768 467.376C578.603 467.628 578.401 467.881 578.211 468.134C577.086 469.625 575.897 471.116 574.683 472.581C573.963 473.441 573.229 474.312 572.47 475.146C572.432 475.184 572.394 475.235 572.357 475.273C570.839 477.004 569.271 478.671 567.652 480.289C567.222 480.706 566.805 481.135 566.375 481.514C561.823 485.974 556.992 489.955 552.022 493.379C523.304 513.317 489.288 516.223 467.461 498.016C461.126 492.747 456.371 486.164 453.147 478.684C450.82 474.186 449.694 470.219 449.1 467.452C448.923 466.656 448.088 462.701 448.088 458.784C448.088 458.784 448.088 458.354 448.114 454.968V454.817C448.012 451.86 448.088 448.865 448.354 445.82C448.366 445.669 448.379 445.53 448.392 445.366C448.24 445.353 448.101 445.353 447.949 445.353C448.101 443.698 448.303 442.017 448.556 440.312C448.594 440.135 448.607 439.958 448.657 439.781C448.796 439.781 448.948 439.781 449.087 439.794C449.087 439.768 449.1 439.756 449.1 439.73C449.606 436.42 450.314 433.097 451.212 429.749C451.642 428.005 452.223 425.832 453.007 423.343C453.045 423.229 453.083 423.103 453.121 422.976C453.172 422.989 453.235 423.002 453.298 423.027C474.733 427.677 514.781 433.539 562.961 425.175C568.108 424.278 573.343 423.229 578.679 421.978C585.508 420.411 592.45 418.516 599.507 416.292C599.658 416.242 599.797 416.191 599.949 416.141Z" fill="black" opacity="0.1"/>
    <path d="M569.949 435.141C576.024 435.141 580.949 430.44 580.949 424.641C580.949 418.842 576.024 414.141 569.949 414.141C563.874 414.141 558.949 418.842 558.949 424.641C558.949 430.44 563.874 435.141 569.949 435.141Z" fill="white"/>
    <path d="M503.949 391.527C503.949 397.946 498.803 403.141 492.456 403.141C486.108 403.141 480.949 397.946 480.949 391.527C480.949 389.574 481.43 387.749 482.264 386.141C485.678 386.421 489.257 386.804 492.987 387.315C496.742 387.838 500.308 388.438 503.684 389.089C503.848 389.88 503.949 390.684 503.949 391.514V391.527Z" fill="white"/>
    <path d="M532.949 429.236C532.949 433.525 531.114 437.39 528.161 440.141C528.161 440.141 522.051 439.328 521.409 439.24C518.123 438.79 512.732 437.877 503.477 435.789C502.501 433.8 501.949 431.587 501.949 429.236C501.949 420.894 508.894 414.141 517.443 414.141C525.992 414.141 532.936 420.907 532.936 429.236H532.949Z" fill="white"/>
    <path d="M617.949 484.87C613.346 485.126 599.893 486.198 587.94 492.708C572.808 500.954 571.269 511.83 571.028 514.141C566.501 514.128 561.949 514.115 557.422 514.103C550.771 514.09 544.121 514.077 537.458 514.064C526.064 514.039 514.671 514.013 503.29 513.988C495.19 513.962 487.065 513.949 478.965 513.937C462.803 513.898 446.666 513.86 430.504 513.822C444.174 509.303 450.799 500.342 447.467 493.231C443.22 484.079 422.443 477.735 402.987 483.134C402.975 483.147 402.949 483.147 402.949 483.147C404.996 481.334 408.481 478.705 413.936 476.343C415.322 475.743 421.425 473.177 430.772 471.875C435.54 471.224 451.422 469.016 466.44 474.62C474.972 477.811 479.728 482.266 482.271 485.317C485.806 482.841 490.79 479.56 497.009 476.164C504.358 472.169 515.79 466.042 531.202 462.646C539.772 460.757 553.734 458.791 571.168 461.395C566.857 463.846 560.575 468.071 555.247 474.633C552.056 478.577 549.792 482.624 548.788 484.526C547.402 487.155 546.397 489.479 545.71 491.278C546.855 490.474 549.589 488.662 553.823 486.708C560.016 483.824 569.425 480.632 581.849 479.803C600.3 478.577 613.893 483.338 617.936 484.87H617.949Z" fill="#A6A9B3"/>
    <path d="M570.949 461.141C566.631 463.607 560.338 467.859 555 474.462C551.803 478.431 549.535 482.503 548.529 484.417C547.14 487.063 546.134 489.401 545.446 491.212C543.178 495.541 541.013 500.461 539.293 505.958C538.401 508.797 537.701 511.533 537.179 514.141C525.764 514.115 514.35 514.089 502.949 514.064C505.306 509.285 508.261 504.301 511.981 499.33C530.618 474.372 557.051 464.879 570.949 461.141Z" fill="black" opacity="0.1"/>
    <path d="M447.448 492.922C450.78 499.865 444.154 508.616 430.47 513.041C446.634 513.079 462.785 513.116 478.949 513.141C471.738 508.566 465.609 502.383 462.175 494.031C449.088 462.257 404.526 482.339 402.949 483.062C422.407 477.789 443.188 483.984 447.448 492.91V492.922Z" fill="black" opacity="0.1"/>
    <path d="M556.949 514.115C561.511 514.115 566.086 514.128 570.661 514.141C570.905 511.805 572.456 500.75 587.706 492.368C599.752 485.751 613.31 484.648 617.949 484.401C617.949 484.401 562.05 479.315 556.962 514.115H556.949Z" fill="black" opacity="0.1"/>
    <path d="M249.937 466.971C246.823 467.08 243.659 467.141 240.419 467.141C219.563 467.153 201.325 464.943 186.506 462.199C184.443 461.81 182.949 460.062 182.949 458.046V450.141C190.239 453.249 198.491 456.309 207.666 458.993C223.41 463.583 237.812 465.878 249.949 466.983L249.937 466.971Z" fill="black" opacity="0.1"/>
    <path d="M461.949 251.053C446.014 254.495 436.421 279.141 436.421 279.141C433.894 273.392 431.767 267.946 429.949 262.891C434.101 258.97 440.006 254.268 447.986 250.196C452.292 247.977 456.418 246.338 460.106 245.141C460.686 247.057 461.292 249.036 461.949 251.066V251.053Z" fill="black" opacity="0.1"/>
    <path d="M444.295 102.482C445.735 103.706 447.314 104.249 449.045 104.123C450.776 103.997 452.178 103.302 453.252 102.04C454.326 100.778 454.819 99.2505 454.604 97.5844C454.402 95.9182 453.581 94.4666 452.153 93.2422C450.713 92.0179 449.171 91.4625 447.529 91.5635C445.886 91.6645 444.497 92.3713 443.397 93.6588C442.298 94.9463 441.843 96.4105 441.97 98.1019C442.096 99.7933 442.867 101.245 444.307 102.469L444.295 102.482ZM458.521 92.2956L479.949 70.2063L470.448 62.1406L452.153 86.8932L458.521 92.2956Z" fill="#A6A9B3"/>
    <path d="M427.74 86.0741C429.031 86.2789 430.164 86.0101 431.126 85.2804C432.101 84.5508 432.661 83.5779 432.844 82.3874C433.015 81.1585 432.747 80.0705 432.016 79.1104C431.285 78.1504 430.286 77.5743 428.995 77.3695C427.703 77.1647 426.595 77.4079 425.669 78.0992C424.743 78.7904 424.183 79.7505 424 80.9793C423.83 82.1698 424.086 83.2707 424.78 84.2691C425.462 85.2676 426.449 85.8693 427.74 86.0741ZM432.393 74.3485L436.949 52.4975L428.434 51.1406L426.692 73.4397L432.406 74.3485H432.393Z" fill="#1a3263" style="fill: #1a3263; fill: var(--tblr-illustrations-primary, var(--tblr-primary, #1a3263));"/>
</svg>
