<svg xmlns="http://www.w3.org/2000/svg" width="800" height="600" fill="none" viewBox="0 0 800 600">
    <style>
        :where(.theme-dark, [data-theme="dark"]) .tblr-illustrations-easter-chicken-a { fill: black; opacity: 0.07; } :where(.theme-dark, [data-theme="dark"]) .tblr-illustrations-easter-chicken-b { fill: black; opacity: 0.3; } :where(.theme-dark, [data-theme="dark"]) .tblr-illustrations-easter-chicken-c { fill: #24304d; }
        @media (prefers-color-scheme: dark) { .tblr-illustrations-easter-chicken-a { fill: black; opacity: 0.07; } .tblr-illustrations-easter-chicken-b { fill: black; opacity: 0.3; } .tblr-illustrations-easter-chicken-c { fill: #24304d; } }
    </style>
    <path d="M145.938 321.499C145.938 364.47 191.41 395.613 211.381 430.404C232.236 466.304 237.096 520.976 272.967 541.635C307.623 561.74 357.06 539.203 399.996 539.203C442.933 539.203 492.37 561.622 527.026 541.635C562.779 520.869 567.745 466.198 588.494 430.404C608.582 395.72 653.938 364.459 653.938 321.499C653.938 278.538 608.582 247.384 588.494 212.593C567.745 176.811 562.779 122.022 527.026 101.362C492.264 81.2572 442.933 103.794 399.996 103.794C357.06 103.794 307.623 81.2572 272.967 101.256C237.214 122.022 232.248 176.693 211.499 212.487C191.41 247.396 146.055 278.538 145.938 321.499Z" fill="#1a3263" style="fill: #1a3263; fill: var(--tblr-illustrations-primary, var(--tblr-primary, #1a3263));" opacity="0.02" class="tblr-illustrations tblr-illustrations-vocate tblr-illustrations-easter-chicken-a"/>
    <path d="M191.938 514.481C191.938 518.047 291.278 520.981 413.437 520.981C535.597 520.981 634.937 518.047 634.937 514.481C634.937 510.915 535.88 507.981 413.437 507.981C290.995 507.981 191.938 510.915 191.938 514.481Z" fill="#d9e2f3" opacity="0.5" class="tblr-illustrations tblr-illustrations-vocate tblr-illustrations-easter-chicken-b"/>
    <path d="M364.296 319.169C363.382 317.868 314.789 246.693 294.583 230.202C274.377 213.712 262.821 231.609 284.633 264.98C284.633 264.98 232.43 234.186 282.992 301.732C282.992 301.732 233.426 291.992 288.465 333.224C343.504 374.456 388.323 353.485 364.296 319.169Z" fill="#1a3263" style="fill: #1a3263; fill: var(--tblr-illustrations-primary, var(--tblr-primary, #1a3263));"/>
    <path d="M364.296 319.169C363.382 317.868 314.789 246.693 294.583 230.202C274.377 213.712 262.821 231.609 284.633 264.98C284.633 264.98 232.43 234.186 282.992 301.732C282.992 301.732 233.426 291.992 288.465 333.224C343.504 374.456 388.323 353.485 364.296 319.169Z" fill="black" opacity="0.1"/>
    <path d="M560.76 507.838C559.853 507.172 559.063 506.494 558.38 505.84C596.87 520.858 611.755 509.134 617.2 498.563C617.765 497.469 619.792 494.092 618.531 491.416C616.646 487.421 608.985 488.063 584.39 488.539C580.889 488.61 562.587 488.955 562.575 488.527C562.575 488.491 562.728 488.444 564.685 488.135C566.83 487.79 568.739 487.493 570.365 487.243C567.442 485.982 557.178 481.904 548.409 485.305C546.335 486.113 542.658 487.54 541.374 491.012C541.374 491.036 541.362 491.06 541.35 491.084C549.753 496.898 558.509 498.218 567.761 499.597C580.583 501.512 594.124 501.108 594.124 501.167C553.548 505.614 541.02 494.33 540.938 494.247C540.973 494.865 541.067 495.364 541.114 495.662C541.362 496.958 542.01 498.991 545.204 502.332C547.926 505.174 551.155 508.551 556.753 510.192C560.371 511.251 563.671 511.203 566.146 510.87C564.567 510.228 562.705 509.265 560.772 507.85L560.76 507.838Z" fill="#1a3263" style="fill: #1a3263; fill: var(--tblr-illustrations-primary, var(--tblr-primary, #1a3263));"/>
    <path d="M540.938 490.778C538.777 489.446 536.382 487.778 533.893 485.667C530.853 483.088 528.434 480.496 526.544 478.205C525.675 477.797 524.806 477.389 523.938 476.981C524.724 478.409 525.64 479.884 526.708 481.384C531.123 487.55 536.359 491.51 540.515 493.981L540.938 490.79V490.778Z" fill="#1a3263" style="fill: #1a3263; fill: var(--tblr-illustrations-primary, var(--tblr-primary, #1a3263));"/>
    <path d="M197.491 297.031C198.459 296.984 199.354 297.008 200.178 297.078C166.126 307.707 162.377 323.368 164.371 333.245C164.574 334.268 165.015 337.571 167.308 338.665C170.723 340.287 175.546 335.784 191.904 322.357C194.232 320.441 206.399 310.458 206.637 310.729C206.661 310.752 206.578 310.87 205.431 312.116C204.166 313.492 203.043 314.703 202.076 315.738C204.727 315.009 213.849 312.222 217.944 305.297C218.911 303.663 220.631 300.758 219.64 297.784C219.64 297.76 219.628 297.749 219.616 297.725C210.828 298.372 204.202 302.181 197.217 306.202C187.534 311.787 178.603 319.265 178.579 319.23C203.581 294.656 218.099 295.42 218.195 295.42C217.837 295.032 217.514 294.75 217.311 294.586C216.452 293.868 214.923 292.869 210.971 292.375C207.616 291.952 203.617 291.446 198.948 293.351C195.939 294.586 193.742 296.373 192.238 297.913C193.647 297.502 195.426 297.125 197.491 297.043V297.031Z" fill="#1a3263" style="fill: #1a3263; fill: var(--tblr-illustrations-primary, var(--tblr-primary, #1a3263));"/>
    <path d="M219.327 297.516C221.459 297.257 223.956 297.073 226.713 297.116C230.105 297.17 233.085 297.538 235.546 297.981C236.347 297.797 237.137 297.614 237.937 297.441C236.665 296.976 235.276 296.533 233.78 296.165C227.596 294.631 222.013 294.836 217.938 295.398L219.339 297.527L219.327 297.516Z" fill="#1a3263" style="fill: #1a3263; fill: var(--tblr-illustrations-primary, var(--tblr-primary, #1a3263));"/>
    <path d="M551.926 363.625L480.09 369.941L342.838 381.981C338.086 380.423 309.018 370.495 298.226 342.248C290.625 322.393 293.107 296.246 305.839 279.862C311.926 272.047 321.182 265.343 327.116 249.643C329.362 243.682 330.355 238.476 330.852 235.029C330.852 235.029 330.828 235.029 330.852 235.005C329.977 222.776 331.703 210.181 336.348 197.975C351.656 157.699 393.632 135.294 434.603 143.274C438.114 135.719 443.02 121.92 438.067 111.981C438.575 112.524 451.98 126.772 456.72 140.004C460.089 138.269 464.002 136.664 468.458 135.483C479.204 132.639 488.318 133.536 493.389 134.421C491.001 135.778 487.265 138.328 483.991 142.66C481.568 145.871 480.208 148.976 479.428 151.23C481.627 149.991 486.379 147.713 492.786 147.677C498.2 147.654 502.373 149.235 504.595 150.286C501.025 151.455 494.287 154.205 488.365 160.579C485.398 163.79 483.447 167.036 482.147 169.669C486.71 174.591 490.658 179.997 493.932 185.746V185.77C501.864 199.675 505.931 215.635 505.328 231.948C505.233 234.958 504.985 237.98 504.548 240.99C503.507 256.607 502.727 289.341 511.616 313.481C523.733 346.344 551.937 363.59 551.937 363.59L551.926 363.625Z" fill="#1a3263" style="fill: #1a3263; fill: var(--tblr-illustrations-primary, var(--tblr-primary, #1a3263));"/>
    <path d="M301.949 193.564C311.728 191.574 321.518 189.583 331.296 187.593C335.569 186.718 339.853 185.855 344.126 184.981C347.73 190.607 351.334 196.222 354.938 201.848L348.693 207.981C342.776 207.877 334.853 207.141 325.92 204.587C315.39 201.572 307.326 197.12 301.938 193.576L301.949 193.564Z" fill="#0b1b3b" class="tblr-illustrations tblr-illustrations-vocate tblr-illustrations-easter-chicken-c"/>
    <path d="M323.865 152.981C352.741 161.308 371.587 178.244 370.92 192.872C370.468 202.754 363.96 209.891 363.96 209.891C357.964 216.463 350.278 217.959 347.553 218.489C332.741 221.375 314.954 211.364 301.938 193.662C308.767 197.171 321.795 202.554 338.142 201.188C343.294 200.764 347.839 199.739 351.67 198.549C347.934 195.994 343.734 192.554 339.713 187.996C328.243 174.994 324.96 160.519 323.865 152.981Z" fill="#A6A9B3"/>
    <path d="M418.438 230.981C435.282 230.981 448.938 217.102 448.938 199.981C448.938 182.86 435.282 168.981 418.438 168.981C401.593 168.981 387.938 182.86 387.938 199.981C387.938 217.102 401.593 230.981 418.438 230.981Z" fill="white"/>
    <path d="M415.937 206.981C424.774 206.981 431.938 199.818 431.938 190.981C431.938 182.144 424.774 174.981 415.937 174.981C407.101 174.981 399.938 182.144 399.938 190.981C399.938 199.818 407.101 206.981 415.937 206.981Z" fill="#0b1b3b" class="tblr-illustrations tblr-illustrations-vocate tblr-illustrations-easter-chicken-c"/>
    <path d="M412.437 188.981C415.475 188.981 417.937 186.519 417.937 183.481C417.937 180.443 415.475 177.981 412.437 177.981C409.4 177.981 406.938 180.443 406.938 183.481C406.938 186.519 409.4 188.981 412.437 188.981Z" fill="white"/>
    <path d="M551.914 363.682L480.245 369.981C439.333 350.352 392.938 326.924 392.938 326.924C392.938 326.924 398.811 322.937 407.75 315.647C422.28 303.791 444.911 283.23 463.498 256.913C478.075 236.304 490.199 212.181 494.055 185.981C501.968 199.877 506.025 215.838 505.424 232.128C505.33 235.136 505.082 238.156 504.646 241.164C503.62 256.783 502.829 289.494 511.71 313.618C523.786 346.447 551.938 363.694 551.938 363.694L551.914 363.682Z" fill="black" opacity="0.1"/>
    <path d="M447.737 324.935C448.802 323.756 505.643 258.73 527.794 244.682C549.945 230.634 559.511 249.695 533.832 280.291C533.832 280.291 589.713 255.711 531.31 316.903C531.31 316.903 582.16 312.893 522.253 347.499C462.335 382.106 419.737 356.204 447.737 324.924V324.935Z" fill="#1a3263" style="fill: #1a3263; fill: var(--tblr-illustrations-primary, var(--tblr-primary, #1a3263));"/>
    <path d="M558.902 312.343C558.902 321.084 558.489 329.767 557.65 338.201C557.319 341.757 556.882 345.265 556.41 348.762C555.854 352.554 555.252 356.263 554.567 359.984C553.397 366.269 552.027 372.423 550.397 378.459C549.629 381.401 548.814 384.295 547.916 387.177C546.286 392.588 544.455 397.892 542.435 403.089C541.774 404.779 541.1 406.456 540.427 408.11C539.754 409.775 539.033 411.417 538.301 413.048C536.139 417.985 533.8 422.781 531.319 427.448C529.488 430.897 527.586 434.264 525.59 437.536C522.271 443.017 518.738 448.262 515.006 453.259C514.994 453.259 514.994 453.27 514.994 453.27C507.977 462.733 500.216 471.285 491.888 478.798L491.864 478.822C491.711 478.963 491.557 479.105 491.404 479.247C468.735 499.565 441.719 512.276 412.565 514.579C409.364 514.851 406.151 514.981 402.926 514.981C401.201 514.981 399.453 514.934 397.752 514.851C374.528 513.882 352.591 506.287 333.017 493.517C327.938 490.221 323.036 486.571 318.299 482.566C316.562 481.102 314.838 479.601 313.148 478.042C306.38 471.876 300.001 465.012 294.082 457.511C291.779 454.593 289.546 451.593 287.396 448.498C286.676 447.459 285.967 446.419 285.258 445.379C283.144 442.225 281.112 439 279.163 435.693C278.513 434.582 277.875 433.46 277.226 432.35C274.142 426.928 271.248 421.293 268.614 415.457C267.539 413.095 266.5 410.697 265.495 408.263C264.869 406.751 264.255 405.239 263.664 403.715C263.074 402.203 262.495 400.668 261.928 399.132C260.806 396.037 259.743 392.907 258.738 389.741C258.112 387.851 257.534 385.925 256.99 383.988C255.136 377.656 253.529 371.218 252.194 364.591C252.194 364.591 252.182 364.532 252.182 364.497C251.285 360.161 250.517 355.814 249.843 351.373C249.265 347.557 248.768 343.694 248.367 339.808C248.367 339.749 248.355 339.69 248.355 339.631C247.434 330.724 246.938 321.604 246.938 312.343C246.938 310.795 246.961 309.26 246.997 307.724L275.288 331.586L308.589 289.981L360.565 336.784L402.937 289.981C414.573 304.936 426.209 319.856 437.821 334.811C444.141 329.566 450.46 324.345 456.745 319.1C462.462 325.561 468.191 332.023 473.897 338.473C474.098 338.721 474.263 338.898 474.452 339.111C480.784 332.212 487.163 325.301 493.495 318.415C502.212 327.298 510.954 336.193 519.684 345.088H519.695L519.707 345.076L558.678 300.695C558.819 303.873 558.89 307.086 558.926 310.299C558.937 310.972 558.937 311.669 558.937 312.343H558.902Z" fill="#DADCE0"/>
    <path d="M557.938 338.461C557.82 341.761 557.524 345.369 556.993 349.272C556.427 353.294 555.672 356.984 554.857 360.285L536.26 381.777L527.633 372.019L493.612 333.576L449.619 388.981L401.036 335.172L354.447 386.97L312.26 335.279L266.426 383.587L262.201 377.803C259.074 373.509 255.794 369.038 252.761 364.886C252.761 364.886 252.749 364.827 252.749 364.791C251.663 360.024 251.026 357.008 250.637 355.175C250.247 353.341 250.141 352.703 250.141 352.703C249.622 349.627 249.056 345.345 248.938 340.081V339.892C249.952 341.075 252.572 344.517 255.959 349.095C259.346 353.661 263.5 359.338 267.606 364.945L312.921 317.181L354.86 368.6L401.001 317.311L449.018 370.469L474.212 338.745L493.081 314.981L519.963 345.345L534.395 361.657L536.118 363.62L557.89 338.461H557.938Z" fill="#0b1b3b" class="tblr-illustrations tblr-illustrations-vocate tblr-illustrations-easter-chicken-c"/>
    <path d="M547.938 386.981C546.308 392.517 544.479 397.945 542.46 403.264C541.811 404.992 541.138 406.697 540.453 408.401C539.78 410.105 539.06 411.786 538.328 413.454C520.833 416.029 502.488 418.265 483.34 419.981C457.452 422.339 430.111 423.777 401.437 423.958C353.319 424.285 308.885 421.033 268.818 415.908C267.744 413.49 266.705 411.036 265.702 408.546C265.076 406.999 264.462 405.452 263.872 403.892C263.282 402.345 262.703 400.773 262.137 399.202C261.003 396.035 259.941 392.832 258.938 389.592H258.949C301.766 395.02 349.27 398.416 400.811 398.09C440.275 397.824 477.402 395.406 511.826 391.599C524.221 390.221 536.262 388.673 547.938 386.993V386.981Z" fill="white"/>
    <path d="M531.938 427.981C530.107 431.383 528.206 434.704 526.222 437.944C522.903 443.351 519.372 448.524 515.64 453.453C482.515 457.846 446.484 460.911 407.878 461.738C406.024 461.785 404.17 461.832 402.304 461.855C363.911 462.472 327.939 460.783 294.802 457.637C292.499 454.77 290.267 451.799 288.106 448.757C287.385 447.732 286.677 446.707 285.968 445.681C283.866 442.57 281.835 439.377 279.874 436.126C279.225 435.031 278.587 433.924 277.938 432.828C315.657 436.639 357.003 438.806 401.43 438.107C422.581 437.781 443.023 436.837 462.674 435.38C486.967 433.597 510.09 431.057 531.938 427.993V427.981Z" fill="#A6A9B3"/>
    <path d="M301.438 414.981C306.132 414.981 309.938 411.175 309.938 406.481C309.938 401.787 306.132 397.981 301.438 397.981C296.743 397.981 292.938 401.787 292.938 406.481C292.938 411.175 296.743 414.981 301.438 414.981Z" fill="#1a3263" style="fill: #1a3263; fill: var(--tblr-illustrations-primary, var(--tblr-primary, #1a3263));"/>
    <path d="M405.438 418.981C410.132 418.981 413.938 415.175 413.938 410.481C413.938 405.787 410.132 401.981 405.438 401.981C400.743 401.981 396.938 405.787 396.938 410.481C396.938 415.175 400.743 418.981 405.438 418.981Z" fill="#1a3263" style="fill: #1a3263; fill: var(--tblr-illustrations-primary, var(--tblr-primary, #1a3263));"/>
    <path d="M360.938 495.981C368.117 495.981 373.938 489.937 373.938 482.481C373.938 475.025 368.117 468.981 360.938 468.981C353.758 468.981 347.938 475.025 347.938 482.481C347.938 489.937 353.758 495.981 360.938 495.981Z" fill="#1a3263" style="fill: #1a3263; fill: var(--tblr-illustrations-primary, var(--tblr-primary, #1a3263));"/>
    <path d="M444.938 495.981C452.117 495.981 457.938 489.937 457.938 482.481C457.938 475.025 452.117 468.981 444.938 468.981C437.758 468.981 431.938 475.025 431.938 482.481C431.938 489.937 437.758 495.981 444.938 495.981Z" fill="#1a3263" style="fill: #1a3263; fill: var(--tblr-illustrations-primary, var(--tblr-primary, #1a3263));"/>
    <path d="M404.438 478.981C408.027 478.981 410.938 476.295 410.938 472.981C410.938 469.667 408.027 466.981 404.438 466.981C400.848 466.981 397.938 469.667 397.938 472.981C397.938 476.295 400.848 478.981 404.438 478.981Z" fill="#1a3263" style="fill: #1a3263; fill: var(--tblr-illustrations-primary, var(--tblr-primary, #1a3263));"/>
    <path d="M478.438 474.981C482.027 474.981 484.938 472.295 484.938 468.981C484.938 465.667 482.027 462.981 478.438 462.981C474.848 462.981 471.938 465.667 471.938 468.981C471.938 472.295 474.848 474.981 478.438 474.981Z" fill="#1a3263" style="fill: #1a3263; fill: var(--tblr-illustrations-primary, var(--tblr-primary, #1a3263));"/>
    <path d="M327.437 476.981C331.027 476.981 333.938 474.071 333.938 470.481C333.938 466.891 331.027 463.981 327.437 463.981C323.848 463.981 320.938 466.891 320.938 470.481C320.938 474.071 323.848 476.981 327.437 476.981Z" fill="#1a3263" style="fill: #1a3263; fill: var(--tblr-illustrations-primary, var(--tblr-primary, #1a3263));"/>
    <path d="M504.438 411.981C509.132 411.981 512.938 408.175 512.938 403.481C512.938 398.787 509.132 394.981 504.438 394.981C499.743 394.981 495.938 398.787 495.938 403.481C495.938 408.175 499.743 411.981 504.438 411.981Z" fill="#1a3263" style="fill: #1a3263; fill: var(--tblr-illustrations-primary, var(--tblr-primary, #1a3263));"/>
    <path d="M491.937 478.993L491.914 479.017C484.568 486.245 473.314 495.608 457.764 503.17C457.764 503.17 436.421 513.548 412.983 515.563C408.039 515.993 403.248 515.981 403.248 515.981C401.517 515.981 399.74 515.933 398.045 515.85C361.316 514.239 332.664 494.022 332.664 494.022C329.167 491.565 324.305 487.891 318.938 482.786C329.673 483.335 339.162 483.657 347.061 483.859C347.308 483.859 347.543 483.871 347.79 483.871C359.562 484.17 368.521 484.217 373.865 484.229H374.265C382.847 484.253 391.594 484.217 400.434 484.062C410.923 483.907 421.235 483.609 431.418 483.203C431.536 483.203 431.654 483.191 431.759 483.191C440.247 482.869 447.993 482.559 458.046 481.915C458.282 481.891 458.493 481.879 458.717 481.867C467.264 481.307 478.565 480.436 491.926 478.981L491.937 478.993Z" fill="#1a3263" style="fill: #1a3263; fill: var(--tblr-illustrations-primary, var(--tblr-primary, #1a3263));"/>
    <path d="M308.349 122.408L308.937 50.1422C308.961 47.6458 306.739 45.7055 304.228 46.0131L291.613 47.5512C289.126 47.8588 287.468 50.2132 288.057 52.615L305.177 122.763C305.621 124.585 308.337 124.277 308.361 122.408H308.349Z" fill="#1a3263" style="fill: #1a3263; fill: var(--tblr-illustrations-primary, var(--tblr-primary, #1a3263));"/>
    <path d="M279.563 130.188L247.889 88.4909C246.486 86.6513 243.786 86.4626 242.146 88.09L236.073 94.1158C234.446 95.7195 234.587 98.3845 236.368 99.8232L277.111 132.582C278.703 133.855 280.802 131.815 279.563 130.188Z" fill="#DADCE0"/>
    <path d="M269.214 152.951L236.665 141.141C235.235 140.619 233.638 141.425 233.293 142.844L232.005 148.045C231.66 149.453 232.673 150.827 234.174 151.009L268.702 154.972C269.989 155.12 270.442 153.394 269.226 152.951H269.214Z" fill="#A6A9B3"/>
    <path d="M558.938 313.035C558.938 321.77 558.525 330.446 557.689 338.874C557.571 342.167 557.277 345.767 556.747 349.663C556.182 353.676 555.428 357.359 554.616 360.652C553.45 366.932 552.084 373.082 550.459 379.114C549.693 382.053 548.881 384.945 547.986 387.825C546.361 393.231 544.535 398.531 542.522 403.725C541.874 405.413 541.203 407.077 540.52 408.742C539.849 410.406 539.13 412.047 538.4 413.676C536.245 418.61 533.913 423.402 531.44 428.065C529.615 431.512 527.719 434.876 525.729 438.145C522.42 443.622 518.899 448.863 515.178 453.856C515.166 453.856 515.166 453.868 515.166 453.868C508.171 463.323 500.434 471.869 492.132 479.377L492.109 479.4C484.76 486.554 473.502 495.82 457.946 503.303C457.946 503.303 436.596 513.573 413.15 515.568C408.204 515.993 403.412 515.981 403.412 515.981C401.681 515.981 399.902 515.934 398.207 515.851C361.465 514.258 332.803 494.25 332.803 494.25C329.305 491.818 324.442 488.182 319.072 483.13C317.341 481.667 315.621 480.168 313.938 478.609C315.445 478.598 317.117 478.586 318.966 478.527C321.627 478.468 324.642 478.362 327.951 478.161C333.815 477.83 340.61 477.24 348.147 476.284C348.641 476.225 349.16 476.142 349.666 476.083C354.494 475.422 359.617 474.62 364.963 473.616C366.576 473.309 368.201 472.991 369.862 472.66C379.624 470.665 390.105 468.033 400.95 464.527C403.188 463.807 405.437 463.04 407.698 462.249C424.844 456.229 442.779 448.014 460.325 436.847C460.996 436.422 461.679 435.985 462.351 435.537C469.216 431.098 476.023 426.188 482.664 420.758C482.959 420.522 483.241 420.286 483.536 420.038C488.105 416.308 492.591 412.33 496.996 408.081C497.596 407.514 498.185 406.947 498.774 406.369C501.989 403.217 505.156 399.924 508.253 396.489C508.619 396.088 508.972 395.71 509.325 395.309C510.22 394.329 511.103 393.326 511.939 392.31C512.045 392.192 512.14 392.063 512.246 391.956C517.521 385.854 522.585 379.326 527.437 372.362C528.167 371.311 528.897 370.249 529.603 369.186C531.17 366.849 532.7 364.465 534.22 362.021C534.997 360.794 535.762 359.543 536.516 358.268C544.936 344.209 552.496 328.498 558.914 310.981C558.926 311.654 558.926 312.35 558.926 313.023L558.938 313.035Z" fill="black" opacity="0.1"/>
</svg>
