<svg xmlns="http://www.w3.org/2000/svg" width="800" height="600" fill="none" viewBox="0 0 800 600">
    <style>
        :where(.theme-dark, [data-theme="dark"]) .tblr-illustrations-gardening-a { fill: black; opacity: 0.07; } :where(.theme-dark, [data-theme="dark"]) .tblr-illustrations-gardening-b { fill: black; opacity: 0.3; } :where(.theme-dark, [data-theme="dark"]) .tblr-illustrations-gardening-c { fill: #24304d; }
        @media (prefers-color-scheme: dark) { .tblr-illustrations-gardening-a { fill: black; opacity: 0.07; } .tblr-illustrations-gardening-b { fill: black; opacity: 0.3; } .tblr-illustrations-gardening-c { fill: #24304d; } }
    </style>
    <path d="M135.912 316.125C135.912 359.939 182.281 391.698 202.643 427.175C223.918 463.778 228.863 519.528 265.435 540.595C300.764 561.093 351.18 538.12 394.958 538.12C438.736 538.12 489.152 560.987 524.481 540.595C560.947 519.422 566.011 463.672 587.167 427.175C607.648 391.817 653.898 359.939 653.898 316.125C653.898 272.31 607.648 240.551 587.167 205.074C566.011 168.578 560.947 112.721 524.481 91.6545C489.033 71.1567 438.736 94.1291 394.958 94.1291C351.18 94.1291 300.764 71.1567 265.435 91.5354C228.968 112.708 223.904 168.458 202.749 204.955C182.268 240.538 136.017 272.31 135.898 316.111" fill="#1a3263" style="fill: #1a3263; fill: var(--tblr-illustrations-primary, var(--tblr-primary, #1a3263));" opacity="0.02" class="tblr-illustrations tblr-illustrations-vocate tblr-illustrations-gardening-a"/>
    <path d="M138.898 519.605C138.898 523.168 253.711 526.105 394.898 526.105C536.086 526.105 650.898 523.168 650.898 519.605C650.898 516.042 536.404 513.105 394.898 513.105C253.393 513.105 138.898 516.042 138.898 519.605Z" fill="#d9e2f3" opacity="0.5" class="tblr-illustrations tblr-illustrations-vocate tblr-illustrations-gardening-b"/>
    <path d="M492.623 472.43C494.786 477.38 497.37 483.613 500.166 490.998C502.104 496.133 504.174 501.837 506.271 508.084C523.584 508.163 540.607 508.004 557.696 507.872C565.581 502.287 606.102 472.999 600.34 456.403C600.208 456.046 597.874 449.561 593.443 448.86C590.002 448.291 587.114 451.48 574.456 460.374C570.856 462.915 569.735 463.47 568.258 463.259C562.074 462.637 558.567 450.779 562.14 443.778C562.918 442.295 564.263 441.157 565.964 440.191C572.649 436.366 585.07 435.056 592.389 425.501C596.12 420.697 597.241 416.806 597.386 413.841C597.465 412.439 597.808 405.861 594.01 403.399C593.641 403.148 593.232 402.976 592.771 402.857C586.534 401.202 573.177 410.559 572.214 411.221C571.159 412.081 569.827 412.505 568.482 412.425C567.085 412.214 565.819 411.592 564.83 410.586C564.25 410.017 563.92 409.117 563.801 407.939V407.886C563.749 407.383 563.722 406.814 563.762 406.192C563.96 397.047 570.829 377.632 564.131 366.105C561.415 361.446 556.351 357.966 551.631 356.682C548.637 355.848 545.776 355.888 543.719 357C541.886 357.992 538.59 360.467 538.722 370.287C539.144 393.791 551.182 416.674 546.884 419.929C545.684 420.842 543.719 419.982 542.163 419.36C526.907 413.008 530.428 382.793 518.877 380.305C516.569 379.882 514.169 380.438 512.323 381.92C506.574 386.499 508.803 399.786 512.969 408.548C514.169 411.089 517.69 415.747 524.784 424.985C531.891 434.249 532.524 434.606 533.302 437.002C537.113 447.655 531.614 461.154 526.261 462.412C523.254 463.113 519.088 459.527 513.616 451.255C506.073 440.019 493.639 441.501 488.483 449.283C484.554 455.133 488.694 463.245 492.637 472.43H492.623Z" fill="#1a3263" style="fill: #1a3263; fill: var(--tblr-illustrations-primary, var(--tblr-primary, #1a3263));"/>
    <path d="M499.898 491.069C501.842 496.183 503.918 501.863 506.02 508.084C523.379 508.163 540.447 508.005 557.582 507.873C565.488 502.311 606.116 473.145 600.338 456.617C600.206 456.261 597.866 449.804 593.424 449.105C593.424 449.105 593.635 449.474 593.926 450.159C596.068 455.326 602.308 477.942 551.354 488.235C527.755 492.993 511.216 492.901 499.912 491.095L499.898 491.069Z" fill="black" opacity="0.1"/>
    <path d="M565.898 440.105H565.939C572.729 436.314 585.345 435.016 592.778 425.546C596.568 420.785 597.706 416.929 597.854 413.991C597.934 412.601 598.282 406.082 594.425 403.643C594.05 403.394 593.635 403.223 593.166 403.105C593.166 403.105 586.001 429.166 565.912 440.105H565.898Z" fill="black" opacity="0.1"/>
    <path d="M551.898 357.105C551.898 357.105 562.835 374.224 563.694 406.105C563.886 397.054 570.566 377.839 564.053 366.431C561.412 361.82 556.488 358.375 551.898 357.105Z" fill="black" opacity="0.1"/>
    <path d="M198.095 464.722C193.875 461.759 172.109 446.165 175.197 437.356C175.264 437.145 176.515 433.719 178.898 433.335C180.749 433.031 182.28 434.737 189.109 439.459C191.039 440.795 191.638 441.099 192.424 441.007C195.725 440.663 197.642 434.354 195.699 430.65C193.675 426.775 184.383 427.304 179.444 420.942C177.447 418.376 176.821 416.326 176.742 414.752C176.702 414.024 176.529 410.506 178.565 409.197C181.494 407.292 189.721 412.993 190.28 413.363C190.547 413.535 191.305 414.077 192.277 414.011C192.277 414.011 193.289 413.945 194.247 413.046C196.75 410.678 190.2 396.909 194.62 389.423C197.016 385.362 202.714 383.048 205.576 384.582C206.548 385.111 208.332 386.42 208.239 391.658C208.013 404.157 201.569 416.326 203.846 418.032C204.485 418.521 205.536 418.072 206.388 417.728C214.589 414.355 212.685 398.285 218.889 396.962C220.353 396.645 221.698 397.279 222.417 397.835C225.518 400.269 224.307 407.345 222.071 412.001C221.418 413.35 219.528 415.823 215.734 420.744C211.953 425.664 211.607 425.836 211.154 427.106C209.118 432.78 212.073 439.935 214.922 440.623C216.559 441.02 218.782 439.089 221.724 434.698C225.758 428.719 232.441 429.539 235.197 433.64C235.982 434.804 236.941 437.541 232.947 445.94C228.727 454.842 225.625 461.376 218.237 464.021C216.186 464.749 212.619 465.622 207.72 464.722H198.121H198.095Z" fill="#0b1b3b" class="tblr-illustrations tblr-illustrations-vocate tblr-illustrations-gardening-c"/>
    <path d="M267.23 470.105C267.23 470.105 238.327 445.177 259.891 415.391C281.455 385.592 299.343 376.272 298.89 407.461C298.437 438.651 267.23 470.105 267.23 470.105Z" fill="#A6A9B3"/>
    <path d="M277.898 445.523C277.898 455.66 271.094 456.267 272.878 466.245C273.723 470.997 275.441 473.716 276.789 476.105H239.345C238.434 473.584 237.984 471.129 237.984 465.797C237.984 455.66 243.045 455.66 243.045 445.523C243.045 435.386 237.984 435.386 237.984 425.249C237.984 415.112 243.045 415.112 243.045 404.962C243.045 398.31 239.504 395.433 237.998 391.526C237.866 390.76 237.799 389.678 238.235 388.556C241.34 380.61 266.655 379.145 273.75 389.057C274.622 390.272 276.194 393.017 277.119 396.594C278.031 400.131 277.872 403.035 277.872 404.962C277.872 415.099 272.812 415.099 272.812 425.236C272.812 435.373 277.872 435.373 277.872 445.51L277.898 445.523Z" fill="#1a3263" style="fill: #1a3263; fill: var(--tblr-illustrations-primary, var(--tblr-primary, #1a3263));"/>
    <path d="M249.804 466.105C249.547 466.105 249.304 465.999 249.125 465.787C248.792 465.402 248.83 464.806 249.214 464.461C257.169 457.274 260.846 450.738 260.116 445.01C259.782 442.371 258.489 440.117 257.118 437.731C255.171 434.336 252.968 430.491 253.467 425.029C253.903 420.176 255.568 416.808 255.632 416.662C256.093 415.734 256.49 415.124 256.913 414.474C257.361 413.785 257.823 413.069 258.463 411.849C258.911 410.974 260.423 407.938 260.897 405.657C261.883 400.897 258.899 396.071 257.028 393.618C256.721 393.207 256.785 392.624 257.182 392.305C257.579 391.987 258.143 392.053 258.45 392.465C260.513 395.169 263.805 400.539 262.665 406.055C262.152 408.561 260.538 411.796 260.064 412.724C259.385 414.037 258.873 414.819 258.425 415.522C258.015 416.145 257.669 416.689 257.246 417.524C257.233 417.551 255.671 420.733 255.273 425.201C254.838 430.067 256.798 433.475 258.681 436.776C260.09 439.229 261.537 441.761 261.922 444.771C262.729 451.149 258.86 458.256 250.419 465.866C250.252 466.025 250.034 466.092 249.829 466.092L249.804 466.105Z" fill="#DADCE0"/>
    <path d="M295.898 465.931L294.501 480.32L291.134 515.293C291.134 517.397 289.417 519.105 287.301 519.105H181.004C178.887 519.105 177.171 517.397 177.171 515.293L176.439 506.874L172.898 465.931C172.898 463.826 174.615 462.105 176.731 462.105H292.039C294.062 462.105 295.712 463.667 295.859 465.626C295.885 465.719 295.885 465.838 295.885 465.931H295.898Z" fill="#DADCE0"/>
    <path d="M428.456 220.332C428.416 220.927 428.349 221.521 428.296 222.115C428.19 223.106 428.15 223.832 428.15 223.898C427.684 229.616 425.422 236.311 425.422 236.311C424.144 240.101 422.494 257.189 420.511 307.092H420.658L333.922 307.105C332.206 273.035 330.143 248.143 329.251 242.597C328.48 237.777 327.482 233.379 327.482 233.379C326.923 230.883 326.39 228.85 326.018 227.516C325.672 224.003 325.326 220.491 324.98 216.965C324.647 213.703 324.314 210.428 323.968 207.153C323.742 204.922 323.516 202.69 323.29 200.471C323.064 198.24 322.837 196.034 322.611 193.803C321.374 181.561 320.109 169.346 318.898 157.105H326.47L341.374 157.131H348.44L371.315 157.197L394.07 157.224L407.843 157.25H412.86L426.686 157.277H430.359C431.503 157.158 432.648 157.131 433.805 157.29H433.898" fill="#1a3263" style="fill: #1a3263; fill: var(--tblr-illustrations-primary, var(--tblr-primary, #1a3263));"/>
    <path d="M335.564 149.882L335.551 149.885C331.655 150.866 329.291 154.82 330.272 158.716L343.637 211.808C344.618 215.704 348.572 218.067 352.468 217.087L352.481 217.083C356.377 216.103 358.741 212.149 357.76 208.252L344.395 155.161C343.414 151.265 339.46 148.901 335.564 149.882Z" fill="#DADCE0"/>
    <path d="M417.053 219.65L417.066 219.651C421.079 219.849 424.492 216.756 424.69 212.743L427.383 158.061C427.581 154.048 424.488 150.635 420.475 150.437L420.462 150.436C416.449 150.239 413.035 153.332 412.838 157.345L410.144 212.026C409.947 216.039 413.04 219.453 417.053 219.65Z" fill="#DADCE0"/>
    <path d="M429.885 208.693C429.459 212.158 428.832 217.507 428.193 224.107C427.713 228.982 427.886 227.651 427.087 236.557C426.501 243.197 425.914 249.837 425.301 256.463C425.275 256.779 425.248 257.069 425.221 257.385C425.141 258.294 425.061 259.203 424.982 260.099C424.968 260.231 424.955 260.35 424.955 260.481C424.888 261.153 424.835 261.825 424.768 262.497C424.702 263.169 424.648 263.828 424.608 264.499C424.422 266.476 424.249 268.439 424.075 270.415C423.889 272.391 423.729 274.354 423.569 276.343C423.462 277.674 423.343 278.991 423.223 280.295C423.209 280.454 423.196 280.625 423.183 280.783C423.169 280.862 423.169 280.941 423.169 281.033C423.169 281.112 423.156 281.178 423.143 281.27H422.85C422.756 282.272 422.663 283.26 422.583 284.261C422.356 286.632 422.143 288.99 421.93 291.362C421.45 296.605 420.997 301.835 420.558 307.092H420.704L382.368 307.105C366.205 307.092 350.029 307.092 333.852 307.092C333.812 306.631 333.759 306.183 333.719 305.722C333.386 302.507 333.053 299.332 332.733 296.144C332.653 295.564 332.6 294.998 332.546 294.418C332.44 293.404 332.333 292.389 332.24 291.375C332.107 290.176 332 289.004 331.88 287.818C331.813 287.33 331.76 286.843 331.734 286.369C331.654 285.671 331.587 284.972 331.507 284.261C331.414 283.431 331.347 282.601 331.267 281.784C331.201 281.27 331.161 280.783 331.121 280.295C330.987 278.978 330.867 277.674 330.734 276.343C330.534 274.354 330.361 272.391 330.161 270.415C329.961 268.439 329.788 266.476 329.602 264.499C329.348 261.825 329.082 259.138 328.842 256.45L328.362 251.668L328.282 250.983L327.35 241.682L325.95 227.691C325.471 222.684 324.951 217.691 324.445 212.685C324.285 210.907 324.098 209.128 323.898 207.376C325.924 207.02 327.989 206.678 330.135 206.348C332.786 205.94 335.544 205.571 338.383 205.229C339.156 205.123 339.942 205.031 340.741 204.926C344.712 204.478 348.843 204.096 353.147 203.806C360.609 203.266 368.55 203.015 376.878 203.134C385.38 203.252 393.428 203.727 400.957 204.491C406.087 204.978 410.977 205.611 415.614 206.309C417.48 206.586 420.318 207.06 420.771 207.126C424.555 207.745 427.686 208.272 429.898 208.654L429.885 208.693Z" fill="#DADCE0"/>
    <path d="M334.207 189.118C338.419 201.26 344.969 207.766 348.836 210.92C362.428 222.032 383.155 224.764 397.106 223.194C399.02 222.983 401.717 222.587 401.89 223.128C402.634 225.543 356.303 241.446 356.303 241.446C356.303 241.446 331.178 244.64 329.902 245.273C320.92 249.734 307.262 235.375 305.189 223.194C302.877 209.601 314.53 193.249 334.22 189.105L334.207 189.118Z" fill="black" opacity="0.1"/>
    <path d="M390.516 148.843C372.435 146.409 353.889 134.853 352.548 128.898C352.269 127.406 352.004 125.914 351.712 124.409C351.685 124.239 351.659 124.056 351.619 123.886V123.833C350.69 115.588 350.637 107.383 351.592 99.2293C351.632 98.732 351.699 98.2478 351.752 97.7636C351.792 97.2008 352.057 95.5649 352.323 93.9159C353.331 88.367 354.208 83.6294 354.964 79.7949C355.177 78.7871 355.376 77.8318 355.548 76.9549C355.602 76.6932 355.655 76.4315 355.708 76.1828C355.708 76.1697 355.708 76.1566 355.708 76.1566C355.787 75.8949 355.84 75.6331 355.894 75.3583C355.947 75.9211 356.478 77.8841 357.434 79.0882C357.699 79.4284 358.018 79.7033 358.363 79.8734C358.535 79.9519 358.721 80.0173 358.92 80.0435C360.819 80.2006 363.222 76.6932 364.297 71.105L376.895 74.2066L376.922 74.1936L396.728 79.0882L397.379 79.2321L399.861 82.7002L405.41 90.4347L408.198 94.3347C408.198 94.3347 408.198 96.2585 408.304 99.4256C408.291 100.185 408.304 100.957 408.344 101.716C408.397 104.111 408.57 106.467 408.835 108.835C409.074 111.047 409.367 113.259 409.698 115.484C409.698 115.562 409.725 115.654 409.738 115.732C410.269 119.698 411.477 123.414 413.309 126.961C419.084 136.03 408.583 151.29 390.516 148.843Z" fill="#FFCB9D" style="fill: #FFCB9D; fill: var(--tblr-illustrations-skin, #FFCB9D);"/>
    <path d="M409.898 115.478C395.868 116.662 381.705 113.266 369.778 105.861C369.259 107.657 368.633 109.206 367.754 110.845C366.756 113.253 365.372 115.686 363.521 117.755C361.831 119.889 359.581 121.398 357.318 122.504C355.641 123.311 353.631 123.884 351.714 124.105C351.687 123.936 351.661 123.754 351.621 123.584V123.532C350.689 115.335 350.636 107.176 351.594 99.0689C351.634 98.5744 351.701 98.093 351.754 97.6115C351.794 97.0519 352.06 95.4254 352.326 93.7858C353.338 88.2685 354.217 83.558 354.975 79.7453C355.188 78.7433 355.388 77.7934 355.561 76.9216C355.96 77.8975 356.573 78.8344 357.451 79.0426C357.718 79.3809 358.037 79.6542 358.383 79.8234C358.556 79.9014 358.743 79.9665 358.942 79.9925C360.846 80.1487 363.255 76.6613 364.333 71.105L376.966 74.1889L376.993 74.1759L396.853 79.0426L397.505 79.1858L399.995 82.6341L405.559 90.3245L408.354 94.2022C408.354 94.2022 408.354 96.115 408.461 99.2641C408.447 100.019 408.461 100.787 408.501 101.541C408.554 103.923 408.727 106.265 408.993 108.62C409.233 110.819 409.526 113.018 409.859 115.23C409.859 115.309 409.885 115.4 409.898 115.478Z" fill="black" opacity="0.1"/>
    <path d="M422.874 98.7432C422.44 99.3434 421.98 99.9175 421.468 100.479L421.231 100.583C420.798 101.196 420.18 101.718 419.576 102.253C419.51 102.423 419.208 102.684 418.971 102.788C416.449 104.693 413.834 106.35 410.785 107.668C409.931 108.02 409.09 108.333 408.21 108.581C408.026 108.659 407.803 108.712 407.592 108.764C389.578 113.657 370.88 97.0731 364.179 90.4057L364.113 90.5753C363.692 92.141 363.18 93.8764 362.851 95.677C362.681 96.5773 362.549 96.9035 362.589 97.3079C362.628 97.7124 362.549 97.869 362.549 97.869C362.392 101.666 361.84 105.515 361.104 109.273C360.329 111.66 358.791 113.565 356.807 115.105C357.07 111.543 356.426 107.798 354.849 104.471C354.166 103.245 353.43 102.175 352.681 101.105C352.274 100.413 351.893 99.6957 351.551 98.978C351.459 98.7954 351.367 98.6127 351.288 98.43C348.844 92.9761 348.266 86.9089 349.593 81.1419C349.751 80.5156 349.935 79.9023 350.132 79.2891C350.802 77.2797 351.735 75.3095 353.01 73.6003C355.191 69.6338 358.305 66.2283 362.234 63.7101C373.14 56.8601 387.055 58.4519 398.67 63.2796C400.431 64.0102 402.139 64.8192 403.769 65.6934C406.278 66.9982 408.604 68.4334 410.706 69.9339H410.733L411.271 70.3384C412.362 71.1082 413.689 72.0868 415.108 73.248C417.289 75.0355 419.641 77.2536 421.665 79.7718C421.783 79.9284 421.915 80.085 422.02 80.2416C422.545 80.92 423.045 81.6246 423.491 82.3422C425.843 85.8912 426.566 90.2491 425.239 94.3853C425.2 94.5157 425.16 94.6593 425.108 94.7767L424.845 95.4421C424.254 96.5773 423.623 97.6863 422.861 98.7432H422.874Z" fill="#0b1b3b" class="tblr-illustrations tblr-illustrations-vocate tblr-illustrations-gardening-c"/>
    <path d="M364.539 90.5062C371.599 97.6948 392.045 116.204 410.91 108.086C413.943 106.757 416.558 105.056 419.055 103.116C419.29 103.01 419.591 102.744 419.656 102.571C420.257 102.027 420.859 101.482 421.29 100.871L421.526 100.764C422.924 99.1697 423.996 97.429 424.898 95.6352C420.362 98.3193 415.29 100.405 410.034 101.429C384.215 106.531 363.337 86.6661 360.16 83.4106L359.898 83.105C361.245 85.6163 362.748 88.1941 364.552 90.5062H364.539Z" fill="black" opacity="0.5"/>
    <path d="M466.898 351.012C460.158 373.254 453.405 395.508 446.651 417.75C446.229 419.151 445.807 420.54 445.385 421.941C442.522 421.227 439.66 420.513 436.785 419.786C436.56 417.869 436.349 415.938 436.138 414.021C434.015 395.257 431.891 376.493 429.767 357.73C416.484 351.131 403.215 344.52 389.932 337.908C378.614 387.641 367.31 437.36 355.993 487.105H341.325L333.898 307.27C357.589 304.361 381.292 301.439 404.982 298.53L416.273 297.128C417.487 296.454 418.687 295.779 419.887 295.105C435.558 313.736 451.241 332.368 466.898 351.012Z" fill="#DADCE0"/>
    <path d="M466.898 351.189C460.155 373.49 453.399 395.804 446.642 418.105L436.125 414.353C434 395.539 431.876 376.725 429.751 357.911C416.462 351.295 403.187 344.666 389.898 338.036L404.955 298.539L416.251 297.134C417.465 296.457 418.666 295.781 419.867 295.105C435.544 313.786 451.235 332.468 466.898 351.162V351.189Z" fill="black" opacity="0.1"/>
    <path d="M371.898 520.105L340.005 516.389C340.005 516.389 338.882 507.796 343.916 504.674C348.95 501.553 366.671 511.903 371.898 520.105Z" fill="#0b1b3b" class="tblr-illustrations tblr-illustrations-vocate tblr-illustrations-gardening-c"/>
    <path d="M459.812 92.895C458.899 96.6296 449.401 97.8125 435.007 96.7094C422.135 95.7259 405.334 92.895 387.237 88.3895C348.899 78.8336 319.225 65.3704 320.972 58.3131C321.911 54.4721 331.965 53.3159 347.113 54.6183C359.799 55.6949 376.071 58.4859 393.56 62.8319C431.898 72.3877 461.571 85.8378 459.825 92.9083L459.812 92.895Z" fill="#DADCE0"/>
    <path d="M426.662 57.1304L423.161 71.5136L422.201 75.4947C421.056 80.1595 416.423 83.0013 411.857 81.8485L367.388 70.6154C362.808 69.4626 360.018 64.7308 361.15 60.0794L362.085 56.2323L365.625 41.715C366.625 37.573 370.376 34.8787 374.403 35.12C374.916 35.1468 375.429 35.2406 375.956 35.3747L420.424 46.6077C421.451 46.8758 422.398 47.3182 423.24 47.908C426.057 49.9187 427.517 53.5513 426.649 57.1438L426.662 57.1304Z" fill="#DADCE0"/>
    <path d="M424.815 73.7793L423.414 79.6326C423.044 81.2117 421.577 82.2735 420.005 82.0829C413.093 81.2525 405.56 80.0682 397.525 78.3258C394.26 77.618 390.904 76.8285 387.481 75.9437C376.432 73.0714 366.547 69.6819 357.904 66.2244C356.424 65.6254 355.618 63.9919 355.988 62.4129L357.402 56.5731C357.666 55.4433 358.472 54.6266 359.45 54.2862C360.243 54.0004 361.142 54.0412 361.961 54.4904C369.058 58.4925 378.521 62.8621 390.124 65.9113C402.401 69.1374 413.317 69.8861 421.723 69.7636C423.784 69.7364 425.304 71.7238 424.802 73.7929L424.815 73.7793Z" fill="#1a3263" style="fill: #1a3263; fill: var(--tblr-illustrations-primary, var(--tblr-primary, #1a3263));"/>
    <path d="M434.885 96.0919C422.027 95.1226 405.244 92.3328 387.166 87.8926C348.869 78.4752 319.227 65.2071 320.972 58.2521C321.91 54.4668 331.953 53.3273 347.085 54.6109C347.085 54.6109 305.946 67.9445 434.898 96.105L434.885 96.0919Z" fill="black" opacity="0.1"/>
    <path d="M423.898 47.8461C416.914 48.1403 406.403 48.3542 400.039 47.4985C389.832 46.1482 374.925 35.1184 374.925 35.1184C374.925 35.1184 374.925 35.1183 374.898 35.105C375.413 35.1317 375.928 35.2119 376.456 35.3456L421.073 46.5493C422.103 46.8167 423.053 47.2579 423.898 47.8461Z" fill="black" opacity="0.1"/>
    <path d="M397.898 78.092C394.605 77.4151 391.218 76.6602 387.764 75.8141C376.617 73.0676 366.643 69.8265 357.922 66.5204C356.429 65.9476 355.615 64.3857 355.989 62.8758L357.415 57.2917C357.682 56.2114 358.495 55.4304 359.482 55.105C359.482 55.105 375.363 71.8962 397.898 78.105V78.092Z" fill="black" opacity="0.1"/>
    <path d="M371.898 155.105C375.93 159.174 381.168 161.912 386.873 162.954L387.676 163.105L401.898 156.888L371.898 155.105Z" fill="#FFCB9D" style="fill: #FFCB9D; fill: var(--tblr-illustrations-skin, #FFCB9D);"/>
    <path d="M371.898 155.105C375.93 159.174 381.168 161.912 386.873 162.954L387.676 163.105L401.898 156.888L371.898 155.105Z" fill="black" opacity="0.1"/>
    <path d="M387.898 163.173L405.81 150.105L409.898 154.47L397.725 173.105L387.898 163.173Z" fill="#DADCE0"/>
    <path d="M386.898 163.381L359.119 146.105L352.898 151.881L371.615 176.105L386.898 163.381Z" fill="#DADCE0"/>
    <path d="M387.898 163.173L405.81 150.105L409.898 154.47L397.725 173.105L387.898 163.173Z" fill="black" opacity="0.11"/>
    <path d="M393.482 215.105C394.275 202.99 395.08 190.902 395.898 178.854C392.94 173.542 390.133 168.403 387.1 163.105L386.319 163.265C383.701 168.643 380.894 173.888 377.898 179.147C380.164 191.129 382.417 203.123 384.658 215.105H393.482Z" fill="#DADCE0"/>
    <path d="M394.132 215.092C395.04 202.981 395.962 190.897 396.898 178.853C393.512 173.55 390.299 168.234 386.898 163.105L389.665 215.105H394.146L394.132 215.092Z" fill="black" opacity="0.11"/>
    <path d="M351.398 216.105C353.884 216.105 355.898 214.09 355.898 211.605C355.898 209.12 353.884 207.105 351.398 207.105C348.913 207.105 346.898 209.12 346.898 211.605C346.898 214.09 348.913 216.105 351.398 216.105Z" fill="#1a3263" style="fill: #1a3263; fill: var(--tblr-illustrations-primary, var(--tblr-primary, #1a3263));"/>
    <path d="M417.398 218.105C419.884 218.105 421.898 216.09 421.898 213.605C421.898 211.12 419.884 209.105 417.398 209.105C414.913 209.105 412.898 211.12 412.898 213.605C412.898 216.09 414.913 218.105 417.398 218.105Z" fill="#1a3263" style="fill: #1a3263; fill: var(--tblr-illustrations-primary, var(--tblr-primary, #1a3263));"/>
    <path d="M358.238 489.105H340.107C338.588 489.105 337.306 487.956 337.134 486.419L335.918 475.464C335.707 473.606 337.213 472.003 339.063 472.11L360.089 473.339C361.873 473.446 363.168 475.089 362.851 476.866L361.185 486.58C360.934 488.023 359.692 489.078 358.238 489.078V489.105Z" fill="#A6A9B3"/>
    <path d="M447.678 426.086L433.821 423.63C432.665 423.425 431.836 422.348 431.902 421.134L432.375 412.375C432.454 410.888 433.808 409.838 435.202 410.165L451.109 413.971C452.45 414.299 453.225 415.758 452.765 417.109L450.241 424.503C449.86 425.608 448.782 426.263 447.678 426.072V426.086Z" fill="#A6A9B3"/>
    <path d="M295.898 465.958L294.501 480.501C229.454 479.431 178.835 508.41 177.371 508.103C177.371 508.103 177.038 507.835 176.439 507.353L172.898 465.972C172.898 463.844 174.615 462.105 176.732 462.105H280.339C286.142 463.43 291.479 464.66 295.872 465.664C295.898 465.757 295.898 465.878 295.898 465.972V465.958Z" fill="black" opacity="0.1"/>
    <path d="M295.873 457.105H172.924C170.701 457.105 168.898 458.916 168.898 461.149V477.061C168.898 479.294 170.701 481.105 172.924 481.105H295.873C298.096 481.105 299.898 479.294 299.898 477.061V461.149C299.898 458.916 298.096 457.105 295.873 457.105Z" fill="#DADCE0"/>
    <path d="M430.898 451.77L421.636 453.105L404.153 327.907L403.437 322.752L398.851 289.836L395.099 262.922L394.617 259.472L389.302 221.401L388.898 218.44L398.161 217.105L398.669 220.74L401.887 243.847L404.492 262.473L408.739 292.956L411.501 312.666L412.113 317.081L430.898 451.77Z" fill="#A6A9B3"/>
    <path d="M448.718 439.105L448.292 439.171L401.898 445.669L411.092 510.105C413.78 508.107 419.062 504.626 426.499 502.443C428.867 501.728 431.448 501.146 434.256 500.788C445.113 499.385 453.734 501.953 457.898 503.514C454.838 482.036 451.765 460.557 448.731 439.105H448.718Z" fill="#DADCE0"/>
    <path d="M447.885 439.105L401.898 445.609L411.011 510.105C413.675 508.105 418.911 504.621 426.283 502.435C427.839 490.342 433.075 459.014 447.898 439.105H447.885Z" fill="black" opacity="0.1"/>
    <path d="M421.898 509.393C418.487 485.964 415.076 462.534 411.665 439.105C410.199 439.346 407.454 440.001 404.723 442.06C402.804 443.505 401.605 445.123 400.898 446.246L411.612 511.105C415.036 510.53 418.461 509.968 421.898 509.393Z" fill="#DADCE0"/>
    <path d="M401.898 243.318C399.557 247.655 396.919 252.993 394.389 259.105L388.898 220.673C391.684 219.592 395.102 218.698 397.134 219.298C397.552 219.418 398.036 219.672 398.574 220.006L401.898 243.332V243.318Z" fill="black" opacity="0.1"/>
    <path d="M411.886 316.449C410.711 316.489 409.357 316.726 407.965 317.425C405.616 318.585 404.198 320.483 403.394 322.105L398.898 289.276C399.92 289.329 401.031 289.369 402.474 289.355C404.734 289.329 406.561 289.197 407.735 289.105C408.029 290.199 408.31 291.294 408.604 292.388L411.298 312.032L411.898 316.436L411.886 316.449Z" fill="black" opacity="0.1"/>
    <path d="M616.898 520.105H396.975C395.639 517.59 393.641 512.626 395.969 506.997C400.083 497.043 414.593 492.652 419.553 491.148C431.193 487.622 442.621 487.649 456.721 488.793C500.872 492.399 504.258 501.661 535.831 502.979C563.065 504.123 572.271 497.722 590.722 503.311C604.201 507.397 612.282 514.769 616.898 520.092V520.105Z" fill="#0b1b3b" class="tblr-illustrations tblr-illustrations-vocate tblr-illustrations-gardening-c"/>
    <path d="M412.468 219.198L378.666 223.985C376.771 224.253 375.452 226.007 375.72 227.902L376.295 231.962C376.564 233.857 378.317 235.176 380.212 234.907L414.015 230.12C415.91 229.852 417.229 228.098 416.96 226.203L416.385 222.143C416.117 220.248 414.363 218.929 412.468 219.198Z" fill="#0b1b3b" class="tblr-illustrations tblr-illustrations-vocate tblr-illustrations-gardening-c"/>
    <path d="M377.244 214.957C378.633 213.883 380.128 212.899 381.65 212.122C382.518 211.721 383.492 211.398 384.467 211.074C393.278 208.356 402.29 211.553 404.426 218.206C406.362 224.186 402.17 230.864 395.067 234.152C394.2 234.553 393.345 234.967 392.451 235.174C391.556 235.381 390.675 235.602 389.781 235.809C381.904 237.116 374.427 234.022 372.491 228.03C370.769 223.603 372.932 218.568 377.244 214.957Z" fill="#FFCB9D" style="fill: #FFCB9D; fill: var(--tblr-illustrations-skin, #FFCB9D);"/>
    <path d="M377.205 214.942C378.584 213.867 380.068 212.882 381.579 212.105C385.449 219.721 389.796 227.182 394.898 234.15C394.037 234.552 393.189 234.966 392.301 235.174C391.413 235.381 390.538 235.601 389.65 235.808C381.831 237.117 374.409 234.021 372.487 228.024C370.777 223.594 372.925 218.555 377.205 214.942Z" fill="black" opacity="0.1"/>
    <path d="M378.309 211.007C381.843 229.369 385.377 247.73 388.898 266.105C371.532 265.375 357.78 265.521 348.373 265.786C340.481 266.012 332.402 266.463 322.051 263.543C308.818 259.799 303.888 253.997 302.785 252.643C299.131 248.129 297.803 243.389 297.005 239.817C291.292 213.941 297.564 175.001 311.395 161.101C313.335 159.149 317.76 154.688 324.27 154.157C326.742 153.958 328.801 154.369 330.09 154.728C330.994 158.552 332.229 164.473 333.04 171.802C333.81 178.705 333.89 183.963 333.943 193.867C334.089 220.274 333.678 222.12 335.538 223.766C339.046 226.886 348.4 229.077 378.309 211.021V211.007Z" fill="#1a3263" style="fill: #1a3263; fill: var(--tblr-illustrations-primary, var(--tblr-primary, #1a3263));"/>
    <path d="M401.416 279.384C399.809 280.103 398.214 280.951 396.808 281.902C396.044 282.467 395.307 283.16 394.571 283.854C388.087 290.225 386.989 299.383 392.173 304.186C396.835 308.515 404.886 307.885 411.128 303.249C411.892 302.683 412.655 302.131 413.258 301.463C413.861 300.795 414.45 300.127 415.053 299.46C419.809 293.269 420.318 285.472 415.656 281.131C412.334 277.676 406.707 277.303 401.429 279.384H401.416Z" fill="#FFCB9D" style="fill: #FFCB9D; fill: var(--tblr-illustrations-skin, #FFCB9D);"/>
    <path d="M401.488 279.428C399.887 280.171 398.299 281.048 396.898 282.031C402.155 289.004 407.051 296.335 411.16 304.105C411.92 303.521 412.681 302.949 413.281 302.259C413.882 301.568 414.469 300.878 415.069 300.187C419.805 293.785 420.312 285.723 415.669 281.234C412.361 277.661 406.758 277.276 401.501 279.428H401.488Z" fill="black" opacity="0.1"/>
    <path d="M392.898 274.766C410.011 288.541 427.097 302.33 444.197 316.105C452.117 307.305 466.369 289.335 473.521 264.206C475.72 256.491 477.256 248.089 477.72 239.09C477.746 238.68 478.091 232.249 477.746 226.215C476.024 196.746 457.217 171.722 447.76 163.928C445.534 162.102 440.567 158 433.362 157.232C431.375 157.021 429.733 157.113 428.726 157.219C428.355 169.155 427.985 181.091 427.601 193.027C429.971 196.097 441.839 212.109 438.25 232.686C434.607 253.58 416.501 270.664 392.912 274.779L392.898 274.766Z" fill="#1a3263" style="fill: #1a3263; fill: var(--tblr-illustrations-primary, var(--tblr-primary, #1a3263));"/>
    <path d="M460.898 453.105L429.898 442.378C429.898 442.378 430.678 434.059 436.387 432.262C442.095 430.479 457.687 444.252 460.898 453.092" fill="#0b1b3b" class="tblr-illustrations tblr-illustrations-vocate tblr-illustrations-gardening-c"/>
    <path d="M364.487 311.251L362.04 311.225C362.053 309.068 361.895 307.732 361.895 307.719L364.328 307.415C364.328 307.415 364.514 308.91 364.487 311.238V311.251Z" fill="black"/>
    <path d="M345.742 345.999L344.473 343.896C346.351 342.772 348.097 341.489 349.684 340.1L351.298 341.938C349.605 343.42 347.727 344.782 345.729 345.986L345.742 345.999ZM356.033 336.938L354.102 335.43C355.412 333.751 356.576 331.925 357.568 330.007L359.75 331.132C358.692 333.195 357.435 335.153 356.033 336.938ZM362.369 324.769L360.028 324.028C360.663 322.005 361.166 319.888 361.496 317.706L363.917 318.076C363.56 320.364 363.031 322.613 362.356 324.756L362.369 324.769Z" fill="black"/>
    <path d="M336.02 350.351L335.266 348.023C336.416 347.652 337.554 347.242 338.639 346.806L339.565 349.081C338.427 349.544 337.236 349.98 336.02 350.364V350.351Z" fill="black"/>
</svg>
