<svg xmlns="http://www.w3.org/2000/svg" width="800" height="600" fill="none" viewBox="0 0 800 600">
    <style>
        :where(.theme-dark, [data-theme="dark"]) .tblr-illustrations-ghost-2-a { fill: black; opacity: 0.07; } :where(.theme-dark, [data-theme="dark"]) .tblr-illustrations-ghost-2-b { fill: black; opacity: 0.3; } :where(.theme-dark, [data-theme="dark"]) .tblr-illustrations-ghost-2-c { fill: #24304d; }
        @media (prefers-color-scheme: dark) { .tblr-illustrations-ghost-2-a { fill: black; opacity: 0.07; } .tblr-illustrations-ghost-2-b { fill: black; opacity: 0.3; } .tblr-illustrations-ghost-2-c { fill: #24304d; } }
    </style>
    <path d="M152.945 325.134C152.945 365.973 196.14 395.584 215.217 428.539C234.908 462.545 239.641 514.54 273.662 534.208C306.661 553.277 353.61 531.945 394.453 531.945C435.295 531.945 482.259 553.277 515.228 534.208C549.249 514.54 553.982 462.545 573.673 428.539C592.751 395.57 635.945 365.959 635.945 325.134C635.945 284.309 592.751 254.698 573.673 221.728C553.982 187.722 549.249 135.727 515.228 116.06C482.244 96.9904 435.281 118.323 394.453 118.323C353.624 118.323 306.646 96.9904 273.662 116.06C239.641 135.727 234.908 187.722 215.217 221.728C196.14 254.698 152.945 284.309 152.945 325.134Z" fill="#1a3263" style="fill: #1a3263; fill: var(--tblr-illustrations-primary, var(--tblr-primary, #1a3263));" opacity="0.02" class="tblr-illustrations tblr-illustrations-vocate tblr-illustrations-ghost-2-a"/>
    <path d="M233.058 141.134L349.833 141.134C351.552 141.134 352.945 139.721 352.945 137.978V136.289C352.945 134.547 351.552 133.134 349.833 133.134L233.058 133.134C231.339 133.134 229.945 134.547 229.945 136.289V137.978C229.945 139.721 231.339 141.134 233.058 141.134Z" fill="#1a3263" style="fill: #1a3263; fill: var(--tblr-illustrations-primary, var(--tblr-primary, #1a3263));"/>
    <path d="M174.058 173.134L290.833 173.134C292.552 173.134 293.945 171.721 293.945 169.978V168.289C293.945 166.547 292.552 165.134 290.833 165.134L174.058 165.134C172.339 165.134 170.945 166.547 170.945 168.289V169.978C170.945 171.721 172.339 173.134 174.058 173.134Z" fill="#1a3263" style="fill: #1a3263; fill: var(--tblr-illustrations-primary, var(--tblr-primary, #1a3263));"/>
    <path d="M386.445 491.134C475.087 491.134 546.945 489.119 546.945 486.634C546.945 484.149 475.087 482.134 386.445 482.134C297.804 482.134 225.945 484.149 225.945 486.634C225.945 489.119 297.804 491.134 386.445 491.134Z" fill="#d9e2f3" opacity="0.5" class="tblr-illustrations tblr-illustrations-vocate tblr-illustrations-ghost-2-b"/>
    <path d="M460.945 298.179L501.945 319.134L498.609 292.134L460.945 298.179Z" fill="#DADCE0"/>
    <path d="M488.945 136.059C488.945 137.77 488.872 139.466 488.77 141.161C487.909 163.966 483.747 257.92 472.431 310.663C459.479 370.994 424.566 418.914 402.604 421.735C385.505 423.928 380.687 416.56 367.706 412.116C364.011 410.859 359.66 409.836 354.155 409.324C348.898 408.842 344.649 409.207 340.911 410.011C327.054 413.037 320.585 422.349 298.405 418.344C283.234 415.61 280.153 404.032 276.225 394.647C272.866 386.607 268.88 380.189 256.162 382.265C255.329 382.397 254.702 382.47 254.614 382.484C250.774 383.113 237.34 374.956 203.945 347.473C218.138 336.334 240.888 316.292 260.864 285.812C302.377 222.499 314.628 190.952 333.742 116.383C342.474 82.3069 373.357 57.1338 410.11 57.1338C453.652 57.1338 488.945 92.4815 488.945 136.059Z" fill="#DADCE0"/>
    <path d="M386.945 280.752C386.799 281.172 378.194 304.35 352.087 306.015C349.394 306.188 342.56 306.652 335.17 303.076C324.501 297.936 320.228 288.106 319.35 285.949C318.633 284.169 318.194 282.634 317.945 281.577C335.287 292.175 343.965 291.595 348.706 288.975C352.687 286.775 356.067 284.082 363.238 279.348C364.087 278.783 372.545 276.134 372.545 276.134L386.945 280.738V280.752Z" fill="#A6A9B3"/>
    <path d="M397.872 280.346C395.541 281.344 392.905 281.814 390.429 282.071C387.457 282.256 384.559 282.028 381.864 281.443C373.008 279.561 366.104 273.986 365.07 266.9C363.919 258.744 370.852 251.229 381.281 248.962C382.782 248.691 383.903 248.477 385.404 248.206C390.312 247.878 394.959 248.677 398.906 250.302C404.339 252.541 408.461 256.377 410.136 261.025C410.267 261.752 410.631 262.636 410.777 263.378C412.001 270.935 406.436 277.451 397.872 280.331V280.346Z" fill="#FFCB9D" style="fill: #FFCB9D; fill: var(--tblr-illustrations-skin, #FFCB9D);"/>
    <path d="M381.884 282.134C373.018 280.213 366.105 274.522 365.07 267.288C363.918 258.963 370.859 251.293 381.3 248.979C382.802 248.703 383.925 248.484 385.427 248.208C390.342 247.873 394.993 248.688 398.945 250.347C392.441 254.976 378.88 266.503 381.869 282.119L381.884 282.134Z" fill="black" opacity="0.1"/>
    <path d="M343.149 222.134C343.149 222.99 343.721 234.679 362.976 239.505C382.231 244.331 398.945 239.505 398.945 239.505C398.945 239.505 375.152 251.445 373.742 268.241C372.332 285.036 353.914 298.688 342.018 296.991C330.121 295.279 317.945 281.907 317.945 281.907" fill="#DADCE0"/>
    <path d="M346.945 223.149C348.827 226.552 352.462 232.015 358.768 236.258C371.425 244.773 384.943 241.752 387.945 240.989C382.271 239.966 375.303 238.181 367.675 234.976C358.998 231.329 352.088 226.949 346.945 223.134V223.149Z" fill="#A6A9B3"/>
    <path d="M421.128 154.018C424.775 143.949 422.031 133.723 415 131.176C407.968 128.63 399.312 134.727 395.666 144.796C392.019 154.864 394.762 165.091 401.794 167.638C408.825 170.184 417.481 164.087 421.128 154.018Z" fill="#0b1b3b" class="tblr-illustrations tblr-illustrations-vocate tblr-illustrations-ghost-2-c"/>
    <path d="M457.178 172.394C464.559 171.193 469.149 161.651 467.429 151.082C465.71 140.512 458.332 132.917 450.951 134.118C443.57 135.319 438.98 144.86 440.699 155.43C442.419 166 449.796 173.595 457.178 172.394Z" fill="#0b1b3b" class="tblr-illustrations tblr-illustrations-vocate tblr-illustrations-ghost-2-c"/>
    <path d="M441.571 304.785L424.735 289.985C422.526 288.021 422.336 284.645 424.31 282.462C425.247 281.429 426.549 280.789 427.938 280.701L584.351 271.14C585.814 271.068 587.262 271.592 588.33 272.596L604.245 287.453C606.395 289.447 606.527 292.794 604.523 294.933C603.586 295.937 602.285 296.548 600.91 296.621L445.418 306.124C444.014 306.211 442.624 305.731 441.571 304.799V304.785Z" fill="#0b1b3b" class="tblr-illustrations tblr-illustrations-vocate tblr-illustrations-ghost-2-c"/>
    <path d="M626.846 208.09L616.896 273.863L616.177 278.647L614.269 291.312C613.858 294.115 611.539 296.242 608.692 296.404L528.474 301.335L518.583 301.936L450.385 306.119C447.053 306.353 444.192 303.844 443.957 300.527C443.927 300.087 443.957 299.647 444.016 299.207L454.406 230.572L455.316 224.541L456.607 216C457.018 213.182 459.337 211.055 462.184 210.864L620.506 201.149C623.823 200.914 626.714 203.424 626.934 206.74C626.963 207.195 626.934 207.65 626.861 208.09H626.846Z" fill="#0b1b3b" class="tblr-illustrations tblr-illustrations-vocate tblr-illustrations-ghost-2-c"/>
    <path d="M615.931 278.847L614.026 291.419C613.615 294.202 611.3 296.314 608.457 296.475L528.354 301.369L518.476 301.967L450.376 306.119C447.049 306.352 444.191 303.861 443.957 300.568C443.928 300.131 443.957 299.694 444.015 299.257L454.391 231.121L455.3 225.134C472.343 233.744 563.862 275.802 615.945 278.832L615.931 278.847Z" fill="black" opacity="0.1"/>
    <path d="M537.186 303.641C536.771 306.174 535.733 308.648 534.592 310.888C533.11 313.495 531.316 315.808 529.315 317.785C522.793 324.227 514.107 326.936 507.348 323.875C499.596 320.303 496.839 310.274 500.634 300.2C501.226 298.78 501.656 297.711 502.249 296.306C504.68 291.972 507.926 288.487 511.528 286.071C516.479 282.718 522.097 281.371 527.092 282.557C527.803 282.85 528.782 283.04 529.493 283.319C536.771 286.496 539.395 294.812 537.186 303.656V303.641Z" fill="#FFCB9D" style="fill: #FFCB9D; fill: var(--tblr-illustrations-skin, #FFCB9D);"/>
    <path d="M528.945 317.796C522.503 324.228 513.923 326.933 507.246 323.877C499.588 320.311 496.865 310.297 500.613 300.24C501.199 298.822 501.623 297.755 502.209 296.352C504.61 292.025 507.817 288.546 511.375 286.134C511.741 294.13 514.113 311.832 528.931 317.811L528.945 317.796Z" fill="black" opacity="0.1"/>
    <path d="M495.893 300.148C495.893 300.148 521.608 311.579 540.945 312.121C540.945 312.121 540.532 313.177 539.646 314.776C539.646 314.776 537.934 317.872 535.454 320.67C528.546 328.476 514.98 332.7 514.98 332.7C508.647 334.669 494.698 339.022 478.873 333.256C468.968 329.646 462.488 323.581 458.945 319.571C462.149 315.161 465.367 310.766 468.57 306.356C477.678 304.287 486.785 302.203 495.893 300.134V300.148Z" fill="#DADCE0"/>
    <path d="M300.945 345.134C299.448 349.535 289.198 378.913 276.462 395.134C273.118 386.957 269.149 380.43 256.486 382.541C255.963 382.63 255.454 382.704 254.945 382.764C267.405 374.542 297.412 354.025 300.945 345.149V345.134Z" fill="#A6A9B3"/>
    <path d="M340.945 410.055C349.813 400.779 377.778 370.874 378.945 361.134C378.605 365.001 375.901 393.321 368.067 412.134C364.328 410.884 359.923 409.866 354.351 409.357C349.03 408.877 344.729 409.241 340.945 410.04V410.055Z" fill="#A6A9B3"/>
    <path d="M479.058 416.134H595.833C597.552 416.134 598.945 414.721 598.945 412.978V411.289C598.945 409.547 597.552 408.134 595.833 408.134H479.058C477.339 408.134 475.945 409.547 475.945 411.289V412.978C475.945 414.721 477.339 416.134 479.058 416.134Z" fill="#1a3263" style="fill: #1a3263; fill: var(--tblr-illustrations-primary, var(--tblr-primary, #1a3263));"/>
    <path d="M527.058 380.134H643.833C645.552 380.134 646.945 378.721 646.945 376.978V375.289C646.945 373.547 645.552 372.134 643.833 372.134H527.058C525.339 372.134 523.945 373.547 523.945 375.289V376.978C523.945 378.721 525.339 380.134 527.058 380.134Z" fill="#1a3263" style="fill: #1a3263; fill: var(--tblr-illustrations-primary, var(--tblr-primary, #1a3263));"/>
    <path d="M430.451 219.384L411.502 211.34C409.795 210.622 407.914 211.86 407.797 213.772L406.951 227.413C406.834 229.355 408.57 230.838 410.364 230.334L430.203 224.63C430.772 224.461 431.37 224.507 431.909 224.721L446.847 230.93C448.48 231.618 450.289 230.487 450.523 228.667L451.923 217.274C452.171 215.225 450.318 213.604 448.451 214.2L432.289 219.446C431.691 219.644 431.049 219.614 430.48 219.369L430.451 219.384Z" fill="#1a3263" style="fill: #1a3263; fill: var(--tblr-illustrations-primary, var(--tblr-primary, #1a3263));"/>
</svg>
