<svg xmlns="http://www.w3.org/2000/svg" width="800" height="600" fill="none" viewBox="0 0 800 600">
    <style>
        :where(.theme-dark, [data-theme="dark"]) .tblr-illustrations-graduation-a { fill: black; opacity: 0.07; } :where(.theme-dark, [data-theme="dark"]) .tblr-illustrations-graduation-b { fill: #24304d; } :where(.theme-dark, [data-theme="dark"]) .tblr-illustrations-graduation-c { fill: black; opacity: 0.3; }
        @media (prefers-color-scheme: dark) { .tblr-illustrations-graduation-a { fill: black; opacity: 0.07; } .tblr-illustrations-graduation-b { fill: #24304d; } .tblr-illustrations-graduation-c { fill: black; opacity: 0.3; } }
    </style>
    <path d="M168.789 299.63C168.789 338.44 209.879 366.68 228.039 398.07C246.769 430.45 251.279 479.94 283.669 498.67C315.049 516.83 359.739 496.52 398.599 496.52C437.459 496.52 482.149 516.9 513.489 498.67C545.869 479.94 550.379 430.43 569.119 398.07C587.279 366.68 628.379 338.48 628.379 299.63C628.379 260.78 587.269 232.56 569.119 201.19C550.389 168.81 545.879 119.31 513.489 100.58C482.109 82.42 437.429 102.73 398.559 102.73C359.689 102.73 315.049 82.42 283.669 100.58C251.289 119.31 246.779 168.82 228.039 201.19C209.879 232.57 168.789 260.76 168.789 299.63Z" fill="#1a3263" style="fill: #1a3263; fill: var(--tblr-illustrations-primary, var(--tblr-primary, #1a3263));" opacity="0.02" class="tblr-illustrations tblr-illustrations-vocate tblr-illustrations-graduation-a"/>
    <path d="M493.471 152.01C493.471 152.01 486.661 171.01 474.271 181.39L472.641 169.28L481.441 157.83L489.421 153.23L493.471 152.01Z" fill="#0b1b3b" class="tblr-illustrations tblr-illustrations-vocate tblr-illustrations-graduation-b"/>
    <path d="M489.599 149.88C489.599 149.88 483.079 165.21 469.579 180.23C469.579 180.23 467.079 159.39 489.599 149.88Z" fill="#0b1b3b" class="tblr-illustrations tblr-illustrations-vocate tblr-illustrations-graduation-b"/>
    <path d="M342.84 159.53C342.84 159.53 348.13 176.19 368.42 196.94C368.42 196.94 367 185.04 362.55 174.13C358.11 163.22 342.84 159.53 342.84 159.53Z" fill="#1a3263" style="fill: #1a3263; fill: var(--tblr-illustrations-primary, var(--tblr-primary, #1a3263));"/>
    <path d="M399.941 476.17C528.424 476.17 632.581 474.402 632.581 472.22C632.581 470.039 528.424 468.27 399.941 468.27C271.457 468.27 167.301 470.039 167.301 472.22C167.301 474.402 271.457 476.17 399.941 476.17Z" fill="#d9e2f3" opacity="0.5" class="tblr-illustrations tblr-illustrations-vocate tblr-illustrations-graduation-c"/>
    <path d="M266.081 128.41C264.581 133.65 263.081 138.89 261.581 144.14C261.371 144.9 260.851 145.46 260.211 145.76C260.121 145.81 260.012 145.84 259.922 145.88C259.772 145.91 259.652 145.93 259.502 145.95C259.322 145.98 259.161 146 258.991 145.98C258.921 145.98 258.852 145.97 258.782 145.97C258.672 145.96 258.571 145.94 258.461 145.92L258.312 145.88C258.202 145.85 258.092 145.8 257.982 145.73H257.961C257.901 145.7 257.812 145.66 257.752 145.6C257.682 145.55 257.592 145.49 257.532 145.45C257.452 145.41 257.372 145.34 257.322 145.28C250.222 139.8 239.481 133.03 225.181 128.89C217.152 126.57 209.852 125.61 203.722 125.28H203.642C203.492 125.29 203.342 125.26 203.192 125.22H203.142C202.192 124.9 201.542 123.92 201.232 122.5C200.852 120.85 200.932 118.63 201.592 116.31C202.382 113.48 203.812 111.2 205.302 110.14C205.782 109.77 206.292 109.55 206.782 109.47C207.052 109.44 207.332 109.46 207.592 109.53C207.812 109.57 208.022 109.65 208.232 109.77C213.872 112.88 220.622 116.03 228.452 118.68C241.802 123.17 253.882 124.72 263.292 125.1C263.452 125.11 263.592 125.12 263.722 125.13C263.822 125.14 263.902 125.15 263.972 125.15C264.042 125.14 264.111 125.16 264.181 125.18H264.222C264.892 125.39 265.452 125.85 265.882 126.49C266.202 127.05 266.271 127.73 266.081 128.39V128.41Z" fill="#DADCE0"/>
    <path d="M267.07 132.15C267.03 133.65 266.78 135.28 266.31 136.95C265.05 141.46 262.56 144.92 260.2 145.76C260.1 145.82 260.01 145.84 259.93 145.88C259.77 145.92 259.64 145.94 259.5 145.96C259.31 145.98 259.15 146 258.99 145.98H258.78C258.66 145.96 258.57 145.94 258.47 145.92L258.31 145.88C258.19 145.84 258.08 145.8 257.98 145.74L257.96 145.72C257.9 145.7 257.8 145.66 257.75 145.6C257.67 145.54 257.59 145.5 257.54 145.44C257.46 145.4 257.38 145.34 257.33 145.27C256.59 144.65 256.09 143.62 255.79 142.31C255.28 140.13 255.4 137.19 256.28 134.14C256.44 133.58 256.61 133.05 256.81 132.53C257.9 129.53 259.49 127.18 261.19 125.99C261.81 125.5 262.47 125.19 263.12 125.11C263.2 125.11 263.24 125.09 263.3 125.11C263.46 125.11 263.59 125.13 263.73 125.13C263.83 125.13 263.92 125.15 264 125.15C264.06 125.15 264.14 125.17 264.21 125.19H264.25C264.91 125.4 265.46 125.85 265.9 126.49C266.76 127.75 267.16 129.78 267.09 132.13L267.07 132.15Z" fill="#A6A9B3"/>
    <path d="M236.502 113.75C236.502 113.75 236.422 113.66 236.382 113.62C236.242 113.47 235.782 113.34 235.452 113.4C233.932 113.67 234.062 115.07 233.782 116.19C233.802 113.52 230.292 111.16 232.322 108.32C232.662 107.82 232.812 107.37 232.402 107.32C232.282 107.31 232.162 107.29 232.042 107.28C231.642 107.23 230.742 107.62 230.312 108.12C227.602 111.28 232.112 113.83 231.742 116.79L231.102 116.61C230.122 116.34 229.112 116.92 228.842 117.9L225.672 129.46C225.402 130.44 225.982 131.45 226.962 131.72L230.562 132.71C231.542 132.98 232.552 132.4 232.822 131.42L235.992 119.86C236.262 118.88 235.682 117.87 234.702 117.6L234.302 117.49C235.052 116.45 234.522 114.54 236.152 114.1C236.442 114.02 236.642 113.89 236.502 113.74V113.75Z" fill="#1a3263" style="fill: #1a3263; fill: var(--tblr-illustrations-primary, var(--tblr-primary, #1a3263));"/>
    <path d="M195.482 184.84C194.742 183.94 194.102 183.02 193.622 181.97C193.322 181.36 193.112 180.74 192.892 180.12C191.062 174.4 193.182 168.51 197.652 167.11C201.662 165.79 206.162 168.55 208.362 173.25C208.662 173.86 208.862 174.39 209.072 175.01C209.282 175.63 209.382 176.18 209.502 176.82C210.462 181.94 208.342 186.79 204.322 188.11C201.262 188.97 197.882 187.61 195.472 184.84H195.482Z" fill="#FFCB9D" style="fill: #FFCB9D; fill: var(--tblr-illustrations-skin, #FFCB9D);"/>
    <path d="M195.481 184.84C194.741 183.94 194.101 183.02 193.621 181.97C198.731 179.4 203.671 176.49 208.371 173.24C208.671 173.85 208.871 174.38 209.081 175C209.291 175.62 209.391 176.17 209.511 176.81C210.471 181.93 208.351 186.78 204.331 188.1C201.271 188.96 197.891 187.6 195.481 184.83V184.84Z" fill="black" opacity="0.1"/>
    <path d="M266.891 256.17C266.901 264.17 265.551 274.15 259.081 278.16C256.371 279.84 253.111 280.26 249.511 279.73H249.501C248.721 279.63 247.961 279.49 247.151 279.29C234.101 276.14 217.701 262.26 208.331 251.01C196.441 236.72 190.941 220.78 188.481 207.27C187.191 200.32 186.731 194 186.591 188.88C186.551 187.65 187.371 186.57 188.561 186.26C197.701 183.82 206.861 181.39 216.021 178.96C217.691 178.52 219.331 179.78 219.331 181.53C219.291 188.07 219.661 196.61 221.121 206.53C221.261 207.39 221.391 208.25 221.531 209.15C223.731 222.45 224.861 229.25 229.671 235.29C237.291 244.92 249.991 247.39 258.741 247.9C261.941 248.09 264.601 248.02 266.311 247.93H266.331C266.381 247.92 266.421 247.92 266.471 247.92C266.681 249.98 266.911 252.92 266.911 256.17H266.891Z" fill="#0b1b3b" class="tblr-illustrations tblr-illustrations-vocate tblr-illustrations-graduation-b"/>
    <path d="M381.29 251.32C381.36 250.16 381.51 249.04 381.86 247.95C382.05 247.3 382.31 246.7 382.58 246.1C385.1 240.65 390.65 237.75 394.89 239.75C398.74 241.5 400.18 246.57 398.62 251.52C398.43 252.17 398.22 252.69 397.95 253.3C397.68 253.91 397.39 254.38 397.04 254.93C394.28 259.35 389.44 261.48 385.59 259.74C382.76 258.3 381.19 255.02 381.29 251.35V251.32Z" fill="#FFCB9D" style="fill: #FFCB9D; fill: var(--tblr-illustrations-skin, #FFCB9D);"/>
    <path d="M381.29 251.32C381.36 250.16 381.51 249.04 381.86 247.95C387.35 249.52 392.97 250.72 398.62 251.51C398.43 252.16 398.22 252.68 397.95 253.29C397.68 253.89 397.39 254.37 397.04 254.92C394.28 259.34 389.44 261.47 385.59 259.73C382.76 258.29 381.19 255.01 381.29 251.34V251.32Z" fill="black" opacity="0.1"/>
    <path d="M257.68 211.17C258.98 213.52 260.93 216.95 263.44 221.1C264.01 222.01 264.51 222.82 264.66 223.08C267.58 227.54 271.04 231.61 274.97 235.2C275.77 235.9 276.54 236.55 277.35 237.16C280.34 239.38 293.37 237.42 302.56 231.49C311.75 225.56 310.53 214.34 304.29 212.4C302 211.5 299.88 210.19 298.06 208.53C295.54 206.41 293.18 204.11 290.99 201.65C289.7 200.28 288.93 199.32 288.93 199.32L277.97 196.54L259.61 205.72C261.37 208.7 261.62 211.25 260.74 211.93C259.86 212.61 258.04 211.43 257.68 211.17Z" fill="#FFCB9D" style="fill: #FFCB9D; fill: var(--tblr-illustrations-skin, #FFCB9D);"/>
    <path d="M257.682 211.17C258.982 213.52 260.932 216.95 263.442 221.1C264.012 222.01 264.512 222.82 264.662 223.08C267.582 227.54 271.042 231.61 274.972 235.2C275.972 234.23 276.782 233.07 277.352 231.8C277.962 230.39 278.282 228.88 278.302 227.35C278.292 225.72 278.022 224.11 277.502 222.57C277.222 221.55 276.882 220.55 276.482 219.58C284.682 218.41 292.252 214.54 298.002 208.57C295.492 206.44 293.132 204.14 290.942 201.68C289.652 200.31 288.882 199.35 288.882 199.35L277.922 196.57L259.552 205.75C261.312 208.73 261.572 211.27 260.692 211.96C259.812 212.64 258.022 211.43 257.672 211.17H257.682Z" fill="black" opacity="0.1"/>
    <path d="M298.911 191.81C298.971 193.35 298.861 194.89 298.591 196.4C298.301 198.35 297.721 200.25 296.881 202.03C293.121 210.09 283.581 215.21 272.611 214.83C270.751 214.76 268.901 214.55 267.071 214.19H267.021C267.021 214.19 267.021 214.27 267.041 214.3C267.491 215.32 268.011 216.31 268.611 217.26C268.901 217.69 268.961 217.83 269.151 218.12L269.361 218.4C269.691 218.91 272.531 222.21 273.481 224.32C274.071 225.73 274.201 227.29 273.861 228.78C272.461 226.98 270.631 225.57 268.541 224.66C267.761 224.37 266.961 224.14 266.151 223.96C262.041 222.55 258.581 219.7 256.421 215.92C255.561 214.36 254.941 212.68 254.581 210.94C254.291 209.82 253.471 205.65 254.771 202.5C257.441 195.97 269.921 192.46 276.501 191.55C277.661 191.4 279.691 191.18 280.931 190.06C281.171 189.85 281.371 189.59 281.511 189.3C282.471 187.45 281.311 184.85 280.071 183.44C277.691 180.71 273.081 180.13 268.331 181.84C276.871 174.74 288.231 175.01 294.361 180.91C297.251 183.81 298.871 187.73 298.881 191.83L298.911 191.81Z" fill="#0b1b3b" class="tblr-illustrations tblr-illustrations-vocate tblr-illustrations-graduation-b"/>
    <path d="M298.91 191.81C298.97 193.35 298.86 194.89 298.59 196.4C298.3 198.35 297.72 200.25 296.88 202.03C293.12 210.09 283.58 215.21 272.61 214.83C269.83 214.49 267.47 214.21 267.07 214.19H267.02L262.84 213.08C268.66 213.03 274.43 211.92 279.86 209.81C284.65 207.93 291.33 205.35 295.78 198.6C297.15 196.51 298.2 194.22 298.9 191.82L298.91 191.81Z" fill="black" opacity="0.5"/>
    <path d="M317.189 403.12C317.099 403.43 317.019 403.72 316.929 404.03C315.389 409.23 313.839 414.42 312.289 419.6C311.349 422.8 310.389 426.01 309.439 429.22C306.709 438.42 303.979 447.61 301.249 456.8C298.759 456.59 296.269 456.38 293.759 456.18C294.079 446.53 294.359 436.89 294.679 427.24C294.749 424.82 294.829 422.4 294.899 419.99C294.899 419.9 294.899 419.8 294.909 419.72C295.089 413.81 295.279 407.92 295.459 402.02C295.479 401.46 295.489 400.89 295.509 400.33C295.419 400.06 295.309 399.8 295.189 399.53C295.189 399.53 295.109 399.32 295.069 399.23C294.879 398.75 294.379 394.03 293.979 390.15C293.189 384.88 292.389 379.61 291.599 374.34C291.439 374.63 283.299 367.19 281.649 364.11C281.609 364.83 280.679 385.12 280.639 385.83C280.629 386.18 280.289 393.53 280.029 399.02C279.889 402.19 279.779 404.74 279.759 404.96C277.749 408.31 275.739 411.68 273.739 415.06C272.119 417.76 270.519 420.48 268.909 423.2C267.289 425.93 265.659 428.65 264.039 431.39C259.149 439.72 254.259 448 249.419 456.3C247.059 455.98 244.719 455.68 242.379 455.36C245.199 445.06 248.029 434.72 250.849 424.41C251.809 420.94 252.759 417.48 253.699 414.01C254.559 410.91 255.399 407.82 256.259 404.71C256.119 403.62 256.009 402.54 255.869 401.46C253.479 381.51 251.079 361.55 248.719 341.59C253.589 341.47 258.449 341.37 263.319 341.24C264.469 341.22 265.619 341.2 266.779 341.17C272.269 341.04 277.769 340.91 283.259 340.78C289.989 340.62 296.719 340.46 303.449 340.32C308.039 361.24 312.629 382.19 317.199 403.15L317.189 403.12Z" fill="#DADCE0"/>
    <path d="M280.022 399.01C279.882 402.18 279.772 404.73 279.752 404.94C276.132 410.99 272.512 417.08 268.902 423.18L250.852 424.39C252.662 417.82 254.452 411.26 256.262 404.69C256.122 403.6 256.012 402.53 255.872 401.44C257.372 400.91 258.672 400.45 259.512 400C261.102 399.12 270.012 398.85 280.032 399.01H280.022Z" fill="black" opacity="0.1"/>
    <path d="M316.922 404.03C314.432 412.43 311.942 420.82 309.432 429.22C304.742 429.32 299.472 428.42 294.672 427.24C294.942 418.25 295.232 409.29 295.512 400.32C295.412 400.05 295.322 399.79 295.202 399.52C300.472 399.81 305.162 400.18 308.212 400.63C311.962 401.17 314.802 402.42 316.922 404.03Z" fill="black" opacity="0.1"/>
    <path d="M256.928 472.22L238.988 467.06C238.988 467.06 239.078 462.16 242.318 460.96C245.548 459.77 254.698 467.36 256.928 472.22Z" fill="#0b1b3b" class="tblr-illustrations tblr-illustrations-vocate tblr-illustrations-graduation-b"/>
    <path d="M310.19 471.69L291.66 469.44C291.66 469.44 290.98 464.59 293.98 462.89C296.98 461.2 307.22 467.25 310.19 471.69Z" fill="#0b1b3b" class="tblr-illustrations tblr-illustrations-vocate tblr-illustrations-graduation-b"/>
    <path d="M399.941 262.66C398.691 265.48 395.961 268.95 393.721 271.54C392.151 273.3 390.471 274.94 388.581 276.47C383.871 280.33 377.731 283.67 367.901 287.13C357.461 290.6 346.831 291.57 335.961 289.88C330.611 289.17 325.131 287.95 320.341 285.83C319.681 285.53 319.081 285.19 318.491 284.87H318.481C318.121 284.68 317.741 284.38 317.441 284.58C317.671 286.02 318.041 288.21 318.431 290.88C322.011 314.91 322.551 332.93 322.921 342.64C323.611 361.19 324.891 384.93 326.851 416.34C321.391 418.08 316.481 419.07 312.271 419.59C308.471 420.09 305.211 420.2 302.611 420.18C300.851 420.16 299.171 420.11 297.561 419.97C296.651 419.9 295.751 419.81 294.891 419.7C293.801 419.58 292.761 419.44 291.741 419.27C290.911 419.14 290.111 418.98 289.311 418.85C289.271 418.83 289.261 418.83 289.261 418.83C291.171 411.98 291.731 400.38 291.831 390.75C291.921 381.66 291.601 374.32 291.601 374.32L291.541 375.43C291.661 379.33 291.581 383.85 291.121 388.85C290.861 391.69 290.451 394.67 289.901 397.79C288.471 405.75 286.341 412.52 284.241 417.92C283.111 417.54 281.581 417.04 279.741 416.54C279.681 416.52 278.541 416.22 277.341 415.92C276.151 415.61 274.941 415.32 273.731 415.05C268.821 413.96 263.641 413.24 257.291 413.64C256.051 413.72 254.861 413.84 253.701 413.99C245.891 414.96 239.701 417.34 235.801 419.13C237.111 414.99 238.971 408.72 240.791 401.02C242.861 392.17 248.851 364.47 247.881 323.61C247.881 323.61 247.321 300 249.511 279.74C250.041 274.87 250.711 270.2 251.601 266.09C251.601 266.09 253.681 256.21 260.061 250.98C260.371 250.72 260.691 250.47 261.031 250.24C261.581 249.84 262.161 249.48 262.771 249.15C264.051 248.48 265.151 248.11 266.291 247.93H266.311C268.471 247.59 270.761 247.92 274.521 248.11H274.541C275.071 248.14 275.631 248.16 276.221 248.18C276.521 248.19 276.851 248.19 277.231 248.2C278.891 248.23 280.791 248.22 283.011 248.13C283.401 248.11 283.791 248.1 284.161 248.08C284.481 248.06 284.791 248.04 285.101 248.02C285.301 248.01 285.501 248 285.691 247.98C285.881 247.97 286.071 247.96 286.251 247.94C286.321 247.94 286.411 247.93 286.491 247.92C286.911 247.89 287.311 247.86 287.711 247.81C287.761 247.81 287.831 247.8 287.891 247.79C288.191 247.77 288.471 247.74 288.751 247.71C288.991 247.68 289.241 247.66 289.471 247.63C291.491 247.39 293.181 247.11 294.701 246.83C295.031 246.77 295.341 246.71 295.651 246.65C296.291 246.53 296.911 246.41 297.511 246.3C298.621 246.09 299.671 245.9 300.741 245.77C301.151 245.72 301.561 245.66 302.001 245.63C302.371 245.6 302.751 245.58 303.141 245.56C303.301 245.55 303.471 245.55 303.631 245.55C304.011 245.54 304.401 245.54 304.801 245.55H304.871C305.091 245.56 305.321 245.56 305.571 245.57C305.971 245.59 306.381 245.62 306.831 245.66C307.541 245.71 308.291 245.81 309.101 245.92C309.911 246.04 310.731 246.17 311.601 246.34C311.891 246.39 312.181 246.46 312.481 246.52H312.491C315.251 247.09 318.531 248.06 323.341 250.1C329.781 252.85 336.371 255.53 343.191 257.34C353.461 260.41 362.951 259.54 372.041 253.92C373.421 253.06 374.671 252.14 375.901 251.19C377.821 249.46 379.071 249.62 381.381 250.55C385.411 252.17 391.121 254.66 395.851 256.61C398.481 257.7 401.511 259.34 399.941 262.67V262.66Z" fill="#0b1b3b" class="tblr-illustrations tblr-illustrations-vocate tblr-illustrations-graduation-b"/>
    <path d="M312.479 246.52C305.939 257.8 292.199 280.88 292.199 281.2C291.979 281.43 280.789 270.24 266.879 256.18C264.979 254.25 263.009 252.26 261.019 250.24C260.259 249.47 259.489 248.69 258.719 247.9C261.919 248.09 264.579 248.02 266.289 247.93H266.309C268.469 247.59 270.759 247.92 274.519 248.11H274.539C274.859 248.15 275.359 248.16 276.219 248.18C276.519 248.19 276.849 248.19 277.229 248.2C278.889 248.23 280.789 248.22 283.009 248.13C283.399 248.11 283.789 248.1 284.159 248.08C284.479 248.06 284.789 248.04 285.099 248.02C285.299 248.01 285.499 248 285.689 247.98C285.879 247.97 286.059 247.96 286.249 247.94C286.319 247.94 286.409 247.93 286.489 247.92C286.899 247.89 287.309 247.86 287.709 247.81C287.759 247.81 287.829 247.8 287.889 247.79C288.189 247.77 288.469 247.74 288.749 247.71C288.989 247.69 289.239 247.66 289.469 247.63C291.489 247.39 293.179 247.11 294.699 246.83C295.029 246.78 295.339 246.71 295.649 246.65C296.289 246.53 296.909 246.41 297.509 246.3C298.619 246.09 299.679 245.91 300.739 245.77C301.149 245.72 301.559 245.66 301.999 245.63C302.369 245.6 302.749 245.58 303.139 245.56C303.299 245.55 303.469 245.55 303.629 245.55C304.009 245.54 304.399 245.54 304.799 245.55H304.869C305.089 245.56 305.319 245.56 305.569 245.57C305.969 245.59 306.379 245.62 306.829 245.66C307.539 245.72 308.289 245.81 309.099 245.93C309.909 246.05 310.739 246.18 311.599 246.34C311.889 246.39 312.179 246.46 312.479 246.52Z" fill="#1a3263" style="fill: #1a3263; fill: var(--tblr-illustrations-primary, var(--tblr-primary, #1a3263));"/>
    <path d="M300.742 245.75C295.452 254.73 290.632 262.91 290.632 263.1C290.632 263.3 282.802 255.95 274.512 248.11C275.272 247.98 276.362 247.8 277.662 247.63C279.902 247.33 281.612 247.18 283.472 247.02C288.092 246.64 290.742 246.45 290.742 246.45C294.552 246.18 297.922 245.94 300.732 245.75H300.742Z" fill="white"/>
    <path d="M347.869 134.22L347.249 132.78L337.999 136.76C337.839 136.66 337.669 136.59 337.459 136.56L332.489 136.02C331.509 135.91 330.779 136.9 331.169 137.81L333.029 142.13C333.409 143.02 334.589 143.18 335.209 142.44L338.329 138.66C338.439 138.52 338.509 138.38 338.559 138.22L347.889 134.21L347.869 134.22Z" fill="#1a3263" style="fill: #1a3263; fill: var(--tblr-illustrations-primary, var(--tblr-primary, #1a3263));"/>
    <path d="M398.582 204.87C398.122 204.84 397.662 204.7 397.202 204.45L372.582 191.33C369.842 189.88 367.692 187.53 366.462 184.68L345.332 135.48C345.192 135.16 345.102 134.85 345.072 134.54C344.672 131.82 347.622 129.52 350.272 130.94L374.892 144.05C377.632 145.5 379.782 147.86 381.012 150.71L402.142 199.9C403.262 202.51 401.072 205.09 398.582 204.87Z" fill="#0b1b3b" class="tblr-illustrations tblr-illustrations-vocate tblr-illustrations-graduation-b"/>
    <path d="M398.58 204.87C398.12 204.84 397.66 204.7 397.2 204.45L372.58 191.33C369.84 189.88 367.69 187.53 366.46 184.68L345.33 135.48C345.19 135.16 345.1 134.85 345.07 134.54C345.53 134.58 345.99 134.71 346.45 134.96L371.06 148.07C373.8 149.52 375.96 151.87 377.18 154.72L398.32 203.91C398.46 204.23 398.54 204.55 398.58 204.86V204.87Z" fill="#0b1b3b" class="tblr-illustrations tblr-illustrations-vocate tblr-illustrations-graduation-b"/>
    <path d="M398.58 204.87C398.12 204.84 397.66 204.7 397.2 204.45L372.58 191.33C369.84 189.88 367.69 187.53 366.46 184.68L345.33 135.48C345.19 135.16 345.1 134.85 345.07 134.54C345.53 134.58 345.99 134.71 346.45 134.96L371.06 148.07C373.8 149.52 375.96 151.87 377.18 154.72L398.32 203.91C398.46 204.23 398.54 204.55 398.58 204.86V204.87Z" fill="black" opacity="0.3"/>
    <path d="M379.42 185.44C377.6 180.09 374.56 174.05 370.46 168.05C366.36 162.05 361.83 157.01 357.51 153.39C356.42 152.47 355.34 151.65 354.29 150.92C353.59 150.44 352.67 150.44 351.97 150.92L343.41 156.77C342.25 157.56 342.22 159.25 343.34 160.09C348.24 163.76 353.56 169.41 358.31 176.36C363.05 183.3 366.39 190.32 368.03 196.22C368.41 197.57 369.99 198.15 371.15 197.36L379.71 191.51C380.41 191.03 380.74 190.17 380.55 189.35C380.25 188.11 379.88 186.8 379.42 185.46V185.44Z" fill="#0b1b3b" class="tblr-illustrations tblr-illustrations-vocate tblr-illustrations-graduation-b"/>
    <path d="M501.792 132.54L497.812 133.05C497.652 133.07 497.502 133.14 497.382 133.22L489.892 130.18L489.422 131.34L496.972 134.4C497.012 134.52 497.072 134.64 497.162 134.75L499.722 137.73C500.222 138.32 501.172 138.16 501.462 137.44L502.882 133.95C503.182 133.22 502.572 132.43 501.792 132.54Z" fill="#0b1b3b" class="tblr-illustrations tblr-illustrations-vocate tblr-illustrations-graduation-b"/>
    <path d="M449.918 188.85C450.278 188.82 450.658 188.7 451.018 188.49L470.548 177.56C472.718 176.35 474.408 174.43 475.348 172.13L491.478 132.33C491.578 132.07 491.648 131.82 491.668 131.57C491.948 129.38 489.538 127.59 487.438 128.77L467.908 139.69C465.738 140.9 464.048 142.82 463.108 145.13L446.978 184.93C446.118 187.04 447.918 189.07 449.918 188.86V188.85Z" fill="#DADCE0"/>
    <path d="M449.922 188.85C450.282 188.82 450.662 188.7 451.022 188.49L470.552 177.56C472.722 176.35 474.412 174.43 475.352 172.13L491.482 132.33C491.582 132.07 491.652 131.82 491.672 131.57C491.302 131.61 490.932 131.72 490.572 131.93L471.052 142.85C468.882 144.06 467.182 145.98 466.262 148.28L450.122 188.08C450.022 188.34 449.952 188.6 449.932 188.85H449.922Z" fill="#DADCE0"/>
    <path d="M449.922 188.85C450.282 188.82 450.662 188.7 451.022 188.49L470.552 177.56C472.722 176.35 474.412 174.43 475.352 172.13L491.482 132.33C491.582 132.07 491.652 131.82 491.672 131.57C491.302 131.61 490.932 131.72 490.572 131.93L471.052 142.85C468.882 144.06 467.182 145.98 466.262 148.28L450.122 188.08C450.022 188.34 449.952 188.6 449.932 188.85H449.922Z" fill="black" opacity="0.1"/>
    <path d="M464.96 172.94C466.33 168.62 468.67 163.72 471.85 158.85C475.04 153.97 478.59 149.86 481.99 146.88C482.85 146.13 483.7 145.45 484.53 144.85C485.08 144.45 485.82 144.44 486.39 144.81L493.36 149.36C494.3 149.97 494.36 151.33 493.47 152.02C489.6 155.04 485.43 159.67 481.74 165.32C478.05 170.97 475.49 176.65 474.27 181.41C473.99 182.5 472.73 182.99 471.79 182.37L464.82 177.82C464.25 177.45 463.97 176.76 464.11 176.1C464.33 175.1 464.61 174.05 464.96 172.96V172.94Z" fill="#DADCE0"/>
    <path d="M289.01 253.09C291.098 253.09 292.79 251.398 292.79 249.31C292.79 247.222 291.098 245.53 289.01 245.53C286.923 245.53 285.23 247.222 285.23 249.31C285.23 251.398 286.923 253.09 289.01 253.09Z" fill="#1a3263" style="fill: #1a3263; fill: var(--tblr-illustrations-primary, var(--tblr-primary, #1a3263));"/>
    <path d="M288.842 251.07C287.652 256.97 286.452 262.88 285.262 268.78C289.582 268.56 293.902 268.34 298.212 268.12C295.472 262.42 292.742 256.71 290.002 251.01C289.612 251.03 289.232 251.05 288.842 251.07Z" fill="#1a3263" style="fill: #1a3263; fill: var(--tblr-illustrations-primary, var(--tblr-primary, #1a3263));"/>
    <path d="M511.321 215.28C502.431 222.48 491.201 226.14 479.781 225.56L511.351 242.71L511.291 215.27" fill="#0b1b3b" class="tblr-illustrations tblr-illustrations-vocate tblr-illustrations-graduation-b"/>
    <path d="M523.078 402.22L539.328 415.07L562.958 433.75L564.628 431.97L546.228 406.05L538.338 394.96L523.078 402.22Z" fill="#FFCB9D" style="fill: #FFCB9D; fill: var(--tblr-illustrations-skin, #FFCB9D);"/>
    <path d="M486.141 397.69L487.771 417.12L490.381 448.36H492.831L498.951 418.28L501.891 403.88L486.141 397.69Z" fill="#FFCB9D" style="fill: #FFCB9D; fill: var(--tblr-illustrations-skin, #FFCB9D);"/>
    <path d="M538.34 394.96L523.09 402.2L539.34 415.04C541.84 412.02 544.14 408.99 546.24 406.02L538.34 394.95V394.96Z" fill="black" opacity="0.15"/>
    <path d="M486.141 397.69L487.771 417.12C491.321 417.63 495.021 418.01 498.951 418.33L501.891 403.93L486.151 397.7L486.141 397.69Z" fill="black" opacity="0.15"/>
    <path d="M503.941 242.36C512.851 247.39 524.481 249.16 530.031 248.08C530.961 247.96 531.851 247.61 532.621 247.07C533.491 246.34 534.311 245.55 535.151 244.7C536.321 243.54 537.431 242.29 538.501 241.02C541.291 237.72 543.771 234.17 545.911 230.42C546.051 230.1 546.581 229.18 547.171 228.12C549.721 223.3 551.681 219.33 552.981 216.6C552.571 216.91 550.591 218.31 549.611 217.68C548.631 217.05 548.701 214.07 550.501 210.62L529.281 201.51L517.111 205.36C517.111 205.36 516.321 206.47 514.961 208.11C512.661 211.01 510.171 213.74 507.501 216.3C505.561 218.28 503.271 219.89 500.751 221.06C493.861 223.64 493.211 236.38 503.931 242.36" fill="#FFCB9D" style="fill: #FFCB9D; fill: var(--tblr-illustrations-skin, #FFCB9D);"/>
    <path d="M507.489 216.34C514.339 222.68 523.099 226.55 532.389 227.34C534.349 228.52 535.949 230.22 536.999 232.25C538.519 235.3 537.659 237.14 538.409 240.74L538.469 241.08C541.249 237.78 543.729 234.23 545.879 230.48C546.019 230.16 546.549 229.24 547.139 228.18C549.689 223.36 551.649 219.39 552.949 216.66C552.539 216.97 550.559 218.37 549.579 217.74C548.599 217.11 548.669 214.13 550.469 210.68L529.249 201.57L517.079 205.42C517.079 205.42 516.289 206.53 514.929 208.17C512.629 211.07 510.139 213.8 507.469 216.36" fill="black" opacity="0.1"/>
    <path d="M507.921 201.12L507.801 201.1C508.031 204.05 508.991 206.89 510.611 209.37C517.671 220.28 535.841 219.13 540.851 218.56C540.761 220.13 541.151 221.71 541.501 223.12C541.841 224.52 542.181 225.77 541.971 226.67C541.841 227.21 541.721 227.75 541.571 228.22C541.331 229.07 541.031 229.9 540.671 230.71C540.051 232.07 539.311 233.37 538.451 234.61C534.411 239.62 530.021 244.32 525.291 248.69L539.281 255.84H539.301L542.831 257.65L550.621 261.62C554.631 256.77 557.531 251.1 559.071 244.99C559.201 244.45 559.391 243.64 559.601 242.59C559.921 240.8 560.131 238.98 560.211 237.16C560.231 236.88 560.241 236.58 560.251 236.29C560.271 235.92 560.281 235.52 560.281 235.14C560.281 232.41 560.021 229.68 559.491 226.99C559.471 226.96 559.471 226.92 559.461 226.9C558.031 219.87 555.021 213.25 550.651 207.58C549.111 205.69 539.191 193.7 524.261 192.73C520.581 192.46 511.741 191.96 508.791 197.03C508.121 198.27 507.801 199.69 507.891 201.1L507.921 201.12Z" fill="#0b1b3b" class="tblr-illustrations tblr-illustrations-vocate tblr-illustrations-graduation-b"/>
    <path d="M569.429 458.93C566.819 452.88 567.049 438.49 570.359 436.72C573.669 434.95 577.929 438.84 577.929 438.84L582.909 442.18L579.409 448.27L574.679 446.51L569.429 458.93Z" fill="#0b1b3b" class="tblr-illustrations tblr-illustrations-vocate tblr-illustrations-graduation-b"/>
    <path d="M477.609 470.29C480.239 464.25 490.899 454.58 494.449 455.79C497.999 457 498.079 462.76 498.079 462.76L499.049 468.68L492.209 470.29L490.259 465.64L477.609 470.29Z" fill="#0b1b3b" class="tblr-illustrations tblr-illustrations-vocate tblr-illustrations-graduation-b"/>
    <path d="M507.801 201.11C508.031 204.06 509.001 206.9 510.621 209.38C517.641 220.36 535.861 219.14 540.861 218.58C542.811 217.88 544.681 216.98 546.451 215.89C531.911 217.67 517.441 212.12 507.811 201.07" fill="black" opacity="0.5"/>
    <path d="M542.859 257.67L550.649 261.64C554.659 256.79 557.559 251.12 559.099 245.01C559.229 244.47 559.419 243.66 559.629 242.61C559.949 240.82 560.159 239 560.239 237.18C557.039 244.14 551.179 254.04 542.859 257.66V257.67Z" fill="black" opacity="0.5"/>
    <path d="M577.771 403.87H472.871C472.871 403.87 475.011 379.09 477.321 363.92C477.961 359.7 478.931 352.74 479.981 344.92C482.761 324.65 486.171 298.53 486.171 298.53C486.151 293.2 486.641 285.44 489.281 276.51C491.151 270.11 492.101 266.92 494.301 264.55C498.831 259.63 504.731 260.13 534.431 261.54C549.121 262.24 553.361 262.38 555.441 265.7C558.591 270.74 553.851 278.11 550.461 285.17C550.131 285.85 550.191 289.08 550.461 293.84C551.281 308.1 554.191 336.18 555.441 351.2C557.091 371.25 577.771 403.87 577.771 403.87Z" fill="#1a3263" style="fill: #1a3263; fill: var(--tblr-illustrations-primary, var(--tblr-primary, #1a3263));"/>
    <path d="M577.771 403.87H472.871C472.871 403.87 475.011 379.09 477.321 363.92C477.961 359.7 478.931 352.74 479.981 344.92C517.601 332.43 545.121 290.05 545.121 290.05C545.121 290.05 547.161 291.49 550.451 293.84C551.271 308.1 554.181 336.18 555.431 351.2C557.081 371.25 577.761 403.87 577.761 403.87H577.771Z" fill="black" opacity="0.15"/>
    <path d="M444.261 182.45C444.561 181.32 444.921 180.26 445.481 179.25C445.791 178.65 446.171 178.11 446.551 177.57C450.091 172.72 456.091 170.96 459.871 173.75C463.301 176.21 463.721 181.47 461.231 186.02C460.921 186.62 460.601 187.09 460.231 187.63C459.861 188.17 459.471 188.57 459.021 189.05C455.451 192.84 450.281 193.99 446.851 191.52C444.351 189.55 443.461 186.03 444.271 182.45H444.261Z" fill="#FFCB9D" style="fill: #FFCB9D; fill: var(--tblr-illustrations-skin, #FFCB9D);"/>
    <path d="M444.259 182.45C444.559 181.32 444.919 180.26 445.479 179.25C450.559 181.86 455.829 184.14 461.219 186.02C460.909 186.62 460.589 187.09 460.219 187.63C459.849 188.17 459.459 188.57 459.009 189.05C455.439 192.84 450.269 193.99 446.839 191.52C444.339 189.55 443.449 186.03 444.259 182.45Z" fill="black" opacity="0.1"/>
    <path d="M547.17 362.33C544.33 367 541.51 371.66 538.67 376.31C538.27 377.01 537.62 377.4 536.92 377.52C536.83 377.56 536.711 377.56 536.631 377.56C536.481 377.56 536.341 377.54 536.191 377.52C536.011 377.5 535.851 377.48 535.701 377.42C535.621 377.38 535.56 377.38 535.48 377.34C535.39 377.3 535.291 377.27 535.211 377.21L535.081 377.13C534.981 377.07 534.881 376.99 534.781 376.91C534.731 376.86 534.65 376.8 534.61 376.72C534.55 376.66 534.471 376.58 534.431 376.53C534.361 376.47 534.321 376.37 534.261 376.29C530.951 371.9 526.46 366.7 520.55 361.55C516.81 358.28 512.511 355.03 507.591 352.02C507.221 351.78 506.85 351.57 506.48 351.36C499.72 347.35 493.291 344.69 487.761 342.86C487.611 342.82 487.47 342.76 487.33 342.67H487.321L487.291 342.64C487.101 342.52 486.931 342.36 486.791 342.19C486.431 341.74 486.231 341.12 486.171 340.37C486.141 340.11 486.141 339.83 486.151 339.53C486.221 337.84 486.891 335.73 488.141 333.66C489.651 331.14 491.621 329.31 493.341 328.68C493.451 328.64 493.561 328.6 493.681 328.56C494.131 328.43 494.561 328.38 494.951 328.44C495.081 328.46 495.221 328.49 495.341 328.53C495.471 328.58 495.601 328.63 495.711 328.7C495.901 328.81 496.101 328.93 496.271 329.11C500.881 333.6 506.561 338.42 513.431 343.03C514.731 343.91 516.051 344.74 517.341 345.56C523.131 349.14 528.751 351.98 533.991 354.2C538.051 355.93 541.86 357.31 545.35 358.42C545.48 358.48 545.621 358.51 545.751 358.55C545.831 358.59 545.91 358.63 545.991 358.65C546.051 358.65 546.121 358.69 546.181 358.73L546.22 358.75C546.81 359.12 547.231 359.7 547.491 360.46C547.641 361.06 547.52 361.74 547.17 362.33Z" fill="#DADCE0"/>
    <path d="M487.289 342.64L487.319 342.66H487.289C487.099 342.53 486.929 342.37 486.789 342.19C486.929 342.36 487.099 342.52 487.289 342.64Z" fill="#DADCE0"/>
    <path d="M495.34 328.53C495.22 328.49 495.08 328.46 494.95 328.44C494.56 328.38 494.13 328.44 493.68 328.56C494.12 328.43 494.55 328.38 494.94 328.43C495.08 328.46 495.21 328.49 495.34 328.53Z" fill="#DADCE0"/>
    <path d="M545.129 370.63C544.239 372.13 543.199 373.45 542.149 374.52C540.359 376.31 538.469 377.4 536.919 377.52C536.819 377.56 536.709 377.56 536.629 377.56C536.469 377.56 536.339 377.54 536.179 377.52C535.999 377.5 535.849 377.48 535.689 377.42C535.609 377.38 535.548 377.38 535.478 377.34C535.378 377.3 535.289 377.26 535.209 377.2L535.069 377.12C534.969 377.06 534.879 376.98 534.779 376.91V376.89C534.719 376.85 534.638 376.79 534.598 376.72C534.538 376.66 534.459 376.58 534.419 376.53C534.339 376.47 534.299 376.37 534.249 376.3C533.719 375.5 533.509 374.39 533.569 373.03C533.669 370.79 534.539 368.01 536.179 365.29C538.089 362.12 540.538 359.79 542.718 358.87C542.838 358.79 542.949 358.75 543.069 358.71C543.789 358.4 544.529 358.3 545.169 358.38C545.229 358.4 545.288 358.4 545.348 358.42C545.488 358.48 545.619 358.52 545.759 358.56C545.839 358.6 545.919 358.64 545.989 358.66C546.049 358.66 546.129 358.7 546.179 358.74L546.218 358.76C546.798 359.13 547.228 359.71 547.478 360.47C548.258 362.8 547.419 366.81 545.129 370.64V370.63Z" fill="#A6A9B3"/>
    <path d="M508.238 338.792L502.136 349.102C501.619 349.976 501.908 351.105 502.783 351.622L505.993 353.522C506.867 354.04 507.996 353.75 508.513 352.876L514.615 342.566C515.133 341.692 514.843 340.563 513.969 340.046L510.759 338.146C509.884 337.628 508.756 337.918 508.238 338.792Z" fill="#0b1b3b" class="tblr-illustrations tblr-illustrations-vocate tblr-illustrations-graduation-b"/>
    <path d="M515.781 331.55C512.391 334.31 517.611 338.65 513.761 341.32C513.221 341.69 512.341 341.85 512.061 341.71C511.971 341.67 511.891 341.63 511.801 341.59C511.511 341.45 511.801 341.05 512.211 340.66C515.291 337.84 509.961 333.49 513.891 330.82C514.441 330.45 515.411 330.31 515.781 330.46C515.891 330.5 516.001 330.55 516.111 330.59C516.491 330.74 516.231 331.15 515.771 331.53L515.781 331.55Z" fill="#0b1b3b" class="tblr-illustrations tblr-illustrations-vocate tblr-illustrations-graduation-b"/>
    <path d="M512.88 324.94C509.35 330.32 514.47 337.28 510.94 342.67C510.45 343.42 509.26 343.88 508.53 343.75L507.9 343.63C507.17 343.5 507.15 342.81 507.61 342.06C510.93 336.64 505.6 329.64 508.92 324.22C509.38 323.46 510.67 323.02 511.57 323.18C511.83 323.23 512.08 323.27 512.34 323.32C513.24 323.49 513.36 324.19 512.87 324.94H512.88Z" fill="#0b1b3b" class="tblr-illustrations tblr-illustrations-vocate tblr-illustrations-graduation-b"/>
    <path d="M533.988 354.2C531.618 355.99 526.418 359.57 520.548 361.55C516.818 358.28 512.518 355.03 507.598 352.02C507.228 351.79 506.858 351.57 506.488 351.36C506.548 351.3 506.588 351.26 506.648 351.22C508.888 349.29 513.398 347.06 517.348 345.56C523.148 349.14 528.768 351.98 533.998 354.2H533.988Z" fill="black" opacity="0.1"/>
    <path d="M539.408 369.87C540.128 371.95 541.119 373.45 542.149 374.52C540.359 376.31 538.469 377.4 536.919 377.52C536.819 377.56 536.709 377.56 536.629 377.56C536.469 377.56 536.339 377.54 536.179 377.52C535.999 377.5 535.849 377.48 535.689 377.42C535.609 377.38 535.548 377.38 535.478 377.34C535.378 377.3 535.289 377.26 535.209 377.2L535.069 377.12C534.969 377.06 534.879 376.98 534.779 376.91V376.89C534.719 376.85 534.638 376.79 534.598 376.72C534.538 376.66 534.459 376.58 534.419 376.53C534.339 376.47 534.299 376.37 534.249 376.3C533.719 375.5 533.509 374.39 533.569 373.03C533.669 370.79 534.539 368.01 536.179 365.29C538.089 362.12 540.538 359.79 542.718 358.87C540.408 361.3 537.858 365.41 539.408 369.88V369.87Z" fill="black" opacity="0.1"/>
    <path d="M525.841 353.43C525.081 354.31 524.291 355.11 523.341 355.77C522.801 356.17 522.221 356.49 521.641 356.81C516.331 359.61 510.161 358.56 508.001 354.41C506.001 350.69 507.921 345.78 512.161 342.79C512.701 342.39 513.191 342.1 513.771 341.78C514.351 341.46 514.871 341.26 515.481 341.03C520.351 339.19 525.501 340.42 527.501 344.14C528.881 347 528.141 350.56 525.841 353.43Z" fill="#FFCB9D" style="fill: #FFCB9D; fill: var(--tblr-illustrations-skin, #FFCB9D);"/>
    <path d="M525.84 353.43C525.08 354.31 524.29 355.11 523.34 355.77C519.92 351.19 516.18 346.84 512.16 342.79C512.7 342.39 513.19 342.1 513.77 341.78C514.35 341.46 514.87 341.26 515.48 341.03C520.35 339.19 525.5 340.42 527.5 344.14C528.88 347 528.14 350.56 525.84 353.43Z" fill="black" opacity="0.1"/>
    <path d="M555.452 265.7C555.452 265.7 577.202 298.58 571.112 314.56C565.022 330.54 530.562 359.35 528.212 356.39C525.862 353.43 514.012 337.78 514.012 337.78C514.012 337.78 535.262 333.24 543.102 311.15C550.942 289.07 539.152 277.65 539.152 277.65L555.462 265.7H555.452Z" fill="#1a3263" style="fill: #1a3263; fill: var(--tblr-illustrations-primary, var(--tblr-primary, #1a3263));"/>
    <path d="M507.211 288.18C502.801 287.96 496.051 287.3 488.121 285.14C481.271 283.28 473.551 280.29 465.691 275.49C461.031 272.65 450.721 266.2 441.921 254.46C439.531 251.28 437.251 247.71 435.221 243.71C424.511 222.59 422.231 192.35 434.271 184.09C435.181 183.47 435.881 182.46 436.931 182.66C447.141 184.66 457.331 186.66 467.541 188.66C469.181 188.98 469.981 190.83 469.111 192.25C465.351 198.46 458.701 212.2 462.071 228.73C464.391 240.1 471.221 251.65 479.781 256.7C486.771 260.83 494.221 261.53 494.221 261.53C496.101 261.7 497.681 261.68 498.781 261.62L507.201 288.16L507.211 288.18Z" fill="#1a3263" style="fill: #1a3263; fill: var(--tblr-illustrations-primary, var(--tblr-primary, #1a3263));"/>
    <path d="M490.762 274.27V283.58L488.122 285.13C481.272 283.27 473.552 280.28 465.692 275.48C461.032 272.64 450.722 266.19 441.922 254.45C454.872 262.02 477.512 273.43 490.772 274.26L490.762 274.27Z" fill="black" opacity="0.15"/>
    <path d="M388.579 276.47C383.869 280.32 377.729 283.67 367.899 287.13C357.449 290.59 346.829 291.56 335.959 289.87C330.609 289.17 325.129 287.94 320.339 285.82C319.679 285.53 319.079 285.18 318.489 284.87L318.469 284.85C326.909 286.25 338.269 287.25 351.549 285.94C367.279 284.38 379.909 280.15 388.569 276.47H388.579Z" fill="black" opacity="0.15"/>
    <path d="M297.57 419.98C297.4 420.25 296.27 420.18 294.89 419.98C292.66 419.64 289.78 418.95 289.32 418.85C289.28 418.83 289.27 418.83 289.27 418.83C291.18 411.98 291.74 400.38 291.84 390.75C291.93 381.66 291.61 374.32 291.61 374.32C291.61 374.32 293.44 387.16 295.08 399.21C295.22 400.15 295.33 401.08 295.46 402C296.73 411.39 297.77 419.65 297.58 419.97L297.57 419.98Z" fill="black" opacity="0.15"/>
    <path d="M261.371 322.75C261.371 322.75 264.851 347.02 263.111 355.1C261.381 363.18 255.891 389.63 255.891 389.63C255.891 389.63 267.461 360.28 268.171 352.17C268.881 344.06 261.371 322.75 261.371 322.75Z" fill="black" opacity="0.15"/>
    <path d="M249.51 279.74C248.73 279.64 247.95 279.49 247.16 279.29C234.11 276.14 217.71 262.25 208.34 251.01C196.46 236.73 190.95 220.78 188.48 207.27C193.63 218.08 201.37 231.66 212.92 245.71C225.79 261.36 239.08 272.36 249.52 279.75L249.51 279.74Z" fill="black" opacity="0.15"/>
    <path d="M494.512 261.39C501.402 271.5 515.822 292.15 515.852 292.45C515.872 292.78 536.312 270.31 543.872 261.98C543.052 261.4 542.162 260.89 541.192 260.46C539.502 259.72 538.142 259.5 536.612 259.54C534.902 259.58 532.982 259.94 530.142 260.29C528.072 260.54 525.512 260.79 522.192 260.89C513.502 261.14 509.592 260.09 505.452 259.88C504.242 259.81 503.022 259.82 501.642 259.95C500.452 260.06 499.152 260.27 497.652 260.61C496.652 260.83 495.632 261.08 494.522 261.4L494.512 261.39Z" fill="#DADCE0"/>
    <path d="M494.512 261.39C501.402 271.5 515.822 292.15 515.852 292.45C515.872 292.78 536.312 270.31 543.872 261.98C543.052 261.4 542.162 260.89 541.192 260.46C539.502 259.72 538.142 259.5 536.612 259.54C534.902 259.58 532.982 259.94 530.142 260.29C528.072 260.54 525.512 260.79 522.192 260.89C513.502 261.14 509.592 260.09 505.452 259.88C504.242 259.81 503.022 259.82 501.642 259.95C500.452 260.06 499.152 260.27 497.652 260.61C496.652 260.83 495.632 261.08 494.522 261.4L494.512 261.39Z" fill="black" opacity="0.1"/>
    <path d="M505.441 259.88C511.001 267.92 516.071 275.24 516.081 275.42C516.091 275.61 522.911 268.2 530.131 260.3C529.411 260.23 528.381 260.14 527.151 260.06C525.031 259.93 523.421 259.91 521.681 259.89C517.341 259.85 514.841 259.85 514.841 259.85C511.261 259.85 508.091 259.87 505.441 259.88Z" fill="#FFCB9D" style="fill: #FFCB9D; fill: var(--tblr-illustrations-skin, #FFCB9D);"/>
    <path d="M503.548 282.77C502.618 286.47 501.548 290.47 500.438 294.46C496.898 307.06 492.818 319.36 490.028 320.31C488.728 320.76 486.588 320.02 482.368 318.56C478.868 317.33 476.298 316.42 474.568 315.45C472.988 314.57 472.098 313.68 471.848 312.47C471.558 311.11 471.828 309.73 473.408 307.61C474.638 305.96 476.418 304.05 478.448 301.17C478.448 301.17 487.748 287.9 494.188 262.6C494.328 262.04 494.748 260.32 496.208 259.06C498.618 256.98 503.188 256.65 505.448 258.42C508.968 261.2 507.098 268.94 503.558 282.77H503.548Z" fill="#DADCE0"/>
    <path d="M543.879 282.76C542.669 296.34 540.689 314.13 538.009 320.07C537.559 321.06 537.099 321.72 536.609 321.98C535.399 322.64 533.169 322.27 528.769 321.49C521.829 320.26 518.339 319.6 517.389 317.19C516.879 315.89 516.939 314.49 518.149 312.13C518.249 311.94 518.359 311.72 518.479 311.51C519.409 309.82 520.719 307.79 522.079 304.97C522.079 304.97 529.099 290.38 531.359 264.38C531.399 263.78 531.549 262.03 532.779 260.53C534.819 258.1 539.279 257.03 541.809 258.41C545.739 260.59 545.139 268.52 543.889 282.76H543.879Z" fill="#DADCE0"/>
    <path d="M500.429 294.46C496.889 307.06 492.809 319.36 490.019 320.31C488.719 320.76 486.579 320.02 482.359 318.56C478.859 317.33 476.289 316.42 474.559 315.45C479.459 315.64 485.569 314.36 489.539 307.51C493.619 300.47 497.709 296.52 500.429 294.46Z" fill="black" opacity="0.1"/>
    <path d="M538.009 320.06C537.559 321.05 537.099 321.71 536.609 321.97C535.399 322.63 533.169 322.26 528.769 321.48C521.829 320.25 518.339 319.59 517.389 317.18C516.879 315.88 516.939 314.48 518.149 312.12C518.249 311.93 518.359 311.71 518.479 311.5C522.469 314.5 529.449 318.77 538.009 320.06Z" fill="black" opacity="0.1"/>
    <path d="M267.07 132.15C267.03 133.65 266.78 135.28 266.31 136.95C265.05 141.46 262.56 144.92 260.2 145.76C260.1 145.82 260.01 145.84 259.93 145.88C259.77 145.92 259.64 145.94 259.5 145.96C259.31 145.98 259.15 146 258.99 145.98H258.78C258.66 145.96 258.57 145.94 258.47 145.92L258.31 145.88C258.19 145.84 258.08 145.8 257.98 145.74L257.96 145.72C257.9 145.7 257.8 145.66 257.75 145.6C257.67 145.54 257.59 145.5 257.54 145.44C257.46 145.4 257.38 145.34 257.33 145.27C256.59 144.65 256.09 143.62 255.79 142.31C255.28 140.13 255.4 137.19 256.28 134.14C256.44 133.58 256.61 133.05 256.81 132.53C257.22 134.92 258.71 136.76 260.55 137.12C262.14 137.43 263.51 136.53 264.17 136.11C266.16 134.81 266.87 132.84 267.08 132.15H267.07Z" fill="black" opacity="0.1"/>
</svg>
