<svg xmlns="http://www.w3.org/2000/svg" width="800" height="600" fill="none" viewBox="0 0 800 600">
    <style>
        :where(.theme-dark, [data-theme="dark"]) .tblr-illustrations-hacker-a { fill: black; opacity: 0.07; } :where(.theme-dark, [data-theme="dark"]) .tblr-illustrations-hacker-b { fill: #24304d; }
        @media (prefers-color-scheme: dark) { .tblr-illustrations-hacker-a { fill: black; opacity: 0.07; } .tblr-illustrations-hacker-b { fill: #24304d; } }
    </style>
    <path d="M155.715 300C155.715 342.643 200.83 373.677 220.821 408.172C241.369 443.781 246.389 498.043 281.908 518.688C316.413 538.672 365.547 516.343 408.215 516.343C450.883 516.343 500.005 538.672 534.522 518.688C570.029 498.146 575.061 443.781 595.609 408.172C615.6 373.677 660.715 342.757 660.715 300C660.715 257.243 615.486 226.323 595.609 191.828C575.061 156.219 570.04 101.854 534.522 81.3123C500.016 61.3281 450.883 83.6567 408.215 83.6567C365.547 83.6567 316.425 61.3281 281.908 81.3123C246.287 101.854 241.369 156.219 220.821 191.828C200.83 226.436 155.715 257.357 155.715 300Z" fill="#1a3263" style="fill: #1a3263; fill: var(--tblr-illustrations-primary, var(--tblr-primary, #1a3263));" opacity="0.02" class="tblr-illustrations tblr-illustrations-vocate tblr-illustrations-hacker-a"/>
    <path d="M263.437 207.582L208.894 173.049C200.047 167.447 188.334 170.078 182.732 178.925L149.143 231.976C143.541 240.824 146.172 252.537 155.02 258.138L209.562 292.672C218.409 298.274 230.122 295.642 235.724 286.795L269.313 233.744C274.915 224.897 272.284 213.184 263.437 207.582Z" fill="#1a3263" style="fill: #1a3263; fill: var(--tblr-illustrations-primary, var(--tblr-primary, #1a3263));"/>
    <path d="M277.355 189L269.878 184.782L272.582 179.95C273.43 178.597 273.136 177.073 272.887 176.278C272.378 174.663 271.156 173.151 269.539 172.116L237.83 151.936C236.213 150.912 234.335 150.446 232.661 150.674C231.846 150.787 230.342 151.174 229.493 152.527L217.966 170.82L210.715 166.204L222.242 147.911C224.222 144.762 227.604 142.658 231.518 142.135C235.206 141.635 239.075 142.533 242.423 144.659L274.131 164.84C277.468 166.966 279.935 170.093 281.054 173.663C282.242 177.403 281.812 181.326 279.889 184.452L277.355 189Z" fill="#1a3263" style="fill: #1a3263; fill: var(--tblr-illustrations-primary, var(--tblr-primary, #1a3263));"/>
    <path d="M225.724 206.666C217.709 201.592 207.105 203.975 202.043 211.991C198.132 218.16 198.668 225.868 202.772 231.398L186.81 242.173C184.233 243.918 183.982 247.715 186.342 249.209L195.236 254.841L204.129 260.474C206.489 261.968 209.819 260.109 210.286 257.042L213.194 238C219.955 239.345 227.149 236.529 231.049 230.36C236.123 222.344 233.74 211.74 225.724 206.678V206.666Z" fill="white"/>
    <path d="M321.641 148C320.171 148 318.724 147.347 317.747 146.098C316.082 143.955 316.472 140.872 318.62 139.222L353.791 112.03C355.939 110.369 359.028 110.758 360.682 112.901C362.348 115.044 361.957 118.126 359.809 119.776L324.639 146.969C323.743 147.656 322.686 148 321.63 148H321.641Z" fill="#A6A9B3"/>
    <path d="M395.849 182C395.655 182 395.473 182 395.28 181.967L330.013 174.503C327.341 174.202 325.431 171.829 325.75 169.211C326.056 166.594 328.478 164.722 331.15 165.034L396.417 172.498C399.089 172.798 400.999 175.171 400.68 177.789C400.396 180.218 398.293 182 395.86 182H395.849Z" fill="#DADCE0"/>
    <path d="M532.715 226.563C531.632 230.708 529.969 236.767 527.712 244.173C527.188 245.804 526.732 247.254 526.596 247.718C523.838 255.747 520.066 263.414 515.394 270.514C514.437 271.919 513.491 273.221 512.477 274.489C508.717 279.11 487.693 281.227 471.057 275.701C454.42 270.175 451.845 252.372 460.767 246.914C463.969 244.615 466.738 241.75 468.914 238.477C471.98 234.196 474.737 229.712 477.153 225.057C478.611 222.43 479.432 220.641 479.432 220.641L495.362 212L527.553 218.908C526.003 224.208 526.618 228.24 528.271 228.942C529.923 229.644 532.27 227.096 532.715 226.552V226.563Z" fill="#FFCB9D" style="fill: #FFCB9D; fill: var(--tblr-illustrations-skin, #FFCB9D);"/>
    <path d="M532.692 226.667C531.622 230.848 529.977 236.959 527.747 244.43C527.228 246.075 526.778 247.537 526.642 248.005C523.916 256.116 520.198 263.838 515.568 271C513.653 269.881 511.951 268.407 510.577 266.648C509.09 264.694 507.997 262.467 507.366 260.091C506.746 257.555 506.521 254.939 506.713 252.323C506.735 250.633 506.87 248.942 507.096 247.263C494.038 248.714 480.88 245.709 469.715 238.707C472.734 234.389 475.449 229.866 477.849 225.171C479.291 222.521 480.102 220.716 480.102 220.716L495.852 212L527.69 218.968C526.158 224.314 526.755 228.381 528.377 229.089C530 229.809 532.264 227.193 532.715 226.656L532.692 226.667Z" fill="black" opacity="0.1"/>
    <path d="M461.49 213.041C462.001 215.432 462.784 217.755 463.806 219.965C465.032 222.852 466.679 225.536 468.688 227.95C477.704 238.866 494.508 242.971 511.336 238.065C514.186 237.231 516.967 236.171 519.658 234.897H519.738C519.738 234.897 519.761 234.998 519.738 235.054C519.454 236.802 519.034 238.528 518.489 240.219C518.216 240.998 518.16 241.234 517.989 241.753L517.774 242.261C517.467 243.185 514.379 249.377 513.743 252.997C513.391 255.399 513.8 257.846 514.912 260C516.377 256.684 518.648 253.786 521.521 251.564C522.622 250.82 523.757 250.144 524.95 249.546C530.752 245.768 534.975 240.005 536.815 233.352C537.53 230.622 537.825 227.792 537.678 224.961C537.678 223.123 537.292 216.39 534.033 212.049C527.3 203.06 506.589 202.576 496.041 203.771C494.19 203.996 490.966 204.459 488.581 203.23C488.127 203.004 487.718 202.677 487.378 202.294C485.152 199.824 485.924 195.369 487.287 192.708C489.898 187.577 496.791 184.859 504.818 185.626C488.786 178.07 471.289 182.953 464.147 194.456C460.831 200.049 459.866 206.726 461.478 213.018L461.49 213.041Z" fill="#0b1b3b" class="tblr-illustrations tblr-illustrations-vocate tblr-illustrations-hacker-b"/>
    <path d="M461.715 213.011C462.224 215.394 463.004 217.71 464.022 219.914C465.243 222.792 466.882 225.467 468.884 227.873C477.862 238.755 494.597 242.847 511.354 237.957C515.504 236.349 519.043 234.989 519.643 234.798H519.722L525.715 231.436C516.714 233.64 507.386 234.213 498.181 233.1C490.051 232.111 478.733 230.762 469.2 222.173C466.26 219.509 463.728 216.417 461.715 213V213.011Z" fill="black" opacity="0.5"/>
    <path d="M548.81 419.709C549.917 425.411 551.468 432.376 553.669 440.423C546.768 439.456 536.457 438.431 523.967 438.955C512.15 439.456 504.849 441.379 494.481 442.563C483.953 443.746 468.919 445.169 449.95 446C452.083 428.723 453.634 409.819 454.159 389.492C454.364 380.796 454.375 372.351 454.227 364.191C448.467 362.336 442.41 360.515 436.079 358.796C432.361 357.783 428.711 356.85 425.106 355.996C421.582 355.143 418.103 354.357 414.715 353.64C414.76 347.46 415.582 321.932 434.403 307.318C437.049 305.258 440.357 303.187 444.429 301.457C444.931 301.343 445.98 301.093 447.429 300.728C449.836 300.091 451.592 299.567 451.786 299.511C458.413 297.542 466.911 296.051 475.033 294.947C489.086 293.023 502.021 292.283 502.214 292.272C502.853 292.249 504.302 292.17 506.355 292.101C508.431 292.033 511.112 291.976 514.226 292.01C515.286 292.01 516.655 292.033 518.172 292.09C523.625 292.283 533.035 292.932 536.423 293.285C553.441 295.083 556.589 333.256 551.502 332.482C550.669 335.123 549.917 337.649 549.232 340.028C542.149 364.726 542.297 376.483 543.038 382.003C543.221 383.414 544.476 392.36 546.05 402.796C546.848 408.123 547.259 410.786 547.658 413.199C547.977 415.134 548.365 417.308 548.822 419.709H548.81Z" fill="#DADCE0"/>
    <path d="M475.718 295.218C475.92 298.91 485.701 301.469 497.575 300.928C509.449 300.387 518.914 296.965 518.712 293.273C518.689 292.868 518.543 292.473 518.318 292.088C516.832 292.036 515.493 292.015 514.423 292.005C511.351 291.984 508.706 292.036 506.669 292.098C504.643 292.161 503.202 292.223 502.583 292.254C502.403 292.265 489.629 292.941 475.763 294.698C475.729 294.875 475.707 295.052 475.718 295.218Z" fill="#FFCB9D" style="fill: #FFCB9D; fill: var(--tblr-illustrations-skin, #FFCB9D);"/>
    <path d="M450.703 348.043C450.34 349.326 449.942 350.769 449.521 352.313C446.906 361.491 444.529 368.305 444.279 368.964C444.188 369.203 444.097 369.407 444.029 369.6C443.96 369.77 443.892 369.918 443.824 370.054C443.244 371.361 442.346 372.951 441.186 374.711C439.685 376.994 437.729 379.584 435.375 382.241C434.591 383.127 433.749 384.036 432.851 384.933C425.585 392.384 415.396 399.903 403.672 402.742C361.212 413.021 309.303 357.799 316.365 328.064C318.184 320.443 324.415 312.232 330.931 312.004C340.994 311.664 343.735 330.983 363.384 351.598C377.814 366.692 399.067 380.095 407.834 374.359C410.506 372.599 412.678 368.657 414.191 364.966C414.918 363.194 415.51 361.479 415.93 360.105C416.442 358.447 416.692 357.254 416.704 357.038C416.726 356.13 416.749 355.039 416.749 355.039C416.738 351.927 416.51 349.326 416.294 347.395C424.186 347.577 432.1 347.725 440.015 347.861C443.574 347.929 447.144 347.986 450.715 348.054L450.703 348.043Z" fill="#FFCB9D" style="fill: #FFCB9D; fill: var(--tblr-illustrations-skin, #FFCB9D);"/>
    <path d="M450.715 347.667C450.346 348.966 449.943 350.425 449.517 351.989C446.867 361.276 444.46 368.172 444.206 368.839C444.114 369.08 444.022 369.287 443.953 369.483C443.884 369.655 443.815 369.805 443.746 369.943C443.239 370.977 442.686 371.69 441.073 374.655C439.553 376.966 437.571 379.586 435.187 382.276C434.392 383.172 433.54 384.092 432.63 385C431.65 381.609 429.727 377.184 425.948 373.011C421.917 368.552 417.309 366.115 413.715 364.782C414.452 362.988 415.051 361.253 415.477 359.862C415.996 358.184 416.249 356.977 416.261 356.759C416.376 356.195 416.41 355.529 416.307 354.736C416.295 351.586 416.065 348.954 415.846 347C423.84 347.184 431.858 347.333 439.875 347.471C443.481 347.54 447.098 347.598 450.715 347.667Z" fill="black" opacity="0.1"/>
    <path d="M317.683 302C316.357 298.033 315.041 294.066 313.715 290.099C324.305 283.4 334.884 276.7 345.474 270C348.55 274.37 351.638 278.752 354.715 283.123C342.375 289.419 330.023 295.715 317.683 302Z" fill="#1a3263" style="fill: #1a3263; fill: var(--tblr-illustrations-primary, var(--tblr-primary, #1a3263));"/>
    <path d="M346.036 394.079C345.798 393.703 345.594 393.293 345.424 392.86L291.124 247.64C289.889 244.334 291.543 240.653 294.828 239.41C298.112 238.168 301.782 239.843 303.006 243.137L357.306 388.357C358.54 391.663 356.887 395.344 353.602 396.587C350.759 397.669 347.622 396.552 346.036 394.079Z" fill="#DADCE0"/>
    <path d="M346.036 394.079C345.798 393.703 345.594 393.293 345.424 392.86L291.124 247.64C289.889 244.334 291.543 240.653 294.828 239.41C298.112 238.168 301.782 239.843 303.006 243.137L357.306 388.357C358.54 391.663 356.887 395.344 353.602 396.587C350.759 397.669 347.622 396.552 346.036 394.079Z" fill="black" opacity="0.1"/>
    <path d="M423.869 351.118C421.385 353.627 417.359 353.627 414.876 351.118L392.84 328.902L305.581 240.955C305.263 240.634 304.968 240.267 304.73 239.889C303.131 237.403 303.426 234.057 305.581 231.892C308.053 229.371 312.068 229.371 314.551 231.88L396.707 314.683L423.846 342.044C426.341 344.553 426.33 348.62 423.858 351.13L423.869 351.118Z" fill="#DADCE0"/>
    <path d="M317.028 229.736C319.672 229.678 320.732 233.133 318.51 234.575L306.017 242.674L292.305 251.564C290.082 253.005 287.369 250.614 288.52 248.212C289.364 246.438 288.053 244.402 286.092 244.448L276.358 244.665C275.446 244.688 274.591 244.23 274.09 243.464L259.135 220.183C258.804 219.668 258.656 219.05 258.736 218.433L260.013 208.045C260.195 206.603 261.494 205.574 262.942 205.757L271.605 206.832C273.041 207.015 274.067 208.319 273.885 209.772L273.235 215.103C273.155 215.71 273.303 216.339 273.634 216.854L281.613 229.266C282.103 230.033 282.969 230.491 283.881 230.468L295.53 230.205C296.522 230.182 297.411 229.61 297.833 228.706L302.86 218.158C303.258 217.334 303.19 216.362 302.7 215.595L294.721 203.194C294.39 202.679 293.878 202.29 293.296 202.107L288.167 200.506C286.788 200.071 286.013 198.595 286.446 197.211L289.033 188.848C289.466 187.464 290.937 186.686 292.316 187.121L302.278 190.232C302.871 190.415 303.372 190.804 303.703 191.319L318.658 214.589C319.148 215.355 319.216 216.328 318.817 217.151L314.611 225.96C313.768 227.733 315.079 229.77 317.039 229.724L317.028 229.736Z" fill="#A6A9B3"/>
    <path d="M288.388 248.244C289.227 246.48 287.922 244.455 285.971 244.5L276.28 244.717C275.372 244.739 274.521 244.284 274.021 243.522L259.133 220.368C258.804 219.856 258.657 219.242 258.736 218.627L260.007 208.297C260.188 206.863 261.482 205.839 262.923 206.021L271.548 207.09C272.977 207.273 273.999 208.57 273.817 210.015L273.17 215.317C273.091 215.92 273.238 216.545 273.568 217.057L281.511 229.402C281.999 230.164 282.861 230.62 283.769 230.597L295.582 230.335C296.445 230.312 297.262 230.722 297.761 231.427L304.229 240.495C305.092 241.713 304.774 243.408 303.526 244.216L292.167 251.566C289.954 253 287.253 250.622 288.399 248.232L288.388 248.244Z" fill="black" opacity="0.1"/>
    <path d="M423.862 351.085C421.369 353.638 417.328 353.638 414.834 351.085L392.715 328.48C392.897 322.872 394.787 317.731 396.597 314L423.839 341.84C426.344 344.393 426.332 348.532 423.851 351.085H423.862Z" fill="black" opacity="0.1"/>
    <path d="M548.145 412.247C547.747 409.84 547.349 407.184 546.541 401.87C544.971 391.46 543.709 382.536 543.538 381.129C542.81 375.623 542.651 363.895 549.715 339.259C546.211 331.517 543.345 325.295 543.129 325C523.608 342.881 504.1 360.75 484.579 378.631C481.463 374.748 478.414 370.741 475.456 366.608C471.896 361.647 469.393 358.196 466.834 353.836C464.32 349.568 461.078 343.324 458.245 335.104C458.996 344.663 459.736 354.222 460.486 363.781C458.655 363.657 456.812 363.52 454.981 363.395C455.128 371.558 455.117 379.971 454.901 388.633C454.4 408.682 452.876 427.528 450.715 445C469.632 444.183 484.636 442.763 495.136 441.571C500.221 440.992 508.32 439.993 524.541 437.984C533.221 436.905 540.398 436.009 545.301 435.384C539.352 431.161 533.448 426.665 527.635 421.908C535.12 420.943 543.117 419.842 549.317 418.775C548.862 416.379 548.475 414.2 548.156 412.281L548.145 412.247Z" fill="black" opacity="0.1"/>
    <path d="M538.429 353.614C538.384 353.885 538.338 354.123 538.293 354.281C537.28 358.419 534.129 362.511 514.291 372.074C511.743 373.295 508.922 374.607 505.794 376.042C500.516 378.45 497.865 379.648 496.307 380.248C466.47 391.631 401.187 366.027 398.787 334.272C398.196 326.517 401.244 316.66 407.273 314.433C415.896 311.268 424.074 325.975 450.601 341.88C465.139 350.585 476.582 357.22 489.254 354.27C491.188 353.818 492.997 353.173 494.692 352.393C500.504 349.737 504.895 345.452 508.023 341.62C509.138 340.241 510.093 338.918 510.878 337.743C524.312 336.318 534.982 339.947 537.894 346.831C539.043 349.556 538.736 352.224 538.452 353.603L538.429 353.614Z" fill="#FFCB9D" style="fill: #FFCB9D; fill: var(--tblr-illustrations-skin, #FFCB9D);"/>
    <path d="M538.703 353.808C538.658 354.076 538.612 354.31 538.566 354.466C537.548 358.543 534.379 362.576 514.427 372C517.996 363.489 502.609 355.88 494.715 352.616C500.561 349.999 504.977 345.776 508.123 342L529.391 345.119L538.715 353.808H538.703Z" fill="black" opacity="0.1"/>
    <path d="M521.68 309.65C519.742 312.148 493.511 341.327 494.758 342.16C496.005 342.992 537.766 363 537.766 363C537.766 363 554.407 340.335 553.692 328.825C552.978 317.316 539.092 300 539.092 300L521.692 309.662L521.68 309.65Z" fill="#DADCE0"/>
    <path d="M421.902 504.635L403.683 489.146C401.296 487.095 401.045 483.513 403.124 481.159C404.106 480.043 405.488 479.356 406.984 479.232L574.322 467.01C575.898 466.92 577.44 467.449 578.605 468.497L595.842 484.065C598.172 486.149 598.354 489.709 596.241 492.007C595.248 493.088 593.877 493.742 592.392 493.843L426.037 505.987C424.529 506.088 423.033 505.604 421.891 504.635H421.902Z" fill="#0b1b3b" class="tblr-illustrations tblr-illustrations-vocate tblr-illustrations-hacker-b"/>
    <path d="M618.637 399.298L608.897 469.424L608.189 474.526L606.316 488.02C605.917 491.004 603.462 493.316 600.436 493.521L514.922 499.841L504.383 500.615L431.681 505.979C428.141 506.264 425.047 503.644 424.739 500.126C424.693 499.659 424.716 499.192 424.784 498.713L434.947 425.535L435.837 419.113L437.093 410.014C437.493 407.008 439.948 404.707 442.974 404.479L611.752 392.021C615.28 391.736 618.397 394.356 618.694 397.874C618.74 398.353 618.705 398.842 618.637 399.309V399.298Z" fill="#0b1b3b" class="tblr-illustrations tblr-illustrations-vocate tblr-illustrations-hacker-b"/>
    <path d="M607.703 474.485L605.836 487.997C605.437 490.984 602.989 493.299 599.971 493.504L514.684 499.833L504.172 500.608L431.663 505.979C428.132 506.264 425.046 503.641 424.739 500.118C424.693 499.65 424.716 499.183 424.784 498.704L434.92 425.431L435.808 419C454.086 428.019 552.163 471.919 607.715 474.485H607.703Z" fill="black" opacity="0.1"/>
    <path d="M504.737 448.266V439.161C504.737 437.785 505.763 436.593 507.014 436.524C508.254 436.455 509.246 437.51 509.235 438.875L509.111 447.899C509.111 448.243 509.37 448.507 509.686 448.484L516.618 447.888C517.554 446.018 518.963 444.413 520.631 443.324C520.507 442.739 520.428 442.12 520.462 441.466L520.778 434.769C520.811 434.001 520.98 433.256 521.206 432.545L516.877 432.763C515.063 432.854 513.609 431.215 513.665 429.082L513.834 422.511C513.857 421.525 514.555 420.711 515.401 420.688C516.235 420.665 516.877 421.445 516.844 422.431L516.618 428.956C516.618 429.208 516.776 429.414 517.001 429.403L523.257 429.128C524.418 427.958 525.861 427.201 527.417 427.144L533.199 426.915C534.699 426.857 535.972 427.488 536.908 428.531L542.6 428.279C542.792 428.279 542.972 428.073 542.995 427.832L543.671 421.697C543.773 420.78 544.449 420.012 545.17 420C545.892 419.989 546.388 420.711 546.275 421.628L545.554 427.729C545.317 429.713 543.84 431.375 542.24 431.456L538.328 431.65C538.441 432.316 538.497 433.015 538.418 433.749L537.776 440.193C537.708 440.824 537.55 441.432 537.359 442.017C538.757 442.831 539.816 444.161 540.414 445.801L546.41 445.285C546.681 445.262 546.929 444.986 546.974 444.665L548.034 436.363C548.191 435.113 549.149 434.036 550.175 433.978C551.19 433.921 551.866 434.884 551.686 436.123L550.547 444.356C550.175 447.005 548.09 449.309 545.869 449.527L540.898 450.009C540.898 450.078 540.898 450.146 540.887 450.215L540.628 452.543L545.554 452.039C547.763 451.809 549.251 453.69 548.901 456.201L547.887 463.494C547.74 464.537 546.873 465.478 545.948 465.604C545.013 465.73 544.37 464.985 544.494 463.941L545.441 456.591C545.475 456.293 545.294 456.075 545.035 456.098L540.166 456.648L539.918 458.884C539.377 463.735 535.454 468.046 531.047 468.665L523.269 469.755C518.602 470.408 514.871 466.934 515.04 461.843L515.119 459.48L509.483 460.123C509.167 460.157 508.919 460.444 508.908 460.776L508.807 468.677C508.795 469.801 507.871 470.833 506.755 470.982C505.628 471.131 504.715 470.351 504.715 469.216V461.258C504.715 458.517 506.902 456.029 509.551 455.754L515.266 455.169L515.344 452.715C515.344 452.646 515.356 452.577 515.367 452.497L509.596 453.059C506.924 453.323 504.715 451.19 504.715 448.277L504.737 448.266Z" fill="#1a3263" style="fill: #1a3263; fill: var(--tblr-illustrations-primary, var(--tblr-primary, #1a3263));"/>
    <path d="M458.715 131.364L450.868 135.787V134.156L458.715 138.579L455.82 143.553L448.509 139.061L449.336 138.579L449.459 147H443.915L444.026 138.579L444.798 139.061L437.487 143.553L434.715 138.579L442.495 134.156V135.787L434.715 131.364L437.487 126.389L444.798 130.939L444.026 131.421L443.915 123H449.459L449.336 131.421L448.509 130.939L455.82 126.389L458.715 131.364Z" fill="#1a3263" style="fill: #1a3263; fill: var(--tblr-illustrations-primary, var(--tblr-primary, #1a3263));"/>
    <path d="M489.715 131.364L481.541 135.787V134.156L489.715 138.579L486.699 143.553L479.084 139.061L479.945 138.579L480.073 147H474.298L474.414 138.579L475.218 139.061L467.603 143.553L464.715 138.579L472.819 134.156V135.787L464.715 131.364L467.603 126.389L475.218 130.939L474.414 131.421L474.298 123H480.073L479.945 131.421L479.084 130.939L486.699 126.389L489.715 131.364Z" fill="#A6A9B3"/>
    <path d="M519.715 131.364L511.868 135.787V134.156L519.715 138.579L516.82 143.553L509.509 139.061L510.336 138.579L510.459 147H504.915L505.026 138.579L505.798 139.061L498.487 143.553L495.715 138.579L503.495 134.156V135.787L495.715 131.364L498.487 126.389L505.798 130.939L505.026 131.421L504.915 123H510.459L510.336 131.421L509.509 130.939L516.82 126.389L519.715 131.364Z" fill="#A6A9B3"/>
    <path d="M549.715 131.364L541.868 135.787V134.156L549.715 138.579L546.82 143.553L539.509 139.061L540.336 138.579L540.459 147H534.915L535.026 138.579L535.798 139.061L528.487 143.553L525.715 138.579L533.495 134.156V135.787L525.715 131.364L528.487 126.389L535.798 130.939L535.026 131.421L534.915 123H540.459L540.336 131.421L539.509 130.939L546.82 126.389L549.715 131.364Z" fill="#DADCE0"/>
    <path d="M580.715 131.364L572.541 135.787V134.156L580.715 138.579L577.699 143.553L570.084 139.061L570.945 138.579L571.074 147H565.298L565.414 138.579L566.218 139.061L558.603 143.553L555.715 138.579L563.819 134.156V135.787L555.715 131.364L558.603 126.389L566.218 130.939L565.414 131.421L565.298 123H571.074L570.945 131.421L570.084 130.939L577.699 126.389L580.715 131.364Z" fill="#DADCE0"/>
    <path d="M610.715 131.364L602.541 135.787V134.156L610.715 138.579L607.699 143.553L600.084 139.061L600.945 138.579L601.073 147H595.298L595.414 138.579L596.218 139.061L588.603 143.553L585.715 138.579L593.819 134.156V135.787L585.715 131.364L588.603 126.389L596.218 130.939L595.414 131.421L595.298 123H601.073L600.945 131.421L600.084 130.939L607.699 126.389L610.715 131.364Z" fill="#DADCE0"/>
    <path d="M640.715 131.364L632.868 135.787V134.156L640.715 138.579L637.82 143.553L630.509 139.061L631.336 138.579L631.459 147H625.915L626.026 138.579L626.798 139.061L619.487 143.553L616.715 138.579L624.495 134.156V135.787L616.715 131.364L619.487 126.389L626.798 130.939L626.026 131.421L625.915 123H631.459L631.336 131.421L630.509 130.939L637.82 126.389L640.715 131.364Z" fill="#DADCE0"/>
</svg>
