<svg xmlns="http://www.w3.org/2000/svg" width="800" height="600" fill="none" viewBox="0 0 800 600">
    <style>
        :where(.theme-dark, [data-theme="dark"]) .tblr-illustrations-halloween-a { fill: black; opacity: 0.07; } :where(.theme-dark, [data-theme="dark"]) .tblr-illustrations-halloween-b { fill: black; opacity: 0.3; } :where(.theme-dark, [data-theme="dark"]) .tblr-illustrations-halloween-c { fill: #24304d; }
        @media (prefers-color-scheme: dark) { .tblr-illustrations-halloween-a { fill: black; opacity: 0.07; } .tblr-illustrations-halloween-b { fill: black; opacity: 0.3; } .tblr-illustrations-halloween-c { fill: #24304d; } }
    </style>
    <path d="M140.918 299.628C140.918 345.822 189.749 379.33 211.306 416.618C233.566 455.099 238.917 513.91 277.383 536.165C314.684 557.745 367.756 533.608 413.932 533.608C460.108 533.608 513.18 557.745 550.453 536.165C588.919 513.91 594.27 455.085 616.53 416.618C638.101 379.33 686.918 345.822 686.918 299.628C686.918 253.433 638.087 219.939 616.53 182.652C594.27 144.17 588.919 85.3594 550.453 63.105C513.18 41.5251 460.08 65.6621 413.932 65.6621C367.784 65.6621 314.684 41.5251 277.383 63.105C238.917 85.3594 233.566 144.184 211.306 182.652C189.735 219.939 140.918 253.447 140.918 299.628Z" fill="#1a3263" style="fill: #1a3263; fill: var(--tblr-illustrations-primary, var(--tblr-primary, #1a3263));" opacity="0.02" class="tblr-illustrations tblr-illustrations-vocate tblr-illustrations-halloween-a"/>
    <path d="M213.918 409.135C229.918 401.194 245.918 393.268 261.918 385.328V371.135L216.321 390.529C215.515 396.726 214.724 402.937 213.918 409.135Z" fill="#A6A9B3"/>
    <path d="M213.918 409.135C229.918 401.194 245.918 393.268 261.918 385.328V371.135L216.321 390.529C215.515 396.726 214.724 402.937 213.918 409.135Z" fill="black" opacity="0.1"/>
    <path d="M229.198 451.869C238.1 446.02 247.002 440.17 255.918 434.32C251.761 426.683 253.441 429.772 249.283 422.135C241.487 425.911 233.691 429.686 225.895 433.462C225.237 433.777 224.845 434.492 224.929 435.221C225.475 440.342 226.021 445.462 226.567 450.582C226.707 451.869 228.12 452.556 229.184 451.855L229.198 451.869Z" fill="#A6A9B3"/>
    <path d="M229.198 451.869C238.1 446.02 247.002 440.17 255.918 434.32C251.761 426.683 253.441 429.772 249.283 422.135C241.487 425.911 233.691 429.686 225.895 433.462C225.237 433.777 224.845 434.492 224.929 435.221C225.475 440.342 226.021 445.462 226.567 450.582C226.707 451.869 228.12 452.556 229.184 451.855L229.198 451.869Z" fill="black" opacity="0.1"/>
    <path d="M259.952 193.141C259.799 193.169 259.645 193.197 259.477 193.225V193.183C259.379 193.211 259.296 193.239 259.212 193.268C255.747 193.926 252.295 195.2 252.295 195.2C250.66 195.803 249.347 196.391 248.495 196.797C244.331 198.17 240.167 199.543 236.003 200.915C235.542 200.971 232.356 201.349 229.897 199.038C228.304 197.526 227.871 195.719 227.731 195.018C220.186 197.105 212.626 199.178 205.081 201.251C205.095 202.148 205.053 204.375 203.656 206.658C201.979 209.375 199.492 210.398 198.71 210.692L177.918 218.676C182.627 231.885 187.35 245.093 192.072 258.316C200.498 281.917 208.924 305.519 217.363 329.135C241.215 324.078 265.08 319.022 288.918 313.965L278.788 272.421L274.805 256.089C274.805 256.089 264.521 192.385 259.938 193.141H259.952Z" fill="#1a3263" style="fill: #1a3263; fill: var(--tblr-illustrations-primary, var(--tblr-primary, #1a3263));"/>
    <path d="M278.772 272.196L288.918 313.905C265.042 318.982 241.139 324.058 217.249 329.135C208.81 305.439 200.371 281.744 191.918 258.035L193.275 248.135C193.275 248.135 242.65 271.675 278.772 272.182V272.196Z" fill="black" opacity="0.1"/>
    <path d="M276.947 255.958L273.006 258.263L234.737 280.692L203.745 298.864C202.694 299.486 201.347 298.991 200.927 297.832L200.113 295.555L196.033 284.227C195.71 283.322 196.089 282.304 196.916 281.823L203.114 278.316L252.07 250.669L272.053 239.384C273.203 238.748 274.633 239.384 274.928 240.671L277.536 252.31L277.873 253.809C278.055 254.657 277.676 255.52 276.947 255.958Z" fill="#DADCE0"/>
    <path d="M287.927 284.679L275.978 291.576L214.746 326.878C213.694 327.476 212.334 326.989 211.927 325.849L207.187 312.89L207.033 312.473C206.71 311.583 207.089 310.582 207.916 310.124L254.296 284.36L283.06 268.384C283.299 268.259 283.537 268.176 283.79 268.148C284.743 268.037 285.697 268.648 285.935 269.649L288.867 282.566C289.063 283.4 288.684 284.248 287.941 284.679H287.927Z" fill="#DADCE0"/>
    <path d="M283.918 267.872C283.918 268.547 283.535 269.166 282.925 269.518L256.137 284.796L206.42 313.143L205.129 313.874C204.065 314.479 202.703 313.987 202.277 312.847L197.042 298.653C196.701 297.752 197.084 296.725 197.936 296.261L199.496 295.403L227.888 279.801L269.474 256.955L277.803 252.383C278.952 251.75 280.385 252.383 280.683 253.663L282.513 261.64L283.833 267.365C283.875 267.534 283.89 267.703 283.89 267.872H283.918Z" fill="#A6A9B3"/>
    <path d="M287.908 284.298L275.899 291.135C269.641 288.392 262.975 286.214 256.153 284.491C255.476 284.312 254.8 284.146 254.109 283.981C247.612 282.424 241.044 281.266 234.687 280.397C232.46 280.094 230.275 279.832 228.105 279.598C218.633 278.578 209.895 278.192 202.918 278.082L252.122 251.135C257.943 253.189 263.933 255.297 269.43 257.213C270.698 257.668 271.953 258.109 273.165 258.537C276.59 259.75 279.733 260.852 282.397 261.803L283.708 267.413C283.75 267.579 283.764 267.744 283.764 267.909C284.723 267.799 285.681 268.406 285.921 269.398L288.866 282.203C289.064 283.03 288.683 283.871 287.936 284.298H287.908Z" fill="black" opacity="0.1"/>
    <path d="M318.918 180.894L306.76 222.135H293.918L308.67 177.135L318.918 180.894Z" fill="#A6A9B3"/>
    <path d="M373.546 182.039C374.887 181.38 376.213 180.849 377.653 180.548C378.486 180.347 379.333 180.261 380.166 180.19C387.788 179.587 394.451 184.018 394.888 190.055C395.34 195.504 390.611 200.336 384.146 201.712C383.313 201.913 382.594 201.999 381.761 202.085C380.928 202.171 380.222 202.128 379.389 202.085C372.769 201.77 367.377 197.654 366.926 192.206C366.756 188.105 369.438 184.247 373.574 182.039H373.546Z" fill="#FFCB9D" style="fill: #FFCB9D; fill: var(--tblr-illustrations-skin, #FFCB9D);"/>
    <path d="M373.472 181.656C374.795 180.983 376.104 180.442 377.525 180.135C379.182 187.461 381.313 194.699 383.918 201.704C383.096 201.909 382.386 201.996 381.564 202.084C380.742 202.172 380.046 202.128 379.224 202.084C372.692 201.762 367.371 197.566 366.925 192.009C366.758 187.827 369.405 183.893 373.486 181.641L373.472 181.656Z" fill="black" opacity="0.1"/>
    <path d="M229.024 200.363C239.107 197.834 249.455 195.418 260.07 193.171C300.007 184.722 337.9 179.72 373.104 177.135C375.709 189.286 378.313 201.423 380.918 213.574C338.782 216.357 296.646 219.141 254.496 221.924C243.042 223.422 232.049 216.809 227.918 205.916C228.282 204.065 228.66 202.214 229.024 200.363Z" fill="#1a3263" style="fill: #1a3263; fill: var(--tblr-illustrations-primary, var(--tblr-primary, #1a3263));"/>
    <path d="M406.918 497.135C561.558 497.135 686.918 495.344 686.918 493.135C686.918 490.926 561.558 489.135 406.918 489.135C252.278 489.135 126.918 490.926 126.918 493.135C126.918 495.344 252.278 497.135 406.918 497.135Z" fill="#d9e2f3" opacity="0.5" class="tblr-illustrations tblr-illustrations-vocate tblr-illustrations-halloween-b"/>
    <path d="M275.836 98.0981C279.475 95.8751 283.816 96.6301 286.766 99.9156C289.253 102.712 290.096 106.584 290.349 109.241C290.461 110.303 291.585 110.863 292.358 110.234C295.336 107.787 299.144 107.339 302.684 109.185C306.871 111.38 310.102 116.483 311.156 122.355C311.367 123.529 312.744 123.879 313.39 122.942C318.223 115.896 325.908 113.966 332.399 118.007C335.518 119.95 337.78 122.914 339.409 125.906C339.409 125.906 339.409 125.906 339.409 125.92C339.508 126.116 339.606 126.312 339.704 126.493C340.07 126.969 340.646 127.22 341.222 127.108C341.798 126.997 342.233 126.535 342.388 125.962C342.402 125.752 342.43 125.543 342.444 125.319C342.444 125.319 342.444 125.319 342.444 125.305C342.795 121.908 343.75 118.314 345.886 115.337C350.34 109.143 358.179 107.997 365.344 112.666C366.3 113.295 367.452 112.442 367.185 111.268C365.906 105.452 366.932 99.4962 369.967 95.8752C372.523 92.8133 376.218 91.7787 379.913 92.9112C380.869 93.2048 381.698 92.2541 381.389 91.2335C380.616 88.675 379.885 84.7743 381.122 81.2512C382.583 77.0849 386.292 74.7361 390.521 75.4072C391.729 75.6029 392.403 74.023 391.504 73.1003C383.257 64.6559 370.852 64.9075 366.637 65.271C365.878 65.3409 365.4 66.1238 365.597 66.9347C369.067 81.5447 355.552 92.7015 349.047 97.1055C348.134 97.7206 346.912 96.7979 347.15 95.6375C347.909 91.7927 346.026 88.5352 343.975 86.2703C343.146 85.3475 341.713 86.0326 341.868 87.2909C342.528 92.6036 335.925 94.8406 334.97 95.1342C334.899 95.1482 334.815 95.1761 334.745 95.1761C333.747 95.274 326.793 95.7074 325.374 90.5484C325.037 89.3321 323.449 89.2482 323.028 90.4086C322.002 93.2887 321.51 97.0076 323.688 100.279C324.348 101.258 323.59 102.586 322.494 102.362C314.781 100.754 298.006 95.5955 295.603 80.7758C295.477 79.9509 294.718 79.4057 294.002 79.6434C289.97 80.9016 278.407 85.4035 274.024 96.3365C273.546 97.5389 274.782 98.7272 275.822 98.0981H275.836Z" fill="#0b1b3b" class="tblr-illustrations tblr-illustrations-vocate tblr-illustrations-halloween-c"/>
    <path d="M153.876 198.311C151.806 197.016 149.344 197.457 147.666 199.364C146.253 200.986 145.777 203.235 145.624 204.786C145.568 205.398 144.924 205.725 144.477 205.355C142.784 203.932 140.63 203.676 138.616 204.743C136.238 206.024 134.406 208.984 133.804 212.385C133.678 213.068 132.895 213.268 132.531 212.727C129.79 208.643 125.426 207.518 121.733 209.852C119.957 210.976 118.67 212.698 117.747 214.435C117.691 214.548 117.635 214.662 117.579 214.762C117.369 215.032 117.047 215.189 116.712 215.118C116.376 215.046 116.138 214.79 116.054 214.449C116.054 214.321 116.04 214.207 116.026 214.079C115.83 212.115 115.285 210.023 114.068 208.287C111.536 204.686 107.088 204.032 103.018 206.736C102.473 207.091 101.829 206.608 101.969 205.925C102.696 202.538 102.109 199.094 100.388 196.988C98.9337 195.209 96.8356 194.611 94.7375 195.266C94.192 195.436 93.7304 194.881 93.8983 194.284C94.3459 192.79 94.7515 190.541 94.0521 188.492C93.2269 186.073 91.1148 184.706 88.709 185.105C88.0236 185.219 87.6459 184.308 88.1495 183.767C92.8352 178.872 99.8849 179 102.277 179.213C102.71 179.256 102.976 179.711 102.864 180.181C100.892 188.663 108.571 195.138 112.264 197.699C112.781 198.055 113.481 197.514 113.341 196.845C112.907 194.611 113.984 192.718 115.145 191.395C115.607 190.868 116.432 191.267 116.334 191.993C115.956 195.081 119.705 196.376 120.251 196.546C120.292 196.546 120.334 196.561 120.376 196.575C120.936 196.632 124.894 196.888 125.706 193.885C125.901 193.174 126.797 193.131 127.034 193.8C127.608 195.465 127.902 197.642 126.657 199.535C126.279 200.104 126.713 200.873 127.328 200.745C131.706 199.82 141.232 196.817 142.602 188.207C142.672 187.723 143.106 187.41 143.512 187.553C145.805 188.293 152.366 190.897 154.855 197.244C155.135 197.941 154.422 198.638 153.834 198.268L153.876 198.311Z" fill="#0b1b3b" class="tblr-illustrations tblr-illustrations-vocate tblr-illustrations-halloween-c"/>
    <path d="M587.918 322.533C584.049 372.451 580.181 422.383 576.326 472.301H566.304C560.151 435.753 553.998 399.219 547.872 362.671C545.686 377.468 543.485 392.251 541.298 407.049C527.59 429.082 513.882 451.101 500.159 473.135L488.918 469.813C496.501 446.127 504.098 422.44 511.681 398.753C512.424 370.218 513.153 341.669 513.896 313.135L558.006 319.382C567.972 320.427 577.938 321.473 587.918 322.533Z" fill="#1a3263" style="fill: #1a3263; fill: var(--tblr-illustrations-primary, var(--tblr-primary, #1a3263));"/>
    <path d="M587.918 323.267C584.054 372.885 580.19 422.517 576.339 472.135H566.329C560.183 435.806 554.036 399.492 547.918 363.164L558.04 320.135C567.995 321.174 577.949 322.214 587.918 323.267Z" fill="black" opacity="0.1"/>
    <path d="M567.904 137.612C567.21 141.238 566.134 146.555 564.618 153.066C564.264 154.502 563.953 155.767 563.868 156.179C561.956 163.259 559.18 170.055 555.583 176.438C554.846 177.704 554.11 178.884 553.317 180.021C550.357 184.215 532.555 187.2 518.068 183.362C503.58 179.523 500.393 164.34 507.701 159.137C510.307 156.976 512.502 154.36 514.187 151.417C516.567 147.564 518.663 143.541 520.475 139.39C521.566 137.044 522.175 135.452 522.175 135.452L535.275 127.135L563.103 131.3C562.083 135.949 562.834 139.39 564.264 139.901C565.709 140.413 567.564 138.082 567.918 137.598L567.904 137.612Z" fill="#FFCB9D" style="fill: #FFCB9D; fill: var(--tblr-illustrations-skin, #FFCB9D);"/>
    <path d="M567.904 137.515C567.205 141.121 566.122 146.41 564.597 152.886C564.241 154.315 563.927 155.573 563.842 155.983C561.932 163.026 559.125 169.799 555.505 176.135C553.78 175.3 552.227 174.141 550.93 172.727C549.533 171.157 548.464 169.319 547.78 167.339C547.096 165.218 546.768 163.012 546.783 160.777C546.711 159.335 546.726 157.892 546.84 156.45C535.595 158.416 523.994 156.591 513.918 151.274C516.298 147.442 518.407 143.44 520.231 139.325C521.329 136.991 521.942 135.407 521.942 135.407L535.125 127.135L563.144 131.278C562.117 135.902 562.859 139.325 564.298 139.834C565.752 140.343 567.576 138.01 567.918 137.515H567.904Z" fill="black" opacity="0.1"/>
    <path d="M505.951 130.088C506.531 132.088 507.324 134.032 508.314 135.864C509.531 138.256 511.088 140.451 512.928 142.395C521.249 151.192 535.853 153.765 549.962 148.675C552.354 147.807 554.675 146.759 556.896 145.514H556.967C556.967 145.514 556.995 145.598 556.967 145.64C556.826 147.15 556.557 148.633 556.189 150.101C555.991 150.786 555.962 150.982 555.849 151.43L555.694 151.877C555.481 152.674 553.189 158.114 552.849 161.233C552.679 163.289 553.175 165.359 554.25 167.135C555.311 164.24 557.094 161.639 559.429 159.597C560.321 158.898 561.269 158.268 562.246 157.681C567.001 154.143 570.284 149.01 571.487 143.262C571.954 140.899 572.039 138.479 571.755 136.074C571.656 134.508 570.949 128.802 567.92 125.292C561.665 118.019 543.919 118.733 534.976 120.327C533.405 120.621 530.674 121.194 528.565 120.285C528.155 120.117 527.787 119.865 527.49 119.558C525.452 117.586 525.862 113.74 526.881 111.404C528.82 106.887 534.579 104.202 541.485 104.412C527.348 98.8598 512.673 103.978 507.196 114.159C504.677 119.11 504.224 124.83 505.951 130.102V130.088Z" fill="#0b1b3b" class="tblr-illustrations tblr-illustrations-vocate tblr-illustrations-halloween-c"/>
    <path d="M505.932 130.135C506.513 132.118 507.305 134.045 508.296 135.862C509.514 138.234 511.071 140.411 512.911 142.338C521.234 151.061 535.843 153.613 549.956 148.565C553.425 146.984 556.397 145.639 556.893 145.431H556.963L561.918 142.255C554.316 144.613 546.333 145.597 538.363 145.167C531.327 144.765 521.532 144.252 512.868 137.499C510.193 135.405 507.843 132.922 505.918 130.149L505.932 130.135Z" fill="black" opacity="0.5"/>
    <path d="M505.904 496.12L483.918 483.392C483.918 483.392 485.549 476.746 490.164 476.154C494.779 475.562 504.468 488.81 505.918 496.135" fill="#0b1b3b" class="tblr-illustrations tblr-illustrations-vocate tblr-illustrations-halloween-c"/>
    <path d="M590.918 492.135L566.011 489.204C566.011 489.204 565.081 482.768 569.107 480.523C573.133 478.277 586.906 486.26 590.918 492.135Z" fill="#0b1b3b" class="tblr-illustrations tblr-illustrations-vocate tblr-illustrations-halloween-c"/>
    <path d="M594.918 324.135C590.657 324.093 584.392 324.051 576.829 323.995C564.637 323.897 555.367 323.813 551.218 323.771C541.327 323.63 526.977 323.154 508.224 321.585C508.845 316.472 509.565 308.276 508.972 298.161C508.408 288.187 507.208 280.804 506.023 274.233C504.499 265.744 501.987 254.564 497.74 241.648C497.712 241.592 497.698 241.55 497.698 241.522C496.188 241.045 494.114 240.359 491.715 239.364C483.926 236.1 480.06 234.489 478.621 231.393C475.023 223.604 486.381 211.107 486.988 210.421C489.726 207.339 492.421 205.574 494.199 204.425C499.179 201.175 504.711 199.115 506.39 198.513C516.86 197.616 525.495 197.28 531.859 197.154C532.579 197.14 542.653 196.986 551.204 197.854C555.847 198.331 560.348 199.157 565.554 200.6C566.937 200.979 568.292 201.385 569.66 201.819L578.127 226.882C577.703 233.158 578 238.426 578.31 242.026C579.086 250.46 580.554 254.606 582.825 270.297C583.291 273.477 583.122 272.23 583.856 277.834C585.097 287.22 585.817 294.575 588.724 305.39C589.373 307.772 590.036 310.069 590.727 312.241C591.461 314.594 592.195 316.808 592.928 318.881C593.592 320.745 594.269 322.51 594.89 324.135H594.918Z" fill="#DADCE0"/>
    <path d="M594.918 324.121C590.661 324.079 584.401 324.037 576.845 323.981C564.665 323.883 555.403 323.8 551.259 323.758C541.376 323.618 527.039 323.144 508.304 321.58C508.924 316.484 509.643 308.317 509.051 298.237C508.84 294.552 508.544 291.229 508.191 288.158C507.374 280.94 506.345 275.705 506.105 274.392C505.005 268.571 503.525 256.215 501.918 227.135C510.038 230.96 518.609 235.693 527.293 241.612C562.945 265.876 582.569 297.581 592.944 318.899C593.593 320.645 594.255 322.39 594.904 324.135L594.918 324.121Z" fill="black" opacity="0.1"/>
    <path d="M667.625 258.533C665.734 268.175 640.633 288.614 609.339 287.05C598.175 286.5 589.491 283.3 583.397 280.03C576.982 276.59 573.41 273.052 572.849 272.347C570.608 269.556 568.437 266.159 568.437 266.159C567.947 265.398 567.484 264.623 567.022 263.861C565.523 261.254 564.137 258.519 562.918 255.657C565.495 253.515 568.073 251.372 570.636 249.244C574.46 246.058 578.284 242.886 582.094 239.7C583.117 238.855 584.14 237.995 585.162 237.135C585.807 239.052 586.465 240.828 587.123 242.505C587.249 242.858 587.375 243.182 587.515 243.52C588.314 245.55 592.278 254.346 595.402 257.969C600.178 263.537 609.311 263.114 615.727 262.381C616.82 262.254 617.842 262.113 618.739 262.001C628.334 260.746 635.506 256.813 639.596 254.53C652.035 247.552 655.845 240.588 660.972 242.407C665.3 243.929 667.247 250.554 667.401 251.076C667.401 251.076 668.396 254.628 667.625 258.533Z" fill="#FFCB9D" style="fill: #FFCB9D; fill: var(--tblr-illustrations-skin, #FFCB9D);"/>
    <path d="M553.301 198.135C551.491 200.481 549.129 204.293 548.931 209.125C548.52 219.291 558.224 225.031 567.248 238.507C570.756 243.743 575.169 251.508 578.621 262.135C583.656 259.244 589.286 255.599 595.128 251.005C601.988 245.601 607.533 240.154 611.918 235.281C610.532 233.619 609.061 231.943 607.505 230.281C607.505 230.281 607.095 229.835 606.472 229.192C606.472 229.192 605.341 228.005 604.181 226.846C584.845 207.477 569.639 201.835 569.639 201.835C566.088 200.523 560.572 198.833 553.301 198.135Z" fill="#DADCE0"/>
    <path d="M615.918 262.443C602.773 269.084 590.768 275.839 583.471 280.135C577.033 276.687 573.448 273.14 572.885 272.433C570.636 269.636 568.457 266.23 568.457 266.23C567.965 265.467 567.501 264.69 567.037 263.927C565.533 261.313 564.141 258.571 562.918 255.703C565.505 253.555 568.091 251.407 570.664 249.273C574.502 246.08 578.34 242.9 582.164 239.707C583.19 238.859 584.216 237.997 585.243 237.135C585.889 239.057 586.55 240.837 587.211 242.519C587.337 242.872 587.464 243.197 587.604 243.536C588.406 245.571 592.384 254.388 595.519 258.02C600.313 263.602 609.479 263.178 615.918 262.443Z" fill="black" opacity="0.1"/>
    <path d="M629.304 229.084C630.579 235.879 629.822 242.591 627.468 248.587C627.006 249.778 626.473 250.927 625.899 252.062C625.632 252.553 625.38 253.015 625.1 253.491C624.231 254.977 623.278 256.392 622.213 257.723C621.877 258.157 621.513 258.578 621.149 258.998C620.042 260.273 618.837 261.464 617.548 262.571C613.372 266.172 608.299 268.834 602.597 270.179C596.515 268.525 590.925 265.457 586.301 261.254C588.893 265.205 592.284 268.539 596.179 271.09C578.734 271.972 562.858 259.853 559.537 242.198C556.231 224.656 566.473 207.689 582.868 202.07C579.855 206.203 577.781 211.009 576.87 216.137C579.645 209.958 583.989 204.536 589.481 200.487C595.282 199.66 600.985 200.319 606.184 202.154C610.485 203.667 614.451 205.993 617.856 208.992C618.388 209.454 618.893 209.93 619.383 210.421C621.149 212.158 622.732 214.078 624.091 216.165C625.408 218.155 626.515 220.285 627.412 222.569C627.608 223.031 627.762 223.493 627.93 223.956C628.491 225.609 628.953 227.318 629.29 229.084H629.304Z" fill="#1a3263" style="fill: #1a3263; fill: var(--tblr-illustrations-primary, var(--tblr-primary, #1a3263));"/>
    <path d="M664.301 223.091C667.495 240.08 657.996 256.508 642.5 262.628C644.924 259.155 646.703 255.219 647.684 251.046C644.91 256.312 640.959 260.934 636.097 264.491L635.971 264.519C629.61 265.709 623.333 265.135 617.645 263.132C615.81 262.488 614.058 261.704 612.363 260.765H612.349C609.995 259.477 607.795 257.936 605.806 256.144C604.741 255.191 603.732 254.183 602.78 253.105C598.688 248.469 595.746 242.713 594.527 236.2C594.275 234.828 594.093 233.469 594.009 232.111C593.644 227.055 594.387 222.111 596.04 217.559C596.363 216.649 596.741 215.738 597.161 214.856C597.273 214.604 597.399 214.352 597.511 214.1C599.627 209.758 602.611 205.879 606.296 202.713C610.864 198.778 616.51 195.963 622.857 194.758L622.983 194.73C628.097 196.103 632.875 198.484 637.022 201.691C634.696 198.722 631.88 196.173 628.742 194.142C645.765 193.792 661.036 205.781 664.287 223.063L664.301 223.091Z" fill="#1a3263" style="fill: #1a3263; fill: var(--tblr-illustrations-primary, var(--tblr-primary, #1a3263));"/>
    <path d="M648.325 236.898C649.239 241.728 649.07 246.501 648.001 250.992C648.001 250.992 648.001 250.997 648.001 251.006C645.216 256.314 641.249 260.961 636.368 264.523C631.754 267.902 626.353 270.324 620.36 271.45C614.34 272.576 608.39 272.281 602.834 270.802C596.729 269.141 591.116 266.057 586.474 261.833C584.083 258.187 582.367 254.019 581.509 249.471C580.876 246.092 580.763 242.755 581.115 239.503C582.268 228.83 588.443 219.298 597.629 213.864C600.949 211.892 604.648 210.484 608.643 209.724C611.864 209.119 615.057 208.992 618.18 209.288C629.096 210.33 638.844 216.637 644.33 226.057C646.229 229.323 647.607 232.956 648.339 236.884L648.325 236.898Z" fill="white"/>
    <path d="M651.237 225.344C652.932 234.45 651.39 243.387 647.43 251.001C647.43 251.001 647.43 251.005 647.43 251.015C644.679 256.321 640.761 260.965 635.939 264.526C631.382 267.904 626.047 270.324 620.128 271.45C614.181 272.576 608.304 272.281 602.816 270.803C596.786 269.142 591.242 266.06 586.657 261.838C580.613 256.264 576.237 248.707 574.597 239.938C573.069 231.719 574.18 223.613 577.32 216.519C580.071 210.313 584.379 204.866 589.825 200.798C591.631 199.461 593.549 198.279 595.591 197.252C598.717 195.675 602.107 194.507 605.72 193.818C608.652 193.255 611.569 193.044 614.418 193.17C617.335 193.269 620.184 193.705 622.935 194.451C628.006 195.83 632.744 198.223 636.856 201.446C644.109 207.16 649.403 215.464 651.237 225.33V225.344Z" fill="#1a3263" style="fill: #1a3263; fill: var(--tblr-illustrations-primary, var(--tblr-primary, #1a3263));"/>
    <path d="M622.868 159.584C623.119 160.945 622.409 162.32 621.101 162.876L609.219 167.933C607.786 168.544 607.063 170.128 607.536 171.6C609.358 177.199 611.167 182.783 612.99 188.368C613.421 189.715 613.88 191.077 614.311 192.438C614.367 192.619 614.409 192.799 614.423 192.966C614.631 194.564 613.518 196.092 611.849 196.314L598.297 198.106C597.198 198.259 596.182 197.787 595.556 196.995C595.083 196.397 594.833 195.619 594.944 194.786C595.069 193.8 595.181 192.813 595.306 191.827C596.349 183.325 597.379 174.795 598.423 166.28C598.562 165.154 599.327 164.21 600.398 163.835L618.931 157.305C620.503 156.75 622.242 157.597 622.757 159.181C622.799 159.306 622.826 159.431 622.854 159.556L622.868 159.584Z" fill="#0b1b3b" class="tblr-illustrations tblr-illustrations-vocate tblr-illustrations-halloween-c"/>
    <path d="M600.99 232.726C600.824 232.957 600.627 233.159 600.399 233.347C600.081 233.635 599.702 233.837 599.278 233.982C596.096 234.978 591.005 230.95 590.08 226.416C589.884 225.492 589.868 224.51 590.02 223.586C590.081 223.109 590.187 222.662 590.323 222.2C591.747 217.463 596.566 213.579 599.248 214.2C602.233 214.922 602.915 221.348 602.915 224.048C602.93 225.015 602.975 230.184 600.99 232.697V232.726Z" fill="#0b1b3b" class="tblr-illustrations tblr-illustrations-vocate tblr-illustrations-halloween-c"/>
    <path d="M627.242 226.218C627.053 226.508 626.864 226.798 626.646 227.044C625.717 228.261 624.526 229.073 623.321 229.13C619.589 229.333 616.888 222.248 616.438 221.132C615.944 219.828 615.232 217.524 615 215.394C614.913 214.713 614.898 214.061 614.942 213.467C615 212.25 615.363 211.207 616.133 210.642C618.935 208.7 627.619 212.525 628.781 218.872C629.231 221.379 628.534 224.161 627.242 226.204V226.218Z" fill="#0b1b3b" class="tblr-illustrations tblr-illustrations-vocate tblr-illustrations-halloween-c"/>
    <path d="M599.904 229.164C599.904 229.689 599.918 231.441 599.664 233.338C599.368 233.63 599.016 233.834 598.622 233.98C595.663 234.987 590.929 230.915 590.069 226.332C589.886 225.398 589.872 224.405 590.013 223.471C591.929 220.625 594.705 218.728 596.508 219.209C599.284 219.925 599.89 226.42 599.918 229.149L599.904 229.164Z" fill="black" opacity="0.5"/>
    <path d="M620.863 239.865C620.393 241.709 616.214 242.135 614.459 242.135C613.832 242.135 610.466 242.177 608.825 240.943C608.44 240.674 608.155 240.319 608.012 239.894C608.012 239.879 607.998 239.851 607.998 239.837C607.427 237.865 609.995 234.802 612.919 234.234C613.86 234.05 614.802 234.135 615.672 234.376C616.057 234.504 616.442 234.646 616.813 234.816C619.337 235.993 621.22 238.433 620.878 239.865H620.863Z" fill="#0b1b3b" class="tblr-illustrations tblr-illustrations-vocate tblr-illustrations-halloween-c"/>
    <path d="M617.874 237.897C617.418 239.715 613.37 240.121 611.671 240.135C611.256 240.135 609.543 240.149 607.995 239.757C607.443 237.813 609.93 234.792 612.762 234.233C613.674 234.051 614.586 234.135 615.429 234.373C615.802 234.499 616.175 234.639 616.534 234.806C617.542 235.869 618.081 237.044 617.874 237.883V237.897Z" fill="black" opacity="0.5"/>
    <path d="M626.812 227.018C625.863 228.25 624.647 229.072 623.416 229.13C619.604 229.336 616.846 222.164 616.386 221.034C615.882 219.714 615.155 217.382 614.918 215.226C618.433 214.493 625.7 218.233 626.783 223.997C626.975 224.965 626.946 226.006 626.797 227.018H626.812Z" fill="black" opacity="0.5"/>
    <path d="M611.724 253.872L611.571 255.451C611.543 255.707 611.349 255.892 611.099 255.906L606.849 256.063C606.571 256.063 606.335 255.835 606.335 255.551V253.758C598.015 252.904 592.918 249.177 592.918 249.177C605.293 262.422 615.404 262.849 622.876 259.093L621.682 257.713C621.432 257.428 621.487 257.002 621.779 256.774L626.307 253.402C626.585 253.203 626.974 253.26 627.168 253.545L628.39 255.252C634.612 249.675 637.918 242.135 637.918 242.135C628.043 250.528 619.029 253.431 611.696 253.858L611.724 253.872Z" fill="#0b1b3b" class="tblr-illustrations tblr-illustrations-vocate tblr-illustrations-halloween-c"/>
    <path d="M254.918 497.135L231.918 491.177C231.918 491.177 231.819 484.907 235.893 483.319C239.968 481.716 251.922 490.95 254.904 497.135" fill="#0b1b3b" class="tblr-illustrations tblr-illustrations-vocate tblr-illustrations-halloween-c"/>
    <path d="M402.918 408.135L393.874 430.135C393.874 430.135 387.904 429.261 386.975 424.95C386.047 420.639 396.593 410.154 402.918 408.135Z" fill="#0b1b3b" class="tblr-illustrations tblr-illustrations-vocate tblr-illustrations-halloween-c"/>
    <path d="M186.918 138.385C187.409 141.767 188.039 146.902 188.908 152.859L189.525 155.892C190.87 162.656 193.029 169.071 195.902 175.348C196.505 176.517 197.094 177.672 197.696 178.841C200.079 182.919 216.702 186.885 230.563 184.324C244.425 181.777 248.322 167.847 241.93 162.517C239.674 160.318 237.782 157.757 236.464 154.96C234.432 151.23 232.764 147.278 231.432 143.312C230.591 140.988 230.115 139.582 230.115 139.582L218.412 131.135L192.076 133.194C192.693 137.634 191.655 140.793 190.366 141.029C189.076 141.266 187.17 138.719 186.932 138.371L186.918 138.385Z" fill="#FFCB9D" style="fill: #FFCB9D; fill: var(--tblr-illustrations-skin, #FFCB9D);"/>
    <path d="M236.918 154.58C233.472 156.13 228.14 158.155 221.234 158.797C214.456 159.425 208.855 158.42 205.282 157.498C205.282 158.909 205.296 160.193 205.069 161.478C204.97 163.587 204.502 165.584 203.807 167.58C202.984 169.34 201.921 170.988 200.503 172.286C199.198 173.585 197.667 174.534 196.008 175.135C193.101 168.949 190.917 162.4 189.555 155.613L188.932 152.569C187.939 146.593 187.301 141.44 186.918 138.047C187.159 138.396 188.605 141.314 190.038 140.951C190.279 140.826 190.633 140.714 190.747 140.477C191.697 139.415 192.264 136.72 191.768 133.09H192.122L218.413 131.135L230.253 139.723C230.253 139.723 231.473 143.227 231.586 143.465C232.068 144.638 232.791 146.383 234.252 149.078V149.19L236.918 154.566V154.58Z" fill="black" opacity="0.1"/>
    <path d="M249.308 128.958C248.268 132.026 246.161 134.393 243.226 135.822C242.074 140.304 239.756 144.311 236.357 147.392C227.34 155.447 211.299 155.335 196.734 146.734L196.621 146.846V146.958C196.748 148.373 196.762 149.774 197 151.076C197 151.553 197.127 151.903 197.127 152.365V152.841C197.984 155.769 198.475 158.823 198.84 161.764C198.897 162.157 199.009 163.333 198.321 164.552C197.801 165.448 197.085 165.939 196.734 166.135C196.298 164.566 195.315 161.904 192.941 159.579C192.126 158.781 191.312 158.178 190.567 157.716C186.41 154.102 183.783 149.059 183.277 143.54C183.151 142.84 183.151 142.013 183.263 141.313L183.151 141.201C178.305 139.478 175.791 134.323 177.406 129.49C178.797 125.834 182.196 123.453 186.087 123.313C184.387 117.093 188.109 110.594 194.346 108.913C196.579 108.311 199.051 108.409 201.299 109.095C203.419 109.781 205.203 111.07 206.51 112.695C209.291 106.91 216.356 104.514 222.143 107.288C226.16 109.263 228.787 113.353 228.702 117.822C231.863 113.802 237.144 112.233 241.877 113.844C246.105 115.286 248.914 118.984 249.687 122.795C250.235 125.498 249.687 127.753 249.294 128.944L249.308 128.958Z" fill="#0b1b3b" class="tblr-illustrations tblr-illustrations-vocate tblr-illustrations-halloween-c"/>
    <path d="M243.918 136.148C242.759 140.502 240.428 144.393 237.008 147.385C227.936 155.208 211.799 155.099 197.16 146.746L197.047 146.855V146.964C195.253 145.726 193.472 144.365 191.918 143.005L192.031 143.114C195.479 144.461 215.954 153.684 234.14 143.848C237.799 141.767 241.106 139.114 243.918 136.135V136.148Z" fill="black" opacity="0.5"/>
    <path d="M380.904 410.092C378.888 412.98 376.857 415.881 374.855 418.769C337.155 396.29 299.44 373.825 261.753 351.346H261.725C256.184 392.614 250.643 433.867 245.102 475.135H234.091C228.366 426.543 222.628 377.966 216.918 329.388L266.152 318.98L289.119 314.135L380.918 410.107L380.904 410.092Z" fill="#DADCE0"/>
    <path d="M273.918 188.228L286.07 222.135H298.918L284.16 185.135L273.918 188.228Z" fill="#DADCE0"/>
    <path d="M206.391 221.135L194.918 254.875L204.526 263.135C206.404 260.926 208.283 258.703 210.161 256.494C212.08 246.11 213.999 235.726 215.918 225.356C212.742 223.949 209.553 222.556 206.377 221.149L206.391 221.135Z" fill="#A6A9B3"/>
    <path d="M308.918 176.904L323.776 238.973C324.076 240.243 325.748 240.554 326.505 239.495C328.548 236.629 330.591 233.75 332.634 230.884C332.892 230.531 332.977 230.093 332.877 229.67C328.391 210.825 323.905 191.98 319.433 173.135L308.932 176.904H308.918Z" fill="#DADCE0"/>
    <path d="M194.919 179.107C194.919 179.107 194.443 187.289 214.108 188.092C233.76 188.895 248.918 178.135 248.918 178.135L194.919 179.092V179.107Z" fill="#DADCE0"/>
    <path d="M192.932 175.287C192.777 175.981 194.366 182.135 194.451 182.135C194.535 182.135 248.697 180.014 248.697 180.014C248.697 180.014 249.498 167.29 248.05 167.137C246.602 166.971 192.918 175.287 192.918 175.287H192.932Z" fill="#A6A9B3"/>
    <path d="M187.922 159.405C187.894 160.713 188.007 162.681 188.771 164.931C189.394 166.773 190.257 168.179 190.95 169.135C207.424 162.597 223.897 156.045 240.371 149.507C241.347 148.608 243.456 146.456 244.418 142.984C245.112 140.495 244.942 138.372 244.744 137.135C225.808 144.558 206.858 151.982 187.922 159.405Z" fill="#DADCE0"/>
    <path d="M322.222 261.223C323.727 261.097 325.175 261.083 326.652 261.335C327.527 261.447 328.344 261.684 329.162 261.908C336.59 264.091 341.321 270.497 339.543 276.149C338.009 281.269 331.786 283.969 325.161 282.906C324.286 282.794 323.584 282.612 322.766 282.388C321.949 282.164 321.289 281.884 320.515 281.549C314.349 278.891 310.736 273.225 312.27 268.105C313.589 264.314 317.518 261.768 322.236 261.237L322.222 261.223Z" fill="#FFCB9D" style="fill: #FFCB9D; fill: var(--tblr-illustrations-skin, #FFCB9D);"/>
    <path d="M322.407 261.224C323.94 261.097 325.414 261.082 326.918 261.337C325.896 268.56 325.371 275.855 325.4 283.135C324.509 283.022 323.794 282.838 322.962 282.612C322.13 282.386 321.458 282.103 320.67 281.764C314.393 279.078 310.714 273.353 312.276 268.179C313.619 264.348 317.619 261.775 322.422 261.238L322.407 261.224Z" fill="black" opacity="0.1"/>
    <path d="M182.63 218.4L323.918 255.001C321.924 267.712 319.917 280.424 317.923 293.135C275.877 279.931 233.83 266.742 191.797 253.539C180.089 250.67 171.862 240.139 171.918 228.06V226.682C171.946 221.086 177.225 217.008 182.644 218.414L182.63 218.4Z" fill="#1a3263" style="fill: #1a3263; fill: var(--tblr-illustrations-primary, var(--tblr-primary, #1a3263));"/>
    <path d="M199.661 219.135C191.742 228.282 183.823 237.443 175.918 246.59L183.682 257.135C191.277 246.19 198.872 235.245 206.453 224.3C206.608 223.159 206.763 222.003 206.918 220.861C204.494 220.291 202.085 219.72 199.661 219.149V219.135Z" fill="#DADCE0"/>
    <path d="M226.054 226.135C219.004 238.593 211.954 251.037 204.918 263.496C208.582 264.037 212.233 264.579 215.897 265.135C223.909 252.876 231.906 240.631 239.918 228.373C235.306 227.631 230.68 226.89 226.068 226.135H226.054Z" fill="#DADCE0"/>
    <path d="M239.985 228.135C241.629 230.135 243.274 232.135 244.918 234.135L234.918 231.869C236.607 230.624 238.296 229.38 239.985 228.135Z" fill="#DADCE0"/>
    <path d="M380.904 409.511C378.891 412.381 376.864 415.265 374.865 418.135C337.226 395.792 299.572 373.463 261.946 351.121H261.918L266.338 318.95L289.268 314.135L380.918 409.525L380.904 409.511Z" fill="black" opacity="0.1"/>
    <path d="M214.918 348.135C230.58 355.326 246.242 362.532 261.904 369.724C261.904 371.353 261.918 372.982 261.918 374.626C261.918 377.814 261.918 380.974 261.904 384.135C247.814 378.011 233.71 371.873 219.619 365.748C217.767 364.948 216.504 363.206 216.293 361.198L214.918 348.135Z" fill="#A6A9B3"/>
    <path d="M216.309 390.135C240.333 407.768 255.763 419.098 255.763 419.098C255.763 419.098 255.82 424.349 255.918 434.135C241.923 425.767 227.913 417.386 213.918 409.018C214.72 402.728 215.507 396.424 216.309 390.135Z" fill="#A6A9B3"/>
    <path d="M579.062 108.784C580.751 109.944 582.525 110.35 584.382 110.028C586.24 109.707 587.664 108.784 588.683 107.288C589.703 105.791 590.052 104.099 589.647 102.309C589.242 100.52 588.195 99.0513 586.505 97.8907C584.815 96.73 583.084 96.3105 581.31 96.6042C579.536 96.8978 578.126 97.8207 577.079 99.345C576.031 100.869 575.71 102.491 576.045 104.309C576.366 106.127 577.372 107.623 579.062 108.77V108.784ZM593.278 96.1287L613.918 69.7837L602.746 62.1348L585.793 91.0108L593.278 96.1287Z" fill="#1a3263" style="fill: #1a3263; fill: var(--tblr-illustrations-primary, var(--tblr-primary, #1a3263));"/>
    <path d="M561.235 92.1135C562.647 92.0444 563.803 91.5191 564.677 90.5376C565.564 89.5561 565.967 88.4364 565.913 87.1508C565.859 85.8375 565.349 84.7592 564.381 83.9298C563.413 83.0866 562.23 82.7133 560.819 82.7824C559.407 82.8515 558.278 83.3492 557.432 84.2754C556.585 85.2016 556.181 86.3213 556.249 87.6346C556.316 88.9479 556.8 89.9985 557.741 90.897C558.668 91.7818 559.851 92.1965 561.262 92.1274L561.235 92.1135ZM563.816 78.8703L564.246 55.1348L554.918 55.591L557.566 79.1744L563.816 78.8703Z" fill="#1a3263" style="fill: #1a3263; fill: var(--tblr-illustrations-primary, var(--tblr-primary, #1a3263));"/>
    <path d="M507.197 198.135C503.682 198.909 497.151 200.85 490.69 206.013C483.618 211.655 480.274 218.239 478.851 221.56C478.339 223.262 477.869 225.035 477.471 226.878C474.54 240.44 476.205 252.737 478.78 262.135C482.992 261.924 487.773 261.474 492.896 260.559C504.877 258.435 513.899 254.72 519.918 251.667C519.477 251.077 518.822 250.204 518.097 249.121C513.643 242.41 511.821 235.84 510.299 227.764C508.235 216.748 507.439 206.478 507.182 198.149L507.197 198.135Z" fill="#DADCE0"/>
    <path d="M591.895 259.504C593.123 277.619 545.596 313.176 511.782 297.043C500.073 291.431 493.124 281.136 489.141 272.64C488.845 272.007 488.562 271.375 488.294 270.756C486.571 266.775 485.511 263.329 484.918 261.191C488.844 260.137 492.941 259.11 497.192 258.125C501.528 257.127 505.737 256.255 509.819 255.495C510.313 256.606 510.977 258.013 511.853 259.616C511.853 259.616 513.025 261.712 514.183 263.512C514.254 263.625 514.395 263.822 514.593 264.103C516.57 266.691 524.325 275.819 531.429 277.057C546.104 279.574 564.282 249.321 579.254 246.367C582.234 245.776 584.112 246.465 584.79 246.747C590.341 249.11 591.753 257.506 591.895 259.504Z" fill="#FFCB9D" style="fill: #FFCB9D; fill: var(--tblr-illustrations-skin, #FFCB9D);"/>
    <path d="M514.918 264.596C506.708 267.761 494.928 270.029 488.331 271.135C486.589 267.222 485.518 263.835 484.918 261.734C488.888 260.697 493.028 259.688 497.326 258.72C501.71 257.738 505.965 256.881 510.092 256.135C510.591 257.227 511.263 258.609 512.148 260.185C512.148 260.185 513.333 262.245 514.504 264.015C514.575 264.126 514.718 264.319 514.918 264.596Z" fill="black" opacity="0.1"/>
</svg>
