<svg xmlns="http://www.w3.org/2000/svg" width="800" height="600" fill="none" viewBox="0 0 800 600">
    <style>
        :where(.theme-dark, [data-theme="dark"]) .tblr-illustrations-idea-a { fill: black; opacity: 0.07; } :where(.theme-dark, [data-theme="dark"]) .tblr-illustrations-idea-b { fill: black; opacity: 0.3; } :where(.theme-dark, [data-theme="dark"]) .tblr-illustrations-idea-c { fill: #24304d; }
        @media (prefers-color-scheme: dark) { .tblr-illustrations-idea-a { fill: black; opacity: 0.07; } .tblr-illustrations-idea-b { fill: black; opacity: 0.3; } .tblr-illustrations-idea-c { fill: #24304d; } }
    </style>
    <path d="M203.32 294.69C203.32 326.79 237.31 350.16 252.33 376.13C267.83 402.92 271.56 443.85 298.34 459.35C324.3 474.37 361.27 457.57 393.41 457.57C425.55 457.57 462.53 474.43 488.45 459.35C515.24 443.85 518.97 402.9 534.46 376.13C549.48 350.16 583.49 326.84 583.49 294.69C583.49 262.54 549.49 239.21 534.46 213.25C518.96 186.46 515.23 145.52 488.45 130.02C462.49 115 425.53 131.8 393.38 131.8C361.23 131.8 324.3 115 298.34 130.02C271.55 145.52 267.82 186.47 252.33 213.25C237.31 239.21 203.32 262.53 203.32 294.69Z" fill="#1a3263" style="fill: #1a3263; fill: var(--tblr-illustrations-primary, var(--tblr-primary, #1a3263));" opacity="0.02" class="tblr-illustrations tblr-illustrations-vocate tblr-illustrations-idea-a"/>
    <path d="M397.621 496.4C510.652 496.4 602.281 494.918 602.281 493.09C602.281 491.262 510.652 489.78 397.621 489.78C284.59 489.78 192.961 491.262 192.961 493.09C192.961 494.918 284.59 496.4 397.621 496.4Z" fill="#d9e2f3" opacity="0.5" class="tblr-illustrations tblr-illustrations-vocate tblr-illustrations-idea-b"/>
    <path d="M416.268 165.6H401.198C398.735 165.6 396.738 167.597 396.738 170.06C396.738 172.523 398.735 174.52 401.198 174.52H416.268C418.731 174.52 420.728 172.523 420.728 170.06C420.728 167.597 418.731 165.6 416.268 165.6Z" fill="#0b1b3b" class="tblr-illustrations tblr-illustrations-vocate tblr-illustrations-idea-c"/>
    <path d="M416.268 165.6H401.198C398.735 165.6 396.738 167.597 396.738 170.06C396.738 172.523 398.735 174.52 401.198 174.52H416.268C418.731 174.52 420.728 172.523 420.728 170.06C420.728 167.597 418.731 165.6 416.268 165.6Z" fill="black" opacity="0.15"/>
    <path d="M439.511 121.15C439.511 124.66 438.921 128.04 437.831 131.19C436.741 134.33 435.161 137.24 433.181 139.83L426.341 149.26C424.641 151.59 423.241 154.11 422.151 156.73C420.901 159.68 420.041 162.78 419.591 165.96C418.801 166.46 417.861 166.73 416.871 166.73H400.581C399.581 166.73 398.651 166.46 397.851 165.96C397.401 162.78 396.541 159.68 395.301 156.73C394.191 154.11 392.791 151.59 391.101 149.26L384.261 139.83C380.301 134.66 377.941 128.18 377.941 121.15C377.941 104.14 391.721 90.36 408.731 90.36C425.741 90.36 439.511 104.14 439.511 121.15Z" fill="#1a3263" style="fill: #1a3263; fill: var(--tblr-illustrations-primary, var(--tblr-primary, #1a3263));"/>
    <path d="M420.722 120.28C416.462 120.28 412.992 123.75 412.992 128.01V132.58H404.472V128.01C404.472 123.75 401.002 120.28 396.742 120.28C392.482 120.28 389.012 123.75 389.012 128.01C389.012 132.27 392.482 135.74 396.742 135.74H401.312V164.07H404.472V135.74H412.992V164.07H416.152V135.74H420.722C424.982 135.74 428.452 132.27 428.452 128.01C428.452 123.75 424.982 120.28 420.722 120.28ZM392.172 128.01C392.172 125.49 394.222 123.44 396.742 123.44C399.262 123.44 401.312 125.49 401.312 128.01C401.312 130.53 399.262 132.58 396.742 132.58C394.222 132.58 392.172 130.53 392.172 128.01ZM420.722 132.58C418.202 132.58 416.152 130.53 416.152 128.01C416.152 125.49 418.202 123.44 420.722 123.44C423.242 123.44 425.292 125.49 425.292 128.01C425.292 130.53 423.242 132.58 420.722 132.58Z" fill="white"/>
    <path d="M422.169 156.74V161.44C422.169 163.37 421.139 165.05 419.599 165.97C418.809 166.47 417.869 166.74 416.879 166.74H400.589C399.589 166.74 398.659 166.47 397.859 165.97C396.319 165.05 395.289 163.37 395.289 161.44V156.74H422.169Z" fill="#0b1b3b" class="tblr-illustrations tblr-illustrations-vocate tblr-illustrations-idea-c"/>
    <path d="M408.73 75.68C406.98 75.68 405.57 74.26 405.57 72.52V55.2C405.57 53.45 406.99 52.04 408.73 52.04C410.47 52.04 411.89 53.46 411.89 55.2V72.52C411.89 74.27 410.47 75.68 408.73 75.68Z" fill="#1a3263" style="fill: #1a3263; fill: var(--tblr-illustrations-primary, var(--tblr-primary, #1a3263));"/>
    <path d="M444.139 90.37C443.329 90.37 442.519 90.06 441.899 89.44C440.669 88.21 440.669 86.2 441.899 84.97L454.149 72.72C455.379 71.49 457.389 71.49 458.619 72.72C459.849 73.95 459.849 75.96 458.619 77.19L446.369 89.44C445.749 90.06 444.939 90.37 444.129 90.37H444.139Z" fill="#DADCE0"/>
    <path d="M476.121 125.8H458.801C457.051 125.8 455.641 124.38 455.641 122.64C455.641 120.9 457.061 119.48 458.801 119.48H476.121C477.871 119.48 479.281 120.9 479.281 122.64C479.281 124.38 477.861 125.8 476.121 125.8Z" fill="#1a3263" style="fill: #1a3263; fill: var(--tblr-illustrations-primary, var(--tblr-primary, #1a3263));"/>
    <path d="M358.609 125.75H341.289C339.539 125.75 338.129 124.33 338.129 122.59C338.129 120.85 339.549 119.43 341.289 119.43H358.609C360.359 119.43 361.769 120.85 361.769 122.59C361.769 124.33 360.349 125.75 358.609 125.75Z" fill="#1a3263" style="fill: #1a3263; fill: var(--tblr-illustrations-primary, var(--tblr-primary, #1a3263));"/>
    <path d="M373.299 90.33C372.489 90.33 371.679 90.02 371.059 89.4L358.809 77.15C357.579 75.92 357.579 73.91 358.809 72.68C360.039 71.45 362.049 71.45 363.279 72.68L375.529 84.93C376.759 86.16 376.759 88.17 375.529 89.4C374.909 90.02 374.099 90.33 373.289 90.33H373.299Z" fill="#DADCE0"/>
    <path d="M479.479 225.64C473.689 236.64 464.039 245.11 452.379 249.43L491.269 253.03L479.449 225.64" fill="#0b1b3b" class="tblr-illustrations tblr-illustrations-vocate tblr-illustrations-idea-c"/>
    <path d="M495.141 414.91L497.021 437.36L499.751 469.99H502.401L509.301 436.14L512.241 421.64L495.141 414.91Z" fill="#FFCB9D" style="fill: #FFCB9D; fill: var(--tblr-illustrations-skin, #FFCB9D);"/>
    <path d="M456.941 414.91L458.711 436.03L461.551 469.99H464.201L470.861 437.3L474.061 421.64L456.941 414.91Z" fill="#FFCB9D" style="fill: #FFCB9D; fill: var(--tblr-illustrations-skin, #FFCB9D);"/>
    <path d="M512.24 421.64L495.16 414.91L497.04 437.35C501.3 437.09 505.41 436.67 509.32 436.13L512.24 421.64Z" fill="black" opacity="0.15"/>
    <path d="M456.94 414.91L458.71 436.03C462.57 436.58 466.59 437 470.86 437.34L474.05 421.68L456.93 414.9L456.94 414.91Z" fill="black" opacity="0.15"/>
    <path d="M521.682 209.11C521.562 212.38 521.302 217.2 520.822 223.1C520.682 224.42 520.552 225.57 520.552 225.95C520.002 230.61 519.042 235.22 517.672 239.72C517.162 241.43 516.572 243.17 515.902 244.83C515.422 246.03 514.942 247.18 514.392 248.28C513.862 249.15 513.102 249.87 512.232 250.41C509.012 252.6 502.802 254.71 495.872 255.64C491.932 256.17 487.732 256.31 483.722 255.88C483.692 255.88 483.632 255.86 483.602 255.86C470.402 254.4 465.652 241.48 471.412 235.96C473.432 233.71 475.032 231.13 476.112 228.31C477.692 224.61 479.012 220.82 480.052 216.94C480.702 214.71 481.032 213.27 481.032 213.27L491.542 204.2H516.642C516.332 208.42 517.532 211.42 518.782 211.64C520.032 211.85 521.402 209.6 521.682 209.12V209.11Z" fill="#FFCB9D" style="fill: #FFCB9D; fill: var(--tblr-illustrations-skin, #FFCB9D);"/>
    <path d="M495.878 255.62C491.938 256.15 487.738 256.29 483.728 255.86C483.698 255.86 483.638 255.84 483.608 255.84C484.178 254.41 485.488 250.56 483.948 246.5C483.578 245.54 483.118 244.72 482.648 244.04C483.868 243.84 486.598 243.57 489.108 245.11C490.548 246 491.328 247.12 492.548 248.93C493.518 250.38 494.828 252.61 495.888 255.62H495.878Z" fill="black" opacity="0.1"/>
    <path d="M476.121 228.35C485.671 231.75 496.091 231.86 505.711 228.67C508.171 229.01 510.501 230.02 512.421 231.6C515.241 233.99 515.181 236.2 517.461 239.48L517.671 239.8C519.031 235.31 519.991 230.7 520.531 226.03C520.531 225.65 520.671 224.51 520.811 223.19C521.301 217.28 521.551 212.47 521.681 209.19C521.401 209.68 520.021 211.92 518.781 211.71C517.531 211.5 516.321 208.49 516.641 204.28H491.541L481.031 213.34C481.031 213.34 480.711 214.78 480.061 217C479.011 220.88 477.691 224.68 476.121 228.38" fill="black" opacity="0.1"/>
    <path d="M457.831 302.54C459.981 307.85 456.171 312.84 454.721 319.57C453.591 324.78 452.951 329.09 452.581 331.89L452.381 333.01C450.971 340.89 449.531 348.69 448.121 356.54C474.481 357.03 500.841 357.54 527.211 358.06C527.211 356.25 527.141 354.38 527.101 352.56V352.47C527.881 332.43 527.571 312.37 526.181 292.36C526.071 290.89 525.971 289.42 525.851 287.95C525.741 289.24 525.651 290.6 525.611 292.02C525.561 293.71 525.561 295.31 525.611 296.83C531.571 296.05 537.541 295.26 543.501 294.48C543.891 292.04 544.301 287.32 542.491 281.85C541.041 277.45 538.741 274.37 537.211 272.62C537.211 272.62 531.961 268 525.981 267.17C525.431 267.11 524.891 267.02 524.351 266.89H524.061C520.671 266.42 517.411 265.98 514.331 265.75C506.851 265.09 499.331 264.98 491.831 265.41C484.641 265.84 477.501 266.88 470.481 268.5C468.711 268.92 466.871 269.39 465.121 269.97L463.641 270.47L463.091 270.65L462.121 271C457.011 274.34 451.901 277.67 446.781 281.01C447.581 282.14 448.171 283.07 448.511 283.64C452.311 289.87 454.531 296.92 456.021 299.3C456.101 299.43 456.461 300.1 457.001 300.97C457.221 301.32 457.531 301.86 457.811 302.55L457.831 302.54Z" fill="#1a3263" style="fill: #1a3263; fill: var(--tblr-illustrations-primary, var(--tblr-primary, #1a3263));"/>
    <path d="M538.64 255.1L524.85 254.18H524.82L507.78 253.04C510.63 246.65 512.99 240.07 514.88 233.33C515.21 231.73 515.39 230.11 515.43 228.49C515.44 227.53 515.38 226.56 515.26 225.61C515.19 225.07 515.09 224.48 514.98 223.89C514.8 222.91 513.93 221.8 512.98 220.55C512.02 219.29 510.96 217.88 510.38 216.27C505.61 218.99 487.95 227.93 476.23 220.05C473.55 218.26 471.37 215.84 469.88 212.99L470 212.95C469.3 211.58 469.02 210.04 469.16 208.5C469.93 202.17 478.98 198.89 482.78 197.58C498.1 192.16 513.15 199.88 515.5 201.11C522.3 204.9 528.14 210.22 532.58 216.63C532.61 216.66 532.62 216.7 532.65 216.72C534.33 219.18 535.76 221.79 536.93 224.52C537.1 224.9 537.26 225.29 537.4 225.68C538.24 227.81 538.92 230.01 539.45 232.24C539.69 233.38 539.84 234.28 539.95 234.87C541.03 241.63 540.57 248.54 538.64 255.1Z" fill="#0b1b3b" class="tblr-illustrations tblr-illustrations-vocate tblr-illustrations-idea-c"/>
    <path d="M484.578 493.83C487.438 487.26 499.028 476.75 502.888 478.07C506.748 479.38 506.828 485.65 506.828 485.65L507.878 492.09L500.448 493.84L498.338 488.78L484.588 493.84L484.578 493.83Z" fill="#0b1b3b" class="tblr-illustrations tblr-illustrations-vocate tblr-illustrations-idea-c"/>
    <path d="M447.672 493.83C450.532 487.26 462.122 476.75 465.982 478.07C469.842 479.38 469.922 485.65 469.922 485.65L470.972 492.09L463.542 493.84L461.432 488.78L447.682 493.84L447.672 493.83Z" fill="#0b1b3b" class="tblr-illustrations tblr-illustrations-vocate tblr-illustrations-idea-c"/>
    <path d="M469.889 212.99C471.389 215.83 473.569 218.26 476.249 220.04C487.969 228 505.649 218.98 510.399 216.27C512.049 214.74 513.539 213.03 514.829 211.19C501.069 219.2 484.229 219.86 469.879 212.95" fill="black" opacity="0.5"/>
    <path d="M444.578 421.64H525.858L527.278 376.33L527.828 358.3L448.738 356.76L445.368 409.29L444.578 421.64Z" fill="#DADCE0"/>
    <path d="M444.58 421.64H525.86C526.18 400.33 526.49 379.03 526.79 357.72L487.07 357.47C501.83 386.64 506.16 397.52 504.97 398.49C503.33 399.8 492.23 381.6 486.58 384.72C484.54 385.86 484.33 389.23 483.74 391.47C481.93 398.42 473.6 406.04 445.31 409.28L444.57 421.63L444.58 421.64Z" fill="black" opacity="0.1"/>
    <path d="M463.68 270.83L464.23 270.65C466.4 280.36 479.1 287.82 494.44 287.82C511.29 287.82 525.01 278.78 525.01 267.7V267.14C525.54 267.22 526.07 267.3 526.64 267.42V267.7C526.64 279.85 512.19 289.74 494.46 289.74C478.49 289.74 465.21 281.69 462.75 271.19L463.72 270.84" fill="#DADCE0"/>
    <path d="M488.812 296.58C489.052 297.94 490.342 298.84 491.702 298.6C493.062 298.36 493.962 297.07 493.722 295.71C493.512 294.52 492.482 293.65 491.272 293.65C489.782 293.78 488.682 295.09 488.802 296.58" fill="#DADCE0"/>
    <path d="M538.639 255.1L524.849 254.18H524.819C523.899 252.07 527.289 249.01 529.589 245.66C533.109 240.49 535.879 231.86 532.569 216.68L532.649 216.72C534.329 219.18 535.759 221.79 536.929 224.52C537.099 224.9 537.259 225.29 537.399 225.68C538.239 227.81 538.919 230.01 539.449 232.24C539.689 233.38 539.839 234.28 539.949 234.87C541.029 241.63 540.569 248.54 538.639 255.1Z" fill="black" opacity="0.5"/>
    <path d="M448.74 356.76C475.1 357.25 501.46 357.76 527.83 358.3C527.83 356.47 527.76 354.61 527.72 352.78V352.69C485.27 354.79 460.31 339.16 452.99 333.24C451.58 341.12 450.14 348.92 448.73 356.77" fill="black" opacity="0.1"/>
    <path d="M516.879 269.75C516.879 278.09 506.819 284.85 494.429 284.85C491.939 284.85 489.549 284.58 487.329 284.07C484.479 283.44 481.899 282.43 479.709 281.14C475.009 278.37 472.039 274.3 472.039 269.76C472.039 269.31 472.079 268.88 472.169 268.45C474.479 267.82 477.289 267.14 480.519 266.52C481.119 266.41 481.729 266.3 482.359 266.19C484.109 265.9 487.259 265.38 491.349 265.07C491.829 265.04 492.309 265.01 492.759 264.98C496.799 264.76 500.079 264.89 504.779 265.09C507.629 265.22 511.489 265.44 516.099 265.89C516.199 266.11 516.339 266.44 516.469 266.87C516.469 266.87 516.879 268.24 516.879 269.76V269.75Z" fill="#FFCB9D" style="fill: #FFCB9D; fill: var(--tblr-illustrations-skin, #FFCB9D);"/>
    <path d="M541.739 300.62C541.229 307.82 538.999 319.14 530.199 325.33C527.399 327.31 523.679 328.94 508.509 329.36C484.589 330.04 465.379 330.57 460.249 321.83C460.069 321.51 459.899 321.19 459.749 320.85C459.429 320.13 459.219 319.38 459.079 318.6C458.699 316.51 458.909 314.26 459.569 312.19C460.219 310.18 461.319 308.36 462.739 307.05C466.019 304.01 470.659 304.17 488.299 307.17C490.719 307.58 493.379 308.04 496.329 308.56C498.849 309.01 501.139 309.41 503.209 309.75C514.959 311.77 519.799 312.17 522.839 309C524.719 307.01 526.039 303.46 526.849 300.66C527.519 298.34 527.849 296.52 527.849 296.52C532.509 295.9 537.169 295.28 541.839 294.68C541.879 295.73 541.939 297.87 541.749 300.6L541.739 300.62Z" fill="#FFCB9D" style="fill: #FFCB9D; fill: var(--tblr-illustrations-skin, #FFCB9D);"/>
    <path d="M488.299 307.18C483.979 312.13 475.619 319.94 463.639 321.56C462.479 321.71 461.349 321.8 460.249 321.83C460.069 321.51 459.899 321.19 459.749 320.85C459.429 320.13 459.219 319.38 459.079 318.6C458.699 316.51 458.909 314.26 459.569 312.19C460.019 311.11 460.919 309.02 462.739 307.05C466.019 304.01 470.659 304.17 488.299 307.17V307.18Z" fill="black" opacity="0.1"/>
    <path d="M541.74 300.62C539.84 299.84 537.26 299.01 534.13 298.6C531.53 298.25 529.24 298.28 527.43 298.44C527.57 297.81 527.7 297.18 527.84 296.54C532.5 295.92 537.16 295.3 541.83 294.7C541.87 295.75 541.93 297.89 541.74 300.62Z" fill="black" opacity="0.1"/>
    <path d="M492.759 264.97C491.379 267.74 487.819 275.52 487.419 282.97C487.399 283.36 487.369 283.73 487.329 284.07C484.479 283.44 481.899 282.43 479.709 281.14C479.089 278.86 478.499 276.27 478.649 275.26C478.859 273.83 479.829 269.22 480.529 266.51C481.129 266.4 481.739 266.29 482.369 266.18C484.119 265.89 487.269 265.37 491.359 265.06C491.839 265.03 492.319 265 492.769 264.97H492.759Z" fill="black" opacity="0.1"/>
    <path d="M447.002 287.67C446.972 287.75 446.942 287.88 446.892 288.03C441.822 304.8 448.742 312.75 448.742 312.75C449.942 314.13 452.512 316.52 457.542 317.7C460.272 313.81 463.002 309.93 465.742 306.04L452.382 290.61C451.092 288.28 449.812 285.95 448.522 283.62C448.092 284.59 447.522 285.97 447.002 287.67Z" fill="#FFCB9D" style="fill: #FFCB9D; fill: var(--tblr-illustrations-skin, #FFCB9D);"/>
    <path d="M447.002 287.67C446.972 287.75 446.942 287.88 446.892 288.03C441.822 304.8 448.742 312.75 448.742 312.75C449.942 314.13 452.512 316.52 457.542 317.7C460.272 313.81 463.002 309.93 465.742 306.04L452.382 290.61C451.092 288.28 449.812 285.95 448.522 283.62C448.092 284.59 447.522 285.97 447.002 287.67Z" fill="black" opacity="0.1"/>
    <path d="M457.552 317.7C456.832 317.54 455.752 317.22 454.662 316.48C450.662 313.75 450.082 307.74 450.222 301.93C450.602 285.84 467.362 252.63 468.942 249.53C469.572 248.48 471.202 246.09 474.312 244.67C479.342 242.36 484.112 244.49 484.852 244.84C490.632 247.12 493.362 254.03 490.932 260.21C483.602 277 476.272 293.79 468.942 310.58C468.362 311.91 466.562 314.96 463.072 316.62C460.862 317.67 458.752 317.75 457.562 317.71L457.552 317.7Z" fill="#FFCB9D" style="fill: #FFCB9D; fill: var(--tblr-illustrations-skin, #FFCB9D);"/>
    <path d="M349.471 354.27L343.371 476.42H335.111C330.041 446.52 324.961 416.62 319.901 386.72C310.951 416.55 302.001 446.4 293.051 476.23C290.081 475.9 287.101 475.58 284.121 475.27C286.691 432.24 289.281 389.21 291.871 346.19L328.271 351.3L349.481 354.27H349.471Z" fill="#1a3263" style="fill: #1a3263; fill: var(--tblr-illustrations-primary, var(--tblr-primary, #1a3263));"/>
    <path d="M349.468 354.27L343.368 476.42H335.108C330.038 446.52 324.958 416.62 319.898 386.72L328.268 351.3L349.478 354.27H349.468Z" fill="black" opacity="0.1"/>
    <path d="M281.922 198.71C282.112 201.71 282.452 206.11 283.012 211.51C283.152 212.7 283.272 213.76 283.302 214.1C284.132 220 285.692 225.78 287.952 231.3C288.422 232.39 288.902 233.42 289.422 234.42C291.392 238.1 305.512 242.34 317.642 240.72C329.772 239.1 333.892 227.17 328.512 222.23C326.622 220.22 325.112 217.89 324.052 215.34C322.522 211.99 321.232 208.53 320.182 205C319.532 202.99 319.212 201.65 319.212 201.65L309.442 193.6L286.472 194.12C286.832 197.98 285.872 200.67 284.652 200.95C283.432 201.22 282.162 199.15 281.922 198.72V198.71Z" fill="#FFCB9D" style="fill: #FFCB9D; fill: var(--tblr-illustrations-skin, #FFCB9D);"/>
    <path d="M281.92 198.71C282.11 201.71 282.45 206.11 283.01 211.51C283.15 212.7 283.27 213.76 283.3 214.1C284.12 220 285.69 225.78 287.95 231.3C289.43 230.79 290.8 230.01 291.98 228.99C293.27 227.86 294.32 226.48 295.07 224.94C295.83 223.29 296.33 221.53 296.55 219.72C296.76 218.56 296.89 217.39 296.95 216.21C305.81 218.94 315.32 218.64 323.98 215.34C322.46 211.99 321.17 208.53 320.12 205C319.47 202.99 319.15 201.65 319.15 201.65L309.38 193.6L286.4 194.12C286.76 197.98 285.81 200.68 284.59 200.95C283.37 201.22 282.14 199.14 281.91 198.71H281.92Z" fill="black" opacity="0.1"/>
    <path d="M332.888 198.8C332.218 200.38 331.368 201.89 330.378 203.29C329.148 205.12 327.658 206.77 325.958 208.18C318.308 214.55 306.198 215.17 295.278 209.55C293.428 208.59 291.658 207.49 289.978 206.25H289.928C289.928 206.25 289.898 206.31 289.908 206.35C289.868 207.6 289.928 208.85 290.078 210.09C290.168 210.67 290.168 210.83 290.218 211.22L290.298 211.6C290.388 212.28 291.688 216.97 291.638 219.56C291.558 221.27 290.948 222.91 289.898 224.26C289.338 221.77 288.158 219.47 286.478 217.55C285.828 216.89 285.128 216.27 284.388 215.7C280.898 212.31 278.758 207.77 278.378 202.92C278.248 200.93 278.418 198.93 278.898 197C279.138 195.73 280.308 191.12 283.118 188.54C288.938 183.21 303.248 185.61 310.338 187.83C311.578 188.23 313.738 188.98 315.538 188.44C315.888 188.34 316.208 188.18 316.488 187.95C318.348 186.53 318.408 183.34 317.828 181.33C316.718 177.43 312.338 174.64 306.708 174.11C318.738 171 330.118 176.7 333.498 185.6C335.038 189.91 334.808 194.66 332.858 198.81L332.888 198.8Z" fill="#0b1b3b" class="tblr-illustrations tblr-illustrations-vocate tblr-illustrations-idea-c"/>
    <path d="M332.888 198.8C332.218 200.38 331.368 201.89 330.378 203.29C329.148 205.12 327.658 206.77 325.958 208.18C318.308 214.55 306.198 215.17 295.278 209.55C292.628 207.88 290.368 206.47 289.978 206.25H289.928L286.238 203.11C292.158 205.84 298.528 207.47 305.028 207.92C310.778 208.31 318.768 208.88 326.498 204.18C328.888 202.72 331.038 200.91 332.888 198.81V198.8Z" fill="black" opacity="0.5"/>
    <path d="M301.59 493.73L280.84 491.26C280.84 491.26 280.06 485.83 283.42 483.93C286.78 482.03 298.25 488.77 301.59 493.74" fill="#0b1b3b" class="tblr-illustrations tblr-illustrations-vocate tblr-illustrations-idea-c"/>
    <path d="M355.5 493.23L334.75 490.76C334.75 490.76 333.97 485.33 337.33 483.43C340.69 481.53 352.16 488.27 355.5 493.24" fill="#0b1b3b" class="tblr-illustrations tblr-illustrations-vocate tblr-illustrations-idea-c"/>
    <path d="M358.401 354.96C354.901 354.93 349.781 354.89 343.571 354.84C333.581 354.75 325.981 354.69 322.591 354.65C314.481 354.53 302.721 354.14 287.361 352.85C287.871 348.63 288.462 341.86 287.982 333.51C287.522 325.28 286.541 319.18 285.561 313.76C284.311 306.75 282.251 297.52 278.771 286.86C278.751 286.81 278.741 286.77 278.741 286.76C277.511 286.37 275.811 285.8 273.841 284.98C267.461 282.29 264.291 280.95 263.111 278.4C260.161 271.97 269.471 261.65 269.971 261.08C270.381 260.62 272.401 258.37 275.881 256.13C277.081 255.34 280.301 253.39 286.941 251.93C291.651 250.88 298.081 250.08 306.741 250.13C313.081 250.15 317.931 250.23 322.601 250.71C326.411 251.1 330.091 251.79 334.361 252.97C335.491 253.28 336.611 253.62 337.721 253.98L344.661 274.67C344.321 279.85 344.561 284.2 344.811 287.17C345.441 294.13 346.641 297.56 348.511 310.5C348.891 313.12 348.751 312.09 349.351 316.72C350.361 324.47 350.961 330.54 353.341 339.47C353.871 341.44 354.421 343.33 354.991 345.13C355.591 347.07 356.191 348.9 356.791 350.62C357.341 352.16 357.891 353.62 358.401 354.96Z" fill="#DADCE0"/>
    <path d="M358.4 354.96C354.9 354.93 349.78 354.89 343.57 354.84C333.58 354.75 325.98 354.69 322.59 354.65C314.48 354.53 302.72 354.14 287.36 352.85C287.87 348.63 288.46 341.86 287.98 333.51C287.52 325.28 286.54 319.18 285.56 313.76C284.31 306.75 282.25 297.52 278.77 286.86C279.73 289.64 298.45 339.82 356.79 350.62C357.34 352.16 357.89 353.62 358.4 354.96Z" fill="black" opacity="0.1"/>
    <path d="M305.271 259.54C301.571 255.96 297.921 254.16 295.611 253.23C289.391 250.75 283.681 251.03 280.261 251.19C280.261 251.19 277.661 251.32 275.401 251.69C264.291 253.55 253.591 265.54 251.441 268.03C253.411 270.84 255.791 273.92 258.651 277.05C265.311 284.36 271.801 288.94 276.531 291.74C276.841 290.95 277.171 290.16 277.521 289.37C281.981 279.23 290.021 267.7 305.291 259.53L305.271 259.54Z" fill="#DADCE0"/>
    <path d="M368.921 276.24C370.581 276.17 386.851 273.52 400.621 256.83C419.471 233.99 418.251 203.48 412.071 196.65C409.551 193.87 406.321 192.64 406.321 192.64C405.841 192.46 399.751 190.22 396.151 192.64C391.891 195.51 394.991 202.3 393.211 215.65C392.631 220.03 391.541 227.68 387.061 235.65C384.171 240.79 378.901 250.5 370.841 251.09C366.351 251.42 357.491 249.48 355.511 248.95C355.181 248.86 354.861 248.77 354.511 248.67C352.881 248.23 351.181 247.73 349.371 247.14C349.431 248.39 349.501 249.65 349.561 250.91C349.801 255.58 350.041 260.26 350.271 264.95C350.431 268.09 350.591 271.25 350.751 274.4C353.591 275.08 356.421 275.57 359.241 275.89C360.081 275.97 360.921 276.05 361.771 276.11C361.771 276.11 365.561 276.37 368.931 276.24H368.921Z" fill="#FFCB9D" style="fill: #FFCB9D; fill: var(--tblr-illustrations-skin, #FFCB9D);"/>
    <path d="M368.921 276.24C368.051 269.02 369.721 257.49 370.831 251.08C366.791 251.18 361.771 250.56 355.501 248.94C355.171 248.85 354.851 248.76 354.501 248.66L349.561 250.9L347.191 251.97L350.271 264.94L351.351 269.47C351.351 269.47 355.091 272.68 359.241 275.88C360.081 275.96 360.921 276.04 361.771 276.1C363.991 276.27 366.401 276.34 368.931 276.23L368.921 276.24Z" fill="black" opacity="0.1"/>
    <path d="M306.238 252.54C310.578 258.37 320.608 270.09 337.658 276.49C345.858 279.56 353.318 280.52 358.908 280.73C359.458 276 359.778 270.5 359.578 264.41C359.338 257.23 358.438 250.91 357.338 245.63C354.238 245.9 351.098 246.2 347.948 246.52C333.418 248.03 319.498 250.09 306.238 252.55V252.54Z" fill="#DADCE0"/>
    <path d="M302.222 345.46C290.152 354.24 244.682 336.87 241.172 306.37C239.972 295.81 244.102 286.48 248.282 280C250.632 276.37 252.982 273.62 254.402 272.06C256.852 274.32 259.352 276.7 261.882 279.22C264.462 281.79 266.912 284.33 269.222 286.82C268.662 287.64 267.962 288.73 267.232 290.03C267.232 290.03 266.292 291.76 265.542 293.35C265.082 294.32 261.152 305.18 263.642 311.23C268.282 322.51 297.262 321.86 305.842 330.94C307.552 332.75 307.892 334.35 307.992 334.94C308.772 339.82 303.542 344.48 302.212 345.45L302.222 345.46Z" fill="#FFCB9D" style="fill: #FFCB9D; fill: var(--tblr-illustrations-skin, #FFCB9D);"/>
    <path d="M286.148 251.17C293.508 250.65 301.038 250.21 308.728 249.86C314.538 249.6 320.258 249.41 325.878 249.27C324.258 250.93 321.538 253.34 317.588 255.23C315.868 256.05 312.248 257.57 307.368 257.96C305.678 258.1 300.288 258.47 294.858 256.23C292.038 255.07 288.998 253.11 288.328 252.67C287.418 252.07 286.668 251.55 286.148 251.16V251.17Z" fill="#FFCB9D" style="fill: #FFCB9D; fill: var(--tblr-illustrations-skin, #FFCB9D);"/>
    <path d="M286.148 251.17C293.508 250.65 301.038 250.21 308.728 249.86C314.538 249.6 320.258 249.41 325.878 249.27C324.258 250.93 321.538 253.34 317.588 255.23C315.868 256.05 312.248 257.57 307.368 257.96C305.678 258.1 300.288 258.47 294.858 256.23C292.038 255.07 288.998 253.11 288.328 252.67C287.418 252.07 286.668 251.55 286.148 251.16V251.17Z" fill="black" opacity="0.1"/>
    <path d="M269.241 286.83C268.581 287.8 267.911 288.87 267.251 290.04C266.601 291.2 266.041 292.31 265.561 293.36C261.171 287.43 253.151 282.56 248.301 280C250.651 276.37 253.001 273.62 254.421 272.06C256.871 274.32 259.371 276.7 261.901 279.22C264.481 281.79 266.931 284.33 269.241 286.82V286.83Z" fill="black" opacity="0.1"/>
</svg>
