<svg xmlns="http://www.w3.org/2000/svg" width="800" height="600" fill="none" viewBox="0 0 800 600">
    <style>
        :where(.theme-dark, [data-theme="dark"]) .tblr-illustrations-no-connection-a { fill: black; opacity: 0.07; } :where(.theme-dark, [data-theme="dark"]) .tblr-illustrations-no-connection-b { fill: black; opacity: 0.3; } :where(.theme-dark, [data-theme="dark"]) .tblr-illustrations-no-connection-c { fill: #24304d; }
        @media (prefers-color-scheme: dark) { .tblr-illustrations-no-connection-a { fill: black; opacity: 0.07; } .tblr-illustrations-no-connection-b { fill: black; opacity: 0.3; } .tblr-illustrations-no-connection-c { fill: #24304d; } }
    </style>
    <path d="M137.938 299.64C137.938 343.879 184.748 376.078 205.492 411.858C226.82 448.806 232.025 505.084 268.879 526.516C304.681 547.247 355.672 524.09 399.937 524.09C444.203 524.09 495.194 547.247 530.996 526.516C567.85 505.201 573.055 448.806 594.383 411.858C615.127 376.078 661.938 343.996 661.938 299.64C661.938 255.285 615.01 223.202 594.383 187.422C573.055 150.474 567.85 94.0795 530.996 72.7645C495.194 52.0333 444.203 75.1905 399.937 75.1905C355.672 75.1905 304.681 52.0333 268.879 72.7645C231.909 94.0795 226.82 150.474 205.492 187.422C184.748 223.319 137.938 255.402 137.938 299.64Z" fill="#1a3263" style="fill: #1a3263; fill: var(--tblr-illustrations-primary, var(--tblr-primary, #1a3263));" opacity="0.02" class="tblr-illustrations tblr-illustrations-vocate tblr-illustrations-no-connection-a"/>
    <path d="M595.938 460.544C595.938 464.093 537.751 467.206 455.278 468.5C454.215 468.525 453.138 468.551 452.061 468.551C449.635 468.602 447.17 468.615 444.692 468.666C436.921 468.781 428.968 468.845 420.834 468.91C404.798 469.063 388.089 469.14 370.95 469.14C246.716 469.14 145.938 465.233 145.938 460.557C145.938 456.803 216.021 453.46 311.324 452.473C315.891 452.409 320.522 452.384 325.206 452.332C333.301 452.268 341.565 452.217 349.972 452.191C356.861 452.166 363.88 452.14 370.937 452.14C374.843 452.14 378.735 452.14 382.601 452.166H390.06C403.618 452.217 416.812 452.307 429.578 452.435C432.562 452.46 435.507 452.486 438.439 452.524C440.164 452.55 441.89 452.576 443.589 452.576C450.582 452.665 457.419 452.781 464.087 452.87C541.864 454.203 595.938 457.111 595.938 460.544Z" fill="#d9e2f3" opacity="0.5" class="tblr-illustrations tblr-illustrations-vocate tblr-illustrations-no-connection-b"/>
    <path d="M357.988 413.732C374.975 427.861 391.963 441.989 408.938 456.105C348.329 457.113 287.72 458.133 227.111 459.14C226.382 457.474 225.666 455.821 224.938 454.155C258.796 448.214 292.654 442.274 326.512 436.333C282.071 401.877 274.872 390.447 277.124 386.599C281.433 379.237 327.592 388.445 357.988 413.719V413.732Z" fill="#DADCE0"/>
    <path d="M357.988 413.732C374.975 427.861 391.963 441.989 408.938 456.105C348.329 457.113 287.72 458.133 227.111 459.14C226.382 457.474 225.666 455.821 224.938 454.155C258.796 448.214 292.654 442.274 326.512 436.333C282.071 401.877 274.872 390.447 277.124 386.599C281.433 379.237 327.592 388.445 357.988 413.719V413.732Z" fill="black" opacity="0.1"/>
    <path d="M257.828 386.153C275.328 390.003 292.816 393.866 310.316 397.716C322.528 419.52 334.726 441.336 346.938 463.14C302.227 461.727 257.517 460.301 212.806 458.888L211.938 450.929C233.34 444.409 254.742 437.888 276.145 431.355C273.993 430.422 262.922 425.405 257.711 412.494C252.5 399.609 256.946 388.318 257.854 386.14L257.828 386.153Z" fill="#DADCE0"/>
    <path d="M175.95 461.374L200.014 445.14C200.014 445.14 206.211 450.298 204.7 455.292C203.189 460.286 184.509 463.75 175.938 461.374H175.95Z" fill="#0b1b3b" class="tblr-illustrations tblr-illustrations-vocate tblr-illustrations-no-connection-c"/>
    <path d="M515.938 335.128L477.938 340.14L484.844 327.14H504.418L515.938 335.128Z" fill="#1a3263" style="fill: #1a3263; fill: var(--tblr-illustrations-primary, var(--tblr-primary, #1a3263));"/>
    <path d="M515.938 335.128L477.938 340.14L484.844 327.14H504.418L515.938 335.128Z" fill="black" opacity="0.1"/>
    <path d="M533.776 433.777C531.357 438.511 528.6 443.076 525.375 447.421C513.254 463.755 489.896 465.501 475.356 452.672C473.601 451.133 471.975 449.387 470.518 447.421C450.412 420.263 446.836 382.836 446.94 358.833C446.979 344.646 448.305 335.14 448.305 335.14H547.536C547.536 335.14 555.43 391.1 533.75 433.777H533.776Z" fill="#DADCE0"/>
    <path d="M502.968 389.31C499.716 399.165 487.383 408.267 483.277 411.292C478.626 414.733 475.737 416.005 474.96 419.472C473.587 425.64 481.955 429.353 481.761 437.507C481.515 448.011 476.398 452.309 475.245 453.14C473.496 451.595 471.877 449.842 470.426 447.869C450.398 420.602 446.836 383.026 446.94 358.927C446.979 344.683 448.3 335.14 448.3 335.14H514.938C507.476 340.542 499.224 348.579 497.967 359.33C496.439 372.431 506.647 378.092 502.942 389.31H502.968Z" fill="black" opacity="0.1"/>
    <path d="M515.938 335.564C513.906 334.044 507.019 329.329 497.918 330.213C485.145 331.473 474.703 343.084 474.898 352.67C475.002 357.905 478.205 358.268 486.395 376.089C488.882 381.479 490.21 384.986 489.298 389.091C488.283 393.676 485.028 396.637 482.046 399.352C474.976 405.794 471.057 404.469 467.907 409.366C464.821 414.185 465.667 420.004 466.201 423.576C467.659 433.473 473.492 437.824 471.318 441.695C470.615 442.955 469.065 444.15 464.678 444.747C464.274 444.799 463.779 444.864 463.206 444.916C456.488 445.579 438.716 445.709 428.495 431.226C423.43 424.03 419.472 412.185 423.769 402.404C428.339 392 438.013 393.481 441.867 383.713C445.994 373.244 436.619 367.282 437.31 353.696C437.752 344.825 442.348 335.486 449.548 328.342C453.897 324.017 459.209 320.523 465.133 318.419C482.645 312.197 503.503 318.977 515.924 335.564H515.938Z" fill="#1a3263" style="fill: #1a3263; fill: var(--tblr-illustrations-primary, var(--tblr-primary, #1a3263));"/>
    <path d="M536.938 338.14L535.837 338.001L515.938 335.452L517.388 334.463C517.388 334.463 517.475 334.412 517.525 334.374L522.3 331.14H533.113L536.925 338.127L536.938 338.14Z" fill="#A6A9B3"/>
    <path d="M536.938 338.14L535.837 338.001L515.938 335.452L517.388 334.463C517.388 334.463 517.475 334.412 517.525 334.374L522.3 331.14H533.113L536.925 338.127L536.938 338.14Z" fill="black" opacity="0.1"/>
    <path d="M566.157 390.143C562.261 395.655 556.456 397.479 551.871 397.984C548.949 398.294 546.508 398.074 545.378 397.906C542.859 397.544 541.963 396.871 541.56 396.147C540.3 393.934 543.651 391.437 544.495 385.77C544.794 383.713 545.287 380.374 543.521 377.618C541.703 374.811 539.456 375.561 535.391 371.861C533.677 370.308 531.807 368.6 531.223 365.974C530.703 363.619 531.469 361.626 532.885 358.521C537.599 348.3 539.443 348.08 539.495 345.078C539.534 342.697 538.456 340.109 536.599 337.871C534.184 334.934 530.443 332.618 526.288 332.204C522.561 331.829 519.47 333.11 517.587 334.184C517.535 334.209 517.483 334.235 517.444 334.274C516.756 334.675 516.249 335.05 515.938 335.283C520.587 329.086 527.288 325.269 534.184 324.363C537.872 323.858 541.625 324.208 545.118 325.437C554.144 328.633 560.689 337.509 561.092 345.673C561.494 353.475 556.105 356.904 558.482 362.881C560.702 368.497 566.26 367.643 568.884 373.62C571.351 379.236 569.092 386.029 566.157 390.143Z" fill="#A6A9B3"/>
    <path d="M365.474 214.09C364.053 213.217 362.747 212.28 361.608 211.099C360.916 210.431 360.34 209.686 359.752 208.942C354.593 202.098 354.657 193.162 360.008 189.143C364.782 185.458 372.117 187.05 377.302 192.34C377.993 193.008 378.505 193.637 379.081 194.382C379.657 195.126 380.054 195.807 380.515 196.616C384.227 203.074 383.664 210.611 378.889 214.296C375.177 216.902 370.005 216.671 365.448 214.077L365.474 214.09Z" fill="#FFCB9D" style="fill: #FFCB9D; fill: var(--tblr-illustrations-skin, #FFCB9D);"/>
    <path d="M365.741 214.06C364.343 213.18 363.059 212.234 361.938 211.043C367.505 205.113 372.681 198.795 377.392 192.14C378.072 192.813 378.576 193.448 379.143 194.199C379.71 194.95 380.1 195.636 380.554 196.452C384.206 202.964 383.652 210.564 378.954 214.28C375.301 216.908 370.213 216.675 365.729 214.06H365.741Z" fill="black" opacity="0.1"/>
    <path d="M418.349 273.239C425.459 270.255 428.49 268.452 430.744 265.157C442.66 247.761 402.715 201.047 390.423 187.14C380.23 197.544 370.023 207.935 359.83 218.339C366.086 223.1 372.42 228.029 378.805 233.128C384.465 237.642 389.983 242.144 395.345 246.619C383.831 251.678 370.166 256.374 354.519 259.371C350.53 260.136 346.644 260.746 342.875 261.226C328.446 266.571 319.716 276.378 321.076 282.449C322.553 289.013 336.632 294.955 355.076 290.713C383.066 286.458 404.166 279.193 418.336 273.239H418.349Z" fill="#1a3263" style="fill: #1a3263; fill: var(--tblr-illustrations-primary, var(--tblr-primary, #1a3263));"/>
    <path d="M308.298 179.306C307.289 183.107 305.619 188.816 303.833 195.498L303.096 198.975C301.439 206.733 300.805 214.479 300.96 222.419C301.064 223.924 301.154 225.416 301.258 226.921C301.905 232.306 317.513 243.983 333.186 247.537C348.859 251.092 359.252 238.118 354.968 229.607C353.609 226.26 352.781 222.705 352.664 219.163C352.224 214.31 352.263 209.367 352.664 204.58C352.846 201.738 352.975 200.039 352.975 200.039L344.537 185.832L316.025 176.14C314.666 181.109 312.155 183.99 310.693 183.652C309.23 183.315 308.402 179.773 308.311 179.293L308.298 179.306Z" fill="#FFCB9D" style="fill: #FFCB9D; fill: var(--tblr-illustrations-skin, #FFCB9D);"/>
    <path d="M352.937 219.693C348.652 219.796 342.164 219.551 334.687 217.161C327.34 214.823 321.96 211.27 318.651 208.725C318.026 210.211 317.453 211.567 316.619 212.821C315.551 214.991 314.17 216.877 312.528 218.66C310.874 220.145 309.024 221.411 306.953 222.135C305.012 222.923 302.98 223.233 300.974 223.116C300.765 215.34 301.456 207.498 303.123 199.773L303.866 196.311C305.546 189.606 307.226 183.922 308.36 180.189C308.451 180.667 308.633 184.374 310.288 184.62C310.587 184.594 311.017 184.62 311.239 184.439C312.711 183.741 314.535 181.171 315.655 177.14L316.033 177.295L344.301 186.919L352.742 201.181C352.742 201.181 352.416 205.405 352.429 205.703C352.403 207.149 352.364 209.307 352.651 212.769L352.599 212.898L352.924 219.719L352.937 219.693Z" fill="black" opacity="0.1"/>
    <path d="M377.518 198.464C375.075 201.239 371.823 202.797 368.134 202.98C364.946 207.208 360.729 210.402 355.832 212.13C342.874 216.58 326.279 209.171 315.006 193.464L314.826 193.542L314.774 193.673C314.273 195.231 313.656 196.723 313.335 198.202C313.129 198.7 313.09 199.132 312.885 199.629L312.679 200.126C312.242 203.621 311.394 207.077 310.468 210.362C309.517 212.313 308.077 214.041 306.175 215.14C306.676 211.828 306.47 208.504 305.313 205.349C304.889 204.289 304.285 203.294 303.681 202.299C300.981 196.579 300.506 190.048 302.447 183.974C302.64 183.176 302.999 182.299 303.424 181.605L303.347 181.422C299.092 177.39 298.783 170.793 302.627 166.395C305.699 163.149 310.288 162.18 314.389 163.79C315.404 156.434 322.179 151.237 329.403 152.271C331.987 152.651 334.519 153.881 336.537 155.622C338.44 157.324 339.712 159.484 340.342 161.814C345.818 156.957 354.212 157.612 358.994 163.188C362.285 167.102 363.185 172.625 361.089 177.325C366.154 174.497 372.35 175.243 376.541 179.092C382.017 184.38 382.428 192.796 377.492 198.477L377.518 198.464Z" fill="#0b1b3b" class="tblr-illustrations tblr-illustrations-vocate tblr-illustrations-no-connection-c"/>
    <path d="M367.938 202.86C364.74 207.028 360.511 210.177 355.599 211.881C342.603 216.269 325.958 208.964 314.651 193.477L314.47 193.554L314.419 193.683C313.142 191.554 311.917 189.295 310.938 187.14L311.015 187.321C313.967 190.302 330.883 209.325 354.245 206.835C358.99 206.228 363.631 204.847 367.938 202.885V202.86Z" fill="black" opacity="0.5"/>
    <path d="M357.01 275.702C354.047 295.815 351.071 315.916 348.107 336.016L344.924 354.938C343.371 362.825 341.792 370.699 340.239 378.587C338.868 385.438 337.522 392.289 336.15 399.14C333.006 398.985 328.541 398.777 323.197 398.415C314.941 397.832 303.734 397.042 292.631 395.229C283.987 393.817 272.069 391.253 257.938 386.189C258.61 336.21 259.516 312.833 260.241 300.97C260.409 298.16 260.901 290.324 260.901 290.324C261.664 277.878 262.48 265.419 263.243 253.012L288.671 254.022C289.707 254.074 292.735 254.074 295.685 252.027C299.645 249.256 300.279 244.891 300.395 244.14C304.032 245.772 308.212 247.404 312.922 248.854C317.671 250.318 322.071 251.315 326.031 252.027C326.018 252.196 326.018 252.442 326.018 252.74C326.018 253.064 326.031 254.423 326.678 255.887C328.218 259.436 331.737 260.485 332.229 260.64C337.237 261.093 342.219 261.521 347.214 261.974C348.301 261.935 349.932 261.922 351.925 262.013C351.925 262.013 360.698 268.229 357.049 275.715L357.01 275.702Z" fill="#1a3263" style="fill: #1a3263; fill: var(--tblr-illustrations-primary, var(--tblr-primary, #1a3263));"/>
    <path d="M295.203 201.008C296.859 201.175 298.463 201.214 300.094 200.943C301.057 200.827 301.968 200.582 302.867 200.337C311.108 197.975 316.436 190.746 314.562 184.28C312.957 178.433 306.115 175.258 298.771 176.355C297.809 176.471 297.025 176.665 296.114 176.91C295.203 177.155 294.471 177.465 293.611 177.839C286.755 180.769 282.673 187.171 284.291 193.018C285.69 197.355 289.978 200.311 295.19 200.995L295.203 201.008Z" fill="#FFCB9D" style="fill: #FFCB9D; fill: var(--tblr-illustrations-skin, #FFCB9D);"/>
    <path d="M295.09 201.006C296.731 201.176 298.322 201.215 299.937 200.941C298.958 192.722 298.5 184.412 298.64 176.14C297.685 176.257 296.909 176.453 296.006 176.7C295.103 176.948 294.377 177.26 293.525 177.638C286.73 180.595 282.684 187.056 284.287 192.957C285.674 197.333 289.924 200.316 295.09 201.006Z" fill="black" opacity="0.1"/>
    <path d="M230.396 235.367C217.981 217.542 211.066 211.424 212.026 202.983C213.297 191.87 228.1 177.544 291.216 165.14C293.123 179.518 295.03 193.897 296.938 208.275C289.063 208.314 281.045 208.43 272.859 208.662C265.619 208.856 258.497 209.14 251.504 209.476C283.834 240.452 298.209 269.777 289.387 282.464C287.597 285.033 281.707 291.46 260.949 289.899C255.176 276.695 245.575 257.167 230.409 235.38L230.396 235.367Z" fill="#1a3263" style="fill: #1a3263; fill: var(--tblr-illustrations-primary, var(--tblr-primary, #1a3263));"/>
    <path d="M515.299 124.206C517.064 128.038 519.308 131.677 521.98 134.993C533.253 148.981 551.362 156.142 569.238 153.652C571.586 153.329 573.221 151.174 572.896 148.826C572.728 147.626 572.079 146.619 571.171 145.961C570.263 145.303 569.199 145.032 568.058 145.187C553.166 147.252 538.079 141.29 528.7 129.638C526.469 126.864 524.601 123.844 523.135 120.644C522.149 118.489 519.606 117.547 517.453 118.528C515.299 119.509 514.339 122.038 515.325 124.18L515.299 124.206Z" fill="#0b1b3b" class="tblr-illustrations tblr-illustrations-vocate tblr-illustrations-no-connection-c"/>
    <path d="M486.183 135.942C489.659 146.005 495.035 155.146 502.155 163.104C519.084 182.032 544.14 191.569 569.159 188.609C571.51 188.333 573.19 186.176 572.906 183.782C572.764 182.519 572.105 181.454 571.174 180.756C570.335 180.138 569.275 179.823 568.163 179.954C545.872 182.598 523.555 174.101 508.474 157.238C502.129 150.148 497.348 142.006 494.246 133.048C493.458 130.773 491.016 129.589 488.793 130.391C486.57 131.194 485.394 133.68 486.183 135.942Z" fill="#A6A9B3"/>
    <path d="M456.145 140.77C461.023 156.015 468.998 169.801 479.847 181.725C505.057 209.441 542.235 222.563 579.296 216.809C581.65 216.445 583.25 214.245 582.886 211.888C582.704 210.704 582.053 209.714 581.156 209.063C580.271 208.412 579.139 208.113 577.969 208.295C543.783 213.607 509.48 201.513 486.208 175.919C476.191 164.906 468.828 152.2 464.341 138.141C463.612 135.876 461.192 134.626 458.929 135.342C456.666 136.071 455.417 138.492 456.145 140.757V140.77Z" fill="#DADCE0"/>
    <path d="M430.189 157.039C436.135 175.775 445.871 192.718 459.114 207.384C489.882 241.453 535.256 257.571 580.487 250.506C583.356 250.062 585.317 247.353 584.875 244.462C584.655 243.01 583.863 241.793 582.772 240.995C581.682 240.197 580.306 239.817 578.878 240.04C537.152 246.568 495.296 231.706 466.89 200.254C454.661 186.725 445.69 171.091 440.198 153.821C439.315 151.034 436.355 149.503 433.59 150.393C430.825 151.283 429.306 154.266 430.189 157.053V157.039Z" fill="#DADCE0" opacity="0.5"/>
    <path d="M571.921 199.801L536.192 262.157C532.628 268.372 537.086 276.14 544.201 276.14H615.673C622.801 276.14 627.246 268.372 623.682 262.157L587.952 199.801C584.388 193.586 575.485 193.586 571.934 199.801H571.921Z" fill="#1a3263" style="fill: #1a3263; fill: var(--tblr-illustrations-primary, var(--tblr-primary, #1a3263));"/>
    <path d="M580.014 267.14C577.967 267.14 576.278 266.483 574.947 265.156C573.603 263.829 572.938 262.27 572.938 260.453C572.938 258.598 573.603 257.039 574.947 255.789C576.29 254.54 577.98 253.921 580.014 253.921C582.062 253.921 583.725 254.54 585.005 255.789C586.298 257.039 586.938 258.598 586.938 260.453C586.938 262.309 586.298 263.829 585.005 265.156C583.713 266.483 582.049 267.14 580.014 267.14ZM575.42 248.639L573.232 215.14H586.733L584.468 248.639H575.42Z" fill="white"/>
    <path d="M557.438 125.14C564.341 125.14 569.937 119.544 569.937 112.64C569.937 105.737 564.341 100.14 557.438 100.14C550.534 100.14 544.938 105.737 544.938 112.64C544.938 119.544 550.534 125.14 557.438 125.14Z" fill="#1a3263" style="fill: #1a3263; fill: var(--tblr-illustrations-primary, var(--tblr-primary, #1a3263));"/>
    <path d="M462.938 444.916C456.263 445.579 438.606 445.71 428.452 431.202C423.42 423.994 419.488 412.128 423.757 402.33C428.297 391.908 437.908 393.391 441.737 383.607C445.837 373.12 436.524 367.148 437.209 353.538C437.649 344.651 442.215 335.296 449.368 328.14C445.359 338.692 442.293 351.938 447.118 361.319C456.043 378.741 453.12 389.241 444.66 404.516C438.787 415.133 453.443 434.247 462.925 444.929L462.938 444.916Z" fill="black" opacity="0.1"/>
    <path d="M551.809 397.983C548.893 398.295 546.457 398.074 545.329 397.906C542.815 397.542 541.921 396.868 541.519 396.141C540.262 393.922 543.606 391.418 544.448 385.735C544.746 383.671 545.239 380.324 543.476 377.56C541.662 374.744 539.42 375.497 535.364 371.786C533.653 370.229 531.787 368.516 531.204 365.882C530.685 363.521 531.45 361.522 532.862 358.408C537.567 348.158 539.407 347.937 539.459 344.927C539.498 342.539 538.422 339.944 536.569 337.699L515.938 335.091C520.577 328.876 527.264 325.048 534.145 324.14C536.115 324.802 539.757 326.32 542.945 329.759C543.645 330.511 549.049 336.532 548.504 344.395C547.856 353.88 539.2 356.864 540.871 363.378C541.027 363.975 542.984 366.453 546.871 371.358C551.796 377.573 552.392 378.027 553.247 379.999C553.831 381.323 555.619 385.592 554.66 390.99C554.077 394.221 552.729 396.608 551.809 397.983Z" fill="black" opacity="0.1"/>
    <path d="M340.938 378.552C339.554 385.415 338.197 392.277 336.814 399.14C333.642 398.984 329.14 398.777 323.75 398.414C315.424 397.83 304.123 397.038 292.925 395.222C284.208 393.808 272.188 391.24 257.938 386.167C258.616 336.104 259.53 312.687 260.26 300.804C260.43 297.989 260.926 290.14 260.926 290.14C260.926 290.14 298.863 355.875 340.924 378.565L340.938 378.552Z" fill="black" opacity="0.1"/>
</svg>
