<svg xmlns="http://www.w3.org/2000/svg" width="800" height="600" fill="none" viewBox="0 0 800 600">
    <style>
        :where(.theme-dark, [data-theme="dark"]) .tblr-illustrations-reading-a { fill: black; opacity: 0.07; } :where(.theme-dark, [data-theme="dark"]) .tblr-illustrations-reading-b { fill: black; opacity: 0.3; } :where(.theme-dark, [data-theme="dark"]) .tblr-illustrations-reading-c { fill: #24304d; }
        @media (prefers-color-scheme: dark) { .tblr-illustrations-reading-a { fill: black; opacity: 0.07; } .tblr-illustrations-reading-b { fill: black; opacity: 0.3; } .tblr-illustrations-reading-c { fill: #24304d; } }
    </style>
    <path d="M185.488 301.2C185.488 335.45 221.758 360.38 237.788 388.09C254.328 416.67 258.308 460.35 286.888 476.88C314.588 492.91 354.038 474.98 388.328 474.98C422.618 474.98 462.078 492.97 489.738 476.88C518.318 460.34 522.298 416.64 538.838 388.09C554.868 360.38 591.148 335.5 591.148 301.2C591.148 266.9 554.868 242 538.838 214.31C522.298 185.73 518.318 142.04 489.738 125.5C462.038 109.47 422.608 127.4 388.298 127.4C353.988 127.4 314.588 109.47 286.888 125.5C258.308 142.04 254.328 185.74 237.788 214.31C221.758 242.01 185.488 266.89 185.488 301.2Z" fill="#1a3263" style="fill: #1a3263; fill: var(--tblr-illustrations-primary, var(--tblr-primary, #1a3263));" opacity="0.02" class="tblr-illustrations tblr-illustrations-vocate tblr-illustrations-reading-a"/>
    <path d="M402.07 442.15C519.343 442.15 614.41 440.09 614.41 437.55C614.41 435.009 519.343 432.95 402.07 432.95C284.798 432.95 189.73 435.009 189.73 437.55C189.73 440.09 284.798 442.15 402.07 442.15Z" fill="#d9e2f3" opacity="0.5" class="tblr-illustrations tblr-illustrations-vocate tblr-illustrations-reading-b"/>
    <path d="M549.789 397.31L522.699 384.3C522.699 384.3 524.099 376.07 529.359 374.81C534.619 373.54 547.449 388.42 549.779 397.31H549.789Z" fill="#0b1b3b" class="tblr-illustrations tblr-illustrations-vocate tblr-illustrations-reading-c"/>
    <path d="M517.04 390.74H388.32V432.83H517.04V390.74Z" fill="#DADCE0"/>
    <path d="M518.27 435.27C517.9 435.3 517.53 435.33 517.16 435.33H297.99C291.59 435.33 286.41 430.14 286.41 423.74V400.1C286.41 393.7 291.59 388.52 297.99 388.52H517.16C517.53 388.52 517.9 388.53 518.27 388.57C524.64 389.18 523.95 398.83 517.54 398.83H412.97C406.29 398.83 400.87 404.24 400.87 410.93V412.93C400.87 419.6 406.28 425.02 412.97 425.02H517.54C523.95 425.02 524.64 434.68 518.27 435.28V435.27Z" fill="#0b1b3b" class="tblr-illustrations tblr-illustrations-vocate tblr-illustrations-reading-c"/>
    <path d="M402.338 435.33H297.978C291.578 435.33 286.398 430.14 286.398 423.74V401.1C306.728 409.3 358.858 428.34 402.328 435.33H402.338Z" fill="black" opacity="0.15"/>
    <path d="M275.839 386.02H404.559V343.93H275.839V386.02Z" fill="#DADCE0"/>
    <path d="M506.472 353.29V376.93C506.472 383.32 501.272 388.52 494.882 388.52H275.722C275.352 388.52 274.972 388.5 274.622 388.46C268.252 387.86 268.942 378.2 275.352 378.2H379.922C386.592 378.2 392.012 372.78 392.012 366.11V364.11C392.012 363.1 391.882 362.11 391.642 361.18C390.332 355.91 385.582 352.02 379.922 352.02H275.352C269.202 352.02 268.322 343.12 273.872 341.89C274.112 341.82 274.362 341.78 274.622 341.76C274.982 341.72 275.352 341.7 275.722 341.7H494.882C501.272 341.7 506.472 346.9 506.472 353.29Z" fill="#A6A9B3"/>
    <path d="M506.471 353.29V376.93C506.471 383.32 501.271 388.52 494.881 388.52H476.511C452.441 377.14 422.081 368.15 391.641 361.18C390.331 355.91 385.581 352.02 379.921 352.02H345.721C316.491 346.94 290.421 343.68 273.871 341.89C274.111 341.82 274.361 341.78 274.621 341.76C274.981 341.72 275.351 341.7 275.721 341.7H494.881C501.271 341.7 506.471 346.9 506.471 353.29Z" fill="black" opacity="0.1"/>
    <path d="M402.07 322.56L488.52 334.53L491.23 334.9C498.14 349.57 505.03 364.4 511.91 379.41C518.88 394.63 525.71 409.74 532.39 424.75C535.95 424.64 539.52 424.53 543.08 424.41C539.22 388.94 535.36 353.48 531.52 318.02L465.77 291.91L438.07 280.01C426.07 294.2 414.08 308.38 402.08 322.57L402.07 322.56Z" fill="#DADCE0"/>
    <path d="M402.07 322.56L488.52 334.53L491.23 334.9C498.14 349.57 505.03 364.4 511.91 379.41C518.88 394.63 525.71 409.74 532.39 424.75C535.95 424.64 539.52 424.53 543.08 424.41C539.22 388.94 535.36 353.48 531.52 318.02L465.77 291.91L438.07 280.01C426.07 294.2 414.08 308.38 402.08 322.57L402.07 322.56Z" fill="black" opacity="0.1"/>
    <path d="M499.47 258.73C505.68 276.72 511.9 294.71 518.11 312.7C508.85 309.09 499.59 305.49 490.33 301.88C489.6 303.1 488.87 304.32 488.14 305.54C482.42 313.38 460.01 342.19 424.83 345.62C415.73 346.51 399.58 348.08 386.59 337.24C377.01 329.24 373.87 318.43 372.77 313.37C382.52 307.73 392.72 302.07 403.39 296.45C414.59 290.55 425.53 285.1 436.17 280.05C435.78 284.82 435.4 289.58 435.02 294.32C443.05 287.25 453.99 278.96 468.02 271.53C479.62 265.4 490.44 261.39 499.47 258.73Z" fill="#DADCE0"/>
    <path d="M559.431 457.13L533.141 442.57C533.141 442.57 535.011 434.43 540.311 433.47C545.611 432.52 557.551 448.15 559.431 457.13Z" fill="#0b1b3b" class="tblr-illustrations tblr-illustrations-vocate tblr-illustrations-reading-c"/>
    <path d="M495.199 121.53L495.129 121.92H495.119C494.069 122.55 478.019 138.93 472.479 144.59C471.319 145.77 470.619 146.49 470.619 146.49C457.689 142.34 444.749 138.2 431.819 134.04C431.809 134.02 431.809 134.01 431.789 133.98C432.419 132.71 433.009 131.44 433.589 130.17C433.949 129.41 434.309 128.64 434.659 127.87C435.149 126.8 436.289 126.19 437.449 126.34C449.049 127.94 460.629 129.53 472.219 131.12C476.669 126.3 481.109 121.49 485.549 116.68C486.649 115.55 488.399 115.41 489.649 116.36C489.669 116.38 489.699 116.39 489.719 116.41C489.909 116.56 490.119 116.72 490.329 116.89C490.549 117.05 490.759 117.23 490.979 117.4C490.979 117.4 490.979 117.41 490.989 117.4C491.209 117.57 491.409 117.75 491.629 117.93C492.169 118.37 492.709 118.82 493.199 119.25C493.969 119.95 494.619 120.59 494.959 121.09C495.069 121.25 495.149 121.4 495.199 121.52V121.53Z" fill="#1a3263" style="fill: #1a3263; fill: var(--tblr-illustrations-primary, var(--tblr-primary, #1a3263));"/>
    <path d="M494.959 121.09L474.549 141.57L473.749 137.99L473.729 137.9L472.219 131.11C476.669 126.29 481.109 121.48 485.549 116.67C486.649 115.54 488.399 115.4 489.649 116.35C489.669 116.37 489.699 116.38 489.719 116.4C489.909 116.55 490.119 116.72 490.329 116.88C490.549 117.04 490.759 117.22 490.979 117.39C490.979 117.39 490.979 117.4 490.989 117.39C491.209 117.57 491.409 117.75 491.629 117.92C492.169 118.36 492.709 118.81 493.199 119.24C493.969 119.94 494.619 120.58 494.959 121.08V121.09Z" fill="black" opacity="0.1"/>
    <path d="M473.771 137.91C473.771 137.91 473.761 137.96 473.741 138.05L460.881 204.44C450.861 202.67 440.861 200.9 430.851 199.13L414.301 196.21L414.281 196.17C418.401 176.49 422.511 156.82 426.631 137.13C426.901 135.84 427.171 134.54 427.441 133.25C427.921 130.97 430.141 129.49 432.431 129.93C446.211 132.59 460.001 135.25 473.771 137.91Z" fill="#A6A9B3"/>
    <path d="M493.201 119.26C494.131 118.37 495.651 119.2 495.411 120.46L495.201 121.52L495.131 121.91L483.311 182.9L460.891 204.44L472.491 144.58L473.761 137.99L473.781 137.91L493.211 119.26H493.201Z" fill="#A6A9B3"/>
    <path d="M493.201 119.26C494.131 118.37 495.651 119.2 495.411 120.46L495.201 121.52L495.131 121.91L483.311 182.9L460.891 204.44L472.491 144.58L473.761 137.99L473.781 137.91L493.211 119.26H493.201Z" fill="black" opacity="0.1"/>
    <path d="M310.601 342.84C308.881 345.34 306.121 346.5 302.861 346.95C299.221 347.46 294.931 347.09 290.761 346.73C283.631 346.11 272.661 343.7 272.571 340.33C272.491 337.78 278.671 334.66 283.991 333.96C285.131 333.81 286.121 333.79 287.001 333.82H287.011C289.961 333.91 291.761 334.58 293.951 333.13C296.921 331.18 296.111 328.35 299.191 326.5C301.771 324.93 305.401 325.1 307.841 326.5C312.911 329.39 313.811 338.13 310.591 342.83L310.601 342.84Z" fill="#FFCB9D" style="fill: #FFCB9D; fill: var(--tblr-illustrations-skin, #FFCB9D);"/>
    <path d="M310.6 342.84C308.88 345.34 306.12 346.5 302.86 346.95C301.52 344.91 299.54 342.44 296.77 340.34C293.44 337.82 289.64 335.42 287.02 333.83C289.97 333.92 291.77 334.59 293.96 333.14C296.93 331.19 296.12 328.36 299.2 326.51C301.78 324.94 305.41 325.11 307.85 326.51C312.92 329.4 313.82 338.14 310.6 342.84Z" fill="black" opacity="0.1"/>
    <path d="M320.28 132.09C321.21 135.44 322.5 140.54 324.14 146.43L325.14 149.41C327.36 156.06 330.35 162.25 334.03 168.22C334.78 169.32 335.53 170.41 336.27 171.51C339.18 175.31 356.33 177.19 369.88 172.84C383.43 168.49 385.54 153.95 378.45 149.39C375.91 147.46 373.68 145.12 372 142.47C369.49 138.97 367.3 135.2 365.47 131.37C364.33 129.13 363.67 127.78 363.67 127.78L350.86 120.76L324.75 126.21C325.94 130.6 325.31 133.92 324.05 134.33C322.79 134.74 320.55 132.41 320.27 132.08L320.28 132.09Z" fill="#FFCB9D" style="fill: #FFCB9D; fill: var(--tblr-illustrations-skin, #FFCB9D);"/>
    <path d="M371.998 142.35C368.788 144.34 363.768 147.06 357.018 148.57C350.388 150.07 344.718 149.75 341.058 149.29C341.248 150.7 341.428 152 341.368 153.32C341.538 155.45 341.338 157.52 340.898 159.61C340.308 161.49 339.478 163.28 338.238 164.76C337.118 166.23 335.718 167.38 334.148 168.19C330.478 162.33 327.468 156.03 325.258 149.38L324.258 146.4C322.508 140.53 321.218 135.43 320.398 132.06C320.678 132.38 322.488 135.13 323.858 134.59C324.078 134.44 324.418 134.28 324.498 134.02C325.298 132.83 325.518 130.05 324.558 126.46L324.908 126.41L350.678 121.13L363.508 128.26C363.508 128.26 365.158 131.63 365.308 131.85C365.938 132.96 366.878 134.63 368.658 137.15L368.678 137.27L371.998 142.33V142.35Z" fill="black" opacity="0.1"/>
    <path d="M381.71 114.92C381.06 118.12 379.26 120.76 376.51 122.57C375.94 127.2 374.13 131.52 371.13 135.04C363.15 144.27 347.11 146.2 331.46 139.45L331.36 139.58L331.38 139.7C331.69 141.1 331.88 142.51 332.29 143.77C332.35 144.24 332.52 144.58 332.58 145.05L332.64 145.52C333.86 148.35 334.75 151.35 335.5 154.24C335.64 156.14 335.3 158.1 334.33 159.79C333.24 157.06 331.6 154.65 329.31 152.8C328.51 152.19 327.61 151.71 326.7 151.24C322.09 148.15 318.81 143.44 317.6 137.97C317.39 137.28 317.28 136.46 317.3 135.73L317.17 135.63C312.11 134.52 308.93 129.67 309.93 124.63C310.85 120.79 313.94 117.98 317.81 117.33C315.32 111.32 318.21 104.33 324.22 101.84C326.38 100.95 328.86 100.73 331.2 101.14C333.41 101.56 335.35 102.62 336.87 104.09C338.91 97.94 345.66 94.63 351.81 96.68C356.08 98.14 359.23 101.91 359.71 106.4C362.35 101.97 367.44 99.72 372.37 100.73C378.93 102.24 382.99 108.4 381.72 114.92H381.71Z" fill="#0b1b3b" class="tblr-illustrations tblr-illustrations-vocate tblr-illustrations-reading-c"/>
    <path d="M376.512 122.57C375.942 127.2 374.132 131.52 371.132 135.04C363.152 144.27 347.112 146.2 331.462 139.45L331.362 139.58L331.382 139.7C329.442 138.64 327.482 137.47 325.762 136.27L325.892 136.37C329.492 137.32 351.042 144.23 367.812 131.78C371.172 129.17 374.102 126.02 376.512 122.57Z" fill="black" opacity="0.5"/>
    <path d="M447.73 284.16C444.8 286.98 440.57 290.66 435.02 294.31C424.89 300.98 416.05 303.82 407.68 306.46C399.16 309.13 387.33 312.07 372.77 313.38C361.29 290.8 349.82 268.22 338.36 245.65C336.92 242.85 335.5 240.04 334.08 237.24C329.07 227.41 324.08 217.56 319.09 207.75L338.96 197.08C339.76 196.66 342.09 195.29 343.41 192.41C345.18 188.52 343.72 184.9 343.46 184.29C346.97 183.89 350.9 183.25 355.13 182.24C359.41 181.22 363.23 180 366.56 178.76C366.63 178.89 366.73 179.09 366.86 179.31C367.01 179.55 367.65 180.59 368.78 181.42C371.55 183.44 374.71 182.65 375.15 182.54C379.17 180.63 383.17 178.73 387.19 176.82C387.99 176.3 389.23 175.55 390.8 174.73C390.8 174.73 400.28 175.51 400.86 182.88C407.65 199.55 414.41 216.2 421.18 232.88L427.25 248.73C434.07 260.54 440.91 272.37 447.73 284.19V284.16Z" fill="#1a3263" style="fill: #1a3263; fill: var(--tblr-illustrations-primary, var(--tblr-primary, #1a3263));"/>
    <path d="M447.728 284.16C444.798 286.98 440.568 290.66 435.018 294.31C424.888 300.98 416.048 303.82 407.678 306.46C399.158 309.13 387.328 312.07 372.768 313.38C361.288 290.8 349.818 268.22 338.358 245.65C336.918 242.85 335.498 240.04 334.078 237.24C338.898 242.02 353.308 255.01 376.228 258.6C402.168 262.64 421.778 251.95 427.248 248.71C434.068 260.52 440.908 272.35 447.728 284.17V284.16Z" fill="black" opacity="0.1"/>
    <path d="M334.069 226.67C331.299 253.17 328.539 279.68 325.769 306.16C324.419 319 323.079 331.82 321.749 344.66C320.719 344.64 319.679 344.57 318.629 344.49C308.739 343.61 300.049 340.15 292.669 335.67C288.609 333.22 284.949 330.47 281.699 327.67C282.149 326.75 283.049 324.9 284.069 322.55C300.199 285.99 307.559 226.99 311.559 216.93C313.599 211.81 317.259 208.95 317.259 208.95C318.029 208.35 318.719 207.94 319.069 207.73L334.059 226.66L334.069 226.67Z" fill="#1a3263" style="fill: #1a3263; fill: var(--tblr-illustrations-primary, var(--tblr-primary, #1a3263));"/>
    <path d="M462.85 180.99C462.94 179.5 463.13 178.08 463.58 176.69C463.82 175.86 464.16 175.09 464.5 174.32C467.73 167.37 474.8 163.68 480.22 166.22C485.13 168.45 486.96 174.92 484.97 181.24C484.73 182.07 484.45 182.74 484.11 183.51C483.77 184.28 483.39 184.88 482.95 185.59C479.42 191.23 473.24 193.94 468.33 191.71C464.72 189.87 462.72 185.68 462.85 180.99Z" fill="#FFCB9D" style="fill: #FFCB9D; fill: var(--tblr-illustrations-skin, #FFCB9D);"/>
    <path d="M462.852 180.99C462.942 179.5 463.132 178.08 463.582 176.69C470.592 178.7 477.752 180.24 484.962 181.25C484.722 182.08 484.442 182.75 484.102 183.52C483.762 184.29 483.382 184.89 482.942 185.6C479.412 191.24 473.232 193.95 468.322 191.72C464.712 189.88 462.712 185.69 462.842 181L462.852 180.99Z" fill="black" opacity="0.1"/>
    <path d="M408.409 223.02C421.719 233.38 425.109 238.24 438.399 246.91C444.639 250.98 447.749 253.01 449.859 253.25C468.389 255.34 488.249 204.75 493.979 189.38C481.629 185.72 469.279 182.07 456.929 178.41C455.819 185.27 454.599 192.26 453.269 199.38C452.099 205.68 450.869 211.85 449.609 217.91C412.609 176.92 397.449 171.04 390.789 174.73C383.869 178.57 382.859 196.57 390.489 209.01C393.449 213.83 394.839 212.46 408.409 223.03V223.02Z" fill="#1a3263" style="fill: #1a3263; fill: var(--tblr-illustrations-primary, var(--tblr-primary, #1a3263));"/>
    <path d="M442.941 175.04C442.721 177.85 442.391 181.12 441.861 184.81C441.221 189.4 440.291 194.63 438.951 200.41C436.251 199.99 433.561 199.56 430.851 199.14C426.191 198.41 421.541 197.68 416.881 196.95C414.971 196.65 413.701 194.79 414.131 192.9C418.301 174.31 422.471 155.72 426.631 137.14C426.921 135.87 427.191 134.61 427.481 133.34C428.341 133.91 429.351 134.39 430.501 134.69C434.891 135.87 439.331 136.92 443.671 138.28C443.611 138.96 443.611 139.67 443.691 140.44C444.991 152.6 443.781 164.59 442.941 175.04Z" fill="#A6A9B3"/>
    <path d="M325.772 306.16C324.422 319 323.082 331.82 321.752 344.66C320.722 344.64 319.682 344.57 318.632 344.49C308.742 343.61 300.052 340.15 292.672 335.67C307.302 327.91 319.042 314.83 325.772 306.16Z" fill="black" opacity="0.1"/>
</svg>
