<svg xmlns="http://www.w3.org/2000/svg" width="800" height="600" fill="none" viewBox="0 0 800 600">
    <style>
        :where(.theme-dark, [data-theme="dark"]) .tblr-illustrations-santa-a { fill: black; opacity: 0.07; } :where(.theme-dark, [data-theme="dark"]) .tblr-illustrations-santa-b { fill: black; opacity: 0.3; } :where(.theme-dark, [data-theme="dark"]) .tblr-illustrations-santa-c { fill: #24304d; }
        @media (prefers-color-scheme: dark) { .tblr-illustrations-santa-a { fill: black; opacity: 0.07; } .tblr-illustrations-santa-b { fill: black; opacity: 0.3; } .tblr-illustrations-santa-c { fill: #24304d; } }
    </style>
    <path d="M122.879 329.179C122.879 376.012 172.48 409.963 194.27 447.875C217.017 486.994 222.317 546.591 261.449 569.103C299.243 591.011 353.186 566.453 400.006 566.453C446.826 566.453 500.769 590.892 538.563 569.103C577.564 546.473 582.982 486.876 605.612 447.875C627.52 410.081 677.002 376.012 677.002 329.179C677.002 282.346 627.52 248.396 605.612 210.484C582.982 171.482 577.564 111.767 538.563 89.256C500.638 67.3482 446.826 91.9059 400.006 91.9059C353.186 91.9059 299.243 67.3482 261.449 89.1379C222.448 111.767 217.03 171.364 194.401 210.366C172.493 248.409 123.01 282.36 122.892 329.179" fill="#1a3263" style="fill: #1a3263; fill: var(--tblr-illustrations-primary, var(--tblr-primary, #1a3263));" opacity="0.02" class="tblr-illustrations tblr-illustrations-vocate tblr-illustrations-santa-a"/>
    <path d="M139.266 529.695C139.266 534.877 255.075 539.141 397.489 539.141C539.903 539.141 655.713 534.877 655.713 529.695C655.713 524.513 540.231 520.25 397.489 520.25C254.747 520.25 139.266 524.513 139.266 529.695Z" fill="#d9e2f3" opacity="0.5" class="tblr-illustrations tblr-illustrations-vocate tblr-illustrations-santa-b"/>
    <path d="M229.258 200.567L219.773 198.376L225.834 194.742C226.608 194.283 226.857 193.286 226.398 192.512C225.939 191.738 224.942 191.489 224.168 191.948L215.221 197.313L201.932 194.244L210.918 183.827L221.295 183.263C222.187 183.211 222.882 182.45 222.83 181.558C222.777 180.666 222.03 179.971 221.125 180.023L213.87 180.417L220.272 173.005C220.862 172.323 220.783 171.299 220.101 170.709C219.419 170.119 218.396 170.197 217.806 170.88L211.443 178.239L211.063 171.194C211.01 170.302 210.249 169.62 209.357 169.66C208.465 169.712 207.77 170.473 207.822 171.365L208.387 181.781L199.715 191.817L196.291 178.895L201.683 170.001C202.142 169.24 201.906 168.23 201.132 167.77C200.371 167.311 199.361 167.547 198.902 168.321L195.137 174.54L192.631 165.081C192.395 164.215 191.516 163.691 190.65 163.927C189.785 164.15 189.26 165.042 189.496 165.908L191.989 175.314L185.954 171.654C185.193 171.194 184.183 171.431 183.724 172.204C183.265 172.965 183.501 173.975 184.275 174.435L193.195 179.853L196.646 192.866L183.606 189.088L178.765 179.892C178.345 179.092 177.361 178.79 176.574 179.21C175.774 179.63 175.472 180.613 175.892 181.401L179.277 187.829L169.884 185.1C169.018 184.851 168.126 185.349 167.877 186.202C167.628 187.068 168.126 187.96 168.979 188.209L178.319 190.925L172.075 194.217C171.274 194.637 170.973 195.621 171.393 196.408C171.681 196.959 172.245 197.274 172.836 197.274C173.085 197.274 173.347 197.208 173.596 197.09L182.832 192.236L195.806 196.001L185.941 205.394L175.551 204.948C174.646 204.896 173.898 205.604 173.859 206.496C173.819 207.388 174.515 208.149 175.407 208.188L182.661 208.503L175.577 215.259C174.921 215.876 174.908 216.912 175.525 217.555C175.84 217.896 176.273 218.053 176.705 218.053C177.112 218.053 177.506 217.909 177.821 217.607L184.865 210.891L184.563 217.949C184.524 218.841 185.219 219.601 186.111 219.641C186.138 219.641 186.164 219.641 186.177 219.641C187.043 219.641 187.764 218.959 187.804 218.08L188.25 207.651L198.128 198.232L201.906 211.468L196.685 220.467C196.239 221.241 196.501 222.238 197.275 222.684C197.538 222.829 197.813 222.907 198.089 222.907C198.653 222.907 199.191 222.619 199.492 222.094L203.139 215.81L205.828 225.216C206.038 225.925 206.681 226.397 207.39 226.397C207.534 226.397 207.691 226.371 207.836 226.331C208.701 226.082 209.2 225.19 208.951 224.324L206.274 214.971L212.388 218.513C212.65 218.657 212.926 218.736 213.201 218.736C213.765 218.736 214.303 218.447 214.605 217.922C215.051 217.148 214.788 216.151 214.014 215.705L204.989 210.471L201.25 197.418L214.592 200.501L219.944 209.422C220.246 209.933 220.784 210.209 221.334 210.209C221.623 210.209 221.912 210.13 222.174 209.973C222.948 209.513 223.197 208.516 222.738 207.742L218.999 201.511L228.536 203.715C228.655 203.741 228.786 203.754 228.904 203.754C229.638 203.754 230.307 203.243 230.491 202.495C230.688 201.616 230.15 200.75 229.271 200.553L229.258 200.567Z" fill="#1a3263" style="fill: #1a3263; fill: var(--tblr-illustrations-primary, var(--tblr-primary, #1a3263));"/>
    <path d="M447.585 368.679H270.578V514.333H447.585V368.679Z" fill="#A6A9B3"/>
    <path d="M352.375 497.988H297.619C293.909 497.988 290.902 500.995 290.902 504.704V519.45C290.902 523.159 293.909 526.166 297.619 526.166H352.375C356.085 526.166 359.092 523.159 359.092 519.45V504.704C359.092 500.995 356.085 497.988 352.375 497.988Z" fill="#DADCE0"/>
    <path d="M352.378 527.504H297.621C293.174 527.504 289.566 523.897 289.566 519.45V504.704C289.566 500.27 293.174 496.65 297.621 496.65H352.378C356.825 496.65 360.432 500.257 360.432 504.704V519.45C360.432 523.897 356.825 527.504 352.378 527.504ZM297.621 499.313C294.656 499.313 292.243 501.727 292.243 504.691V519.436C292.243 522.401 294.656 524.815 297.621 524.815H352.378C355.342 524.815 357.756 522.401 357.756 519.436V504.691C357.756 501.727 355.342 499.313 352.378 499.313H297.621Z" fill="#A6A9B3"/>
    <path d="M420.559 497.988H365.803C362.093 497.988 359.086 500.995 359.086 504.704V519.45C359.086 523.159 362.093 526.166 365.803 526.166H420.559C424.269 526.166 427.276 523.159 427.276 519.45V504.704C427.276 500.995 424.269 497.988 420.559 497.988Z" fill="#DADCE0"/>
    <path d="M420.561 527.504H365.805C361.358 527.504 357.75 523.897 357.75 519.45V504.704C357.75 500.27 361.358 496.65 365.805 496.65H420.561C425.008 496.65 428.616 500.257 428.616 504.704V519.45C428.616 523.897 425.008 527.504 420.561 527.504ZM365.805 499.313C362.84 499.313 360.426 501.727 360.426 504.691V519.436C360.426 522.401 362.84 524.815 365.805 524.815H420.561C423.526 524.815 425.94 522.401 425.94 519.436V504.691C425.94 501.727 423.526 499.313 420.561 499.313H365.805Z" fill="#A6A9B3"/>
    <path d="M461.396 497.988V510.608C461.396 519.2 454.43 526.166 445.837 526.166H427.301V497.988H461.396Z" fill="#DADCE0"/>
    <path d="M445.832 527.504H425.957V496.65H462.728V510.608C462.728 519.922 455.146 527.504 445.832 527.504ZM428.62 524.828H445.818C453.663 524.828 460.039 518.453 460.039 510.608V499.313H428.62V524.828Z" fill="#A6A9B3"/>
    <path d="M290.896 497.988V526.166H272.359C263.767 526.166 256.801 519.2 256.801 510.608V497.988H290.896Z" fill="#0b1b3b" class="tblr-illustrations tblr-illustrations-vocate tblr-illustrations-santa-c"/>
    <path d="M292.236 527.504H272.361C263.047 527.504 255.465 519.922 255.465 510.608V496.65H292.236V527.504ZM258.141 499.326V510.621C258.141 518.466 264.517 524.841 272.361 524.841H289.56V499.326H258.141Z" fill="#A6A9B3"/>
    <path d="M318.274 469.797H263.517C259.808 469.797 256.801 472.804 256.801 476.513V491.258C256.801 494.968 259.808 497.975 263.517 497.975H318.274C321.983 497.975 324.991 494.968 324.991 491.258V476.513C324.991 472.804 321.983 469.797 318.274 469.797Z" fill="#DADCE0"/>
    <path d="M318.276 499.313H263.52C259.072 499.313 255.465 495.706 255.465 491.258V476.513C255.465 472.066 259.072 468.458 263.52 468.458H318.276C322.71 468.458 326.331 472.066 326.331 476.513V491.258C326.331 495.706 322.723 499.313 318.276 499.313ZM263.52 471.135C260.555 471.135 258.141 473.548 258.141 476.513V491.258C258.141 494.223 260.555 496.637 263.52 496.637H318.276C321.241 496.637 323.655 494.223 323.655 491.258V476.513C323.655 473.548 321.241 471.135 318.276 471.135H263.52Z" fill="#A6A9B3"/>
    <path d="M386.465 469.797H331.709C327.999 469.797 324.992 472.804 324.992 476.513V491.258C324.992 494.968 327.999 497.975 331.709 497.975H386.465C390.175 497.975 393.182 494.968 393.182 491.258V476.513C393.182 472.804 390.175 469.797 386.465 469.797Z" fill="#DADCE0"/>
    <path d="M386.467 499.313H331.711C327.264 499.313 323.656 495.706 323.656 491.258V476.513C323.656 472.066 327.264 468.458 331.711 468.458H386.467C390.915 468.458 394.522 472.066 394.522 476.513V491.258C394.522 495.706 390.915 499.313 386.467 499.313ZM331.711 471.135C328.746 471.135 326.332 473.548 326.332 476.513V491.258C326.332 494.223 328.746 496.637 331.711 496.637H386.467C389.432 496.637 391.846 494.223 391.846 491.258V476.513C391.846 473.548 389.432 471.135 386.467 471.135H331.711Z" fill="#A6A9B3"/>
    <path d="M454.657 469.797H399.9C396.191 469.797 393.184 472.804 393.184 476.513V491.258C393.184 494.968 396.191 497.975 399.9 497.975H454.657C458.366 497.975 461.373 494.968 461.373 491.258V476.513C461.373 472.804 458.366 469.797 454.657 469.797Z" fill="#DADCE0"/>
    <path d="M454.659 499.313H399.902C395.455 499.313 391.848 495.706 391.848 491.258V476.513C391.848 472.066 395.455 468.458 399.902 468.458H454.659C459.106 468.458 462.714 472.066 462.714 476.513V491.258C462.714 495.706 459.106 499.313 454.659 499.313ZM399.902 471.135C396.938 471.135 394.524 473.548 394.524 476.513V491.258C394.524 494.223 396.938 496.637 399.902 496.637H454.659C457.624 496.637 460.037 494.223 460.037 491.258V476.513C460.037 473.548 457.624 471.135 454.659 471.135H399.902Z" fill="#A6A9B3"/>
    <path d="M352.375 441.618H297.619C293.909 441.618 290.902 444.625 290.902 448.335V463.08C290.902 466.789 293.909 469.797 297.619 469.797H352.375C356.085 469.797 359.092 466.789 359.092 463.08V448.335C359.092 444.625 356.085 441.618 352.375 441.618Z" fill="#DADCE0"/>
    <path d="M352.378 471.135H297.621C293.174 471.135 289.566 467.527 289.566 463.08V448.335C289.566 443.888 293.174 440.28 297.621 440.28H352.378C356.825 440.28 360.432 443.888 360.432 448.335V463.08C360.432 467.514 356.825 471.135 352.378 471.135ZM297.621 442.956C294.656 442.956 292.243 445.37 292.243 448.335V463.08C292.243 466.045 294.656 468.458 297.621 468.458H352.378C355.342 468.458 357.756 466.045 357.756 463.08V448.335C357.756 445.37 355.342 442.956 352.378 442.956H297.621Z" fill="#A6A9B3"/>
    <path d="M420.559 441.618H365.803C362.093 441.618 359.086 444.625 359.086 448.335V463.08C359.086 466.789 362.093 469.797 365.803 469.797H420.559C424.269 469.797 427.276 466.789 427.276 463.08V448.335C427.276 444.625 424.269 441.618 420.559 441.618Z" fill="#0b1b3b" class="tblr-illustrations tblr-illustrations-vocate tblr-illustrations-santa-c"/>
    <path d="M420.561 471.135H365.805C361.358 471.135 357.75 467.527 357.75 463.08V448.335C357.75 443.888 361.358 440.28 365.805 440.28H420.561C425.008 440.28 428.616 443.888 428.616 448.335V463.08C428.616 467.514 425.008 471.135 420.561 471.135ZM365.805 442.956C362.84 442.956 360.426 445.37 360.426 448.335V463.08C360.426 466.045 362.84 468.458 365.805 468.458H420.561C423.526 468.458 425.94 466.045 425.94 463.08V448.335C425.94 445.37 423.526 442.956 420.561 442.956H365.805Z" fill="#A6A9B3"/>
    <path d="M454.675 441.618H434.014C430.304 441.618 427.297 444.625 427.297 448.335V463.08C427.297 466.789 430.304 469.797 434.014 469.797H454.675C458.385 469.797 461.392 466.789 461.392 463.08V448.335C461.392 444.625 458.385 441.618 454.675 441.618Z" fill="#DADCE0"/>
    <path d="M454.658 471.135H433.996C429.549 471.135 425.941 467.527 425.941 463.08V448.335C425.941 443.888 429.549 440.28 433.996 440.28H454.658C459.105 440.28 462.712 443.888 462.712 448.335V463.08C462.712 467.527 459.105 471.135 454.658 471.135ZM434.009 442.956C431.044 442.956 428.631 445.37 428.631 448.335V463.08C428.631 466.045 431.044 468.458 434.009 468.458H454.671C457.636 468.458 460.049 466.045 460.049 463.08V448.335C460.049 445.37 457.636 442.956 454.671 442.956H434.009Z" fill="#A6A9B3"/>
    <path d="M284.179 441.618H263.517C259.808 441.618 256.801 444.625 256.801 448.335V463.08C256.801 466.789 259.808 469.797 263.517 469.797H284.179C287.889 469.797 290.896 466.789 290.896 463.08V448.335C290.896 444.625 287.889 441.618 284.179 441.618Z" fill="#DADCE0"/>
    <path d="M284.181 471.135H263.52C259.086 471.135 255.465 467.527 255.465 463.08V448.335C255.465 443.888 259.072 440.28 263.52 440.28H284.181C288.628 440.28 292.236 443.888 292.236 448.335V463.08C292.236 467.527 288.628 471.135 284.181 471.135ZM263.52 442.956C260.555 442.956 258.141 445.37 258.141 448.335V463.08C258.141 466.045 260.555 468.458 263.52 468.458H284.181C287.146 468.458 289.56 466.045 289.56 463.08V448.335C289.56 445.37 287.146 442.956 284.181 442.956H263.52Z" fill="#A6A9B3"/>
    <path d="M318.274 413.426H263.517C259.808 413.426 256.801 416.433 256.801 420.143V434.901C256.801 438.611 259.808 441.618 263.517 441.618H318.274C321.983 441.618 324.991 438.611 324.991 434.901V420.143C324.991 416.433 321.983 413.426 318.274 413.426Z" fill="#0b1b3b" class="tblr-illustrations tblr-illustrations-vocate tblr-illustrations-santa-c"/>
    <path d="M318.276 442.942H263.52C259.072 442.942 255.465 439.335 255.465 434.888V420.129C255.465 415.682 259.072 412.075 263.52 412.075H318.276C322.723 412.075 326.331 415.682 326.331 420.129V434.888C326.331 439.335 322.723 442.942 318.276 442.942ZM263.52 414.764C260.555 414.764 258.141 417.178 258.141 420.143V434.901C258.141 437.866 260.555 440.279 263.52 440.279H318.276C321.241 440.279 323.655 437.866 323.655 434.901V420.143C323.655 417.178 321.241 414.764 318.276 414.764H263.52Z" fill="#A6A9B3"/>
    <path d="M386.465 413.426H331.709C327.999 413.426 324.992 416.433 324.992 420.143V434.888C324.992 438.597 327.999 441.604 331.709 441.604H386.465C390.175 441.604 393.182 438.597 393.182 434.888V420.143C393.182 416.433 390.175 413.426 386.465 413.426Z" fill="#DADCE0"/>
    <path d="M386.467 442.956H331.711C327.264 442.956 323.656 439.349 323.656 434.901V420.156C323.656 415.709 327.264 412.102 331.711 412.102H386.467C390.915 412.102 394.522 415.709 394.522 420.156V434.901C394.522 439.349 390.915 442.956 386.467 442.956ZM331.711 414.765C328.746 414.765 326.332 417.178 326.332 420.143V434.888C326.332 437.853 328.746 440.267 331.711 440.267H386.467C389.432 440.267 391.846 437.853 391.846 434.888V420.143C391.846 417.178 389.432 414.765 386.467 414.765H331.711Z" fill="#A6A9B3"/>
    <path d="M454.657 413.426H399.9C396.191 413.426 393.184 416.433 393.184 420.143V434.888C393.184 438.597 396.191 441.604 399.9 441.604H454.657C458.366 441.604 461.373 438.597 461.373 434.888V420.143C461.373 416.433 458.366 413.426 454.657 413.426Z" fill="#DADCE0"/>
    <path d="M454.659 442.956H399.902C395.455 442.956 391.848 439.349 391.848 434.901V420.156C391.848 415.709 395.455 412.102 399.902 412.102H454.659C459.106 412.102 462.714 415.709 462.714 420.156V434.901C462.714 439.349 459.106 442.956 454.659 442.956ZM399.902 414.765C396.938 414.765 394.524 417.178 394.524 420.143V434.888C394.524 437.853 396.938 440.267 399.902 440.267H454.659C457.624 440.267 460.037 437.853 460.037 434.888V420.143C460.037 417.178 457.624 414.765 454.659 414.765H399.902Z" fill="#A6A9B3"/>
    <path d="M352.375 385.248H297.619C293.909 385.248 290.902 388.255 290.902 391.964V406.709C290.902 410.419 293.909 413.426 297.619 413.426H352.375C356.085 413.426 359.092 410.419 359.092 406.709V391.964C359.092 388.255 356.085 385.248 352.375 385.248Z" fill="#DADCE0"/>
    <path d="M352.378 414.764H297.621C293.174 414.764 289.566 411.157 289.566 406.71V391.964C289.566 387.517 293.174 383.91 297.621 383.91H352.378C356.825 383.91 360.432 387.517 360.432 391.964V406.71C360.432 411.157 356.825 414.764 352.378 414.764ZM297.621 386.586C294.656 386.586 292.243 389 292.243 391.964V406.71C292.243 409.674 294.656 412.088 297.621 412.088H352.378C355.342 412.088 357.756 409.674 357.756 406.71V391.964C357.756 389 355.342 386.586 352.378 386.586H297.621Z" fill="#A6A9B3"/>
    <path d="M420.559 385.248H365.803C362.093 385.248 359.086 388.255 359.086 391.964V406.709C359.086 410.419 362.093 413.426 365.803 413.426H420.559C424.269 413.426 427.276 410.419 427.276 406.709V391.964C427.276 388.255 424.269 385.248 420.559 385.248Z" fill="#DADCE0"/>
    <path d="M420.561 414.764H365.805C361.358 414.764 357.75 411.157 357.75 406.71V391.964C357.75 387.517 361.358 383.91 365.805 383.91H420.561C425.008 383.91 428.616 387.517 428.616 391.964V406.71C428.616 411.157 425.008 414.764 420.561 414.764ZM365.805 386.586C362.84 386.586 360.426 389 360.426 391.964V406.71C360.426 409.674 362.84 412.088 365.805 412.088H420.561C423.526 412.088 425.94 409.674 425.94 406.71V391.964C425.94 389 423.526 386.586 420.561 386.586H365.805Z" fill="#A6A9B3"/>
    <path d="M454.675 385.248H434.014C430.304 385.248 427.297 388.255 427.297 391.964V406.709C427.297 410.419 430.304 413.426 434.014 413.426H454.675C458.385 413.426 461.392 410.419 461.392 406.709V391.964C461.392 388.255 458.385 385.248 454.675 385.248Z" fill="#0b1b3b" class="tblr-illustrations tblr-illustrations-vocate tblr-illustrations-santa-c"/>
    <path d="M454.658 414.764H433.996C429.549 414.764 425.941 411.157 425.941 406.71V391.964C425.941 387.517 429.549 383.91 433.996 383.91H454.658C459.105 383.91 462.712 387.517 462.712 391.964V406.71C462.712 411.157 459.105 414.764 454.658 414.764ZM434.009 386.573C431.044 386.573 428.631 388.987 428.631 391.951V406.696C428.631 409.661 431.044 412.075 434.009 412.075H454.671C457.636 412.075 460.049 409.661 460.049 406.696V391.951C460.049 388.987 457.636 386.573 454.671 386.573H434.009Z" fill="#A6A9B3"/>
    <path d="M290.896 391.952V406.697C290.896 410.409 287.878 413.413 284.179 413.413H263.517C259.805 413.413 256.801 410.409 256.801 406.697V391.952C256.801 388.292 259.739 385.301 263.399 385.248C263.439 385.248 263.478 385.248 263.517 385.248H284.179C284.258 385.248 284.336 385.248 284.415 385.248C288.01 385.366 290.896 388.331 290.896 391.952Z" fill="#DADCE0"/>
    <path d="M284.181 414.764H263.52C259.072 414.764 255.465 411.157 255.465 406.709V391.951C255.465 387.635 258.928 384.067 263.218 383.91H263.52L284.181 383.896C284.286 383.896 284.404 383.896 284.509 383.91C288.838 384.08 292.236 387.596 292.236 391.951V406.709C292.236 411.157 288.628 414.764 284.181 414.764ZM263.611 386.573H263.415C260.502 386.625 258.128 389.039 258.128 391.951V406.709C258.128 409.674 260.542 412.088 263.506 412.088H284.168C287.133 412.088 289.547 409.674 289.547 406.709V391.951C289.547 389.039 287.264 386.678 284.352 386.586H284.194H263.585L263.611 386.573Z" fill="#A6A9B3"/>
    <path d="M324.991 363.786V378.544C324.991 382.244 321.986 385.261 318.274 385.261H263.399C259.752 385.195 256.801 382.204 256.801 378.544V363.786C256.801 360.073 259.818 357.069 263.517 357.069H318.274C321.986 357.069 324.991 360.073 324.991 363.786Z" fill="#DADCE0"/>
    <path d="M318.276 386.585H263.401C259.02 386.507 255.465 382.899 255.465 378.531V363.772C255.465 359.325 259.072 355.718 263.52 355.718H318.276C322.723 355.718 326.331 359.325 326.331 363.772V378.531C326.331 382.978 322.723 386.585 318.276 386.585ZM263.52 358.394C260.555 358.394 258.141 360.808 258.141 363.772V378.531C258.141 381.443 260.515 383.857 263.428 383.909H318.276C321.241 383.909 323.655 381.496 323.655 378.531V363.772C323.655 360.808 321.241 358.394 318.276 358.394H263.52Z" fill="#A6A9B3"/>
    <path d="M386.465 357.069H331.709C327.999 357.069 324.992 360.076 324.992 363.786V378.544C324.992 382.254 327.999 385.261 331.709 385.261H386.465C390.175 385.261 393.182 382.254 393.182 378.544V363.786C393.182 360.076 390.175 357.069 386.465 357.069Z" fill="#DADCE0"/>
    <path d="M386.467 386.585H331.711C327.264 386.585 323.656 382.978 323.656 378.531V363.772C323.656 359.325 327.264 355.718 331.711 355.718H386.467C390.915 355.718 394.522 359.325 394.522 363.772V378.531C394.522 382.978 390.915 386.585 386.467 386.585ZM331.711 358.394C328.746 358.394 326.332 360.808 326.332 363.772V378.531C326.332 381.496 328.746 383.909 331.711 383.909H386.467C389.432 383.909 391.846 381.496 391.846 378.531V363.772C391.846 360.808 389.432 358.394 386.467 358.394H331.711Z" fill="#A6A9B3"/>
    <path d="M461.389 363.786V378.544C461.389 382.204 458.45 385.195 454.79 385.261H399.916C396.203 385.261 393.199 382.244 393.199 378.544V363.786C393.199 360.073 396.203 357.069 399.916 357.069H454.672C458.385 357.069 461.389 360.073 461.389 363.786Z" fill="#0b1b3b" class="tblr-illustrations tblr-illustrations-vocate tblr-illustrations-santa-c"/>
    <path d="M399.902 386.585C395.455 386.585 391.848 382.978 391.848 378.531V363.772C391.848 359.325 395.455 355.718 399.902 355.718H454.659C459.106 355.718 462.714 359.325 462.714 363.772V378.531C462.714 382.899 459.158 386.507 454.803 386.585H399.902ZM399.902 358.394C396.938 358.394 394.524 360.808 394.524 363.772V378.531C394.524 381.496 396.938 383.909 399.902 383.909H454.777C457.663 383.857 460.037 381.443 460.037 378.531V363.772C460.037 360.808 457.624 358.394 454.659 358.394H399.902Z" fill="#A6A9B3"/>
    <path d="M461.387 363.786V377.154C441.893 378.217 421.284 381.208 400.924 385.248C386.704 388.069 372.628 391.401 359.102 394.943C336.289 400.938 315.103 407.576 297.774 413.414C278.057 420.065 263.325 425.706 256.805 428.277V420.13C256.805 416.431 259.822 413.414 263.521 413.414C259.809 413.414 256.805 410.409 256.805 406.697V391.952C256.805 388.292 259.743 385.301 263.403 385.248C259.756 385.183 256.805 382.192 256.805 378.532V363.773C256.805 360.061 259.822 357.057 263.521 357.057H318.278C321.99 357.057 324.994 360.061 324.994 363.773C324.994 360.061 327.999 357.057 331.711 357.057H386.467C390.18 357.057 393.184 360.061 393.184 363.773C393.184 360.061 396.188 357.057 399.901 357.057H454.657C458.37 357.057 461.374 360.061 461.374 363.773L461.387 363.786Z" fill="black" opacity="0.1"/>
    <path d="M464.956 80.0469C463.657 77.9086 462.49 75.6391 461.611 73.3565C461.178 72.0709 460.876 70.6541 460.575 69.2242C458.187 56.3812 464.379 44.3385 474.362 42.5413C483.348 40.9015 492.269 47.9723 495.771 58.5195C496.204 59.8051 496.65 61.0776 496.808 62.3632C496.965 63.6488 497.109 64.9345 497.267 66.2201C497.792 77.5019 492.006 87.4064 483.02 89.0462C476.317 90.6729 469.429 86.7242 464.943 80.0469H464.956Z" fill="#FFCB9D" style="fill: #FFCB9D; fill: var(--tblr-illustrations-skin, #FFCB9D);"/>
    <path d="M464.955 80.0473C463.656 77.909 462.488 75.6395 461.609 73.3569C473.298 69.264 484.829 64.4626 495.783 58.5068C496.216 59.7924 496.662 61.0649 496.819 62.3505C496.977 63.6361 497.121 64.9218 497.278 66.2074C497.803 77.4892 492.018 87.3937 483.032 89.0335C476.328 90.6602 469.441 86.7115 464.955 80.0342V80.0473Z" fill="black" opacity="0.1"/>
    <path d="M523.52 161.984C520.004 172.873 515.176 184.023 508.591 195.069C508.447 195.318 508.289 195.581 508.119 195.856C505.403 200.395 502.123 205.288 498.424 210.339C482.039 232.745 457.193 257.828 432.346 264.754C424.423 266.971 416.499 267.339 408.851 265.174C398.134 262.17 390.394 254.902 385.094 248.212C396.599 241.036 412.59 229.518 428.516 212.228C440.454 199.254 451.473 187.277 456.799 171.443C469.603 133.53 442.854 94.5556 436.492 85.7137C467.635 82.9458 498.805 80.1253 529.921 77.3311C532.322 94.0177 534.959 126.591 523.52 162.011V161.984Z" fill="#1a3263" style="fill: #1a3263; fill: var(--tblr-illustrations-primary, var(--tblr-primary, #1a3263));"/>
    <path d="M508.116 195.844C505.4 200.383 502.121 205.276 498.421 210.327C482.037 232.733 457.19 257.815 432.344 264.742C430.035 259.534 422.715 235.015 422.715 235.015C425.745 235.37 462.136 233.008 508.116 195.857V195.844Z" fill="black" opacity="0.1"/>
    <path d="M312.832 228.758C312.832 228.758 289.049 229.69 275.602 258.052C262.156 286.414 264.609 316.166 264.609 316.166C264.609 316.166 455.259 315.707 455.259 314.317C453.829 312.336 456.716 307.574 456.716 307.574C460.822 300.792 450.786 281.074 450.786 281.074C434.257 248.58 424.851 230.096 402.34 221.412C396.174 219.037 384.892 215.797 369.202 217.621C350.417 221.333 331.631 225.059 312.832 228.771V228.758Z" fill="#1a3263" style="fill: #1a3263; fill: var(--tblr-illustrations-primary, var(--tblr-primary, #1a3263));"/>
    <path d="M312.379 301.368L320.04 278.306L332.594 303.717L312.379 301.368Z" fill="black" opacity="0.1"/>
    <path d="M388.949 342.587C389.014 331.712 388.332 318.16 385.735 302.799V302.746C384.685 296.594 383.347 290.166 381.629 283.501C380.789 280.222 379.884 277.021 378.926 273.925C373.22 255.231 365.978 240.027 359.629 228.666C366.831 226.817 374.033 224.967 381.222 223.117C388.332 237.311 396.006 255.69 401.765 277.834C402.474 280.537 403.117 283.2 403.72 285.823C404.993 291.359 406.042 296.712 406.908 301.88C409.099 314.959 410.135 326.819 410.542 337.012L388.949 342.561V342.587Z" fill="#DADCE0"/>
    <path d="M406.911 301.906C401.139 302.168 393.045 302.523 385.738 302.811V302.759L378.93 273.938C385.45 278.503 393.963 283.265 403.71 285.836C404.983 291.372 406.032 296.724 406.898 301.893L406.911 301.906Z" fill="black" opacity="0.1"/>
    <path d="M477.291 307.586V361.293C477.291 366.409 473.146 370.555 468.03 370.555H250.355C245.239 370.555 241.094 366.409 241.094 361.293V307.586C241.094 302.47 245.239 298.312 250.355 298.312H468.03C473.146 298.312 477.291 302.47 477.291 307.586Z" fill="#A6A9B3"/>
    <path d="M365.056 209.421C338.308 214.551 306.522 206.89 301.76 199.005L298.756 193.574C298.519 193.141 298.257 192.695 298.021 192.263C292.393 180.22 288.117 167.731 285.532 154.77C285.296 153.944 284.889 151.451 284.47 148.972C282.948 138.661 281.675 130.173 280.888 123.81C280.744 122.709 280.626 121.646 280.508 120.675C280.783 121.331 282.043 123.233 283.564 124.558C284.666 125.529 285.913 126.198 287.067 125.923C289.835 125.253 291.514 119.075 290.32 110.548L341.036 106.389L363.639 122.866C363.639 122.866 364.571 125.647 366.237 130.12C368.847 137.9 372.271 145.18 375.971 152.448C376.102 152.737 376.273 153.038 376.43 153.327C379.067 158.561 382.491 163.1 386.649 167.206C399.23 177.399 391.805 204.305 365.056 209.448V209.421Z" fill="#FFCB9D" style="fill: #FFCB9D; fill: var(--tblr-illustrations-skin, #FFCB9D);"/>
    <path d="M376.436 153.313C356.968 161.604 335.139 163.362 314.53 158.311C314.714 159.23 314.845 160.515 314.543 161.971C313.992 164.687 312.458 165.54 312.221 166.694C311.644 169.554 324.185 177.91 338.708 179.655C358.674 182.069 375.649 171.168 384.163 164.543C383.809 167.56 382.917 171.928 380.346 176.389C373.117 188.943 356.365 195.896 341.712 195.096C325.104 194.19 316.432 183.906 304.783 189.074C301.766 190.412 299.772 192.419 298.762 193.574C298.526 193.141 298.263 192.695 298.027 192.262C292.399 180.219 288.123 167.73 285.538 154.769C285.302 153.943 284.896 151.45 284.476 148.971C282.954 138.66 281.682 130.172 280.895 123.81C281.734 124.426 282.652 124.781 283.571 124.545C284.673 125.515 285.919 126.184 287.073 125.909C289.841 125.24 291.52 119.061 290.327 110.534L341.043 106.375L363.646 122.852C364.459 125.24 365.325 127.654 366.243 130.107C369.405 138.489 372.868 146.229 376.436 153.313Z" fill="black" opacity="0.1"/>
    <path d="M394.435 241.417C389.817 246.009 384.176 248.606 377.997 249.839C357.388 253.893 330.81 242.375 315.763 235.868C310.818 233.717 306.882 231.565 303.288 227.761C293.685 217.568 295.207 204.856 292.478 186.608C292.413 186.202 292.36 185.782 292.281 185.375C290.93 176.743 288.28 164.635 282.469 150.257C283.571 147.725 284.646 145.193 285.748 142.662C285.748 142.662 299.549 148.303 300.94 149.181C302.33 150.06 325.379 184.103 343.063 185.611C360.72 187.146 353.269 175.051 361.337 171.562C369.405 168.072 375.177 174.854 378.483 173.884C381.789 172.939 384.137 164.556 384.137 164.556C388.663 168.479 396.704 176.507 401.269 189.153C406.792 204.515 407.724 228.22 394.408 241.417H394.435Z" fill="#DADCE0"/>
    <path d="M377.997 249.839C357.388 253.893 330.81 242.375 315.763 235.868C310.818 233.717 306.882 231.565 303.288 227.761C293.685 217.568 295.207 204.856 292.478 186.608C292.412 186.202 292.36 185.782 292.281 185.375L292.308 185.349C292.78 188.524 305.531 216.256 323.372 225.938C341.2 235.645 366.61 234.779 375.4 246.402C376.344 247.675 377.223 248.79 377.997 249.839Z" fill="black" opacity="0.1"/>
    <path d="M375.934 122.931C375.934 122.931 310.643 118.917 285.115 120.845C268.546 122.118 250.351 115.572 239.62 110.836C239.594 110.836 239.581 110.823 239.555 110.823C233.782 108.265 230.188 106.244 230.188 106.244L229.598 99.8819C229.598 99.8819 257.12 103.109 273.098 99.9213C289.077 96.7335 303.297 83.6019 336.106 86.1469C368.902 88.6657 375.947 122.944 375.947 122.944L375.934 122.931Z" fill="#1a3263" style="fill: #1a3263; fill: var(--tblr-illustrations-primary, var(--tblr-primary, #1a3263));"/>
    <path d="M293.116 108.764L293.496 112.87L285.1 120.859C268.532 122.131 250.336 115.585 239.605 110.85C253.787 114.313 293.116 108.777 293.116 108.777V108.764Z" fill="black" opacity="0.1"/>
    <path d="M275.858 141.113C275.858 141.113 272.907 116.214 287.652 108.842C302.397 101.469 373.617 122.787 373.617 122.787L275.872 141.113H275.858Z" fill="#1a3263" style="fill: #1a3263; fill: var(--tblr-illustrations-primary, var(--tblr-primary, #1a3263));"/>
    <path d="M228.394 111.06C233.284 111.06 237.249 107.095 237.249 102.205C237.249 97.3141 233.284 93.3496 228.394 93.3496C223.504 93.3496 219.539 97.3141 219.539 102.205C219.539 107.095 223.504 111.06 228.394 111.06Z" fill="#DADCE0"/>
    <path d="M384.162 131.694C383.414 132.678 382.247 133.36 380.882 133.439C366.255 134.318 349.372 136.312 330.914 140.339C311.368 144.603 294.327 150.204 280.093 155.859C277.522 156.869 274.662 155.347 274.059 152.631L272.248 144.459C272.104 143.842 272.104 143.212 272.222 142.622C272.327 142.084 272.524 141.573 272.813 141.1C273.35 140.221 274.19 139.526 275.226 139.185C290.811 134.082 308.141 129.189 327.084 125.017C345.318 120.99 362.477 118.195 378.259 116.267C380.554 115.992 382.68 117.513 383.178 119.77L385.002 127.942C385.316 129.307 384.962 130.645 384.188 131.668L384.162 131.694Z" fill="#DADCE0"/>
    <path d="M541.659 90.9747C541.79 93.9263 539.193 96.2483 536.28 95.776C521.247 93.3622 502.382 91.7487 480.789 93.1917C463.486 94.3461 448.308 97.206 435.727 100.446C435.347 100.551 434.967 100.591 434.599 100.591C432.159 100.617 430.047 98.7014 429.929 96.1565L429.326 83.3397C429.221 81.149 430.664 79.1681 432.815 78.6171C445.356 75.3768 460.311 72.5433 477.3 71.2576C500.677 69.4867 521.063 71.1789 537.159 73.7633C539.337 74.1175 540.951 75.9409 541.056 78.1448L541.187 80.9915L541.659 90.9616V90.9747Z" fill="#DADCE0"/>
    <path d="M477.286 307.587V317.885C350.182 309.174 241.102 344.358 241.102 344.358V307.574C241.102 302.457 245.247 298.299 250.363 298.299H468.038C473.154 298.299 477.299 302.457 477.299 307.574L477.286 307.587Z" fill="black" opacity="0.1"/>
    <path d="M332.855 294.783C332.855 294.783 325.942 321.282 337.171 321.859C348.401 322.436 373.759 303.716 375.766 323.879C377.786 344.043 398.238 346.692 403.419 329.953C408.601 313.214 419.267 278.07 428.476 320.128C437.698 362.185 454.109 351.231 457.284 328.773C460.458 306.301 461.311 324.457 470.533 318.685C479.756 312.926 481.186 295.058 477.735 293.34C474.285 291.621 334.128 288.46 332.842 294.783H332.855Z" fill="white"/>
    <path d="M292.105 291.556C293.391 293.707 294.519 295.99 295.372 298.285C295.792 299.571 296.08 301.001 296.356 302.431C298.599 315.3 292.276 327.277 282.266 328.956C273.267 330.504 264.425 323.328 261.028 312.742C260.608 311.456 260.175 310.171 260.044 308.885C259.9 307.599 259.768 306.314 259.624 305.028C259.231 293.746 265.121 283.908 274.12 282.36C280.837 280.812 287.684 284.826 292.092 291.556H292.105Z" fill="#FFCB9D" style="fill: #FFCB9D; fill: var(--tblr-illustrations-skin, #FFCB9D);"/>
    <path d="M292.108 291.556C293.393 293.708 294.522 295.99 295.374 298.286C283.646 302.248 272.063 306.931 261.043 312.756C260.624 311.47 260.191 310.184 260.059 308.899C259.915 307.613 259.784 306.327 259.64 305.042C259.246 293.76 265.136 283.921 274.136 282.373C280.852 280.825 287.7 284.839 292.108 291.569V291.556Z" fill="black" opacity="0.1"/>
    <path d="M579.676 531.151H427.817C423.606 528.947 405.987 519.135 401.16 499.641C394.902 474.453 414.895 452.755 417.387 450.131C423.435 443.769 429.758 439.82 435.622 436.882C447.258 431.044 457.11 429.129 459.471 420.143C461.203 413.557 458.632 404.086 444.346 390.167C472.131 386.861 499.916 383.555 527.7 380.25C526.494 381.522 524.867 383.45 523.293 386.035C516.353 398.72 516.891 407.247 518.347 412.442C523.686 431.503 548.742 431.779 576.934 461.4C589.475 474.584 591.705 482.075 592.309 484.318C597.792 504.783 584.805 524.225 579.689 531.138L579.676 531.151Z" fill="#DADCE0"/>
    <path d="M519.71 406.465L454.188 416.245C451.465 416.652 449.587 419.189 449.994 421.912L450.143 422.911C450.549 425.634 453.086 427.512 455.809 427.105L521.331 417.324C524.054 416.918 525.932 414.381 525.526 411.658L525.377 410.659C524.97 407.936 522.433 406.058 519.71 406.465Z" fill="#1a3263" style="fill: #1a3263; fill: var(--tblr-illustrations-primary, var(--tblr-primary, #1a3263));"/>
    <path d="M504.207 388.121C504.207 388.121 515.344 397.763 514.623 408.127C513.901 418.49 509.428 411.236 509.428 411.236C509.428 411.236 500.415 400.872 500.52 400.242C500.625 399.613 504.207 388.108 504.207 388.108V388.121Z" fill="#0b1b3b" class="tblr-illustrations tblr-illustrations-vocate tblr-illustrations-santa-c"/>
    <path d="M511.828 410.829C511.356 410.829 503.59 395.585 504.206 388.121C504.206 388.121 488.346 391.846 486.641 400.557C484.935 409.268 513.232 416.732 513.232 416.732L511.828 410.829Z" fill="#1a3263" style="fill: #1a3263; fill: var(--tblr-illustrations-primary, var(--tblr-primary, #1a3263));"/>
    <path d="M528.086 391.033C528.086 391.033 513.367 397.632 510.848 408.73C508.343 419.828 515.309 413.623 515.309 413.623C515.309 413.623 528.021 405.595 528.112 404.913C528.204 404.23 528.073 391.033 528.073 391.033H528.086Z" fill="#0b1b3b" class="tblr-illustrations tblr-illustrations-vocate tblr-illustrations-santa-c"/>
    <path d="M512.928 412.442C513.414 412.587 526.375 399.062 528.08 391.033C528.08 391.033 543.534 399.941 542.589 409.622C541.645 419.29 509.609 418.202 509.609 418.202L512.941 412.442H512.928Z" fill="#1a3263" style="fill: #1a3263; fill: var(--tblr-illustrations-primary, var(--tblr-primary, #1a3263));"/>
    <path d="M530.562 443.363C529.132 439.624 525.564 437.21 522.809 435.006C521.025 433.629 519.346 432.264 518.178 430.874C516.906 429.391 516.801 428.539 516.46 426.466C516.014 422.688 516.538 418.293 517.47 414.581C518.913 408.389 510.399 406.316 508.444 411.59C507.998 411.865 507.552 412.206 507.145 412.679C503.564 417.349 500.639 422.281 499.34 428.119C498.133 432.763 500.586 437.853 502.685 441.605C504.128 444.425 505.82 446.918 505.86 449.856C504.863 454.789 499.747 458.357 495.706 461.086C494.814 461.597 495.509 462.962 496.441 462.568C500.835 460.548 504.915 458.213 508.051 454.303C513.232 447.993 506.949 439.807 506.03 433.379C505.742 431.451 506.096 430.677 506.909 428.735C507.382 427.738 507.959 426.755 508.588 425.771C508.733 426.532 508.903 427.292 509.1 428.053C510.989 436.62 519.214 438.561 525.091 443.048C528.502 445.54 527.453 450.014 526.521 453.674C525.918 455.773 525.105 457.898 524.134 459.879C523.95 460.246 524.068 460.692 524.409 460.928C524.79 461.191 525.301 461.086 525.564 460.718C526.902 458.764 528.017 456.756 529.001 454.592C530.457 451.181 531.795 447.298 530.588 443.376L530.562 443.363Z" fill="#1a3263" style="fill: #1a3263; fill: var(--tblr-illustrations-primary, var(--tblr-primary, #1a3263));"/>
    <path d="M579.676 531.151H427.817C423.606 528.947 405.987 519.135 401.16 499.64C394.902 474.453 414.895 452.755 417.387 450.131C423.435 443.769 429.758 439.82 435.622 436.882C435.622 436.882 450.118 508.732 579.689 531.151H579.676Z" fill="black" opacity="0.1"/>
    <path d="M384.162 131.695C383.414 132.679 382.247 133.361 380.882 133.439C366.255 134.318 349.372 136.312 330.914 140.34C311.368 144.603 294.327 150.205 280.093 155.859C277.522 156.869 274.662 155.347 274.059 152.632L272.248 144.459C272.104 143.842 272.104 143.213 272.222 142.622L272.813 141.101C272.813 141.101 366.124 131.065 384.175 131.682L384.162 131.695Z" fill="black" opacity="0.1"/>
    <path d="M600.275 288.578C600.039 287.699 599.134 287.187 598.268 287.41L591.748 289.155L594.687 281.926C595.028 281.087 594.621 280.129 593.782 279.788C592.942 279.447 591.984 279.854 591.643 280.693L587.773 290.217L582.828 291.542L585.766 284.314C586.107 283.474 585.701 282.517 584.861 282.176C584.021 281.835 583.064 282.241 582.723 283.081L578.853 292.618L573.986 293.917L573.094 289.653L568.345 288.092L569.958 283.199L579.692 279.88C580.545 279.591 581.004 278.66 580.716 277.794C580.427 276.941 579.496 276.482 578.63 276.771L571.244 279.29L572.844 274.423L582.578 271.104C583.431 270.815 583.89 269.884 583.602 269.018C583.313 268.165 582.368 267.706 581.516 267.995L574.13 270.513L576.242 264.112C576.531 263.246 576.059 262.328 575.193 262.039C574.327 261.75 573.409 262.223 573.12 263.088L571.008 269.49L566.561 263.075C566.049 262.328 565.026 262.144 564.278 262.655C563.53 263.167 563.347 264.19 563.858 264.938L569.722 273.399L568.122 278.266L563.675 271.852C563.163 271.104 562.14 270.92 561.392 271.432C560.644 271.943 560.461 272.967 560.972 273.714L566.836 282.176L565.223 287.069L560.474 285.508L556.722 288.866L553.272 285.036L555.226 274.934C555.397 274.042 554.82 273.19 553.928 273.006C553.049 272.835 552.183 273.413 551.999 274.305L550.517 281.966L547.093 278.161L549.048 268.06C549.218 267.168 548.641 266.302 547.749 266.132C546.857 265.961 545.991 266.539 545.821 267.431L544.338 275.092L539.825 270.081C539.222 269.411 538.186 269.346 537.503 269.962C536.834 270.566 536.769 271.602 537.385 272.284L541.898 277.296L534.119 277.965C533.214 278.043 532.545 278.844 532.623 279.736C532.702 280.588 533.41 281.231 534.263 281.231C534.316 281.231 534.355 281.231 534.407 281.231L544.653 280.352L548.077 284.157L540.298 284.826C539.392 284.904 538.723 285.705 538.802 286.597C538.881 287.449 539.589 288.092 540.442 288.092C540.494 288.092 540.534 288.092 540.586 288.092L550.832 287.213L554.269 291.044L550.569 294.35L551.527 298.915L546.516 299.807L538.973 292.815C538.304 292.198 537.267 292.238 536.651 292.907C536.034 293.576 536.073 294.612 536.742 295.229L542.462 300.542L537.425 301.434L529.882 294.441C529.213 293.825 528.176 293.864 527.56 294.533C526.943 295.202 526.982 296.239 527.651 296.855L533.371 302.168L526.733 303.349C525.841 303.506 525.251 304.359 525.408 305.251C525.553 306.051 526.248 306.602 527.022 306.602C527.114 306.602 527.219 306.602 527.31 306.576L533.948 305.395L530.406 312.348C530 313.162 530.314 314.145 531.128 314.552C531.364 314.67 531.626 314.736 531.876 314.736C532.479 314.736 533.056 314.408 533.345 313.844L538.015 304.674L543.053 303.782L539.511 310.735C539.104 311.548 539.419 312.532 540.232 312.938C540.468 313.057 540.731 313.122 540.98 313.122C541.583 313.122 542.16 312.794 542.449 312.23L547.119 303.06L552.235 302.155L553.324 307.389L558.073 308.95L556.46 313.844L546.726 317.163C545.873 317.451 545.414 318.383 545.702 319.248C545.939 319.931 546.568 320.364 547.25 320.364C547.421 320.364 547.605 320.337 547.775 320.272L555.161 317.753L553.56 322.62L543.826 325.939C542.974 326.227 542.515 327.159 542.803 328.025C543.039 328.707 543.669 329.14 544.351 329.14C544.522 329.14 544.705 329.114 544.876 329.048L552.262 326.529L550.15 332.931C549.861 333.797 550.333 334.715 551.199 335.004C551.37 335.056 551.54 335.082 551.711 335.082C552.406 335.082 553.049 334.65 553.272 333.954L555.384 327.552L559.831 333.967C560.146 334.427 560.657 334.676 561.182 334.676C561.51 334.676 561.825 334.584 562.114 334.387C562.861 333.876 563.045 332.852 562.533 332.105L556.669 323.643L558.27 318.776L562.717 325.191C563.032 325.65 563.544 325.9 564.068 325.9C564.396 325.9 564.711 325.808 565 325.611C565.747 325.099 565.931 324.076 565.419 323.328L559.556 314.867L561.169 309.974L565.918 311.535L569.735 308.124L573.212 311.942L571.323 322.056C571.152 322.948 571.743 323.801 572.635 323.971C572.74 323.984 572.831 323.997 572.936 323.997C573.71 323.997 574.406 323.446 574.55 322.659L575.98 314.985L579.43 318.763L577.541 328.877C577.37 329.769 577.961 330.622 578.853 330.793C578.958 330.806 579.05 330.819 579.154 330.819C579.928 330.819 580.624 330.268 580.768 329.481L582.198 321.807L586.737 326.792C587.065 327.146 587.498 327.329 587.944 327.329C588.337 327.329 588.731 327.185 589.046 326.897C589.715 326.28 589.767 325.244 589.151 324.575L584.612 319.59L592.391 318.868C593.296 318.789 593.952 317.989 593.873 317.084C593.795 316.179 592.994 315.523 592.089 315.602L581.844 316.559L578.394 312.781L586.173 312.06C587.078 311.981 587.734 311.181 587.655 310.275C587.577 309.37 586.776 308.727 585.871 308.793L575.626 309.751L572.162 305.959L575.796 302.706L574.642 297.196L579.692 295.845L587.8 302.181C588.101 302.417 588.455 302.536 588.81 302.536C589.295 302.536 589.78 302.313 590.108 301.906C590.673 301.197 590.541 300.161 589.82 299.597L583.667 294.796L588.613 293.471L596.72 299.807C597.022 300.043 597.376 300.161 597.73 300.161C598.216 300.161 598.701 299.938 599.029 299.531C599.593 298.823 599.462 297.787 598.74 297.223L592.588 292.421L599.108 290.677C599.987 290.44 600.498 289.548 600.275 288.669V288.578ZM568.738 304.556L565.131 307.77L556.118 304.805L555.095 299.938C555.095 299.938 555.095 299.938 555.095 299.925C555.095 299.925 555.095 299.925 555.095 299.912L554.177 295.517L557.693 292.369L561.248 289.194L570.26 292.159L571.126 296.278C571.126 296.278 571.126 296.331 571.126 296.357C571.126 296.37 571.139 296.383 571.152 296.409L572.202 301.447L568.725 304.556H568.738Z" fill="#1a3263" style="fill: #1a3263; fill: var(--tblr-illustrations-primary, var(--tblr-primary, #1a3263));"/>
    <path d="M527.691 380.263C518.914 378.531 507.751 377.207 494.868 377.823C472.829 378.873 455.395 385.117 444.336 390.168C458.307 389.958 473.774 389 490.46 386.835C503.894 385.104 516.343 382.808 527.691 380.25V380.263Z" fill="#A6A9B3"/>
    <path d="M541.661 90.9743C541.792 93.926 539.195 96.2479 536.283 95.7757C521.249 93.3619 502.385 91.7483 480.792 93.1913C463.488 94.3458 448.31 97.2056 435.73 100.446C435.349 100.551 434.969 100.59 434.602 100.59C434.602 100.59 484.111 78.3806 541.189 80.9912L541.661 90.9612V90.9743Z" fill="black" opacity="0.1"/>
</svg>
