<svg xmlns="http://www.w3.org/2000/svg" width="800" height="600" fill="none" viewBox="0 0 800 600">
    <style>
        :where(.theme-dark, [data-theme="dark"]) .tblr-illustrations-selfie-a { fill: black; opacity: 0.07; } :where(.theme-dark, [data-theme="dark"]) .tblr-illustrations-selfie-b { fill: black; opacity: 0.3; } :where(.theme-dark, [data-theme="dark"]) .tblr-illustrations-selfie-c { fill: #24304d; }
        @media (prefers-color-scheme: dark) { .tblr-illustrations-selfie-a { fill: black; opacity: 0.07; } .tblr-illustrations-selfie-b { fill: black; opacity: 0.3; } .tblr-illustrations-selfie-c { fill: #24304d; } }
    </style>
    <path d="M618.309 86.3643L613.546 88.1072C612.686 88.422 612.244 89.3747 612.558 90.2351L614.301 94.9976C614.616 95.858 615.569 96.3002 616.429 95.9854L621.192 94.2425C622.052 93.9277 622.494 92.975 622.179 92.1146L620.437 87.3521C620.122 86.4917 619.169 86.0495 618.309 86.3643Z" fill="#1a3263" style="fill: #1a3263; fill: var(--tblr-illustrations-primary, var(--tblr-primary, #1a3263));"/>
    <path d="M176.891 303.352C176.891 342.893 218.795 371.679 237.359 403.66C256.444 436.682 261.115 486.99 294.093 506.146C326.147 524.674 371.774 503.969 411.391 503.969C451.007 503.969 496.646 524.674 528.688 506.146C561.666 487.097 566.337 436.682 585.422 403.66C603.986 371.667 645.891 342.999 645.891 303.352C645.891 263.704 603.891 235.024 585.422 203.043C566.337 170.021 561.666 119.606 528.688 100.558C496.634 82.0292 451.007 102.735 411.391 102.735C371.774 102.735 326.135 82.0292 294.093 100.558C261.008 119.606 256.444 170.021 237.359 203.043C218.795 235.13 176.891 263.81 176.891 303.352Z" fill="#1a3263" style="fill: #1a3263; fill: var(--tblr-illustrations-primary, var(--tblr-primary, #1a3263));" opacity="0.02" class="tblr-illustrations tblr-illustrations-vocate tblr-illustrations-selfie-a"/>
    <path d="M203.891 493.301C203.891 495.777 297.935 497.852 413.891 497.852C529.846 497.852 623.891 495.788 623.891 493.301C623.891 490.814 529.846 488.852 413.891 488.852C297.935 488.852 203.891 490.915 203.891 493.301Z" fill="#d9e2f3" opacity="0.5" class="tblr-illustrations tblr-illustrations-vocate tblr-illustrations-selfie-b"/>
    <path d="M630.606 123.845L605.019 184.199L529.807 361.658C529.033 363.485 526.914 364.339 525.092 363.568C523.259 362.797 522.402 360.686 523.175 358.871L593.661 192.561L623.974 121.046C624.545 119.682 625.891 118.852 627.284 118.852C627.748 118.852 628.236 118.946 628.689 119.136C630.522 119.895 631.38 122.006 630.606 123.833V123.845Z" fill="#A6A9B3"/>
    <path d="M630.619 123.808L605.191 183.583C601.499 186.237 597.713 189.009 593.891 191.852L624.017 121.025C624.585 119.674 625.922 118.852 627.306 118.852C627.768 118.852 628.253 118.946 628.703 119.133C630.525 119.885 631.377 121.976 630.608 123.785L630.619 123.808Z" fill="black" opacity="0.1"/>
    <path d="M616.819 130.107C616.646 130.939 616.081 131.665 615.238 131.986L594.783 139.692C593.709 140.097 592.543 139.704 591.897 138.812C591.747 138.61 591.62 138.384 591.539 138.135L584.047 117.073C583.562 115.729 584.243 114.23 585.559 113.731L606.014 106.013C607.319 105.513 608.773 106.215 609.258 107.571L616.738 128.644C616.912 129.132 616.935 129.643 616.819 130.107Z" fill="#DADCE0"/>
    <path d="M616.891 130.004C616.717 130.846 616.148 131.579 615.3 131.903L594.733 139.691C593.653 140.099 592.481 139.703 591.831 138.801C591.552 132.143 590.891 118.852 590.891 118.852C591.761 119.176 604.204 128.646 616.891 130.004Z" fill="black" opacity="0.1"/>
    <path d="M599.592 142.388L590.595 145.729C589.562 146.111 588.422 145.574 588.035 144.512L582.456 129.014L577.018 113.921C576.63 112.859 577.159 111.702 578.204 111.32L587.189 107.979C588.223 107.586 589.374 108.134 589.75 109.184L600.778 139.775C600.802 139.847 600.814 139.906 600.825 139.978C601.084 140.98 600.555 142.03 599.592 142.388Z" fill="#A6A9B3"/>
    <path d="M621.892 90.6324L602.641 97.6771C600.54 98.4462 599.459 100.774 600.229 102.875L613.32 138.65C614.089 140.752 616.417 141.832 618.518 141.063L637.769 134.018C639.871 133.249 640.951 130.922 640.182 128.82L627.09 93.0453C626.321 90.9436 623.994 89.8633 621.892 90.6324Z" fill="#0b1b3b" class="tblr-illustrations tblr-illustrations-vocate tblr-illustrations-selfie-c"/>
    <path d="M620.391 101.852C622.324 101.852 623.891 100.285 623.891 98.3516C623.891 96.4186 622.324 94.8516 620.391 94.8516C618.458 94.8516 616.891 96.4186 616.891 98.3516C616.891 100.285 618.458 101.852 620.391 101.852Z" fill="white"/>
    <path d="M527.461 343.619C528.289 344.532 529.224 345.389 530.182 346.121C530.738 346.505 531.377 346.854 532.028 347.192C537.872 350.157 544.639 349.041 547.029 344.701C549.194 340.801 547.124 335.66 542.557 332.515C542.001 332.131 541.445 331.737 540.853 331.478C540.25 331.218 539.658 330.959 539.055 330.711C533.672 328.84 528.005 330.068 525.852 333.969C524.042 336.821 524.905 340.564 527.461 343.596V343.619Z" fill="#FFCB9D" style="fill: #FFCB9D; fill: var(--tblr-illustrations-skin, #FFCB9D);"/>
    <path d="M527.364 344.235C528.161 345.19 529.06 346.085 529.982 346.852C533.591 341.842 537.519 337.009 541.891 332.636C541.356 332.235 540.82 331.823 540.251 331.552C539.671 331.281 539.101 331.009 538.521 330.75C533.341 328.793 527.888 330.078 525.816 334.157C524.074 337.139 524.905 341.052 527.364 344.223V344.235Z" fill="black" opacity="0.1"/>
    <path d="M524.755 285.853C523.703 276.158 522.225 267.779 520.7 253.693C519.742 244.887 518.204 238.502 513.096 236.058H513.049C512.28 235.678 511.488 235.429 510.672 235.275L434.452 210.852C430.893 227.596 427.463 244.389 423.904 261.133L419.577 281.711C416.916 293.804 414.421 305.802 411.891 317.931L471.38 336.871C476.145 325.454 480.745 314.121 485.522 302.705C488.88 294.623 492.226 286.541 495.584 278.46C495.584 278.46 495.584 278.46 495.584 278.472C495.726 281.925 495.88 285.2 496.057 288.416C496.388 294.042 496.838 299.56 497.594 305.636C497.594 305.636 497.996 308.816 498.505 312.104C499.806 320.482 504.299 338.52 511.677 361.852C516.703 357.627 522.863 351.646 528.728 343.552C533.943 336.372 537.478 329.525 539.891 323.924C529.178 308.437 525.784 295.264 524.755 285.829V285.853Z" fill="#DADCE0"/>
    <path d="M484.891 302.761C480.165 314.152 475.475 325.413 470.879 336.852L411.891 317.953C412.477 314.969 413.087 311.961 413.72 308.954C414.716 304.158 415.49 300.629 415.654 299.872C416.78 294.732 420.462 277.279 429.314 234.852C430.662 243.117 435.317 264.561 453.514 282.82C465.04 294.389 477.351 300.025 484.891 302.761Z" fill="black" opacity="0.1"/>
    <path d="M447.914 175.098C449.278 178.208 451.412 182.707 454.127 188.341C454.708 189.49 455.278 190.638 455.515 191.009C458.74 196.955 462.7 202.422 467.253 207.447C468.202 208.356 469.138 209.265 470.087 210.175C473.597 213.309 490.173 212.196 502.362 205.593C514.551 198.989 514.065 184.692 506.429 181.618C503.63 180.182 501.176 178.364 499.006 176.031C496.101 173.028 493.327 170.001 490.896 166.592C489.414 164.666 488.525 163.457 488.525 163.457L475.067 158.852L451.116 168.638C452.989 172.621 453.108 175.911 451.863 176.665C450.63 177.419 448.294 175.564 447.891 175.098" fill="#FFCB9D" style="fill: #FFCB9D; fill: var(--tblr-illustrations-skin, #FFCB9D);"/>
    <path d="M446.903 174.852C448.27 177.928 450.411 182.378 453.135 187.952C453.718 189.088 454.288 190.224 454.526 190.591C457.761 196.473 461.734 201.881 466.301 206.852C467.609 205.81 468.811 204.355 469.584 202.875C470.452 201.23 471.118 199.349 471.166 197.337C471.356 195.289 471.106 193.218 470.63 191.337C470.416 189.964 470.107 188.757 469.631 187.455C480.074 186.792 490.053 182.686 497.891 175.846C494.977 172.875 492.194 169.881 489.755 166.508C488.269 164.603 487.377 163.408 487.377 163.408L473.877 158.852L449.852 168.532C451.731 172.473 451.85 175.727 450.601 176.473C449.364 177.218 447.295 175.313 446.891 174.852" fill="black" opacity="0.1"/>
    <path d="M446.394 181.752C448.512 186.699 452.403 190.748 457.4 192.916C458.34 193.252 459.292 193.587 460.268 194.054C462.766 195.432 464.872 197.492 466.336 199.852C466.859 197.983 466.954 196.078 466.336 194.222C465.075 191.515 463.682 188.844 462.052 186.376C462.052 186.376 462.017 186.244 461.814 186.005C461.612 185.765 461.541 185.502 461.231 184.855C460.613 183.573 460.137 182.243 459.696 181.07L459.661 180.938C467.288 182.148 488.324 184.244 496.475 170.589C497.772 168.373 498.64 166.133 499.33 163.785C499.426 163.617 499.497 163.306 499.461 163.174C499.592 162.563 499.723 161.952 499.723 161.377L499.818 161.21C499.973 159.581 499.866 158.023 499.628 156.49L499.485 155.951C498.486 152.597 495.987 150.07 492.81 148.86C488.015 146.919 482.256 146.812 479.258 146.86C467.359 146.896 451.356 152.166 446.299 165.019C445.002 168.385 444.621 171.954 445.073 175.44C445.049 177.608 445.597 179.776 446.382 181.74" fill="#0b1b3b" class="tblr-illustrations tblr-illustrations-vocate tblr-illustrations-selfie-c"/>
    <path d="M460.053 180.974C467.606 182.168 488.437 184.236 496.508 170.762C497.792 168.576 498.652 166.366 499.336 164.049C499.43 163.884 499.501 163.577 499.465 163.447C499.595 162.844 499.725 162.241 499.725 161.674L499.819 161.508C499.972 159.901 499.866 158.364 499.63 156.852C498.016 160.539 495.801 164.097 493.009 167.099C479.306 181.872 457.602 179.178 454.197 178.622L453.891 178.551C455.835 179.473 457.908 180.371 460.041 180.962" fill="black" opacity="0.5"/>
    <path d="M473.891 471.852C470.127 471.65 466.362 471.46 462.61 471.271C453.847 436.581 445.084 401.88 436.321 367.19C429.505 381.684 422.677 396.191 415.85 410.697C383.018 412.629 350.186 414.573 317.354 416.504C317.211 413.162 317.045 409.808 316.891 406.454C341.363 398.68 365.836 390.893 390.308 383.118C397.421 361.359 404.534 339.599 411.658 317.852L452.909 330.912L471.397 336.767C472.228 381.791 473.059 426.815 473.891 471.84V471.852Z" fill="#1a3263" style="fill: #1a3263; fill: var(--tblr-illustrations-primary, var(--tblr-primary, #1a3263));"/>
    <path d="M294.891 427.852L302.24 405.852C302.24 405.852 308.349 406.266 309.755 410.252C311.161 414.248 301.342 425.306 294.891 427.852Z" fill="#0b1b3b" class="tblr-illustrations tblr-illustrations-vocate tblr-illustrations-selfie-c"/>
    <path d="M483.891 491.852L460.078 490.625C460.078 490.625 458.89 484.732 462.499 482.359C466.108 479.986 479.819 486.399 483.891 491.852Z" fill="#0b1b3b" class="tblr-illustrations tblr-illustrations-vocate tblr-illustrations-selfie-c"/>
    <path d="M465.891 219.852C468.492 225.102 472.776 229.613 478.167 232.522L478.779 232.852L489.891 228.874L465.891 219.852Z" fill="#FFCB9D" style="fill: #FFCB9D; fill: var(--tblr-illustrations-skin, #FFCB9D);"/>
    <path d="M476.891 230.582L494.72 224.852L496.891 229.391L482.3 240.852L476.891 230.582Z" fill="#1a3263" style="fill: #1a3263; fill: var(--tblr-illustrations-primary, var(--tblr-primary, #1a3263));"/>
    <path d="M475.891 230.318L458.32 209.852L451.891 212.849L460.676 236.852L475.891 230.318Z" fill="#1a3263" style="fill: #1a3263; fill: var(--tblr-illustrations-primary, var(--tblr-primary, #1a3263));"/>
    <path d="M476.891 230.582L494.72 224.852L496.891 229.391L482.3 240.852L476.891 230.582Z" fill="black" opacity="0.1"/>
    <path d="M445.866 130.074C447.032 129.127 448.161 128.072 449.118 126.955C449.621 126.312 450.075 125.572 450.542 124.82C454.481 118.036 453.352 110.003 448.001 107.006C443.19 104.3 436.685 106.533 432.562 111.799C432.058 112.442 431.543 113.073 431.199 113.765C430.856 114.457 430.512 115.161 430.168 115.852C427.616 122.126 428.929 128.872 433.74 131.578C437.25 133.823 441.975 132.962 445.878 130.074H445.866Z" fill="#FFCB9D" style="fill: #FFCB9D; fill: var(--tblr-illustrations-skin, #FFCB9D);"/>
    <path d="M445.675 130.081C446.828 129.136 447.944 128.083 448.891 126.97C443.102 122.358 437.532 117.371 432.52 111.852C432.023 112.493 431.513 113.123 431.173 113.812C430.834 114.502 430.494 115.204 430.154 115.894C427.63 122.152 428.928 128.882 433.685 131.582C437.156 133.821 441.828 132.961 445.687 130.081H445.675Z" fill="black" opacity="0.1"/>
    <path d="M453.891 131.522C437.183 123.981 420.486 116.405 403.79 108.852C399.227 117.588 391.455 135.039 390.921 156.774C390.754 163.451 391.265 170.543 392.775 177.894C393.416 181.067 394.307 184.571 395.436 188.277C401.675 208.734 415.151 234.625 434.39 235.809C440.902 236.211 446.606 233.713 450.837 231.038C445.857 224.858 439.238 215.411 433.772 202.815C429.684 193.355 425.905 184.619 426.024 174.864C426.286 151.482 448.65 135.157 453.891 131.511V131.522Z" fill="#DADCE0"/>
    <path d="M391.039 156.852C390.718 162.28 390.825 169.235 392.301 177.076C393.06 181.118 394.055 184.718 395.103 187.852C396.119 186.244 399.434 180.594 398.814 172.765C398.065 163.329 392.162 157.842 391.039 156.852Z" fill="#0b1b3b" class="tblr-illustrations tblr-illustrations-vocate tblr-illustrations-selfie-c"/>
    <path d="M498.26 311.852C497.768 309.594 497.323 307.21 496.958 304.688C496.124 298.918 495.85 293.597 495.895 288.852C497.117 290.234 499.79 293.631 500.635 298.791C501.709 305.344 499.105 310.366 498.26 311.852Z" fill="#0b1b3b" class="tblr-illustrations tblr-illustrations-vocate tblr-illustrations-selfie-c"/>
    <path d="M473.891 471.852C470.083 471.65 466.276 471.46 462.481 471.271C453.618 436.566 444.754 401.85 435.891 367.145L452.669 330.852L471.368 336.709C472.209 381.752 473.05 426.796 473.891 471.84V471.852Z" fill="black" opacity="0.1"/>
    <path d="M165.889 209.09C165.878 207.752 165.666 206.426 165.279 205.148C163.953 200.566 160.584 197.535 156.652 197.878C151.663 198.363 147.742 204.094 147.895 210.701C147.895 211.411 147.954 212.11 148.048 212.82C148.928 218.325 152.684 222.256 157.086 221.818C162.063 221.439 165.972 215.721 165.889 209.09Z" fill="#FFCB9D" style="fill: #FFCB9D; fill: var(--tblr-illustrations-skin, #FFCB9D);"/>
    <path d="M165.889 208.844C165.877 207.489 165.664 206.147 165.273 204.852C164.751 204.947 164.289 205.043 163.803 205.163C157.435 206.698 155.349 209.744 148.768 212.405C148.483 212.525 148.187 212.621 147.891 212.705C148.78 218.281 152.574 222.261 157.02 221.818C162.036 221.362 165.972 215.571 165.889 208.844Z" fill="black" opacity="0.1"/>
    <path d="M266.866 311.543C266.322 316.979 248.145 319.112 246.135 319.351C235.751 320.566 225.616 319.482 216.108 317.038C205.465 314.297 195.59 309.839 187.028 304.976C170.175 295.416 158.349 284.295 155.558 281.59C145.979 272.364 130.972 255.438 119.891 228.762C138.304 220.8 156.717 212.826 175.131 204.852C175.131 204.852 173.262 244.52 185.798 266.714C187.808 270.278 190.481 273.913 194.112 277.442C201.467 284.605 212.714 291.28 230.122 295.917C235.231 297.276 240.884 298.468 247.128 299.433C249.6 300.22 267.434 306.06 266.878 311.567L266.866 311.543Z" fill="#DADCE0"/>
    <path d="M229.891 296.043C226.812 301.195 221.361 309.974 220.418 310.033C219.851 310.068 217.917 313.26 215.899 316.852C205.282 314.152 195.432 309.763 186.891 304.974C199.785 298.578 196.706 284.964 193.957 277.852C201.295 284.905 212.514 291.477 229.879 296.043H229.891Z" fill="black" opacity="0.1"/>
    <path d="M245.891 306.852C247.621 307.763 249.284 308.766 250.891 309.852C250.014 309.739 249.172 309.442 248.452 308.971C247.531 308.305 246.733 307.609 245.891 306.852Z" fill="black" opacity="0.1"/>
    <path d="M280.34 182.409C279.582 181.29 278.992 180.076 278.571 178.802C277.031 174.253 278.126 169.801 281.64 167.812C286.128 165.336 292.746 167.812 296.44 173.349C296.849 173.932 297.21 174.551 297.535 175.182C299.977 180.242 299.087 185.66 295.128 187.838C290.712 190.398 284.118 187.934 280.34 182.397V182.409Z" fill="#FFCB9D" style="fill: #FFCB9D; fill: var(--tblr-illustrations-skin, #FFCB9D);"/>
    <path d="M280.631 182.668C279.885 181.6 279.305 180.441 278.891 179.226C279.376 179.01 279.802 178.839 280.264 178.669C286.348 176.386 289.768 177.624 296.669 176.102C296.965 176.033 297.273 175.954 297.557 175.852C299.96 180.68 299.084 185.849 295.19 187.928C290.822 190.303 284.324 187.939 280.619 182.657L280.631 182.668Z" fill="black" opacity="0.1"/>
    <path d="M296.243 290.93C304.569 287.53 319.377 279.854 328.93 263.981C337.715 249.351 339.971 231.215 336.003 212.961C333.004 199.185 326.45 185.313 316.495 172.852C309.611 177.199 303.647 179.011 299.491 179.864C293.091 181.179 289.902 180.433 283.372 181.76C276.133 183.228 270.595 186.071 267.111 188.18C283.077 205.214 291.874 221.289 296.763 232.234C304.108 248.652 304.285 257.039 301.286 262.772C298.145 268.778 290.729 273.398 289.17 273.28C289.123 273.28 288.851 273.256 288.462 273.244C287.8 273.208 286.749 273.197 285.474 273.351C284.884 273.41 284.21 273.445 283.443 273.528C281.719 273.694 279.924 273.955 278.223 274.239C271.528 275.447 264.962 277.212 258.574 279.522C251.937 281.974 245.49 284.9 239.255 288.276C236.763 289.591 234.154 291.178 231.591 292.754C231.461 292.813 231.378 292.86 231.237 292.908C230.812 293.086 230.351 293.275 229.891 293.5C230.446 295.052 230.965 296.616 231.402 298.215C232.465 302.112 233.953 305.855 235.523 309.575L236.291 308.757C237.177 310.83 238.074 312.927 238.853 315.059L238.983 315.379C249.552 340.859 253.295 350.999 261.113 369.881C262.152 372.31 263.038 374.347 263.675 375.852C275.259 370.379 286.82 364.835 298.404 359.315L331.055 343.702C326.674 337.069 322.187 330.305 317.806 323.6C310.603 312.726 303.423 301.804 296.255 290.941L296.243 290.93Z" fill="#DADCE0"/>
    <path d="M238.696 292.596C241.847 299.88 252.98 302.028 263.576 297.441C274.183 292.853 280.205 283.268 277.054 275.984C276.879 275.587 276.669 275.202 276.412 274.852C269.796 276.031 263.296 277.782 256.982 280.093C250.412 282.486 244.029 285.37 237.891 288.72C237.879 290.051 238.148 291.37 238.685 292.596H238.696Z" fill="#FFCB9D" style="fill: #FFCB9D; fill: var(--tblr-illustrations-skin, #FFCB9D);"/>
    <path d="M238.696 292.596C241.847 299.88 252.98 302.028 263.576 297.441C274.183 292.853 280.205 283.268 277.054 275.984C276.879 275.587 276.669 275.202 276.412 274.852C269.796 276.031 263.296 277.782 256.982 280.093C250.412 282.486 244.029 285.37 237.891 288.72C237.879 290.051 238.148 291.37 238.685 292.596H238.696Z" fill="black" opacity="0.1"/>
    <path d="M295.939 480.852C298.368 480.519 300.797 480.186 303.226 479.854C305.654 448.155 308.083 416.456 310.512 384.746C311.503 388.417 312.505 392.088 313.495 395.76C293.298 408.995 273.1 422.231 252.891 435.466C253.999 438.353 255.096 441.252 256.204 444.139C288.77 431.676 321.336 419.225 353.891 406.762C346.097 385.792 338.291 364.822 330.498 343.852L315.936 350.861L263.29 376.168C274.173 411.062 285.056 445.957 295.939 480.852Z" fill="#1a3263" style="fill: #1a3263; fill: var(--tblr-illustrations-primary, var(--tblr-primary, #1a3263));"/>
    <path d="M263.399 375.84L297.228 359.799L330.891 343.852C326.513 337.264 322.04 330.522 317.627 323.852C317.993 324.441 305.073 353.694 260.891 369.876C261.234 370.678 261.589 371.479 261.944 372.304C262.405 373.506 262.89 374.697 263.399 375.852V375.84Z" fill="black" opacity="0.1"/>
    <path d="M298.376 496.852L297.426 491.416C297.426 491.416 295.719 486.369 298.4 484.314C301.093 482.259 312.875 487.452 316.891 491.987L304.892 491.635L304.664 496.231L298.388 496.852H298.376Z" fill="#0b1b3b" class="tblr-illustrations tblr-illustrations-vocate tblr-illustrations-selfie-c"/>
    <path d="M232.891 440.95L238.88 439.038C238.88 439.038 244.314 436.305 247.031 439.135C249.736 441.978 245.59 456.493 241.065 461.852L239.719 447.784L234.509 448.183L232.902 440.937L232.891 440.95Z" fill="#0b1b3b" class="tblr-illustrations tblr-illustrations-vocate tblr-illustrations-selfie-c"/>
    <path d="M259.327 266.878C251.53 274.052 240.269 278.585 234.436 278.823C233.472 278.918 232.496 278.775 231.603 278.406C230.555 277.883 229.496 277.229 228.472 276.634C227.032 275.753 225.603 274.754 224.246 273.731C220.663 271.078 217.318 268.091 214.271 264.843C214.045 264.582 213.307 263.761 212.45 262.833C208.747 258.597 205.867 255.087 203.891 252.613C204.367 252.839 206.629 253.814 207.533 252.91C208.426 252.006 207.605 249.079 204.962 246.021L224.151 231.852L237.269 232.851C237.269 232.851 238.341 233.779 240.09 235.1C243.078 237.443 246.245 239.585 249.53 241.489C251.947 243.035 254.625 244.106 257.434 244.677C265.005 245.7 268.672 258.335 259.327 266.902V266.878Z" fill="#FFCB9D" style="fill: #FFCB9D; fill: var(--tblr-illustrations-skin, #FFCB9D);"/>
    <path d="M249.891 241.624C244.466 249.618 236.521 255.596 227.305 258.603C225.613 260.249 224.4 262.337 223.8 264.616C222.984 268.053 224.304 269.711 224.388 273.494L224.412 273.852C220.8 271.191 217.428 268.196 214.356 264.938C214.127 264.676 213.383 263.853 212.519 262.922C208.787 258.674 205.883 255.154 203.891 252.673C204.371 252.899 206.651 253.878 207.563 252.971C208.463 252.064 207.635 249.129 204.971 246.062L224.316 231.852L237.542 232.854C237.542 232.854 238.622 233.785 240.386 235.109C243.398 237.507 246.578 239.679 249.891 241.636V241.624Z" fill="black" opacity="0.1"/>
    <path d="M171.566 385.852C178.323 385.45 185.009 384.269 191.479 382.344C201.812 379.309 211.463 374.325 219.871 367.652C219.871 367.652 245.512 350.564 252.413 323.672C253.25 320.637 253.74 317.508 253.86 314.366C254.362 301.493 248.67 283.909 236.865 277.271C231.938 274.508 227.262 271.319 222.897 267.764C221.031 266.17 219.452 264.269 218.232 262.143C218.005 261.67 217.754 261.163 217.515 260.643C216.666 258.883 217.658 255.399 216.773 252.364C221.976 251.738 240.657 248.668 245.153 236.055C246.194 233.209 246.493 230.138 246.027 227.15C245.787 225.721 245.142 224.387 244.173 223.288C239.999 218.919 231.185 221.54 227.501 222.639C213.233 226.902 206.213 240.176 204.395 243.66C203.594 245.137 191.682 268.567 202.422 284.357C208.15 292.778 216.235 292.294 216.965 296.852C217.754 302.049 208.796 310.965 161.891 327.298C170.095 338.553 171.482 347.269 171.159 353.433C170.884 358.134 169.497 362.515 169.485 369.318C169.461 370.711 169.485 372.188 169.605 373.746C169.844 377.833 170.502 381.895 171.578 385.852H171.566Z" fill="#0b1b3b" class="tblr-illustrations tblr-illustrations-vocate tblr-illustrations-selfie-c"/>
    <path d="M172.12 385.852C178.796 385.155 185.401 383.987 191.899 382.347C202.163 379.314 211.749 374.334 220.1 367.666C220.1 367.666 245.569 350.59 252.423 323.718C253.254 320.685 253.741 317.558 253.86 314.419C254.359 301.556 248.705 283.984 236.98 277.351C232.086 274.59 227.441 271.404 223.105 267.852C233.238 281.258 237.847 297.98 235.994 314.643C232.929 332.18 223.485 347.97 209.456 359.039C203.184 364.208 195.736 367.76 187.765 369.401C181.849 370.486 175.791 370.416 169.899 369.2C169.875 370.593 169.899 372.068 170.018 373.626C170.303 377.756 171.004 381.851 172.12 385.852Z" fill="black" opacity="0.5"/>
    <path d="M245.675 226.875C246.145 229.846 245.844 232.876 244.796 235.696C240.269 248.178 221.462 251.232 216.224 251.852C214.069 251.618 211.95 251.161 209.891 250.495C225.11 248.857 238.499 240.001 245.639 226.852L245.675 226.875Z" fill="black" opacity="0.5"/>
    <path d="M252.899 300.838C252.779 295.148 253.981 291.657 256.507 290.451C259.405 289.066 263.085 291.113 265.058 292.486C265.395 289.575 266.609 283.825 270.698 282.216C274.042 280.962 278.456 282.949 283.82 288.12C286.321 290.522 289.544 294.047 288.775 296.769C288.51 297.585 287.873 298.224 287.055 298.52C283.555 300.01 275.786 298.401 270.326 296.958C271.528 298.117 273.032 298.922 274.691 299.253C275.774 299.218 276.808 299.715 277.445 300.59C278.889 302.483 278.648 305.689 278.299 308.245L276.255 307.369C276.724 303.536 276.219 302.365 276.062 302.022C275.834 301.785 275.509 301.679 275.196 301.714C272.623 301.809 269.015 298.733 267.03 296.828C267.03 298.733 267.199 300.637 267.559 302.519C267.812 302.885 268.089 303.24 268.389 303.572C269.508 304.885 271.372 307.062 270.506 309.416C270.037 310.741 270.819 314.409 272.671 319.236L270.783 319.852C268.57 314.031 267.824 310.067 268.546 308.044C268.81 307.358 268.293 306.6 267.066 305.169C266.609 304.672 266.2 304.139 265.864 303.56C265.335 302.045 265.058 300.46 265.058 298.863C262.953 302.672 259.995 307.275 257.433 308.363C256.771 308.718 255.978 308.742 255.292 308.422C253.284 307.251 252.971 303.536 252.911 300.838H252.899ZM286.79 295.55C286.742 295.443 287.055 294.083 282.737 289.918C278.071 285.399 274.343 283.6 271.745 284.582L271.564 284.665C268.377 286.026 267.439 291.255 267.163 293.621C276.303 296.319 286.177 297.762 286.802 295.55H286.79ZM255.845 306.068C257.12 306.719 261.137 301.395 264.529 294.734C262.989 293.645 259.922 291.776 257.722 292.722L257.589 292.781C255.809 293.645 254.907 296.52 254.979 301.3C255.076 305.488 255.845 306.08 255.845 306.08V306.068Z" fill="#1a3263" style="fill: #1a3263; fill: var(--tblr-illustrations-primary, var(--tblr-primary, #1a3263));"/>
    <path d="M295.891 290.852C304.286 287.45 319.22 279.771 328.854 263.892C337.714 249.256 339.989 231.113 335.987 212.852C330.628 232.014 318.493 266.522 295.891 290.852Z" fill="black" opacity="0.1"/>
    <path d="M295.939 480.852C298.368 480.519 300.797 480.186 303.226 479.854C305.654 448.155 308.083 416.456 310.512 384.746C311.503 388.417 312.505 392.088 313.495 395.76C293.298 408.995 273.1 422.231 252.891 435.466C253.999 438.353 255.096 441.252 256.204 444.139C288.77 431.676 321.336 419.225 353.891 406.762C346.097 385.792 338.291 364.822 330.498 343.852L315.936 350.861L263.29 376.168C274.173 411.062 285.056 445.957 295.939 480.852Z" fill="black" opacity="0.1"/>
    <path d="M277.225 419.852L281.891 434.34L256.252 443.852L252.891 435.322L277.225 419.852Z" fill="black" opacity="0.1"/>
    <path d="M379.043 138.128C379.285 136.747 379.623 135.437 380.215 134.173C380.541 133.418 380.952 132.733 381.362 132.048C385.24 125.863 392.513 123.1 397.49 126.016C402.02 128.59 403.107 134.834 400.498 140.548C400.172 141.304 399.833 141.894 399.423 142.59C399.012 143.287 398.577 143.806 398.07 144.42C394.035 149.355 387.741 151.279 383.211 148.717C379.901 146.64 378.403 142.52 379.031 138.14L379.043 138.128Z" fill="#FFCB9D" style="fill: #FFCB9D; fill: var(--tblr-illustrations-skin, #FFCB9D);"/>
    <path d="M379.039 137.887C379.273 136.478 379.602 135.141 380.178 133.852C386.588 136.478 393.187 138.671 399.891 140.357C399.574 141.128 399.245 141.731 398.846 142.441C398.446 143.14 398.024 143.682 397.531 144.309C393.609 149.345 387.492 151.308 383.089 148.694C379.872 146.574 378.416 142.369 379.027 137.9L379.039 137.887Z" fill="black" opacity="0.1"/>
    <path d="M401.879 476.852C398.638 476.769 395.384 476.674 392.131 476.591C387.181 458.688 382.218 440.786 377.267 422.872C365.573 412.907 353.89 402.919 342.196 392.943C342.101 393.263 337.233 411.094 337.138 411.414C337.055 411.722 332.175 429.566 332.092 429.874C314.865 442.99 297.626 456.105 280.399 469.21C278.571 467.195 276.731 465.169 274.891 463.155C285.932 447.468 296.962 431.781 308.003 416.083C306.994 394.009 305.985 371.925 304.999 349.852L343.751 355.396L346.826 355.811C347.728 355.953 348.642 356.084 349.545 356.226C356.039 357.197 362.533 358.181 369.028 359.164C378.727 373.489 388.427 387.813 398.139 402.125C399.386 427.042 400.632 451.947 401.891 476.852H401.879Z" fill="#DADCE0"/>
    <path d="M268.852 488.852L265.891 467.754C265.891 467.754 270.494 465.439 272.978 468.225C275.463 471.01 272.468 484.172 268.852 488.852Z" fill="#0b1b3b" class="tblr-illustrations tblr-illustrations-vocate tblr-illustrations-selfie-c"/>
    <path d="M407.879 494.852L387.912 491.124C387.912 491.124 387.452 485.717 390.831 484.086C394.21 482.454 404.959 489.695 407.891 494.852" fill="#0b1b3b" class="tblr-illustrations tblr-illustrations-vocate tblr-illustrations-selfie-c"/>
    <path d="M369.891 251.102V251.232L369.819 259.297L369.748 267.02L369.629 278.934L369.497 293.215L369.402 303.529C369.354 309.875 369.283 316.22 369.223 322.566L369.164 329.548L369.092 335.599C369.08 336.553 369.08 337.495 369.057 338.448L368.973 346.808C368.937 350.704 368.902 354.578 368.866 358.463C368.866 358.593 368.866 358.71 368.854 358.852C358.143 358.439 347.444 358.004 336.745 357.568C326.022 357.133 315.324 356.709 304.613 356.273C302.528 334.646 300.466 313.006 298.381 291.367C297.202 279.252 296.046 267.149 294.891 255.047L299.168 254.552L314.323 252.81C315.038 252.727 317.397 252.398 319.41 250.467C321.09 248.842 321.614 246.982 321.805 246.228C328.036 246.111 334.267 246.005 340.498 245.887C341.142 245.887 341.797 245.863 342.44 245.852C342.416 246.464 342.393 248.088 343.417 249.69C343.751 250.196 344.12 250.608 344.513 250.949C346.05 252.292 347.885 252.539 348.219 252.586C354.938 252.115 361.682 251.679 368.401 251.208C368.783 251.185 369.176 251.15 369.569 251.138C369.676 251.126 369.771 251.114 369.879 251.114L369.891 251.102Z" fill="#1a3263" style="fill: #1a3263; fill: var(--tblr-illustrations-primary, var(--tblr-primary, #1a3263));"/>
    <path d="M369.891 303.587C369.712 322.004 369.533 340.434 369.355 358.852C347.951 357.993 326.535 357.134 305.12 356.264C303.047 334.659 300.975 313.042 298.891 291.437C301.213 288.909 303.548 286.38 305.87 283.852C309.92 283.91 316.018 284.498 322.462 287.486C330.013 291.002 332.836 295.413 337.541 298.812C342.996 302.763 352.477 306.456 369.879 303.587H369.891Z" fill="black" opacity="0.1"/>
    <path d="M247.564 150.619C247.245 149.4 246.857 148.251 246.253 147.171C245.923 146.521 245.513 145.94 245.114 145.359C241.331 140.146 234.962 138.277 230.985 141.307C227.361 143.989 226.94 149.667 229.618 154.567C229.948 155.218 230.29 155.717 230.689 156.297C231.087 156.878 231.498 157.308 231.976 157.818C235.782 161.894 241.263 163.102 244.886 160.419C247.518 158.283 248.453 154.463 247.564 150.608V150.619Z" fill="#FFCB9D" style="fill: #FFCB9D; fill: var(--tblr-illustrations-skin, #FFCB9D);"/>
    <path d="M247.563 150.375C247.231 149.129 246.828 147.955 246.2 146.852C240.62 149.758 234.826 152.309 228.891 154.409C229.234 155.073 229.59 155.583 230.004 156.177C230.419 156.77 230.846 157.209 231.343 157.731C235.3 161.895 240.999 163.129 244.767 160.388C247.503 158.205 248.475 154.302 247.551 150.363L247.563 150.375Z" fill="black" opacity="0.1"/>
    <path d="M309.23 252.89C292.854 218.214 276.49 183.539 260.113 148.852L222.891 160.426C222.891 160.426 297.324 281.979 298.036 282.782C298.036 282.782 298.06 282.794 298.071 282.794C300.016 283.739 310.819 272.885 310.89 261.027C310.914 257.591 310.025 254.768 309.242 252.878L309.23 252.89Z" fill="#1a3263" style="fill: #1a3263; fill: var(--tblr-illustrations-primary, var(--tblr-primary, #1a3263));"/>
    <path d="M356.141 251.445C360.854 212.918 365.554 174.379 370.267 135.852C385.142 140.853 400.016 145.867 414.891 150.869C399.672 198.149 384.453 245.429 369.235 292.71C366.682 292.957 357.791 293.512 352.081 287.885C344.495 280.418 344.709 264.256 356.164 251.445H356.141Z" fill="#1a3263" style="fill: #1a3263; fill: var(--tblr-illustrations-primary, var(--tblr-primary, #1a3263));"/>
    <path d="M296.902 211.351C298.89 213.797 301.811 217.577 305.3 221.878L307.217 223.993C311.475 228.719 316.206 232.783 321.434 236.423C322.451 237.061 323.469 237.71 324.498 238.348C328.294 240.452 343.257 235.808 352.968 227.289C362.679 218.771 359.166 205.916 351.62 204.687C348.804 204.002 346.108 202.868 343.742 201.261C340.383 199.264 337.201 196.913 334.279 194.396C332.517 192.943 331.476 192.057 331.476 192.057L318.264 190.852L298.499 204.829C301.078 208.054 301.764 211.044 300.853 211.835C299.954 212.639 297.245 211.504 296.891 211.339L296.902 211.351Z" fill="#FFCB9D" style="fill: #FFCB9D; fill: var(--tblr-illustrations-skin, #FFCB9D);"/>
    <path d="M342.879 201.761C340.956 204.566 337.809 208.631 332.81 212.319C327.903 215.948 323.136 217.739 319.978 218.67C320.642 219.778 321.248 220.779 321.668 221.91C322.565 223.619 323.136 225.398 323.533 227.295C323.719 229.063 323.672 230.854 323.195 232.527C322.798 234.153 322.064 235.603 321.062 236.852C315.969 233.317 311.249 229.181 307.053 224.456L305.165 222.346C301.634 218.105 298.755 214.346 296.891 211.848C297.24 212.013 299.699 213.639 300.632 212.696C300.76 212.496 300.981 212.236 300.958 211.989C301.191 210.716 300.375 208.324 298.312 205.697L298.581 205.532L317.834 191.852L330.898 193.136C330.898 193.136 333.462 195.339 333.66 195.469C334.569 196.164 335.945 197.213 338.299 198.65L338.357 198.745L342.891 201.749L342.879 201.761Z" fill="black" opacity="0.1"/>
    <path d="M341.636 175.443C342.267 178.335 341.719 181.18 340.076 183.683C341.278 187.732 341.338 191.982 340.111 195.995C336.789 206.549 324.049 213.939 308.474 213.986L308.438 214.139L308.498 214.234C309.26 215.284 315.571 222.698 317.25 224.823C318.059 226.346 318.488 228.104 318.297 229.852C316.392 227.975 314.13 226.57 311.546 225.862C310.653 225.649 309.724 225.578 308.795 225.507C303.806 224.61 299.341 221.872 296.329 217.775C295.9 217.279 295.507 216.63 295.257 216.028L295.102 215.993C290.458 216.902 286.029 214.021 285.029 209.465C284.398 205.947 285.969 202.488 288.97 200.552C284.695 196.456 284.564 189.609 288.696 185.371C290.184 183.848 292.185 182.774 294.281 182.266C296.293 181.818 298.305 181.995 300.103 182.668C299.579 176.824 304.021 171.63 309.915 171.111C314.023 170.78 318.035 172.775 320.084 176.328C320.679 171.689 324.12 167.994 328.621 167.05C334.67 165.94 340.326 169.588 341.636 175.467V175.443Z" fill="#0b1b3b" class="tblr-illustrations tblr-illustrations-vocate tblr-illustrations-selfie-c"/>
    <path d="M339.973 183.852C341.161 187.828 341.22 192.001 340.008 195.942C336.727 206.305 324.143 213.562 308.759 213.608L308.724 213.759L308.783 213.852C306.795 213.678 304.761 213.411 302.891 213.04L303.043 213.075C306.372 212.576 326.695 210.571 336.092 194.458C337.938 191.131 339.22 187.526 339.985 183.863L339.973 183.852Z" fill="black" opacity="0.5"/>
    <path d="M401.879 476.852C398.621 476.768 395.351 476.673 392.082 476.59C387.105 458.632 382.117 440.674 377.141 422.704C365.387 412.709 353.645 402.69 341.891 392.683L349.277 355.852C355.805 356.826 362.332 357.813 368.86 358.799C378.609 373.168 388.358 387.537 398.12 401.894C399.373 426.888 400.626 451.87 401.891 476.852H401.879Z" fill="black" opacity="0.1"/>
    <path d="M599.623 142.355L590.838 145.728C589.829 146.113 588.716 145.571 588.338 144.499L582.891 128.852C587.077 133.333 593.006 137.886 600.827 139.922C601.079 140.933 600.563 141.993 599.623 142.355Z" fill="black" opacity="0.1"/>
    <path d="M601.716 78.2016L596.114 69.3283C595.736 68.7337 594.912 68.687 594.477 69.235L590.123 74.8086C589.667 75.3916 589.912 76.2777 590.602 76.4993L600.558 79.7991C601.471 80.1022 602.25 79.0295 601.716 78.19V78.2016Z" fill="#1a3263" style="fill: #1a3263; fill: var(--tblr-illustrations-primary, var(--tblr-primary, #1a3263));"/>
    <path d="M608.314 74.1001L604.929 62.1419C604.744 61.4968 605.254 60.8516 605.949 60.8516H611.827C612.5 60.8516 612.998 61.4411 612.871 62.0752L610.378 74.0334C610.158 75.0902 608.604 75.1347 608.314 74.1001Z" fill="#1a3263" style="fill: #1a3263; fill: var(--tblr-illustrations-primary, var(--tblr-primary, #1a3263));"/>
</svg>
