<svg xmlns="http://www.w3.org/2000/svg" width="800" height="600" fill="none" viewBox="0 0 800 600">
    <style>
        :where(.theme-dark, [data-theme="dark"]) .tblr-illustrations-shield-a { fill: black; opacity: 0.07; } :where(.theme-dark, [data-theme="dark"]) .tblr-illustrations-shield-b { fill: black; opacity: 0.3; } :where(.theme-dark, [data-theme="dark"]) .tblr-illustrations-shield-c { fill: #24304d; }
        @media (prefers-color-scheme: dark) { .tblr-illustrations-shield-a { fill: black; opacity: 0.07; } .tblr-illustrations-shield-b { fill: black; opacity: 0.3; } .tblr-illustrations-shield-c { fill: #24304d; } }
    </style>
    <path d="M105.2 304.718C105.2 354.627 157.971 390.834 181.285 431.131C205.336 472.7 211.118 536.254 252.687 560.291C292.999 583.59 350.366 557.573 400.347 557.573C450.329 557.573 507.624 583.59 547.907 560.334C589.49 536.297 595.272 472.744 619.323 431.175C642.637 390.877 695.408 354.67 695.408 304.761C695.408 254.852 642.637 218.674 619.323 178.377C595.272 136.808 589.49 73.2543 547.907 49.2176C507.624 25.9036 450.242 51.9783 400.347 51.9783C350.453 51.9783 293.071 25.9614 252.759 49.2176C211.19 73.2543 205.409 136.808 181.357 178.377C158.043 218.674 105.272 254.867 105.272 304.761" fill="#1a3263" style="fill: #1a3263; fill: var(--tblr-illustrations-primary, var(--tblr-primary, #1a3263));" opacity="0.02" class="tblr-illustrations tblr-illustrations-vocate tblr-illustrations-shield-a"/>
    <path d="M577.205 143.609L475.768 125.614C474.015 125.305 472.219 125.344 470.482 125.729C468.745 126.115 467.101 126.839 465.645 127.861C464.188 128.882 462.947 130.181 461.993 131.683C461.039 133.185 460.391 134.861 460.085 136.614L440.963 244.309C440.578 246.474 440.726 248.7 441.393 250.795C442.061 252.89 443.227 254.791 444.793 256.335L489.354 300.101C491.295 302.024 493.773 303.314 496.461 303.802C499.15 304.289 501.923 303.952 504.415 302.833L561.305 277.062C563.307 276.155 565.057 274.775 566.404 273.039C567.752 271.304 568.656 269.266 569.038 267.103L588.161 159.364C588.479 157.61 588.448 155.81 588.07 154.068C587.691 152.326 586.972 150.675 585.954 149.212C584.936 147.748 583.64 146.499 582.138 145.538C580.637 144.577 578.96 143.921 577.205 143.609ZM552.113 262.362L504.907 283.754C503.326 284.454 501.571 284.666 499.869 284.363C498.166 284.059 496.594 283.253 495.353 282.048L458.38 245.726C457.394 244.744 456.658 243.539 456.236 242.214C455.813 240.888 455.715 239.48 455.951 238.109L471.851 148.712C472.04 147.598 472.449 146.534 473.054 145.581C473.66 144.628 474.45 143.805 475.377 143.161C477.035 142.035 479.034 141.523 481.029 141.716L481.795 141.817L565.974 156.762C567.085 156.958 568.147 157.371 569.099 157.977C570.05 158.584 570.873 159.373 571.518 160.298C572.164 161.223 572.621 162.267 572.863 163.369C573.104 164.471 573.126 165.611 572.926 166.721L557.027 256.118C556.774 257.479 556.195 258.758 555.339 259.845C554.483 260.933 553.376 261.796 552.113 262.362Z" fill="#1a3263" style="fill: #1a3263; fill: var(--tblr-illustrations-primary, var(--tblr-primary, #1a3263));"/>
    <path d="M575.845 157.167C574.808 155.672 573.485 154.397 571.952 153.417C570.418 152.437 568.705 151.771 566.913 151.458L482.734 136.527C480.941 136.209 479.103 136.247 477.325 136.639C475.547 137.031 473.863 137.769 472.371 138.812C470.878 139.855 469.605 141.182 468.626 142.717C467.646 144.252 466.979 145.965 466.661 147.758L450.762 237.155C450.371 239.372 450.525 241.651 451.209 243.797C451.894 245.942 453.09 247.888 454.693 249.469L491.666 285.792C493.671 287.739 496.212 289.041 498.964 289.53C501.715 290.02 504.55 289.674 507.103 288.538L554.309 267.146C556.36 266.216 558.154 264.801 559.536 263.023C560.918 261.246 561.848 259.159 562.244 256.942L578.143 167.531C578.466 165.737 578.43 163.897 578.035 162.118C577.641 160.339 576.896 158.656 575.845 157.167ZM572.954 166.62L557.055 256.017C556.814 257.399 556.238 258.7 555.376 259.807C554.514 260.913 553.393 261.791 552.112 262.362L504.906 283.754C503.325 284.454 501.57 284.666 499.868 284.363C498.166 284.059 496.593 283.253 495.352 282.048L458.379 245.726C457.393 244.744 456.657 243.539 456.235 242.214C455.812 240.888 455.715 239.48 455.951 238.109L471.85 148.712C472.039 147.598 472.448 146.534 473.054 145.581C473.659 144.628 474.449 143.805 475.377 143.161C477.034 142.035 479.033 141.523 481.028 141.716L481.794 141.817L565.973 156.762C567.085 156.958 568.147 157.371 569.098 157.977C570.049 158.584 570.872 159.373 571.518 160.298C572.164 161.223 572.62 162.267 572.862 163.369C573.104 164.471 573.125 165.61 572.926 166.721L572.954 166.62Z" fill="white"/>
    <path d="M572.94 166.62L557.041 256.017C556.802 257.397 556.227 258.698 555.368 259.804C554.508 260.91 553.39 261.789 552.112 262.362L504.906 283.754C503.325 284.454 501.571 284.666 499.868 284.363C498.166 284.059 496.593 283.253 495.352 282.048L458.379 245.726C457.393 244.744 456.658 243.539 456.235 242.214C455.812 240.888 455.715 239.48 455.951 238.109L471.85 148.712C472.039 147.598 472.448 146.534 473.054 145.581C473.659 144.628 474.449 143.805 475.377 143.161C477.034 142.035 479.034 141.523 481.028 141.716L481.794 141.817L565.973 156.762C567.085 156.958 568.147 157.371 569.098 157.977C570.05 158.584 570.872 159.373 571.518 160.298C572.164 161.223 572.621 162.267 572.862 163.369C573.104 164.471 573.125 165.611 572.926 166.721L572.94 166.62Z" fill="#1a3263" style="fill: #1a3263; fill: var(--tblr-illustrations-primary, var(--tblr-primary, #1a3263));"/>
    <path d="M509.127 177.778C513.058 182.823 539.957 237.458 539.957 237.458L515.978 239.915C515.978 239.915 485.104 178.472 485.162 179.209C485.22 179.946 509.127 177.778 509.127 177.778Z" fill="#1a3263" style="fill: #1a3263; fill: var(--tblr-illustrations-primary, var(--tblr-primary, #1a3263));"/>
    <path d="M572.94 166.62L557.041 256.017C556.802 257.397 556.227 258.698 555.368 259.804C554.508 260.91 553.39 261.789 552.112 262.362L504.906 283.754C503.325 284.454 501.571 284.666 499.868 284.363C498.166 284.059 496.593 283.253 495.352 282.048L458.379 245.726C457.393 244.744 456.658 243.539 456.235 242.214C455.812 240.888 455.715 239.48 455.951 238.109L471.85 148.712C472.039 147.598 472.448 146.534 473.054 145.581C473.659 144.628 474.449 143.805 475.377 143.161C477.034 142.035 479.034 141.523 481.028 141.716L481.794 141.817L565.973 156.762C567.085 156.958 568.147 157.371 569.098 157.977C570.05 158.584 570.872 159.373 571.518 160.298C572.164 161.223 572.621 162.267 572.862 163.369C573.104 164.471 573.125 165.611 572.926 166.721L572.94 166.62Z" fill="black" opacity="0.1"/>
    <path d="M546.33 205.154C540.242 209.577 533.884 213.617 527.295 217.252C489.57 239.135 413.268 278.073 400.332 284.65L398.453 285.604L403.787 254.572C418.501 244.685 430.02 237.444 434.443 234.235C463.727 213.017 496.045 196.294 526.023 176.058C529.477 173.731 537.759 168.094 545.969 170.551C548.307 171.282 550.449 172.535 552.232 174.215C554.015 175.895 555.392 177.959 556.26 180.25C560.032 190.816 549.597 202.437 546.33 205.154Z" fill="#FFCB9D" style="fill: #FFCB9D; fill: var(--tblr-illustrations-skin, #FFCB9D);"/>
    <path d="M527.223 217.252C489.499 239.135 413.197 278.073 400.261 284.65C400.709 280.747 402.198 267.797 403.773 254.542C404.669 253.935 417.172 245.523 434.43 234.206C447.799 236.706 481.39 240.277 512.943 221.516C519.216 217.786 523.855 216.587 527.223 217.252Z" fill="black" opacity="0.1"/>
    <path d="M265.696 309.669C262.704 310.508 259.914 311.389 257.284 312.271C231.267 321.102 223.13 331.798 220.817 340.297C219.372 345.616 217.305 360.532 219.964 377.443C221.164 385.089 223.028 391.218 219.487 395.843C215.946 400.468 207.722 402.492 202.287 400.179C188.715 394.398 186.07 359.044 195.393 333.692C204.585 308.802 225.153 294.319 239.968 286.688C244.688 284.246 249.565 282.122 254.567 280.328C258.286 290.147 261.996 299.928 265.696 309.669Z" fill="#FFCB9D" style="fill: #FFCB9D; fill: var(--tblr-illustrations-skin, #FFCB9D);"/>
    <path d="M265.695 309.669C262.703 310.508 259.914 311.389 257.283 312.271C255.144 299.899 247.165 291.732 239.938 286.76C244.658 284.319 249.535 282.194 254.537 280.4C258.276 290.171 261.995 299.928 265.695 309.669Z" fill="black" opacity="0.1"/>
    <path d="M325.086 371.026C320.649 372.89 254.349 387.041 253.699 386.376C249.845 414.628 245.99 442.881 242.136 471.133L207.114 538.719L219.834 540.338L280.8 477.522C285.801 460.505 290.812 443.497 295.832 426.5L351.436 464.08L361.553 532.013L370.761 532.952L386.992 450.479L325.086 371.026Z" fill="#1a3263" style="fill: #1a3263; fill: var(--tblr-illustrations-primary, var(--tblr-primary, #1a3263));"/>
    <path d="M150.296 559.186C150.296 561.817 237.583 563.941 345.264 563.941C452.945 563.941 540.202 561.817 540.202 559.186C540.202 556.555 452.916 554.503 345.264 554.503C237.611 554.503 150.296 556.613 150.296 559.186Z" fill="#d9e2f3" opacity="0.5" class="tblr-illustrations tblr-illustrations-vocate tblr-illustrations-shield-b"/>
    <path d="M316.515 197.667C317.526 201.555 319.073 207.25 321.183 214.202C321.675 215.734 322.094 217.093 322.224 217.526C324.801 225.069 328.312 232.261 332.674 238.932C333.57 240.248 334.452 241.476 335.391 242.662C338.904 246.998 358.517 248.992 374.041 243.803C389.564 238.614 391.964 221.906 383.638 216.775C380.647 214.614 378.071 211.931 376.036 208.854C373.177 204.84 370.608 200.628 368.346 196.25C366.987 193.779 366.221 192.102 366.221 192.102L351.363 183.993L321.328 190.483C322.773 195.455 322.195 199.242 320.663 199.907C319.131 200.572 316.934 198.173 316.515 197.667Z" fill="#FFCB9D" style="fill: #FFCB9D; fill: var(--tblr-illustrations-skin, #FFCB9D);"/>
    <path d="M316.515 197.667C317.526 201.555 319.073 207.25 321.183 214.202C321.675 215.734 322.094 217.093 322.224 217.526C324.795 225.072 328.306 232.264 332.674 238.933C334.486 237.893 336.085 236.52 337.386 234.885C338.788 233.071 339.819 230.998 340.421 228.786C341.007 226.425 341.217 223.986 341.043 221.559C341.02 219.982 340.899 218.409 340.681 216.847C353.001 218.202 365.42 215.399 375.963 208.883C373.114 204.866 370.55 200.654 368.288 196.279C366.93 193.808 366.164 192.131 366.164 192.131L351.305 184.022L321.256 190.512C322.701 195.484 322.137 199.271 320.605 199.936C319.073 200.601 316.934 198.173 316.515 197.667Z" fill="black" opacity="0.1"/>
    <path d="M383.479 184.918C382.998 187.169 382.271 189.36 381.311 191.452C380.161 194.169 378.622 196.706 376.744 198.982C368.303 209.273 352.563 213.147 336.808 208.522C334.135 207.734 331.53 206.734 329.017 205.53H328.945C328.934 205.552 328.928 205.577 328.928 205.602C328.928 205.627 328.934 205.652 328.945 205.674C329.212 207.325 329.604 208.953 330.116 210.545C330.376 211.282 330.42 211.499 330.579 211.99L330.781 212.467C331.07 213.335 333.961 219.174 334.553 222.585C334.881 224.848 334.497 227.156 333.455 229.191C332.088 226.066 329.962 223.333 327.269 221.241C326.242 220.535 325.17 219.898 324.06 219.333C318.622 215.766 314.67 210.34 312.945 204.07C312.27 201.492 311.997 198.825 312.135 196.164C312.135 194.429 312.497 188.084 315.546 183.993C321.848 175.523 341.245 175.061 351.117 176.188C352.852 176.405 355.873 176.839 358.099 175.682C358.529 175.465 358.912 175.166 359.226 174.801C361.307 172.474 360.585 168.268 359.313 165.767C356.87 160.925 350.409 158.367 342.893 159.089C357.911 151.964 374.287 156.575 380.979 167.415C384.086 172.692 384.985 178.982 383.479 184.918Z" fill="#0b1b3b" class="tblr-illustrations tblr-illustrations-vocate tblr-illustrations-shield-c"/>
    <path d="M383.48 184.918C382.998 187.169 382.271 189.36 381.312 191.452C380.161 194.169 378.623 196.706 376.744 198.982C368.303 209.273 352.563 213.147 336.808 208.522C332.906 207.004 329.582 205.718 329.018 205.53H328.946L323.309 202.35C331.771 204.439 340.542 204.972 349.195 203.925C356.841 202.986 367.479 201.714 376.441 193.591C379.209 191.069 381.582 188.146 383.48 184.918Z" fill="black" opacity="0.5"/>
    <path d="M224.227 565.011L196.938 557.032C196.938 557.032 197.112 549.56 202.055 547.768C206.998 545.975 220.845 557.611 224.227 565.011Z" fill="#0b1b3b" class="tblr-illustrations tblr-illustrations-vocate tblr-illustrations-shield-c"/>
    <path d="M390.142 559.215L356.349 554.575C356.349 554.575 355.236 545.686 360.772 542.68C366.308 539.673 384.838 551.02 390.142 559.215Z" fill="#0b1b3b" class="tblr-illustrations tblr-illustrations-vocate tblr-illustrations-shield-c"/>
    <path d="M422.028 235.478L421.667 282.178L388.423 294.912C382.006 314.098 373.571 332.548 363.259 349.952C358.648 357.743 357.911 357.627 356.249 361.197C351.609 371.098 351.797 381.259 353.155 389.267C353.387 390.64 353.647 391.941 353.936 393.184C336.052 393.348 318.086 393.458 300.038 393.516C281.729 393.574 263.489 393.574 245.315 393.516C254.034 377.166 261.827 360.34 268.658 343.116C273.862 330.107 278.198 317.475 281.84 305.536L262.096 322.317C263.627 305.335 259.011 288.368 249.088 274.503C265.291 263.88 276.304 261.495 283.589 261.495C289.465 261.556 295.34 261.257 301.18 260.599C307.12 259.919 311.182 258.893 313.379 258.648C337.011 256.075 353.314 261.018 379.115 254.716C379.866 254.514 380.647 254.34 381.427 254.123C395.92 250.254 409.649 243.949 422.028 235.478Z" fill="#DDDDDD"/>
    <path d="M379.143 254.76C371.497 260.021 354.745 269.372 333.643 268.158C320.547 267.392 315.315 263.244 313.407 258.691C337.039 256.104 353.343 261.061 379.143 254.76Z" fill="#FFCB9D" style="fill: #FFCB9D; fill: var(--tblr-illustrations-skin, #FFCB9D);"/>
    <path d="M588.464 48.142C588.209 48.0422 587.937 47.9941 587.663 48.0006C587.389 48.007 587.119 48.0678 586.869 48.1794C586.619 48.291 586.394 48.4513 586.206 48.6508C586.018 48.8503 585.872 49.0852 585.776 49.3417L564.485 104.989C564.388 105.244 564.341 105.516 564.348 105.79C564.356 106.063 564.417 106.332 564.528 106.582C564.64 106.831 564.799 107.057 564.998 107.245C565.196 107.433 565.43 107.58 565.685 107.677C565.921 107.767 566.17 107.816 566.422 107.822C566.845 107.819 567.256 107.689 567.604 107.449C567.952 107.21 568.22 106.871 568.373 106.478L589.693 50.816C589.79 50.5599 589.835 50.2871 589.825 50.0135C589.816 49.7399 589.752 49.4709 589.638 49.2221C589.523 48.9733 589.361 48.7497 589.159 48.5643C588.958 48.3789 588.722 48.2354 588.464 48.142Z" fill="#1a3263" style="fill: #1a3263; fill: var(--tblr-illustrations-primary, var(--tblr-primary, #1a3263));"/>
    <path d="M635.526 128.274C635.32 127.763 634.92 127.354 634.413 127.137C633.907 126.92 633.335 126.913 632.823 127.118L614.915 134.345C614.471 134.528 614.105 134.86 613.878 135.283C613.651 135.706 613.577 136.194 613.669 136.665C613.761 137.136 614.013 137.561 614.382 137.868C614.751 138.175 615.215 138.344 615.695 138.348C615.963 138.344 616.228 138.29 616.476 138.189L634.384 130.962C634.889 130.754 635.292 130.355 635.506 129.852C635.719 129.349 635.726 128.782 635.526 128.274Z" fill="#1a3263" style="fill: #1a3263; fill: var(--tblr-illustrations-primary, var(--tblr-primary, #1a3263));"/>
    <path d="M511.367 58.6932C511.263 58.1626 510.956 57.6935 510.511 57.3855C510.066 57.0774 509.519 56.9545 508.986 57.0428C508.452 57.1311 507.974 57.4237 507.652 57.8586C507.33 58.2935 507.191 58.8364 507.263 59.3725L513.622 97.1259C513.707 97.6097 513.959 98.0484 514.334 98.3654C514.709 98.6824 515.184 98.8576 515.675 98.8604H516.022C516.291 98.815 516.548 98.7167 516.779 98.5713C517.01 98.4259 517.21 98.2362 517.367 98.0131C517.524 97.79 517.636 97.538 517.695 97.2717C517.754 97.0053 517.76 96.7298 517.713 96.4611L511.367 58.6932Z" fill="#1a3263" style="fill: #1a3263; fill: var(--tblr-illustrations-primary, var(--tblr-primary, #1a3263));"/>
    <path d="M684.336 213.074L621.895 187.78C621.642 187.678 621.371 187.626 621.097 187.628C620.824 187.631 620.554 187.687 620.302 187.794C620.05 187.9 619.822 188.055 619.631 188.25C619.439 188.445 619.288 188.676 619.185 188.929C619.083 189.183 619.031 189.454 619.033 189.727C619.036 190.001 619.092 190.271 619.198 190.522C619.305 190.774 619.46 191.002 619.655 191.194C619.85 191.386 620.081 191.537 620.334 191.639L682.775 216.934C683.024 217.03 683.288 217.079 683.555 217.078C683.967 217.08 684.371 216.958 684.713 216.729C685.056 216.5 685.322 216.173 685.478 215.792C685.683 215.28 685.679 214.707 685.465 214.199C685.251 213.69 684.845 213.286 684.336 213.074Z" fill="#1a3263" style="fill: #1a3263; fill: var(--tblr-illustrations-primary, var(--tblr-primary, #1a3263));"/>
    <path d="M353.907 393.184C336.022 393.348 318.056 393.458 300.008 393.516C281.7 393.574 263.459 393.574 245.286 393.516C254.005 377.166 261.798 360.34 268.629 343.116C273.832 330.107 278.169 317.475 281.811 305.536C281.811 305.536 286.985 364.247 353.126 389.166C353.357 390.64 353.618 391.941 353.907 393.184Z" fill="black" opacity="0.1"/>
    <path d="M510.369 179.686C515.572 188.358 531.269 219.911 537.426 232.341C537.71 232.915 537.85 233.548 537.835 234.188C537.82 234.827 537.651 235.454 537.341 236.013C537.031 236.573 536.591 237.049 536.057 237.402C535.523 237.754 534.912 237.972 534.275 238.036L518.737 239.626C517.94 239.713 517.136 239.552 516.433 239.167C515.73 238.782 515.162 238.191 514.806 237.473L487.575 183.459C487.265 182.851 487.117 182.175 487.144 181.494C487.171 180.813 487.373 180.15 487.73 179.57C488.087 178.989 488.587 178.51 489.183 178.179C489.778 177.847 490.449 177.674 491.131 177.677H507.03C507.713 177.693 508.38 177.887 508.966 178.239C509.551 178.591 510.035 179.09 510.369 179.686Z" fill="#1a3263" style="fill: #1a3263; fill: var(--tblr-illustrations-primary, var(--tblr-primary, #1a3263));"/>
    <path d="M379.143 254.76C371.497 260.021 354.745 269.372 333.643 268.158C320.547 267.392 315.315 263.244 313.407 258.691C337.039 256.104 353.343 261.061 379.143 254.76Z" fill="black" opacity="0.1"/>
    <path d="M295.832 426.5L303.998 393.574L342.446 393.271L387.021 450.392L370.79 532.866L361.582 531.926L351.436 464.022L295.832 426.5Z" fill="black" opacity="0.1"/>
</svg>
