<svg xmlns="http://www.w3.org/2000/svg" width="800" height="600" fill="none" viewBox="0 0 800 600">
    <style>
        :where(.theme-dark, [data-theme="dark"]) .tblr-illustrations-snowman-2-a { fill: black; opacity: 0.07; } :where(.theme-dark, [data-theme="dark"]) .tblr-illustrations-snowman-2-b { fill: #24304d; } :where(.theme-dark, [data-theme="dark"]) .tblr-illustrations-snowman-2-c { fill: black; opacity: 0.3; }
        @media (prefers-color-scheme: dark) { .tblr-illustrations-snowman-2-a { fill: black; opacity: 0.07; } .tblr-illustrations-snowman-2-b { fill: #24304d; } .tblr-illustrations-snowman-2-c { fill: black; opacity: 0.3; } }
    </style>
    <path d="M154.895 342.591C154.895 384.004 198.761 414.029 218.035 447.57C238.16 482.175 242.84 534.877 277.445 554.789C310.874 574.163 358.583 552.449 399.996 552.449C441.41 552.449 489.118 574.063 522.547 554.789C557.039 534.777 561.833 482.075 581.857 447.57C601.231 414.141 644.998 384.004 644.998 342.591C644.998 301.177 601.244 271.153 581.857 237.611C561.845 203.119 557.052 150.304 522.547 130.392C489.006 111.018 441.41 132.732 399.996 132.732C358.583 132.732 310.874 111.018 277.445 130.279C242.953 150.291 238.159 202.994 218.135 237.499C198.761 271.14 154.995 301.165 154.895 342.591Z" fill="#1a3263" style="fill: #1a3263; fill: var(--tblr-illustrations-primary, var(--tblr-primary, #1a3263));" opacity="0.02" class="tblr-illustrations tblr-illustrations-vocate tblr-illustrations-snowman-2-a"/>
    <path d="M337.598 187.162C337.598 187.162 398.51 240.702 496.794 227.699C496.794 227.699 415.481 158.276 337.598 187.162Z" fill="#0b1b3b" class="tblr-illustrations tblr-illustrations-vocate tblr-illustrations-snowman-2-b"/>
    <path d="M627.941 275.383C630.945 276.471 631.633 280.401 629.18 282.441C624.562 286.271 619.03 290.626 612.623 295.207C608.643 298.073 598.405 305.382 588.092 311.177C585.977 312.353 583.85 313.492 581.785 314.493C564.563 322.866 549.007 324.055 534.852 324.193C515.29 324.405 498.457 322.566 483.852 334.881C481.261 337.071 476.054 341.965 472.951 342.515C472.75 342.54 472.575 342.578 472.4 342.578C472.262 342.578 472.15 342.565 472.025 342.553C471.962 342.54 471.899 342.54 471.862 342.503C471.699 342.453 471.549 342.403 471.411 342.315C469.083 340.763 471.624 332.853 473.902 326.871C473.952 320.213 475.128 311.077 481.511 305.407C485.879 301.515 491.073 300.739 498.069 300.851C501.223 300.914 504.74 301.164 508.707 301.39C510.647 301.515 512.7 301.615 514.865 301.703C538.369 302.579 563.036 303.505 575.114 291.277C578.906 287.447 583.674 280.076 583.537 265.17C583.512 262.304 586.39 260.302 589.081 261.278C602.035 265.984 614.975 270.689 627.929 275.408L627.941 275.383Z" fill="#0b1b3b" class="tblr-illustrations tblr-illustrations-vocate tblr-illustrations-snowman-2-b"/>
    <path d="M588.108 311.177C585.993 312.353 583.865 313.492 581.8 314.493C564.579 322.866 549.022 324.055 534.867 324.193C515.306 324.405 498.473 322.566 483.867 334.881C480.613 337.309 475.882 341.915 472.966 342.515C472.766 342.54 472.591 342.578 472.416 342.578C472.278 342.578 472.165 342.565 472.04 342.553C471.978 342.54 471.915 342.54 471.877 342.503C471.715 342.453 471.565 342.403 471.427 342.315C469.099 340.763 471.64 332.853 473.917 326.871C474.681 321.602 476.533 313.68 481.527 305.407C485.895 301.515 491.089 300.739 498.085 300.852C505.782 305.207 515.218 309.412 526.344 312.266C549.886 318.298 571.475 315.757 588.108 311.189V311.177Z" fill="black" opacity="0.2"/>
    <path d="M273.293 310.787L266.07 317.11L302.772 359.033L309.994 352.71L273.293 310.787Z" fill="#0b1b3b" class="tblr-illustrations tblr-illustrations-vocate tblr-illustrations-snowman-2-b"/>
    <path d="M513.15 97.2762C511.824 100.405 510.509 103.546 509.183 106.675C501.987 123.759 494.753 140.842 487.569 157.926C487.431 158.239 487.306 158.539 487.181 158.839C486.655 160.066 480.322 175.022 473.376 191.517C472.35 193.97 471.311 196.398 470.285 198.839C469.609 200.416 468.946 202.005 468.283 203.582C437.044 198.476 405.793 193.382 374.555 188.263C375.018 183.244 375.481 178.238 375.944 173.22C377.02 161.668 378.097 150.104 379.148 138.552C381.175 116.8 383.19 95.0359 385.205 73.2591C386.745 66.9514 393.816 62.9089 401.025 64.2605L450.098 73.4844L478.458 78.816L502.9 83.3966C510.096 84.7357 514.69 90.9559 513.15 97.2887V97.2762Z" fill="#1a3263" style="fill: #1a3263; fill: var(--tblr-illustrations-primary, var(--tblr-primary, #1a3263));"/>
    <path d="M513.151 97.276C511.824 100.405 510.51 103.546 509.184 106.675C501.987 123.759 494.753 140.842 487.57 157.926C487.432 158.238 487.307 158.539 487.182 158.839C486.656 160.066 480.323 175.022 473.377 191.517C472.351 193.97 471.312 196.398 470.286 198.838C445.918 191.004 400.5 176.323 400.5 176.323L409.836 171.355C411.626 169.427 413.766 166.999 416.032 164.008C419.774 159.064 422.077 154.984 422.94 153.445C436.995 128.539 446.719 111.343 455.092 100.555C460.011 94.2347 467.357 86.4001 478.458 78.8032L502.901 83.3839C510.097 84.723 514.69 90.9432 513.151 97.276Z" fill="black" opacity="0.1"/>
    <path d="M489.845 163.47C485.978 171.905 482.11 180.328 478.256 188.764C477.505 190.391 475.778 191.304 474.013 191.004L374.741 173.845C372.713 173.507 371.299 171.643 371.499 169.578C371.75 167.062 372.012 164.534 372.263 161.993C372.901 155.573 373.564 149.165 374.203 142.745C374.428 140.479 376.531 138.877 378.783 139.265L486.954 157.963C487.567 158.063 488.118 158.301 488.593 158.652C490.045 159.715 490.658 161.693 489.845 163.47Z" fill="#DADCE0"/>
    <path d="M489.845 163.47C485.978 171.905 482.11 180.328 478.256 188.764C477.505 190.391 475.778 191.304 474.013 191.004L374.741 173.845C372.713 173.507 371.299 171.643 371.499 169.578C371.75 167.062 372.012 164.534 372.263 161.993C372.263 161.993 450.747 169.69 488.593 158.652C490.045 159.715 490.658 161.693 489.845 163.47Z" fill="black" opacity="0.1"/>
    <path d="M174.133 514.002C174.133 518.157 278.374 521.586 406.556 521.586C534.739 521.586 638.98 518.157 638.98 514.002C638.98 509.846 535.027 506.417 406.556 506.417C278.086 506.417 174.133 509.846 174.133 514.002Z" fill="#d9e2f3" opacity="0.5" class="tblr-illustrations tblr-illustrations-vocate tblr-illustrations-snowman-2-c"/>
    <path d="M518.871 411.25C518.871 429.748 513.001 447.094 502.688 462.087C481.412 493.101 441.263 514.001 395.219 514.001C326.922 514.001 271.566 467.995 271.566 411.25C271.566 388.559 280.415 367.596 295.408 350.6C317.898 325.081 354.231 308.511 395.206 308.511C463.503 308.511 518.858 354.518 518.858 411.25H518.871Z" fill="#DADCE0"/>
    <path d="M502.688 462.088C481.412 493.101 441.263 514.001 395.219 514.001C326.922 514.001 271.566 467.995 271.566 411.25C271.566 388.56 280.415 367.596 295.408 350.6C307.386 387.596 353.768 482.037 502.676 462.1L502.688 462.088Z" fill="black" opacity="0.1"/>
    <path d="M496.404 266.897C496.404 281.966 491.848 296.096 483.851 308.311C467.343 333.567 436.192 350.6 400.474 350.6C347.483 350.6 304.543 313.129 304.543 266.91C304.543 248.425 311.401 231.354 323.041 217.512C340.487 196.724 368.672 183.232 400.474 183.232C453.464 183.232 496.404 220.703 496.404 266.922V266.897Z" fill="#DADCE0"/>
    <path d="M483.851 308.311C467.343 333.567 436.192 350.6 400.474 350.6C347.483 350.6 304.543 313.129 304.543 266.91C304.543 248.425 311.401 231.354 323.041 217.511C332.34 247.649 368.321 324.568 483.851 308.323V308.311Z" fill="black" opacity="0.1"/>
    <path d="M342.205 380.124C347.818 380.124 352.368 375.574 352.368 369.962C352.368 364.349 347.818 359.799 342.205 359.799C336.593 359.799 332.043 364.349 332.043 369.962C332.043 375.574 336.593 380.124 342.205 380.124Z" fill="#0b1b3b" class="tblr-illustrations tblr-illustrations-vocate tblr-illustrations-snowman-2-b"/>
    <path d="M329.338 427.47C336.444 427.47 342.204 421.71 342.204 414.604C342.204 407.499 336.444 401.738 329.338 401.738C322.233 401.738 316.473 407.499 316.473 414.604C316.473 421.71 322.233 427.47 329.338 427.47Z" fill="#0b1b3b" class="tblr-illustrations tblr-illustrations-vocate tblr-illustrations-snowman-2-b"/>
    <path d="M339.199 471.149C342.751 471.149 345.631 468.269 345.631 464.716C345.631 461.163 342.751 458.283 339.199 458.283C335.646 458.283 332.766 461.163 332.766 464.716C332.766 468.269 335.646 471.149 339.199 471.149Z" fill="#0b1b3b" class="tblr-illustrations tblr-illustrations-vocate tblr-illustrations-snowman-2-b"/>
    <path d="M348.921 241.078C353.151 241.078 356.581 237.649 356.581 233.419C356.581 229.189 353.151 225.759 348.921 225.759C344.691 225.759 341.262 229.189 341.262 233.419C341.262 237.649 344.691 241.078 348.921 241.078Z" fill="#0b1b3b" class="tblr-illustrations tblr-illustrations-vocate tblr-illustrations-snowman-2-b"/>
    <path d="M394.194 255.22C401.23 255.22 406.934 249.516 406.934 242.48C406.934 235.443 401.23 229.739 394.194 229.739C387.157 229.739 381.453 235.443 381.453 242.48C381.453 249.516 387.157 255.22 394.194 255.22Z" fill="#0b1b3b" class="tblr-illustrations tblr-illustrations-vocate tblr-illustrations-snowman-2-b"/>
    <path d="M484.929 341.865C473.665 346.182 457.771 351.251 438.472 354.18C419.574 357.058 397.396 357.884 373.116 353.967C349.124 350.1 329.313 342.603 314.369 335.319C310.339 333.354 309.038 328.248 311.616 324.581C313.38 322.065 315.145 319.537 316.91 317.022C318.186 315.207 320.164 314.105 322.279 313.93C323.23 313.855 324.194 313.955 325.132 314.268C340.601 319.374 360.038 324.143 382.728 326.008C421.914 329.249 454.579 322.503 476.644 315.758C480.524 314.569 484.616 316.809 485.743 320.689C486.932 324.806 488.133 328.911 489.322 333.016C490.373 336.658 488.483 340.488 484.942 341.852L484.929 341.865Z" fill="#0b1b3b" class="tblr-illustrations tblr-illustrations-vocate tblr-illustrations-snowman-2-b"/>
    <path d="M355.104 258.061L292.365 260.927C285.832 261.228 283.741 266.009 289.711 267.035L353.652 277.986C357.707 278.687 362.263 276.784 362.063 274.482L360.861 260.665C360.724 259.05 358.208 257.924 355.104 258.061Z" fill="#1a3263" style="fill: #1a3263; fill: var(--tblr-illustrations-primary, var(--tblr-primary, #1a3263));"/>
    <path d="M488.072 397.909C486.182 397.909 484.38 396.782 483.629 394.917C482.627 392.464 483.816 389.661 486.269 388.672L537.908 367.734C540.361 366.733 543.164 367.922 544.153 370.375C545.142 372.828 543.965 375.631 541.512 376.62L489.874 397.558C489.286 397.796 488.672 397.909 488.072 397.909Z" fill="#0b1b3b" class="tblr-illustrations tblr-illustrations-vocate tblr-illustrations-snowman-2-b"/>
    <path d="M593.477 358.585C593.139 363.779 590.887 367.834 589.723 369.937C582.764 382.465 562.389 389.761 537.546 389.461L524.918 358.56C524.918 358.56 545.806 329.612 559.323 330.125C572.276 330.601 559.886 345.957 558.81 347.259C566.582 338.748 577.67 336.445 584.929 340.688C591.425 344.505 592.977 352.465 593.189 353.717C593.502 355.431 593.565 357.058 593.452 358.585H593.477Z" fill="#1a3263" style="fill: #1a3263; fill: var(--tblr-illustrations-primary, var(--tblr-primary, #1a3263));"/>
    <path d="M286.184 308.711L263.406 333.104C240.078 324.556 223.632 310.488 221.592 296.296C221.242 293.868 220.579 289.187 222.168 284.156C222.619 282.754 223.244 281.315 224.095 279.901C224.759 278.799 229.026 271.903 236.448 270.664C244.758 269.25 254.333 275.383 258.55 286.146C258.237 285.245 251.617 265.633 264.145 269.863C276.96 274.206 286.184 308.686 286.184 308.686V308.711Z" fill="#1a3263" style="fill: #1a3263; fill: var(--tblr-illustrations-primary, var(--tblr-primary, #1a3263));"/>
    <path d="M597.455 196.999L589.432 195.147L594.551 192.08C595.202 191.692 595.415 190.841 595.027 190.191C594.639 189.54 593.788 189.327 593.137 189.715L585.565 194.258L574.326 191.667L581.936 182.857L590.721 182.381C591.485 182.343 592.061 181.693 592.023 180.929C591.985 180.166 591.322 179.578 590.571 179.628L584.439 179.966L589.845 173.695C590.346 173.12 590.283 172.256 589.708 171.755C589.132 171.255 588.268 171.317 587.768 171.893L582.386 178.126L582.061 172.168C582.023 171.405 581.372 170.817 580.609 170.867C579.846 170.904 579.27 171.555 579.307 172.319L579.783 181.129L572.449 189.615L569.558 178.689L574.126 171.167C574.514 170.516 574.314 169.678 573.663 169.277C573.012 168.889 572.174 169.09 571.773 169.74L568.582 174.997L566.467 167C566.279 166.261 565.515 165.823 564.789 166.023C564.051 166.224 563.613 166.975 563.813 167.7L565.916 175.648L560.81 172.556C560.159 172.168 559.32 172.369 558.92 173.019C558.532 173.67 558.732 174.509 559.383 174.909L566.93 179.49L569.846 190.503L558.82 187.3L554.727 179.515C554.377 178.839 553.538 178.589 552.875 178.939C552.199 179.29 551.949 180.128 552.299 180.792L555.165 186.236L547.218 183.933C546.492 183.72 545.729 184.146 545.516 184.872C545.303 185.597 545.729 186.361 546.454 186.574L554.352 188.864L549.07 191.642C548.394 191.993 548.144 192.831 548.494 193.495C548.745 193.958 549.22 194.233 549.708 194.233C549.921 194.233 550.146 194.183 550.347 194.07L558.156 189.965L569.132 193.157L560.785 201.104L551.999 200.729C551.248 200.704 550.597 201.279 550.572 202.043C550.534 202.806 551.123 203.444 551.886 203.469L558.031 203.732L552.036 209.439C551.486 209.965 551.461 210.829 551.986 211.379C552.262 211.667 552.625 211.805 552.975 211.805C553.313 211.805 553.651 211.68 553.926 211.429L559.883 205.76L559.633 211.73C559.596 212.493 560.184 213.131 560.947 213.156C560.972 213.156 560.985 213.156 561.01 213.156C561.736 213.156 562.349 212.581 562.387 211.842L562.762 203.031L571.122 195.072L574.326 206.26L569.908 213.87C569.533 214.521 569.746 215.372 570.409 215.747C570.622 215.872 570.859 215.935 571.097 215.935C571.573 215.935 572.036 215.684 572.286 215.246L575.365 209.927L577.643 217.887C577.818 218.488 578.369 218.888 578.969 218.888C579.095 218.888 579.22 218.876 579.345 218.838C580.071 218.626 580.496 217.875 580.284 217.136L578.018 209.227L583.187 212.218C583.4 212.343 583.638 212.405 583.875 212.405C584.351 212.405 584.814 212.155 585.064 211.717C585.44 211.066 585.227 210.215 584.564 209.84L576.929 205.409L573.776 194.358L585.064 196.961L589.582 204.508C589.845 204.934 590.296 205.172 590.759 205.172C590.997 205.172 591.247 205.109 591.46 204.971C592.111 204.583 592.323 203.732 591.935 203.081L588.769 197.812L596.841 199.677C596.942 199.702 597.054 199.715 597.154 199.715C597.78 199.715 598.343 199.289 598.494 198.651C598.669 197.913 598.206 197.174 597.467 196.999H597.455Z" fill="#1a3263" style="fill: #1a3263; fill: var(--tblr-illustrations-primary, var(--tblr-primary, #1a3263));"/>
    <path d="M224.995 401.663C224.832 400.987 224.144 400.562 223.468 400.737L216.109 402.527L219.05 397.884C219.426 397.295 219.25 396.507 218.662 396.131C218.074 395.756 217.286 395.931 216.91 396.519L212.555 403.378L202.517 405.818L206.197 396.069L213.644 392.877C214.282 392.602 214.582 391.864 214.307 391.213C214.032 390.575 213.281 390.274 212.642 390.55L207.436 392.79L210.127 385.656C210.377 385.005 210.039 384.267 209.388 384.029C208.738 383.779 207.999 384.117 207.761 384.767L205.083 391.851L202.918 386.795C202.643 386.157 201.892 385.856 201.253 386.132C200.615 386.407 200.315 387.145 200.59 387.796L203.794 395.268L200.089 405.08L193.531 396.782L194.62 388.76C194.72 388.072 194.232 387.433 193.531 387.333C192.843 387.233 192.205 387.721 192.105 388.422L191.341 394.029L186.61 388.046C186.172 387.496 185.384 387.408 184.833 387.834C184.282 388.272 184.195 389.06 184.62 389.611L189.314 395.556L183.869 394.817C183.181 394.717 182.543 395.205 182.443 395.906C182.343 396.594 182.831 397.233 183.532 397.333L191.579 398.434L198.099 406.694L187.599 408.196L181.216 403.215C180.665 402.79 179.864 402.877 179.439 403.44C179.013 403.991 179.101 404.792 179.664 405.218L184.132 408.697L176.585 409.773C175.897 409.873 175.409 410.512 175.509 411.2C175.597 411.826 176.135 412.289 176.761 412.289C176.823 412.289 176.886 412.289 176.936 412.276L184.433 411.213L181.053 415.555C180.628 416.106 180.716 416.907 181.279 417.333C181.504 417.508 181.779 417.595 182.055 417.595C182.43 417.595 182.806 417.433 183.056 417.107L188.062 410.699L198.588 409.198L194.996 419.297L187.624 422.639C186.986 422.927 186.71 423.678 186.998 424.316C187.211 424.779 187.674 425.055 188.15 425.055C188.325 425.055 188.5 425.017 188.675 424.942L193.832 422.602L191.279 429.785C191.041 430.449 191.391 431.162 192.042 431.4C192.18 431.45 192.33 431.475 192.467 431.475C192.993 431.475 193.481 431.15 193.656 430.636L196.197 423.49L198.462 428.496C198.675 428.959 199.138 429.235 199.614 429.235C199.789 429.235 199.964 429.197 200.139 429.122C200.778 428.834 201.053 428.083 200.765 427.445L197.411 420.048L200.953 410.074L208.024 418.058L207.373 426.131C207.323 426.832 207.836 427.432 208.537 427.495C208.575 427.495 208.6 427.495 208.637 427.495C209.288 427.495 209.839 426.994 209.901 426.331L210.352 420.687L215.408 426.394C215.659 426.682 216.009 426.819 216.359 426.819C216.66 426.819 216.96 426.719 217.198 426.506C217.724 426.043 217.774 425.242 217.311 424.717L212.292 419.047L217.774 419.485C217.774 419.485 217.836 419.485 217.874 419.485C218.525 419.485 219.075 418.985 219.138 418.321C219.188 417.62 218.675 417.02 217.974 416.957L209.876 416.306L202.83 408.346L213.243 405.818L220.089 410.161C220.302 410.299 220.54 410.361 220.765 410.361C221.178 410.361 221.591 410.149 221.829 409.773C222.204 409.185 222.029 408.397 221.441 408.021L216.66 404.992L224.069 403.19C224.745 403.027 225.17 402.339 224.995 401.663Z" fill="#1a3263" style="fill: #1a3263; fill: var(--tblr-illustrations-primary, var(--tblr-primary, #1a3263));"/>
    <path d="M500.274 213.995L498.897 219.414L498.747 220.002L496.782 227.712C475.23 217.048 448.31 206.16 416.433 198.3C387.034 191.041 360.239 188.063 337.586 187.162L341.078 173.445C342.98 165.986 349.813 160.867 357.498 161.155C376.208 161.855 397.735 164.246 421.064 169.765C427.109 171.204 432.966 172.769 438.623 174.433C439.061 174.571 439.499 174.696 439.924 174.821C459.711 180.779 477.02 188.025 491.676 195.297C498.597 198.738 502.188 206.498 500.286 213.982L500.274 213.995Z" fill="#1a3263" style="fill: #1a3263; fill: var(--tblr-illustrations-primary, var(--tblr-primary, #1a3263));"/>
    <path d="M593.477 358.585C593.139 363.779 590.887 367.834 589.723 369.937C582.764 382.464 562.389 389.761 537.546 389.461L524.918 358.56C524.918 358.56 567.007 379.861 590.749 360.8C591.688 360.037 592.601 359.298 593.477 358.573V358.585Z" fill="black" opacity="0.1"/>
    <path d="M286.184 308.711L263.406 333.104C240.078 324.556 223.632 310.488 221.592 296.296C221.242 293.868 220.579 289.187 222.168 284.156H222.181C222.181 284.156 249.852 329.161 286.197 308.711H286.184Z" fill="black" opacity="0.1"/>
    <path d="M426.357 299.65C437.085 299.65 445.781 290.954 445.781 280.226C445.781 269.499 437.085 260.802 426.357 260.802C415.63 260.802 406.934 269.499 406.934 280.226C406.934 290.954 415.63 299.65 426.357 299.65Z" fill="black" opacity="0.1"/>
    <path d="M273.454 158.864C273.216 157.988 272.327 157.475 271.451 157.7L264.956 159.44L267.884 152.231C268.222 151.393 267.822 150.441 266.983 150.104C266.145 149.766 265.193 150.166 264.855 151.005L261.001 160.504L256.07 161.818L258.998 154.609C259.336 153.771 258.936 152.819 258.097 152.481C257.259 152.144 256.307 152.544 255.969 153.383L252.115 162.882L247.259 164.183L246.37 159.928L241.639 158.376L243.241 153.495L252.941 150.179C253.792 149.891 254.255 148.952 253.954 148.101C253.667 147.25 252.728 146.787 251.877 147.087L244.518 149.603L246.107 144.759L255.807 141.443C256.658 141.155 257.121 140.216 256.821 139.365C256.533 138.514 255.594 138.051 254.743 138.352L247.384 140.867L249.487 134.484C249.774 133.621 249.299 132.707 248.448 132.419C247.584 132.144 246.671 132.607 246.383 133.458L244.28 139.841L239.85 133.446C239.337 132.707 238.31 132.519 237.572 133.033C236.833 133.546 236.646 134.572 237.159 135.31L242.991 143.733L241.402 148.577L236.971 142.181C236.458 141.443 235.432 141.255 234.693 141.768C233.955 142.281 233.767 143.308 234.28 144.046L240.112 152.469L238.51 157.337L233.78 155.786L230.038 159.127L226.608 155.31L228.561 145.248C228.736 144.359 228.148 143.508 227.272 143.333C226.383 143.157 225.532 143.746 225.357 144.622L223.88 152.256L220.476 148.464L222.428 138.402C222.603 137.513 222.015 136.662 221.139 136.487C220.251 136.324 219.399 136.9 219.224 137.776L217.747 145.41L213.254 140.417C212.654 139.741 211.615 139.691 210.939 140.291C210.263 140.892 210.213 141.931 210.814 142.607L215.307 147.6L207.56 148.264C206.659 148.339 205.996 149.127 206.071 150.028C206.146 150.879 206.859 151.53 207.698 151.53C207.748 151.53 207.798 151.53 207.835 151.53L218.048 150.654L221.452 154.446L213.705 155.11C212.804 155.185 212.141 155.973 212.216 156.874C212.291 157.725 213.004 158.376 213.843 158.376C213.893 158.376 213.943 158.376 213.98 158.376L224.193 157.5L227.622 161.317L223.93 164.609L224.881 169.152L219.875 170.041L212.353 163.069C211.69 162.456 210.651 162.494 210.038 163.157C209.425 163.82 209.462 164.859 210.126 165.472L215.833 170.766L210.814 171.655L203.292 164.684C202.629 164.071 201.59 164.108 200.977 164.772C200.364 165.435 200.401 166.474 201.064 167.087L206.771 172.381L200.151 173.557C199.262 173.72 198.674 174.571 198.824 175.46C198.962 176.248 199.65 176.811 200.439 176.811C200.539 176.811 200.626 176.811 200.727 176.786L207.335 175.61L203.805 182.543C203.392 183.344 203.718 184.333 204.519 184.746C204.756 184.871 205.007 184.921 205.257 184.921C205.858 184.921 206.434 184.596 206.721 184.033L211.377 174.897L216.396 174.008L212.866 180.941C212.453 181.742 212.779 182.731 213.58 183.144C213.818 183.269 214.068 183.319 214.318 183.319C214.919 183.319 215.495 182.994 215.783 182.431L220.438 173.295L225.532 172.393L226.621 177.6L231.352 179.152L229.75 184.02L220.05 187.337C219.199 187.625 218.736 188.563 219.037 189.414C219.274 190.09 219.9 190.528 220.588 190.528C220.764 190.528 220.939 190.503 221.114 190.441L228.473 187.925L226.884 192.769L217.184 196.085C216.333 196.373 215.87 197.312 216.171 198.163C216.408 198.839 217.034 199.277 217.722 199.277C217.898 199.277 218.073 199.252 218.248 199.189L225.607 196.673L223.505 203.056C223.217 203.92 223.692 204.833 224.543 205.121C224.719 205.171 224.881 205.209 225.056 205.209C225.745 205.209 226.383 204.771 226.608 204.082L228.711 197.7L233.141 204.095C233.454 204.558 233.967 204.796 234.493 204.796C234.818 204.796 235.144 204.696 235.419 204.508C236.158 203.995 236.345 202.969 235.832 202.23L230 193.807L231.589 188.964L236.02 195.359C236.333 195.822 236.846 196.06 237.372 196.06C237.697 196.06 238.022 195.96 238.298 195.772C239.036 195.259 239.224 194.233 238.711 193.494L232.879 185.072L234.481 180.203L239.211 181.755L243.016 178.351L246.483 182.155L244.605 192.23C244.443 193.119 245.031 193.97 245.92 194.133C246.02 194.158 246.12 194.158 246.22 194.158C246.996 194.158 247.684 193.607 247.822 192.819L249.249 185.172L252.69 188.939L250.813 199.014C250.65 199.902 251.239 200.753 252.127 200.916C252.227 200.941 252.327 200.941 252.428 200.941C253.204 200.941 253.892 200.39 254.03 199.602L255.456 191.955L259.987 196.924C260.312 197.274 260.75 197.462 261.201 197.462C261.589 197.462 261.989 197.324 262.302 197.036C262.966 196.423 263.016 195.397 262.402 194.721L257.872 189.752L265.619 189.026C266.52 188.939 267.183 188.15 267.096 187.249C267.008 186.348 266.22 185.685 265.319 185.772L255.106 186.724L251.664 182.956L259.411 182.231C260.312 182.143 260.976 181.354 260.888 180.453C260.8 179.552 260.012 178.889 259.111 178.977L248.898 179.928L245.457 176.148L249.086 172.907L247.935 167.412L252.966 166.073L261.051 172.381C261.351 172.619 261.702 172.731 262.052 172.731C262.54 172.731 263.016 172.519 263.341 172.106C263.892 171.392 263.767 170.366 263.053 169.815L256.921 165.034L261.852 163.72L269.937 170.028C270.237 170.266 270.587 170.378 270.938 170.378C271.426 170.378 271.902 170.166 272.227 169.753C272.778 169.039 272.653 168.013 271.939 167.462L265.807 162.682L272.302 160.942C273.178 160.704 273.691 159.815 273.466 158.939L273.454 158.864ZM242.015 174.784L238.423 177.988L229.437 175.034L228.423 170.178C228.423 170.178 228.423 170.178 228.423 170.166C228.423 170.166 228.423 170.153 228.423 170.141L227.509 165.773L234.568 159.465L239.061 160.942L243.554 162.419L244.405 166.524C244.405 166.524 244.405 166.586 244.405 166.611C244.405 166.624 244.418 166.649 244.43 166.661L245.482 171.68L242.015 174.771V174.784Z" fill="#1a3263" style="fill: #1a3263; fill: var(--tblr-illustrations-primary, var(--tblr-primary, #1a3263));"/>
    <path d="M438.472 354.18C419.574 357.058 397.396 357.884 373.116 353.967C349.124 350.1 329.313 342.603 314.369 335.319C310.339 333.354 309.038 328.248 311.616 324.581C313.38 322.065 315.145 319.537 316.91 317.021C318.186 315.207 320.164 314.105 322.279 313.93C323.969 315.157 369.687 347.559 438.484 354.167L438.472 354.18Z" fill="black" opacity="0.2"/>
</svg>
