<svg xmlns="http://www.w3.org/2000/svg" width="800" height="600" fill="none" viewBox="0 0 800 600">
    <style>
        :where(.theme-dark, [data-theme="dark"]) .tblr-illustrations-valentines-day-couple-a { fill: black; opacity: 0.07; } :where(.theme-dark, [data-theme="dark"]) .tblr-illustrations-valentines-day-couple-b { fill: black; opacity: 0.3; } :where(.theme-dark, [data-theme="dark"]) .tblr-illustrations-valentines-day-couple-c { fill: #24304d; }
        @media (prefers-color-scheme: dark) { .tblr-illustrations-valentines-day-couple-a { fill: black; opacity: 0.07; } .tblr-illustrations-valentines-day-couple-b { fill: black; opacity: 0.3; } .tblr-illustrations-valentines-day-couple-c { fill: #24304d; } }
    </style>
    <path d="M143.504 333.288C143.504 375.92 188.659 406.82 208.492 441.351C229.211 476.973 234.021 531.219 269.644 551.716C304.057 571.667 353.152 549.311 395.784 549.311C438.416 549.311 487.512 571.564 521.924 551.716C557.429 531.116 562.358 476.87 582.973 441.351C602.924 406.938 647.961 375.92 647.961 333.288C647.961 290.655 602.924 259.755 582.973 225.224C562.373 189.72 557.444 135.356 521.924 114.859C487.409 94.908 438.416 117.264 395.784 117.264C353.152 117.264 304.057 94.908 269.644 114.741C234.14 135.341 229.211 189.587 208.596 225.106C188.645 259.74 143.607 290.641 143.504 333.273" fill="#1a3263" style="fill: #1a3263; fill: var(--tblr-illustrations-primary, var(--tblr-primary, #1a3263));" opacity="0.02" class="tblr-illustrations tblr-illustrations-vocate tblr-illustrations-valentines-day-couple-a"/>
    <path d="M227.504 536.133C227.504 539.114 304.858 541.578 399.98 541.578C495.102 541.578 572.456 539.114 572.456 536.133C572.456 533.152 495.323 530.688 399.98 530.688C304.637 530.688 227.504 533.152 227.504 536.133Z" fill="#d9e2f3" opacity="0.5" class="tblr-illustrations tblr-illustrations-vocate tblr-illustrations-valentines-day-couple-b"/>
    <path d="M325.559 175.76C326.355 175.76 339.666 176.867 344.595 182.415C349.523 187.964 333.114 188.362 333.114 188.362L325.559 175.745V175.76Z" fill="#FFCB9D" style="fill: #FFCB9D; fill: var(--tblr-illustrations-skin, #FFCB9D);"/>
    <path d="M325.559 175.76C326.355 175.76 339.666 176.867 344.595 182.415C349.523 187.964 333.114 188.362 333.114 188.362L325.559 175.745V175.76Z" fill="black" opacity="0.1"/>
    <path d="M452.529 517.126C447.497 516.595 442.48 516.079 437.448 515.547L370.585 374.665L369.596 372.57C360.314 419.57 351.032 466.555 341.75 513.54C337.678 513.422 333.605 513.29 329.547 513.171C326.891 451.695 324.234 390.233 321.578 328.757L351.815 323.179L379.675 318.044L391.112 315.934L406.975 313.012C410.192 327.488 413.439 341.964 416.67 356.441C428.608 410.007 440.561 463.559 452.514 517.126H452.529Z" fill="#1a3263" style="fill: #1a3263; fill: var(--tblr-illustrations-primary, var(--tblr-primary, #1a3263));"/>
    <path d="M452.526 517.126C447.494 516.595 442.477 516.078 437.445 515.547L370.582 374.665L369.594 372.57L379.687 318.058L382.58 302.431C382.58 302.431 385.767 307.478 391.124 315.948C397.292 325.732 406.367 340.09 416.682 356.455C428.621 410.022 440.573 463.574 452.526 517.141V517.126Z" fill="black" opacity="0.1"/>
    <path d="M445.77 77.5542L425.435 57.2195C419.99 51.6858 420.255 42.6104 425.966 37.4308C431.648 32.2807 440.679 32.8857 445.666 38.8032C450.713 33.2694 458.947 32.5021 464.363 36.4716C470.517 41.0019 471.756 50.7266 466.119 57.2048C459.346 63.9781 452.558 70.7662 445.784 77.5395L445.77 77.5542Z" fill="#1a3263" style="fill: #1a3263; fill: var(--tblr-illustrations-primary, var(--tblr-primary, #1a3263));"/>
    <path d="M342.148 106.33C342.296 110.594 342.591 116.851 343.167 124.554C343.329 126.251 343.447 127.756 343.477 128.243C344.406 136.655 346.384 144.919 349.364 152.843C349.984 154.407 350.619 155.897 351.327 157.329C353.969 162.641 373.846 169.223 391.126 167.437C408.406 165.652 414.751 148.873 407.314 141.628C404.717 138.691 402.666 135.327 401.264 131.667C399.227 126.842 397.53 121.883 396.202 116.822C395.361 113.944 394.963 112.026 394.963 112.026L381.431 100.191L348.804 99.9844C349.158 105.474 347.682 109.266 345.941 109.606C344.2 109.945 342.473 106.95 342.163 106.33H342.148Z" fill="#FFCB9D" style="fill: #FFCB9D; fill: var(--tblr-illustrations-skin, #FFCB9D);"/>
    <path d="M342.148 106.33C342.296 110.595 342.591 116.852 343.167 124.555C343.329 126.252 343.447 127.757 343.477 128.244C344.406 136.655 346.384 144.919 349.364 152.843C351.489 152.179 353.452 151.131 355.179 149.73C357.053 148.165 358.602 146.262 359.738 144.107C360.889 141.79 361.672 139.311 362.055 136.758C362.395 135.12 362.631 133.453 362.764 131.785C375.218 136.035 388.735 135.991 401.175 131.667C399.154 126.842 397.456 121.884 396.128 116.837C395.287 113.959 394.889 112.041 394.889 112.041L381.357 100.206L348.715 99.9995C349.069 105.489 347.608 109.281 345.867 109.621C344.126 109.96 342.473 106.95 342.148 106.33Z" fill="black" opacity="0.1"/>
    <path d="M414.516 108.573C413.498 110.801 412.244 112.897 410.768 114.845C408.953 117.398 406.769 119.67 404.29 121.603C393.163 130.324 375.957 130.708 360.684 122.282C358.101 120.851 355.622 119.213 353.305 117.383H353.232C353.232 117.383 353.187 117.457 353.202 117.516C353.099 119.286 353.128 121.072 353.291 122.828C353.394 123.654 353.379 123.891 353.438 124.437L353.541 124.983C353.645 125.942 355.297 132.671 355.12 136.345C354.943 138.765 354.014 141.067 352.464 142.941C351.771 139.385 350.192 136.065 347.89 133.276C346.989 132.302 346.03 131.402 344.997 130.561C340.187 125.602 337.339 119.065 336.999 112.174C336.896 109.34 337.221 106.522 337.988 103.792C338.386 101.992 340.231 95.4987 344.333 91.9571C352.818 84.6377 373.035 88.622 383.01 92.0751C384.752 92.6949 387.792 93.8459 390.359 93.1671C390.861 93.0343 391.319 92.813 391.732 92.5178C394.432 90.5847 394.654 86.0544 393.901 83.1768C392.484 77.5988 386.375 73.4522 378.421 72.4635C395.627 68.5382 411.55 77.0971 415.977 89.8764C417.984 96.0594 417.453 102.788 414.531 108.603L414.516 108.573Z" fill="#0b1b3b" class="tblr-illustrations tblr-illustrations-vocate tblr-illustrations-valentines-day-couple-c"/>
    <path d="M414.511 108.573C413.493 110.801 412.239 112.896 410.763 114.844C408.948 117.397 406.764 119.67 404.285 121.603C393.159 130.324 375.952 130.708 360.679 122.282C356.99 119.803 353.832 117.707 353.301 117.382H353.227L348.121 112.764C356.414 116.881 365.386 119.463 374.595 120.363C382.74 121.16 394.059 122.296 405.229 115.936C408.683 113.959 411.811 111.48 414.526 108.573H414.511Z" fill="black" opacity="0.5"/>
    <path d="M468.802 537.328L439.215 535.188C439.215 535.188 437.754 527.53 442.387 524.608C447.021 521.686 463.74 530.496 468.802 537.313" fill="#0b1b3b" class="tblr-illustrations tblr-illustrations-vocate tblr-illustrations-valentines-day-couple-c"/>
    <path d="M313.102 535.204L342.689 533.064C342.689 533.064 344.15 525.405 339.516 522.483C334.882 519.562 318.163 528.371 313.102 535.189" fill="#0b1b3b" class="tblr-illustrations tblr-illustrations-vocate tblr-illustrations-valentines-day-couple-c"/>
    <path d="M323.35 273.523C320.694 292.648 318.304 311.448 316.164 329.909C335.17 330.086 350.266 329.451 360.847 328.817C365.968 328.507 374.143 327.917 390.493 326.751C399.259 326.146 406.489 325.615 411.448 325.26C410.917 321.291 410.444 316.628 410.193 311.374C410.061 308.836 409.957 306.15 409.943 303.332C409.824 290.626 411.167 281.876 412.584 270.705C413.838 260.715 415.491 246.297 416.937 228.279C420.346 231.614 424.611 235.245 429.79 238.712C432.594 240.586 435.324 242.18 437.892 243.538C441.522 239.598 446.067 233.843 449.948 226.154C454.478 217.153 456.397 208.904 457.253 203.134C448.635 195.003 434.394 184.127 414.591 179.73C410.341 178.785 406.121 178.284 406.121 178.284C403.302 177.959 400.823 177.811 398.786 177.752C392.294 178.815 386.125 179.759 380.326 180.6C366.705 182.563 359.962 183.257 351.432 182.43C349.735 182.268 348.333 182.076 347.389 181.943C345.78 182.652 337.65 186.311 330.67 190.842C328.323 192.362 324.855 194.649 320.871 198.338C320.709 198.5 320.576 198.618 320.487 198.707C312.194 206.661 307.354 216.076 304.477 224.62C302.115 231.673 301.112 238.152 300.625 242.711C304.078 242.579 307.915 242.682 312.032 243.154C317.684 243.789 322.79 245.013 327.305 246.504C325.947 255.402 324.634 264.418 323.38 273.494L323.35 273.523Z" fill="#DADCE0"/>
    <path d="M323.349 273.523C320.692 292.647 318.302 311.447 316.162 329.908C335.169 330.085 350.265 329.451 360.845 328.816C365.966 328.506 374.141 327.916 390.491 326.75C399.257 326.145 406.488 325.614 411.431 325.26C410.9 321.29 410.428 316.627 410.177 311.374C395.892 301.383 372.474 281.86 356.846 249.514C350.855 237.118 347.254 225.416 345.041 215.381C344.731 214.762 338.828 203.458 327.805 202.632C317.254 201.849 306.216 210.984 304.445 224.619C302.084 231.673 301.081 238.151 300.594 242.711C304.062 242.578 307.884 242.681 312.001 243.153C317.652 243.788 322.758 245.013 327.274 246.503C325.916 255.401 324.603 264.418 323.349 273.493V273.523Z" fill="black" opacity="0.1"/>
    <path d="M376.53 178.682C384.056 178.284 391.464 177.989 398.769 177.752C396.437 179.981 387.288 188.185 372.871 189.012C365.994 189.41 360.121 188.008 355.561 186.208C353.023 185.219 350.883 184.113 349.216 183.124C348.522 182.696 347.888 182.298 347.371 181.943L376.53 178.682Z" fill="#FFCB9D" style="fill: #FFCB9D; fill: var(--tblr-illustrations-skin, #FFCB9D);"/>
    <path d="M376.53 178.682C384.056 178.284 391.464 177.989 398.769 177.752C396.437 179.981 387.288 188.185 372.871 189.012C365.994 189.41 360.121 188.008 355.561 186.208C353.023 185.219 350.883 184.113 349.216 183.124C348.522 182.696 347.888 182.298 347.371 181.943L376.53 178.682Z" fill="black" opacity="0.1"/>
    <path d="M347.372 181.943C342.074 182.755 326.107 186.001 313.151 201.334C294.971 222.849 297.464 250.651 297.892 254.827C302.924 256.553 309.344 258.176 316.84 258.708C329.324 259.593 339.565 257.07 346.309 254.709C346.058 252.849 345.881 251.344 345.778 250.414C344.907 242.829 342.236 216.238 347.091 183.803C347.224 182.888 347.342 182.165 347.372 181.958V181.943Z" fill="#DADCE0"/>
    <path d="M331.657 254.074L329.93 287.291L318.966 293.534L316.029 290.863L283.55 310.799L256.073 327.666C254.804 326.279 253.535 324.891 252.266 323.49C268.616 304.365 284.966 285.24 301.302 266.116L318.287 248.098L331.657 254.074Z" fill="#FFCB9D" style="fill: #FFCB9D; fill: var(--tblr-illustrations-skin, #FFCB9D);"/>
    <path d="M331.658 254.074L329.931 287.306L318.967 293.534L316.03 290.863L283.551 310.799L301.318 266.116L318.288 248.098L331.658 254.074Z" fill="black" opacity="0.1"/>
    <path d="M326.903 275.116L312.604 271.973C296.239 300.955 279.889 329.937 263.523 358.92C264.955 360.115 266.386 361.31 267.832 362.505L319.068 314.31L334.326 323.326L326.903 275.116Z" fill="#FFCB9D" style="fill: #FFCB9D; fill: var(--tblr-illustrations-skin, #FFCB9D);"/>
    <path d="M478.038 123.521C466.69 136.979 450.767 145.759 433.34 148.194L486.066 164.973L478.008 123.506H478.038V123.521Z" fill="#0b1b3b" class="tblr-illustrations tblr-illustrations-vocate tblr-illustrations-valentines-day-couple-c"/>
    <path d="M474.763 166.596C489.682 171.613 507.773 170.92 515.86 167.688C517.233 167.245 518.487 166.463 519.49 165.416C520.582 164.058 521.615 162.627 522.707 161.092C524.124 158.996 525.452 156.783 526.706 154.569C529.968 148.77 532.683 142.675 534.852 136.389C534.955 135.858 535.516 134.323 536.092 132.552C538.556 124.525 540.445 117.943 541.552 113.457C541.02 114.048 538.423 116.733 536.77 116.069C535.118 115.405 534.35 110.86 536.136 105.12L501.413 97.52L484.133 106.876C484.133 106.876 483.263 108.779 481.669 111.657C479.042 116.704 476.061 121.559 472.771 126.192C470.424 129.763 467.429 132.862 463.961 135.341C454.28 141.244 456.996 160.693 474.94 166.626L474.777 166.596H474.763Z" fill="#FFCB9D" style="fill: #FFCB9D; fill: var(--tblr-illustrations-skin, #FFCB9D);"/>
    <path d="M472.578 126.236C484.767 133.821 499.14 137.141 513.425 135.651C516.73 136.861 519.637 138.957 521.821 141.731C525.009 145.907 524.241 148.932 526.411 154.171L526.602 154.672C529.849 148.873 532.579 142.779 534.748 136.492C534.851 135.961 535.412 134.426 535.988 132.655C538.467 124.628 540.341 118.046 541.448 113.56C540.916 114.151 538.334 116.836 536.666 116.172C534.999 115.508 534.246 110.963 535.958 105.223L501.236 97.623L483.956 106.979C483.956 106.979 483.085 108.882 481.491 111.76C478.864 116.807 475.884 121.662 472.593 126.295V126.266L472.578 126.236Z" fill="black" opacity="0.1"/>
    <path d="M528.329 217.964C522.397 225.106 516.464 232.249 510.532 239.391C508.511 241.929 506.504 244.482 504.497 247.05C503.729 248.023 502.977 249.012 502.239 249.986C485.726 271.413 470.719 292.854 457.069 314.207L456.995 314.31C455.504 316.465 454.058 318.634 452.553 320.73C452.538 320.715 452.509 320.7 452.494 320.685C422.641 298.285 392.789 275.914 362.906 253.542C370.993 245.721 379.065 237.974 387.166 230.109L387.255 230.02L388.406 228.899C392.508 225.254 396.788 221.107 401.067 216.518C408.947 208.077 416.075 198.972 422.361 189.292C417.58 185.706 412.784 182.12 408.003 178.519C414.466 174.742 423.807 170.389 435.657 168.205C440.792 167.26 445.529 166.876 449.705 166.817L449.912 166.876L451.122 167.216L451.904 167.452L452.051 167.496L454.029 168.101C456.478 168.824 459.017 169.857 461.407 170.846C461.85 171.038 462.307 171.215 462.75 171.421C471.678 175.243 480.281 179.759 488.486 184.953C497.458 190.664 506.002 197.01 514.059 203.96C514.487 204.329 514.915 204.683 515.343 205.067C518.294 207.605 521.26 210.423 524.315 213.345L524.625 213.552L524.669 213.581C525.363 214.201 525.909 214.762 526.278 215.19C526.278 215.205 526.292 215.219 526.307 215.234C526.307 215.234 526.971 216.031 528.299 217.935L528.329 217.964Z" fill="#1a3263" style="fill: #1a3263; fill: var(--tblr-illustrations-primary, var(--tblr-primary, #1a3263));"/>
    <path d="M468.629 103.172C469.824 107.584 472.126 111.613 475.284 114.903C489.126 129.365 516.264 122.341 523.671 120.039C524.306 124.835 527.789 129.129 527.729 131.918C527.685 132.774 527.656 133.659 527.582 134.382C527.464 135.74 527.257 137.083 526.947 138.396C526.401 140.639 525.664 142.838 524.704 144.948C520.041 153.699 514.744 162.095 508.856 170.079L532.127 176.837L550.912 182.297C555.575 173.812 558.291 164.383 558.866 154.717C558.822 153.876 558.955 152.577 558.969 150.924C558.925 147.678 558.645 144.431 558.114 141.229C558.084 140.639 557.936 140.063 557.818 139.518C557.022 135.327 555.811 131.239 554.188 127.284C549.997 117.087 543.534 107.997 535.27 100.693C532.393 98.2578 513.917 83.0141 491.177 85.9212C485.525 86.5852 472.008 88.3856 469.027 96.9149C468.349 98.9956 468.29 101.209 468.821 103.334L468.599 103.172H468.629Z" fill="#0b1b3b" class="tblr-illustrations tblr-illustrations-vocate tblr-illustrations-valentines-day-couple-c"/>
    <path d="M213.852 332.107C222.573 326.943 244.59 324.434 247.91 329.127C251.23 333.819 246.169 341.094 246.169 341.094L242.052 349.358L232.061 345.211L233.817 337.656L213.852 332.107Z" fill="#0b1b3b" class="tblr-illustrations tblr-illustrations-vocate tblr-illustrations-valentines-day-couple-c"/>
    <path d="M240.191 396.107C241.033 386.073 251.805 366.638 257.59 366.638C263.374 366.638 266.311 375.035 266.311 375.035L270.634 383.195L261.471 388.921L256.321 383.092L240.191 396.107Z" fill="#0b1b3b" class="tblr-illustrations tblr-illustrations-vocate tblr-illustrations-valentines-day-couple-c"/>
    <path d="M468.625 103.172C469.82 107.584 472.122 111.613 475.28 114.903C489.078 129.468 516.274 122.356 523.667 120.039C526.412 118.445 528.98 116.556 531.341 114.402C509.87 121.308 486.377 117.102 468.625 103.201V103.172Z" fill="black" opacity="0.5"/>
    <path d="M526.309 215.219C515.64 229.179 490.982 228.751 470.854 214.26C452.865 201.319 444.439 181.294 449.929 166.876L451.139 167.216L451.921 167.452L452.068 167.496C446.963 180.836 455.226 199.563 472.462 211.973C491.72 225.829 515.08 226.508 524.657 213.552L524.701 213.581C525.394 214.201 525.94 214.762 526.309 215.19V215.219Z" fill="#DADCE0"/>
    <path d="M458.68 217.492C457.912 219.233 458.68 221.27 460.436 222.052C462.177 222.819 464.213 222.052 464.996 220.296C465.645 218.82 465.202 217.108 463.918 216.134C462.089 215.087 459.772 215.692 458.68 217.492Z" fill="#DADCE0"/>
    <path d="M532.135 176.808L550.92 182.268C555.583 173.783 558.299 164.353 558.874 154.688C558.918 153.832 558.963 152.548 558.977 150.895L558.122 141.185C558.092 140.61 557.944 140.02 557.812 139.474C557.03 135.283 555.819 131.18 554.196 127.24C552.47 139.651 548.854 156.709 541.269 166.419C538.451 170.079 535.396 173.576 532.15 176.852L532.105 176.808H532.135Z" fill="black" opacity="0.5"/>
    <path d="M362.809 253.587C392.706 275.958 422.588 298.344 452.441 320.774C453.961 318.678 455.392 316.524 456.882 314.34L456.956 314.237C406.429 281.536 390.669 242.932 387.157 230.064C379.026 237.959 370.91 245.736 362.809 253.587Z" fill="black" opacity="0.1"/>
    <path d="M515.372 205.082C514.93 206.808 514.177 208.461 513.114 209.922C506.208 219.514 489.061 218.968 474.806 208.712C460.551 198.456 454.663 182.415 461.569 172.838C461.909 172.336 462.322 171.879 462.765 171.466C470.35 174.329 479.351 178.416 488.899 184.319C500.158 191.284 508.909 198.736 515.372 205.111V205.082Z" fill="#FFCB9D" style="fill: #FFCB9D; fill: var(--tblr-illustrations-skin, #FFCB9D);"/>
    <path d="M452.485 320.714C451.526 322.131 450.434 323.681 449.209 325.304C446.464 328.978 443.07 333.081 439.071 337.035C430.143 345.889 418.22 353.991 403.92 354.773C395.421 355.245 386.345 352.264 372.681 346.096C368.77 344.325 364.505 342.289 359.739 340.016C356.994 338.703 354.117 337.301 351.047 335.811C349.675 335.147 348.317 334.468 347.004 333.818C346.797 333.715 346.605 333.612 346.399 333.523C342.311 331.487 338.534 329.539 335.066 327.709C334.505 327.399 333.944 327.104 333.398 326.824C328.661 324.286 324.559 322.013 321.18 320.065C323.01 296.853 324.854 273.641 326.699 250.428C332.513 249.912 339.611 249.764 347.624 250.664C353.349 251.299 358.455 252.361 362.853 253.527L437.226 309.293L443.955 314.325L452.485 320.729V320.714Z" fill="#DADCE0"/>
    <path d="M449.203 325.319C446.459 328.993 443.065 333.096 439.066 337.05C431.23 325.201 437.132 309.293 437.132 309.293H437.206L443.935 314.325L445.603 317.217C445.603 317.217 448.052 322.869 449.189 325.319H449.203Z" fill="black" opacity="0.1"/>
    <path d="M372.677 346.111C368.767 344.34 364.502 342.304 359.736 340.031C359.706 339.633 359.691 339.397 359.691 339.397L364.974 327.65L368.678 324.847C368.678 324.847 374.625 335.324 372.663 346.111H372.677Z" fill="black" opacity="0.1"/>
    <path d="M331.476 205.139C338.473 202.968 342.139 194.739 339.663 186.761C337.187 178.783 329.508 174.075 322.51 176.247C315.512 178.418 311.847 186.646 314.323 194.625C316.799 202.603 324.478 207.31 331.476 205.139Z" fill="#FFCB9D" style="fill: #FFCB9D; fill: var(--tblr-illustrations-skin, #FFCB9D);"/>
    <path d="M366.151 344.821C372.86 337.373 373.006 326.568 366.478 320.688C359.95 314.808 349.22 316.08 342.511 323.528C335.802 330.977 335.655 341.781 342.183 347.661C348.711 353.541 359.442 352.269 366.151 344.821Z" fill="#FFCB9D" style="fill: #FFCB9D; fill: var(--tblr-illustrations-skin, #FFCB9D);"/>
    <path d="M468.956 330.051C475.169 323.839 474.459 313.057 467.37 305.968C460.282 298.88 449.5 298.17 443.288 304.382C437.075 310.595 437.785 321.377 444.874 328.465C451.962 335.554 462.744 336.264 468.956 330.051Z" fill="#FFCB9D" style="fill: #FFCB9D; fill: var(--tblr-illustrations-skin, #FFCB9D);"/>
    <path d="M490.896 343.559L523.7 374.312C524.379 374.946 524.763 375.787 524.837 376.673C524.91 377.115 524.866 377.588 524.704 378.015C524.586 378.576 524.305 379.107 523.877 379.55L475.21 431.464C474.782 431.922 474.28 432.232 473.705 432.409C473.292 432.6 472.819 432.659 472.377 432.63C471.491 432.63 470.621 432.276 469.956 431.656L437.152 400.903L490.911 343.559H490.896Z" fill="#DADCE0"/>
    <path d="M437.133 400.903L442.711 352.25L490.891 343.543L482.657 389.702L437.133 400.903Z" fill="#A6A9B3"/>
    <path d="M488.417 357.488L482.662 389.688L450.905 397.494L442.568 389.688L430.645 378.517L468.156 338.497L485.038 354.331L488.417 357.488Z" fill="#DADCE0"/>
    <path d="M488.412 357.474L482.656 389.688L450.9 397.494L442.562 389.688C449.956 387.858 470.733 380.229 485.032 354.331L488.397 357.489L488.412 357.474Z" fill="black" opacity="0.1"/>
    <path d="M524.839 376.672C524.913 377.115 524.868 377.587 524.706 378.015L483.181 390.189L473.707 432.423C473.294 432.615 472.822 432.674 472.379 432.644L482.133 389.201L524.839 376.672Z" fill="#A6A9B3"/>
    <path d="M490.499 400.062L475.137 400.564C470.607 400.564 467.316 396.742 467.626 393.126C467.936 389.334 472.171 386.043 476.79 387.164C475.52 382.87 477.985 378.709 481.276 377.824C484.876 376.85 489.51 379.786 489.997 384.715C490.159 389.835 490.321 394.956 490.499 400.077V400.062Z" fill="#1a3263" style="fill: #1a3263; fill: var(--tblr-illustrations-primary, var(--tblr-primary, #1a3263));"/>
    <path d="M529.291 322.014C522.99 362.506 515.051 378.738 497.594 387.297C495.911 388.124 491.411 390.042 486.718 388.507C481.509 386.796 478.985 381.705 478.262 380.229C471.873 367.302 485.523 345.713 487.736 342.142C496.177 328.448 505.12 306.475 508.691 269.362C509.251 263.415 509.694 257.055 509.96 250.296C510.019 249.012 510.063 247.714 510.107 246.386L524.864 244.526C524.864 244.526 526.074 248.688 527.446 255.741C528.14 259.342 528.893 263.725 529.542 268.683C531.386 282.923 532.419 302.033 529.321 321.999L529.291 322.014Z" fill="#FFCB9D" style="fill: #FFCB9D; fill: var(--tblr-illustrations-skin, #FFCB9D);"/>
    <path d="M529.513 268.698L508.691 269.377C509.252 263.43 509.695 257.07 509.961 250.311L524.879 252.657L527.432 255.756C528.126 259.357 528.879 263.74 529.528 268.698H529.513Z" fill="black" opacity="0.1"/>
    <path d="M502.387 235.185C502.298 243.803 502.21 252.436 502.121 261.054C512.569 261.054 523.017 261.054 533.464 261.039C534.91 255.535 536.681 245.751 534.261 234.064C532.859 227.276 530.469 221.86 528.344 217.964C519.696 223.705 511.049 229.445 502.401 235.185H502.387Z" fill="#1a3263" style="fill: #1a3263; fill: var(--tblr-illustrations-primary, var(--tblr-primary, #1a3263));"/>
    <path d="M315.984 317.218L324.071 283.514L321.518 315.757L319.069 314.311L315.984 317.218Z" fill="black" opacity="0.1"/>
</svg>
