<svg xmlns="http://www.w3.org/2000/svg" width="800" height="600" fill="none" viewBox="0 0 800 600">
    <style>
        :where(.theme-dark, [data-theme="dark"]) .tblr-illustrations-valentines-day-balloons-a { fill: black; opacity: 0.07; } :where(.theme-dark, [data-theme="dark"]) .tblr-illustrations-valentines-day-balloons-b { fill: black; opacity: 0.3; } :where(.theme-dark, [data-theme="dark"]) .tblr-illustrations-valentines-day-balloons-c { fill: #24304d; }
        @media (prefers-color-scheme: dark) { .tblr-illustrations-valentines-day-balloons-a { fill: black; opacity: 0.07; } .tblr-illustrations-valentines-day-balloons-b { fill: black; opacity: 0.3; } .tblr-illustrations-valentines-day-balloons-c { fill: #24304d; } }
    </style>
    <path d="M179.898 379.199C179.898 416.385 219.291 443.358 236.593 473.466C254.667 504.538 258.876 551.864 289.948 569.745C319.971 587.144 362.8 567.647 399.997 567.647C437.195 567.647 480.024 587.06 510.047 569.745C541.023 551.767 545.327 504.441 563.305 473.466C580.704 443.442 620 416.385 620 379.199C620 342.014 580.704 315.041 563.305 284.933C545.327 253.957 541.023 206.535 510.047 188.654C479.927 171.254 437.195 190.752 399.997 190.752C362.8 190.752 319.971 171.242 289.948 188.557C258.972 206.535 254.667 253.861 236.69 284.837C219.291 315.053 179.995 342.014 179.898 379.199Z" fill="#1a3263" style="fill: #1a3263; fill: var(--tblr-illustrations-primary, var(--tblr-primary, #1a3263));" opacity="0.02" class="tblr-illustrations tblr-illustrations-vocate tblr-illustrations-valentines-day-balloons-a"/>
    <path d="M237.402 557.411C237.402 559.858 311.858 561.872 403.423 561.872C494.988 561.872 569.444 559.858 569.444 557.411C569.444 554.963 495.193 552.949 403.423 552.949C311.653 552.949 237.402 554.963 237.402 557.411Z" fill="#d9e2f3" opacity="0.5" class="tblr-illustrations tblr-illustrations-vocate tblr-illustrations-valentines-day-balloons-b"/>
    <path d="M220.494 444.817C220.036 445.637 219.699 446.517 219.482 447.433C218.577 451.159 219.445 455.572 222.4 457.61C226.873 460.66 233.48 456.513 235.241 455.403C236.013 454.885 236.76 454.33 237.472 453.727C240.896 450.966 245.815 444.744 244.248 440.982C242.524 436.823 232.13 436.955 225.462 440.428C223.412 441.368 221.676 442.888 220.494 444.805V444.817Z" fill="#FFCB9D" style="fill: #FFCB9D; fill: var(--tblr-illustrations-skin, #FFCB9D);"/>
    <path d="M220.497 444.816C220.039 445.636 219.701 446.517 219.484 447.433C224.573 450.218 230.071 449.917 236.751 453.329L237.474 453.739C240.899 450.978 245.818 444.756 244.251 440.994C242.526 436.834 232.133 436.967 225.465 440.44C223.415 441.38 221.679 442.899 220.497 444.816Z" fill="black" opacity="0.1"/>
    <path d="M293.207 379.44C292.315 380.959 291.434 382.479 290.542 384.01C288.806 387 287.069 389.978 285.321 392.969C285.164 393.246 284.996 393.523 284.839 393.801C283.778 395.633 282.705 397.454 281.656 399.275C281.004 400.384 280.377 401.481 279.726 402.579C276.796 407.607 273.866 412.635 270.936 417.663C263.22 430.902 255.503 444.141 247.786 457.368C235.873 449.458 223.96 441.537 212.035 433.615C215.17 430.89 218.317 428.165 221.44 425.44C229.398 418.519 237.356 411.61 245.302 404.701C246.58 403.591 247.87 402.47 249.148 401.361C252.934 398.081 256.708 394.789 260.495 391.51C264.208 388.29 267.922 385.071 271.624 381.84C273.517 380.188 275.41 378.548 277.303 376.896C279.328 375.148 281.342 373.375 283.368 371.615C285.743 373.508 288.131 375.401 290.506 377.294C291.024 377.704 291.531 378.114 292.049 378.524C292.435 378.825 292.809 379.127 293.195 379.44H293.207Z" fill="#DADCE0"/>
    <path d="M285.306 392.957C285.15 393.234 284.981 393.512 284.824 393.789C283.763 395.622 282.69 397.442 281.641 399.263C280.99 400.372 280.363 401.47 279.712 402.567C276.782 407.595 273.852 412.623 270.922 417.651C254.56 424.488 231.12 425.549 221.438 425.428C229.396 418.507 237.354 411.598 245.299 404.689C246.578 403.58 247.868 402.458 249.146 401.349C252.932 398.069 256.706 394.778 260.492 391.498C271.754 391.498 283.016 391.546 283.016 391.546C283.016 391.546 284.077 392.017 285.319 392.957H285.306Z" fill="black" opacity="0.1"/>
    <path d="M301.731 366.044C302.828 367.672 303.841 369.348 304.745 371.096C304.022 370.614 303.419 369.963 302.997 369.203C302.49 368.166 302.117 367.141 301.719 366.056L301.731 366.044Z" fill="black" opacity="0.1"/>
    <path d="M290.554 364.959L292.773 364.115C292.676 366.225 292.58 368.348 292.375 370.446L292.351 370.771C290.928 396.442 289.963 406.474 288.89 425.488C288.782 427.948 288.697 430.022 288.625 431.541C300.598 431.65 312.559 431.71 324.557 431.782L358.366 431.951C357.365 424.608 356.34 417.108 355.364 409.705C353.712 397.66 352.096 385.578 350.456 373.556L351.638 355.856C351.638 355.856 351.373 355.711 351.059 355.53C350.517 355.229 349.636 354.795 348.503 354.397C347.972 354.204 347.394 353.963 346.718 353.722C345.199 353.155 343.583 352.649 342.04 352.202C335.915 350.49 329.681 349.309 323.363 348.645C316.791 348.006 310.172 347.838 303.552 348.139C300.924 348.236 298.078 348.501 295.281 348.778C295.148 348.778 295.052 348.778 294.919 348.754L290.542 364.947L290.554 364.959Z" fill="#DADCE0"/>
    <path d="M301.485 351.467C301.171 358.967 309.768 365.369 320.681 365.827C331.593 366.286 340.672 360.607 340.985 353.107C341.01 352.697 340.985 352.287 340.913 351.877C334.8 350.165 328.542 348.983 322.212 348.344C315.628 347.681 309.009 347.512 302.401 347.838C301.835 348.971 301.521 350.201 301.485 351.467Z" fill="#FFCB9D" style="fill: #FFCB9D; fill: var(--tblr-illustrations-skin, #FFCB9D);"/>
    <path d="M301.485 351.467C301.171 358.967 309.768 365.369 320.681 365.827C331.593 366.286 340.672 360.607 340.985 353.107C341.01 352.697 340.985 352.287 340.913 351.877C334.8 350.165 328.542 348.983 322.212 348.344C315.628 347.681 309.009 347.512 302.401 347.838C301.835 348.971 301.521 350.201 301.485 351.467Z" fill="black" opacity="0.1"/>
    <path d="M358.219 431.927C354.65 448.024 351.19 464.555 347.886 481.471C344.365 499.618 341.158 517.379 338.264 534.778L331.391 535.622C330.644 531.088 329.92 526.555 329.197 521.997C327.063 508.384 325.073 494.891 323.24 481.508C322.396 475.394 321.347 467.485 320.178 458.188C313.353 472.018 306.541 485.836 299.716 499.654C283.993 508.01 268.27 516.354 252.547 524.698C251.208 523.287 249.858 521.864 248.52 520.454C258.431 508.203 268.33 495.965 278.241 483.714C281.666 466.339 285.09 448.952 288.515 431.577L329.812 431.782L343.111 431.854L358.219 431.927Z" fill="#1a3263" style="fill: #1a3263; fill: var(--tblr-illustrations-primary, var(--tblr-primary, #1a3263));"/>
    <path d="M288.516 431.578L323.471 431.771L358.233 431.976C357.244 424.645 356.219 417.145 355.242 409.729C355.303 410.369 332.538 429.805 288.841 425.525C288.805 426.345 288.769 427.165 288.733 427.997C288.624 429.19 288.564 430.396 288.516 431.578Z" fill="black" opacity="0.1"/>
    <path d="M232.395 529.473L237.531 526.651C237.531 526.651 242.017 523.191 245.007 525.228C248.009 527.266 246.84 541.024 243.668 546.643L239.882 534.32L235.18 535.646L232.395 529.473Z" fill="#0b1b3b" class="tblr-illustrations tblr-illustrations-vocate tblr-illustrations-valentines-day-balloons-c"/>
    <path d="M330.149 554.83L331.125 549.054C331.125 549.054 331.198 543.387 334.646 542.302C338.107 541.217 348.163 550.658 350.61 556.651L338.589 551.972L336.708 556.482L330.137 554.83H330.149Z" fill="#0b1b3b" class="tblr-illustrations tblr-illustrations-vocate tblr-illustrations-valentines-day-balloons-c"/>
    <path d="M330.293 331.849C321.54 336.298 310.35 337.516 305.069 336.262C304.189 336.105 303.357 335.731 302.645 335.177C301.838 334.441 301.066 333.597 300.306 332.802C299.245 331.656 298.22 330.402 297.268 329.148C294.736 325.868 292.505 322.372 290.6 318.694C290.455 318.405 290.009 317.488 289.479 316.451C287.236 311.737 285.548 307.878 284.402 305.178C284.776 305.503 286.549 306.938 287.573 306.359C288.598 305.78 288.598 302.947 287.007 299.571L307.698 291.733L319.164 295.917C319.164 295.917 319.888 297.015 321.118 298.63C323.204 301.476 325.483 304.177 327.942 306.709C329.715 308.686 331.825 310.326 334.188 311.544C340.687 314.353 340.784 326.568 330.293 331.861V331.849Z" fill="#FFCB9D" style="fill: #FFCB9D; fill: var(--tblr-illustrations-skin, #FFCB9D);"/>
    <path d="M327.941 306.757C321.141 312.521 312.604 315.861 303.693 316.258C301.776 317.307 300.185 318.851 299.075 320.732C297.496 323.589 298.243 325.398 297.375 328.774L297.303 329.1C294.771 325.82 292.54 322.323 290.635 318.646C290.49 318.356 290.044 317.44 289.514 316.403C287.271 311.689 285.583 307.83 284.438 305.129C284.811 305.455 286.584 306.89 287.609 306.311C288.634 305.732 288.634 302.899 287.042 299.522L307.733 291.685L319.2 295.869C319.2 295.869 319.923 296.966 321.153 298.582C323.215 301.464 325.482 304.201 327.941 306.757Z" fill="black" opacity="0.1"/>
    <path d="M222.039 416.349C228.14 417.675 234.374 418.29 240.62 418.181C250.567 418.037 260.406 415.963 269.558 412.068C269.558 412.068 296.663 403.097 309.601 380.646C311.12 378.126 312.338 375.437 313.243 372.64C316.944 361.185 316.341 343.943 307.539 335.02C303.862 331.294 300.522 327.267 297.532 322.975C296.278 321.07 295.349 318.96 294.807 316.753C294.722 316.271 294.638 315.752 294.541 315.222C294.24 313.425 296 310.543 295.976 307.589C300.751 308.325 318.126 310.23 325.312 300.017C326.952 297.714 328.001 295.037 328.351 292.228C328.495 290.877 328.266 289.515 327.688 288.297C325.083 283.329 316.595 283.474 313.05 283.546C299.292 283.812 289.706 294 287.198 296.677C286.113 297.798 269.594 315.909 275.141 332.79C278.095 341.797 285.402 343.388 284.895 347.669C284.28 352.54 274.068 358.315 228.261 361.282C232.698 373.46 231.721 381.635 229.876 387.109C228.442 391.269 226.09 394.862 224.366 400.975C223.992 402.217 223.643 403.555 223.353 404.99C222.533 408.728 222.087 412.538 222.039 416.373V416.349Z" fill="#0b1b3b" class="tblr-illustrations tblr-illustrations-vocate tblr-illustrations-valentines-day-balloons-c"/>
    <path d="M222.039 416.348C228.176 417.41 234.386 418.012 240.62 418.181C250.567 418.037 260.406 415.963 269.558 412.068C269.558 412.068 296.663 403.097 309.601 380.646C311.12 378.126 312.338 375.437 313.243 372.64C316.944 361.185 316.341 343.943 307.539 335.02C303.862 331.294 300.522 327.267 297.532 322.975C303.199 337.588 303.078 353.806 297.206 368.335C290.02 383.347 277.576 395.187 262.227 401.614C255.318 404.689 247.746 406.015 240.198 405.485C234.639 404.978 229.225 403.387 224.27 400.806C223.896 402.048 223.546 403.387 223.257 404.821C222.461 408.608 222.051 412.478 222.039 416.348Z" fill="black" opacity="0.5"/>
    <path d="M310.578 364.224C312.785 359.389 315.196 356.941 317.765 356.941C320.719 356.941 322.937 360.125 323.998 362.066C325.457 359.763 328.797 355.41 332.825 355.687C336.092 355.965 338.938 359.401 341.277 365.876C342.374 368.89 343.604 373.135 341.856 375.124C341.301 375.703 340.517 375.992 339.721 375.908C336.225 375.763 330.449 371.314 326.53 367.926C327.049 369.385 327.977 370.651 329.207 371.591C330.124 371.989 330.775 372.833 330.944 373.81C331.366 375.98 329.87 378.573 328.544 380.586L327.206 379.031C329.159 375.992 329.207 374.811 329.219 374.461C329.123 374.172 328.906 373.955 328.628 373.858C326.458 372.918 324.734 368.89 323.866 366.503C323.082 368.107 322.455 369.771 321.997 371.495C322.057 371.905 322.142 372.315 322.262 372.713C322.648 374.256 323.311 376.836 321.635 378.464C320.707 379.393 319.875 382.781 319.429 387.58L317.62 387.339C318.15 381.563 319.139 377.946 320.562 376.523C321.056 376.053 320.948 375.209 320.502 373.509C320.321 372.906 320.212 372.291 320.164 371.676C320.345 370.193 320.755 368.758 321.394 367.407C318.102 369.771 313.798 372.447 311.241 372.339C310.554 372.375 309.879 372.074 309.457 371.531C308.275 369.747 309.517 366.503 310.566 364.212L310.578 364.224ZM340.722 373.316C340.722 373.207 341.53 372.182 339.661 366.961C337.636 361.294 335.284 358.304 332.74 358.087H332.559C329.376 357.942 326.47 361.969 325.289 363.85C331.751 369.771 339.324 374.907 340.734 373.316H340.722ZM310.892 369.795C311.688 370.844 317.162 367.974 322.66 363.742C321.828 362.211 320.056 359.425 317.849 359.329H317.716C315.896 359.329 313.991 361.391 312.11 365.43C310.482 368.987 310.892 369.795 310.892 369.795Z" fill="#1a3263" style="fill: #1a3263; fill: var(--tblr-illustrations-primary, var(--tblr-primary, #1a3263));"/>
    <path d="M411.462 430.082C411.896 430.914 412.221 431.794 412.426 432.711C413.258 436.461 412.306 440.85 409.315 442.839C404.782 445.805 398.258 441.525 396.522 440.391C395.763 439.861 395.027 439.282 394.316 438.679C390.952 435.858 386.141 429.54 387.793 425.814C389.601 421.69 399.983 422.028 406.59 425.621C408.628 426.598 410.328 428.153 411.474 430.094L411.462 430.082Z" fill="#FFCB9D" style="fill: #FFCB9D; fill: var(--tblr-illustrations-skin, #FFCB9D);"/>
    <path d="M411.462 430.082C411.896 430.914 412.221 431.794 412.426 432.71C407.278 435.387 401.791 434.989 395.051 438.269L394.316 438.655C390.952 435.833 386.141 429.515 387.793 425.789C389.601 421.666 399.983 422.003 406.59 425.596C408.628 426.573 410.328 428.129 411.474 430.07L411.462 430.082Z" fill="black" opacity="0.1"/>
    <path d="M420.146 419.037C408.077 426.718 396.007 434.411 383.949 442.091C373.652 423.619 363.367 405.147 353.07 386.687C352.443 385.565 351.828 384.456 351.213 383.347C350.188 381.502 349.163 379.657 348.138 377.825C348.138 377.825 348.138 377.82 348.138 377.812C346.872 374.509 345.413 371.06 343.713 367.515C342.99 366.008 342.254 364.537 341.519 363.126C341.362 362.958 341.181 362.704 341.205 362.415C341.266 361.728 342.459 361.33 342.773 361.221C344.015 360.775 346.523 359.376 351.647 355.868C351.9 356.012 352.298 356.241 352.756 356.555C354.541 357.725 355.686 358.894 356.096 359.292C358.206 361.414 360.485 363.367 362.499 365.586C368.757 372.447 377.149 380.128 383.672 386.096C385.228 387.519 386.325 388.495 387.458 389.508C398.358 399.359 409.258 409.21 420.158 419.061L420.146 419.037Z" fill="#DADCE0"/>
    <path d="M358.217 431.927C354.648 448.024 351.188 464.555 347.884 481.471C344.363 499.618 341.156 517.379 338.262 534.778L331.389 535.622C330.642 531.088 329.918 526.555 329.195 521.997C327.061 508.384 325.071 494.892 323.238 481.508C322.394 475.394 321.345 467.485 320.176 458.188L329.822 431.782L343.121 431.855L358.229 431.927H358.217Z" fill="black" opacity="0.1"/>
    <path d="M470.044 259.986C469.562 259.962 468.706 259.95 467.657 260.107C455.274 261.963 449.86 283.04 448.015 290.263C446.013 298.052 446.496 301.295 447.967 303.864C450.704 308.674 456.274 309.868 456.733 309.627C457.468 309.229 475.337 297.087 476.049 295.134C476.76 293.18 475.832 275.613 475.542 274.093C475.253 272.574 470.044 259.986 470.044 259.986Z" fill="#DADCE0"/>
    <path d="M544.433 157.931L519.172 120.203L520.546 119.274L544.083 154.41L563.17 108.193L564.701 108.832L544.433 157.931Z" fill="#0b1b3b" class="tblr-illustrations tblr-illustrations-vocate tblr-illustrations-valentines-day-balloons-c"/>
    <path d="M537.902 87.635C532.56 98.2095 527.207 108.784 521.865 119.359L525.904 123.108L516.692 126.026L518.079 120.54L507.275 115.09L486.404 104.54C477.143 99.8252 473.719 88.1415 478.856 79.2791C483.968 70.4409 495.736 67.5833 504.442 73.1901C506.431 68.4997 510.025 65.003 514.209 63.0617C518.26 61.1687 522.854 60.7466 527.074 62.1091C536.768 65.22 542.423 77.0605 537.914 87.623L537.902 87.635Z" fill="#1a3263" style="fill: #1a3263; fill: var(--tblr-illustrations-primary, var(--tblr-primary, #1a3263));"/>
    <path d="M488.608 91.1437C487.897 84.2106 492.937 78.013 499.858 77.3016C500.412 77.2414 500.955 77.2414 501.486 77.2534C498.592 75.0469 494.745 74.0702 490.778 75.0469C485.136 76.4335 481.12 81.6906 481.241 87.5144C481.289 89.9983 482.049 92.2772 483.291 94.1823C485.075 96.8952 489.223 95.1227 488.692 91.9154C488.656 91.6622 488.62 91.409 488.596 91.1558L488.608 91.1437Z" fill="white" opacity="0.2"/>
    <path d="M537.904 87.635C532.562 98.2095 527.209 108.784 521.867 119.359L525.906 123.108L516.694 126.026L518.081 120.54L507.277 115.09C527.184 91.9034 518.117 70.043 514.198 63.0617C518.25 61.1687 522.844 60.7466 527.064 62.1091C536.758 65.22 542.413 77.0605 537.904 87.623V87.635Z" fill="black" opacity="0.1"/>
    <path d="M537.224 161.042C536.693 159.993 536.223 158.896 535.898 157.799C535.741 157.184 535.644 156.508 535.56 155.833C534.885 149.744 538.201 144.318 542.939 143.824C547.208 143.366 551.126 146.983 552.404 152.047C552.561 152.662 552.73 153.277 552.754 153.88C552.778 154.483 552.802 155.098 552.838 155.7C552.694 160.994 549.643 165.431 545.375 165.889C542.18 166.42 539.093 164.334 537.236 161.054L537.224 161.042Z" fill="#FFCB9D" style="fill: #FFCB9D; fill: var(--tblr-illustrations-skin, #FFCB9D);"/>
    <path d="M537.225 161.041C536.694 159.992 536.224 158.895 535.898 157.798C541.505 156.291 547.076 154.446 552.405 152.046C552.562 152.661 552.731 153.276 552.755 153.879C552.779 154.482 552.803 155.097 552.839 155.7C552.695 160.993 549.644 165.43 545.376 165.888C542.18 166.419 539.094 164.333 537.237 161.053L537.225 161.041Z" fill="black" opacity="0.1"/>
    <path d="M547.426 254.258C546.293 261.421 545.268 268.92 544.4 276.71C543.821 281.858 543.339 286.874 542.953 291.781C542.772 293.964 542.615 296.122 542.47 298.256C542.229 303.622 541.988 308.964 541.747 314.329C541.711 315.077 541.675 315.836 541.65 316.584C541.663 325.627 541.578 334.598 541.506 343.629V343.653C541.036 344.087 540.493 344.533 539.878 344.98C538.624 345.884 537.406 346.487 536.381 346.909C531.896 348.163 527.41 349.417 522.925 350.671L500.076 352.757L486.909 353.962C486.113 349.634 485.354 345.329 484.594 341.025C483.521 335.02 482.472 328.991 481.351 322.95C481.302 322.673 481.254 322.396 481.206 322.106C480.977 320.876 480.76 319.634 480.543 318.405C480.036 315.607 477.625 305.274 475.225 294C472.235 279.905 469.269 264.326 470.065 259.986H470.113C470.836 259.913 471.572 259.841 472.295 259.781C472.995 259.708 473.694 259.648 474.381 259.588C477.649 259.274 480.916 258.985 484.172 258.695C485.764 258.551 487.367 258.418 488.959 258.286C490.333 258.165 491.72 258.056 493.095 257.936C497.339 257.586 501.571 257.249 505.791 256.935C506.925 256.851 508.07 256.766 509.204 256.682C512.941 256.405 516.655 256.151 520.381 255.898C523.817 255.669 527.254 255.44 530.678 255.235C536.273 254.897 541.855 254.584 547.438 254.282L547.426 254.258Z" fill="#DADCE0"/>
    <path d="M542.953 291.794C542.773 293.976 542.616 296.135 542.471 298.269C542.23 303.634 541.989 308.976 541.748 314.342C541.711 315.089 541.675 315.849 541.651 316.596C541.663 325.64 541.579 334.61 541.506 343.642V343.666C541.253 345.462 541 347.259 540.747 349.055L522.938 350.671L500.089 352.757L486.922 353.963C486.138 349.634 485.366 345.33 484.607 341.025C483.534 335.02 482.473 328.992 481.363 322.951C488.55 322.336 498.377 320.648 509.192 316.114C526.169 308.988 537.166 298.365 542.978 291.794H542.953Z" fill="black" opacity="0.1"/>
    <path d="M515.484 197.938C516.087 200.82 516.834 205.088 517.751 210.454C517.919 211.563 518.088 212.66 518.112 213.046C518.824 218.882 518.763 224.754 518.064 230.626C517.847 231.747 517.642 232.869 517.425 233.99C516.509 237.993 504.15 245.662 492.14 247.217C480.131 248.773 473.246 238.451 477.129 232.386C478.395 229.951 479.227 227.406 479.588 224.669C480.143 221.076 480.577 217.519 480.589 213.878C480.674 211.768 480.686 210.454 480.686 210.454L487.932 200.349L509.925 195.044C510.612 198.806 512.192 201.181 513.446 201.085C514.712 200.988 515.424 198.492 515.484 197.95V197.938Z" fill="#FFCB9D" style="fill: #FFCB9D; fill: var(--tblr-illustrations-skin, #FFCB9D);"/>
    <path d="M515.69 197.926C516.293 200.807 517.04 205.076 517.957 210.441C518.125 211.551 518.294 212.648 518.318 213.034C519.03 218.87 518.969 224.742 518.27 230.614C516.811 230.529 515.219 230.107 513.917 229.444C512.458 228.709 511.036 227.708 509.962 226.297C508.781 224.935 507.901 223.331 507.286 221.751C506.731 220.666 506.333 219.653 506.008 218.472C498.267 223.307 489.091 225.453 480.023 224.549C480.578 220.956 481.012 217.399 481.024 213.757C481.109 211.647 481.121 210.333 481.121 210.333L488.367 200.229L510.36 194.923C511.048 198.685 512.627 201.061 513.881 200.964C515.147 200.868 515.642 198.456 515.69 197.926Z" fill="black" opacity="0.1"/>
    <path d="M519.612 201.989C520.601 206.547 519.889 211.37 517.442 215.445C516.935 216.157 516.441 216.88 515.983 217.7C514.91 219.943 514.451 222.451 514.608 224.862C513.294 223.813 512.269 222.523 511.762 220.895C511.292 218.351 510.931 215.759 510.846 213.19C510.846 213.19 510.798 213.082 510.822 212.805C510.846 212.527 510.762 212.31 510.653 211.695C510.436 210.477 510.111 209.308 509.833 208.247L509.785 208.138C504.998 212.865 491.132 225.019 478.472 219.545C476.434 218.652 474.685 217.507 473.009 216.205C472.853 216.132 472.648 215.952 472.612 215.843C472.214 215.481 471.804 215.12 471.514 214.71L471.358 214.637C470.417 213.576 469.718 212.419 469.115 211.213L468.934 210.767C467.945 207.897 468.452 204.847 470.092 202.387C472.515 198.589 476.542 195.586 478.701 194.091C487.153 188.074 501.164 183.661 511.232 190.136C513.848 191.848 515.922 194.164 517.357 196.852C518.467 198.372 519.166 200.18 519.6 201.965L519.612 201.989Z" fill="#0b1b3b" class="tblr-illustrations tblr-illustrations-vocate tblr-illustrations-valentines-day-balloons-c"/>
    <path d="M509.795 208.151C505.008 212.877 491.142 225.031 478.482 219.557C476.444 218.665 474.696 217.519 473.02 216.217C472.863 216.145 472.658 215.964 472.622 215.856C472.224 215.494 471.814 215.132 471.524 214.722L471.368 214.65C470.427 213.589 469.728 212.431 469.125 211.225C472.164 213.034 475.576 214.433 479.097 215.144C496.46 218.653 510.627 205.607 512.786 203.46L512.966 203.255C512.05 204.907 511.025 206.607 509.795 208.127V208.151Z" fill="black" opacity="0.5"/>
    <path d="M511.036 254.548C508.324 258.033 504.694 260.854 500.558 262.591L499.582 261.879L498.304 263.423C498.207 263.459 498.099 263.495 497.99 263.519L497.399 263.7L488.609 258.045L492.311 257.466L508.36 254.958L511.049 254.548H511.036Z" fill="#FFCB9D" style="fill: #FFCB9D; fill: var(--tblr-illustrations-skin, #FFCB9D);"/>
    <path d="M511.036 254.548C508.324 258.033 504.694 260.854 500.558 262.591L499.582 261.879L498.304 263.423C498.207 263.459 498.099 263.495 497.99 263.519L497.399 263.7L488.609 258.045L492.311 257.466L508.36 254.958L511.049 254.548H511.036Z" fill="black" opacity="0.1"/>
    <path d="M499.642 261.794L499.569 261.891L498.291 263.422L493.07 269.692L482.785 257.007L485.498 253.475L492.299 257.478L499.473 261.698L499.642 261.794Z" fill="#1a3263" style="fill: #1a3263; fill: var(--tblr-illustrations-primary, var(--tblr-primary, #1a3263));"/>
    <path d="M523.361 251.16L511.231 270.283L500.548 262.591L499.571 261.891L499.391 261.759L499.475 261.698L508.349 254.958L518.393 247.362L523.361 251.16Z" fill="#1a3263" style="fill: #1a3263; fill: var(--tblr-illustrations-primary, var(--tblr-primary, #1a3263));"/>
    <path d="M499.642 261.794L499.569 261.891L498.291 263.422L493.07 269.692L482.785 257.007L485.498 253.475L492.299 257.478L499.473 261.698L499.642 261.794Z" fill="black" opacity="0.1"/>
    <path d="M566.031 160.198C563.692 172.038 561.353 183.867 559.002 195.707C557.977 200.88 556.964 206.041 555.939 211.213C554.806 216.965 553.672 222.728 552.527 228.48C551.55 233.411 550.574 238.331 549.597 243.262C547.39 254.464 545.172 265.665 542.953 276.867C538.986 272.478 535.031 268.089 531.076 263.7C529.34 228.516 527.604 193.32 525.855 158.136L566.019 160.21L566.031 160.198Z" fill="#DADCE0"/>
    <path d="M541.496 343.629V343.653C541.242 345.45 540.989 347.247 540.736 349.043C533.345 401.602 525.941 454.161 518.562 506.72C515.62 506.744 512.678 506.756 509.736 506.793C505.54 466.966 501.344 427.128 497.16 387.302C489.274 392.728 481.401 398.142 473.515 403.568C469.247 426.766 464.99 449.965 460.722 473.176C458.057 473.031 455.38 472.899 452.716 472.754C449.605 447.445 446.494 422.148 443.371 396.839C457.888 382.551 472.394 368.263 486.911 353.963L500.186 351.455L541.508 343.641L541.496 343.629Z" fill="#1a3263" style="fill: #1a3263; fill: var(--tblr-illustrations-primary, var(--tblr-primary, #1a3263));"/>
    <path d="M604.3 79.9059C591.278 90.0102 578.268 100.114 565.258 110.219L569.08 119.792L550.982 117.345L558.747 107.964L552.223 99.5719L529.652 70.501C520.85 59.0705 523.49 42.3948 535.198 34.3283C546.858 26.2859 563.341 29.6861 570.913 41.9005C576.905 36.571 584.55 34.4007 591.7 35.1482C596.993 35.6908 602.009 37.825 605.88 41.4543C616.201 51.1245 616.237 69.3315 604.312 79.9059H604.3Z" fill="#A6A9B3"/>
    <path d="M506.624 539.601L517.753 518.078C517.753 518.078 513.014 513.87 509.168 515.775C505.321 517.668 503.983 533.042 506.624 539.613V539.601Z" fill="#0b1b3b" class="tblr-illustrations tblr-illustrations-vocate tblr-illustrations-valentines-day-balloons-c"/>
    <path d="M440.852 500.8L460.035 485.982C460.035 485.982 457.515 480.17 453.235 480.266C448.954 480.363 441.237 493.735 440.852 500.8Z" fill="#0b1b3b" class="tblr-illustrations tblr-illustrations-vocate tblr-illustrations-valentines-day-balloons-c"/>
    <path d="M540.784 58.7933C541.399 48.0742 550.599 39.8871 561.306 40.5141C562.162 40.5623 562.982 40.6829 563.802 40.8396C559.931 36.7762 554.325 34.3406 548.067 34.847C539.132 35.5705 531.741 42.588 530.487 51.4623C529.956 55.2605 530.535 58.9019 531.97 62.1092C534.008 66.679 540.772 65.003 540.748 59.987C540.748 59.5891 540.748 59.1912 540.784 58.7933Z" fill="white" opacity="0.2"/>
    <path d="M604.303 79.9062C591.281 90.0104 578.271 100.115 565.261 110.219L569.083 119.793L550.984 117.345L558.749 107.964L552.226 99.5721C588.688 80.6778 592.257 49.4126 591.703 35.1484C596.996 35.691 602.012 37.8252 605.882 41.4545C616.204 51.1247 616.24 69.3317 604.315 79.9062H604.303Z" fill="black" opacity="0.1"/>
    <path d="M477.542 337.348L469.922 338.035L471.441 326.87L477.542 337.348Z" fill="#A6A9B3"/>
    <path d="M495.423 278.94C492.011 277.071 488.056 276.493 484.198 277.071L484.246 277.047L477.337 277.638L479.7 278.325C476.204 279.76 473.008 282.22 470.705 285.669C466.509 281.665 460.902 280.062 455.561 280.725L455.597 280.701L448.99 281.292L451.039 281.882C448.387 282.919 445.951 284.571 443.974 286.85C437.149 294.724 438.331 307.047 446.675 313.522L477.53 337.335C485.464 327.05 493.41 316.765 501.344 306.48C507.867 296.798 504.491 283.884 495.411 278.928L495.423 278.94Z" fill="#A6A9B3"/>
    <path d="M469.921 338.034L439.065 314.221C430.721 307.734 429.54 295.423 436.364 287.549C443.165 279.7 455.463 279.097 463.084 286.368C468.775 277.879 479.784 275.251 487.802 279.64C496.893 284.595 500.269 297.509 493.734 307.191C485.8 317.476 477.854 327.761 469.921 338.046V338.034Z" fill="#1a3263" style="fill: #1a3263; fill: var(--tblr-illustrations-primary, var(--tblr-primary, #1a3263));"/>
    <path d="M451.544 294.266L475.611 294.302L469.546 300.921L472.211 306.154L448.578 301.44L451.544 294.266Z" fill="#A6A9B3"/>
    <path d="M443.077 298.173L427.535 316.549L436.494 316.211L438.761 321.625L450.469 300.56L443.077 298.173Z" fill="#A6A9B3"/>
    <path d="M439.197 306.179C438.691 306.408 438.185 306.625 437.678 306.854C435.291 309.603 432.903 312.364 430.504 315.113C432.927 314.378 435.339 313.642 437.763 312.907C438.377 314.595 439.004 316.283 439.619 317.971C442.2 312.581 444.792 307.204 447.372 301.814C444.479 302.779 441.585 303.755 438.691 304.72L439.197 306.179Z" fill="black" opacity="0.1"/>
    <path d="M460.719 296.219C461.213 295.978 461.72 295.737 462.214 295.495C465.855 295.459 469.509 295.423 473.15 295.387C471.028 296.749 468.894 298.124 466.772 299.487C467.652 301.054 468.544 302.609 469.424 304.177C463.649 302.658 457.873 301.138 452.098 299.631C454.714 298.052 457.319 296.472 459.935 294.893L460.707 296.219H460.719Z" fill="black" opacity="0.1"/>
    <path d="M446.616 296.279L447.363 297.907C447.677 298.594 447.556 299.402 447.05 299.957L441.732 305.781L436.318 311.701C435.414 312.69 433.798 312.436 433.232 311.231L427.541 298.944C426.986 297.75 427.794 296.376 429.12 296.291L436.138 295.797L444.783 295.194C445.555 295.146 446.278 295.58 446.616 296.291V296.279Z" fill="#DADCE0"/>
    <path d="M462.08 282.968L467.771 295.254C468.325 296.46 467.481 297.859 466.131 297.919L459.246 298.172L450.239 298.498C449.479 298.534 448.78 298.1 448.467 297.413L447.719 295.785C447.393 295.073 447.538 294.242 448.081 293.675L453.507 288.128L459.041 282.449C459.957 281.509 461.537 281.774 462.08 282.968Z" fill="#DADCE0"/>
    <path d="M446.61 296.279L447.358 297.907C447.672 298.594 447.551 299.402 447.045 299.957L441.727 305.781C440.546 304.635 439.34 303.092 438.182 301.054C436.856 298.691 436.277 296.991 436.145 295.797L444.79 295.194C445.562 295.146 446.285 295.58 446.623 296.291L446.61 296.279Z" fill="black" opacity="0.1"/>
    <path d="M459.238 298.16L450.231 298.486C449.472 298.522 448.772 298.088 448.459 297.401L447.711 295.773C447.386 295.061 447.53 294.229 448.073 293.663L453.499 288.116C454.777 289.141 456.224 290.684 457.647 292.951C459.009 295.158 459.359 296.822 459.238 298.16Z" fill="black" opacity="0.1"/>
    <path d="M449.202 289.463L440.973 293.27C439.728 293.846 439.186 295.323 439.762 296.568L442.931 303.418C443.507 304.663 444.984 305.205 446.229 304.629L454.458 300.822C455.703 300.246 456.245 298.769 455.669 297.524L452.499 290.674C451.923 289.429 450.447 288.887 449.202 289.463Z" fill="#DADCE0"/>
    <path d="M443.371 293.587L442.036 294.205C441.431 294.485 441.168 295.201 441.448 295.806L444.612 302.645C444.892 303.249 445.609 303.513 446.213 303.233L447.548 302.615C448.152 302.336 448.416 301.619 448.136 301.015L444.971 294.175C444.692 293.571 443.975 293.308 443.371 293.587Z" fill="black" opacity="0.1"/>
    <path d="M500.171 351.443L497.144 387.29C489.259 392.716 481.385 398.13 473.499 403.556C469.231 426.755 464.975 449.953 460.706 473.164C458.042 473.019 455.365 472.887 452.7 472.742C449.589 447.433 446.478 422.136 443.355 396.828C457.873 382.539 472.378 368.251 486.895 353.951L500.171 351.443Z" fill="black" opacity="0.1"/>
    <path d="M490.912 296.316C491.322 295.218 491.828 294.133 492.407 293.145C492.757 292.614 493.191 292.084 493.637 291.565C497.676 286.959 503.922 285.741 507.479 288.912C510.698 291.746 510.674 297.087 507.804 301.44C507.455 301.971 507.117 302.513 506.683 302.935C506.249 303.369 505.827 303.791 505.393 304.225C501.378 307.686 496.048 308.434 492.841 305.6C490.297 303.598 489.754 299.909 490.912 296.328V296.316Z" fill="#FFCB9D" style="fill: #FFCB9D; fill: var(--tblr-illustrations-skin, #FFCB9D);"/>
    <path d="M490.912 296.315C491.322 295.218 491.828 294.133 492.407 293.144C497.303 296.267 502.427 299.125 507.793 301.44C507.443 301.97 507.105 302.513 506.671 302.935C506.237 303.369 505.815 303.791 505.381 304.225C501.366 307.685 496.037 308.433 492.829 305.6C490.285 303.598 489.742 299.908 490.9 296.327L490.912 296.315Z" fill="black" opacity="0.1"/>
    <path d="M512.316 320.214C494.58 330.945 481.039 338.143 476.312 340.277C476.312 340.277 470.284 343.014 465.159 343.268C464.038 343.328 462.82 343.328 462.82 343.328C461.494 343.34 459.986 343.316 458.479 343.159C455.079 342.81 451.667 341.809 450.34 339.253C450.304 339.192 450.28 339.144 450.244 339.048C449.593 337.673 448.954 335.756 448.532 333.043C448.435 332.488 448.363 331.922 448.303 331.307C448.013 328.654 447.917 325.35 448.134 321.214C454.054 319.538 462.82 316.319 471.996 309.88C481.437 303.261 487.538 295.893 491.143 290.805C494.109 295.592 497.449 300.608 501.163 305.757C503.743 309.326 506.517 312.871 507.53 314.173C509.435 316.62 511.074 318.67 512.316 320.214Z" fill="#DADCE0"/>
    <path d="M588.074 23.8143L588.062 23.8384V23.8022L588.074 23.8143Z" fill="black" opacity="0.1"/>
    <path d="M356.928 281.448L346.245 270.765C343.387 267.86 343.532 263.097 346.522 260.384C349.512 257.683 354.251 257.996 356.867 261.107C359.508 258.201 363.837 257.791 366.682 259.889C369.914 262.265 370.565 267.377 367.599 270.777C364.042 274.334 360.485 277.891 356.916 281.46L356.928 281.448Z" fill="#1a3263" style="fill: #1a3263; fill: var(--tblr-illustrations-primary, var(--tblr-primary, #1a3263));"/>
    <path d="M322.193 246.939L315.995 240.742C314.331 239.054 314.416 236.293 316.152 234.713C317.888 233.146 320.637 233.326 322.157 235.135C323.688 233.447 326.208 233.218 327.86 234.424C329.741 235.798 330.115 238.764 328.39 240.742C326.329 242.804 324.255 244.878 322.193 246.939Z" fill="#1a3263" style="fill: #1a3263; fill: var(--tblr-illustrations-primary, var(--tblr-primary, #1a3263));"/>
    <path d="M365.43 227.069L360.957 222.595C359.763 221.378 359.823 219.388 361.077 218.243C362.331 217.109 364.309 217.242 365.406 218.544C366.515 217.326 368.324 217.157 369.517 218.038C370.868 219.038 371.145 221.173 369.903 222.595C368.408 224.09 366.925 225.574 365.43 227.069Z" fill="#1a3263" style="fill: #1a3263; fill: var(--tblr-illustrations-primary, var(--tblr-primary, #1a3263));"/>
    <path d="M555.939 211.201C555.878 211.828 555.782 212.756 555.637 213.866C554.902 219.798 553.925 223.97 552.888 228.528C552.152 231.747 551.043 236.655 549.608 243.238C546.787 239.621 545.581 233.182 546.883 226.249C548.222 219.111 551.839 213.408 555.939 211.189V211.201Z" fill="#0b1b3b" class="tblr-illustrations tblr-illustrations-vocate tblr-illustrations-valentines-day-balloons-c"/>
    <path d="M462.808 343.328C460.891 343.533 459.336 343.436 458.287 343.316C455.887 343.038 452.27 342.616 450.413 339.891C450.208 339.59 450.1 339.373 449.907 339.011C448.725 336.672 448.508 334.477 448.52 333.055C451.45 333.248 454.235 334.043 456.623 335.478C459.746 337.371 461.819 340.12 462.808 343.34V343.328Z" fill="#0b1b3b" class="tblr-illustrations tblr-illustrations-vocate tblr-illustrations-valentines-day-balloons-c"/>
    <path d="M328.28 292.156C328.244 292.626 328.195 293.072 328.135 293.518C328.123 293.542 328.123 293.567 328.123 293.591C327.641 295.894 326.7 298.076 325.326 300.005C320.587 306.757 311.399 308.216 304.333 308.216C301.018 308.216 298.16 307.891 296.46 307.65C296.279 307.602 296.086 307.565 295.905 307.517C294.06 306.782 292.3 305.841 290.66 304.72C294.386 305.335 302.067 306.082 311.025 303.092C319.984 300.102 325.663 294.881 328.28 292.156Z" fill="black" opacity="0.5"/>
</svg>
