<svg xmlns="http://www.w3.org/2000/svg" width="800" height="600" fill="none" viewBox="0 0 800 600">
    <style>
        :where(.theme-dark, [data-theme="dark"]) .tblr-illustrations-vampire-a { fill: black; opacity: 0.07; } :where(.theme-dark, [data-theme="dark"]) .tblr-illustrations-vampire-b { fill: black; opacity: 0.3; } :where(.theme-dark, [data-theme="dark"]) .tblr-illustrations-vampire-c { fill: #24304d; }
        @media (prefers-color-scheme: dark) { .tblr-illustrations-vampire-a { fill: black; opacity: 0.07; } .tblr-illustrations-vampire-b { fill: black; opacity: 0.3; } .tblr-illustrations-vampire-c { fill: #24304d; } }
    </style>
    <path d="M146.883 313.636C146.883 357.663 193.379 389.604 213.929 425.142C235.132 461.819 240.228 517.879 276.847 539.095C312.369 559.656 362.902 536.662 406.889 536.662C450.877 536.662 501.41 559.656 536.919 539.095C573.551 517.879 578.646 461.819 599.837 425.142C620.374 389.591 666.883 357.663 666.883 313.636C666.883 269.609 620.387 237.681 599.837 202.143C578.633 165.467 573.538 109.406 536.919 88.1904C501.41 67.6287 450.864 90.6232 406.889 90.6232C362.915 90.6232 312.369 67.6287 276.847 88.1904C240.214 109.406 235.119 165.467 213.929 202.143C193.392 237.694 146.883 269.622 146.883 313.636Z" fill="#1a3263" style="fill: #1a3263; fill: var(--tblr-illustrations-primary, var(--tblr-primary, #1a3263));" opacity="0.02" class="tblr-illustrations tblr-illustrations-vocate tblr-illustrations-vampire-a"/>
    <path d="M386.383 430.643C559.524 430.643 699.883 426.165 699.883 420.643C699.883 415.12 559.524 410.643 386.383 410.643C213.242 410.643 72.8828 415.12 72.8828 420.643C72.8828 426.165 213.242 430.643 386.383 430.643Z" fill="#d9e2f3" opacity="0.5" class="tblr-illustrations tblr-illustrations-vocate tblr-illustrations-vampire-b"/>
    <path d="M324.716 354.643C305.746 359.065 286.777 363.515 267.821 368.004C234.491 375.882 201.174 383.867 167.883 391.945C170.593 397.506 173.303 403.081 176.012 408.643C235.303 405.862 294.593 403.081 353.883 400.287C344.156 385.072 334.442 369.857 324.716 354.643Z" fill="#1a3263" style="fill: #1a3263; fill: var(--tblr-illustrations-primary, var(--tblr-primary, #1a3263));"/>
    <path d="M324.716 354.643C305.746 359.065 286.777 363.515 267.821 368.004C234.491 375.882 201.174 383.867 167.883 391.945C170.593 397.506 173.303 403.081 176.012 408.643C235.303 405.862 294.593 403.081 353.883 400.287C344.156 385.072 334.442 369.857 324.716 354.643Z" fill="black" opacity="0.1"/>
    <path d="M514.883 260.643H392.883V350.643H514.883V260.643Z" fill="#DADCE0"/>
    <path d="M462.915 363.33C456.658 384.374 441.405 399.894 422.019 407.79C403.959 415.152 382.291 415.869 360.978 408.22C324.607 395.19 300.566 361.896 299.897 327.886C299.753 320.537 300.697 313.162 302.861 305.943C303.924 302.398 305.222 299.023 306.77 295.805C307.74 293.772 308.803 291.83 309.957 289.941C317.748 277.054 329.526 267.333 343.481 261.599C353.685 257.403 365.057 255.319 376.861 255.683C386.003 255.957 395.433 257.703 404.798 261.052C448.999 276.897 475.021 322.7 462.915 363.343V363.33Z" fill="#DADCE0"/>
    <path d="M349.87 280.949C348.712 280.949 323.063 286.683 309.883 289.643C317.696 276.456 329.508 266.509 343.503 260.643C344.687 264.376 349.883 280.949 349.883 280.949H349.87Z" fill="black" opacity="0.1"/>
    <path d="M660.883 418.439C640.103 418.57 619.337 418.714 598.545 418.859C556.19 419.134 513.823 419.423 471.468 419.711C424.94 420.013 378.411 420.328 331.883 420.643C345.423 419.016 479.608 402.03 504.157 359.78C506.244 356.172 507.549 352.395 507.901 348.407C508.644 340.065 505.553 327.341 485.791 310.355L553.934 306.643C587.105 319.773 594.384 334.241 598.401 344.564C605.719 363.452 596.601 379.521 607.063 384.531C607.741 384.859 608.497 385.148 609.332 385.358C631.82 391.431 660.883 418.439 660.883 418.439Z" fill="#0b1b3b" class="tblr-illustrations tblr-illustrations-vocate tblr-illustrations-vampire-c"/>
    <path d="M660.87 418.439C640.091 418.57 619.326 418.714 598.534 418.859C556.181 419.134 513.816 419.423 471.463 419.711C424.936 420.013 378.41 420.328 331.883 420.643C345.422 419.016 479.602 402.03 504.15 359.78C506.237 356.172 507.542 352.395 507.894 348.407C508.637 340.065 505.546 327.341 485.785 310.355L553.938 306.643C587.108 319.773 594.386 334.241 598.404 344.564C605.721 363.452 596.604 379.521 607.065 384.531C607.743 384.859 608.499 385.148 609.334 385.358C631.822 391.431 660.883 418.439 660.883 418.439H660.87Z" fill="black" opacity="0.15"/>
    <path d="M454.653 257.103C447.384 248.814 430.7 232.211 404.903 226.603C353.95 215.517 300.578 254.409 304.043 269.144C305.18 273.965 313.418 279.65 349.701 280.643C351.91 271.967 354.133 263.278 356.343 254.603C356.97 253.03 357.611 251.47 358.239 249.897C360.775 249.601 364.175 249.498 368.071 250.168C374.896 251.354 379.799 254.358 382.48 256.304C387.984 258.457 396.091 261.254 406.158 263.394C431.354 268.731 457.883 267.61 457.883 267.61C456.811 264.103 455.725 260.61 454.653 257.103Z" fill="#DADCE0"/>
    <path d="M383.883 248.746C389.092 248.653 394.902 248.851 401.168 249.578C412.931 250.938 422.958 253.737 430.883 256.643C424.381 246.237 413.454 240.03 402.265 240.69C392.735 241.258 386.207 246.62 383.883 248.746Z" fill="black" opacity="0.1"/>
    <path d="M405.139 331.553C411.679 334.056 429.223 339.689 445.992 331.92C460.463 325.212 468.881 311.076 472.86 304.381C480.594 291.385 481.041 282.856 484.783 282.647C488.237 282.45 493.385 289.381 500.883 320.627C500.883 320.627 475.893 355.214 473.739 357.52C471.586 359.825 381.883 368.643 381.883 368.643C389.644 356.288 397.405 343.921 405.165 331.566L405.139 331.553Z" fill="black" opacity="0.1"/>
    <path d="M424.87 403.278C420.471 405.77 406.818 413.079 388.27 414.423C381.183 414.945 373.364 414.592 365.076 412.765C337.235 406.619 316.233 386.508 306.509 363.826C300.244 349.197 299.644 335.846 299.944 327.898C304.786 326.149 312.174 323.944 321.35 323.056C363.497 318.919 393.948 347.108 396.402 349.471C399.104 352.068 401.571 354.704 403.79 357.392C418.918 375.611 423.421 395.069 424.883 403.278H424.87Z" fill="#1a3263" style="fill: #1a3263; fill: var(--tblr-illustrations-primary, var(--tblr-primary, #1a3263));"/>
    <path d="M424.87 403.503C420.545 405.995 407.12 413.299 388.883 414.643C399.189 394.073 402.859 370.295 404.143 357.643C419.018 375.851 423.445 395.299 424.883 403.503H424.87Z" fill="black" opacity="0.1"/>
    <path d="M373.119 360.69C371.379 358.925 369.741 356.976 368.385 354.962C367.669 353.811 367.055 352.503 366.44 351.182C361.182 339.241 364.291 326.032 373.387 321.912C381.575 318.185 391.708 322.958 397.504 332.401C398.22 333.552 398.937 334.69 399.384 335.906C399.832 337.123 400.267 338.339 400.715 339.555C403.824 350.424 400.612 361.449 392.437 365.176C386.424 368.354 378.94 366.144 373.119 360.69Z" fill="#FFCB9D" style="fill: #FFCB9D; fill: var(--tblr-illustrations-skin, #FFCB9D);"/>
    <path d="M372.687 360.745C370.921 358.992 369.259 357.057 367.883 355.057C378.219 348.343 388.244 340.98 397.438 332.643C398.165 333.785 398.892 334.915 399.347 336.123C399.801 337.331 400.243 338.538 400.697 339.746C403.853 350.538 400.593 361.485 392.296 365.187C386.192 368.342 378.596 366.148 372.687 360.732V360.745Z" fill="black" opacity="0.1"/>
    <path d="M517.075 325.133C524.673 327.667 523.72 339.304 523.864 342.217C524.712 360.437 497.466 387.8 467.477 397.961C418.193 414.666 371.181 381.7 363.883 376.411C377.682 361.39 391.482 346.37 405.281 331.337C406.208 332.891 418.742 353.358 440.035 354.037C460.819 354.703 481.629 336.248 484.619 309.643C485.716 310.4 487.322 311.458 489.293 312.647C492.126 314.371 497.596 317.492 505.534 320.718C514.62 324.415 514.268 324.18 517.088 325.12L517.075 325.133Z" fill="#DADCE0"/>
    <path d="M615.883 303.149L582.769 292.158L574.884 295.171L526.551 313.643C526.551 313.643 479.098 300.202 460.888 282.057C453.803 275.009 451.14 267.241 457.411 259.289C479.819 230.861 481.197 178.643 481.197 178.643C489.475 182.114 497.373 186.044 504.917 190.289C545.05 212.94 574.648 244.878 593.12 269.009C608.195 288.686 615.87 303.149 615.87 303.149H615.883Z" fill="#1a3263" style="fill: #1a3263; fill: var(--tblr-illustrations-primary, var(--tblr-primary, #1a3263));"/>
    <path d="M592.883 268.647C543.349 266.155 488 275.967 460.876 281.643C453.803 274.623 451.145 266.885 457.405 258.965C479.775 230.651 481.15 178.643 481.15 178.643C489.415 182.1 497.299 186.015 504.83 190.242C544.895 212.802 574.442 244.613 592.883 268.647Z" fill="black" opacity="0.1"/>
    <path d="M135.896 382.643L155.485 410.643C155.485 410.643 163.766 407.433 163.882 401.379C164.011 395.337 145.761 383.604 135.883 382.643" fill="#0b1b3b" class="tblr-illustrations tblr-illustrations-vocate tblr-illustrations-vampire-c"/>
    <path d="M350.394 364.656C327.963 369.81 305.52 375.003 283.09 380.236C243.67 389.435 204.263 398.739 164.883 408.161C168.087 414.659 171.291 421.144 174.496 427.643C244.625 424.393 314.754 421.144 384.883 417.895C373.386 400.149 361.877 382.389 350.381 364.643L350.394 364.656Z" fill="#1a3263" style="fill: #1a3263; fill: var(--tblr-illustrations-primary, var(--tblr-primary, #1a3263));"/>
    <path d="M115.883 410.347L153.511 437.643C153.511 437.643 162.925 429.999 160.476 422.226C158.028 414.466 129.172 407.339 115.883 410.347Z" fill="#0b1b3b" class="tblr-illustrations tblr-illustrations-vocate tblr-illustrations-vampire-c"/>
    <path d="M518.857 410.212C518.857 410.212 506.363 412.857 501.462 413.886C500.089 409.418 494.757 405.328 487.778 403.921C485.936 403.543 484.106 403.387 482.381 403.439C477.611 403.53 473.52 405.119 471.285 407.724C467.116 404.82 456.818 397.643 456.818 397.643C456.818 397.643 459.693 402.019 458.556 405.184C457.419 408.35 454.4 408.74 454.949 412.44C455.498 416.152 457.628 416.973 456.373 419.122L455.119 421.271L469.991 415.032C471.547 419.356 476.774 423.264 483.57 424.645C487.543 425.452 491.385 425.244 494.522 424.254C496.744 423.551 498.587 422.443 499.88 421.024L511.198 432.643L510.885 430.181C510.571 427.719 512.845 427.784 514.805 424.58C516.766 421.375 514.139 419.851 514.335 416.491C514.531 413.13 518.883 410.225 518.883 410.225L518.857 410.212Z" fill="#1a3263" style="fill: #1a3263; fill: var(--tblr-illustrations-primary, var(--tblr-primary, #1a3263));"/>
    <path d="M493.883 423.788C490.761 424.747 486.921 424.936 482.937 424.166C474.08 422.426 467.85 416.535 469.025 410.984C469.953 406.594 475.23 403.756 481.774 403.643C478.247 406.657 468.803 416.9 493.883 423.801V423.788Z" fill="black" opacity="0.1"/>
    <path d="M410.125 410.623C409.289 408.091 411.602 404.643 411.602 404.643C411.602 404.643 403.302 410.279 400.047 412.493C397.746 409.602 392.674 408.157 387.197 409.165C385.746 409.43 384.373 409.854 383.131 410.398C379.693 411.87 377.184 414.257 376.334 416.843C372.452 415.928 362.883 413.674 362.883 413.674C362.883 413.674 366.242 416.061 366.347 418.739C366.452 421.418 364.36 422.598 365.85 425.171C367.34 427.744 369.118 427.73 368.831 429.693L368.543 431.643L377.51 422.638C379.903 425.383 384.844 426.723 390.177 425.728C393.301 425.145 396.033 423.871 398.007 422.214C399.419 421.034 400.426 419.668 400.949 418.249L412.557 423.487L411.602 421.763C410.648 420.039 412.321 419.416 412.818 416.472C413.302 413.528 410.949 413.17 410.112 410.637L410.125 410.623Z" fill="#DADCE0"/>
    <path d="M397.87 421.961C395.897 423.551 393.166 424.785 390.044 425.331C383.093 426.565 376.795 424.021 375.972 419.634C375.319 416.162 378.298 412.588 383.015 410.643C381.355 413.847 377.606 424.009 397.883 421.961H397.87Z" fill="black" opacity="0.1"/>
    <path d="M399.024 267.68C396.575 270.588 390.826 266.156 373.697 264.273C372.125 264.094 370.645 263.966 369.27 263.863C361.727 263.351 356.895 263.799 353.883 263.582C355.284 257.715 357.013 250.619 358.073 246.687C360.784 244.484 363.875 242.793 366.9 242.166C367.79 241.986 369.807 241.679 372.361 241.653C372.924 241.628 373.526 241.653 374.142 241.679C374.142 241.679 379.105 241.897 383.427 243.446C393.235 247.007 402.848 263.146 399.024 267.68Z" fill="#FFCB9D" style="fill: #FFCB9D; fill: var(--tblr-illustrations-skin, #FFCB9D);"/>
    <path d="M369.705 263.643C361.949 263.135 356.98 263.579 353.883 263.363C355.324 257.553 357.101 250.524 358.192 246.629C360.979 244.447 364.157 242.772 367.268 242.15C368.183 241.972 370.257 241.668 372.883 241.643C370.432 245.779 367.173 253.67 369.705 263.643Z" fill="black" opacity="0.1"/>
    <path d="M561.883 238.845C558.159 243.18 552.481 249.599 545.571 257.177C543.905 258.895 542.542 260.236 542.096 260.796C533.887 268.868 524.905 276.029 515.215 281.745C513.143 282.838 511.399 283.893 509.314 284.987C504.004 287.486 487.77 282.669 472.888 273.477C467.748 270.379 462.87 266.577 458.608 262.358C444.945 249.3 447.24 231.801 455.907 224.692C457.9 222.935 460.509 221.945 463.184 221.62C468.508 220.643 473.556 218.86 478.015 216.295C484.243 213.014 490.249 209.251 495.848 204.876C499.139 202.624 501.145 200.866 501.145 200.866L525.482 199.643L560.231 226.724C555.287 232.218 553.543 237.491 555.13 239.327C556.716 241.162 560.912 239.314 561.87 238.858L561.883 238.845Z" fill="#FFCB9D" style="fill: #FFCB9D; fill: var(--tblr-illustrations-skin, #FFCB9D);"/>
    <path d="M561.883 238.452C558.155 242.817 552.472 249.279 545.555 256.908C543.888 258.638 542.523 259.988 542.077 260.552C533.861 268.679 524.87 275.888 515.171 281.643C513.504 279.126 512.323 276.373 511.627 273.398C510.892 270.081 511.01 266.844 511.457 263.553C512.244 260.224 513.373 256.868 515.21 253.749C516.168 251.769 517.455 249.738 518.583 247.903C501.692 241.952 487.359 230.416 477.883 215.408C484.117 212.105 490.128 208.316 495.733 203.912C499.027 201.644 501.035 199.875 501.035 199.875L525.395 198.643L560.177 225.907C555.228 231.439 553.483 236.748 555.071 238.596C556.659 240.444 560.898 238.91 561.87 238.452" fill="black" opacity="0.1"/>
    <path d="M560.701 249.721C554.776 256.89 546.679 261.451 537.496 262.722C535.639 262.775 533.965 262.984 532.29 263.181C527.503 264.269 523.356 266.471 519.667 269.643C519.445 266.445 520.426 263.26 522.153 260.678C524.9 256.772 532.186 250.966 532.918 250.022C532.918 250.022 533.206 249.642 533.363 249.458C533.52 249.275 533.951 248.711 534.867 247.912C536.528 246.182 537.993 244.308 539.275 242.276L539.419 242.093C526.352 240.612 491.086 233.822 484.415 207.95C483.408 203.821 482.924 199.798 482.924 195.551C482.885 195.21 482.845 194.883 482.95 194.359C482.976 193.166 483.042 192.314 483.251 191.265L483.212 190.925C483.552 188.159 484.428 185.512 485.671 183.152L486.076 182.248C486.626 181.16 487.358 180.217 488.287 179.43C491.452 176.154 495.978 174.253 500.517 173.873C509.216 172.824 518.542 175.603 523.657 177.202C543.16 182.838 566.496 199.051 568.798 222.407C569.191 228.475 568.21 234.373 565.986 239.917C564.861 243.285 562.886 246.575 560.728 249.734" fill="#0b1b3b" class="tblr-illustrations tblr-illustrations-vocate tblr-illustrations-vampire-c"/>
    <path d="M539.467 241.643C526.388 240.16 491.093 233.364 484.416 207.465C483.408 203.333 482.924 199.305 482.924 195.054C482.885 194.713 482.845 194.385 482.95 193.86C482.976 192.666 483.042 191.813 483.251 190.764C483.251 190.764 483.395 190.58 483.212 190.423C483.552 187.654 484.429 185.004 485.673 182.643C486.668 189.504 488.671 196.235 491.813 202.663C507.261 233.639 544.468 239.517 550.359 240.501L550.883 240.606C547.204 241.052 543.329 241.354 539.467 241.643Z" fill="black" opacity="0.5"/>
    <path d="M481.883 255.492L469.883 259.643L472.896 248.643L481.883 255.492Z" fill="white"/>
    <path d="M467.883 244.643L454.883 243.29L462.481 233.643L467.883 244.643Z" fill="white"/>
    <path d="M615.856 302.725C605.838 299.752 596.397 298.704 587.667 298.953C572.967 299.372 562.225 303.446 554.152 306.576C545.579 309.89 533.009 315.863 519.782 326.643C513.839 324.573 508.856 322.53 505.017 320.84C495.958 316.871 488.516 312.824 485.768 310.846C485.439 310.611 483.454 309.17 480.679 307.349C479.93 306.864 479.391 306.511 479.325 306.472C466.545 298.259 451.148 288.056 453.042 280.563C456.473 267.02 515.719 265.042 566.222 280.498C587.838 287.113 604.641 295.941 615.883 302.739L615.856 302.725Z" fill="#0b1b3b" class="tblr-illustrations tblr-illustrations-vocate tblr-illustrations-vampire-c"/>
    <path d="M454.835 257.206C453.115 247.528 450.73 234.88 449.388 227.823C448.88 225.137 445.439 224.891 442.507 227.317L423.688 242.871C420.703 245.349 419.934 249.176 422.189 250.46L446.443 264.237C449.701 266.092 455.539 261.202 454.822 257.219L454.835 257.206Z" fill="#1a3263" style="fill: #1a3263; fill: var(--tblr-illustrations-primary, var(--tblr-primary, #1a3263));"/>
    <path d="M455.438 258.97C464.896 262.994 477.218 268.39 484.089 271.418C486.703 272.569 486.414 276.205 483.524 278.716L464.988 294.786C462.046 297.335 458.078 297.245 457.146 294.605L447.083 266.113C445.73 262.283 451.536 257.314 455.438 258.97Z" fill="#1a3263" style="fill: #1a3263; fill: var(--tblr-illustrations-primary, var(--tblr-primary, #1a3263));"/>
    <path d="M460.16 260.542L455.098 253.776C454.22 252.602 452.556 252.362 451.382 253.241L442.51 259.877C441.336 260.756 441.096 262.42 441.975 263.594L447.036 270.36C447.915 271.535 449.579 271.774 450.753 270.896L459.625 264.259C460.799 263.381 461.039 261.717 460.16 260.542Z" fill="#0b1b3b" class="tblr-illustrations tblr-illustrations-vocate tblr-illustrations-vampire-c"/>
    <path d="M342.896 94.6426V86.9645L368.501 56.9197L369.998 61.2852H343.391V51.6426H380.959V59.3207L355.288 89.3655L353.791 85H381.883V94.6426H342.883H342.896Z" fill="#A6A9B3"/>
    <path d="M394.883 144.643V138.746L413.916 115.696L415.034 119.043H395.268V111.643H423.189V117.539L404.117 140.589L403 137.242H423.883V144.643H394.896H394.883Z" fill="#1a3263" style="fill: #1a3263; fill: var(--tblr-illustrations-primary, var(--tblr-primary, #1a3263));"/>
    <path d="M433.896 190.643V186.718L447.029 171.347L447.789 173.578H434.149V168.643H453.403V172.567L440.243 187.939L439.483 185.707H453.883V190.643H433.883H433.896Z" fill="#A6A9B3"/>
    <path d="M564.735 383.79C562.235 398.009 556.161 409.647 549.387 414.772C546.459 417.016 543.377 418.028 540.398 417.509C530.541 415.771 525.451 397.867 529.026 377.511C532.588 357.142 543.48 342.04 553.35 343.779C555.254 344.116 556.99 345.05 558.505 346.516C564.852 352.536 567.623 367.352 564.748 383.803L564.735 383.79Z" fill="#1a3263" style="fill: #1a3263; fill: var(--tblr-illustrations-primary, var(--tblr-primary, #1a3263));"/>
    <path d="M564.728 383.789C562.212 397.949 556.1 409.539 549.283 414.643C542.91 408.648 540.134 393.867 543.027 377.522C545.543 363.362 551.629 351.772 558.459 346.643C564.845 352.638 567.634 367.393 564.741 383.776L564.728 383.789Z" fill="black" opacity="0.1"/>
    <path d="M611.555 381.633L607.248 406.096C605.325 417.008 595.71 424.886 584.607 424.637L543.883 423.783C555.118 422.405 566.418 405.978 570.211 384.469C573.991 363.066 569.039 343.882 559.042 338.643L599.003 357.459C608.183 361.766 613.293 371.667 611.541 381.62L611.555 381.633Z" fill="#DADCE0"/>
    <path d="M555.576 337.826C554.878 337.708 554.152 337.643 553.427 337.643C541.311 337.643 529.155 354.637 525.16 377.175C523.116 388.705 523.538 399.961 526.333 408.864C529.168 417.858 534.086 423.388 540.203 424.46C540.902 424.577 541.627 424.643 542.352 424.643C554.469 424.643 566.625 407.648 570.62 385.11C574.852 361.226 568.101 340.022 555.563 337.826H555.576ZM551.542 343.983C552.056 343.983 552.57 344.022 553.071 344.114C554.917 344.44 556.618 345.329 558.121 346.767C564.7 352.938 567.205 367.906 564.357 383.999C561.905 397.804 555.972 409.674 548.865 414.982C546.4 416.851 543.934 417.792 541.535 417.792C541.021 417.792 540.52 417.753 540.019 417.662C530.209 415.949 525.16 398.065 528.746 377.789C532.095 358.821 542.115 343.97 551.542 343.97V343.983Z" fill="#A6A9B3"/>
    <path d="M538.942 422.643C538.864 422.643 538.798 422.643 538.72 422.629C525.976 420.846 514.535 413.66 507.348 402.908C500.538 392.732 498.242 380.511 501.06 369.378C506.526 347.702 529.667 333.881 552.626 338.549C553.474 338.72 554.022 339.546 553.852 340.398C553.682 341.25 552.861 341.801 552.013 341.631C530.659 337.29 509.161 350.076 504.1 370.151C501.504 380.419 503.643 391.722 509.957 401.15C516.649 411.156 527.293 417.843 539.177 419.509C540.038 419.627 540.625 420.426 540.507 421.279C540.403 422.066 539.725 422.629 538.955 422.629L538.942 422.643Z" fill="#1a3263" style="fill: #1a3263; fill: var(--tblr-illustrations-primary, var(--tblr-primary, #1a3263));"/>
    <path d="M589.883 367.643C585.549 368.682 581.216 369.72 576.883 370.759C580.762 373.383 584.642 376.019 588.521 378.643C588.975 374.98 589.429 371.318 589.883 367.656V367.643Z" fill="#0b1b3b" class="tblr-illustrations tblr-illustrations-vocate tblr-illustrations-vampire-c"/>
    <path d="M586.883 386.643C582.22 388.032 577.545 389.435 572.883 390.838C576.997 394.11 581.11 397.37 585.224 400.643C585.773 395.98 586.334 391.318 586.883 386.655V386.643Z" fill="#0b1b3b" class="tblr-illustrations tblr-illustrations-vocate tblr-illustrations-vampire-c"/>
    <path d="M595.542 370.643L599.439 380.525L597.491 385.426L599.439 388.873L593.883 400.643L604.292 388.598L601.099 384.247L604.883 381.075L595.542 370.643Z" fill="#0b1b3b" class="tblr-illustrations tblr-illustrations-vocate tblr-illustrations-vampire-c"/>
    <path d="M552.884 406.152C550.775 403.51 546.134 402.203 541.124 403.137C539.806 403.377 538.553 403.764 537.419 404.257C534.268 405.605 531.961 407.78 531.183 410.141C527.624 409.314 518.883 407.246 518.883 407.246C518.883 407.246 521.955 409.421 522.047 411.862C522.139 414.304 520.228 415.384 521.586 417.732C522.943 420.08 524.578 420.067 524.315 421.855L524.051 423.643L532.251 415.424C534.44 417.919 538.962 419.133 543.84 418.239C544.473 418.119 545.092 417.972 545.686 417.799C546.833 417.079 548.085 416.211 549.364 415.157C550.406 414.304 551.487 413.316 552.541 412.209C552.845 411.902 553.121 411.582 553.398 411.262C553.583 411.062 553.767 410.848 553.939 410.648C556.351 407.82 557.894 404.698 558.883 401.643C557.011 403.163 555.007 404.684 552.871 406.152H552.884Z" fill="#DADCE0"/>
    <path d="M548.883 415.333C547.638 416.367 546.418 417.217 545.301 417.924C544.723 418.094 544.12 418.238 543.504 418.355C538.754 419.232 534.35 418.041 532.219 415.595C531.564 414.849 531.128 413.985 530.961 413.03C530.807 412.153 530.884 411.277 531.166 410.413C531.924 408.097 534.17 405.964 537.239 404.643C535.814 407.547 532.617 416.55 548.883 415.333Z" fill="black" opacity="0.1"/>
</svg>
