<svg xmlns="http://www.w3.org/2000/svg" width="800" height="600" fill="none" viewBox="0 0 800 600">
    <style>
        :where(.theme-dark, [data-theme="dark"]) .tblr-illustrations-version-control-a { fill: black; opacity: 0.07; } :where(.theme-dark, [data-theme="dark"]) .tblr-illustrations-version-control-b { fill: #24304d; } :where(.theme-dark, [data-theme="dark"]) .tblr-illustrations-version-control-c { fill: black; opacity: 0.3; }
        @media (prefers-color-scheme: dark) { .tblr-illustrations-version-control-a { fill: black; opacity: 0.07; } .tblr-illustrations-version-control-b { fill: #24304d; } .tblr-illustrations-version-control-c { fill: black; opacity: 0.3; } }
    </style>
    <path d="M169.82 297.03C169.82 335.4 210.46 363.34 228.41 394.38C246.94 426.4 251.39 475.34 283.42 493.86C314.45 511.82 358.65 491.73 397.07 491.73C435.49 491.73 479.69 511.88 510.68 493.86C542.7 475.33 547.16 426.38 565.69 394.38C583.65 363.34 624.3 335.46 624.3 297.03C624.3 258.6 583.65 230.71 565.69 199.68C547.16 167.66 542.71 118.71 510.68 100.19C479.65 82.2302 435.47 102.32 397.03 102.32C358.59 102.32 314.45 82.2302 283.42 100.19C251.4 118.72 246.94 167.67 228.41 199.68C210.45 230.71 169.82 258.59 169.82 297.03Z" fill="#1a3263" style="fill: #1a3263; fill: var(--tblr-illustrations-primary, var(--tblr-primary, #1a3263));" opacity="0.02" class="tblr-illustrations tblr-illustrations-vocate tblr-illustrations-version-control-a"/>
    <path d="M540.83 281.32H525.39L513.52 267.58L501.65 281.32H486.21C479.83 281.32 474.66 286.49 474.66 292.87V323.63C474.66 330.01 479.83 335.18 486.21 335.18H540.83C547.21 335.18 552.38 330.01 552.38 323.63V292.87C552.38 286.49 547.21 281.32 540.83 281.32Z" fill="#1a3263" style="fill: #1a3263; fill: var(--tblr-illustrations-primary, var(--tblr-primary, #1a3263));"/>
    <path d="M446.596 192.239L446.578 192.23C445.596 191.735 444.4 192.13 443.905 193.111L385.532 308.922C385.037 309.903 385.432 311.1 386.413 311.595L386.431 311.604C387.412 312.098 388.609 311.704 389.104 310.722L447.477 194.912C447.972 193.93 447.577 192.734 446.596 192.239Z" fill="#0b1b3b" class="tblr-illustrations tblr-illustrations-vocate tblr-illustrations-version-control-b"/>
    <path d="M405.662 290.44C405.032 290.73 404.402 291.03 403.802 291.22C402.692 291.53 401.492 291.75 400.312 291.86C396.502 292.05 393.052 290.55 391.762 287.55C389.842 283.67 391.952 278.67 396.382 275.66C396.922 275.36 397.442 275.05 397.982 274.74C398.122 274.66 398.262 274.59 398.402 274.53C398.812 274.34 399.282 274.19 399.742 274.04C401.222 273.55 402.712 273.32 404.142 273.36C407.532 273.41 410.532 274.9 411.892 277.63C414.052 281.92 411.232 287.7 405.682 290.44H405.662Z" fill="#FFCB9D" style="fill: #FFCB9D; fill: var(--tblr-illustrations-skin, #FFCB9D);"/>
    <path d="M402.74 282.58C402.71 286.06 403.23 289.01 403.79 291.22C402.68 291.53 401.48 291.75 400.3 291.86C396.49 292.05 393.04 290.55 391.75 287.55C389.83 283.67 391.94 278.67 396.37 275.66C396.77 275.4 397.18 275.17 397.97 274.74C398.11 274.66 398.25 274.59 398.39 274.53C398.8 274.34 399.27 274.19 399.73 274.04C401.21 273.55 402.7 273.32 404.13 273.36C403.43 275.75 402.78 278.89 402.75 282.59L402.74 282.58Z" fill="black" opacity="0.1"/>
    <path d="M563.301 176.62V169.61H456.641V176.62H563.301Z" fill="#A6A9B3"/>
    <path d="M396.062 479.59C509.584 479.59 601.612 477.947 601.612 475.92C601.612 473.893 509.584 472.25 396.062 472.25C282.54 472.25 190.512 473.893 190.512 475.92C190.512 477.947 282.54 479.59 396.062 479.59Z" fill="#d9e2f3" opacity="0.5" class="tblr-illustrations tblr-illustrations-vocate tblr-illustrations-version-control-c"/>
    <path d="M298.54 125.99C306.283 125.99 312.56 119.713 312.56 111.97C312.56 104.227 306.283 97.9502 298.54 97.9502C290.797 97.9502 284.52 104.227 284.52 111.97C284.52 119.713 290.797 125.99 298.54 125.99Z" fill="black" opacity="0.1"/>
    <path d="M511.738 115.47V108.46L301.368 108.46V115.47L511.738 115.47Z" fill="#DADCE0"/>
    <path d="M511.738 115.48V108.47H396.058V115.48H511.738Z" fill="#1a3263" style="fill: #1a3263; fill: var(--tblr-illustrations-primary, var(--tblr-primary, #1a3263));"/>
    <path d="M564.098 187.14C571.841 187.14 578.118 180.863 578.118 173.12C578.118 165.377 571.841 159.1 564.098 159.1C556.355 159.1 550.078 165.377 550.078 173.12C550.078 180.863 556.355 187.14 564.098 187.14Z" fill="#A6A9B3"/>
    <path d="M400.808 307.29C397.508 307 392.818 306.49 387.248 305.56C381.658 304.62 376.398 303.75 371.458 302.65C362.128 300.59 353.888 297.79 346.508 292.42C345.768 291.88 344.928 291.23 344.008 290.48C339.088 286.38 332.028 278.82 327.158 265.67C325.068 273.61 323.768 279.44 323.718 279.88C323.668 280.42 323.628 280.94 323.628 280.94C323.628 281.02 323.618 281.07 323.618 281.08C323.318 284.95 321.798 289.49 321.798 289.49C320.938 292.05 319.838 303.62 318.498 337.41H318.598L260.328 337.42C259.188 314.36 257.798 297.5 257.188 293.74C256.668 290.48 256.008 287.5 256.008 287.5C255.628 285.81 255.268 284.43 255.028 283.53C254.798 281.15 254.558 278.77 254.328 276.39C254.108 274.18 253.878 271.96 253.648 269.75C253.498 268.24 253.348 266.73 253.188 265.22C253.038 263.71 252.888 262.21 252.728 260.7C251.898 252.41 251.048 244.14 250.238 235.85H255.318L265.338 235.87H270.088L285.458 235.91L300.738 235.93L309.998 235.95H313.368L322.658 235.97H325.128C325.898 235.89 326.668 235.87 327.448 235.98H327.508C327.768 236.01 328.298 236.07 328.948 236.2C340.538 238.57 349.188 254.67 354.188 263.97C354.708 264.93 356.168 267.71 359.208 270.01C359.208 270.01 360.848 271.2 362.898 272.12C369.268 274.99 379.608 275.99 397.058 269.88C397.418 274.06 397.808 278.26 398.208 282.48C399.018 290.86 399.888 299.12 400.818 307.28L400.808 307.29Z" fill="#DADCE0"/>
    <path d="M371.462 302.65C362.132 300.59 353.892 297.79 346.512 292.42C345.772 291.88 344.932 291.23 344.012 290.48C346.552 281.26 350.842 266.95 351.272 266.27C351.482 265.94 353.082 266.01 355.052 266.23C356.312 267.66 357.672 268.94 359.192 270.03C360.242 270.79 361.472 271.51 362.882 272.14C362.702 279.11 363.532 292.6 371.462 302.66V302.65Z" fill="black" opacity="0.1"/>
    <path d="M259.372 232.131L259.256 232.16C256.653 232.815 255.074 235.457 255.729 238.06L264.496 272.883C265.151 275.486 267.792 277.065 270.395 276.41L270.512 276.38C273.115 275.725 274.693 273.084 274.038 270.481L265.272 235.657C264.616 233.055 261.975 231.476 259.372 232.131Z" fill="#1a3263" style="fill: #1a3263; fill: var(--tblr-illustrations-primary, var(--tblr-primary, #1a3263));"/>
    <path d="M304.194 272.273C303.531 274.908 305.129 277.582 307.764 278.246C310.399 278.909 313.073 277.311 313.736 274.676L322.769 238.795C323.432 236.16 321.834 233.486 319.199 232.823C316.564 232.16 313.89 233.758 313.227 236.393L304.194 272.273Z" fill="#1a3263" style="fill: #1a3263; fill: var(--tblr-illustrations-primary, var(--tblr-primary, #1a3263));"/>
    <path d="M324.49 270.69C324.19 274.13 323.89 277.6 323.61 281.08C323.37 283.9 323.12 286.71 322.87 289.53C322.47 294.04 322.08 298.54 321.67 303.04C321.65 303.25 321.63 303.46 321.62 303.67C321.57 304.29 321.51 304.91 321.46 305.51C321.46 305.6 321.44 305.68 321.44 305.77C321.4 306.23 321.36 306.68 321.32 307.14C321.28 307.6 321.24 308.04 321.21 308.5C321.09 309.84 320.97 311.17 320.86 312.51C320.74 313.85 320.63 315.18 320.52 316.53C320.45 317.43 320.37 318.32 320.29 319.21C320.29 319.32 320.27 319.43 320.26 319.54C320.25 319.59 320.25 319.65 320.25 319.71C320.25 319.76 320.25 319.81 320.23 319.87H320.04C319.98 320.55 319.92 321.22 319.86 321.9C319.71 323.51 319.57 325.11 319.42 326.72C319.1 330.28 318.79 333.83 318.5 337.4H318.6L292.88 337.41C282.03 337.4 271.18 337.4 260.33 337.4C260.3 337.09 260.27 336.78 260.24 336.47C260.02 334.29 259.79 332.13 259.58 329.97C259.53 329.57 259.49 329.19 259.46 328.79C259.39 328.1 259.32 327.41 259.26 326.72C259.17 325.91 259.1 325.11 259.02 324.31C258.98 323.98 258.94 323.65 258.92 323.33C258.87 322.85 258.82 322.38 258.77 321.9C258.71 321.33 258.66 320.78 258.61 320.22C258.57 319.88 258.54 319.54 258.51 319.21C258.42 318.32 258.34 317.43 258.25 316.53C258.12 315.18 258 313.85 257.87 312.51C257.74 311.17 257.62 309.84 257.5 308.5C257.33 306.69 257.16 304.86 256.99 303.04L256.67 299.8L256.62 299.33L255.99 293.02L255.05 283.53C254.73 280.14 254.38 276.74 254.04 273.35C253.93 272.14 253.81 270.94 253.68 269.74C255.04 269.5 256.42 269.26 257.86 269.04C259.64 268.77 261.49 268.51 263.39 268.28C263.91 268.21 264.43 268.15 264.97 268.08C267.63 267.78 270.41 267.51 273.3 267.32C278.3 266.96 283.63 266.78 289.22 266.86C294.92 266.94 300.32 267.27 305.38 267.78C308.82 268.11 312.11 268.54 315.22 269.02C316.4 269.19 317.55 269.38 318.68 269.58C320.72 269.93 322.67 270.3 324.54 270.68L324.49 270.69Z" fill="#1a3263" style="fill: #1a3263; fill: var(--tblr-illustrations-primary, var(--tblr-primary, #1a3263));"/>
    <path d="M321.211 308.49C320.971 311.18 320.741 313.85 320.511 316.52H258.221C257.971 313.84 257.701 311.18 257.461 308.49H321.211Z" fill="#DADCE0"/>
    <path d="M319.838 321.91C319.688 323.52 319.548 325.12 319.398 326.73H259.228C259.138 325.92 259.068 325.12 258.988 324.32C258.948 323.99 258.908 323.66 258.888 323.34C258.838 322.86 258.788 322.39 258.738 321.91H319.838Z" fill="#DADCE0"/>
    <path d="M321.682 302.19C321.632 302.7 321.592 303.2 321.542 303.71C321.482 304.32 321.432 304.93 321.372 305.53C321.282 306.52 321.192 307.51 321.092 308.5C320.852 311.18 320.592 313.86 320.352 316.53C320.242 317.64 320.142 318.77 320.042 319.88C319.982 320.56 319.922 321.23 319.862 321.91C319.712 323.52 319.572 325.12 319.422 326.73C319.102 330.29 318.792 333.84 318.502 337.41L260.332 337.42C260.302 337.1 260.272 336.79 260.242 336.48C260.022 334.3 259.792 332.14 259.582 329.98C259.532 329.58 259.492 329.2 259.462 328.8C259.392 328.11 259.322 327.42 259.262 326.73C259.172 325.92 259.102 325.12 259.022 324.32C258.982 323.99 258.942 323.66 258.922 323.34C258.872 322.86 258.822 322.39 258.782 321.91C258.722 321.34 258.662 320.79 258.612 320.23C258.572 319.89 258.542 319.55 258.512 319.22C258.422 318.33 258.342 317.43 258.262 316.54C258.122 315.2 257.992 313.87 257.862 312.52C257.732 311.18 257.612 309.85 257.492 308.51C257.322 306.7 257.152 304.87 256.982 303.05L256.662 299.81L256.612 299.34L255.982 293.03L255.042 283.54C254.712 280.15 254.372 276.75 254.032 273.36C253.922 272.15 253.802 270.95 253.672 269.75C253.382 266.73 253.072 263.72 252.762 260.7C254.032 263.11 255.702 265.97 257.852 269.05C263.382 276.95 272.082 286.3 285.272 293.17C293.482 297.45 301.452 299.73 308.192 300.93C308.802 301.03 309.402 301.13 309.982 301.22C310.622 301.32 311.252 301.4 311.862 301.48C314.082 301.77 316.122 301.96 317.952 302.06C319.342 302.14 320.592 302.18 321.712 302.19H321.682Z" fill="black" opacity="0.1"/>
    <path d="M311.968 219.64C301.088 225.36 286.338 226.2 283.248 223.41C282.418 222.61 281.588 221.79 280.748 220.99C280.738 220.98 280.728 220.97 280.728 220.96C276.948 216.75 273.658 212.2 270.938 207.29C270.768 207 270.608 206.7 270.448 206.41C270.248 206.09 269.738 205.07 269.238 204.05C267.588 200.57 266.188 197.59 265.078 195.16C264.698 194.32 264.358 193.55 264.048 192.86C264.048 192.85 264.038 192.85 264.038 192.85C263.978 192.68 263.898 192.51 263.828 192.34C264.148 192.72 265.818 194.08 266.968 193.88C267.098 193.86 267.228 193.82 267.338 193.75C268.438 193.1 268.368 190.2 266.738 186.68L274.878 183.48L274.888 183.47L287.688 178.43L288.108 178.26L290.838 179.21L296.948 181.34L300.028 182.41C300.028 182.41 300.798 183.48 302.108 185.2C302.408 185.63 302.718 186.06 303.038 186.46C304.028 187.77 305.048 189.01 306.138 190.22C307.148 191.36 308.188 192.47 309.248 193.57C311.148 195.63 313.318 197.26 315.788 198.54C322.548 201.32 322.858 213.91 311.988 219.62L311.968 219.64Z" fill="#FFCB9D" style="fill: #FFCB9D; fill: var(--tblr-illustrations-skin, #FFCB9D);"/>
    <path d="M284.531 207.32C284.941 209 285.141 210.85 284.961 212.67C284.901 214.46 284.281 216.13 283.511 217.59C282.851 218.83 281.831 220.06 280.721 220.96C276.941 216.75 273.651 212.2 270.931 207.29C270.811 207.23 270.681 207.16 270.571 207.09C270.461 206.91 270.361 206.73 270.261 206.53C270.061 206.2 269.551 205.18 269.051 204.16C267.401 200.69 266.001 197.71 264.891 195.29C264.421 194.23 263.991 193.29 263.641 192.45C263.711 192.54 263.851 192.69 264.041 192.86C264.041 192.86 264.051 192.86 264.051 192.87C264.741 193.49 266.041 194.45 266.911 193.93C266.931 193.92 266.941 193.91 266.961 193.89C268.021 193.18 267.901 190.32 266.311 186.86L266.741 186.69L274.881 183.49L274.891 183.48L287.691 178.44L290.521 179.43L296.491 181.52L299.611 182.6C299.611 182.6 300.381 183.68 301.691 185.39C302.021 185.86 302.381 186.33 302.731 186.79C303.731 188.1 304.781 189.35 305.871 190.58C306.821 191.65 307.811 192.71 308.821 193.76C301.821 199.79 292.951 203.36 283.691 203.87C284.111 205.04 284.381 206.11 284.551 207.33L284.531 207.32Z" fill="black" opacity="0.1"/>
    <path d="M310.319 178.95C310.319 179.45 310.289 179.96 310.229 180.47L310.139 180.62C310.139 181.13 310.009 181.67 309.889 182.21C309.919 182.33 309.859 182.6 309.769 182.75C309.129 184.81 308.339 186.77 307.179 188.71C306.849 189.25 306.499 189.75 306.119 190.23C306.049 190.35 305.949 190.47 305.849 190.57C297.819 200.42 280.869 198.57 274.499 197.5L274.529 197.62C274.919 198.66 275.319 199.83 275.859 200.96C276.129 201.53 276.179 201.76 276.359 201.98C276.539 202.19 276.559 202.31 276.559 202.31C277.989 204.49 279.209 206.85 280.299 209.24C280.819 210.88 280.729 212.55 280.249 214.19C278.969 212.1 277.129 210.27 274.929 209.03C274.059 208.61 273.229 208.31 272.389 208.01C271.889 207.78 271.389 207.54 270.919 207.27C270.799 207.21 270.669 207.14 270.559 207.07C267.029 205 264.299 201.84 262.739 198.1C262.579 197.69 262.439 197.27 262.299 196.86C261.869 195.48 261.599 194.01 261.619 192.55C261.239 189.47 261.619 186.34 262.789 183.39C266.099 175.26 274.439 170.65 282.789 168.74C284.049 168.45 285.319 168.23 286.569 168.06C288.479 167.79 290.339 167.67 292.099 167.68H292.569C293.479 167.68 294.609 167.7 295.849 167.79C297.769 167.93 299.959 168.23 302.079 168.84C302.209 168.88 302.339 168.91 302.469 168.96C303.029 169.13 303.579 169.32 304.119 169.55C306.829 170.6 308.979 172.74 309.889 175.57C309.919 175.66 309.949 175.75 309.979 175.84L310.099 176.31C310.229 177.18 310.309 178.05 310.309 178.94L310.319 178.95Z" fill="#0b1b3b" class="tblr-illustrations tblr-illustrations-vocate tblr-illustrations-version-control-b"/>
    <path d="M274.511 197.5C281.251 198.63 299.861 200.64 307.191 188.7C308.361 186.76 309.141 184.8 309.781 182.74C309.871 182.59 309.931 182.32 309.901 182.2C310.021 181.66 310.141 181.13 310.141 180.62L310.231 180.47C310.381 179.04 310.301 177.67 310.101 176.32C308.631 179.6 306.611 182.75 304.101 185.4C291.731 198.45 272.341 195.87 269.301 195.36L269.031 195.3C270.761 196.14 272.601 196.95 274.511 197.5Z" fill="black" opacity="0.5"/>
    <path d="M318.59 337.41V337.42L305.4 458.99H298.17L288.74 365.06L275.17 458.99H265.22L260.18 337.41H318.59Z" fill="#1a3263" style="fill: #1a3263; fill: var(--tblr-illustrations-primary, var(--tblr-primary, #1a3263));"/>
    <path d="M286.149 475.92L264.059 473.47C264.059 473.47 263.279 467.78 266.769 465.72C270.259 463.65 282.529 470.5 286.149 475.93" fill="#0b1b3b" class="tblr-illustrations tblr-illustrations-vocate tblr-illustrations-version-control-b"/>
    <path d="M318.578 475.92L296.488 473.47C296.488 473.47 295.709 467.78 299.199 465.72C302.689 463.65 315.088 470.5 318.578 475.93" fill="#0b1b3b" class="tblr-illustrations tblr-illustrations-vocate tblr-illustrations-version-control-b"/>
    <path d="M318.588 337.41V337.42L305.398 458.99H298.168L288.738 365.06L292.868 337.42V337.41H318.588Z" fill="black" opacity="0.1"/>
    <path d="M335.919 307.74C334.809 305.82 333.709 303.76 332.639 301.57C330.189 296.53 328.389 291.73 327.059 287.38C328.589 288.28 332.039 290.61 334.319 295.09C337.209 300.77 336.269 306.14 335.919 307.74Z" fill="#0b1b3b" class="tblr-illustrations tblr-illustrations-vocate tblr-illustrations-version-control-b"/>
    <path d="M278.181 186.94C278.181 186.94 300.051 181.25 307.851 176.88C310.661 175.3 316.921 170.77 316.031 167.61C315.791 166.77 315.131 166.31 314.351 165.77C309.471 162.38 301.531 164.84 301.531 164.84C301.531 164.84 279.581 176.22 278.951 177.29C276.031 182.31 274.471 183.13 274.801 184.22C275.261 185.73 276.991 186.54 278.171 186.94H278.181Z" fill="#DADCE0"/>
    <path d="M278.181 186.94C278.181 186.94 300.051 181.25 307.851 176.88C310.661 175.3 316.921 170.77 316.031 167.61C315.791 166.77 315.131 166.31 314.351 165.77C309.471 162.38 301.531 164.84 301.531 164.84C301.531 164.84 279.581 176.22 278.951 177.29C276.031 182.31 274.471 183.13 274.801 184.22C275.261 185.73 276.991 186.54 278.171 186.94H278.181Z" fill="black" opacity="0.1"/>
    <path d="M303.04 167.39C301.87 169.33 300.05 171.92 297.32 174.46C295.1 176.53 293.14 177.77 292.23 178.34C277.41 187.6 262.01 197.07 260.91 197.75C260.04 196.72 254.33 189.67 255.89 179.75C257.49 169.58 265.44 164.61 266.55 163.94H266.56C267.94 163.11 269.2 162.46 270.21 161.93C270.67 161.69 272.88 160.58 275.99 159.54C282.21 157.48 292.05 155.72 298.89 161.84C301.01 163.74 302.29 165.88 303.04 167.4V167.39Z" fill="#DADCE0"/>
    <path d="M297.319 174.46C295.829 175.73 294.089 177.03 292.229 178.34C292.229 178.34 281.709 162.27 266.559 163.94C267.939 163.12 269.199 162.46 270.209 161.93C270.669 161.69 272.879 160.58 275.989 159.54L280.289 160.82L288.819 165.92C288.819 165.92 295.179 169.17 295.579 170.08C295.969 171 296.869 173.22 297.099 173.6C297.189 173.77 297.269 174.13 297.319 174.47V174.46Z" fill="black" opacity="0.1"/>
    <path d="M266.539 163.94C267.169 162.66 268.529 160.4 271.109 158.65C271.109 158.65 273.769 156.85 277.669 156.39C283.309 155.73 292.919 159.89 302.689 168.36C302.379 169.42 301.739 171.07 300.389 172.7C298.319 175.21 295.789 176.22 294.639 176.6C293.349 174.66 285.959 163.9 273.819 163.16C271.109 163 268.659 163.36 266.549 163.94H266.539Z" fill="#DADCE0"/>
    <path d="M280.859 234.43C281.829 235.71 283.959 238.14 287.549 239.68C289.999 240.74 292.219 240.98 293.649 241.02C294.129 241.05 294.609 241.09 295.089 241.12C298.399 239.41 301.709 237.7 305.019 235.98L280.859 234.43Z" fill="#FFCB9D" style="fill: #FFCB9D; fill: var(--tblr-illustrations-skin, #FFCB9D);"/>
    <path d="M293.648 241.02L307.858 230.82L311.088 234.3L301.398 248.77L293.648 241.02Z" fill="#1a3263" style="fill: #1a3263; fill: var(--tblr-illustrations-primary, var(--tblr-primary, #1a3263));"/>
    <path d="M293.65 241.02L272.07 227.58L267.16 232.1L281.89 251.22L293.65 241.02Z" fill="#1a3263" style="fill: #1a3263; fill: var(--tblr-illustrations-primary, var(--tblr-primary, #1a3263));"/>
    <path d="M293.648 241.02L307.858 230.82L311.088 234.3L301.398 248.77L293.648 241.02Z" fill="black" opacity="0.1"/>
    <path d="M363.442 261.68L358.332 279.76L357.362 283.21L351.602 303.56L351.572 303.69L348.692 313.84C348.042 316.16 345.582 318.03 343.202 318.03H309.162C308.552 318.03 308.012 317.91 307.552 317.69C306.462 317.17 305.822 316.1 305.892 314.78C305.902 314.49 305.952 314.17 306.042 313.85L307.912 307.19L307.962 306.99L309.602 301.19L309.962 299.92L313.372 287.84L314.852 282.61L318.642 269.23L320.782 261.68C321.442 259.38 323.912 257.51 326.282 257.51H360.312C362.702 257.51 364.112 259.38 363.452 261.68H363.442Z" fill="#A6A9B3"/>
    <path d="M357.338 283.2L351.578 303.55L351.548 303.68L348.669 313.83C348.019 316.15 345.558 318.02 343.178 318.02H309.139C308.529 318.02 307.988 317.9 307.528 317.68C306.438 317.16 305.798 316.09 305.868 314.77C305.878 314.48 305.928 314.16 306.018 313.84L307.889 307.18C308.099 307.12 308.329 307.05 308.539 306.98C309.129 306.8 309.709 306.63 310.289 306.44C312.399 305.77 314.478 305.05 316.558 304.28C317.158 304.06 317.768 303.83 318.358 303.6C319.418 303.19 320.478 302.76 321.528 302.33C321.558 302.33 321.588 302.3 321.618 302.3C323.868 301.37 326.089 300.39 328.259 299.39C329.339 298.89 330.419 298.38 331.479 297.87C332.429 297.42 333.358 296.96 334.298 296.48C334.298 296.48 334.305 296.48 334.319 296.48C334.618 296.33 334.918 296.18 335.218 296.03C343.908 291.62 351.598 286.96 357.328 283.22L357.338 283.2Z" fill="black" opacity="0.1"/>
    <path d="M407.032 125.99C414.775 125.99 421.052 119.713 421.052 111.97C421.052 104.227 414.775 97.9502 407.032 97.9502C399.289 97.9502 393.012 104.227 393.012 111.97C393.012 119.713 399.289 125.99 407.032 125.99Z" fill="#DADCE0"/>
    <path d="M313.461 288.73C314.621 288.47 315.811 288.29 316.971 288.24C317.611 288.24 318.301 288.32 318.981 288.4C325.111 289.26 329.601 293.86 328.901 298.62C328.281 302.91 323.761 305.85 318.491 305.84C317.851 305.84 317.201 305.84 316.601 305.72C316.001 305.6 315.401 305.47 314.801 305.35C309.651 303.88 306.071 299.79 306.681 295.5C306.961 292.24 309.771 289.74 313.451 288.73H313.461Z" fill="#FFCB9D" style="fill: #FFCB9D; fill: var(--tblr-illustrations-skin, #FFCB9D);"/>
    <path d="M313.461 288.73C314.621 288.47 315.811 288.29 316.971 288.24C317.051 294.11 317.471 300.02 318.491 305.84C317.851 305.84 317.201 305.84 316.601 305.72C316.001 305.6 315.401 305.47 314.801 305.35C309.651 303.88 306.071 299.79 306.681 295.5C306.961 292.24 309.771 289.74 313.451 288.73H313.461Z" fill="black" opacity="0.1"/>
    <path d="M316.24 282.97C312.79 297.39 309.36 311.82 305.92 326.24C298.06 324.8 283.02 321.08 268.82 310.6C264.46 307.38 260.17 303.53 256.2 298.9C254.49 296.91 252.68 294.59 250.87 292.03C242.19 279.73 233.4 255.5 239.72 243.49C240.55 241.91 242.53 238.15 246.69 236.53C248.87 235.68 250.89 235.72 252.17 235.85C253.25 241.87 255.49 250.69 260.56 260.3C263.9 266.63 267.82 274 274.63 279.17C289.75 290.64 311.3 284.49 316.23 282.96L316.24 282.97Z" fill="#DADCE0"/>
    <path d="M268.821 310.6C265.101 308.08 260.641 304.49 256.351 299.47C254.141 296.89 252.341 294.36 250.871 292.03C252.481 292.12 257.991 292.63 262.741 297.03C268.481 302.33 268.791 309.3 268.821 310.6Z" fill="#0b1b3b" class="tblr-illustrations tblr-illustrations-vocate tblr-illustrations-version-control-b"/>
    <path d="M351.55 251.89H348.79C348.79 248.46 346 245.67 342.57 245.67C340.9 245.67 339.39 246.32 338.28 247.38C337.07 248.51 336.33 250.11 336.33 251.89H333.6C331.94 251.89 330.59 253.24 330.59 254.9V258.75C330.59 260.41 331.94 261.75 333.6 261.75H351.55C353.2 261.75 354.55 260.41 354.55 258.75V254.9C354.55 253.24 353.2 251.89 351.55 251.89ZM342.57 255.37C342.26 255.37 341.94 255.33 341.66 255.25C340.19 254.85 339.11 253.51 339.11 251.89C339.11 251.28 339.27 250.71 339.56 250.21C340.15 249.15 341.28 248.43 342.58 248.43C344.48 248.43 346.04 249.99 346.04 251.89C346.04 253.79 344.48 255.37 342.58 255.37H342.57Z" fill="#0b1b3b" class="tblr-illustrations tblr-illustrations-vocate tblr-illustrations-version-control-b"/>
    <path d="M511.739 125.99C519.482 125.99 525.759 119.713 525.759 111.97C525.759 104.227 519.482 97.9502 511.739 97.9502C503.996 97.9502 497.719 104.227 497.719 111.97C497.719 119.713 503.996 125.99 511.739 125.99Z" fill="#1a3263" style="fill: #1a3263; fill: var(--tblr-illustrations-primary, var(--tblr-primary, #1a3263));"/>
    <path d="M527.449 292.38L509.069 310.76C508.659 311.17 508.009 311.17 507.599 310.76L499.599 302.76C498.579 301.74 496.919 301.74 495.899 302.76L493.019 305.64C491.999 306.66 491.999 308.32 493.019 309.34L506.489 322.81C507.509 323.83 509.169 323.83 510.189 322.81L534.039 298.96C535.059 297.94 535.059 296.28 534.039 295.26L531.159 292.38C530.139 291.36 528.479 291.36 527.459 292.38H527.449Z" fill="white"/>
    <path d="M459.38 176.67H374.67C362.62 176.67 352.82 166.87 352.82 154.82V111.97H359.91V154.82C359.91 162.96 366.53 169.58 374.67 169.58H459.38V176.67Z" fill="#DADCE0"/>
    <path d="M511.742 240.85H476.772C464.722 240.85 454.922 231.05 454.922 219V176.15H462.012V219C462.012 227.14 468.632 233.76 476.772 233.76H511.742V240.85Z" fill="#DADCE0"/>
    <path d="M459.379 187.14C467.122 187.14 473.399 180.863 473.399 173.12C473.399 165.377 467.122 159.1 459.379 159.1C451.636 159.1 445.359 165.377 445.359 173.12C445.359 180.863 451.636 187.14 459.379 187.14Z" fill="#A6A9B3"/>
    <path d="M513.52 251.69C521.263 251.69 527.54 245.413 527.54 237.67C527.54 229.927 521.263 223.65 513.52 223.65C505.777 223.65 499.5 229.927 499.5 237.67C499.5 245.413 505.777 251.69 513.52 251.69Z" fill="#1a3263" style="fill: #1a3263; fill: var(--tblr-illustrations-primary, var(--tblr-primary, #1a3263));"/>
    <path d="M414.952 210.11C414.472 210.11 414.002 209.9 413.682 209.51C413.112 208.81 413.212 207.78 413.912 207.2L424.642 198.42C425.342 197.85 426.372 197.95 426.952 198.65C427.522 199.35 427.422 200.38 426.722 200.96L415.992 209.74C415.692 209.99 415.322 210.11 414.952 210.11Z" fill="#1a3263" style="fill: #1a3263; fill: var(--tblr-illustrations-primary, var(--tblr-primary, #1a3263));"/>
    <path d="M400.209 194.76C399.439 194.76 398.759 194.22 398.599 193.44C398.419 192.55 398.999 191.69 399.889 191.51L420.779 187.38C421.669 187.2 422.529 187.78 422.709 188.67C422.889 189.56 422.309 190.42 421.419 190.6L400.529 194.73C400.419 194.75 400.319 194.76 400.209 194.76Z" fill="#1a3263" style="fill: #1a3263; fill: var(--tblr-illustrations-primary, var(--tblr-primary, #1a3263));"/>
</svg>
