<svg xmlns="http://www.w3.org/2000/svg" width="800" height="600" fill="none" viewBox="0 0 800 600">
    <style>
        :where(.theme-dark, [data-theme="dark"]) .tblr-illustrations-welcome-on-board-a { fill: black; opacity: 0.07; } :where(.theme-dark, [data-theme="dark"]) .tblr-illustrations-welcome-on-board-b { fill: black; opacity: 0.3; } :where(.theme-dark, [data-theme="dark"]) .tblr-illustrations-welcome-on-board-c { fill: #24304d; }
        @media (prefers-color-scheme: dark) { .tblr-illustrations-welcome-on-board-a { fill: black; opacity: 0.07; } .tblr-illustrations-welcome-on-board-b { fill: black; opacity: 0.3; } .tblr-illustrations-welcome-on-board-c { fill: #24304d; } }
    </style>
    <path d="M179.5 307.25C179.5 346.67 221.24 375.36 239.69 407.25C258.72 440.14 263.3 490.41 296.19 509.44C328.06 527.89 373.46 507.25 412.94 507.25C452.42 507.25 497.81 527.95 529.65 509.44C562.54 490.41 567.13 440.12 586.15 407.25C604.6 375.36 646.35 346.72 646.35 307.25C646.35 267.78 604.59 239.12 586.15 207.25C567.12 174.36 562.54 124.08 529.65 105.05C497.78 86.5999 452.39 107.24 412.9 107.24C373.41 107.24 328.07 86.6099 296.19 105.05C263.3 124.08 258.71 174.37 239.69 207.25C221.24 239.12 179.5 267.76 179.5 307.25Z" fill="#1a3263" style="fill: #1a3263; fill: var(--tblr-illustrations-primary, var(--tblr-primary, #1a3263));" opacity="0.02" class="tblr-illustrations tblr-illustrations-vocate tblr-illustrations-welcome-on-board-a"/>
    <path d="M648.932 176.86C648.932 185.73 641.742 192.91 632.882 192.91C629.442 192.91 626.242 191.83 623.642 189.98C621.182 188.25 619.232 185.83 618.062 183.02C616.422 188.9 611.052 193.22 604.662 193.22C600.702 193.22 597.132 191.56 594.602 188.91C593.892 189.04 593.162 189.11 592.422 189.11C590.842 189.11 589.332 188.8 587.942 188.26C588.032 188.81 588.122 189.35 588.122 189.93C588.122 195.8 583.352 200.56 577.482 200.56C571.612 200.56 566.852 195.8 566.852 189.93C566.852 184.06 571.612 179.29 577.482 179.29C578.552 179.29 579.562 179.49 580.532 179.79C580.302 178.86 580.172 177.87 580.172 176.86C580.172 170.1 585.652 164.61 592.422 164.61C594.092 164.61 595.672 164.95 597.112 165.55C597.682 157.21 604.622 150.62 613.112 150.62C620.152 150.62 626.132 155.17 628.292 161.49C629.742 161.05 631.292 160.81 632.892 160.81C641.382 160.81 648.342 167.41 648.902 175.76C648.932 176.12 648.942 176.48 648.942 176.85L648.932 176.86Z" fill="#DADCE0"/>
    <path d="M693.04 428.56C693.04 428.62 692.8 428.7 692.31 428.77C682.23 430.15 569.18 431.31 426.76 431.43C417.94 431.45 408.98 431.45 399.95 431.45C238.11 431.45 106.84 430.13 106.84 428.56C106.84 426.99 238.1 425.75 399.95 425.75C408.79 425.75 417.54 425.75 426.18 425.77C568.88 425.89 682.21 427.03 692.31 428.37C692.8 428.43 693.04 428.49 693.04 428.56Z" fill="#d9e2f3" opacity="0.5" class="tblr-illustrations tblr-illustrations-vocate tblr-illustrations-welcome-on-board-b"/>
    <path d="M398.406 298.325C405.117 294.595 413.585 297.085 417.2 303.864L430.84 329.433L425.379 332.347L411.739 306.777C409.755 303.055 405.103 301.685 401.413 303.736L384.373 313.206V350.81H378.184V316.646L332.193 342.208V378.26H326.004V345.648L314.783 351.885L314.781 351.886C312.395 353.21 310.904 355.734 310.904 358.48V400.66H304.715V358.48C304.715 353.486 307.425 348.89 311.778 346.474L326.004 338.567V338.41H326.286L398.406 298.325Z" fill="#1a3263" style="fill: #1a3263; fill: var(--tblr-illustrations-primary, var(--tblr-primary, #1a3263));"/>
    <path d="M436.718 342.19L289.928 426.44H244.488L287.348 400.42L420.768 319.39L432.898 336.74L436.718 342.19Z" fill="#DADCE0"/>
    <path d="M436.718 342.19L289.928 426.44H244.488L287.348 400.42C293.578 401.12 300.868 401.51 308.968 401.29C331.128 400.65 403.758 355.17 432.898 336.75L436.718 342.2V342.19Z" fill="black" opacity="0.1"/>
    <path d="M597.258 199.71L596.908 201.71L587.338 254.64C586.988 256.56 585.878 258.19 584.328 259.22C583.218 259.96 581.898 260.38 580.468 260.38H539.218C534.868 260.38 531.588 256.44 532.348 252.15L533.088 248.04L536.308 230.21L542.268 197.22C542.868 193.9 545.778 191.48 549.138 191.48H590.388C594.738 191.48 598.048 195.42 597.258 199.71Z" fill="#1a3263" style="fill: #1a3263; fill: var(--tblr-illustrations-primary, var(--tblr-primary, #1a3263));"/>
    <path d="M596.91 201.71L587.34 254.64C586.99 256.56 585.88 258.19 584.33 259.22C572.57 257.98 553.71 253.96 543.74 251.3C541.33 250.66 537.45 249.51 533.09 248.04L536.31 230.21C560.74 225.71 584.04 210.88 596.91 201.71Z" fill="black" opacity="0.1"/>
    <path d="M633.371 248.3V326.86L509.831 331.69L467.031 309.49L469.901 301.65L490.601 245.05C491.961 241.34 495.511 238.84 499.491 238.84H623.921C629.141 238.84 633.371 243.09 633.371 248.31V248.3Z" fill="#DADCE0"/>
    <path d="M633.371 252.22V326.86L509.831 331.69L467.031 309.49L469.901 301.65C558.461 306.93 613.351 269.69 633.371 252.23V252.22Z" fill="black" opacity="0.1"/>
    <path d="M671.31 342.19C671.31 342.19 668.21 354.53 664.32 369.74C658.11 394.09 649.86 425.76 649.11 425.76H456.94L438.93 391.57L412.93 342.19H671.31Z" fill="#DADCE0"/>
    <path d="M664.32 369.73C658.11 394.08 649.86 425.75 649.11 425.75H456.94L438.93 391.56C455.07 381.86 487.3 366.7 521.32 374.64C564.78 384.77 618.94 397.92 664.32 369.73Z" fill="black" opacity="0.1"/>
    <path d="M674.799 325.89C674.779 326.28 674.739 326.67 674.659 327.07L671.319 342.2H412.939L397.789 306.52C397.109 304.93 397.069 303.26 397.499 301.77C398.329 298.86 400.989 296.57 404.369 296.57H496.229C500.029 296.57 503.659 298.08 506.339 300.76L519.769 314.19C522.449 316.87 526.079 318.38 529.879 318.38H667.659C671.829 318.38 675.029 321.91 674.799 325.89Z" fill="#A6A9B3"/>
    <path d="M536.02 264.5C542.2 264.5 547.23 269.53 547.23 275.71C547.23 281.89 542.2 286.92 536.02 286.92C529.84 286.92 524.81 281.89 524.81 275.71C524.81 269.53 529.84 264.5 536.02 264.5ZM536.02 260.37C527.55 260.37 520.68 267.24 520.68 275.71C520.68 284.18 527.55 291.05 536.02 291.05C544.49 291.05 551.36 284.18 551.36 275.71C551.36 267.24 544.49 260.37 536.02 260.37Z" fill="#1a3263" style="fill: #1a3263; fill: var(--tblr-illustrations-primary, var(--tblr-primary, #1a3263));"/>
    <path d="M601.942 275.7C601.942 284.18 595.072 291.05 586.612 291.05C582.692 291.05 579.122 289.59 576.402 287.13C573.242 284.34 571.262 280.26 571.262 275.7C571.262 267.24 578.132 260.37 586.612 260.37C589.662 260.37 592.512 261.26 594.912 262.83C599.142 265.55 601.952 270.3 601.952 275.71L601.942 275.7Z" fill="white"/>
    <path d="M692.241 400.67V428.77C681.161 430.15 556.901 431.31 400.361 431.43C400.321 431.41 400.261 431.39 400.221 431.37C399.601 431.11 396.491 429.75 395.621 426.63C395.421 425.91 395.381 425.24 395.411 424.65C409.611 421.39 420.521 417.18 428.081 413.79C428.081 413.79 452.811 402.72 467.481 400.22C469.671 399.85 471.811 399.68 471.811 399.68C491.931 398.03 493.371 407.73 516.501 409.63C543.161 411.84 545.881 399.62 575.161 398.88C600.711 398.22 605.431 407.34 633.021 409.36C651.011 410.68 670.761 408.39 692.241 400.67Z" fill="#A6A9B3"/>
    <path d="M601.938 275.7C601.938 284.18 595.068 291.05 586.608 291.05C582.688 291.05 579.118 289.59 576.398 287.13C577.638 286.76 578.978 286.37 580.398 285.95C593.438 282.17 595.048 269.61 594.908 262.82C599.138 265.54 601.948 270.29 601.948 275.7H601.938Z" fill="black" opacity="0.1"/>
    <path d="M508.008 371.79C508.008 380.27 501.138 387.14 492.678 387.14C488.758 387.14 485.188 385.68 482.468 383.22C479.308 380.43 477.328 376.35 477.328 371.79C477.328 363.33 484.198 356.46 492.678 356.46C495.728 356.46 498.578 357.35 500.978 358.92C505.208 361.64 508.018 366.39 508.018 371.8L508.008 371.79Z" fill="#1a3263" style="fill: #1a3263; fill: var(--tblr-illustrations-primary, var(--tblr-primary, #1a3263));"/>
    <path d="M508.009 371.79C508.009 380.27 501.139 387.14 492.679 387.14C488.759 387.14 485.189 385.68 482.469 383.22C483.709 382.85 485.049 382.46 486.469 382.04C499.509 378.26 501.119 365.7 500.979 358.91C505.209 361.63 508.019 366.38 508.019 371.79H508.009Z" fill="black" opacity="0.1"/>
    <path d="M565.539 371.79C565.539 380.27 558.669 387.14 550.209 387.14C546.289 387.14 542.719 385.68 539.999 383.22C536.839 380.43 534.859 376.35 534.859 371.79C534.859 363.33 541.729 356.46 550.209 356.46C553.259 356.46 556.109 357.35 558.509 358.92C562.739 361.64 565.549 366.39 565.549 371.8L565.539 371.79Z" fill="#0b1b3b" class="tblr-illustrations tblr-illustrations-vocate tblr-illustrations-welcome-on-board-c"/>
    <path d="M565.54 371.79C565.54 380.27 558.67 387.14 550.21 387.14C546.29 387.14 542.72 385.68 540 383.22C541.24 382.85 542.58 382.46 544 382.04C557.04 378.26 558.65 365.7 558.51 358.91C562.74 361.63 565.55 366.38 565.55 371.79H565.54Z" fill="black" opacity="0.5"/>
    <path d="M623.078 371.79C623.078 380.27 616.208 387.14 607.748 387.14C603.828 387.14 600.258 385.68 597.538 383.22C594.378 380.43 592.398 376.35 592.398 371.79C592.398 363.33 599.268 356.46 607.748 356.46C610.798 356.46 613.648 357.35 616.048 358.92C620.278 361.64 623.088 366.39 623.088 371.8L623.078 371.79Z" fill="#A6A9B3"/>
    <path d="M623.079 371.79C623.079 380.27 616.209 387.14 607.749 387.14C603.829 387.14 600.259 385.68 597.539 383.22C598.779 382.85 600.119 382.46 601.539 382.04C614.579 378.26 616.189 365.7 616.049 358.91C620.279 361.63 623.089 366.38 623.089 371.79H623.079Z" fill="black" opacity="0.1"/>
    <path d="M674.798 325.89H530.898C524.318 325.89 517.998 323.27 513.348 318.62L499.738 305.01C497.658 302.93 494.838 301.76 491.898 301.76H397.488C398.318 298.85 400.978 296.56 404.358 296.56H496.218C500.008 296.56 503.648 298.07 506.328 300.75L519.758 314.18C522.438 316.86 526.078 318.37 529.868 318.37H667.648C671.818 318.37 675.018 321.9 674.788 325.88L674.798 325.89Z" fill="#0b1b3b" class="tblr-illustrations tblr-illustrations-vocate tblr-illustrations-welcome-on-board-c"/>
    <path d="M184.332 315.94H156.642H154.952C154.022 315.94 153.262 316.7 153.262 317.63V319.32V374.69C153.262 375.62 154.022 376.38 154.952 376.38C155.882 376.38 156.642 375.62 156.642 374.69V321.01C156.642 320.08 157.402 319.32 158.332 319.32H182.642C183.572 319.32 184.332 320.08 184.332 321.01V374.69C184.332 375.62 185.092 376.38 186.022 376.38C186.952 376.38 187.712 375.62 187.712 374.69V319.32V317.63C187.712 316.7 186.952 315.94 186.022 315.94H184.332Z" fill="#0b1b3b" class="tblr-illustrations tblr-illustrations-vocate tblr-illustrations-welcome-on-board-c"/>
    <path d="M190.238 415.39C190.238 412.557 187.944 410.26 185.113 410.26C182.283 410.26 179.988 412.557 179.988 415.39V424.66C179.988 427.493 182.283 429.79 185.113 429.79C187.944 429.79 190.238 427.493 190.238 424.66V415.39Z" fill="#0b1b3b" class="tblr-illustrations tblr-illustrations-vocate tblr-illustrations-welcome-on-board-c"/>
    <path d="M161.309 415.39C161.309 412.557 159.014 410.26 156.184 410.26C153.353 410.26 151.059 412.557 151.059 415.39V424.66C151.059 427.493 153.353 429.79 156.184 429.79C159.014 429.79 161.309 427.493 161.309 424.66V415.39Z" fill="#0b1b3b" class="tblr-illustrations tblr-illustrations-vocate tblr-illustrations-welcome-on-board-c"/>
    <path d="M190.782 349.4H150.182C146.686 349.4 143.852 352.234 143.852 355.73V416.27C143.852 419.766 146.686 422.6 150.182 422.6H190.782C194.278 422.6 197.112 419.766 197.112 416.27V355.73C197.112 352.234 194.278 349.4 190.782 349.4Z" fill="#DADCE0"/>
    <path d="M187.549 388.81H153.419C151.227 388.81 149.449 390.587 149.449 392.78V410.94C149.449 413.133 151.227 414.91 153.419 414.91H187.549C189.742 414.91 191.519 413.133 191.519 410.94V392.78C191.519 390.587 189.742 388.81 187.549 388.81Z" fill="#1a3263" style="fill: #1a3263; fill: var(--tblr-illustrations-primary, var(--tblr-primary, #1a3263));"/>
    <path d="M190.732 422.6H150.182C146.692 422.6 143.852 419.77 143.852 416.27V355.73C143.852 353.48 145.032 351.51 146.792 350.39C149.572 362.63 159.812 397.1 190.732 422.6Z" fill="black" opacity="0.1"/>
    <path d="M284.28 339.57C284.62 340.5 285.1 341.37 285.7 342.15C287.76 345.01 290.9 346.25 293.56 345.04C297 343.45 298.28 338.47 296.44 333.9C296.25 333.4 296.02 332.92 295.75 332.46C293.74 328.81 290.12 327.07 287.16 328.44C283.85 329.97 282.51 334.98 284.28 339.57Z" fill="#FFCB9D" style="fill: #FFCB9D; fill: var(--tblr-illustrations-skin, #FFCB9D);"/>
    <path d="M284.282 339.57C284.622 340.5 285.102 341.37 285.702 342.15L286.642 341.58C290.692 338.95 291.382 336.33 295.312 332.86C295.492 332.73 295.642 332.58 295.852 332.44C293.842 328.8 290.232 327.06 287.262 328.43C283.852 329.97 282.502 334.98 284.282 339.57Z" fill="black" opacity="0.1"/>
    <path d="M305.711 333.11C303.131 333.42 299.271 333.91 294.591 334.68C292.361 335.05 290.551 335.36 289.061 335.63C287.001 336 285.511 336.29 284.341 336.54C279.571 337.51 272.621 338.09 263.401 335.96C263.671 330.8 263.851 325.44 263.921 319.91C263.961 315.35 263.941 310.71 263.821 305.96L263.741 304.23C263.661 301.36 263.531 298.56 263.391 295.77C263.431 294.8 263.471 293.85 263.511 292.9C263.681 290.11 263.901 287.35 264.231 284.58C264.561 281.77 264.951 279.55 265.361 277.63C267.481 267.83 266.191 264.11 268.891 262.22C269.531 261.77 270.641 261.23 272.481 261.23C276.651 262.82 278.531 265.07 279.391 266.43C281.231 269.32 281.621 273.32 282.381 281.33C282.421 281.83 282.441 281.93 282.461 282.26C282.731 284.98 283.681 293.09 286.591 300.58C289.271 307.51 292.621 314.2 296.541 320.53C297.721 322.43 300.111 326.27 303.871 330.89C304.611 331.82 305.271 332.58 305.731 333.12L305.711 333.11Z" fill="#DADCE0"/>
    <path d="M289.061 335.63C287.001 336 285.511 336.29 284.341 336.54C279.571 337.51 272.621 338.09 263.401 335.96C263.671 330.8 263.851 325.44 263.921 319.91C263.961 315.35 263.941 310.71 263.821 305.96L263.741 304.23C263.661 301.36 263.531 298.56 263.391 295.77C263.431 294.8 263.471 293.85 263.511 292.9C267.551 287.39 271.251 282.6 271.251 282.6C271.251 283.86 273.641 318.77 289.081 335.63H289.061Z" fill="black" opacity="0.1"/>
    <path d="M213.402 325.02C211.692 353.07 209.972 381.12 208.262 409.16C210.582 408.95 212.912 408.74 215.242 408.53C223.302 387.14 231.362 365.76 239.422 344.39C247.532 350.77 255.652 357.15 263.762 363.53C265.782 375.24 267.802 386.95 269.822 398.65C271.432 397.91 273.052 397.17 274.662 396.43C277.962 383.44 281.252 370.46 284.552 357.47C278.672 348 272.792 338.53 266.902 329.06C262.192 328.04 255.222 326.73 246.472 325.78C245.582 325.68 244.672 325.59 243.762 325.5C232.562 324.46 222.342 324.47 213.402 325.01V325.02Z" fill="#1a3263" style="fill: #1a3263; fill: var(--tblr-illustrations-primary, var(--tblr-primary, #1a3263));"/>
    <path d="M284.552 357.48C281.252 370.47 277.952 383.45 274.652 396.44C273.042 397.17 271.432 397.92 269.812 398.65C267.792 386.95 265.782 375.24 263.762 363.53C255.642 357.15 247.532 350.77 239.422 344.39L246.742 325.83C255.362 326.78 262.252 328.07 266.902 329.07C272.772 338.55 278.662 348.02 284.542 357.49L284.552 357.48Z" fill="black" opacity="0.1"/>
    <path d="M269.9 412.85L269.62 408.35C269.62 408.35 268.68 404.1 271.07 402.68C273.46 401.26 282.65 406.57 285.52 410.62L275.71 409.22L275.1 412.92L269.89 412.84L269.9 412.85Z" fill="#0b1b3b" class="tblr-illustrations tblr-illustrations-vocate tblr-illustrations-welcome-on-board-c"/>
    <path d="M205.6 426.46L206.29 422.01C206.29 422.01 206.28 417.66 208.92 416.78C211.56 415.91 219.4 423.05 221.34 427.62L212.05 424.16L210.66 427.65L205.59 426.46H205.6Z" fill="#0b1b3b" class="tblr-illustrations tblr-illustrations-vocate tblr-illustrations-welcome-on-board-c"/>
    <path d="M218.262 265.17C219.022 266.53 219.702 267.93 220.302 269.36C219.752 268.92 219.332 268.35 219.052 267.7C218.752 266.87 218.522 266.03 218.272 265.17H218.262Z" fill="black" opacity="0.1"/>
    <path d="M279.3 266.56C279.3 266.56 279.01 266.25 278.99 266.23C278.66 265.89 278.07 265.33 277.24 264.78C276.85 264.51 276.47 264.19 276.04 263.86C274.99 263.08 273.88 262.35 272.83 261.67C268.54 259.01 264.04 256.71 259.38 254.82C255.88 253.39 252.3 252.15 248.66 251.11C248.56 251.08 248.45 251.05 248.34 251.02C247.09 250.67 245.76 250.3 244.42 249.99C242.61 249.47 240.79 249.06 238.93 248.76C238.6 248.71 238.26 248.66 237.93 248.62C237.86 248.61 237.78 248.59 237.7 248.59C235.49 248.55 233.29 248.85 231.17 249.46H231.04C230.94 249.5 230.76 249.62 230.5 249.82C229.75 250.38 228.42 251.59 227.04 252.86C224.82 254.91 222.51 257.15 222.34 257.27C221.93 257.65 221.42 260.19 220.84 264.06C219.93 270.09 218.86 279.36 217.77 288.87C216.88 296.82 216 304.94 215.17 311.43C214.73 315.09 214.34 318.24 213.99 320.57C213.81 321.93 213.63 323.28 213.41 324.64C213.45 324.64 213.49 324.64 213.53 324.64C222.48 324.99 231.79 325.55 241.43 326.37C250.23 327.12 258.73 328.03 266.89 329.06C266.73 322.67 266.99 315.23 268.11 307.02C269.57 296.33 272.1 287.19 274.67 279.88C276.21 275.44 277.75 271 279.29 266.56H279.3Z" fill="#DADCE0"/>
    <path d="M215.409 311.44C215.179 314.51 214.779 317.55 214.229 320.58C213.979 322.27 213.689 323.61 213.469 324.62C213.489 324.62 213.509 324.62 213.539 324.64C222.489 324.99 231.799 325.55 241.439 326.37C250.239 327.12 258.739 328.03 266.899 329.06C262.149 323.14 253.569 310.84 249.829 292.88C246.139 275.17 248.969 260.65 250.919 253.32L248.659 251.1L248.599 251.04C247.329 250.69 246.019 250.33 244.659 250.02C242.779 249.46 240.869 249.04 238.929 248.75C238.609 248.7 238.279 248.65 237.959 248.61C237.959 248.61 237.939 248.61 237.929 248.61C235.729 248.58 233.539 248.88 231.429 249.48L231.299 249.54C231.039 249.62 230.769 249.7 230.509 249.8C229.049 250.3 227.639 250.96 226.319 251.76L226.399 251.93L227.059 252.84L227.309 253.19L229.299 255.82L222.589 257.27C221.029 258.72 217.789 292.23 215.419 311.43L215.409 311.44Z" fill="black" opacity="0.1"/>
    <path d="M242.479 252.12C241.729 258.1 247.189 265.06 253.929 267.33C262.159 270.1 270.319 267.77 272.259 262.14C272.369 261.84 272.439 261.53 272.479 261.21C270.339 259.86 268.139 258.61 265.879 257.46C265.029 257.03 262.329 255.66 258.979 254.31C253.199 251.97 247.639 250.54 243.169 249.64C242.909 250.23 242.609 251.08 242.479 252.12Z" fill="#FFCB9D" style="fill: #FFCB9D; fill: var(--tblr-illustrations-skin, #FFCB9D);"/>
    <path d="M247.35 271.96C247.85 271.73 247.93 271.05 247.99 269.7C247.99 269.19 248.05 268.69 248.14 268.19C248.61 267.1 249.25 266.1 250.04 265.22C247 266.3 243.12 267.38 241.2 266.72C240.7 266.57 240.3 266.21 240.09 265.73C239.45 264.08 241.13 261.91 242.45 260.41C245.18 257.16 247.59 255.89 249.56 256.46C251.53 257.03 252.79 260.03 253.15 261.75C254.79 260.32 258.3 257.73 261.31 258.85C263.72 259.8 265.15 263.04 265.51 268.55C265.67 271.09 265.67 274.6 263.9 275.72C263.35 276.08 262.66 276.16 262.04 275.93C259.41 275.03 255.99 270.31 253.8 266.89C253.88 268.09 254.3 269.24 255 270.22C255.62 270.73 255.93 271.51 255.83 272.31C255.3 274.2 254.12 275.83 252.49 276.92L251.79 275.46C253.98 273.59 254.29 272.71 254.26 272.48C254.27 272.24 254.17 272.01 253.97 271.87C252.53 270.61 252.11 267.21 252 265.2C251.04 266.24 250.19 267.37 249.46 268.59C249.42 268.91 249.4 269.24 249.39 269.56C249.35 270.83 249.27 272.95 247.64 273.81C246.7 274.26 245.35 276.7 243.94 280.26L242.63 279.69C244.37 275.25 245.85 272.75 247.32 271.96H247.35ZM249.09 258.25C247.65 257.83 245.75 258.98 243.45 261.6C241.41 263.96 241.55 264.65 241.53 264.67C241.99 265.62 246.72 264.69 251.86 262.67C251.48 261.33 250.74 258.79 249.09 258.25ZM263.4 273.99C263.5 273.98 264.28 273.3 264 268.91C263.68 264.14 262.58 261.34 260.66 260.6L260.52 260.54C258.16 259.71 255.01 262.13 253.7 263.31C257.32 269.31 261.97 274.88 263.39 273.99H263.4Z" fill="#1a3263" style="fill: #1a3263; fill: var(--tblr-illustrations-primary, var(--tblr-primary, #1a3263));"/>
    <path d="M452.012 255.74C452.712 255.04 453.302 254.24 453.752 253.36C455.482 250.29 455.272 246.92 453.062 245.01C450.172 242.56 445.112 243.49 441.742 247.1C441.362 247.48 441.022 247.89 440.722 248.33C438.252 251.69 438.212 255.7 440.702 257.82C443.482 260.18 448.592 259.29 452.012 255.74Z" fill="#FFCB9D" style="fill: #FFCB9D; fill: var(--tblr-illustrations-skin, #FFCB9D);"/>
    <path d="M452.011 255.74C452.711 255.04 453.301 254.24 453.751 253.36L452.841 252.75C448.741 250.19 446.081 250.67 441.281 248.56C441.081 248.45 440.881 248.38 440.671 248.25C438.211 251.61 438.161 255.61 440.651 257.73C443.491 260.17 448.591 259.28 452.011 255.74Z" fill="black" opacity="0.1"/>
    <path d="M344.898 428.67L361.338 427.67C361.338 427.67 362.138 423.44 359.698 421.86C357.258 420.28 347.808 424.85 344.898 428.67Z" fill="#0b1b3b" class="tblr-illustrations tblr-illustrations-vocate tblr-illustrations-welcome-on-board-c"/>
    <path d="M380.07 428.67L396.51 427.67C396.51 427.67 397.31 423.44 394.87 421.86C392.43 420.28 382.98 424.85 380.07 428.67Z" fill="#0b1b3b" class="tblr-illustrations tblr-illustrations-vocate tblr-illustrations-welcome-on-board-c"/>
    <path d="M353.389 415.38C355.669 415.56 357.949 415.74 360.229 415.91C364.679 391.17 369.119 366.43 373.569 341.69C378.149 366.89 382.729 392.09 387.319 417.29C389.559 416.77 391.799 416.26 394.029 415.74C395.399 382.12 396.779 348.5 398.139 314.88C388.409 315.24 378.679 315.6 368.959 315.95C364.229 316.13 359.509 316.3 354.779 316.48C354.309 349.45 353.839 382.42 353.379 415.39L353.389 415.38Z" fill="#DADCE0"/>
    <path d="M353.389 415.38C355.669 415.56 357.949 415.74 360.229 415.91C364.679 391.17 369.119 366.43 373.569 341.69L368.959 315.95C364.229 316.13 359.509 316.3 354.779 316.48C354.309 349.45 353.839 382.42 353.379 415.39L353.389 415.38Z" fill="black" opacity="0.1"/>
    <path d="M305.499 319C304.689 319.43 303.809 319.68 302.899 319.78C299.939 320.38 297.269 319.43 296.089 317.34C295.979 317.15 295.889 316.95 295.799 316.74C294.529 313.52 296.739 309.33 300.929 307.34C301.329 307.13 301.739 306.97 302.179 306.88C302.229 306.86 302.259 306.85 302.309 306.84C302.379 306.82 302.429 306.8 302.499 306.79C306.089 305.7 309.559 306.81 310.629 309.59C310.739 309.9 310.819 310.22 310.879 310.54C311.369 313.57 309.169 317.21 305.509 319H305.499Z" fill="#FFCB9D" style="fill: #FFCB9D; fill: var(--tblr-illustrations-skin, #FFCB9D);"/>
    <path d="M305.5 319C304.69 319.43 303.81 319.68 302.9 319.78C299.94 320.38 297.27 319.43 296.09 317.34C297.66 316.27 299.39 314.77 300.75 312.5C301.6 311.08 302.06 309.77 302.31 308.83V307.47L302.18 306.88V306.86C302.28 306.83 302.39 306.8 302.49 306.8C305.93 306.03 309.23 307.31 310.49 309.62C310.66 309.93 310.79 310.24 310.87 310.55C311.36 313.58 309.16 317.22 305.5 319.01V319Z" fill="black" opacity="0.1"/>
    <path d="M345.52 241.44C346.21 247.13 346.91 252.73 347.6 258.41C348.97 269.35 350.34 280.21 351.62 291.11C352.71 299.59 353.71 308.08 354.79 316.47L398.15 314.87C398.7 306.32 399.17 297.78 399.72 289.33C400.03 284.47 400.34 279.71 400.64 274.86L402.82 239.32L345.52 241.44Z" fill="#1a3263" style="fill: #1a3263; fill: var(--tblr-illustrations-primary, var(--tblr-primary, #1a3263));"/>
    <path d="M383.519 195.53C383.809 197.84 384.189 201.31 384.579 205.46C384.649 206.43 384.679 207.21 384.729 207.49C384.949 212.12 384.599 216.76 383.699 221.31C383.459 222.24 383.299 223.05 383.059 223.96C382.359 226.24 376.469 229.77 369.629 231.71C367.269 232.4 364.829 232.81 362.369 232.92C354.699 233.41 350.049 227.9 350.269 223.35C350.309 222.26 350.679 221.21 351.329 220.33C352.469 218.51 353.299 216.52 353.779 214.42C354.509 211.64 354.989 208.8 355.209 205.94C355.339 205.05 355.419 204.15 355.449 203.25L361.739 195.63L379.409 192.67C379.719 195.66 380.859 197.63 381.819 197.67C382.779 197.71 383.389 195.94 383.519 195.52V195.53Z" fill="#FFCB9D" style="fill: #FFCB9D; fill: var(--tblr-illustrations-skin, #FFCB9D);"/>
    <path d="M383.519 195.53C383.809 197.84 384.189 201.31 384.579 205.46C384.649 206.43 384.679 207.21 384.729 207.49C384.949 212.12 384.599 216.76 383.699 221.31C382.489 221.12 381.329 220.71 380.269 220.12C379.119 219.43 378.109 218.53 377.269 217.48C376.429 216.33 375.769 215.05 375.309 213.7C374.979 212.87 374.729 211.92 374.479 211.09C368.099 214.5 360.749 215.65 353.629 214.37C354.359 211.59 354.839 208.75 355.059 205.89C355.189 205 355.269 204.1 355.299 203.21L361.599 195.6L379.269 192.65C379.569 195.65 380.719 197.6 381.679 197.65C382.639 197.7 383.359 196 383.499 195.59" fill="black" opacity="0.1"/>
    <path d="M386.349 198.97C386.879 202.67 385.999 206.43 383.879 209.5C383.389 210.07 382.989 210.63 382.589 211.18C381.629 212.88 381.109 214.78 381.059 216.73C380.059 215.91 379.359 214.79 379.049 213.54C378.639 211.64 378.899 207.88 378.819 207.39L378.769 207.1C378.719 206.81 378.709 206.52 378.719 206.23C378.649 205.26 378.489 204.3 378.239 203.36L378.199 203.28C374.169 206.8 362.469 215.53 352.869 210.46C351.379 209.65 349.989 208.66 348.739 207.51C348.599 207.42 348.479 207.31 348.389 207.18C348.079 206.89 347.799 206.58 347.549 206.24L347.439 206.16C346.719 205.31 346.149 204.34 345.779 203.29L345.599 202.94C345.429 202.48 345.349 202 345.359 201.51C345.279 199.64 345.879 197.8 347.039 196.32C349.109 193.41 352.499 191.38 354.379 190.28C361.409 185.97 372.659 183.4 380.319 189.14C382.219 190.66 383.749 192.59 384.789 194.78C385.479 196.12 385.989 197.56 386.289 199.04" fill="#0b1b3b" class="tblr-illustrations tblr-illustrations-vocate tblr-illustrations-welcome-on-board-c"/>
    <path d="M378.238 203.28C374.208 206.8 362.508 215.53 352.908 210.46C351.418 209.65 350.028 208.66 348.778 207.51C348.638 207.42 348.518 207.31 348.428 207.18C348.118 206.89 347.838 206.58 347.588 206.24C347.588 206.19 347.538 206.16 347.488 206.16C346.768 205.31 346.198 204.34 345.828 203.29C348.178 204.9 350.778 206.12 353.508 206.92C367.008 210.74 378.958 201.19 380.868 199.7L381.058 199.6C380.188 200.82 379.208 202.08 378.238 203.3" fill="black" opacity="0.5"/>
    <path d="M380.111 238.99C377.781 241.59 374.701 243.4 371.291 244.17L370.811 244.28L362.141 240.73L380.101 239L380.111 238.99Z" fill="#FFCB9D" style="fill: #FFCB9D; fill: var(--tblr-illustrations-skin, #FFCB9D);"/>
    <path d="M380.111 238.99C377.781 241.59 374.701 243.4 371.291 244.17L370.811 244.28L362.141 240.73L380.101 239L380.111 238.99Z" fill="black" opacity="0.1"/>
    <path d="M370.81 244.28L359.99 237.13L357.66 239.73L365.21 250.21L370.81 244.28Z" fill="#DADCE0"/>
    <path d="M371.289 244.27L386.989 233.61L390.689 236.86L380.379 251.39L371.289 244.27Z" fill="#DADCE0"/>
    <path d="M370.81 244.28L359.99 237.13L357.66 239.73L365.21 250.21L370.81 244.28Z" fill="black" opacity="0.11"/>
    <path d="M377.06 253.42C374.77 267.45 372.48 281.49 370.29 295.53C368.9 281.54 367.42 267.54 365.93 253.64C367.65 250.47 369.28 247.41 371.04 244.25L371.53 244.33C373.26 247.41 375.1 250.42 377.06 253.43V253.42Z" fill="#DADCE0"/>
    <path d="M370.908 244.28L370.188 295.56C368.798 281.56 367.318 267.56 365.828 253.66C367.548 250.5 369.178 247.33 370.898 244.27L370.908 244.28Z" fill="black" opacity="0.11"/>
    <path d="M398.149 314.88L354.789 316.48C361.829 312.49 372.429 305.35 382.309 293.49C392.679 281.03 397.829 268.67 400.409 260.84C400.559 264.26 400.709 267.67 400.869 271.09L398.149 314.88Z" fill="black" opacity="0.1"/>
    <path d="M402.821 239.32C403.611 239.41 404.181 239.59 404.471 239.7C413.881 243.05 414.271 261.13 422.691 275.61C423.301 276.66 424.111 277.82 425.101 277.78C428.611 277.67 431.001 262.65 432.541 248.9C441.291 251.56 450.041 254.22 458.791 256.89C448.271 281.39 436.031 297.68 428.261 299.66C422.151 301.22 417.741 299.4 417.741 299.4C414.761 298.17 413.001 296.08 411.771 294.67C403.601 285.28 399.091 276.01 396.621 269.89C398.681 259.7 400.741 249.51 402.811 239.32H402.821Z" fill="#1a3263" style="fill: #1a3263; fill: var(--tblr-illustrations-primary, var(--tblr-primary, #1a3263));"/>
    <path d="M345.52 241.44C344.98 241.42 344.08 241.43 343.04 241.67C335.15 243.52 334.19 255.09 325.98 271.56C320.63 282.3 315.14 289.22 313.18 291.6C307.91 298.02 302.7 302.62 298.93 305.61C303.44 313.66 307.94 321.71 312.45 329.76C317.95 322.6 322.51 316.42 325.97 311.65C333.63 301.09 347.72 281.14 350.04 265.4C350.19 264.41 350.27 263.56 350.27 263.5C351.06 254.18 348.02 246.34 345.52 241.43V241.44Z" fill="#1a3263" style="fill: #1a3263; fill: var(--tblr-illustrations-primary, var(--tblr-primary, #1a3263));"/>
    <path d="M301.02 320.81C299.67 323.15 296.78 324.03 293.73 323.27C293.47 323.21 293.21 323.13 292.95 323.05C292.01 322.76 291.11 322.34 290.28 321.78C286.31 319.18 284.47 314.58 285.96 311.4C286.02 311.28 286.07 311.17 286.14 311.06C287.75 308.22 291.7 307.51 295.46 309.31C295.7 309.42 295.94 309.53 296.17 309.66C296.4 309.79 296.62 309.93 296.85 310.08C297.66 310.6 298.39 311.19 299.02 311.85C301.61 314.53 302.52 318.15 301.02 320.81Z" fill="#FFCB9D" style="fill: #FFCB9D; fill: var(--tblr-illustrations-skin, #FFCB9D);"/>
    <path d="M299.02 311.85C298.78 312.02 298.54 312.2 298.3 312.4C296.57 313.77 295.48 314.64 294.58 316.2C294.12 316.99 292.85 319.25 293.38 322.04C293.47 322.5 293.59 322.91 293.73 323.27C293.47 323.21 293.21 323.13 292.95 323.05C292.01 322.76 291.11 322.34 290.28 321.78C286.31 319.18 284.47 314.58 285.96 311.4C288.17 310.34 291.74 309.69 296.17 309.66C296.4 309.79 296.62 309.93 296.85 310.08C297.66 310.6 298.39 311.19 299.02 311.85Z" fill="black" opacity="0.1"/>
    <path d="M301.742 301.91C300.462 306.93 297.642 311.42 293.672 314.75C292.772 315.5 291.912 316.11 291.082 316.62C288.422 318.26 285.942 319.02 282.552 321.04L281.622 321.6C279.482 323.12 277.192 324.93 274.852 327.08C270.962 330.66 267.962 334.25 265.672 337.41C264.042 332.61 261.052 325.9 255.402 319.35C252.992 316.56 250.542 314.31 248.282 312.51L246.992 311.34C244.882 309.4 242.792 307.5 240.712 305.65C238.132 302.94 235.672 300.12 233.342 297.21C228.572 291.25 224.322 284.89 220.672 278.19C218.492 274.21 216.512 270.12 214.762 265.91C217.472 263.69 220.212 261.49 222.992 259.29C224.222 261.18 225.522 263 226.882 264.78C228.932 267.48 231.122 270.06 233.442 272.51C236.642 275.91 240.092 279.08 243.762 281.98C248.892 286.12 254.482 289.64 260.422 292.49C267.262 295.45 274.362 297.76 281.622 299.4C285.752 300.32 289.922 301.01 294.132 301.45C297.152 301.74 299.802 301.85 301.732 301.91H301.742Z" fill="#DADCE0"/>
    <path d="M262.091 243.05C254.051 243.96 245.161 241.72 241.471 239.25C240.831 238.89 240.291 238.37 239.911 237.74C239.491 236.94 239.151 236.12 238.791 235.25C238.301 234.04 237.861 232.81 237.501 231.56C236.471 228.34 235.741 225.03 235.321 221.67C235.321 221.4 235.211 220.57 235.091 219.63C234.721 215.36 234.541 211.93 234.461 209.46C234.661 209.82 235.671 211.43 236.561 211.28C237.451 211.13 238.301 208.94 238.071 205.87L256.211 205.73L263.781 212.28C263.781 212.28 264.011 213.31 264.491 214.95C265.301 217.72 266.311 220.43 267.511 223.06C268.301 225.09 269.461 226.95 270.931 228.55C275.081 232.56 271.671 241.98 262.091 243.05Z" fill="#FFCB9D" style="fill: #FFCB9D; fill: var(--tblr-illustrations-skin, #FFCB9D);"/>
    <path d="M267.501 223.06C260.611 225.56 253.081 225.68 246.101 223.43C244.331 223.7 242.661 224.44 241.281 225.58C239.241 227.33 239.311 228.93 237.671 231.29L237.501 231.48C236.471 228.29 235.741 225.01 235.301 221.68C235.301 221.41 235.191 220.58 235.071 219.64C234.701 215.37 234.521 211.94 234.441 209.47C234.641 209.83 235.651 211.44 236.541 211.29C237.431 211.14 238.281 208.95 238.051 205.88L256.191 205.74L263.761 212.29C263.761 212.29 263.991 213.32 264.471 214.96C265.281 217.73 266.291 220.44 267.491 223.06H267.501Z" fill="black" opacity="0.1"/>
    <path d="M271.881 212.02C270.811 214.07 269.241 215.83 267.321 217.14C258.931 222.96 246.151 216.58 242.621 214.62C241.791 216.92 239.611 218.69 239.341 220.12C239.261 220.54 239.191 220.96 239.151 221.37C238.971 223.23 239.071 225.1 239.411 226.93C240.261 231.08 240.711 233.32 241.971 237.77C242.071 238.12 242.181 238.5 242.291 238.91C244.051 245.02 243.501 252.38 240.901 258.96C239.171 263.39 236.511 267.46 233.021 270.56C232.841 270.69 232.521 270.99 231.901 271.48C226.621 275.67 216.601 282.15 192.561 287.38C186.601 288.68 178.591 290.15 168.981 291.16C171.611 286.63 173.221 282.63 174.141 279.11C175.601 273.48 175.271 269.06 174.391 265.7C172.211 257.26 166.121 253.39 166.421 245.17C166.641 239.12 170.191 234.3 173.181 231.17C177.851 235.36 185.411 240.66 195.681 242.52C200.301 243.35 211.081 245.3 216.271 239.55C218.991 236.53 217.901 233.84 219.341 228.01C222.131 217.51 229.241 208.67 238.901 203.68C241.601 202.34 251.881 197.26 262.501 200.96C265.281 201.93 271.861 204.23 272.431 208.8C272.551 209.91 272.351 211.02 271.861 212.02H271.881Z" fill="#0b1b3b" class="tblr-illustrations tblr-illustrations-vocate tblr-illustrations-welcome-on-board-c"/>
    <path d="M271.859 211.99C270.789 214.05 269.219 215.81 267.299 217.12C258.869 222.94 246.129 216.56 242.599 214.59C241.399 213.48 240.309 212.25 239.359 210.92C249.339 216.64 261.519 217.03 271.849 211.96V211.99H271.859Z" fill="black" opacity="0.5"/>
    <path d="M648.931 176.86C648.931 185.73 641.741 192.91 632.881 192.91C629.441 192.91 626.241 191.83 623.641 189.98C639.331 186.37 645.991 180.3 648.891 175.77C648.921 176.13 648.931 176.49 648.931 176.86Z" fill="black" opacity="0.1"/>
    <path d="M233.238 265.04C236.348 262.63 238.868 260.61 240.908 258.96C239.178 263.39 236.518 267.46 233.028 270.56C232.848 270.69 232.528 270.99 231.908 271.48C226.628 275.67 216.608 282.15 192.568 287.38C186.608 288.68 178.598 290.15 168.988 291.16C171.618 286.63 173.228 282.63 174.148 279.11C189.328 278.89 218.068 276.83 233.238 265.04Z" fill="black" opacity="0.5"/>
</svg>
