<svg xmlns="http://www.w3.org/2000/svg" width="800" height="600" fill="none" viewBox="0 0 800 600">
    <style>
        :where(.theme-dark, [data-theme="dark"]) .tblr-illustrations-witch-a { fill: black; opacity: 0.07; } :where(.theme-dark, [data-theme="dark"]) .tblr-illustrations-witch-b { fill: #24304d; } :where(.theme-dark, [data-theme="dark"]) .tblr-illustrations-witch-c { fill: black; opacity: 0.3; }
        @media (prefers-color-scheme: dark) { .tblr-illustrations-witch-a { fill: black; opacity: 0.07; } .tblr-illustrations-witch-b { fill: #24304d; } .tblr-illustrations-witch-c { fill: black; opacity: 0.3; } }
    </style>
    <path d="M139.938 321.625C139.938 365.56 186.438 397.431 206.977 432.896C228.17 469.49 233.274 525.432 269.903 546.605C305.416 567.123 355.96 544.167 399.951 544.167C443.942 544.167 494.473 567.123 529.972 546.605C566.601 525.445 571.691 469.49 592.898 432.896C613.437 397.431 659.938 365.56 659.938 321.625C659.938 277.691 613.437 245.834 592.898 210.368C571.705 173.775 566.601 117.833 529.972 96.6599C494.473 76.1414 443.915 99.0976 399.951 99.0976C355.988 99.0976 305.43 76.1414 269.903 96.6599C233.274 117.819 228.184 173.775 206.977 210.368C186.438 245.834 139.938 277.705 139.938 321.625Z" fill="#1a3263" style="fill: #1a3263; fill: var(--tblr-illustrations-primary, var(--tblr-primary, #1a3263));" opacity="0.02" class="tblr-illustrations tblr-illustrations-vocate tblr-illustrations-witch-a"/>
    <path d="M487.938 475.118H310.938C310.938 475.118 314.545 433.274 318.458 407.655C319.544 400.532 321.188 388.768 322.957 375.568C327.65 341.334 333.388 297.232 333.388 297.232C333.36 288.228 334.182 275.125 338.639 260.043C341.786 249.241 343.402 243.847 347.106 239.846C354.752 231.539 364.696 232.389 414.82 234.758C439.596 235.943 446.755 236.166 450.265 241.784C455.585 250.286 447.577 262.734 441.867 274.665C441.309 275.808 441.407 281.272 441.867 289.315C443.245 313.387 448.162 360.821 450.265 386.175C453.05 420.046 487.938 475.132 487.938 475.132V475.118Z" fill="#0b1b3b" class="tblr-illustrations tblr-illustrations-vocate tblr-illustrations-witch-b"/>
    <path d="M487.938 475.118H310.938C310.938 475.118 314.545 433.292 318.458 407.683C319.544 400.563 321.188 388.804 322.957 375.609C328.179 337.112 333.416 298.629 338.639 260.132C341.87 266.528 351.535 283.54 371.938 293.293C405.67 309.413 438.594 291.259 441.853 289.392C442.73 300.594 444.053 317.188 445.78 337.321C448.203 365.591 449.415 379.733 450.251 386.212C452.925 407.098 461.295 437.555 487.924 475.132L487.938 475.118Z" fill="black" opacity="0.15"/>
    <path d="M254.566 319.281C253.483 310.671 252.594 293.019 262.773 276.986C272.202 262.125 286.38 256.194 306.918 247.57C318.111 242.882 334.691 237.16 355.938 234.132C355.063 246.873 354.188 259.613 353.313 272.353C345.634 279.205 341.343 285.819 338.899 290.396C327.526 311.606 333.441 330.249 318.555 348.097C315.306 352.004 313.431 352.995 311.57 353.12C298.545 353.958 287.075 310.867 287.075 310.867C276.243 313.672 265.398 316.476 254.566 319.267V319.281Z" fill="#0b1b3b" class="tblr-illustrations tblr-illustrations-vocate tblr-illustrations-witch-b"/>
    <path d="M325.937 327.618C325.993 335.217 321.891 342.983 313.66 358.252C304.838 374.602 300.343 382.784 295.539 383.117C287.307 383.658 280.48 369.804 269.144 346.922C268.554 345.729 268.006 344.606 267.459 343.51C260.983 330.308 257.864 323.013 259.269 315.497C260.688 307.953 266.04 301.518 276.8 288.649C283.444 280.675 285.579 279.676 287.56 279.302C296.986 277.554 306.425 289.73 312.058 297.011C313.688 299.119 315.331 301.241 316.862 303.404C321.779 310.338 325.867 317.924 325.937 327.631V327.618Z" fill="#1a3263" style="fill: #1a3263; fill: var(--tblr-illustrations-primary, var(--tblr-primary, #1a3263));"/>
    <path d="M316.937 302.766C303.148 303.019 295.648 308.353 292.637 310.887C276.962 324.159 274.485 353.8 290.301 382.132C283.195 372.618 266 348.536 260.372 327.087C259.19 322.569 258.515 318.966 259.232 315.039C260.653 307.382 266.014 300.852 276.793 287.791C283.448 279.698 285.587 278.684 287.571 278.304C297.013 276.531 306.469 288.888 312.111 296.277C313.743 298.417 315.39 300.57 316.923 302.766H316.937Z" fill="black" opacity="0.1"/>
    <path d="M281.509 292.593C275.339 299.887 266.616 307.476 263.798 316.21C262.55 320.571 263.573 325.14 264.99 329.599C266.546 334.49 268.65 339.465 270.725 344.412C274.862 352.909 285.043 382.704 295.21 382.033C299.403 380.817 302.137 374.738 304.507 371.007C309.598 361.685 314.52 351.903 318.727 342.19C323.326 332.617 323.088 322.988 317.913 314.128C313.005 305.911 305.25 297.148 298.449 290.566C295.644 288.107 291.69 284.85 288.352 285.647C288.38 285.675 288.563 285.605 288.423 285.689C286.221 287.45 283.711 290.203 281.509 292.606V292.593ZM271.314 284.221C274.329 280.476 276.853 276.815 281.453 273.992C290.666 268.793 301.198 275.473 306.975 282.027C314.702 291.223 320.704 299.566 325.696 310.425C334.054 329.878 324.658 342.414 315.487 358.583C312.851 363.292 310.13 367.946 307.41 372.656C304.297 377.309 301.702 383.57 295.658 385.08C285.576 386.226 277.793 368.393 273.306 361.168C268.692 352.532 261.891 341.268 257.698 332.435C247.461 313.01 260.18 299.161 271.342 284.235L271.314 284.221Z" fill="#0b1b3b" class="tblr-illustrations tblr-illustrations-vocate tblr-illustrations-witch-b"/>
    <path d="M501.887 94.6649C501.526 96.6172 499.721 97.942 497.776 97.7188C497.137 97.4539 496.485 97.1889 495.818 96.91H495.804C492.624 95.5713 489.138 94.135 485.763 92.7544C481.888 91.1647 478.18 89.6447 475.25 88.4593C472.264 87.2461 468.931 89.2403 468.57 92.4616L464.876 125.218L462.015 150.501L461.945 151.1L461.834 152.132L439.627 143.919L375.938 120.366C376.076 119.654 382.604 112.25 391.881 102.014C405.338 87.1764 424.587 66.3565 438.628 51.2261C448.071 41.0463 464.39 41.9527 472.653 53.1087C481.833 65.5058 492.943 80.6083 500.123 90.7045C500.72 91.5691 501.318 92.3918 501.859 93.1867C501.957 93.6469 501.97 94.135 501.859 94.637L501.887 94.6649Z" fill="#0b1b3b" class="tblr-illustrations tblr-illustrations-vocate tblr-illustrations-witch-b"/>
    <path d="M462.019 151.132L439.672 143.963L375.938 120.452C376.076 119.742 382.608 112.364 391.892 102.132C404.733 104.972 418.534 108.633 433.029 113.394C444.439 117.139 455.084 121.162 464.938 125.296L462.005 151.132H462.019Z" fill="#1a3263" style="fill: #1a3263; fill: var(--tblr-illustrations-primary, var(--tblr-primary, #1a3263));"/>
    <path d="M485.924 92.2508C482.054 90.6573 478.35 89.1338 475.423 87.9457C472.441 86.7296 469.112 88.7284 468.752 91.9573L465.062 124.791L462.205 150.132L432.938 133.792C432.938 133.792 454.118 85.0802 462.773 77.5603C469.709 71.5219 481.527 86.2124 485.938 92.2508H485.924Z" fill="black" opacity="0.2"/>
    <path d="M509.642 193.626C512.443 184.882 471.833 164.06 418.937 147.117C366.042 130.175 320.891 123.529 318.09 132.273C315.29 141.017 355.9 161.839 408.795 178.781C461.691 195.724 506.841 202.37 509.642 193.626Z" fill="#1a3263" style="fill: #1a3263; fill: var(--tblr-illustrations-primary, var(--tblr-primary, #1a3263));"/>
    <path d="M372.833 161.146C361.699 178.407 344.637 190.886 324.938 196.214L387.938 208.132L372.778 161.132" fill="#0b1b3b" class="tblr-illustrations tblr-illustrations-vocate tblr-illustrations-witch-b"/>
    <path d="M374.977 211.586C393.032 215.247 413.962 211.879 422.885 206.993C424.428 206.283 425.76 205.212 426.771 203.862C427.851 202.136 428.833 200.354 429.885 198.42C431.232 195.817 432.452 193.061 433.602 190.319C436.548 183.165 438.849 175.761 440.448 168.203C440.504 167.577 440.925 165.726 441.332 163.596C443.044 153.992 444.292 146.143 444.938 140.798C444.39 141.55 441.767 145.015 439.761 144.486C437.755 143.957 396.02 128.132 396.02 128.132L377.278 141.369C377.278 141.369 376.534 143.679 375.103 147.228C372.775 153.422 370.011 159.448 366.841 165.252C364.624 169.692 361.594 173.701 357.918 177.069C347.523 185.253 353.457 207.286 375.174 211.572" fill="#FFCB9D" style="fill: #FFCB9D; fill: var(--tblr-illustrations-skin, #FFCB9D);"/>
    <path d="M366.965 165.121C381.981 172.117 398.903 173.879 415.025 170.146C418.975 171.062 422.595 173.074 425.482 175.934C429.709 180.278 429.267 183.859 432.486 189.577L432.776 190.132C435.677 182.998 437.928 175.614 439.517 168.078C439.572 167.453 439.987 165.607 440.387 163.484C442.086 153.893 443.302 146.079 443.938 140.749C443.399 141.498 440.829 144.954 438.84 144.427C436.851 143.899 395.671 128.132 395.671 128.132L377.215 141.332C377.215 141.332 376.483 143.636 375.074 147.175C372.781 153.351 370.059 159.361 366.938 165.149" fill="black" opacity="0.1"/>
    <path d="M468.622 209.592C468.314 210.819 467.977 212.033 467.599 213.232C467.36 214.013 467.108 214.795 466.841 215.576C466.435 216.761 465.986 217.933 465.523 219.104C465.523 219.104 465.523 219.118 465.523 219.132L465.397 219.104L442.929 215.506H442.915L414.907 211.029C420.615 200.958 425.552 190.512 429.731 179.73C430.517 177.164 431.078 174.527 431.386 171.849C431.428 171.347 431.47 170.845 431.513 170.343C431.583 169.269 431.597 168.195 431.555 167.121C431.555 166.27 431.456 165.238 431.372 164.248C431.204 162.63 429.97 160.705 428.581 158.501C427.249 156.395 425.804 154.024 425.061 151.43C425.019 151.318 424.991 151.207 424.963 151.095C424.851 151.151 424.725 151.193 424.612 151.263C422.116 152.364 417.922 154.08 412.775 155.628C399.816 159.547 380.841 162.463 368.022 152.071C363.87 148.724 360.631 144.4 358.597 139.477L358.864 139.63C358.232 138.04 357.924 136.352 357.938 134.665C357.938 133.828 358.008 133.005 358.176 132.182C360.112 123.311 371.851 119.127 379.2 117.132C393.575 119.727 407.712 123.451 418.848 127.049C427.768 129.936 438.539 133.967 449.394 138.807C454.037 143.703 458.104 149.17 461.442 155.098C463.882 159.422 465.874 163.955 467.402 168.669C467.585 169.157 467.753 169.66 467.879 170.162C467.921 170.315 467.963 170.483 467.991 170.636C468.005 170.706 468.033 170.775 468.047 170.845L468.146 171.194C469.099 174.541 469.829 177.959 470.319 181.418C470.333 181.515 470.347 181.613 470.361 181.697C470.572 183.621 470.6 185.128 470.782 186.09C471.287 193.998 470.558 201.907 468.636 209.536L468.622 209.592Z" fill="#0b1b3b" class="tblr-illustrations tblr-illustrations-vocate tblr-illustrations-witch-b"/>
    <path d="M470.825 185.282C470.74 184.295 470.614 182.808 470.404 180.89L470.348 180.625L468.076 170.088L468.019 169.824C467.977 169.685 467.935 169.532 467.907 169.393C467.767 168.878 467.613 168.392 467.43 167.905C462.858 155.588 445.958 149.777 429.029 147.039C429.085 146.955 429.155 146.886 429.211 146.802C431.175 144.105 431.399 141.325 431.427 140.241C405.593 136.209 379.772 132.164 353.938 128.132L358.58 138.781C360.6 143.688 363.839 147.998 368.005 151.334C385.228 165.417 413.713 155.199 423.559 150.973C423.573 150.973 423.587 150.959 423.615 150.945C423.84 150.848 424.05 150.764 424.246 150.667C424.359 150.625 424.485 150.57 424.583 150.514C424.667 150.472 424.751 150.445 424.821 150.403C424.864 150.389 424.906 150.361 424.934 150.347C424.962 150.459 424.99 150.57 425.032 150.681C425.775 153.267 427.22 155.63 428.552 157.729C429.941 159.926 431.175 161.844 431.343 163.457C431.427 164.444 431.512 165.472 431.526 166.32C431.568 167.391 431.554 168.461 431.484 169.532C450.39 185.783 454.205 195.347 452.059 201.27C449.955 207.039 441.68 210.737 442.914 214.532C442.914 214.532 442.914 214.532 442.914 214.546L465.383 218.132C465.383 218.132 465.467 218.132 465.509 218.132C465.972 216.965 466.407 215.797 466.827 214.615C467.094 213.837 467.346 213.058 467.585 212.28C467.963 211.07 468.3 209.861 468.609 208.651C470.558 201.033 471.287 193.137 470.782 185.255L470.825 185.282Z" fill="black" opacity="0.5"/>
    <path d="M511.881 187.817C511.601 190.442 510.707 192.589 509.869 194.132C500.898 187.467 489.496 179.72 475.705 172.016C463.297 165.07 448.961 158.166 432.753 152.104C432.599 152.033 432.445 151.977 432.291 151.935C428.002 150.321 423.558 148.778 418.989 147.318C399.944 141.2 382.031 137.453 365.878 135.236C347.141 132.654 330.807 132.149 317.938 132.373C318.133 130.745 318.622 128.444 319.95 126.058C328.068 111.647 358.054 112.292 387.047 117.597C401.369 120.207 415.454 123.953 426.549 127.574C435.435 130.479 446.166 134.534 456.981 139.404C485.067 152.019 513.697 170.136 511.853 187.803L511.881 187.817Z" fill="#0b1b3b" class="tblr-illustrations tblr-illustrations-vocate tblr-illustrations-witch-b"/>
    <path d="M462.938 395.132C468.46 395.132 472.938 390.655 472.938 385.132C472.938 379.609 468.46 375.132 462.938 375.132C457.415 375.132 452.938 379.609 452.938 385.132C452.938 390.655 457.415 395.132 462.938 395.132Z" fill="#1a3263" style="fill: #1a3263; fill: var(--tblr-illustrations-primary, var(--tblr-primary, #1a3263));"/>
    <path d="M433.937 393.132C439.46 393.132 443.938 388.655 443.938 383.132C443.938 377.609 439.46 373.132 433.937 373.132C428.415 373.132 423.938 377.609 423.938 383.132C423.938 388.655 428.415 393.132 433.937 393.132Z" fill="#1a3263" style="fill: #1a3263; fill: var(--tblr-illustrations-primary, var(--tblr-primary, #1a3263));"/>
    <path d="M449.437 362.132C453.027 362.132 455.938 358.998 455.938 355.132C455.938 351.266 453.027 348.132 449.437 348.132C445.848 348.132 442.938 351.266 442.938 355.132C442.938 358.998 445.848 362.132 449.437 362.132Z" fill="#1a3263" style="fill: #1a3263; fill: var(--tblr-illustrations-primary, var(--tblr-primary, #1a3263));"/>
    <path d="M399.438 542.132C506.857 542.132 593.938 539.67 593.938 536.632C593.938 533.595 506.857 531.132 399.438 531.132C292.018 531.132 204.938 533.595 204.938 536.632C204.938 539.67 292.018 542.132 399.438 542.132Z" fill="#d9e2f3" opacity="0.5" class="tblr-illustrations tblr-illustrations-vocate tblr-illustrations-witch-c"/>
    <path d="M512.938 376.132V361.132L504.938 369.118L512.938 376.132Z" fill="#0b1b3b" class="tblr-illustrations tblr-illustrations-vocate tblr-illustrations-witch-b"/>
    <path d="M284.938 376.132V360.132L289.938 369.39L284.938 376.132Z" fill="#0b1b3b" class="tblr-illustrations tblr-illustrations-vocate tblr-illustrations-witch-b"/>
    <path d="M288.055 435.647C277.329 439.693 265.395 434.457 261.422 423.958C257.434 413.458 262.91 401.657 273.636 397.625C284.363 393.579 296.296 398.815 300.27 409.315C301.224 411.82 301.618 414.396 301.561 416.916C302.348 412.058 301.926 406.949 300.059 402.035C294.303 386.832 277.034 379.258 261.506 385.11C245.978 390.962 238.059 408.027 243.816 423.23C249.572 438.433 266.841 446.006 282.369 440.155C287.227 438.321 291.326 435.395 294.513 431.783C292.66 433.407 290.498 434.737 288.041 435.661L288.055 435.647Z" fill="#0b1b3b" class="tblr-illustrations tblr-illustrations-vocate tblr-illustrations-witch-b"/>
    <path d="M510.82 435.647C521.546 439.693 533.48 434.457 537.453 423.958C541.441 413.458 535.965 401.657 525.239 397.625C514.512 393.579 502.579 398.815 498.605 409.315C497.651 411.82 497.257 414.396 497.314 416.916C496.527 412.058 496.949 406.949 498.816 402.035C504.572 386.832 521.841 379.258 537.369 385.11C552.897 390.962 560.816 408.027 555.059 423.23C549.303 438.433 532.034 446.006 516.506 440.155C511.648 438.321 507.549 435.395 504.362 431.783C506.215 433.407 508.377 434.737 510.834 435.661L510.82 435.647Z" fill="#0b1b3b" class="tblr-illustrations tblr-illustrations-vocate tblr-illustrations-witch-b"/>
    <path d="M498.601 409.603C497.649 412.085 497.243 414.637 497.313 417.132C496.528 412.321 496.949 407.26 498.811 402.393C502.593 392.493 511.32 385.866 521.265 384.132C521.111 387.446 521.153 391.98 521.938 397.097C512.174 395.1 502.173 400.244 498.601 409.603Z" fill="black" opacity="0.25"/>
    <path d="M546.938 434.513C538.879 441.743 527.072 444.299 516.125 440.123C511.264 438.263 507.136 435.308 503.938 431.629C505.797 433.277 507.981 434.626 510.433 435.564C520.337 439.342 531.27 435.138 536.061 426.132C539.062 429.186 542.654 432.027 546.938 434.513Z" fill="black" opacity="0.25"/>
    <path d="M293.938 431.795C290.785 435.417 286.717 438.325 281.926 440.157C266.569 446.002 249.49 438.437 243.797 423.252C239.811 412.639 242.45 401.103 249.642 393.132C252.045 397.159 256.113 401.998 262.931 406.262C259.765 411.436 258.918 417.924 261.195 423.979C265.125 434.466 276.928 439.71 287.536 435.668C289.952 434.746 292.105 433.417 293.938 431.795Z" fill="black" opacity="0.25"/>
    <path d="M524.937 428.639C524.937 478.627 468.515 519.132 398.937 519.132C349.454 519.132 306.632 498.642 286.022 468.837C277.647 456.724 272.938 443.073 272.938 428.639C272.938 378.651 329.346 338.132 398.937 338.132C414.795 338.132 429.985 340.244 443.961 344.091C491.312 357.098 524.937 390.036 524.937 428.625V428.639Z" fill="#DADCE0"/>
    <path d="M524.938 428.661C524.938 478.637 468.495 519.132 398.893 519.132C349.392 519.132 306.555 498.647 285.938 468.849C337.906 484.034 378.694 480.678 402.768 476.414C418.785 473.575 470.99 464.318 475.437 440.057C477.388 429.36 474.935 418.998 458.695 401.45C435.666 376.573 433.924 357.976 443.933 344.132C491.3 357.137 524.938 390.067 524.938 428.647V428.661Z" fill="black" opacity="0.1"/>
    <path d="M398.937 410.132C461.898 410.132 512.938 395.134 512.938 376.632C512.938 358.131 461.898 343.132 398.937 343.132C335.977 343.132 284.938 358.131 284.938 376.632C284.938 395.134 335.977 410.132 398.937 410.132Z" fill="#0b1b3b" class="tblr-illustrations tblr-illustrations-vocate tblr-illustrations-witch-b"/>
    <path d="M512.938 361.181C512.938 367.179 507.402 372.805 497.7 377.656C477.99 387.498 441.141 394.132 398.937 394.132C385.168 394.132 371.944 393.427 359.698 392.114C334.508 389.433 313.469 384.263 300.203 377.643C294.192 374.63 289.788 371.326 287.314 367.829C287.034 367.456 286.783 367.055 286.559 366.682C286.531 366.654 286.517 366.64 286.517 366.613C286.321 366.253 286.14 365.922 285.986 365.576C285.818 365.217 285.664 364.885 285.539 364.539C285.385 364.083 285.245 363.627 285.161 363.171C285.119 362.964 285.077 362.729 285.049 362.521C285.021 362.369 285.007 362.231 285.007 362.079C284.965 361.761 284.938 361.457 284.938 361.139C284.938 360.849 284.965 360.559 284.979 360.282C285.007 360.047 285.021 359.84 285.063 359.619C285.091 359.467 285.105 359.329 285.147 359.177C285.231 358.734 285.343 358.32 285.483 357.905C285.567 357.67 285.636 357.463 285.734 357.255C285.79 357.048 285.902 356.854 285.986 356.647C286.098 356.412 286.196 356.205 286.321 355.984C286.559 355.569 286.811 355.154 287.076 354.74C287.342 354.325 287.663 353.91 287.999 353.509C288.334 353.095 288.698 352.694 289.075 352.279C289.453 351.879 289.872 351.505 290.291 351.091H290.319C304.998 337.766 348.081 328.132 398.924 328.132C461.886 328.132 512.924 342.894 512.924 361.098L512.938 361.181Z" fill="#A6A9B3"/>
    <path d="M416.924 341.551C401.866 347.378 376.918 360.414 364.034 385.956C362.864 388.284 361.526 390.334 360.064 392.132C334.963 389.428 313.999 384.213 300.78 377.535C294.791 374.496 290.403 371.163 287.938 367.636C298.607 352.523 344.338 341.132 399.178 341.132C405.223 341.132 411.143 341.286 416.938 341.551H416.924Z" fill="black" opacity="0.1"/>
    <path d="M497.938 377.682C490.366 381.406 479.449 386.186 465.771 390.076C439.391 397.58 418.295 397.385 393.937 396.968C372.869 396.607 355.441 396.19 333.006 389.896C319.356 386.074 308.453 381.35 300.938 377.696C309.945 373.708 317.781 371.081 323.72 369.539C332.713 367.205 343.003 365.273 354.214 363.87C359.554 363.175 365.117 362.619 370.861 362.202C379.994 361.507 389.559 361.132 399.431 361.132C441.524 361.132 478.278 367.788 497.938 377.709V377.682Z" fill="#1a3263" style="fill: #1a3263; fill: var(--tblr-illustrations-primary, var(--tblr-primary, #1a3263));"/>
    <path d="M401.95 397.132C402.594 395.563 402.938 393.869 402.938 392.093C402.938 384.397 396.457 378.132 388.459 378.132C380.461 378.132 373.938 384.397 373.938 392.093C373.938 393.635 374.195 395.108 374.696 396.513L401.95 397.132Z" fill="black" opacity="0.1"/>
    <path d="M416.938 385.132C420.803 385.132 423.938 381.998 423.938 378.132C423.938 374.266 420.803 371.132 416.938 371.132C413.072 371.132 409.938 374.266 409.938 378.132C409.938 381.998 413.072 385.132 416.938 385.132Z" fill="black" opacity="0.1"/>
    <path d="M333.438 383.132C335.923 383.132 337.938 380.894 337.938 378.132C337.938 375.371 335.923 373.132 333.438 373.132C330.952 373.132 328.938 375.371 328.938 378.132C328.938 380.894 330.952 383.132 333.438 383.132Z" fill="black" opacity="0.1"/>
    <path d="M320.703 536.132H291.938C311.607 519.523 316.336 484.132 316.336 484.132L322.446 486.096L329.798 488.461C331.263 498.93 320.689 536.118 320.689 536.118L320.703 536.132Z" fill="#DADCE0"/>
    <path d="M320.69 536.132H305.938C316.275 520.53 320.857 497.078 322.436 486.132L329.798 488.496C331.265 498.957 320.676 536.118 320.676 536.118L320.69 536.132Z" fill="black" opacity="0.1"/>
    <path d="M474.172 536.132H502.938C483.268 519.523 478.539 484.132 478.539 484.132L472.428 486.096L465.077 488.461C463.612 498.93 474.186 536.118 474.186 536.118L474.172 536.132Z" fill="#DADCE0"/>
    <path d="M474.185 536.132H488.938C478.6 520.53 474.018 497.078 472.439 486.132L465.077 488.496C463.61 498.957 474.199 536.118 474.199 536.118L474.185 536.132Z" fill="black" opacity="0.1"/>
    <path d="M398.951 341.605C454.001 341.605 499.923 352.986 510.603 368.132C512.141 365.957 512.938 363.697 512.938 361.396C512.938 343.028 461.9 328.132 398.938 328.132C335.975 328.132 284.938 343.028 284.938 361.396C284.938 363.697 285.748 365.957 287.272 368.132C297.952 353 343.874 341.605 398.924 341.605H398.951Z" fill="#DADCE0"/>
    <path d="M393.724 289.896L370.572 362.015L368.838 367.133C366.765 372.753 364.763 378.664 362.859 384.854C362.831 384.951 362.803 385.034 362.775 385.132C362.662 385.507 362.549 385.883 362.436 386.258C361.52 389.263 360.674 392.211 359.884 395.132C357.304 394.952 354.498 394.646 351.509 394.145C348.788 393.7 346.25 393.157 343.938 392.573C344.375 391.349 344.995 389.569 345.714 387.399C345.813 387.093 345.911 386.801 346.01 386.537C346.25 385.785 346.447 385.201 346.56 384.881C346.588 384.784 346.616 384.714 346.631 384.673C348.633 378.817 350.607 372.933 352.595 367.064L353.737 363.684L378.454 286.878C379.37 284.207 382.923 282.608 386.42 283.289L389.028 283.818C392.525 284.499 394.64 287.212 393.724 289.896Z" fill="#A6A9B3"/>
    <path d="M389.084 355.548C384.872 366.01 366.329 366.846 361.893 367.07C339.853 368.088 322.71 356.51 307.317 345.937C292.749 335.936 282.281 324.581 277.272 319.141C276.376 318.178 275.508 317.202 274.683 316.267C271.296 312.445 268.637 309.167 268.637 309.167C268.469 308.958 268.301 308.735 268.119 308.526C268.063 308.442 267.993 308.358 267.938 308.289C268.007 308.149 268.119 307.954 268.259 307.703C269.253 306.043 270.205 304.913 270.638 304.397C273.311 301.23 272.849 301.495 275.564 298.469C279.413 294.158 283.359 290.253 285.528 288.132C286.13 288.648 286.759 289.179 287.417 289.695C288.117 290.267 288.803 290.811 289.488 291.327C289.53 291.327 289.558 291.368 289.586 291.396C289.838 291.592 290.118 291.815 290.426 292.052C290.986 292.47 291.545 292.917 292.147 293.363C292.483 293.614 292.847 293.893 293.211 294.2C293.617 294.507 294.05 294.828 294.498 295.177C294.526 295.204 294.568 295.232 294.596 295.26C317.085 312.459 328.308 321.052 334.997 324.26C360.368 336.424 376.643 325.809 386.075 339.325C386.355 339.716 392.05 348.141 389.084 355.548Z" fill="#FFCB9D" style="fill: #FFCB9D; fill: var(--tblr-illustrations-skin, #FFCB9D);"/>
    <path d="M293.938 295.143C291.02 296.6 287.225 298.933 283.513 302.639C278.677 307.456 276.006 312.579 274.54 316.132C271.225 312.329 268.622 309.066 268.622 309.066C268.458 308.858 268.294 308.636 268.116 308.428C268.061 308.345 267.992 308.261 267.938 308.192C268.006 308.053 268.116 307.859 268.253 307.609C269.225 305.957 270.157 304.832 270.581 304.319C273.198 301.168 272.746 301.431 275.403 298.419C279.17 294.129 283.033 290.242 285.157 288.132C285.746 288.646 286.362 289.174 287.006 289.687C287.691 290.256 288.362 290.798 289.033 291.311C289.075 291.311 289.102 291.353 289.129 291.381C289.376 291.575 289.65 291.797 289.951 292.033C290.499 292.45 291.047 292.894 291.636 293.338C291.965 293.588 292.321 293.866 292.677 294.171C293.074 294.476 293.499 294.796 293.938 295.143Z" fill="black" opacity="0.1"/>
    <path d="M438.938 236.047C427.224 250.722 402.779 280.67 402.71 281.129C402.389 281.436 381.332 258.268 358.938 233.457C361.768 231.912 380.189 229.448 384.498 230.311C387.649 230.937 391.54 231.592 396.602 232.121C409.891 233.485 415.999 232.33 422.371 232.483C424.226 232.525 426.109 232.664 428.2 233.026C430.013 233.332 431.979 233.806 434.238 234.488C435.744 234.947 437.278 235.435 438.938 236.047Z" fill="#1a3263" style="fill: #1a3263; fill: var(--tblr-illustrations-primary, var(--tblr-primary, #1a3263));"/>
    <path d="M422.938 232.358C413.465 244.136 404.847 254.86 404.805 255.127C404.763 255.422 395.123 243.195 384.938 230.166C386.057 230.138 387.638 230.124 389.541 230.138C392.815 230.18 395.291 230.335 397.977 230.503C404.665 230.939 408.499 231.234 408.499 231.234C414.011 231.656 418.866 232.035 422.938 232.358Z" fill="#FFCB9D" style="fill: #FFCB9D; fill: var(--tblr-illustrations-skin, #FFCB9D);"/>
    <path d="M504.332 341.132C498.996 333.402 488.1 319.818 469.627 309.209C452.33 299.282 436.167 296.446 426.938 295.5C432.078 276.049 437.232 256.584 442.372 237.132C447.106 238.523 460.663 242.499 465.411 243.876C480.537 248.297 496.811 253.052 511.938 257.473C502.974 263.077 498.87 269.25 496.867 273.157C488.954 288.604 494.178 306.999 500.313 328.619C501.839 333.986 503.324 338.324 504.332 341.132Z" fill="#0b1b3b" class="tblr-illustrations tblr-illustrations-vocate tblr-illustrations-witch-b"/>
    <path d="M188.938 154.029L189.077 154.488C190.416 155.115 211.777 172.915 219.139 179.071C220.687 180.352 221.607 181.132 221.607 181.132C236.708 174.558 251.823 167.998 266.91 161.424C266.91 161.396 266.91 161.383 266.938 161.341C266.031 159.878 265.153 158.43 264.302 156.967C263.772 156.09 263.256 155.212 262.74 154.335C262.015 153.109 260.565 152.51 259.185 152.831C245.381 156.16 231.605 159.488 217.814 162.803C211.861 157.538 205.921 152.274 199.981 147.023C198.517 145.797 196.383 145.839 194.989 147.134C194.961 147.162 194.933 147.176 194.905 147.204C194.682 147.413 194.459 147.622 194.222 147.859C193.985 148.081 193.748 148.318 193.511 148.555C193.274 148.792 193.051 149.028 192.814 149.279C192.214 149.878 191.629 150.491 191.085 151.062C190.248 151.995 189.537 152.859 189.175 153.485C189.063 153.694 188.979 153.875 188.938 154.029Z" fill="#1a3263" style="fill: #1a3263; fill: var(--tblr-illustrations-primary, var(--tblr-primary, #1a3263));"/>
    <path d="M188.938 153.348L216.385 175.132L216.921 170.8L216.936 170.691L217.938 162.491C211.912 157.325 205.9 152.159 199.888 147.006C198.407 145.803 196.248 145.844 194.836 147.115C194.808 147.143 194.78 147.156 194.752 147.184C194.526 147.389 194.3 147.607 194.06 147.826C193.82 148.045 193.58 148.277 193.34 148.509C193.101 148.755 192.875 148.988 192.635 149.22C192.028 149.808 191.435 150.409 190.885 150.969C190.038 151.885 189.319 152.733 188.952 153.348H188.938Z" fill="black" opacity="0.1"/>
    <path d="M294.938 232.219C294.798 233.494 294.075 234.586 293.031 235.202L291.083 235.763L276.039 240.034C264.197 243.41 252.368 246.757 240.511 250.132L232.746 224.082L216.993 171.238C216.965 171.126 216.938 171.07 216.938 171.07C233.205 166.168 249.487 161.252 265.755 156.35C268.469 155.538 271.322 157.065 272.171 159.768C272.658 161.308 273.145 162.835 273.618 164.376C280.423 186 287.214 207.625 294.005 229.236C294.311 230.23 294.631 231.225 294.938 232.219Z" fill="#DADCE0"/>
    <path d="M191.486 150.483C190.281 149.513 188.569 150.708 189.008 152.212L189.377 153.477L189.514 153.94L210.796 226.675L239.938 250.132L219.067 178.747L216.78 170.891L216.753 170.792L191.5 150.483H191.486Z" fill="#A6A9B3"/>
    <path d="M362.923 534.556L332.372 398.943C332.372 398.943 332.33 398.818 332.302 398.776C332.288 398.706 332.26 398.65 332.218 398.58V398.51L332.106 398.398C332.106 398.398 332.008 398.3 331.952 398.258C331.938 398.23 331.91 398.216 331.882 398.202H331.742L331.602 398.132H331.085C331.085 398.132 330.973 398.174 330.917 398.202L330.721 398.3H330.651C330.651 398.3 330.567 398.37 330.539 398.412C330.483 398.454 330.441 398.51 330.399 398.566L330.343 398.636L255.092 533.983C254.77 534.556 254.966 535.283 255.54 535.605C255.722 535.703 255.918 535.745 256.128 535.759C256.576 535.759 256.981 535.521 257.191 535.143L282.214 489.767C283.194 492.521 285.419 496.856 289.842 498.632C293.956 500.268 298.924 499.289 304.676 495.738L293.998 536.668C293.83 537.311 294.222 537.968 294.866 538.122C294.964 538.136 295.062 538.136 295.16 538.122C295.705 538.122 296.181 537.758 296.321 537.227L307.363 495.08C310.694 497.22 318.965 501.807 329.111 501.807C335.969 501.807 343.652 499.667 351.209 493.388L360.586 535.031C360.712 535.577 361.202 535.968 361.762 535.968H362.027C362.657 535.815 363.049 535.185 362.909 534.556H362.923ZM314.445 458.513C309.952 461.352 306.356 462.275 304.032 461.142C301.373 459.856 300.996 456.178 300.982 456.108L327.67 408.173L314.445 458.513ZM331.113 404.313L343.05 457.437C341.581 460.094 339.118 462.037 336.193 462.82C328.915 464.792 319.637 460.275 316.824 458.751L331.127 404.299L331.113 404.313ZM290.751 496.409C285.419 494.269 283.922 486.998 283.894 486.928C283.894 486.9 283.894 486.858 283.894 486.83L299.33 459.101C299.974 460.919 301.289 462.415 302.997 463.296C305.712 464.624 309.267 464.121 313.605 461.8L305.628 492.284C299.582 496.521 294.586 497.961 290.751 496.395V496.409ZM307.979 492.689L316.236 461.142C319.091 462.652 325.711 465.715 332.246 465.715C333.786 465.715 335.325 465.533 336.823 465.142C339.566 464.428 342.001 462.848 343.778 460.625L350.566 490.745C331.574 507.638 312.01 495.528 307.965 492.675L307.979 492.689Z" fill="#0b1b3b" class="tblr-illustrations tblr-illustrations-vocate tblr-illustrations-witch-b"/>
    <path d="M455.438 378.132C461.789 378.132 466.938 372.984 466.938 366.632C466.938 360.281 461.789 355.132 455.438 355.132C449.086 355.132 443.938 360.281 443.938 366.632C443.938 372.984 449.086 378.132 455.438 378.132Z" fill="#1a3263" style="fill: #1a3263; fill: var(--tblr-illustrations-primary, var(--tblr-primary, #1a3263));"/>
    <path d="M429.438 351.132C433.58 351.132 436.938 347.998 436.938 344.132C436.938 340.266 433.58 337.132 429.438 337.132C425.295 337.132 421.938 340.266 421.938 344.132C421.938 347.998 425.295 351.132 429.438 351.132Z" fill="#1a3263" style="fill: #1a3263; fill: var(--tblr-illustrations-primary, var(--tblr-primary, #1a3263));"/>
    <path d="M459.437 325.132C463.58 325.132 466.937 321.774 466.937 317.632C466.937 313.49 463.58 310.132 459.437 310.132C455.295 310.132 451.938 313.49 451.938 317.632C451.938 321.774 455.295 325.132 459.437 325.132Z" fill="#1a3263" style="fill: #1a3263; fill: var(--tblr-illustrations-primary, var(--tblr-primary, #1a3263));"/>
    <path d="M504.606 338.118C503.447 335.228 502.357 332.281 501.335 329.32C497.11 316.933 492.325 302.899 494.465 286.867C494.983 282.985 495.569 278.572 498.186 273.391C501.062 267.693 505.574 262.791 511.271 259.132C512.607 262.554 513.724 266.073 514.597 269.592C514.61 269.662 516.464 277.301 516.886 285.596C517.377 295.176 514.406 314.49 504.592 338.132L504.606 338.118Z" fill="#1a3263" style="fill: #1a3263; fill: var(--tblr-illustrations-primary, var(--tblr-primary, #1a3263));"/>
    <path d="M504.589 338.132C504.257 337.194 503.91 336.256 503.591 335.303C497.848 318.736 494.505 302.28 492.938 286.258C493.146 286.202 493.437 286.146 493.784 286.132C493.881 286.132 494.019 286.132 494.214 286.132C499.748 286.258 503.868 289.563 507.475 292.547C509.472 294.199 512.177 296.706 514.938 300.221C514.48 303.092 513.939 306.047 513.315 309.058C511.04 319.884 507.96 329.589 504.603 338.132H504.589Z" fill="black" opacity="0.1"/>
    <path d="M510.156 261.266C511.217 264.109 512.125 266.994 512.855 269.893C512.869 269.963 514.714 277.397 515.141 285.525C515.609 294.472 512.91 312.129 504.111 333.961C503.409 332.13 502.734 330.286 502.087 328.441C497.874 316.29 493.096 302.517 495.216 286.912C495.726 283.167 496.304 278.909 498.838 273.971C501.385 268.992 505.268 264.65 510.17 261.266M511.492 257.146C507.733 259.324 500.82 264.054 496.387 272.681C493.688 277.924 493.041 282.432 492.49 286.51C490.328 302.392 494.9 316.096 499.485 329.328C501.275 334.488 502.969 338.608 504.07 341.132C514.838 316.706 518.446 295.97 517.881 285.359C517.44 276.87 515.526 269.2 515.526 269.2C514.342 264.456 512.869 260.406 511.492 257.132V257.146Z" fill="#0b1b3b" class="tblr-illustrations tblr-illustrations-vocate tblr-illustrations-witch-b"/>
    <path d="M584.674 197.076C576.819 232.563 572.912 250.307 556.396 267.242C552.406 271.326 534.791 289.627 508.251 294.101C506.541 294.394 504.79 294.631 503.01 294.798C499.729 295.119 496.976 295.161 495.099 295.119C494.766 291.411 494.557 283.452 498.631 274.769C501.634 268.343 505.777 264.134 508.404 261.834C509.934 261.179 511.491 260.538 513.103 259.91C514.104 259.492 515.133 259.116 516.134 258.74C517.371 258.252 518.623 257.792 519.832 257.36H519.86C526.505 254.307 530.468 250.558 532.97 247.519C548.958 228.033 539.379 194.302 552.865 165.547C554.283 162.536 557.244 156.78 563.32 154.285C569.965 151.539 578.432 154.006 583.089 158.452C587.927 163.08 590.291 171.582 584.674 197.09V197.076Z" fill="#FFCB9D" style="fill: #FFCB9D; fill: var(--tblr-illustrations-skin, #FFCB9D);"/>
    <path d="M508.128 294.112C506.434 294.402 504.698 294.636 502.935 294.802C499.685 295.119 496.957 295.16 495.098 295.119C494.767 291.451 494.561 283.578 498.596 274.989C501.572 268.632 505.676 264.468 508.279 262.193C509.794 261.545 511.337 260.911 512.935 260.291C513.927 259.877 514.946 259.505 515.938 259.132C512.136 263.544 505.139 274.616 508.142 294.126L508.128 294.112Z" fill="black" opacity="0.1"/>
    <path d="M534.063 110.096L526.134 114.961C525.169 115.553 524.867 116.816 525.459 117.781L528.741 123.13C529.333 124.095 530.595 124.398 531.56 123.805L539.489 118.941C540.454 118.349 540.757 117.086 540.165 116.121L536.883 110.772C536.291 109.807 535.028 109.504 534.063 110.096Z" fill="#1a3263" style="fill: #1a3263; fill: var(--tblr-illustrations-primary, var(--tblr-primary, #1a3263));"/>
    <path d="M561.052 134.28C556.173 134.168 551.764 131.32 549.248 127.07L544.742 119.242L544.852 119.172C546.055 118.442 546.442 116.857 545.723 115.637L543.802 112.383C543.083 111.162 541.521 110.769 540.319 111.499L525.169 120.715C523.967 121.444 523.58 123.03 524.299 124.25L526.22 127.504C526.939 128.725 528.501 129.118 529.703 128.388L529.814 128.318L534.32 136.16C536.946 140.592 536.946 146.021 534.748 150.692C530.27 160.189 530.989 171.972 538.107 181.189C546.11 191.527 560.389 195.034 572.166 189.577C587.923 182.269 593.535 162.981 584.868 148.336C579.643 139.484 570.493 134.504 561.025 134.294L561.052 134.28Z" fill="#DADCE0"/>
    <path d="M581.321 150.331C588.166 161.43 584.995 175.849 574.336 183.1C573.945 183.392 573.512 183.683 573.051 183.933L572.925 184.003C566.611 187.587 560.562 187.184 558.676 187.045C551.719 186.489 546.438 183.128 543.044 180.141C541.842 178.947 540.739 177.599 539.803 176.127L539.523 175.668C539.523 175.668 539.439 175.543 539.425 175.474C539.272 175.252 539.146 175.015 539.02 174.765C534.787 167.139 535.095 158.138 539.202 150.984C541.465 147.067 541.605 142.302 539.23 138.454L531.938 126.633L540.948 121.132L548.184 132.87C550.503 136.621 554.652 139.01 559.053 138.774C567.589 138.288 576.068 142.247 580.986 149.817C581.111 149.984 581.209 150.151 581.321 150.317V150.331Z" fill="#A6A9B3"/>
    <path d="M560.247 177.447C560.247 177.447 552.712 180.132 552.014 180.132C551.444 180.132 542.328 177.319 539.45 176.424C539.422 176.367 539.365 176.296 539.351 176.225C539.194 175.998 539.066 175.756 538.938 175.5C540.618 172.715 548.239 161.519 563.837 159.345C581.685 156.83 560.261 177.433 560.261 177.433L560.247 177.447Z" fill="#1a3263" style="fill: #1a3263; fill: var(--tblr-illustrations-primary, var(--tblr-primary, #1a3263));"/>
    <path d="M560.25 177.447C560.25 177.447 552.714 180.132 552.015 180.132C551.446 180.132 542.328 177.319 539.45 176.424C539.422 176.367 539.365 176.296 539.351 176.225C539.194 175.997 539.066 175.756 538.938 175.5C540.619 172.715 548.24 161.517 563.84 159.343H563.854C581.676 156.842 560.25 177.432 560.25 177.432V177.447Z" fill="black" opacity="0.2"/>
    <path d="M581.362 150.615C588.13 161.628 584.994 175.936 574.455 183.131C574.069 183.421 573.64 183.71 573.185 183.958L573.06 184.027C566.817 187.583 560.836 187.184 558.971 187.046C552.093 186.494 546.871 183.159 543.515 180.195C542.327 179.01 541.236 177.673 540.31 176.212L540.034 175.757C540.034 175.757 539.951 175.633 539.938 175.564C549.081 176.501 553.847 174.158 556.485 171.87C560.739 168.217 560.739 163.709 563.681 159.188H563.695C564.22 158.375 564.828 157.589 565.588 156.79C570.063 152.035 576.348 150.573 581.03 150.132C581.154 150.298 581.251 150.463 581.362 150.629V150.615Z" fill="#1a3263" style="fill: #1a3263; fill: var(--tblr-illustrations-primary, var(--tblr-primary, #1a3263));"/>
    <path d="M539.202 139.132C539.718 139.862 540.904 141.296 543.012 142.338C545.091 143.368 547.003 143.472 547.938 143.472C547.938 143.472 546.221 144.032 544.337 144.488C540.542 145.414 539.956 145.127 539.676 144.931C539.411 144.749 538.769 144.202 538.979 141.113C539.007 140.618 539.076 139.927 539.202 139.132Z" fill="#DADCE0"/>
    <path d="M572.235 147.321C578.258 152.711 579.699 161.396 578.598 162.091C577.714 162.635 575.566 157.789 568.713 151.595C561.711 145.265 556.504 143.604 556.966 142.651C557.523 141.494 566.239 141.957 572.235 147.321Z" fill="#DADCE0"/>
    <path d="M578.438 170.132C579.818 170.132 580.938 169.237 580.938 168.132C580.938 167.028 579.818 166.132 578.438 166.132C577.057 166.132 575.938 167.028 575.938 168.132C575.938 169.237 577.057 170.132 578.438 170.132Z" fill="#DADCE0"/>
    <path d="M254.303 189.69L258.929 196.26C259.244 196.702 259.817 196.909 260.361 196.757L268.282 194.549C269.485 194.218 270.43 195.556 269.657 196.509L264.601 202.776C264.257 203.204 264.243 203.797 264.558 204.239L269.184 210.81C269.886 211.803 268.855 213.087 267.68 212.673L259.932 209.981C259.402 209.802 258.814 209.967 258.471 210.382L253.415 216.648C252.641 217.601 251.066 217.049 251.109 215.848L251.381 207.911C251.395 207.372 251.051 206.889 250.536 206.696L242.787 204.004C241.612 203.59 241.67 201.975 242.873 201.644L250.793 199.435C251.338 199.283 251.71 198.814 251.724 198.276L251.997 190.339C252.04 189.138 253.658 188.682 254.36 189.676L254.303 189.69Z" fill="#1a3263" style="fill: #1a3263; fill: var(--tblr-illustrations-primary, var(--tblr-primary, #1a3263));"/>
    <path d="M361.938 387.132C361.046 389.841 360.223 392.499 359.454 395.132C356.944 394.969 354.213 394.693 351.305 394.242C348.657 393.841 346.188 393.352 343.938 392.825C344.363 391.722 344.966 390.117 345.666 388.161C345.762 387.885 345.858 387.621 345.954 387.383C350.66 388.625 357.218 389.565 361.938 387.132Z" fill="black" opacity="0.1"/>
</svg>
