<svg xmlns="http://www.w3.org/2000/svg" width="800" height="600" fill="none" viewBox="0 0 800 600">
    <style>
        :where(.theme-dark, [data-theme="dark"]) .tblr-illustrations-witch-2-a { fill: black; opacity: 0.07; } :where(.theme-dark, [data-theme="dark"]) .tblr-illustrations-witch-2-b { fill: #24304d; }
        @media (prefers-color-scheme: dark) { .tblr-illustrations-witch-2-a { fill: black; opacity: 0.07; } .tblr-illustrations-witch-2-b { fill: #24304d; } }
    </style>
    <path d="M676.758 299.627C676.758 346.854 626.853 381.113 604.819 419.241C582.068 458.579 576.605 518.729 537.299 541.469C499.187 563.521 444.938 538.854 397.75 538.854C350.562 538.854 296.313 563.521 258.217 541.469C218.911 518.714 213.447 458.579 190.697 419.241C168.663 381.113 118.758 346.854 118.758 299.627C118.758 252.4 168.663 218.157 190.697 180.029C213.447 140.691 218.911 80.5403 258.217 57.8009C296.313 35.7488 350.577 60.4155 397.75 60.4155C444.923 60.4155 499.187 35.7488 537.299 57.8009C576.605 80.5553 582.068 140.691 604.819 180.029C626.853 218.157 676.758 252.415 676.758 299.627Z" fill="#1a3263" style="fill: #1a3263; fill: var(--tblr-illustrations-primary, var(--tblr-primary, #1a3263));" opacity="0.02" class="tblr-illustrations tblr-illustrations-vocate tblr-illustrations-witch-2-a"/>
    <path d="M619.199 236.568C619.577 234.542 620.241 232.591 621.162 230.745C624.395 224.136 630.346 220.431 636.267 221.989C643.774 224.061 648.26 233.801 646.297 243.798C646.1 244.871 645.843 245.93 645.511 246.974C642.717 255.111 635.935 260.086 629.304 258.256C621.782 256.366 617.311 246.641 619.184 236.568H619.199Z" fill="#FFCB9D" style="fill: #FFCB9D; fill: var(--tblr-illustrations-skin, #FFCB9D);"/>
    <path d="M619.204 236.455C619.586 234.43 620.257 232.479 621.189 230.635C621.968 230.907 622.64 231.179 623.357 231.481C632.702 235.442 635.1 240.568 644.49 246.298C644.903 246.555 645.33 246.766 645.758 246.978C642.933 255.112 636.077 260.086 629.374 258.256C621.815 256.246 617.295 246.524 619.189 236.471L619.204 236.455Z" fill="black" opacity="0.1"/>
    <path d="M508.758 260.372C514.677 273.411 531.928 306.474 566.01 314.229C567.968 314.673 571.481 315.369 575.472 315.576C615.13 317.574 648.166 267.95 654.758 257.708C641.319 250.012 627.866 242.331 614.427 234.635C600.361 257.19 582.572 281.492 571.899 277.954C570.27 277.422 569.388 276.43 566.996 274.092C561.181 268.408 553.109 261.29 542.362 253.756C531.165 255.976 519.969 258.182 508.773 260.402L508.758 260.372Z" fill="#1a3263" style="fill: #1a3263; fill: var(--tblr-illustrations-primary, var(--tblr-primary, #1a3263));"/>
    <path d="M465.423 471.006L437.975 487.635C391.626 368.25 300.63 434.048 300.63 434.048L294.758 422.3L297.701 387.431L334.906 337.068L442.144 331.635L470.698 354.488L480.619 405.985L484.758 427.51L465.423 471.006Z" fill="#A6A9B3"/>
    <path d="M300.624 434.014L294.758 422.271L297.698 387.413L334.866 337.066L441.994 331.635L470.519 354.48C472.265 389.86 474.011 425.255 475.758 460.635C433.292 393.531 370.272 368.104 334.045 386.622C328.283 389.562 310.326 400.201 300.624 434.014Z" fill="black" opacity="0.1"/>
    <path d="M469.755 237.635C469.781 240.984 469.639 244.317 469.344 247.635C468.882 246.264 468.689 244.784 468.779 243.305C468.998 241.357 469.357 239.551 469.755 237.635Z" fill="black" opacity="0.1"/>
    <path d="M486.758 378.397C467.988 403.02 449.204 427.628 430.434 452.251C405.204 454.374 379.988 456.512 354.758 458.635C355.311 455.63 355.85 452.61 356.403 449.605C371.912 443.445 387.421 437.286 402.916 431.126C405.652 413.934 408.374 396.756 411.111 379.563C411.919 373.942 412.293 367.185 411.485 359.635C409.167 337.718 398.339 322.14 392.207 314.635L440.29 347.062L466.253 364.583L486.743 378.397H486.758Z" fill="#DADCE0"/>
    <path d="M486.758 378.397C467.988 403.02 449.204 427.628 430.434 452.251C405.204 454.374 379.988 456.512 354.758 458.635C355.311 455.63 355.85 452.61 356.403 449.605C371.912 443.445 387.421 437.286 402.916 431.126C405.652 413.934 408.374 396.756 411.111 379.563C411.919 373.942 412.293 367.185 411.485 359.635C409.167 337.718 398.339 322.14 392.207 314.635L440.29 347.062L466.253 364.583L486.743 378.397H486.758Z" fill="black" opacity="0.1"/>
    <path d="M280.758 471.181L289.724 467.83C289.724 467.83 297.779 463.283 302.136 467.277C306.492 471.271 301.39 493.273 294.945 501.635L291.723 480.784L283.816 481.831L280.758 471.181Z" fill="#0b1b3b" class="tblr-illustrations tblr-illustrations-vocate tblr-illustrations-witch-2-b"/>
    <path d="M327.883 447.65L337.126 447.923C337.126 447.923 345.98 446.726 348.446 452.148C350.898 457.57 338.352 476.258 329.541 481.635L334.213 460.841L326.758 458.796L327.883 447.635V447.65Z" fill="#0b1b3b" class="tblr-illustrations tblr-illustrations-vocate tblr-illustrations-witch-2-b"/>
    <path d="M550.743 260.161C529.703 299.314 508.633 338.482 487.594 377.635L447.892 351.255L425.117 336.13L392.758 314.618C392.818 314.544 392.877 314.454 392.967 314.38C421.409 279.47 449.851 244.56 478.307 209.635C500.768 225.311 523.228 240.972 545.703 256.618C547.378 257.809 549.083 258.985 550.758 260.161H550.743Z" fill="#1a3263" style="fill: #1a3263; fill: var(--tblr-illustrations-primary, var(--tblr-primary, #1a3263));"/>
    <path d="M458.299 318.814C457.449 329.13 454.973 343.561 447.798 351.373C436.386 363.851 416.785 355.622 391.724 353.222C377.449 351.85 361.398 352.372 344.079 359.677C324.344 367.995 315.304 379.907 313.291 382.65C298.836 402.492 300.343 425.406 301.312 433.635C294.256 424.138 291.452 415.462 290.199 409.872C283.889 381.74 299.298 354.056 316.975 339.387C319.287 337.479 326.552 331.71 337.367 327.371C352.12 321.483 362.323 322.899 372.273 321.513C378.195 320.693 385.191 318.725 393.007 314.446C400.69 310.197 409.177 303.638 418.157 293.635C431.687 298.033 445.202 302.401 458.732 306.769C458.732 306.769 458.911 311.867 458.329 318.814H458.299Z" fill="#1a3263" style="fill: #1a3263; fill: var(--tblr-illustrations-primary, var(--tblr-primary, #1a3263));"/>
    <path d="M545.743 256.652C530.415 276.547 492.677 300.138 458.57 318.841C446.649 325.353 435.205 331.269 425.285 336.247C406.386 345.71 393.09 351.716 393.09 351.716C393.09 351.716 392.672 352.252 391.88 353.25C377.583 351.879 361.508 352.401 344.163 359.703C324.398 368.019 315.345 379.926 313.328 382.668C298.851 402.503 300.36 425.409 301.331 433.635C294.265 424.142 291.456 415.469 290.201 409.88C283.882 381.759 299.314 354.085 317.018 339.421C319.333 337.513 326.609 331.746 337.44 327.409C352.215 321.523 362.434 322.939 372.399 321.553C378.33 320.733 385.336 318.766 393.165 314.489C421.58 279.543 449.995 244.596 478.425 209.635C500.864 225.327 523.304 241.005 545.758 256.667L545.743 256.652Z" fill="black" opacity="0.1"/>
    <path d="M501.743 351.584C497.871 371.141 497.219 386.93 497.322 397.595C497.486 416.392 499.711 426.625 495.261 442.995C493.97 447.731 491.018 458.187 482.77 467.72C467.758 485.073 445.67 487.247 438.758 487.635C440.612 486.354 443.371 484.298 446.397 481.424C467.476 461.464 478.157 423.646 467.417 392.977C460.208 372.407 445.596 367.716 448.088 351.986C449.468 343.258 456.128 331.461 467.788 329.778C481.035 327.857 492.65 345.894 492.65 345.894C495.691 347.786 498.717 349.678 501.758 351.569L501.743 351.584Z" fill="#1a3263" style="fill: #1a3263; fill: var(--tblr-illustrations-primary, var(--tblr-primary, #1a3263));"/>
    <path d="M509.459 347.983L504.568 360.861C503.717 363.102 501.227 364.237 499.184 363.311C494.591 361.234 486.194 357.41 476.068 352.614C441.216 336.077 385.799 307.811 393.479 298.833C404.589 285.91 415.372 286.642 415.372 286.642C415.372 286.642 439.859 307.617 467.702 324.439C480.841 332.372 494.71 339.408 507.118 342.859C509.235 343.442 510.309 345.802 509.474 347.983H509.459Z" fill="#DADCE0"/>
    <path d="M475.758 352.635C441.036 336.092 385.825 307.818 393.476 298.837C404.545 285.91 415.287 286.642 415.287 286.642C415.287 286.642 439.684 307.624 467.423 324.451C468.894 332.625 471.494 343.504 475.758 352.635Z" fill="black" opacity="0.1"/>
    <path d="M461.008 342.058C467.812 346.116 474.452 350.749 481.241 354.615C481.687 354.836 482.313 354.821 482.774 354.556C483.31 354.349 483.682 353.213 483.965 352.785C486.184 348.388 488.774 343.209 490.829 338.782C491.156 338.015 490.784 337.366 489.995 337.085L487.285 335.831C481.375 333.101 475.047 330.165 469.226 327.302C469.137 327.273 469.018 327.332 468.958 327.391L467.99 329.265C466.04 333.146 462.243 339.771 461.023 342.058H461.008ZM458.536 346.426C456.288 345.319 455.067 342.22 456.169 339.918C457.896 336.362 459.608 332.777 461.425 329.25C462.214 327.686 463.092 326.048 463.926 324.514C465.385 321.976 468.809 320.913 471.459 322.153C477.325 325.207 483.474 328.763 489.265 332.009C489.95 332.423 492.094 333.544 492.749 334.031C494.744 335.462 495.355 338.399 494.119 340.479C492.556 343.194 490.888 346.16 489.385 348.904L486.556 354.128L486.198 354.777C485.246 357.079 482.328 358.363 479.99 357.197C472.874 353.331 465.638 350.144 458.536 346.426Z" fill="#0b1b3b" class="tblr-illustrations tblr-illustrations-vocate tblr-illustrations-witch-2-b"/>
    <path d="M474.981 339.819C475.506 338.766 476.793 338.335 477.854 338.856L489.563 344.601C490.624 345.122 491.06 346.398 490.535 347.451C490.01 348.504 488.723 348.934 487.661 348.414L475.952 342.669C474.89 342.148 474.455 340.872 474.981 339.819Z" fill="#0b1b3b" class="tblr-illustrations tblr-illustrations-vocate tblr-illustrations-witch-2-b"/>
    <path d="M541.758 253.235C528.597 258.612 501.381 269.366 501.161 269.633C500.926 269.93 495.682 234.697 493.758 221.641C494.933 221.611 496.123 221.686 497.327 221.908C499.442 222.295 500.896 222.948 502.336 223.988C503.966 225.132 505.582 226.751 508.093 228.934C509.929 230.538 512.235 232.44 515.378 234.697C523.604 240.609 528.054 242.124 532.181 244.619C533.386 245.347 534.575 246.149 535.809 247.174C536.896 248.066 538.012 249.105 539.232 250.412C540.054 251.289 540.877 252.18 541.743 253.22L541.758 253.235Z" fill="#DADCE0"/>
    <path d="M541.758 253.235C528.597 258.612 501.381 269.366 501.161 269.633C500.926 269.93 495.682 234.697 493.758 221.641C494.933 221.611 496.123 221.686 497.327 221.908C499.442 222.295 500.896 222.948 502.336 223.988C503.966 225.132 505.582 226.751 508.093 228.934C509.929 230.538 512.235 232.44 515.378 234.697C523.604 240.609 528.054 242.124 532.181 244.619C533.386 245.347 534.575 246.149 535.809 247.174C536.896 248.066 538.012 249.105 539.232 250.412C540.054 251.289 540.877 252.18 541.743 253.22L541.758 253.235Z" fill="black" opacity="0.1"/>
    <path d="M532.758 245.031C521.819 249.44 511.856 253.462 511.719 253.633C511.582 253.819 509.708 241.615 507.758 228.635C508.535 229.054 509.616 229.66 510.896 230.42C513.105 231.725 514.735 232.796 516.487 233.976C520.86 236.895 523.358 238.603 523.358 238.603C526.938 241.056 530.107 243.214 532.743 245.031H532.758Z" fill="#FFCB9D" style="fill: #FFCB9D; fill: var(--tblr-illustrations-skin, #FFCB9D);"/>
    <path d="M214.152 443.748C207.383 445.744 200.257 448.431 195.952 451.733C193.785 453.384 192.315 455.2 191.989 457.167C191.558 459.628 190.578 461.94 189.302 464.071C184.819 471.561 176.758 476.635 176.758 476.635C218.19 468.739 230.956 441.406 231.713 439.725C231.728 439.665 231.758 439.635 231.758 439.635C231.758 439.635 223.281 441.076 214.137 443.763L214.152 443.748Z" fill="#1a3263" style="fill: #1a3263; fill: var(--tblr-illustrations-primary, var(--tblr-primary, #1a3263));"/>
    <path d="M232.719 422.665C232.541 423.036 232.362 423.422 232.169 423.809C227.884 432.903 221.382 439.441 214.001 444.107C208.258 447.762 201.964 450.289 195.76 452.012C189.287 453.81 182.919 454.746 177.399 455.192C180.657 455.579 182.547 455.906 182.547 455.906L162.758 458.907L163.948 464.881C163.948 464.881 175.316 466.129 189.094 464.197C184.6 471.612 176.521 476.635 176.521 476.635C218.049 468.819 230.845 441.759 231.603 440.095C231.618 440.035 231.648 440.006 231.648 440.006C232.883 437.836 233.925 435.488 234.758 432.918L232.719 422.635V422.665Z" fill="black" opacity="0.1"/>
    <path d="M214.152 443.748C207.383 445.744 200.257 448.431 195.952 451.733C193.785 453.384 192.315 455.2 191.989 457.167C191.558 459.628 190.578 461.94 189.302 464.071C184.819 471.561 176.758 476.635 176.758 476.635C218.19 468.739 230.956 441.406 231.713 439.725C231.728 439.665 231.758 439.635 231.758 439.635C231.758 439.635 223.281 441.076 214.137 443.763L214.152 443.748Z" fill="black" opacity="0.1"/>
    <path d="M156.78 380.397C151.209 382.683 147.758 384.578 147.758 384.578L154.883 420.657C159.888 420.326 164.862 419.769 169.478 418.882C170.374 418.717 171.271 418.536 172.137 418.341C170.793 419.183 164.787 422.853 156.093 426.838L161.516 454.345C167.984 454.48 173.466 454.976 177.171 455.428C180.443 455.819 182.34 456.15 182.34 456.15L162.472 459.187L163.667 465.233C163.667 465.233 175.08 466.497 188.913 464.541C204.269 462.376 222.613 456.285 231.591 440.133C231.606 440.073 231.636 440.042 231.636 440.042C232.876 437.847 233.921 435.471 234.758 432.869L225.72 387.074C220.253 380.652 213.71 376.787 206.764 374.712C188.853 369.298 168.283 375.644 156.78 380.367V380.397Z" fill="#1a3263" style="fill: #1a3263; fill: var(--tblr-illustrations-primary, var(--tblr-primary, #1a3263));"/>
    <path d="M243.766 404.726L244.24 407.114C244.753 409.695 247.26 411.372 249.841 410.859L677.083 326.031C679.664 325.518 681.341 323.01 680.829 320.429L680.355 318.042C679.842 315.461 677.334 313.784 674.753 314.296L247.511 399.125C244.93 399.637 243.254 402.145 243.766 404.726Z" fill="#0b1b3b" class="tblr-illustrations tblr-illustrations-vocate tblr-illustrations-witch-2-b"/>
    <path d="M158.758 437.659L160.812 447.635C170.362 443.838 180.811 440.489 190.166 439.132L215.758 435.393C215.758 435.393 185.639 430.196 158.758 437.674V437.659Z" fill="black" opacity="0.2"/>
    <path d="M198.758 411.635L174.154 417.94C173.611 418.078 173.067 418.215 172.524 418.337C171.203 419.192 165.302 422.917 156.758 426.963L157.272 429.635C179.938 424.184 198.758 411.65 198.758 411.65V411.635Z" fill="black" opacity="0.1"/>
    <path d="M234.823 387.742L243.983 430.322C244.342 432.009 246.048 433.004 247.695 432.506C250.988 431.527 254.7 430.623 258.816 429.99C265.162 428.996 270.909 428.83 275.729 429.056C277.45 429.131 278.857 427.685 278.752 425.937C277.705 408.429 276.642 390.906 275.594 373.399C275.445 370.988 272.646 369.782 270.805 371.319C266.793 374.694 261.076 378.551 253.547 381.173C247.44 383.298 241.887 384.021 237.547 384.171C235.736 384.232 234.449 385.949 234.823 387.727V387.742Z" fill="#1a3263" style="fill: #1a3263; fill: var(--tblr-illustrations-primary, var(--tblr-primary, #1a3263));"/>
    <path d="M235.041 380.719L227.705 382.184C226.093 382.509 224.821 383.574 224.185 384.935C223.785 385.794 223.652 386.785 223.845 387.791L232.793 432.841C233.296 435.401 235.854 437.058 238.487 436.54L245.823 435.075C248.175 434.617 249.787 432.59 249.757 430.341C249.757 430.06 249.728 429.779 249.669 429.483L240.72 384.432C240.218 381.873 237.659 380.201 235.026 380.734L235.041 380.719Z" fill="#DADCE0"/>
    <path d="M224.185 384.635C223.785 385.498 223.652 386.495 223.845 387.507L232.793 432.819C233.296 435.394 235.854 437.06 238.487 436.539L245.823 435.066C248.175 434.605 249.787 432.566 249.757 430.304C243.649 420.17 232.527 401.435 224.17 384.635H224.185Z" fill="black" opacity="0.1"/>
    <path d="M141.773 379.133C141.773 379.133 149.641 378.502 157.163 380.863C160.313 381.841 163.403 383.345 165.814 385.647C174.029 393.439 208.758 375.809 208.758 375.809C208.758 375.809 208.366 375.568 207.597 375.192C202.02 372.485 176.758 362.24 141.758 379.118L141.773 379.133Z" fill="#1a3263" style="fill: #1a3263; fill: var(--tblr-illustrations-primary, var(--tblr-primary, #1a3263));"/>
    <path d="M141.758 378.99C141.758 378.99 149.531 378.368 156.962 380.694C151.407 382.945 147.968 384.812 147.968 384.812L150.335 396.635C164.795 392.575 208.427 383.568 224.39 391.568C225.239 391.998 226.028 392.338 226.758 392.59L225.701 387.286C220.25 380.96 213.728 377.153 206.803 375.108C201.294 372.441 176.336 362.352 141.758 378.975V378.99Z" fill="black" opacity="0.1"/>
    <path d="M424.743 358.095L405.544 379.624C372.813 408.299 340.066 436.975 307.335 465.635L301.758 459.316C322.452 424.096 343.162 388.892 363.856 353.672C367.504 352.98 371.362 352.439 375.429 352.077C395.092 350.362 412.078 353.898 424.758 358.095H424.743Z" fill="#DADCE0"/>
    <path d="M462.381 349.047C463.951 350.355 465.326 351.875 466.462 353.574C470.618 359.576 470.977 366.555 466.776 370.948C461.379 376.483 450.81 375.701 443.112 369.173C442.275 368.481 441.482 367.744 440.75 366.962C435.054 360.599 434.008 352.296 438.777 347.407C444.024 341.767 454.578 342.564 462.381 349.047Z" fill="#FFCB9D" style="fill: #FFCB9D; fill: var(--tblr-illustrations-skin, #FFCB9D);"/>
    <path d="M462.649 349.009C464.23 350.304 465.614 351.807 466.758 353.489C466.141 354.025 465.599 354.472 464.982 354.934C457.066 361.007 451.453 360.606 441.987 365.876C441.566 366.114 441.174 366.367 440.783 366.635C435.05 360.338 433.996 352.12 438.797 347.282C444.154 341.803 454.779 342.592 462.634 349.009H462.649Z" fill="black" opacity="0.1"/>
    <path d="M495.743 241.134C481.365 239.923 443.79 238.816 420.415 264.83C419.936 265.368 417.201 268.448 414.645 272.439C393.601 305.24 411.686 356.01 418.277 372.635C434.613 363.814 450.935 354.979 467.271 346.158C463.116 338.848 439.561 296.733 449.634 287.748C450.86 286.657 451.951 286.313 453.774 285.55C461.217 282.486 471.142 275.908 481.335 260.36C486.147 253.946 490.945 247.547 495.758 241.134H495.743Z" fill="#1a3263" style="fill: #1a3263; fill: var(--tblr-illustrations-primary, var(--tblr-primary, #1a3263));"/>
    <path d="M540.834 220.528C524.852 219.126 508.272 211.078 502.029 204.748C500.938 203.753 500.102 202.518 499.609 201.116C499.116 199.383 498.773 197.529 498.399 195.75C497.921 193.218 497.578 190.581 497.339 187.989C496.652 181.191 496.577 174.364 497.1 167.552C497.159 167.024 497.324 165.336 497.488 163.422C498.444 154.861 499.43 148.004 500.177 143.226C500.416 144.01 501.64 147.552 503.567 147.642C505.494 147.718 507.929 143.769 508.646 137.635L544.105 144.673L556.398 160.513C556.398 160.513 556.458 162.684 556.772 166.014C557.205 171.817 558.041 177.574 559.266 183.256C560.013 187.567 561.536 191.711 563.777 195.464C570.364 205.065 559.968 222.246 540.834 220.513V220.528Z" fill="#FFCB9D" style="fill: #FFCB9D; fill: var(--tblr-illustrations-skin, #FFCB9D);"/>
    <path d="M558.758 183.07C544.43 185.195 529.791 182.472 517.171 175.303C513.637 175.109 510.104 175.872 506.971 177.533C502.339 180.137 501.819 183.295 497.721 187.246L497.335 187.635C496.652 180.885 496.578 174.106 497.098 167.341C497.157 166.818 497.32 165.141 497.484 163.241C498.434 154.74 499.414 147.931 500.156 143.187C500.394 143.965 501.611 147.482 503.526 147.572C505.442 147.647 507.862 143.726 508.574 137.635L543.822 144.624L556.041 160.353C556.041 160.353 556.1 162.508 556.412 165.815C556.783 171.607 557.57 177.368 558.758 183.04V183.07Z" fill="black" opacity="0.1"/>
    <path d="M572.28 163.685C570.787 165.513 569.086 167.148 567.189 168.53C565.398 169.868 563.427 170.968 561.352 171.845C559.292 172.722 557.201 173.272 555.096 173.584C551.006 174.179 546.87 173.822 542.839 172.871C529.88 169.809 518.22 160.593 514.144 157.115C511.89 160.786 507.679 163.164 506.022 165.587C505.828 165.855 505.679 166.137 505.559 166.42C505.231 167.207 504.917 168.01 504.604 168.738C503.439 172.261 502.902 175.962 503.006 179.678C503.454 188.166 504.619 196.609 506.485 204.888C511.009 224.776 496.975 249.094 481.955 261.728C478.283 264.805 474.267 267.466 469.997 269.651C432.672 289.554 387.345 278.659 387.345 278.659C371.296 276.176 355.859 270.602 341.944 262.249C333.195 257.046 325.073 250.848 317.758 243.773C321.147 238.526 325.044 233.65 329.403 229.191C331.045 227.467 332.673 225.921 334.27 224.524C341.944 217.567 348.289 214.624 353.873 210.105C361.144 204.145 369.549 193.68 373.909 173.064C439.988 208.307 459.128 209.095 464.174 202.896C468.578 197.426 459.8 188.969 463.487 173.986C464.294 170.671 465.548 167.609 467.13 164.77C474.058 152.299 487.315 144.242 497.542 139.575C504.753 136.305 510.456 134.714 511.352 134.492C517.13 132.946 539.226 127.119 558.53 138.564C560.62 139.798 563.905 141.745 566.965 144.257C571.25 147.765 575.132 152.388 574.729 157.68C574.49 159.879 573.639 161.946 572.266 163.685H572.28Z" fill="#0b1b3b" class="tblr-illustrations tblr-illustrations-vocate tblr-illustrations-witch-2-b"/>
    <path d="M317.758 243.762C325.333 250.497 333.4 256.668 341.869 262.243C355.755 270.599 371.13 276.175 387.144 278.658C387.144 278.658 432.33 289.556 469.524 269.648C473.78 267.462 477.784 264.801 481.445 261.723C496.418 249.085 510.408 224.76 505.898 204.866C504.023 196.57 502.862 188.125 502.416 179.635C497.683 204.688 483.573 226.99 462.96 242.007C440.129 256.563 412.729 262.228 385.983 257.917C373.779 256.222 362.185 251.553 352.213 244.342C344.965 238.87 338.848 232.016 334.219 224.195C332.626 225.593 331.004 227.139 329.367 228.864C325.006 233.414 321.121 238.394 317.773 243.747L317.758 243.762Z" fill="black" opacity="0.5"/>
    <path d="M574.729 157.504C574.489 159.682 573.635 161.757 572.257 163.49C570.759 165.313 569.036 166.928 567.148 168.307C565.35 169.64 563.373 170.737 561.291 171.611C559.223 172.485 557.126 173.034 554.998 173.345C550.908 173.938 546.744 173.582 542.699 172.634C529.889 169.625 518.324 160.645 514.084 157.074C514.009 157 513.949 156.955 513.904 156.911C511.642 160.571 507.417 162.942 505.754 165.358C495.627 163.757 482.608 162.883 466.758 164.557C473.709 152.124 487.013 144.092 497.275 139.439C504.601 137.409 512.676 136.031 521.425 135.705C540.152 135.023 555.762 139.424 566.938 144.107C571.238 147.619 575.133 152.213 574.729 157.504Z" fill="black" opacity="0.5"/>
    <path d="M589.758 143.788C576.442 147.166 563.769 149.654 551.903 151.449C490.78 160.724 450.758 151.69 450.758 151.69C461.682 148.734 469.439 143.003 474.938 136.488C478.585 132.175 481.245 127.499 483.188 123.065C487.82 112.448 488.299 103.173 488.299 103.173C473.07 93.7921 459.396 66.4793 458.977 65.6348C487.925 84.3208 543.579 88.1063 543.579 88.1063C543.579 88.1063 544.132 95.7225 548.974 112.931C549.123 113.534 549.303 114.137 549.482 114.755C551.679 122.402 558.957 128.706 566.743 133.442C577.757 140.168 589.758 143.788 589.758 143.788Z" fill="#1a3263" style="fill: #1a3263; fill: var(--tblr-illustrations-primary, var(--tblr-primary, #1a3263));"/>
    <path d="M566.407 133.343C565.929 133.689 565.332 133.914 564.66 133.929C549.147 134.41 533.618 134.876 518.09 135.356C504.069 135.777 490.064 136.213 476.043 136.633C475.551 136.648 475.103 136.558 474.685 136.378C472.982 135.642 472.161 133.464 473.251 131.721L477.462 124.961C477.955 124.18 478.761 123.639 479.687 123.504L482.927 123.008L505.308 119.568L548.654 112.914L550.266 112.673C551.312 112.508 552.372 112.884 553.088 113.65C557.687 118.607 562.286 123.564 566.885 128.521C568.303 130.039 567.885 132.292 566.407 133.343Z" fill="#0b1b3b" class="tblr-illustrations tblr-illustrations-vocate tblr-illustrations-witch-2-b"/>
    <path d="M551.758 151.449C490.722 160.724 450.758 151.69 450.758 151.69C461.667 148.734 469.412 143.003 474.903 136.488C473.202 135.749 472.381 133.562 473.471 131.813L477.679 125.026C478.172 124.242 478.978 123.699 479.903 123.563L483.141 123.065C487.767 112.448 488.245 103.173 488.245 103.173C473.038 93.7921 459.383 66.4793 458.966 65.6348C460.816 67.8668 485.424 99.1611 505.451 97.9093C505.451 97.9093 500.541 107.652 505.511 119.612C507.615 124.679 511.495 130.154 518.285 135.463C524.269 140.123 532.537 144.677 543.834 148.689C546.55 149.669 549.191 150.574 551.758 151.449Z" fill="black" opacity="0.2"/>
    <path d="M500.709 114.188L504.145 122.021C504.31 122.39 504.686 122.611 505.091 122.567L513.735 121.785C514.635 121.697 515.116 122.803 514.44 123.379L507.927 128.999C507.627 129.265 507.522 129.678 507.687 130.046L511.124 137.88C511.484 138.691 510.568 139.488 509.788 139.03L502.329 134.678C501.984 134.472 501.549 134.516 501.234 134.782L494.721 140.402C494.045 140.992 492.995 140.373 493.205 139.517L495.111 131.197C495.201 130.813 495.021 130.415 494.676 130.209L487.217 125.857C486.437 125.4 486.707 124.234 487.607 124.16L496.251 123.379C496.657 123.349 496.987 123.054 497.077 122.67L498.983 114.35C499.178 113.48 500.393 113.377 500.754 114.188H500.709Z" fill="#DADCE0"/>
    <path d="M386.809 79.2335C380.889 78.2845 375.7 81.6136 373.657 87.5187C371.942 92.535 372.941 98.0634 374.045 101.709C374.477 103.155 373.299 104.496 371.972 104.089C366.813 102.492 361.638 103.953 358.074 108.277C353.839 113.429 352.408 121.864 354.182 130.134C354.555 131.792 352.93 132.997 351.603 132.108C341.806 125.615 331.099 127.031 324.806 135.316C324.657 135.497 324.508 135.693 324.374 135.889C321.406 140.107 320.064 145.213 319.572 150.034V150.064C319.542 150.38 319.527 150.667 319.497 150.968C319.289 151.781 318.677 152.429 317.857 152.595C317.037 152.76 316.232 152.399 315.725 151.736C315.605 151.465 315.456 151.194 315.322 150.923C315.307 150.908 315.307 150.893 315.307 150.893C313.026 146.645 309.849 142.442 305.51 139.685C296.429 133.961 285.692 136.702 278.937 146.69C278.028 148.03 276.104 147.533 275.806 145.861C274.33 137.531 269.811 130.27 263.951 127.152C258.985 124.516 253.677 125.163 249.501 128.643C248.428 129.532 246.832 128.734 246.698 127.227C246.325 123.446 245.162 117.963 241.688 113.986C237.572 109.316 231.503 108.232 226.418 111.395C224.957 112.299 223.227 110.582 223.913 108.894C227.387 100.112 234.068 94.2523 240.241 90.5013C244.968 87.6241 249.382 85.9671 251.828 85.1838C252.842 84.8674 253.9 85.6357 254.079 86.8107C257.434 107.855 280.891 115.176 291.672 117.451C293.193 117.767 294.267 115.899 293.342 114.498C290.285 109.858 290.986 104.556 292.418 100.489C292.984 98.8317 295.206 98.9673 295.683 100.685C297.667 108.006 307.404 107.388 308.791 107.237C308.895 107.237 309 107.207 309.119 107.177C310.446 106.77 319.676 103.592 318.752 96.0599C318.513 94.2824 320.541 93.3032 321.675 94.6138C324.538 97.8375 327.192 102.462 326.133 107.915C325.805 109.572 327.505 110.883 328.788 110.024C337.899 103.743 356.777 87.9254 351.946 67.1824C351.662 66.0376 352.348 64.9228 353.407 64.8324C359.297 64.3052 376.654 63.9587 388.181 75.9496C389.434 77.2602 388.494 79.5047 386.809 79.2185V79.2335Z" fill="#0b1b3b" class="tblr-illustrations tblr-illustrations-vocate tblr-illustrations-witch-2-b"/>
    <path d="M145.038 213.935C150.375 214.567 154.063 218.737 154.378 224.307C154.648 229.034 152.429 233.55 150.6 236.395C149.866 237.539 150.555 238.984 151.815 238.954C156.672 238.849 160.78 241.393 162.819 245.999C165.232 251.464 164.408 259.081 160.855 265.75C160.135 267.09 161.229 268.52 162.594 268.083C172.878 264.862 181.978 268.972 185.216 278.064C186.76 282.445 186.685 287.157 185.936 291.417C185.936 291.417 185.936 291.432 185.936 291.447C185.876 291.718 185.831 291.989 185.786 292.245C185.786 292.997 186.146 293.705 186.805 294.036C187.465 294.367 188.26 294.262 188.844 293.81C189.024 293.615 189.219 293.419 189.399 293.208C189.399 293.208 189.399 293.208 189.414 293.193C192.427 290.092 196.19 287.262 200.628 285.982C209.878 283.303 218.498 288.316 221.916 298.583C222.366 299.952 224.165 299.998 224.824 298.643C228.122 291.853 233.804 286.735 239.636 285.501C244.553 284.462 249.006 286.329 251.764 290.348C252.469 291.387 254.043 291.101 254.538 289.836C255.782 286.675 258.121 282.234 262.109 279.69C266.801 276.694 272.318 277.266 275.961 281.24C276.995 282.369 278.899 281.346 278.749 279.72C277.235 264.862 264.807 255.378 260.37 252.427C259.575 251.9 258.481 252.307 258.031 253.255C249.995 270.522 227.928 271.019 218.033 270.296C216.639 270.191 216.174 268.309 217.313 267.346C221.091 264.109 221.766 259.397 221.526 255.528C221.436 253.978 219.487 253.526 218.648 254.896C215.14 260.692 206.879 257.741 205.71 257.29C205.62 257.26 205.53 257.214 205.455 257.154C204.406 256.462 197.195 251.449 199.833 245.216C200.463 243.741 198.964 242.416 197.629 243.244C194.376 245.307 190.943 248.619 190.538 253.586C190.418 255.092 188.634 255.799 187.735 254.731C181.393 247.083 168.905 228.808 178.155 212.173C178.665 211.255 178.35 210.126 177.465 209.78C172.503 207.883 157.571 203.291 144.679 210.743C143.269 211.556 143.539 213.724 145.068 213.904L145.038 213.935Z" fill="#0b1b3b" class="tblr-illustrations tblr-illustrations-vocate tblr-illustrations-witch-2-b"/>
</svg>
